<?xml version="1.0" encoding="UTF-8"?>
<svg version="1.1" xmlns="http://www.w3.org/2000/svg" width="120" height="122">
<path d="M0 0 C39.6 0 79.2 0 120 0 C120 40.26 120 80.52 120 122 C80.4 122 40.8 122 0 122 C0 81.74 0 41.48 0 0 Z " fill="#FEFEFE" transform="translate(0,0)"/>
<path d="M0 0 C3.7797026 2.72978521 4.88095391 5.55863039 6 10 C6.02979792 11.59744256 6.01127036 13.19616921 5.95703125 14.79296875 C5.25879978 25.36702052 5.25879978 25.36702052 9.6015625 34.5390625 C12.28852893 36.96863166 15.22358968 38.97547935 18.28857422 40.89746094 C20.85276843 42.54937264 23.15476024 44.49197682 25.5 46.4375 C27.89670523 48.3376276 30.29714164 50.22926014 32.71875 52.09765625 C35 54 35 54 36 56 C36.1875 59.5 36.1875 59.5 36 63 C35.34 63.66 34.68 64.32 34 65 C30.0735401 64.62143902 26.81218683 63.1479158 23.26171875 61.49609375 C22.19501953 61.00302734 21.12832031 60.50996094 20.02929688 60.00195312 C18.92650391 59.48568359 17.82371094 58.96941406 16.6875 58.4375 C15.56537109 57.91736328 14.44324219 57.39722656 13.28710938 56.86132812 C10.52247049 55.57900626 7.76024234 54.29175153 5 53 C4.30573934 63.76226963 4.30573934 63.76226963 7.8125 73.4375 C9.23737407 74.49597788 10.6930308 75.51458461 12.1796875 76.484375 C14.54974559 78.45772809 14.75456599 79.79203804 15.125 82.8125 C15.2578125 85.08203125 15.2578125 85.08203125 15 87 C14.34 87.66 13.68 88.32 13 89 C10.6796875 88.79296875 10.6796875 88.79296875 7.875 88.1875 C6.88371094 87.9915625 5.89242187 87.795625 4.87109375 87.59375 C3.19503481 87.24713645 1.51998 86.89545844 -0.15234375 86.53125 C-5.27102574 85.6100966 -8.94916881 86.65001141 -13.703125 88.40625 C-16.25249029 89.0652696 -17.5560188 88.90838239 -20 88 C-21 87 -21 87 -21.375 83.75 C-20.9034942 79.03494204 -19.55875559 77.99258993 -16 75 C-15.29875 74.48308594 -14.5975 73.96617188 -13.875 73.43359375 C-11.0545479 69.77288197 -11.32743896 66.2555397 -11.25 61.75 C-11.22035156 60.90953125 -11.19070312 60.0690625 -11.16015625 59.203125 C-11.08968364 57.1359285 -11.04255061 55.06795967 -11 53 C-11.76666992 53.36875244 -12.53333984 53.73750488 -13.32324219 54.11743164 C-16.17399999 55.48171054 -19.02951545 56.83530698 -21.88867188 58.18188477 C-23.124405 58.76652398 -24.35816041 59.35536281 -25.58984375 59.94848633 C-27.36190972 60.8009358 -29.14181931 61.63701899 -30.921875 62.47265625 C-31.99018555 62.98062744 -33.05849609 63.48859863 -34.15917969 64.01196289 C-37.06478468 65.02253211 -38.20030606 65.1370065 -41 64 C-41.91337587 60.40114295 -41.99723129 57.59388666 -41 54 C-37.70435914 50.2595816 -33.93751145 47.38388499 -29.93457031 44.43505859 C-27.2850122 42.46962414 -24.70997947 40.41526175 -22.12744141 38.36303711 C-20.32774064 36.93661628 -18.51749803 35.52487279 -16.703125 34.1171875 C-14.78689558 32.63159732 -14.78689558 32.63159732 -13 31 C-12.87901073 29.43669133 -12.82041303 27.86845135 -12.7890625 26.30078125 C-12.76070312 25.33849609 -12.73234375 24.37621094 -12.703125 23.38476562 C-12.65154272 21.35629253 -12.60712796 19.32762295 -12.5703125 17.29882812 C-12.36387098 10.83462804 -11.46025196 6.51464565 -7.6875 1.125 C-5.02405947 -0.65062702 -3.11406906 -0.44486701 0 0 Z " fill="#054B82" transform="translate(59,19)"/>
</svg>
