<svg xmlns="http://www.w3.org/2000/svg" width="48" height="48" viewBox="0 0 48 48">
    <g data-name="Group 21700" transform="translate(-1073.238 -2416.103)">
        <ellipse data-name="Ellipse 162" cx="4.823" cy="4.34" rx="4.823" ry="4.34" transform="translate(1087.411 2441.191)" style="fill:#cef5e1"/>
        <path data-name="Path 10932" d="m12185.477 4728.634 5.419-5.419 4.41 4.411-6.07 6.33-3.759-.779z" transform="translate(-11077.528 -2303.619)" style="stroke:#707070;fill:#cef5e1"/>
        <path d="M47.907 6.408a1.643 1.643 0 0 0-1.373-1.1l-3.445-.4-.4-3.445a1.655 1.655 0 0 0-2.811-.978L33.068 7.3a1.646 1.646 0 0 0-.474 1.36l.493 4.269-1.517 1.512a19.1 19.1 0 1 0 1.989 1.989l1.517-1.517 4.269.493a1.645 1.645 0 0 0 1.36-.474l6.81-6.81a1.643 1.643 0 0 0 .392-1.714zm-17.3 34.017a16.289 16.289 0 1 1-1.037-23.988L27 19.009A12.669 12.669 0 1 0 28.991 21l2.572-2.572a16.311 16.311 0 0 1-.952 21.996zM18.351 29.649a1.407 1.407 0 0 0 1.989 0l1.87-1.87a3.308 3.308 0 1 1-1.989-1.989l-1.87 1.87a1.406 1.406 0 0 0 0 1.989zm3.966-5.955a6.121 6.121 0 1 0 1.989 1.989L26.986 23A9.856 9.856 0 1 1 25 21.014zm16.8-11.147-3.28-.379-.379-3.28 4.719-4.719.233 2.061a1.542 1.542 0 0 0 1.36 1.36l2.061.238zm0 0" transform="translate(1073.237 2416.104)" style="fill:#143a72"/>
    </g>
</svg>
