<?xml version="1.0" encoding="UTF-8"?>
<svg version="1.1" xmlns="http://www.w3.org/2000/svg" width="153" height="50">
<path d="M0 0 C50.49 0 100.98 0 153 0 C153 16.5 153 33 153 50 C102.51 50 52.02 50 0 50 C0 33.5 0 17 0 0 Z " fill="#252222" transform="translate(0,0)"/>
<path d="M0 0 C1.12535156 0.00580078 1.12535156 0.00580078 2.2734375 0.01171875 C3.02367187 0.00785156 3.77390625 0.00398437 4.546875 0 C10.14682697 0.01010822 10.14682697 0.01010822 11.2734375 1.13671875 C11.3736468 3.41619667 11.40425053 5.6987901 11.40625 7.98046875 C11.40768509 9.00690491 11.40768509 9.00690491 11.40914917 10.05407715 C11.4098308 11.50333752 11.40797773 12.95260093 11.40380859 14.40185547 C11.39846002 16.62734803 11.4037541 18.85263876 11.41015625 21.078125 C11.40949547 22.48307336 11.4082143 23.8880216 11.40625 25.29296875 C11.40512207 26.58009766 11.40399414 27.86722656 11.40283203 29.19335938 C11.2734375 32.13671875 11.2734375 32.13671875 10.2734375 33.13671875 C7.5961237 33.23653089 4.95039575 33.2755175 2.2734375 33.26171875 C1.14808594 33.26751953 1.14808594 33.26751953 0 33.2734375 C-5.59995197 33.26332928 -5.59995197 33.26332928 -6.7265625 32.13671875 C-6.8267718 29.85724083 -6.85737553 27.5746474 -6.859375 25.29296875 C-6.86033173 24.60867798 -6.86128845 23.92438721 -6.86227417 23.21936035 C-6.8629558 21.77009998 -6.86110273 20.32083657 -6.85693359 18.87158203 C-6.85158502 16.64608947 -6.8568791 14.42079874 -6.86328125 12.1953125 C-6.86262047 10.79036414 -6.8613393 9.3854159 -6.859375 7.98046875 C-6.85824707 6.69333984 -6.85711914 5.40621094 -6.85595703 4.08007812 C-6.63198197 -1.01472062 -4.58604953 0.00827807 0 0 Z " fill="#FBFBFA" transform="translate(17.7265625,8.86328125)"/>
<path d="M0 0 C4.29 0 8.58 0 13 0 C13 6.6 13 13.2 13 20 C8.71 20 4.42 20 0 20 C0 13.4 0 6.8 0 0 Z " fill="#242121" transform="translate(13,15)"/>
<path d="M0 0 C3.33333333 0 6.66666667 0 10 0 C11.7015625 -0.12375 11.7015625 -0.12375 13.4375 -0.25 C17 0 17 0 18.9375 1.75 C20 4 20 4 20 8 C15.545 8.495 15.545 8.495 11 9 C11 9.66 11 10.32 11 11 C13.64 11 16.28 11 19 11 C19 11.99 19 12.98 19 14 C11.77108434 14.48192771 11.77108434 14.48192771 8.5 12.4375 C6.49521219 9.17971981 6.71137141 6.75217167 7 3 C6.01 3 5.02 3 4 3 C3.67 6.63 3.34 10.26 3 14 C2.01 14 1.02 14 0 14 C0 9.38 0 4.76 0 0 Z " fill="#C2C0C0" transform="translate(123,26)"/>
<path d="M0 0 C1.588125 -0.061875 3.17625 -0.12375 4.8125 -0.1875 C6.15248047 -0.23970703 6.15248047 -0.23970703 7.51953125 -0.29296875 C10 0 10 0 11.80078125 1.26171875 C13.90124089 4.30635894 13.5324279 7.45048067 13 11 C11.875 13 11.875 13 10 14 C6.8125 14.1875 6.8125 14.1875 4 14 C3.67 15.65 3.34 17.3 3 19 C2.01 19 1.02 19 0 19 C0 12.73 0 6.46 0 0 Z " fill="#F5F5F4" transform="translate(54,26)"/>
<path d="M0 0 C1.588125 -0.061875 3.17625 -0.12375 4.8125 -0.1875 C6.15248047 -0.23970703 6.15248047 -0.23970703 7.51953125 -0.29296875 C10 0 10 0 11.80078125 1.296875 C13.80660962 4.14554331 13.35389514 6.63799615 13 10 C11.875 12.4375 11.875 12.4375 10 14 C6.8125 14.25 6.8125 14.25 4 14 C3.67 15.65 3.34 17.3 3 19 C2.01 19 1.02 19 0 19 C0 12.73 0 6.46 0 0 Z " fill="#EBEAEA" transform="translate(69,26)"/>
<path d="M0 0 C3.5625 0.5 3.5625 0.5 6.0625 2.0625 C7.5625 4.5 7.5625 4.5 7.5 8.0625 C6.15951493 12.97761194 6.15951493 12.97761194 3.5625 14.5 C-0.06781776 15.04068562 -1.75964079 14.96379841 -4.8125 12.875 C-6.9128727 9.80522452 -6.97043835 8.15443439 -6.4375 4.5 C-4.82303773 0.89120198 -3.95737975 0.57561887 0 0 Z " fill="#EAE9E9" transform="translate(114.4375,25.5)"/>
<path d="M0 0 C1.65 0.33 3.3 0.66 5 1 C5.83887056 3.43572059 6.67126529 5.87333217 7.5 8.3125 C7.73847656 9.00279297 7.97695313 9.69308594 8.22265625 10.40429688 C9.23208263 13.38931489 10 15.82658914 10 19 C9.01 19 8.02 19 7 19 C6.79375 18.195625 6.5875 17.39125 6.375 16.5625 C5.92125 15.716875 5.4675 14.87125 5 14 C1.94727535 13.10169161 1.94727535 13.10169161 -1 13 C-1.66 14.98 -2.32 16.96 -3 19 C-3.99 19 -4.98 19 -6 19 C-4.3186083 12.51292846 -2.46937673 6.2322365 0 0 Z " fill="#D9D8D8" transform="translate(43,21)"/>
<path d="M0 0 C-0.33 0.99 -0.66 1.98 -1 3 C-3.31 3 -5.62 3 -8 3 C-6.86516076 6.40451771 -6.44722063 6.6005564 -3.4375 8.1875 C-2.303125 8.785625 -1.16875 9.38375 0 10 C0.1875 13.375 0.1875 13.375 0 17 C-3.6441774 19.4294516 -5.71241272 19.16179575 -10 19 C-10.33 18.01 -10.66 17.02 -11 16 C-8.36 16 -5.72 16 -3 16 C-3.04768403 14.12119128 -3.04768403 14.12119128 -4 12 C-6.94236782 9.78831775 -6.94236782 9.78831775 -10 8 C-11 7 -11 7 -11.3125 4.625 C-11 2 -11 2 -9.4375 0.125 C-6.03118195 -1.44714679 -3.59718087 -0.76094211 0 0 Z " fill="#EEEEED" transform="translate(99,21)"/>
<path d="M0 0 C0.33 0 0.66 0 1 0 C1.33 8.91 1.66 17.82 2 27 C-3.28 27 -8.56 27 -14 27 C-14 26.67 -14 26.34 -14 26 C-11.69 26 -9.38 26 -7 26 C-7.33 24.02 -7.66 22.04 -8 20 C-5.36 20 -2.72 20 0 20 C0 13.4 0 6.8 0 0 Z " fill="#CECCCC" transform="translate(26,15)"/>
<path d="M0 0 C0.99 0 1.98 0 3 0 C3 0.99 3 1.98 3 3 C3.99 3 4.98 3 6 3 C6 3.99 6 4.98 6 6 C5.01 6 4.02 6 3 6 C3 8.64 3 11.28 3 14 C3.99 14 4.98 14 6 14 C6 14.99 6 15.98 6 17 C3.625 17.1875 3.625 17.1875 1 17 C-0.92408575 14.11387138 -1.27338912 13.2478839 -1.5625 10 C-1.8035815 7.40222383 -2.16030532 5.51908403 -3 3 C-2.34 3 -1.68 3 -1 3 C-0.67 2.01 -0.34 1.02 0 0 Z " fill="#DDDCDB" transform="translate(102,23)"/>
<path d="M0 0 C0.66 0 1.32 0 2 0 C2 0.66 2 1.32 2 2 C2.66 2 3.32 2 4 2 C3.96744792 3.98567708 3.93489583 5.97135417 3.90234375 7.95703125 C3.91736783 10.20305461 3.91736783 10.20305461 5 13 C4.34 13 3.68 13 3 13 C3 14.98 3 16.96 3 19 C2.01 19 1.02 19 0 19 C0 12.73 0 6.46 0 0 Z " fill="#FBFBFA" transform="translate(69,26)"/>
<path d="M0 0 C3.53571429 0.53571429 3.53571429 0.53571429 5 2 C5.125 5 5.125 5 5 8 C4 9 4 9 1.5 9.125 C-1 9 -1 9 -2 8 C-2.1875 5.0625 -2.1875 5.0625 -2 2 C-1.34 1.34 -0.68 0.68 0 0 Z " fill="#302D2D" transform="translate(59,28)"/>
<path d="M0 0 C2.31 0 4.62 0 7 0 C7 0.99 7 1.98 7 3 C6.01 3 5.02 3 4 3 C3.67 6.63 3.34 10.26 3 14 C2.01 14 1.02 14 0 14 C0 9.38 0 4.76 0 0 Z " fill="#F0EFEF" transform="translate(123,26)"/>
<path d="M0 0 C3.69230769 0.69230769 3.69230769 0.69230769 5 2 C5.04080783 3.99958364 5.04254356 6.00045254 5 8 C3.02 8.99 3.02 8.99 1 10 C-0.5625 8.875 -0.5625 8.875 -2 7 C-1.56521739 1.56521739 -1.56521739 1.56521739 0 0 Z " fill="#232020" transform="translate(113,28)"/>
<path d="M0 0 C2.5 0.125 2.5 0.125 3.5 1.125 C3.21269945 3.46444736 2.88063221 5.7989143 2.5 8.125 C0.83388095 8.167721 -0.83382885 8.16563832 -2.5 8.125 C-3.5 7.125 -3.5 7.125 -3.625 4.125 C-3.46033403 0.1730167 -3.46033403 0.1730167 0 0 Z " fill="#272423" transform="translate(75.5,28.875)"/>
<path d="M0 0 C2.5 0.3125 2.5 0.3125 5 1 C6.58791315 4.17582631 6.41019741 7.54161153 6 11 C4.625 13 4.625 13 3 14 C2.34 14 1.68 14 1 14 C1 13.34 1 12.68 1 12 C0.01 11.67 -0.98 11.34 -2 11 C-0.68 10.67 0.64 10.34 2 10 C2.40749675 5.74268432 2.40749675 5.74268432 0.5 2.125 C0.005 1.75375 -0.49 1.3825 -1 1 C-0.67 0.67 -0.34 0.34 0 0 Z " fill="#F0EFEE" transform="translate(61,26)"/>
<path d="M0 0 C0.66 0 1.32 0 2 0 C2 14.19 2 28.38 2 43 C1.67 43 1.34 43 1 43 C0.85692631 37.51905988 0.71452817 32.03810279 0.57275391 26.55712891 C0.52443678 24.69286628 0.47593561 22.82860841 0.42724609 20.96435547 C0.35726212 18.28354098 0.28794175 15.60271003 0.21875 12.921875 C0.19687622 12.08944275 0.17500244 11.2570105 0.15246582 10.39935303 C0.13244507 9.61884583 0.11242432 8.83833862 0.09179688 8.03417969 C0.07403198 7.35023132 0.05626709 6.66628296 0.03796387 5.96160889 C-0.00048891 3.97473769 0 1.98724325 0 0 Z " fill="#434240" transform="translate(151,0)"/>
<path d="M0 0 C0.598125 0.185625 1.19625 0.37125 1.8125 0.5625 C4.16408762 1.22093687 4.16408762 1.22093687 7 0 C7 0.66 7 1.32 7 2 C7.99 2.33 8.98 2.66 10 3 C10 4.65 10 6.3 10 8 C9.67 6.68 9.34 5.36 9 4 C8.34 4 7.68 4 7 4 C7 5.32 7 6.64 7 8 C6.34 8 5.68 8 5 8 C4.67 7.01 4.34 6.02 4 5 C3.01 5 2.02 5 1 5 C0.67 5.99 0.34 6.98 0 8 C0 5.36 0 2.72 0 0 Z " fill="#C0BFBE" transform="translate(114,8)"/>
<path d="M0 0 C1.33841672 0.31229724 2.67139075 0.64830932 4 1 C5.33981486 0.6937566 6.67511887 0.36548445 8 0 C9 1 9 1 9.0625 3.5625 C9.041875 4.366875 9.02125 5.17125 9 6 C8.67 4.68 8.34 3.36 8 2 C7.34 2 6.68 2 6 2 C6 3.32 6 4.64 6 6 C3.69 6 1.38 6 -1 6 C-1.625 4.125 -1.625 4.125 -2 2 C-1.34 1.34 -0.68 0.68 0 0 Z " fill="#A5A3A3" transform="translate(127,10)"/>
<path d="M0 0 C0.8353125 0.7734375 0.8353125 0.7734375 1.6875 1.5625 C3.94085007 3.29476698 3.94085007 3.29476698 6.75 2.6875 C7.4925 2.460625 8.235 2.23375 9 2 C9.33 3.65 9.66 5.3 10 7 C7.50935112 7.68707555 5.62113708 8 3 8 C3 6.68 3 5.36 3 4 C2.34 4 1.68 4 1 4 C0.67 5.32 0.34 6.64 0 8 C0 5.36 0 2.72 0 0 Z " fill="#CDCBCA" transform="translate(98,8)"/>
<path d="M0 0 C0.66 0 1.32 0 2 0 C2.33 1.32 2.66 2.64 3 4 C3 3.34 3 2.68 3 2 C4.32 2.33 5.64 2.66 7 3 C7 4.65 7 6.3 7 8 C4.69 8 2.38 8 0 8 C0 5.36 0 2.72 0 0 Z " fill="#BFBCBC" transform="translate(56,8)"/>
<path d="M0 0 C0.66 0 1.32 0 2 0 C2.33 0.99 2.66 1.98 3 3 C4.32 3 5.64 3 7 3 C7 4.65 7 6.3 7 8 C4.69 8 2.38 8 0 8 C0 5.36 0 2.72 0 0 Z " fill="#BFBDBC" transform="translate(70,8)"/>
<path d="M0 0 C0.66 0 1.32 0 2 0 C2 2.64 2 5.28 2 8 C0.02 8 -1.96 8 -4 8 C-4 5 -4 5 -3 2 C-2.01 2 -1.02 2 0 2 C0 1.34 0 0.68 0 0 Z " fill="#AFADAC" transform="translate(53,8)"/>
<path d="M0 0 C0.66 0 1.32 0 2 0 C2 0.66 2 1.32 2 2 C2.99 2.33 3.98 2.66 5 3 C5 4.65 5 6.3 5 8 C3.35 8 1.7 8 0 8 C0 5.36 0 2.72 0 0 Z " fill="#AFADAC" transform="translate(64,8)"/>
<path d="M0 0 C2.5625 0.1875 2.5625 0.1875 4.5625 2.1875 C4.6875 4.8125 4.6875 4.8125 4.5625 7.1875 C1.9225 7.1875 -0.7175 7.1875 -3.4375 7.1875 C-3.4375 6.8575 -3.4375 6.5275 -3.4375 6.1875 C-1.4575 6.1875 0.5225 6.1875 2.5625 6.1875 C0.5552092 3.1765638 -0.27634224 2.55733503 -3.4375 1.1875 C-2.4375 0.1875 -2.4375 0.1875 0 0 Z " fill="#F9F9F9" transform="translate(137.4375,25.8125)"/>
<path d="M0 0 C0.99 0 1.98 0 3 0 C3.66 3.3 4.32 6.6 5 10 C4.34 10 3.68 10 3 10 C3 9.34 3 8.68 3 8 C2.01 8 1.02 8 0 8 C0 5.36 0 2.72 0 0 Z " fill="#181515" transform="translate(105,29)"/>
<path d="M0 0 C0.99 0.33 1.98 0.66 3 1 C3 2.65 3 4.3 3 6 C1.35 5.67 -0.3 5.34 -2 5 C-2 3.68 -2 2.36 -2 1 C-1.34 0.67 -0.68 0.34 0 0 Z " fill="#A4A2A1" transform="translate(82,10)"/>
<path d="M0 0 C0.99 0.33 1.98 0.66 3 1 C3.33 2.98 3.66 4.96 4 7 C3.67 6.34 3.34 5.68 3 5 C2.01 5 1.02 5 0 5 C0 5.66 0 6.32 0 7 C-0.66 7 -1.32 7 -2 7 C-1.34 4.69 -0.68 2.38 0 0 Z " fill="#CECCCB" transform="translate(39,9)"/>
<path d="M0 0 C1.98 0.495 1.98 0.495 4 1 C3.67 2.65 3.34 4.3 3 6 C1.68 5.67 0.36 5.34 -1 5 C-0.67 3.35 -0.34 1.7 0 0 Z " fill="#BCBAB8" transform="translate(138,10)"/>
<path d="M0 0 C0.99 0.33 1.98 0.66 3 1 C3 2.65 3 4.3 3 6 C1.35 6 -0.3 6 -2 6 C-2 4.35 -2 2.7 -2 1 C-1.34 0.67 -0.68 0.34 0 0 Z " fill="#C0BEBE" transform="translate(88,10)"/>
<path d="M0 0 C0.99 0.33 1.98 0.66 3 1 C3 2.65 3 4.3 3 6 C2.67 4.68 2.34 3.36 2 2 C1.34 2 0.68 2 0 2 C0 3.32 0 4.64 0 6 C-0.99 5.67 -1.98 5.34 -3 5 C-2.625 3.0625 -2.625 3.0625 -2 1 C-1.34 0.67 -0.68 0.34 0 0 Z " fill="#C6C4C3" transform="translate(133,10)"/>
<path d="M0 0 C2.31 0.33 4.62 0.66 7 1 C6.67 1.99 6.34 2.98 6 4 C3.03 3.505 3.03 3.505 0 3 C0 2.01 0 1.02 0 0 Z " fill="#D4D2D1" transform="translate(92,20)"/>
<path d="M0 0 C2.0625 0.4375 2.0625 0.4375 4 1 C3.01 1.66 2.02 2.32 1 3 C0.27034634 5.56282742 0.27034634 5.56282742 0 8 C-0.66 7.67 -1.32 7.34 -2 7 C-1.125 1.125 -1.125 1.125 0 0 Z " fill="#3B3838" transform="translate(113,28)"/>
<path d="M0 0 C0 1.65 0 3.3 0 5 C-1.32 5.33 -2.64 5.66 -4 6 C-3.625 3.5625 -3.625 3.5625 -3 1 C-1 0 -1 0 0 0 Z " fill="#EDEDEC" transform="translate(41,34)"/>
</svg>
