<svg xmlns="http://www.w3.org/2000/svg" width="49.778" height="49.778" viewBox="0 0 49.778 49.778">
    <defs>
        <style>
            .cls-1{fill:#cef5e1}.cls-2{fill:#143a72}
        </style>
    </defs>
    <g id="Group_21688" data-name="Group 21688" transform="translate(-820.525 -2426.954)">
        <circle id="Ellipse_154" data-name="Ellipse 154" class="cls-1" cx="7.135" cy="7.135" transform="translate(834.667 2461.62)" r="7.135"/>
        <g id="Group_21687" data-name="Group 21687">
            <circle id="Ellipse_153" data-name="Ellipse 153" class="cls-1" cx="5.351" cy="5.351" transform="translate(840.042 2435.678)" r="5.351"/>
            <g id="trophy" transform="translate(820.525 2426.954)">
                <path id="Path_10924" data-name="Path 10924" class="cls-2" d="M185.511 417.407a1.458 1.458 0 0 0 1.458 1.458h10.79a1.458 1.458 0 0 0 0-2.917h-10.79a1.458 1.458 0 0 0-1.458 1.459z" transform="translate(-167.475 -375.51)"/>
                <path id="Path_10925" data-name="Path 10925" class="cls-2" d="M191.018 50.852a1.459 1.459 0 0 0-1.185-.727l-3.357-.179-1.833-2.818a1.464 1.464 0 0 0-2.445 0l-1.833 2.818-3.357.179a1.458 1.458 0 0 0-1.222 2.117l1.523 3-1.523 3a1.458 1.458 0 0 0 1.222 2.117l3.357.179 1.833 2.818a1.464 1.464 0 0 0 2.445 0l1.833-2.818 3.357-.179a1.458 1.458 0 0 0 1.222-2.117l-1.523-3 1.523-3a1.459 1.459 0 0 0-.037-1.39zM186.6 55.9l.844 1.66-1.859.1a1.458 1.458 0 0 0-1.145.661l-1.015 1.56-1.015-1.56a1.458 1.458 0 0 0-1.145-.661l-1.859-.1.844-1.66a1.458 1.458 0 0 0 0-1.322l-.844-1.66 1.859-.1a1.458 1.458 0 0 0 1.145-.661l1.015-1.56 1.015 1.56a1.458 1.458 0 0 0 1.145.661l1.859.1-.844 1.66a1.458 1.458 0 0 0 0 1.322z" transform="translate(-158.552 -41.952)"/>
                <path id="Path_10923" data-name="Path 10923" class="cls-2" d="M48.319 3.078h-5.938v-1.62A1.458 1.458 0 0 0 40.923 0H8.813a1.458 1.458 0 0 0-1.458 1.458v1.62h-5.9A1.458 1.458 0 0 0 0 4.537v6.787a8.7 8.7 0 0 0 8.689 8.689h1.046a17.6 17.6 0 0 0 9.812 7.88v6.125H14.32a1.458 1.458 0 0 0-1.458 1.458v11.385H9.4a1.458 1.458 0 0 0 0 2.917h30.954a1.458 1.458 0 0 0 0-2.917h-3.438V35.476a1.458 1.458 0 0 0-1.458-1.458H30v-6.067a17.6 17.6 0 0 0 10-7.938h1.087a8.7 8.7 0 0 0 8.689-8.689V4.537a1.458 1.458 0 0 0-1.458-1.458zm-45.4 8.246V6h4.436v5.212a17.432 17.432 0 0 0 1.017 5.88 5.78 5.78 0 0 1-5.455-5.763zM34 46.861H15.779v-9.927H34zm-6.913-12.843h-4.624v-5.463a17.646 17.646 0 0 0 4.626.026zM24.868 25.8a14.613 14.613 0 0 1-14.6-14.6V2.917h29.197v8.291A14.613 14.613 0 0 1 24.868 25.8zm21.993-14.48a5.78 5.78 0 0 1-5.5 5.766 17.433 17.433 0 0 0 1.017-5.882V6h4.48z"/>
            </g>
        </g>
    </g>
</svg>
