<svg xmlns="http://www.w3.org/2000/svg" width="18" height="19.384" viewBox="0 0 18 19.384"><g transform="translate(-47.994 -32)"><path class="a" d="M159.815,33.41a4.623,4.623,0,0,0-6.639-.009,4.58,4.58,0,0,0-1.163,3.5c.192,2.645,2.2,4.8,4.486,4.8s4.29-2.151,4.486-4.795A4.566,4.566,0,0,0,159.815,33.41Z" transform="translate(-99.505)"></path><path class="a" d="M64.609,296.307H49.379a1.341,1.341,0,0,1-1.047-.482,1.528,1.528,0,0,1-.311-1.26,7.408,7.408,0,0,1,3.3-4.922,10.622,10.622,0,0,1,11.354,0,7.406,7.406,0,0,1,3.3,4.922,1.528,1.528,0,0,1-.311,1.26A1.341,1.341,0,0,1,64.609,296.307Z" transform="translate(0 -244.923)"></path></g></svg>