<svg class="mansvg" xmlns="http://www.w3.org/2000/svg" width="18.602" height="18.6" viewBox="0 0 18.602 18.6"><defs><style>.mansvg .a{fill:#092e4f;stroke:#092e4f;stroke-width:0.6px;}</style></defs><path class="a" d="M8.976,0A9,9,0,1,1,0,8.976,9,9,0,0,1,8.976,0Zm-5.5,14.96a6.156,6.156,0,0,1,3.812-3.378A3.43,3.43,0,0,1,5.55,8.638v-.29a3.426,3.426,0,0,1,6.853,0v.29a3.386,3.386,0,0,1-1.689,2.944,5.955,5.955,0,0,1,3.764,3.378,8.2,8.2,0,0,0,2.606-5.984,8.107,8.107,0,1,0-16.214,0A8.2,8.2,0,0,0,3.475,14.96Zm10.327.579a5.161,5.161,0,0,0-4.826-3.281A5.1,5.1,0,0,0,4.2,15.539a8.183,8.183,0,0,0,4.777,1.544A8.332,8.332,0,0,0,13.8,15.539ZM8.976,5.791A2.575,2.575,0,0,0,6.418,8.349v.29a2.558,2.558,0,0,0,5.115,0v-.29A2.575,2.575,0,0,0,8.976,5.791Z" transform="translate(0.301 0.3)"></path></svg>