<svg class="markersvg" xmlns="http://www.w3.org/2000/svg" width="16.684" height="21" viewBox="0 0 16.684 21"><defs><style>.markersvg .a{fill:#214260;stroke:#214260;stroke-miterlimit:10;}</style></defs><g transform="translate(-20.512 -12.4)"><g transform="translate(21.225 12.9)"><path class="a" d="M28.853,32.9a.259.259,0,0,1-.228-.114l-5.84-7.635a7.65,7.65,0,0,1,0-9.259,7.651,7.651,0,0,1,12.137,0,7.65,7.65,0,0,1,0,9.259l-5.84,7.635A.352.352,0,0,1,28.853,32.9Zm0-19.43a6.976,6.976,0,0,0-5.613,2.764,7.053,7.053,0,0,0,0,8.575l5.613,7.322,5.613-7.322A7.051,7.051,0,0,0,28.853,13.47Z" transform="translate(-21.225 -12.9)"></path><g transform="translate(3.8 3.808)"><path class="a" d="M35.828,31.356a3.828,3.828,0,1,1,3.828-3.828A3.839,3.839,0,0,1,35.828,31.356Zm0-7.177a3.349,3.349,0,1,0,3.349,3.349A3.359,3.359,0,0,0,35.828,24.178Z" transform="translate(-32 -23.7)"></path></g></g></g></svg>