<svg version="1.1" id="Layer_1" xmlns="http://www.w3.org/2000/svg" xmlns:xlink="http://www.w3.org/1999/xlink" x="0px" y="0px" viewBox="0 0 18 18" style="enable-background:new 0 0 18 18;" xml:space="preserve">
                      <style type="text/css">
                        .st0{fill:#0A3252;}
                        .st1{fill:none;stroke:#0A3252;stroke-width:1.7216;stroke-miterlimit:10;}
                        .st2{fill:#FFFFFF;}
                        .st3{fill:#2E88CE;}
                        .st4{fill:#707070;}
                      </style>
                      <g>
                        <g>
                          <path class="st0" d="M7,8.1c0,0.2,0,0.5-0.1,0.7C6.8,9,6.7,9.1,6.6,9.3C6.4,9.4,6.2,9.5,6,9.6C5.8,9.6,5.6,9.7,5.3,9.7H4.9v1.4
                            c0,0,0,0,0,0.1c0,0,0,0-0.1,0c0,0-0.1,0-0.1,0c-0.1,0-0.1,0-0.2,0c-0.1,0-0.2,0-0.2,0s-0.1,0-0.1,0c0,0-0.1,0-0.1,0c0,0,0,0,0-0.1
                            v-4C4,7,4,6.9,4.1,6.9c0.1-0.1,0.1-0.1,0.2-0.1h1c0.1,0,0.2,0,0.3,0c0.1,0,0.2,0,0.3,0.1c0.1,0,0.3,0.1,0.4,0.1
                            c0.1,0.1,0.3,0.2,0.3,0.3c0.1,0.1,0.2,0.2,0.2,0.4C7,7.8,7,8,7,8.1z M6.1,8.2c0-0.2,0-0.3-0.1-0.4C5.9,7.7,5.9,7.6,5.8,7.6
                            c-0.1,0-0.2-0.1-0.3-0.1c-0.1,0-0.2,0-0.3,0H4.9V9h0.4c0.1,0,0.3,0,0.4-0.1c0.1,0,0.2-0.1,0.2-0.2C6,8.7,6,8.6,6,8.5
                            C6.1,8.4,6.1,8.3,6.1,8.2z"></path>
                          <path class="st0" d="M10.9,10.9c0,0.1,0,0.1,0.1,0.2c0,0,0,0.1,0,0.1c0,0-0.1,0-0.1,0c-0.1,0-0.2,0-0.3,0c-0.1,0-0.2,0-0.3,0
                            c-0.1,0-0.1,0-0.1,0c0,0-0.1,0-0.1,0c0,0,0,0,0-0.1l-0.3-0.9H8l-0.3,0.9c0,0,0,0.1,0,0.1c0,0,0,0-0.1,0.1c0,0-0.1,0-0.1,0
                            c-0.1,0-0.1,0-0.2,0c-0.1,0-0.2,0-0.2,0c-0.1,0-0.1,0-0.1,0c0,0,0-0.1,0-0.1c0,0,0-0.1,0.1-0.2l1.4-3.9c0,0,0-0.1,0-0.1
                            c0,0,0,0,0.1-0.1c0,0,0.1,0,0.2,0c0.1,0,0.2,0,0.3,0c0.1,0,0.2,0,0.3,0c0.1,0,0.1,0,0.2,0c0,0,0.1,0,0.1,0.1c0,0,0,0.1,0,0.1
                            L10.9,10.9z M8.8,7.6L8.8,7.6L8.2,9.5h1.3L8.8,7.6z"></path>
                          <path class="st0" d="M12.7,9.5v1.6c0,0,0,0,0,0.1c0,0,0,0-0.1,0c0,0-0.1,0-0.1,0c-0.1,0-0.1,0-0.2,0c-0.1,0-0.2,0-0.2,0
                            c-0.1,0-0.1,0-0.1,0c0,0-0.1,0-0.1,0c0,0,0,0,0-0.1V9.5l-1.2-2.4c0-0.1-0.1-0.1-0.1-0.2c0,0,0-0.1,0-0.1c0,0,0.1,0,0.1,0
                            c0.1,0,0.2,0,0.3,0c0.1,0,0.2,0,0.3,0c0.1,0,0.1,0,0.1,0c0,0,0.1,0,0.1,0c0,0,0,0,0,0.1L12,8c0,0.1,0.1,0.2,0.1,0.3
                            c0,0.1,0.1,0.2,0.1,0.4h0c0-0.1,0.1-0.2,0.1-0.4c0-0.1,0.1-0.2,0.1-0.3L13,6.9c0,0,0-0.1,0-0.1c0,0,0,0,0.1-0.1c0,0,0.1,0,0.1,0
                            c0.1,0,0.1,0,0.2,0c0.1,0,0.2,0,0.3,0c0.1,0,0.1,0,0.1,0c0,0,0,0.1,0,0.1c0,0,0,0.1-0.1,0.2L12.7,9.5z"></path>
                        </g>
                        <circle class="st1" cx="9" cy="9" r="8.1"></circle>
                      </g>
                  </svg>