<?xml version="1.0" encoding="UTF-8"?>
<svg version="1.1" xmlns="http://www.w3.org/2000/svg" width="93" height="96">
<path d="M0 0 C30.69 0 61.38 0 93 0 C93 31.68 93 63.36 93 96 C62.31 96 31.62 96 0 96 C0 64.32 0 32.64 0 0 Z " fill="#FBFCFD" transform="translate(0,0)"/>
<path d="M0 0 C2.58618164 1.19580078 2.58618164 1.19580078 5.16015625 2.6953125 C6.1133374 3.24356689 7.06651855 3.79182129 8.04858398 4.35668945 C9.04317627 4.94023193 10.03776855 5.52377441 11.0625 6.125 C13.11662638 7.30956731 15.17131109 8.49316697 17.2265625 9.67578125 C18.2155957 10.2476416 19.20462891 10.81950195 20.22363281 11.40869141 C23.76325465 13.43746868 27.33690705 15.39448079 30.9375 17.3125 C31.93652344 17.84488281 32.93554688 18.37726562 33.96484375 18.92578125 C34.63644531 19.28027344 35.30804688 19.63476562 36 20 C36 20.33 36 20.66 36 21 C9.6 21 -16.8 21 -44 21 C-40.68380524 18.51285393 -37.56115477 16.55683504 -33.94921875 14.56640625 C-33.37218704 14.24719711 -32.79515533 13.92798798 -32.20063782 13.59910583 C-30.36447176 12.58407216 -28.5260807 11.57315215 -26.6875 10.5625 C-24.86394195 9.55665716 -23.04085265 8.54997729 -21.21829224 7.54232788 C-19.48820806 6.58791497 -17.75463808 5.63982952 -16.02099609 4.69189453 C-13.62650564 3.35087151 -11.32885595 1.94237979 -9.01953125 0.46484375 C-5.32250296 -1.32866933 -3.93498235 -0.95431599 0 0 Z " fill="#034A81" transform="translate(50,9)"/>
<path d="M0 0 C5.28 0 10.56 0 16 0 C15.67 1.32 15.34 2.64 15 4 C14.90661859 6.26934437 14.86930396 8.54123615 14.8671875 10.8125 C14.86623077 11.46323486 14.86527405 12.11396973 14.86428833 12.78442383 C14.86360982 14.15608823 14.86544113 15.52775589 14.86962891 16.89941406 C14.87498188 18.99291226 14.86967284 21.08619593 14.86328125 23.1796875 C14.86394209 24.51562547 14.86522337 25.85156331 14.8671875 27.1875 C14.86831543 28.39792969 14.86944336 29.60835937 14.87060547 30.85546875 C14.90103537 34.17773238 14.90103537 34.17773238 16 38 C10.72 38 5.44 38 0 38 C0 37.01 0 36.02 0 35 C0.99 34.505 0.99 34.505 2 34 C2.04939115 29.90661348 2.08571501 25.81334202 2.10986328 21.71972656 C2.11992877 20.32679219 2.13358234 18.93387898 2.15087891 17.54101562 C2.1751022 15.5404564 2.18540814 13.53974385 2.1953125 11.5390625 C2.20578613 10.33459473 2.21625977 9.13012695 2.22705078 7.88916016 C2.30460814 4.87158505 2.30460814 4.87158505 0 3 C0 2.01 0 1.02 0 0 Z " fill="#084D84" transform="translate(38,40)"/>
<path d="M0 0 C5.28 0 10.56 0 16 0 C15.67 1.32 15.34 2.64 15 4 C14.90661859 6.26934437 14.86930396 8.54123615 14.8671875 10.8125 C14.86623077 11.46323486 14.86527405 12.11396973 14.86428833 12.78442383 C14.86360982 14.15608823 14.86544113 15.52775589 14.86962891 16.89941406 C14.87498188 18.99291226 14.86967284 21.08619593 14.86328125 23.1796875 C14.86394209 24.51562547 14.86522337 25.85156331 14.8671875 27.1875 C14.86831543 28.39792969 14.86944336 29.60835937 14.87060547 30.85546875 C14.90103537 34.17773238 14.90103537 34.17773238 16 38 C10.72 38 5.44 38 0 38 C0 37.01 0 36.02 0 35 C0.99 34.505 0.99 34.505 2 34 C2 24.1 2 14.2 2 4 C1.34 3.67 0.68 3.34 0 3 C0 2.01 0 1.02 0 0 Z " fill="#044B82" transform="translate(65,40)"/>
<path d="M0 0 C5.61 0 11.22 0 17 0 C17 0.99 17 1.98 17 3 C16.01 3.495 16.01 3.495 15 4 C15 13.9 15 23.8 15 34 C15.66 34.33 16.32 34.66 17 35 C17 35.99 17 36.98 17 38 C11.72 38 6.44 38 1 38 C2 34 2 34 3 33 C3.28188316 28.36045946 3.2318207 23.7095829 3.25 19.0625 C3.270625 17.74830078 3.29125 16.43410156 3.3125 15.08007812 C3.31765625 13.82775391 3.3228125 12.57542969 3.328125 11.28515625 C3.3374707 10.12894775 3.34681641 8.97273926 3.35644531 7.78149414 C3.23881836 6.86360107 3.12119141 5.94570801 3 5 C2.01 4.34 1.02 3.68 0 3 C0 2.01 0 1.02 0 0 Z " fill="#014980" transform="translate(10,40)"/>
<path d="M0 0 C26.4 0 52.8 0 80 0 C80 1.65 80 3.3 80 5 C53.6 5 27.2 5 0 5 C0 3.35 0 1.7 0 0 Z " fill="#2B6795" transform="translate(6,88)"/>
<path d="M0 0 C25.08 0 50.16 0 76 0 C76 1.65 76 3.3 76 5 C50.92 5 25.84 5 0 5 C0 3.35 0 1.7 0 0 Z " fill="#306A97" transform="translate(8,81)"/>
<path d="M0 0 C24.42 0 48.84 0 74 0 C74 1.65 74 3.3 74 5 C49.58 5 25.16 5 0 5 C0 3.35 0 1.7 0 0 Z " fill="#266393" transform="translate(9,32)"/>
</svg>
