<?xml version="1.0" encoding="UTF-8"?>
<svg version="1.1" xmlns="http://www.w3.org/2000/svg" width="135" height="111">
<path d="M0 0 C44.55 0 89.1 0 135 0 C135 36.63 135 73.26 135 111 C90.45 111 45.9 111 0 111 C0 74.37 0 37.74 0 0 Z " fill="#F9FBFC" transform="translate(0,0)"/>
<path d="M0 0 C1.546875 0.00193359 1.546875 0.00193359 3.125 0.00390625 C6.41295459 0.49977984 7.6389393 1.12888527 10 3.4375 C10.50793457 5.89732361 10.50793457 5.89732361 10.51757812 8.85522461 C10.53018677 9.96324936 10.54279541 11.07127411 10.55578613 12.21287537 C10.54768921 13.40977493 10.53959229 14.6066745 10.53125 15.83984375 C10.5350769 17.06909073 10.53890381 18.29833771 10.54284668 19.56483459 C10.54626911 22.8334468 10.53015652 26.10130061 10.5078125 29.36981201 C10.49488165 32.68869558 10.52554929 36.00735864 10.546875 39.32617188 C10.54423146 41.85156649 10.53910594 44.37695997 10.53125 46.90234375 C10.53934692 48.09721909 10.54744385 49.29209442 10.55578613 50.5231781 C10.54317749 51.63435501 10.53056885 52.74553192 10.51757812 53.89038086 C10.51280457 55.35573524 10.51280457 55.35573524 10.50793457 56.85069275 C9.85499616 60.17597498 8.63447448 61.36839818 6 63.4375 C3.125 63.96875 3.125 63.96875 0 63.9375 C-1.03125 63.9478125 -2.0625 63.958125 -3.125 63.96875 C-6.72622094 63.303307 -7.72788478 62.26652822 -10 59.4375 C-10.50793457 56.89538574 -10.50793457 56.89538574 -10.51757812 53.99804688 C-10.53018677 52.91011841 -10.54279541 51.82218994 -10.55578613 50.70129395 C-10.54768921 49.53142944 -10.53959229 48.36156494 -10.53125 47.15625 C-10.5350769 45.95061401 -10.53890381 44.74497803 -10.54284668 43.50280762 C-10.54556826 40.95417445 -10.53819005 38.40551346 -10.52148438 35.85693359 C-10.5000804 31.95216698 -10.52128003 28.04924052 -10.546875 24.14453125 C-10.54423177 21.66926677 -10.5391069 19.19400343 -10.53125 16.71875 C-10.53934692 15.5488855 -10.54744385 14.379021 -10.55578613 13.17370605 C-10.54317749 12.08577759 -10.53056885 10.99784912 -10.51757812 9.87695312 C-10.51439575 8.9208313 -10.51121338 7.96470947 -10.50793457 6.97961426 C-9.33529463 1.11077824 -5.467008 -0.1025064 0 0 Z " fill="#024981" transform="translate(96,24.5625)"/>
<path d="M0 0 C1.1240625 -0.0103125 2.248125 -0.020625 3.40625 -0.03125 C7.29744648 0.63693525 8.2062686 1.29285459 10.5 4.5 C11.10071724 7.72819153 11.06038169 10.91548581 11.03125 14.19140625 C11.0350769 15.13306137 11.03890381 16.07471649 11.04284668 17.04490662 C11.04556551 19.03279695 11.03820633 21.02072307 11.02148438 23.00854492 C11.00005042 26.05533288 11.02129922 29.09976916 11.046875 32.14648438 C11.04423219 34.07813021 11.03910817 36.00977459 11.03125 37.94140625 C11.03934692 38.85394669 11.04744385 39.76648712 11.05578613 40.7066803 C10.96249783 46.97901485 10.96249783 46.97901485 8.66015625 49.57250977 C5.68846339 50.84844344 3.22659682 50.89720135 0 50.875 C-1.68609375 50.88660156 -1.68609375 50.88660156 -3.40625 50.8984375 C-6.98887644 50.43703864 -8.10655751 50.19611642 -10.5 47.5 C-11.12107121 44.32186374 -11.05990444 41.1708218 -11.03125 37.94140625 C-11.0350769 37.00070786 -11.03890381 36.06000946 -11.04284668 35.09080505 C-11.04556888 33.10113455 -11.03818618 31.11142844 -11.02148438 29.12182617 C-11.00010287 26.07714881 -11.0212632 23.03483759 -11.046875 19.99023438 C-11.04423131 18.05728646 -11.03910548 16.12434001 -11.03125 14.19140625 C-11.03934692 13.28089005 -11.04744385 12.37037384 -11.05578613 11.43226624 C-10.96265012 5.14688752 -10.96265012 5.14688752 -8.66015625 1.92749023 C-5.68846174 -0.03628664 -3.53842136 -0.03246258 0 0 Z " fill="#044B82" transform="translate(69.5,36.5)"/>
<path d="M0 0 C1.98 0.495 1.98 0.495 4 1 C4 28.39 4 55.78 4 84 C31.39 84 58.78 84 87 84 C87.33 85.32 87.66 86.64 88 88 C86.21641211 89.78358789 83.81594679 89.13260453 81.44012451 89.14663696 C80.64269836 89.14618378 79.84527222 89.14573059 79.02368164 89.14526367 C78.18794113 89.14862228 77.35220062 89.1519809 76.49113464 89.15544128 C73.71412694 89.16498066 70.93717934 89.16689588 68.16015625 89.16796875 C66.23823521 89.17117923 64.31631443 89.17454314 62.39439392 89.17805481 C58.3600101 89.18405355 54.32564773 89.18589395 50.29125977 89.18530273 C45.11127452 89.18520106 39.9314262 89.19885495 34.75147343 89.21607494 C30.78046533 89.22717121 26.80949057 89.22922268 22.83846855 89.22869301 C20.9282223 89.22987665 19.01797529 89.23431979 17.10774422 89.24202538 C14.44030176 89.25177764 11.77315976 89.24896623 9.10571289 89.24291992 C8.31031097 89.24853943 7.51490906 89.25415894 6.69540405 89.25994873 C1.22831545 89.22831545 1.22831545 89.22831545 -1 87 C-1.19331113 84.26445001 -1.26225156 81.63054494 -1.24291992 78.89428711 C-1.24481827 78.05679428 -1.24671661 77.21930145 -1.24867249 76.35643005 C-1.25238619 73.57997363 -1.24166847 70.80377704 -1.23046875 68.02734375 C-1.22927727 66.1044569 -1.22882372 64.18156946 -1.2290802 62.25868225 C-1.22751436 58.22604741 -1.21921637 54.19350122 -1.20581055 50.16088867 C-1.18880917 44.97974481 -1.18499647 39.79869836 -1.18575573 34.61752987 C-1.18548443 30.6465613 -1.18000989 26.67561423 -1.17275429 22.70465279 C-1.16956194 20.79358648 -1.1675989 18.88251773 -1.16686058 16.9714489 C-1.16470364 14.30636274 -1.15597383 11.64138204 -1.14526367 8.97631836 C-1.14571686 8.17889221 -1.14617004 7.38146606 -1.14663696 6.55987549 C-1.11447452 1.11447452 -1.11447452 1.11447452 0 0 Z " fill="#014880" transform="translate(22,10)"/>
<path d="M0 0 C1.1240625 0.02191406 2.248125 0.04382812 3.40625 0.06640625 C4.5303125 0.06511719 5.654375 0.06382813 6.8125 0.0625 C10.62507591 0.76050948 11.59286442 1.54808029 13.90625 4.62890625 C14.29227568 7.34310824 14.44498288 9.64285943 14.40234375 12.3515625 C14.40379898 13.09345322 14.40525421 13.83534393 14.40675354 14.59971619 C14.40509733 16.16392963 14.39356695 17.72815983 14.37280273 19.29223633 C14.34380259 21.68706332 14.35220644 24.07968167 14.36523438 26.47460938 C14.35899788 27.99610451 14.35060762 29.51759266 14.33984375 31.0390625 C14.34277939 31.75473892 14.34571503 32.47041534 14.34873962 33.20777893 C14.29369758 36.10464229 14.23451201 38.1450179 12.58227539 40.58056641 C9.80068445 42.32042824 7.12842877 41.98503992 3.90625 41.94140625 C2.66875 41.93753906 1.43125 41.93367188 0.15625 41.9296875 C-3.09375 41.62890625 -3.09375 41.62890625 -6.09375 39.62890625 C-7.82560481 34.43334183 -7.35875104 28.87216257 -7.38891602 23.43261719 C-7.40044431 21.98362469 -7.42091001 20.53467494 -7.45043945 19.0859375 C-7.49319136 16.98798893 -7.50929281 14.89129923 -7.51953125 12.79296875 C-7.53411377 11.5395166 -7.54869629 10.28606445 -7.5637207 8.99462891 C-6.86366841 3.98116353 -5.07212843 1.03107661 0 0 Z " fill="#054C82" transform="translate(39.09375,45.37109375)"/>
</svg>
