<?xml version="1.0" encoding="UTF-8"?>
<svg version="1.1" xmlns="http://www.w3.org/2000/svg" width="407" height="120">
<path d="M0 0 C1.56331055 -0.01836914 1.56331055 -0.01836914 3.15820312 -0.03710938 C9.49084858 -0.04903526 15.06218797 0.56816463 21.1875 2.1875 C21.1875 2.8475 21.1875 3.5075 21.1875 4.1875 C23.6625 4.6825 23.6625 4.6825 26.1875 5.1875 C26.1875 5.8475 26.1875 6.5075 26.1875 7.1875 C26.785625 7.455625 27.38375 7.72375 28 8 C30.18597854 9.18667406 31.60082594 10.28349113 33.1875 12.1875 C33.1875 12.8475 33.1875 13.5075 33.1875 14.1875 C34.1775 14.5175 35.1675 14.8475 36.1875 15.1875 C36.1875 15.8475 36.1875 16.5075 36.1875 17.1875 C36.8475 17.1875 37.5075 17.1875 38.1875 17.1875 C38.6825 19.6625 38.6825 19.6625 39.1875 22.1875 C39.8475 22.1875 40.5075 22.1875 41.1875 22.1875 C43.29178384 27.31669186 43.40505666 31.7485835 43.1875 37.1875 C45.1675 37.6825 45.1675 37.6825 47.1875 38.1875 C47.5175 37.1975 47.8475 36.2075 48.1875 35.1875 C48.8475 35.1875 49.5075 35.1875 50.1875 35.1875 C50.27 34.61 50.3525 34.0325 50.4375 33.4375 C51.40547787 30.5335664 52.87444284 29.15009396 55.1875 27.1875 C55.8475 27.1875 56.5075 27.1875 57.1875 27.1875 C57.6825 25.7025 57.6825 25.7025 58.1875 24.1875 C58.8475 24.1875 59.5075 24.1875 60.1875 24.1875 C60.6825 22.7025 60.6825 22.7025 61.1875 21.1875 C62.1775 21.1875 63.1675 21.1875 64.1875 21.1875 C64.1875 20.5275 64.1875 19.8675 64.1875 19.1875 C68.06434087 17.99462589 71.10371923 17.1875 75.1875 17.1875 C75.1875 16.5275 75.1875 15.8675 75.1875 15.1875 C79.8075 15.1875 84.4275 15.1875 89.1875 15.1875 C89.1875 15.8475 89.1875 16.5075 89.1875 17.1875 C90.21810547 17.27837891 90.21810547 17.27837891 91.26953125 17.37109375 C92.17058594 17.45488281 93.07164063 17.53867187 94 17.625 C95.33998047 17.74681641 95.33998047 17.74681641 96.70703125 17.87109375 C99.1875 18.1875 99.1875 18.1875 102.1875 19.1875 C102.1875 19.8475 102.1875 20.5075 102.1875 21.1875 C103.5075 21.5175 104.8275 21.8475 106.1875 22.1875 C106.1875 22.8475 106.1875 23.5075 106.1875 24.1875 C107.30125 24.2803125 107.30125 24.2803125 108.4375 24.375 C112.10052898 25.45725856 113.15976958 27.00106648 115.1875 30.1875 C115.9375 33 115.9375 33 116.1875 35.1875 C116.8475 35.1875 117.5075 35.1875 118.1875 35.1875 C119.09125261 37.89875783 119.31590471 39.49130459 119.3203125 42.27734375 C119.32160156 43.06173828 119.32289063 43.84613281 119.32421875 44.65429688 C119.32035156 45.46962891 119.31648437 46.28496094 119.3125 47.125 C119.31636719 47.93646484 119.32023438 48.74792969 119.32421875 49.58398438 C119.32228516 50.76250977 119.32228516 50.76250977 119.3203125 51.96484375 C119.31918457 52.67890381 119.31805664 53.39296387 119.31689453 54.12866211 C119.18323643 56.25533896 118.76710342 58.14104523 118.1875 60.1875 C117.5275 60.1875 116.8675 60.1875 116.1875 60.1875 C115.8575 61.8375 115.5275 63.4875 115.1875 65.1875 C114.1975 65.5175 113.2075 65.8475 112.1875 66.1875 C111.8575 67.1775 111.5275 68.1675 111.1875 69.1875 C107.49832874 72.05685543 105.94317676 73.1875 101.1875 73.1875 C101.1875 73.8475 101.1875 74.5075 101.1875 75.1875 C96.65709223 76.06705528 92.36234446 76.32194185 87.75 76.3125 C86.49316406 76.31507812 85.23632812 76.31765625 83.94140625 76.3203125 C80.25622098 76.18993134 76.82032683 75.77812733 73.1875 75.1875 C73.1875 74.5275 73.1875 73.8675 73.1875 73.1875 C70.5475 72.8575 67.9075 72.5275 65.1875 72.1875 C65.1875 71.5275 65.1875 70.8675 65.1875 70.1875 C63.2075 69.6925 63.2075 69.6925 61.1875 69.1875 C61.1875 82.3875 61.1875 95.5875 61.1875 109.1875 C51.4875 109.1875 51.4875 109.1875 48.1875 107.1875 C47.375 105.0625 47.375 105.0625 47.1875 103.1875 C46.5275 103.1875 45.8675 103.1875 45.1875 103.1875 C44.38928184 100.37556199 44.06496368 97.88926715 44.07397461 94.96972656 C44.07408791 93.7389035 44.07408791 93.7389035 44.07420349 92.48321533 C44.07936478 91.60703552 44.08452606 90.73085571 44.08984375 89.828125 C44.0912587 88.92374695 44.09267365 88.0193689 44.09413147 87.08758545 C44.09972089 84.20418973 44.11227147 81.32087218 44.125 78.4375 C44.13001637 76.48046987 44.13457904 74.52343853 44.13867188 72.56640625 C44.14968687 67.77340747 44.16694426 62.98046698 44.1875 58.1875 C43.1975 58.1875 42.2075 58.1875 41.1875 58.1875 C41.1875 57.5275 41.1875 56.8675 41.1875 56.1875 C40.5275 56.1875 39.8675 56.1875 39.1875 56.1875 C38.8575 57.5075 38.5275 58.8275 38.1875 60.1875 C37.5275 60.1875 36.8675 60.1875 36.1875 60.1875 C35.98125 60.72375 35.775 61.26 35.5625 61.8125 C33.66168297 65.09572941 31.21108811 67.87941747 28.1875 70.1875 C27.1975 70.1875 26.2075 70.1875 25.1875 70.1875 C25.1875 70.8475 25.1875 71.5075 25.1875 72.1875 C21.7225 72.6825 21.7225 72.6825 18.1875 73.1875 C18.1875 73.8475 18.1875 74.5075 18.1875 75.1875 C9.36070081 76.8803108 0.02552906 76.87093411 -8.8125 75.1875 C-8.8125 74.5275 -8.8125 73.8675 -8.8125 73.1875 C-10.7925 72.8575 -12.7725 72.5275 -14.8125 72.1875 C-14.8125 71.5275 -14.8125 70.8675 -14.8125 70.1875 C-15.410625 70.043125 -16.00875 69.89875 -16.625 69.75 C-21.08697963 68.60263381 -22.6609596 67.46335525 -25.4375 63.8125 C-26.04851563 63.02101562 -26.65953125 62.22953125 -27.2890625 61.4140625 C-30.36232564 56.92237022 -30.02907541 52.60176973 -30.0625 47.375 C-30.083125 46.58029297 -30.10375 45.78558594 -30.125 44.96679688 C-30.16855262 38.38490705 -28.7129429 34.31970423 -24.25 29.3125 C-21.8125 27.1875 -21.8125 27.1875 -19.8125 27.1875 C-19.8125 26.5275 -19.8125 25.8675 -19.8125 25.1875 C-16.3475 24.6925 -16.3475 24.6925 -12.8125 24.1875 C-12.8125 23.5275 -12.8125 22.8675 -12.8125 22.1875 C-9.81226462 21.18742154 -7.79813836 21.05854652 -4.6640625 21.0546875 C-3.65859375 21.05339844 -2.653125 21.05210938 -1.6171875 21.05078125 C-0.04324219 21.05658203 -0.04324219 21.05658203 1.5625 21.0625 C2.6040625 21.05863281 3.645625 21.05476563 4.71875 21.05078125 C5.72679687 21.05207031 6.73484375 21.05335937 7.7734375 21.0546875 C9.15088135 21.05637939 9.15088135 21.05637939 10.55615234 21.05810547 C13.19173774 21.18770839 15.61778408 21.60297234 18.1875 22.1875 C18.1875 22.8475 18.1875 23.5075 18.1875 24.1875 C20.4975 24.5175 22.8075 24.8475 25.1875 25.1875 C25.1875 25.8475 25.1875 26.5075 25.1875 27.1875 C25.8475 27.1875 26.5075 27.1875 27.1875 27.1875 C27.1875 25.8675 27.1875 24.5475 27.1875 23.1875 C26.5275 23.1875 25.8675 23.1875 25.1875 23.1875 C25.1875 22.1975 25.1875 21.2075 25.1875 20.1875 C24.60742188 20.06632812 24.02734375 19.94515625 23.4296875 19.8203125 C22.64851563 19.65273438 21.86734375 19.48515625 21.0625 19.3125 C20.29679687 19.15007813 19.53109375 18.98765625 18.7421875 18.8203125 C16.1875 18.1875 16.1875 18.1875 13.5625 17.125 C8.78982462 15.79925684 4.23843085 15.97572886 -0.6875 16.0625 C-1.66203125 16.07152344 -2.6365625 16.08054687 -3.640625 16.08984375 C-6.03150728 16.11328377 -8.42187261 16.14609558 -10.8125 16.1875 C-10.8125 16.8475 -10.8125 17.5075 -10.8125 18.1875 C-14.48660785 19.36321451 -17.98179183 19.26116746 -21.8125 19.1875 C-22.1425 17.8675 -22.4725 16.5475 -22.8125 15.1875 C-23.4725 15.1875 -24.1325 15.1875 -24.8125 15.1875 C-25.1425 11.8875 -25.4725 8.5875 -25.8125 5.1875 C-17.04784013 0.50294041 -9.85731635 0.00602894 0 0 Z M78.1875 30.1875 C78.1875 30.8475 78.1875 31.5075 78.1875 32.1875 C77.1046875 32.249375 77.1046875 32.249375 76 32.3125 C71.87824553 33.59482361 70.65072501 35.66860713 68.1875 39.1875 C68.1875 40.1775 68.1875 41.1675 68.1875 42.1875 C67.1975 42.5175 66.2075 42.8475 65.1875 43.1875 C63.23207812 46.17209129 63.1875 47.45164791 63.1875 51.1875 C67.21835561 54.44379124 67.21835561 54.44379124 72.1875 55.1875 C72.1875 55.8475 72.1875 56.5075 72.1875 57.1875 C73.1775 57.5175 74.1675 57.8475 75.1875 58.1875 C75.5175 58.8475 75.8475 59.5075 76.1875 60.1875 C78.80893219 61.59200886 78.80893219 61.59200886 81.9375 62.875 C82.98421875 63.33261719 84.0309375 63.79023437 85.109375 64.26171875 C88.39398136 65.24960163 89.99317058 65.37699679 93.1875 64.1875 C95.4648501 61.37240007 95.4648501 61.37240007 95.1875 58.1875 C96.1775 57.8575 97.1675 57.5275 98.1875 57.1875 C100.92755895 51.51166361 101.6404155 46.26332847 100.1875 40.1875 C99.5275 40.1875 98.8675 40.1875 98.1875 40.1875 C97.6925 37.7125 97.6925 37.7125 97.1875 35.1875 C96.5275 35.1875 95.8675 35.1875 95.1875 35.1875 C94.98125 34.40375 94.775 33.62 94.5625 32.8125 C93.39237256 29.9260066 93.39237256 29.9260066 90.3125 28.875 C85.56096616 27.82966256 82.55345419 28.24707592 78.1875 30.1875 Z M-6.125 32.5 C-8.07838407 35.08204907 -8.07838407 35.08204907 -7.8125 38.1875 C-8.4725 38.1875 -9.1325 38.1875 -9.8125 38.1875 C-10.93300151 41.54900452 -10.94546652 44.15036726 -10.9375 47.6875 C-10.94007812 48.8321875 -10.94265625 49.976875 -10.9453125 51.15625 C-10.94934408 54.23429859 -10.94934408 54.23429859 -9.8125 57.1875 C-9.1525 57.1875 -8.4925 57.1875 -7.8125 57.1875 C-7.7815625 58.05375 -7.7815625 58.05375 -7.75 58.9375 C-6.5117417 61.90931992 -4.58887762 63.02038499 -1.80078125 64.50390625 C1.36050599 65.59079283 4.01169761 64.96524752 7.1875 64.1875 C7.1875 63.5275 7.1875 62.8675 7.1875 62.1875 C7.785625 62.043125 8.38375 61.89875 9 61.75 C13.75735765 60.52667946 15.20159315 59.04028304 18.1875 55.1875 C18.8475 54.8575 19.5075 54.5275 20.1875 54.1875 C20.5175 53.1975 20.8475 52.2075 21.1875 51.1875 C21.8475 50.8575 22.5075 50.5275 23.1875 50.1875 C24.11216753 47.8147914 24.11216753 47.8147914 24.1875 45.1875 C23.04103452 43.29088257 23.04103452 43.29088257 21.1875 42.1875 C20.1975 42.1875 19.2075 42.1875 18.1875 42.1875 C18.1875 41.5275 18.1875 40.8675 18.1875 40.1875 C16.50542068 38.81930519 16.50542068 38.81930519 14.375 37.5625 C13.66730469 37.11648437 12.95960937 36.67046875 12.23046875 36.2109375 C10.12128793 34.96355136 10.12128793 34.96355136 7.1875 35.1875 C7.1875 34.5275 7.1875 33.8675 7.1875 33.1875 C4.2175 32.6925 4.2175 32.6925 1.1875 32.1875 C1.1875 31.5275 1.1875 30.8675 1.1875 30.1875 C-2.48538509 29.67737707 -3.43372562 29.80872562 -6.125 32.5 Z " fill="#F07E30" transform="translate(29.8125,-0.1875)"/>
<path d="M0 0 C4.62 0 9.24 0 14 0 C14 0.66 14 1.32 14 2 C15.03060547 2.09087891 15.03060547 2.09087891 16.08203125 2.18359375 C17.43361328 2.30927734 17.43361328 2.30927734 18.8125 2.4375 C19.70582031 2.51871094 20.59914062 2.59992187 21.51953125 2.68359375 C24 3 24 3 27 4 C27 4.66 27 5.32 27 6 C28.32 6.33 29.64 6.66 31 7 C31 7.66 31 8.32 31 9 C32.11375 9.0928125 32.11375 9.0928125 33.25 9.1875 C36.91302898 10.26975856 37.97226958 11.81356648 40 15 C40.75 17.8125 40.75 17.8125 41 20 C41.66 20 42.32 20 43 20 C43.90375261 22.71125783 44.12840471 24.30380459 44.1328125 27.08984375 C44.13410156 27.87423828 44.13539063 28.65863281 44.13671875 29.46679688 C44.13285156 30.28212891 44.12898438 31.09746094 44.125 31.9375 C44.12886719 32.74896484 44.13273437 33.56042969 44.13671875 34.39648438 C44.13542969 35.18216797 44.13414062 35.96785156 44.1328125 36.77734375 C44.13168457 37.49140381 44.13055664 38.20546387 44.12939453 38.94116211 C43.99573643 41.06783896 43.57960342 42.95354523 43 45 C42.34 45 41.68 45 41 45 C40.67 46.65 40.34 48.3 40 50 C38.515 50.495 38.515 50.495 37 51 C36.67 51.99 36.34 52.98 36 54 C32.31082874 56.86935543 30.75567676 58 26 58 C26 58.66 26 59.32 26 60 C21.46959223 60.87955528 17.17484446 61.13444185 12.5625 61.125 C11.30566406 61.12757812 10.04882812 61.13015625 8.75390625 61.1328125 C5.06872098 61.00243134 1.63282683 60.59062733 -2 60 C-2 59.34 -2 58.68 -2 58 C-4.64 57.67 -7.28 57.34 -10 57 C-10 56.34 -10 55.68 -10 55 C-11.32 54.67 -12.64 54.34 -14 54 C-14 67.2 -14 80.4 -14 94 C-23.7 94 -23.7 94 -27 92 C-27.8125 89.875 -27.8125 89.875 -28 88 C-28.66 88 -29.32 88 -30 88 C-30.79821816 85.18806199 -31.12253632 82.70176715 -31.11352539 79.78222656 C-31.11341209 78.5514035 -31.11341209 78.5514035 -31.11329651 77.29571533 C-31.10813522 76.41953552 -31.10297394 75.54335571 -31.09765625 74.640625 C-31.09553383 73.28405792 -31.09553383 73.28405792 -31.09336853 71.90008545 C-31.08777911 69.01668973 -31.07522853 66.13337218 -31.0625 63.25 C-31.05748363 61.29296987 -31.05292096 59.33593853 -31.04882812 57.37890625 C-31.03781313 52.58590747 -31.02055574 47.79296698 -31 43 C-31.99 43 -32.98 43 -34 43 C-35.26026798 40.47946405 -34.91874445 39.1457902 -34.5625 36.375 C-34.40974609 35.14910156 -34.40974609 35.14910156 -34.25390625 33.8984375 C-34.17011719 33.27195313 -34.08632812 32.64546875 -34 32 C-33.34 32 -32.68 32 -32 32 C-32 28.7 -32 25.4 -32 22 C-30.68 22.33 -29.36 22.66 -28 23 C-27.67 22.01 -27.34 21.02 -27 20 C-26.34 20 -25.68 20 -25 20 C-24.9175 19.4225 -24.835 18.845 -24.75 18.25 C-23.78202213 15.3460664 -22.31305716 13.96259396 -20 12 C-19.34 12 -18.68 12 -18 12 C-17.67 11.01 -17.34 10.02 -17 9 C-16.34 9 -15.68 9 -15 9 C-14.67 8.01 -14.34 7.02 -14 6 C-13.01 6 -12.02 6 -11 6 C-11 5.34 -11 4.68 -11 4 C-7.12315913 2.80712589 -4.08378077 2 0 2 C0 1.34 0 0.68 0 0 Z M3 15 C3 15.66 3 16.32 3 17 C1.9171875 17.061875 1.9171875 17.061875 0.8125 17.125 C-3.30925447 18.40732361 -4.53677499 20.48110713 -7 24 C-7 24.99 -7 25.98 -7 27 C-7.99 27.33 -8.98 27.66 -10 28 C-11.95542188 30.98459129 -12 32.26414791 -12 36 C-7.96914439 39.25629124 -7.96914439 39.25629124 -3 40 C-3 40.66 -3 41.32 -3 42 C-2.01 42.33 -1.02 42.66 0 43 C0.33 43.66 0.66 44.32 1 45 C3.62143219 46.40450886 3.62143219 46.40450886 6.75 47.6875 C7.79671875 48.14511719 8.8434375 48.60273437 9.921875 49.07421875 C13.20648136 50.06210163 14.80567058 50.18949679 18 49 C20.2773501 46.18490007 20.2773501 46.18490007 20 43 C20.99 42.67 21.98 42.34 23 42 C25.74005895 36.32416361 26.4529155 31.07582847 25 25 C24.34 25 23.68 25 23 25 C22.505 22.525 22.505 22.525 22 20 C21.34 20 20.68 20 20 20 C19.79375 19.21625 19.5875 18.4325 19.375 17.625 C18.20487256 14.7385066 18.20487256 14.7385066 15.125 13.6875 C10.37346616 12.64216256 7.36595419 13.05957592 3 15 Z " fill="#EE692E" transform="translate(105,15)"/>
<path d="M0 0 C1.65 0 3.3 0 5 0 C5 7.92 5 15.84 5 24 C2.091875 24.020625 -0.81625 24.04125 -3.8125 24.0625 C-5.18112183 24.07615601 -5.18112183 24.07615601 -6.57739258 24.09008789 C-7.66250122 24.09383423 -7.66250122 24.09383423 -8.76953125 24.09765625 C-9.50792236 24.10289307 -10.24631348 24.10812988 -11.00708008 24.11352539 C-13 24 -13 24 -16 23 C-16 22.34 -16 21.68 -16 21 C-16.66 21 -17.32 21 -18 21 C-18.33 21.99 -18.66 22.98 -19 24 C-21.31 24 -23.62 24 -26 24 C-26 27.3 -26 30.6 -26 34 C-27.98 34.495 -27.98 34.495 -30 35 C-31.14814997 32.70370006 -31.30769809 30.92301914 -31.5625 28.375 C-31.64628906 27.55773437 -31.73007812 26.74046875 -31.81640625 25.8984375 C-31.87699219 25.27195312 -31.93757813 24.64546875 -32 24 C-34.31 23.67 -36.62 23.34 -39 23 C-39 19.04 -39 15.08 -39 11 C-39.66 11 -40.32 11 -41 11 C-41.33 15.29 -41.66 19.58 -42 24 C-43.65 24 -45.3 24 -47 24 C-47 18.06 -47 12.12 -47 6 C-42.33333333 6 -37.66666667 6 -33 6 C-31.43958984 5.96519531 -31.43958984 5.96519531 -29.84765625 5.9296875 C-28.59855469 5.91164063 -27.34945313 5.89359375 -26.0625 5.875 C-24.19271484 5.84019531 -24.19271484 5.84019531 -22.28515625 5.8046875 C-19 6 -19 6 -16 8 C-14.8125 10.625 -14.8125 10.625 -14 13 C-13.34 12.67 -12.68 12.34 -12 12 C-12.66 11.67 -13.32 11.34 -14 11 C-13.67 9.35 -13.34 7.7 -13 6 C-9 6 -5 6 -1 6 C-0.67 4.02 -0.34 2.04 0 0 Z M-25 13 C-25.33 14.32 -25.66 15.64 -26 17 C-24.515 17.99 -24.515 17.99 -23 19 C-23 18.34 -23 17.68 -23 17 C-22.34 17 -21.68 17 -21 17 C-21 15.68 -21 14.36 -21 13 C-22.32 13 -23.64 13 -25 13 Z M-9 17 C-9.33 17.66 -9.66 18.32 -10 19 C-9.01 18.67 -8.02 18.34 -7 18 C-7.66 17.67 -8.32 17.34 -9 17 Z " fill="#EC1A21" transform="translate(330,85)"/>
<path d="M0 0 C5.61 0 11.22 0 17 0 C17 0.66 17 1.32 17 2 C17.77085937 2.09796875 18.54171875 2.1959375 19.3359375 2.296875 C20.84027344 2.52117188 20.84027344 2.52117188 22.375 2.75 C23.87160156 2.95882813 23.87160156 2.95882813 25.3984375 3.171875 C28 4 28 4 29.3515625 5.890625 C30 8 30 8 30 11 C30.66 11 31.32 11 32 11 C32.90375261 13.71125783 33.12840471 15.30380459 33.1328125 18.08984375 C33.13474609 19.26643555 33.13474609 19.26643555 33.13671875 20.46679688 C33.13285156 21.28212891 33.12898438 22.09746094 33.125 22.9375 C33.13080078 24.15469727 33.13080078 24.15469727 33.13671875 25.39648438 C33.13542969 26.18216797 33.13414062 26.96785156 33.1328125 27.77734375 C33.13168457 28.49140381 33.13055664 29.20546387 33.12939453 29.94116211 C32.99573643 32.06783896 32.57960342 33.95354523 32 36 C31.34 36 30.68 36 30 36 C29.67 37.65 29.34 39.3 29 41 C23.37742839 42.9169573 18.47630615 43.24889924 12.5625 43.125 C11.73556641 43.11597656 10.90863281 43.10695312 10.05664062 43.09765625 C8.03763292 43.07431512 6.01877644 43.03845288 4 43 C4 42.01 4 41.02 4 40 C4.99 40 5.98 40 7 40 C7.28875 39.030625 7.5775 38.06125 7.875 37.0625 C9 34 9 34 11 33 C13.33683045 27.40447021 14.39315606 22.02839298 14 16 C13.34 16 12.68 16 12 16 C11.87625 15.13375 11.87625 15.13375 11.75 14.25 C10.7973369 11.39201069 9.13946926 10.07045412 7 8 C7 7.34 7 6.68 7 6 C2.545 5.01 2.545 5.01 -2 4 C-2 3.34 -2 2.68 -2 2 C-1.34 2 -0.68 2 0 2 C0 1.34 0 0.68 0 0 Z " fill="#A090BE" transform="translate(116,24)"/>
<path d="M0 0 C7.26 0 14.52 0 22 0 C22 1.65 22 3.3 22 5 C16.39 5 10.78 5 5 5 C5 7.97 5 10.94 5 14 C10.28 14 15.56 14 21 14 C21 15.65 21 17.3 21 19 C15.72 19 10.44 19 5 19 C5 21.97 5 24.94 5 28 C11.27 28 17.54 28 24 28 C24 28.66 24 29.32 24 30 C24.66 30 25.32 30 26 30 C26.33 27.36 26.66 24.72 27 22 C27.66 22 28.32 22 29 22 C29.16435547 21.1646875 29.16435547 21.1646875 29.33203125 20.3125 C30.44275248 14.96658969 31.97225526 10.06936184 34 5 C34.66 5 35.32 5 36 5 C36.33 3.35 36.66 1.7 37 0 C39.31 0.33 41.62 0.66 44 1 C44.495 4.465 44.495 4.465 45 8 C45.66 8 46.32 8 47 8 C47.495 11.465 47.495 11.465 48 15 C48.66 15 49.32 15 50 15 C50.19335938 15.66386719 50.38671875 16.32773437 50.5859375 17.01171875 C52.20889054 22.53530035 52.20889054 22.53530035 54.1875 27.9375 C55 30 55 30 55 33 C53.35 33 51.7 33 50 33 C46 26.375 46 26.375 46 23 C42.04 23 38.08 23 34 23 C34 23.66 34 24.32 34 25 C33.34 25 32.68 25 32 25 C31.7834375 26.7015625 31.7834375 26.7015625 31.5625 28.4375 C31 32 31 32 30 33 C27.78144736 33.08783542 25.56011504 33.10694609 23.33984375 33.09765625 C22.12417725 33.09515869 20.90851074 33.09266113 19.65600586 33.09008789 C18.09889893 33.08098389 16.54179199 33.07187988 14.9375 33.0625 C10.008125 33.041875 5.07875 33.02125 0 33 C0 22.11 0 11.22 0 0 Z M38 10 C37.53476937 11.89533342 37.53476937 11.89533342 37.375 14.0625 C37.25125 15.361875 37.1275 16.66125 37 18 C38.98 18 40.96 18 43 18 C42.67 15.03 42.34 12.06 42 9 C39.9254644 8.8509288 39.9254644 8.8509288 38 10 Z " fill="#450966" transform="translate(197,0)"/>
<path d="M0 0 C0.33 0.66 0.66 1.32 1 2 C0.01 3.485 0.01 3.485 -1 5 C-1.66 5 -2.32 5 -3 5 C-3.33 6.65 -3.66 8.3 -4 10 C-4.66 10 -5.32 10 -6 10 C-6 16.27 -6 22.54 -6 29 C-5.34 29 -4.68 29 -4 29 C-3.938125 29.61875 -3.87625 30.2375 -3.8125 30.875 C-3.18789421 33.23446438 -3.18789421 33.23446438 -0.6875 34.125 C0.6428125 34.558125 0.6428125 34.558125 2 35 C3.34050052 35.65213539 4.67661368 36.31379969 6 37 C6 37.66 6 38.32 6 39 C-2.8028855 41.27171239 -12.62483184 40.44000196 -21 37 C-24.69350664 34.01249563 -25.71971292 30.56039542 -26.22802734 25.91699219 C-26.76804902 18.09083183 -27.25980886 10.88042656 -23 4 C-17.33702498 -1.66297502 -7.36512867 -0.20209195 0 0 Z " fill="#7E64A1" transform="translate(26,28)"/>
<path d="M0 0 C1.2065625 0.0309375 1.2065625 0.0309375 2.4375 0.0625 C3.5625 4.8125 3.5625 4.8125 2.4375 7.0625 C3.0975 6.7325 3.7575 6.4025 4.4375 6.0625 C5.97773996 5.99299459 7.52084988 5.97797643 9.0625 6 C10.28839844 6.01353516 10.28839844 6.01353516 11.5390625 6.02734375 C12.16554688 6.03894531 12.79203125 6.05054687 13.4375 6.0625 C13.9325 7.5475 13.9325 7.5475 14.4375 9.0625 C15.0975 9.0625 15.7575 9.0625 16.4375 9.0625 C16.9325 16.4875 16.9325 16.4875 17.4375 24.0625 C10.92301715 24.08716745 4.40856133 24.10534444 -2.10595703 24.11743164 C-4.32340976 24.12246909 -6.54085916 24.12929922 -8.75830078 24.13793945 C-11.94043805 24.15003072 -15.12253151 24.1557341 -18.3046875 24.16015625 C-19.30055878 24.16531754 -20.29643005 24.17047882 -21.32247925 24.17579651 C-22.70368454 24.17590981 -22.70368454 24.17590981 -24.11279297 24.17602539 C-24.9255368 24.178246 -25.73828064 24.18046661 -26.57565308 24.18275452 C-28.5625 24.0625 -28.5625 24.0625 -30.5625 23.0625 C-30.5625 20.4225 -30.5625 17.7825 -30.5625 15.0625 C-29.9025 15.0625 -29.2425 15.0625 -28.5625 15.0625 C-28.5625 13.7425 -28.5625 12.4225 -28.5625 11.0625 C-28.25845322 9.39024271 -27.93121088 7.72169896 -27.5625 6.0625 C-26.304375 6.041875 -25.04625 6.02125 -23.75 6 C-23.04230469 5.98839844 -22.33460938 5.97679688 -21.60546875 5.96484375 C-19.5625 6.0625 -19.5625 6.0625 -16.5625 7.0625 C-16.2325 7.7225 -15.9025 8.3825 -15.5625 9.0625 C-14.9025 8.0725 -14.2425 7.0825 -13.5625 6.0625 C-11.3984375 5.55078125 -11.3984375 5.55078125 -8.9375 5.375 C-7.71160156 5.27638672 -7.71160156 5.27638672 -6.4609375 5.17578125 C-5.83445312 5.13839844 -5.20796875 5.10101563 -4.5625 5.0625 C-4.418125 4.423125 -4.27375 3.78375 -4.125 3.125 C-3.30589691 0.12162199 -3.19313651 0.07788138 0 0 Z M-9.5625 11.0625 C-8.27284824 12.43812854 -6.93560707 13.77016393 -5.5625 15.0625 C-4.9025 15.0625 -4.2425 15.0625 -3.5625 15.0625 C-3.5625 13.7425 -3.5625 12.4225 -3.5625 11.0625 C-5.5425 11.0625 -7.5225 11.0625 -9.5625 11.0625 Z M2.4375 11.0625 C2.7675 12.0525 3.0975 13.0425 3.4375 14.0625 C5.4175 13.4025 7.3975 12.7425 9.4375 12.0625 C9.4375 11.7325 9.4375 11.4025 9.4375 11.0625 C7.1275 11.0625 4.8175 11.0625 2.4375 11.0625 Z M-15.5625 15.0625 C-15.5625 16.3825 -15.5625 17.7025 -15.5625 19.0625 C-13.9125 19.0625 -12.2625 19.0625 -10.5625 19.0625 C-10.8925 18.4025 -11.2225 17.7425 -11.5625 17.0625 C-12.5525 17.0625 -13.5425 17.0625 -14.5625 17.0625 C-14.8925 16.4025 -15.2225 15.7425 -15.5625 15.0625 Z M-23.5625 17.0625 C-24.2225 17.7225 -24.8825 18.3825 -25.5625 19.0625 C-24.2425 19.0625 -22.9225 19.0625 -21.5625 19.0625 C-21.5625 18.4025 -21.5625 17.7425 -21.5625 17.0625 C-22.2225 17.0625 -22.8825 17.0625 -23.5625 17.0625 Z M7.4375 17.0625 C7.4375 17.7225 7.4375 18.3825 7.4375 19.0625 C8.0975 19.0625 8.7575 19.0625 9.4375 19.0625 C9.4375 18.4025 9.4375 17.7425 9.4375 17.0625 C8.7775 17.0625 8.1175 17.0625 7.4375 17.0625 Z " fill="#EC1921" transform="translate(264.5625,84.9375)"/>
<path d="M0 0 C0.70253906 -0.00386719 1.40507812 -0.00773437 2.12890625 -0.01171875 C5.51747637 -0.00531314 8.63659329 0.06790351 11.875 1.125 C11.875 1.785 11.875 2.445 11.875 3.125 C12.926875 3.3725 13.97875 3.62 15.0625 3.875 C21.34038379 5.69761142 24.61581793 9.57231944 27.875 15.125 C27.875 15.785 27.875 16.445 27.875 17.125 C28.535 17.125 29.195 17.125 29.875 17.125 C29.875 18.115 29.875 19.105 29.875 20.125 C28.33237855 19.83842606 26.79094394 19.54546123 25.25 19.25 C24.39148437 19.08757813 23.53296875 18.92515625 22.6484375 18.7578125 C19.875 18.125 19.875 18.125 17.21875 17.0625 C12.4605989 15.72843895 7.91380016 15.91344254 3 16 C2.02546875 16.00902344 1.0509375 16.01804687 0.046875 16.02734375 C-2.34400728 16.05078377 -4.73437261 16.08359558 -7.125 16.125 C-7.125 16.785 -7.125 17.445 -7.125 18.125 C-10.79910785 19.30071451 -14.29429183 19.19866746 -18.125 19.125 C-18.455 17.805 -18.785 16.485 -19.125 15.125 C-19.785 15.125 -20.445 15.125 -21.125 15.125 C-21.455 11.825 -21.785 8.525 -22.125 5.125 C-14.56754856 1.0856725 -8.61248503 -0.04793591 0 0 Z " fill="#5A3686" transform="translate(26.125,-0.125)"/>
<path d="M0 0 C1.65 0 3.3 0 5 0 C5.33 0.99 5.66 1.98 6 3 C6.66 3 7.32 3 8 3 C8.73313104 4.96612416 9.46624278 6.93225552 10.19921875 8.8984375 C10.82839764 10.54964843 11.5001782 12.18463257 12.1875 13.8125 C13 16 13 16 13 19 C13.66 19 14.32 19 15 19 C15.33 20.98 15.66 22.96 16 25 C16.66 25 17.32 25 18 25 C18.99 22.03 19.98 19.06 21 16 C21.66 16 22.32 16 23 16 C23.2165625 14.576875 23.2165625 14.576875 23.4375 13.125 C24 10 24 10 25 8 C25.66 8 26.32 8 27 8 C27.33 6.02 27.66 4.04 28 2 C28.66 2 29.32 2 30 2 C30 1.34 30 0.68 30 0 C31.65 0 33.3 0 35 0 C35 11.22 35 22.44 35 34 C33.35 34 31.7 34 30 34 C29.67 28.06 29.34 22.12 29 16 C28.67 17.32 28.34 18.64 28 20 C27.34 20 26.68 20 26 20 C25.67 21.98 25.34 23.96 25 26 C24.34 26 23.68 26 23 26 C22.34 28.64 21.68 31.28 21 34 C18.69 34 16.38 34 14 34 C13.67 32.02 13.34 30.04 13 28 C12.34 28 11.68 28 11 28 C10.67 25.69 10.34 23.38 10 21 C9.34 21 8.68 21 8 21 C7.34 19.35 6.68 17.7 6 16 C5.67 21.94 5.34 27.88 5 34 C3.35 34 1.7 34 0 34 C0 22.78 0 11.56 0 0 Z " fill="#440866" transform="translate(236,42)"/>
<path d="M0 0 C3.94120709 0.56302958 6.7508723 1.6791945 10 4 C10 4.66 10 5.32 10 6 C11.32 6.33 12.64 6.66 14 7 C14 7.66 14 8.32 14 9 C14.639375 9.0825 15.27875 9.165 15.9375 9.25 C20.20541517 10.29520372 24.03107667 12.14091826 28 14 C28 14.66 28 15.32 28 16 C35.26 15.67 42.52 15.34 50 15 C48.64696511 19.05910468 46.65563269 19.9213069 43 22 C41.68 22 40.36 22 39 22 C39 22.66 39 23.32 39 24 C34.46959223 24.87955528 30.17484446 25.13444185 25.5625 25.125 C24.30566406 25.12757812 23.04882812 25.13015625 21.75390625 25.1328125 C18.06872098 25.00243134 14.63282683 24.59062733 11 24 C11 23.34 11 22.68 11 22 C8.36 21.67 5.72 21.34 3 21 C3 20.34 3 19.68 3 19 C1.35 18.67 -0.3 18.34 -2 18 C-3.6290678 13.20862412 -4.20577428 9.94367454 -3 5 C-2.34 5.33 -1.68 5.66 -1 6 C-0.67 4.02 -0.34 2.04 0 0 Z " fill="#EF732F" transform="translate(92,51)"/>
<path d="M0 0 C3.403125 -0.020625 6.80625 -0.04125 10.3125 -0.0625 C11.38153564 -0.071604 12.45057129 -0.08070801 13.55200195 -0.09008789 C14.39722412 -0.09258545 15.24244629 -0.09508301 16.11328125 -0.09765625 C16.97735596 -0.10289307 17.84143066 -0.10812988 18.73168945 -0.11352539 C21 0 21 0 24 1 C25.14077657 4.42232972 25.09815117 7.08673217 25.0625 10.6875 C25.05347656 11.86699219 25.04445312 13.04648438 25.03515625 14.26171875 C25.02355469 15.16535156 25.01195312 16.06898437 25 17 C25.66 17.33 26.32 17.66 27 18 C27.08114106 19.77007714 27.13925505 21.54122098 27.1875 23.3125 C27.23970703 24.79169922 27.23970703 24.79169922 27.29296875 26.30078125 C27 29 27 29 25.67578125 30.79296875 C22.57152874 33.02889888 19.80353167 33.1200214 16.11328125 33.09765625 C15.26805908 33.09515869 14.42283691 33.09266113 13.55200195 33.09008789 C12.48296631 33.08098389 11.41393066 33.07187988 10.3125 33.0625 C5.2078125 33.0315625 5.2078125 33.0315625 0 33 C0 22.11 0 11.22 0 0 Z M7 5 C7 7.97 7 10.94 7 14 C12.26053037 14.31563182 15.44573816 13.66590937 20 11 C20.042721 9.33388095 20.04063832 7.66617115 20 6 C18.91447634 4.68737429 18.91447634 4.68737429 16.27734375 4.90234375 C15.17519531 4.91394531 14.07304687 4.92554688 12.9375 4.9375 C11.83277344 4.94652344 10.72804687 4.95554687 9.58984375 4.96484375 C8.73519531 4.97644531 7.88054687 4.98804688 7 5 Z M7 19 C7 21.97 7 24.94 7 28 C8.95803507 28.05389087 10.91648909 28.09274217 12.875 28.125 C13.96554688 28.14820313 15.05609375 28.17140625 16.1796875 28.1953125 C19.1371051 28.30060534 19.1371051 28.30060534 21 26 C21.16681109 22.91652174 21.16681109 22.91652174 21 20 C18.23547967 18.61773984 15.9538637 18.90474613 12.875 18.9375 C11.77929688 18.94652344 10.68359375 18.95554687 9.5546875 18.96484375 C8.29011719 18.98224609 8.29011719 18.98224609 7 19 Z " fill="#430866" transform="translate(167,0)"/>
<path d="M0 0 C3.47510635 3.23401046 3.82068683 5.83286572 4.0078125 10.5 C4.00523437 11.716875 4.00265625 12.93375 4 14.1875 C4.00386719 16.0128125 4.00386719 16.0128125 4.0078125 17.875 C3.90116155 20.53500011 3.66807874 22.66978971 2.875 25.1875 C2.215 25.1875 1.555 25.1875 0.875 25.1875 C0.606875 25.80625 0.33875 26.425 0.0625 27.0625 C-1.125 29.1875 -1.125 29.1875 -4.125 31.1875 C-6.8125 31.3125 -6.8125 31.3125 -9.125 31.1875 C-9.125 31.8475 -9.125 32.5075 -9.125 33.1875 C-15.87678151 33.59260689 -19.60020691 31.87069539 -25.125 28.1875 C-25.125 27.1975 -25.125 26.2075 -25.125 25.1875 C-25.785 25.1875 -26.445 25.1875 -27.125 25.1875 C-30.55357143 16.75892857 -30.55357143 16.75892857 -30.125 12.1875 C-29.465 12.1875 -28.805 12.1875 -28.125 12.1875 C-27.795 9.2175 -27.465 6.2475 -27.125 3.1875 C-26.465 3.1875 -25.805 3.1875 -25.125 3.1875 C-24.795 2.1975 -24.465 1.2075 -24.125 0.1875 C-22.46393827 -2.08553184 -21.33901517 -2.74829545 -18.625 -3.5625 C-11.87917913 -4.04434435 -5.47870303 -4.47333278 0 0 Z M-17.6875 2.9375 C-18.89599609 3.42476562 -18.89599609 3.42476562 -20.12890625 3.921875 C-22.24427383 4.99964647 -22.24427383 4.99964647 -22.89453125 6.98046875 C-23.16659049 9.58578182 -23.25712978 12.12980637 -23.25 14.75 C-23.25257813 15.70003906 -23.25515625 16.65007813 -23.2578125 17.62890625 C-23.23270994 20.3087438 -23.23270994 20.3087438 -22.125 23.1875 C-21.465 23.1875 -20.805 23.1875 -20.125 23.1875 C-19.795 24.1775 -19.465 25.1675 -19.125 26.1875 C-13.77787158 27.10941869 -10.19594605 27.54607956 -5.125 25.1875 C-2.62894259 23.20786826 -2.16084537 22.29503611 -1.125 19.1875 C-1.03274789 17.68975982 -0.9949981 16.18807026 -1 14.6875 C-0.99742187 13.9140625 -0.99484375 13.140625 -0.9921875 12.34375 C-1.04354187 10.00302983 -1.04354187 10.00302983 -2.125 7.1875 C-2.785 7.1875 -3.445 7.1875 -4.125 7.1875 C-4.455 6.1975 -4.785 5.2075 -5.125 4.1875 C-8.095 3.6925 -8.095 3.6925 -11.125 3.1875 C-11.125 2.5275 -11.125 1.8675 -11.125 1.1875 C-13.66189677 1.1875 -15.34759394 1.96097419 -17.6875 2.9375 Z " fill="#430865" transform="translate(228.125,44.8125)"/>
<path d="M0 0 C1.32 0 2.64 0 4 0 C4 1.32 4 2.64 4 4 C4.99 4 5.98 4 7 4 C7 4.66 7 5.32 7 6 C7.99 5.34 8.98 4.68 10 4 C12.04296875 3.8046875 12.04296875 3.8046875 14.1875 3.875 C16.0746875 3.936875 16.0746875 3.936875 18 4 C18 5.65 18 7.3 18 9 C17.01 9.33 16.02 9.66 15 10 C15.99 10.33 16.98 10.66 18 11 C19.39935013 13.79870027 19.25265405 15.90498792 19 19 C17.98828125 20.6796875 17.98828125 20.6796875 16 22 C13.22975415 22.21801515 10.69588527 22.28261673 7.9375 22.1875 C6.83825195 22.16719727 6.83825195 22.16719727 5.71679688 22.14648438 C3.81092677 22.10973206 1.90540226 22.05598026 0 22 C-0.66 22 -1.32 22 -2 22 C-3.65 22 -5.3 22 -7 22 C-7 18.37 -7 14.74 -7 11 C-7.66 11 -8.32 11 -9 11 C-9 10.34 -9 9.68 -9 9 C-9.66 9 -10.32 9 -11 9 C-11.33 13.29 -11.66 17.58 -12 22 C-13.65 22 -15.3 22 -17 22 C-17 16.06 -17 10.12 -17 4 C-15.06125 3.979375 -13.1225 3.95875 -11.125 3.9375 C-10.03445313 3.92589844 -8.94390625 3.91429688 -7.8203125 3.90234375 C-5 4 -5 4 -3 5 C-3 4.34 -3 3.68 -3 3 C-2.34 3 -1.68 3 -1 3 C-0.67 2.01 -0.34 1.02 0 0 Z M4 9 C3.95758277 11.33294775 3.95907063 13.66702567 4 16 C4.98267859 17.20561184 4.98267859 17.20561184 6.84765625 17.09765625 C8.8984375 17.06510417 10.94921875 17.03255208 13 17 C11.68 16.34 10.36 15.68 9 15 C9 14.34 9 13.68 9 13 C8.34 13 7.68 13 7 13 C7 11.68 7 10.36 7 9 C6.01 9 5.02 9 4 9 Z " fill="#EC1A22" transform="translate(353,87)"/>
<path d="M0 0 C2.5 0.125 2.5 0.125 3.5 1.125 C3.64426614 5.79345228 3.54208415 10.45365953 3.5 15.125 C9.11 15.125 14.72 15.125 20.5 15.125 C20.5 10.175 20.5 5.225 20.5 0.125 C22.15 0.125 23.8 0.125 25.5 0.125 C25.5 11.345 25.5 22.565 25.5 34.125 C23.85 34.125 22.2 34.125 20.5 34.125 C20.5 29.505 20.5 24.885 20.5 20.125 C14.89 20.125 9.28 20.125 3.5 20.125 C3.5 24.745 3.5 29.365 3.5 34.125 C1.19 34.125 -1.12 34.125 -3.5 34.125 C-3.52465288 29.44360746 -3.54283739 24.76225241 -3.55493164 20.08081055 C-3.55997157 18.48705386 -3.5668035 16.89330181 -3.57543945 15.29956055 C-3.58751999 13.01349747 -3.59323155 10.72749533 -3.59765625 8.44140625 C-3.60281754 7.72473282 -3.60797882 7.00805939 -3.61329651 6.26966858 C-3.61349263 4.55436328 -3.56192007 2.83918734 -3.5 1.125 C-2.5 0.125 -2.5 0.125 0 0 Z " fill="#430766" transform="translate(170.5,41.875)"/>
<path d="M0 0 C1.32 0 2.64 0 4 0 C5.25248502 2.50497004 5.11374406 4.20853274 5.09765625 7.0078125 C5.09443359 7.99394531 5.09121094 8.98007813 5.08789062 9.99609375 C5.07532227 11.54490234 5.07532227 11.54490234 5.0625 13.125 C5.05798828 14.16527344 5.05347656 15.20554687 5.04882812 16.27734375 C5.03701952 18.85161962 5.02055075 21.42578146 5 24 C3.02 24 1.04 24 -1 24 C-1.33 21.03 -1.66 18.06 -2 15 C-2.33 16.65 -2.66 18.3 -3 20 C-3.66 20 -4.32 20 -5 20 C-5 21.32 -5 22.64 -5 24 C-6.98 24 -8.96 24 -11 24 C-11 23.01 -11 22.02 -11 21 C-12.32 20.67 -13.64 20.34 -15 20 C-15 21.32 -15 22.64 -15 24 C-16.98 24 -18.96 24 -21 24 C-21 23.01 -21 22.02 -21 21 C-21.66 21 -22.32 21 -23 21 C-23.33 18.36 -23.66 15.72 -24 13 C-24.66 13 -25.32 13 -26 13 C-27.125 8.25 -27.125 8.25 -26 6 C-24.02 6 -22.04 6 -20 6 C-19.34 7.98 -18.68 9.96 -18 12 C-17.34 10.02 -16.68 8.04 -16 6 C-14.02 6 -12.04 6 -10 6 C-9.34 7.65 -8.68 9.3 -8 11 C-7.34 9.35 -6.68 7.7 -6 6 C-4.35 6 -2.7 6 -1 6 C-0.67 4.02 -0.34 2.04 0 0 Z " fill="#EC1921" transform="translate(194,85)"/>
<path d="M0 0 C7.26 0 14.52 0 22 0 C22 1.98 22 3.96 22 6 C16.72 6 11.44 6 6 6 C6 8.97 6 11.94 6 15 C10.95 15 15.9 15 21 15 C21 16.65 21 18.3 21 20 C16.05 20 11.1 20 6 20 C6 22.97 6 25.94 6 29 C11.61 29 17.22 29 23 29 C23 30.65 23 32.3 23 34 C15.41 34 7.82 34 0 34 C0 22.78 0 11.56 0 0 Z " fill="#470866" transform="translate(276,42)"/>
<path d="M0 0 C1.65 0 3.3 0 5 0 C5 1.98 5 3.96 5 6 C7.97 6.33 10.94 6.66 14 7 C14 7.99 14 8.98 14 10 C14.66 10 15.32 10 16 10 C16 14.62 16 19.24 16 24 C13.69 24 11.38 24 9 24 C9 20.37 9 16.74 9 13 C7.68 13 6.36 13 5 13 C5 16.63 5 20.26 5 24 C2.70839681 24.02692484 0.41670454 24.04636124 -1.875 24.0625 C-3.15117187 24.07410156 -4.42734375 24.08570312 -5.7421875 24.09765625 C-9 24 -9 24 -11 23 C-11 16.07 -11 9.14 -11 2 C-9.35 2 -7.7 2 -6 2 C-6 3.32 -6 4.64 -6 6 C-4.02 6 -2.04 6 0 6 C0 4.02 0 2.04 0 0 Z M-6 13 C-5.67 14.98 -5.34 16.96 -5 19 C-4.67 18.34 -4.34 17.68 -4 17 C-2.68 17 -1.36 17 0 17 C0 15.68 0 14.36 0 13 C-1.98 13 -3.96 13 -6 13 Z " fill="#EC1921" transform="translate(211,85)"/>
<path d="M0 0 C0 0.66 0 1.32 0 2 C0.66 2 1.32 2 2 2 C2 3.65 2 5.3 2 7 C-2.71403788 6.52060632 -6.66579301 6.03165952 -11 4 C-11 4.66 -11 5.32 -11 6 C-11.99 6.33 -12.98 6.66 -14 7 C-14 8.65 -14 10.3 -14 12 C-11.03 12.495 -11.03 12.495 -8 13 C-8 13.66 -8 14.32 -8 15 C-6.9275 15.0825 -5.855 15.165 -4.75 15.25 C-1 16 -1 16 1.4375 17.4375 C3.89023375 21.45998334 3.76107124 25.41835112 3 30 C1.25 32.625 1.25 32.625 -1 34 C-2.32 34 -3.64 34 -5 34 C-5 34.66 -5 35.32 -5 36 C-7.64 36 -10.28 36 -13 36 C-13 35.34 -13 34.68 -13 34 C-13.94875 34.020625 -14.8975 34.04125 -15.875 34.0625 C-19 34 -19 34 -21 33 C-21 31.35 -21 29.7 -21 28 C-20.11957031 28.08378906 -19.23914063 28.16757813 -18.33203125 28.25390625 C-17.17058594 28.35574219 -16.00914062 28.45757812 -14.8125 28.5625 C-13.66394531 28.66691406 -12.51539063 28.77132812 -11.33203125 28.87890625 C-8.31368801 28.98859985 -5.91076064 28.74002389 -3 28 C-3 26.68 -3 25.36 -3 24 C-3.66 23.67 -4.32 23.34 -5 23 C-5 22.34 -5 21.68 -5 21 C-6.98 20.67 -8.96 20.34 -11 20 C-11 19.34 -11 18.68 -11 18 C-11.94875 17.855625 -12.8975 17.71125 -13.875 17.5625 C-17 17 -17 17 -19 16 C-19 15.01 -19 14.02 -19 13 C-19.66 13 -20.32 13 -21 13 C-21.29354096 9.94717403 -21.4251429 7.04423312 -21 4 C-15.38911012 -2.23432209 -7.73182772 -1.87438248 0 0 Z " fill="#460867" transform="translate(322,42)"/>
<path d="M0 0 C0.66 0.33 1.32 0.66 2 1 C1.67 1.33 1.34 1.66 1 2 C7.6 2.33 14.2 2.66 21 3 C21 6 21 6 19.1875 8.1875 C17 10 17 10 14 10 C14 10.66 14 11.32 14 12 C11.69 12.33 9.38 12.66 7 13 C7 13.66 7 14.32 7 15 C-1.82679919 16.6928108 -11.16197094 16.68343411 -20 15 C-20 14.34 -20 13.68 -20 13 C-22.97 12.505 -22.97 12.505 -26 12 C-26 11.34 -26 10.68 -26 10 C-26.598125 9.855625 -27.19625 9.71125 -27.8125 9.5625 C-29.56150404 9.1127561 -31.28677023 8.57107659 -33 8 C-33 7.34 -33 6.68 -33 6 C-32.16082031 6.10828125 -32.16082031 6.10828125 -31.3046875 6.21875 C-23.85917345 7.08061015 -16.48827512 7.0971102 -9 7 C-9 6.34 -9 5.68 -9 5 C-7.35 4.67 -5.7 4.34 -4 4 C-4 3.34 -4 2.68 -4 2 C-2.125 0.9375 -2.125 0.9375 0 0 Z " fill="#EA432D" transform="translate(41,60)"/>
<path d="M0 0 C1.65 0 3.3 0 5 0 C5 7.92 5 15.84 5 24 C5.66 24 6.32 24 7 24 C7.33 24.99 7.66 25.98 8 27 C12.99640327 27.99928065 16.31281509 28.12039317 21 26 C22.28605661 23.42788678 22.21043941 21.43093034 22.31640625 18.5546875 C22.35830078 17.47832031 22.40019531 16.40195312 22.44335938 15.29296875 C22.48267578 14.16503906 22.52199219 13.03710938 22.5625 11.875 C22.60568359 10.73933594 22.64886719 9.60367187 22.69335938 8.43359375 C22.7996604 5.62252232 22.90169405 2.81136055 23 0 C24.65 0 26.3 0 28 0 C28.02897435 4.27081914 28.04678996 8.54161309 28.0625 12.8125 C28.07087891 14.02744141 28.07925781 15.24238281 28.08789062 16.49414062 C28.09272461 18.23920898 28.09272461 18.23920898 28.09765625 20.01953125 C28.10551147 21.62985229 28.10551147 21.62985229 28.11352539 23.27270508 C27.95832047 27.00129459 27.44875409 28.5637113 24.75 31.1875 C21.78172433 33.14386351 20.46505783 33.39600661 17 33 C17 33.66 17 34.32 17 35 C11.95860749 35.37810444 7.39358358 34.54806876 3 32 C2.67 31.01 2.34 30.02 2 29 C1.34 28.67 0.68 28.34 0 28 C0 18.76 0 9.52 0 0 Z " fill="#450866" transform="translate(350,0)"/>
<path d="M0 0 C1.65 0 3.3 0 5 0 C5.33 8.91 5.66 17.82 6 27 C12.01016911 27.75127114 15.36818324 28.05596564 21 27 C21.76636091 23.53910321 22.17149371 20.23922512 22.31640625 16.69921875 C22.35830078 15.72275391 22.40019531 14.74628906 22.44335938 13.74023438 C22.48267578 12.73283203 22.52199219 11.72542969 22.5625 10.6875 C22.60568359 9.66076172 22.64886719 8.63402344 22.69335938 7.57617188 C22.79906825 5.05090431 22.90116468 2.52554438 23 0 C24.65 0 26.3 0 28 0 C28.11686443 4.02058602 28.18747388 8.04073082 28.25 12.0625 C28.30027344 13.7630957 28.30027344 13.7630957 28.3515625 15.49804688 C28.43009088 22.23185551 28.15064937 26.58109665 24 32 C21.29120665 33.35439668 18.99066732 33.06501451 16 33 C16 33.66 16 34.32 16 35 C14.35 35 12.7 35 11 35 C11 34.34 11 33.68 11 33 C7.04 32.505 7.04 32.505 3 32 C3 31.34 3 30.68 3 30 C2.34 30 1.68 30 1 30 C-0.40912096 27.18175808 -0.11183553 24.82748718 -0.09765625 21.6796875 C-0.09443359 20.42285156 -0.09121094 19.16601562 -0.08789062 17.87109375 C-0.07951172 16.55238281 -0.07113281 15.23367187 -0.0625 13.875 C-0.05748489 12.53515789 -0.05292201 11.195314 -0.04882812 9.85546875 C-0.03701086 6.57026794 -0.02053617 3.28515603 0 0 Z " fill="#440866" transform="translate(253,0)"/>
<path d="M0 0 C7.92 0 15.84 0 24 0 C24 1.65 24 3.3 24 5 C18.39 5 12.78 5 7 5 C7 8.3 7 11.6 7 15 C12.28 15 17.56 15 23 15 C23 16.65 23 18.3 23 20 C17.72 20 12.44 20 7 20 C7 24.29 7 28.58 7 33 C4.69 33 2.38 33 0 33 C0 22.11 0 11.22 0 0 Z " fill="#440869" transform="translate(324,0)"/>
<path d="M0 0 C5.61 0 11.22 0 17 0 C17 0.66 17 1.32 17 2 C17.77085937 2.09796875 18.54171875 2.1959375 19.3359375 2.296875 C20.84027344 2.52117188 20.84027344 2.52117188 22.375 2.75 C23.87160156 2.95882813 23.87160156 2.95882813 25.3984375 3.171875 C28 4 28 4 29.3515625 5.890625 C30 8 30 8 30 11 C30.66 11 31.32 11 32 11 C32.625 12.8125 32.625 12.8125 33 15 C32.34 15.99 31.68 16.98 31 18 C28.37302936 18.22137393 25.99106036 18.28162025 23.375 18.1875 C22.66859375 18.17396484 21.9621875 18.16042969 21.234375 18.14648438 C19.48925872 18.1111104 17.74453392 18.05730221 16 18 C15.67 17.34 15.34 16.68 15 16 C15.33 15.34 15.66 14.68 16 14 C14.68 14 13.36 14 12 14 C7 8.77272727 7 8.77272727 7 6 C2.545 5.01 2.545 5.01 -2 4 C-2 3.34 -2 2.68 -2 2 C-1.34 2 -0.68 2 0 2 C0 1.34 0 0.68 0 0 Z " fill="#68478F" transform="translate(116,24)"/>
<path d="M0 0 C9.57 0 19.14 0 29 0 C29 1.65 29 3.3 29 5 C25.37 5 21.74 5 18 5 C18 14.24 18 23.48 18 33 C16.35 33 14.7 33 13 33 C13 23.76 13 14.52 13 5 C8.71 5 4.42 5 0 5 C0 3.35 0 1.7 0 0 Z " fill="#45086A" transform="translate(283,0)"/>
<path d="M0 0 C1.65 0 3.3 0 5 0 C5 9.24 5 18.48 5 28 C10.61 28 16.22 28 22 28 C22 29.65 22 31.3 22 33 C14.74 33 7.48 33 0 33 C0 22.11 0 11.22 0 0 Z " fill="#450968" transform="translate(383,0)"/>
<path d="M0 0 C0.71671875 -0.020625 1.4334375 -0.04125 2.171875 -0.0625 C6.81379429 -0.09663176 9.50664932 0.5432695 13.25 3.25 C14.85009995 4.15307708 16.45410449 5.04928159 18.0625 5.9375 C18.85269531 6.37449219 19.64289062 6.81148437 20.45703125 7.26171875 C21.04871094 7.58785156 21.64039062 7.91398437 22.25 8.25 C22.25 8.91 22.25 9.57 22.25 10.25 C13.43128264 12.52579803 3.67074211 11.6044165 -4.75 8.25 C-7.00185482 5.94696667 -7.64228671 4.33993706 -8.75 1.25 C-6.72363933 -0.77636067 -2.77022651 0.01950864 0 0 Z " fill="#402057" transform="translate(9.75,56.75)"/>
<path d="M0 0 C2.97 0.495 2.97 0.495 6 1 C6 1.66 6 2.32 6 3 C7.051875 3.2475 8.10375 3.495 9.1875 3.75 C15.46538379 5.57261142 18.74081793 9.44731944 22 15 C22 15.66 22 16.32 22 17 C22.66 17 23.32 17 24 17 C24 17.99 24 18.98 24 20 C21.5898968 19.57231989 19.19722571 19.10833999 16.8046875 18.58984375 C14.06447582 17.97256265 14.06447582 17.97256265 11.5078125 17.69140625 C8.77349641 17.17124174 7.22313065 16.70673416 5 15 C2.76856238 10.63097027 0 4.96860301 0 0 Z " fill="#452452" transform="translate(32,0)"/>
<path d="M0 0 C1.98 0 3.96 0 6 0 C6 10.89 6 21.78 6 33 C4.02 33 2.04 33 0 33 C0 22.11 0 11.22 0 0 Z " fill="#440766" transform="translate(314,0)"/>
<path d="M0 0 C6.93 0 13.86 0 21 0 C20.67 2.31 20.34 4.62 20 7 C14.37742839 8.9169573 9.47630615 9.24889924 3.5625 9.125 C2.73556641 9.11597656 1.90863281 9.10695313 1.05664062 9.09765625 C-0.96236708 9.07431512 -2.98122356 9.03845288 -5 9 C-5 8.01 -5 7.02 -5 6 C-4.01 6 -3.02 6 -2 6 C-1.34 4.02 -0.68 2.04 0 0 Z " fill="#40275A" transform="translate(125,58)"/>
<path d="M0 0 C0.33 0.66 0.66 1.32 1 2 C0.01 3.485 0.01 3.485 -1 5 C-1.66 5 -2.32 5 -3 5 C-3.33 5.99 -3.66 6.98 -4 8 C-6.296537 9.1482685 -7.58313167 9.11561175 -10.1328125 9.09765625 C-10.93847656 9.09443359 -11.74414062 9.09121094 -12.57421875 9.08789062 C-13.41597656 9.07951172 -14.25773438 9.07113281 -15.125 9.0625 C-15.97449219 9.05798828 -16.82398438 9.05347656 -17.69921875 9.04882812 C-19.79950909 9.03702874 -21.8997633 9.01909306 -24 9 C-24.33 8.34 -24.66 7.68 -25 7 C-22.82978279 3.56382275 -21.40100838 2.15311229 -17.5625 0.6875 C-11.79276103 -0.48396503 -5.8553089 -0.16066396 0 0 Z " fill="#583279" transform="translate(26,28)"/>
<path d="M0 0 C5.61 0 11.22 0 17 0 C17 0.66 17 1.32 17 2 C20.63 2.66 24.26 3.32 28 4 C27.67 4.99 27.34 5.98 27 7 C21.72 6.67 16.44 6.34 11 6 C11 6.66 11 7.32 11 8 C9.68 8 8.36 8 7 8 C7 7.34 7 6.68 7 6 C2.545 5.01 2.545 5.01 -2 4 C-2 3.34 -2 2.68 -2 2 C-1.34 2 -0.68 2 0 2 C0 1.34 0 0.68 0 0 Z " fill="#482565" transform="translate(116,24)"/>
<path d="M0 0 C6.0018137 -0.21824777 11.19233704 0.4943096 17 2 C17 2.66 17 3.32 17 4 C19.475 4.495 19.475 4.495 22 5 C22 5.66 22 6.32 22 7 C23.32 7.66 24.64 8.32 26 9 C26 9.99 26 10.98 26 12 C25.38125 12.268125 24.7625 12.53625 24.125 12.8125 C21.7004767 13.95556848 21.7004767 13.95556848 20 17 C19.70867188 16.46890625 19.41734375 15.9378125 19.1171875 15.390625 C15.33317104 8.86974129 11.18628138 5.5363346 4 3 C4 2.34 4 1.68 4 1 C2.68 0.67 1.36 0.34 0 0 Z " fill="#E23C2E" transform="translate(34,0)"/>
<path d="M0 0 C2.64 0 5.28 0 8 0 C8.65134925 1.56020867 9.29582964 3.12328579 9.9375 4.6875 C10.29714844 5.55761719 10.65679687 6.42773438 11.02734375 7.32421875 C11.9570312 9.88179265 12.54162625 12.3221323 13 15 C9.7 15 6.4 15 3 15 C3 12.36 3 9.72 3 7 C2.34 7 1.68 7 1 7 C0.67 4.69 0.34 2.38 0 0 Z " fill="#927FB1" transform="translate(24,0)"/>
<path d="M0 0 C0.66 0.33 1.32 0.66 2 1 C4.33022478 1.20560807 6.66456298 1.36599952 9 1.5 C15.77777778 1.88888889 15.77777778 1.88888889 18 3 C18 4.98 18 6.96 18 9 C17.34 9 16.68 9 16 9 C16 8.34 16 7.68 16 7 C9.73 7 3.46 7 -3 7 C-1 1 -1 1 0 0 Z " fill="#846AA5" transform="translate(130,51)"/>
<path d="M0 0 C1.32 0 2.64 0 4 0 C4 0.99 4 1.98 4 3 C6.45862401 3.05383848 8.9160755 3.09359038 11.375 3.125 C12.07367188 3.14175781 12.77234375 3.15851562 13.4921875 3.17578125 C15.32897486 3.19344267 17.16601963 3.10303261 19 3 C19.66 2.34 20.32 1.68 21 1 C21.04241723 3.33294775 21.04092937 5.66702567 21 8 C20 9 20 9 16.18359375 9.09765625 C14.60153318 9.09098089 13.01948841 9.07901875 11.4375 9.0625 C10.63119141 9.05798828 9.82488281 9.05347656 8.99414062 9.04882812 C6.99606244 9.03700518 4.99802217 9.01906914 3 9 C2.67 6.69 2.34 4.38 2 2 C1.34 2 0.68 2 0 2 C0 1.34 0 0.68 0 0 Z " fill="#9481B2" transform="translate(128,38)"/>
<path d="M0 0 C0.99 0.33 1.98 0.66 3 1 C2.67 3.97 2.34 6.94 2 10 C1.01 9.67 0.02 9.34 -1 9 C-3.73289293 8.77202438 -6.45042204 8.58331813 -9.1875 8.4375 C-9.93708984 8.39431641 -10.68667969 8.35113281 -11.45898438 8.30664062 C-13.30578375 8.20077315 -15.15286834 8.0999024 -17 8 C-17 6.35 -17 4.7 -17 3 C-8.585 2.505 -8.585 2.505 0 2 C0 1.34 0 0.68 0 0 Z " fill="#9D8CBA" transform="translate(17,40)"/>
<path d="M0 0 C1.98 0 3.96 0 6 0 C6.33 2.31 6.66 4.62 7 7 C7.66 7 8.32 7 9 7 C9.33 9.31 9.66 11.62 10 14 C7.09399739 15.25664978 5.20395416 16 2 16 C2 11.05 2 6.1 2 1 C1.34 0.67 0.68 0.34 0 0 Z " fill="#6C4C93" transform="translate(18,0)"/>
<path d="M0 0 C3 1 3 1 4 3 C3.96264208 5.10641222 3.84689663 7.21179517 3.6875 9.3125 C3.56955078 11.00826172 3.56955078 11.00826172 3.44921875 12.73828125 C3.02542555 15.81538837 2.29100627 18.19140269 1 21 C0.01 21 -0.98 21 -2 21 C-3.26026798 18.47946405 -2.91874445 17.1457902 -2.5625 14.375 C-2.46066406 13.55773438 -2.35882813 12.74046875 -2.25390625 11.8984375 C-2.17011719 11.27195312 -2.08632812 10.64546875 -2 10 C-1.34 10 -0.68 10 0 10 C0 6.7 0 3.4 0 0 Z " fill="#EA3C2A" transform="translate(73,37)"/>
<path d="M0 0 C6.93 0 13.86 0 21 0 C20.67 2.31 20.34 4.62 20 7 C13.25 9 13.25 9 11 9 C11 8.34 11 7.68 11 7 C14.465 6.505 14.465 6.505 18 6 C18 5.01 18 4.02 18 3 C12.06 3 6.12 3 0 3 C0 2.01 0 1.02 0 0 Z " fill="#5F4172" transform="translate(125,58)"/>
<path d="M0 0 C5.94 0 11.88 0 18 0 C18.33 1.32 18.66 2.64 19 4 C19.66 4 20.32 4 21 4 C21.33 4.99 21.66 5.98 22 7 C18.125 6.125 18.125 6.125 17 5 C14.13732433 4.92674832 11.299281 4.90761795 8.4375 4.9375 C7.63119141 4.94201172 6.82488281 4.94652344 5.99414062 4.95117188 C3.99606244 4.96299482 1.99802217 4.98093086 0 5 C0 3.35 0 1.7 0 0 Z " fill="#6B4C92" transform="translate(1,53)"/>
<path d="M0 0 C2.8125 0 2.8125 0 6 1 C7.5533083 3.49747609 8.24597326 6.1736481 9 9 C9.20496094 9.68835937 9.40992188 10.37671875 9.62109375 11.0859375 C10.10384268 12.71729596 10.55525729 14.35787306 11 16 C8.03 15.505 8.03 15.505 5 15 C4.16475914 12.68817262 3.33172414 10.37559226 2.5 8.0625 C2.26152344 7.40314453 2.02304687 6.74378906 1.77734375 6.06445312 C0 1.11328125 0 1.11328125 0 0 Z " fill="#684876" transform="translate(32,0)"/>
<path d="M0 0 C5.61 0 11.22 0 17 0 C17 0.66 17 1.32 17 2 C17.99 2.33 18.98 2.66 20 3 C9.11 3.495 9.11 3.495 -2 4 C-2 3.34 -2 2.68 -2 2 C-1.34 2 -0.68 2 0 2 C0 1.34 0 0.68 0 0 Z " fill="#52224C" transform="translate(116,24)"/>
<path d="M0 0 C0.74185547 -0.020625 1.48371094 -0.04125 2.24804688 -0.0625 C4.40234375 -0.078125 4.40234375 -0.078125 8.0625 0.25 C8.7225 1.24 9.3825 2.23 10.0625 3.25 C9.14726562 3.31058594 8.23203125 3.37117188 7.2890625 3.43359375 C6.10054687 3.51738281 4.91203125 3.60117187 3.6875 3.6875 C2.50414062 3.76871094 1.32078125 3.84992187 0.1015625 3.93359375 C-2.85268901 4.06084936 -2.85268901 4.06084936 -4.9375 5.25 C-6.2575 3.93 -7.5775 2.61 -8.9375 1.25 C-6.88735387 -0.80014613 -2.80865412 0.01942025 0 0 Z " fill="#52347A" transform="translate(9.9375,56.75)"/>
<path d="M0 0 C2.7885289 -0.22107787 5.34653181 -0.28107535 8.125 -0.1875 C8.87910156 -0.17396484 9.63320312 -0.16042969 10.41015625 -0.14648438 C12.27374127 -0.11109985 14.13695978 -0.05729167 16 0 C16 1.98 16 3.96 16 6 C15.67 5.34 15.34 4.68 15 4 C9.39 3.67 3.78 3.34 -2 3 C-1.34 2.01 -0.68 1.02 0 0 Z " fill="#917CB1" transform="translate(133,50)"/>
<path d="M0 0 C1.32 0 2.64 0 4 0 C4 0.66 4 1.32 4 2 C2.68 2.33 1.36 2.66 0 3 C2.05922402 5.05922402 6.21708124 4.41427579 9.0625 4.5625 C10.20041992 4.62727539 10.20041992 4.62727539 11.36132812 4.69335938 C13.24065438 4.79973633 15.12030244 4.90039934 17 5 C15 7 15 7 13.12060547 7.22705078 C12.37697754 7.21657715 11.63334961 7.20610352 10.8671875 7.1953125 C10.06152344 7.18886719 9.25585938 7.18242188 8.42578125 7.17578125 C7.58402344 7.15902344 6.74226562 7.14226563 5.875 7.125 C4.60076172 7.11146484 4.60076172 7.11146484 3.30078125 7.09765625 C1.20040116 7.07405647 -0.89983444 7.03818483 -3 7 C-3.33 6.34 -3.66 5.68 -4 5 C-2.25 2.5 -2.25 2.5 0 0 Z " fill="#613F8B" transform="translate(5,30)"/>
<path d="M0 0 C0.33 0.66 0.66 1.32 1 2 C6.28 2 11.56 2 17 2 C17 2.99 17 3.98 17 5 C11.39 5 5.78 5 0 5 C0 3.35 0 1.7 0 0 Z " fill="#846BA7" transform="translate(0,38)"/>
<path d="M0 0 C0.99 0.33 1.98 0.66 3 1 C2 4 2 4 0.359375 5.1796875 C-2.76270924 6.26518037 -5.45275401 6.19094492 -8.75 6.125 C-9.92046875 6.10695313 -11.0909375 6.08890625 -12.296875 6.0703125 C-13.63492187 6.03550781 -13.63492187 6.03550781 -15 6 C-15 5.34 -15 4.68 -15 4 C-15.66 3.67 -16.32 3.34 -17 3 C-8.585 2.505 -8.585 2.505 0 2 C0 1.34 0 0.68 0 0 Z " fill="#9683B5" transform="translate(17,40)"/>
<path d="M0 0 C1.32 0 2.64 0 4 0 C4 0.99 4 1.98 4 3 C6.45862401 3.05383848 8.9160755 3.09359038 11.375 3.125 C12.07367188 3.14175781 12.77234375 3.15851562 13.4921875 3.17578125 C15.32897486 3.19344267 17.16601963 3.10303261 19 3 C19.66 2.34 20.32 1.68 21 1 C21 2.65 21 4.3 21 6 C15.06 6 9.12 6 3 6 C2.67 4.68 2.34 3.36 2 2 C1.34 2 0.68 2 0 2 C0 1.34 0 0.68 0 0 Z " fill="#856DA4" transform="translate(128,38)"/>
<path d="M0 0 C0.66 0.66 1.32 1.32 2 2 C3.93257855 2.36831081 3.93257855 2.36831081 6.1328125 2.4140625 C7.34130859 2.47207031 7.34130859 2.47207031 8.57421875 2.53125 C9.83685547 2.57765625 9.83685547 2.57765625 11.125 2.625 C11.97449219 2.66367187 12.82398438 2.70234375 13.69921875 2.7421875 C15.79911684 2.83656494 17.89952891 2.91937586 20 3 C20 4.32 20 5.64 20 7 C19.34 7 18.68 7 18 7 C18 6.34 18 5.68 18 5 C11.73 5 5.46 5 -1 5 C-0.67 3.35 -0.34 1.7 0 0 Z " fill="#6F5790" transform="translate(128,53)"/>
<path d="M0 0 C1.98 0 3.96 0 6 0 C6.33 2.31 6.66 4.62 7 7 C7.66 7 8.32 7 9 7 C9.33 9.31 9.66 11.62 10 14 C8.35 14.33 6.7 14.66 5 15 C5 10.38 5 5.76 5 1 C3.35 1 1.7 1 0 1 C0 0.67 0 0.34 0 0 Z " fill="#7D62A1" transform="translate(18,0)"/>
<path d="M0 0 C0.89138672 0.10828125 0.89138672 0.10828125 1.80078125 0.21875 C8.22562641 0.93817279 14.53847873 1.11055835 21 1 C21 1.66 21 2.32 21 3 C20.15695313 3.06058594 19.31390625 3.12117188 18.4453125 3.18359375 C17.34960938 3.26738281 16.25390625 3.35117188 15.125 3.4375 C14.03445312 3.51871094 12.94390625 3.59992188 11.8203125 3.68359375 C9.05271029 3.83001703 9.05271029 3.83001703 7 5 C4.64018187 4.06421005 2.30368736 3.06652192 0 2 C0 1.34 0 0.68 0 0 Z " fill="#C53F39" transform="translate(8,66)"/>
<path d="M0 0 C-0.33 0.99 -0.66 1.98 -1 3 C-3.5625 4.1875 -3.5625 4.1875 -6 5 C-6.33 4.34 -6.66 3.68 -7 3 C-8.0209375 3.2784375 -8.0209375 3.2784375 -9.0625 3.5625 C-12.57232191 4.08523943 -15.52188063 3.61378577 -19 3 C-19 2.67 -19 2.34 -19 2 C-16.58374679 1.66340751 -14.16707192 1.33061612 -11.75 1 C-10.72712891 0.85691406 -10.72712891 0.85691406 -9.68359375 0.7109375 C-6.40628012 0.2654774 -3.31615847 0 0 0 Z " fill="#ECA232" transform="translate(142,66)"/>
<path d="M0 0 C1.32 0.33 2.64 0.66 4 1 C4.66 4.96 5.32 8.92 6 13 C5.34 13 4.68 13 4 13 C1.97944157 8.60748167 0.59104765 4.84659077 0 0 Z " fill="#4D3164" transform="translate(39,3)"/>
<path d="M0 0 C0.99 0.33 1.98 0.66 3 1 C3.9140625 2.890625 3.9140625 2.890625 4.625 5.25 C4.87121094 6.05824219 5.11742187 6.86648437 5.37109375 7.69921875 C6.03225326 10.11799485 6.60058809 12.52364616 7 15 C6.01 15 5.02 15 4 15 C3.34 11.04 2.68 7.08 2 3 C1.34 3 0.68 3 0 3 C0 2.01 0 1.02 0 0 Z " fill="#836E9C" transform="translate(30,0)"/>
<path d="M0 0 C7.26 0 14.52 0 22 0 C22 0.33 22 0.66 22 1 C17.05 1 12.1 1 7 1 C7 1.66 7 2.32 7 3 C5.68 3 4.36 3 3 3 C3 2.34 3 1.68 3 1 C2.01 0.67 1.02 0.34 0 0 Z " fill="#4F2E76" transform="translate(120,29)"/>
<path d="M0 0 C2.93756119 -0.0269501 5.87487555 -0.04681474 8.8125 -0.0625 C9.64587891 -0.07087891 10.47925781 -0.07925781 11.33789062 -0.08789062 C12.14033203 -0.09111328 12.94277344 -0.09433594 13.76953125 -0.09765625 C14.87711792 -0.10551147 14.87711792 -0.10551147 16.00708008 -0.11352539 C18 0 18 0 21 1 C21.33 1.99 21.66 2.98 22 4 C18.125 3.125 18.125 3.125 17 2 C14.13732433 1.92674832 11.299281 1.90761795 8.4375 1.9375 C7.63119141 1.94201172 6.82488281 1.94652344 5.99414062 1.95117188 C3.99606244 1.96299482 1.99802217 1.98093086 0 2 C0 1.34 0 0.68 0 0 Z " fill="#614287" transform="translate(1,56)"/>
<path d="M0 0 C0.99 0.33 1.98 0.66 3 1 C3 1.66 3 2.32 3 3 C4.65 3.33 6.3 3.66 8 4 C8.33 4.99 8.66 5.98 9 7 C4.545 6.01 4.545 6.01 0 5 C0 3.35 0 1.7 0 0 Z " fill="#C93534" transform="translate(133,21)"/>
<path d="M0 0 C1.32 0 2.64 0 4 0 C4 0.66 4 1.32 4 2 C2.68 2.33 1.36 2.66 0 3 C0.33 4.32 0.66 5.64 1 7 C-0.65 6.67 -2.3 6.34 -4 6 C-1.125 1.125 -1.125 1.125 0 0 Z " fill="#694281" transform="translate(5,30)"/>
<path d="M0 0 C0.66 0 1.32 0 2 0 C2 1.65 2 3.3 2 5 C2.99 5.33 3.98 5.66 5 6 C5.33 8.31 5.66 10.62 6 13 C5.34 13 4.68 13 4 13 C3.32942113 11.2097939 2.6636531 9.41778511 2 7.625 C1.62875 6.62726562 1.2575 5.62953125 0.875 4.6015625 C0 2 0 2 0 0 Z " fill="#705C8D" transform="translate(33,2)"/>
<path d="M0 0 C1.485 0.99 1.485 0.99 3 2 C3.1875 4.625 3.1875 4.625 3 7 C1.68 7 0.36 7 -1 7 C-1.04254356 5.00045254 -1.04080783 2.99958364 -1 1 C-0.67 0.67 -0.34 0.34 0 0 Z " fill="#9E8DBA" transform="translate(31,8)"/>
<path d="M0 0 C2.64 0 5.28 0 8 0 C8.33 1.32 8.66 2.64 9 4 C7.35 3.67 5.7 3.34 4 3 C4 2.34 4 1.68 4 1 C2.68 0.67 1.36 0.34 0 0 Z " fill="#D93933" transform="translate(34,0)"/>
<path d="M0 0 C5.28 0 10.56 0 16 0 C16 0.33 16 0.66 16 1 C13.89594609 1.16808419 11.79175242 1.33441948 9.6875 1.5 C8.51574219 1.5928125 7.34398437 1.685625 6.13671875 1.78125 C4.094806 1.92364989 2.0468721 2 0 2 C0 1.34 0 0.68 0 0 Z " fill="#4A2B6E" transform="translate(4,59)"/>
</svg>
