<?xml version="1.0" encoding="UTF-8"?>
<svg version="1.1" xmlns="http://www.w3.org/2000/svg" width="153" height="50">
<path d="M0 0 C50.49 0 100.98 0 153 0 C153 16.5 153 33 153 50 C102.51 50 52.02 50 0 50 C0 33.5 0 17 0 0 Z " fill="#262424" transform="translate(0,0)"/>
<path d="M0 0 C0.66 0.33 1.32 0.66 2 1 C0.82860087 3.34279827 -0.35242565 5.67665724 -1.5625 8 C-2.71427776 10.40371011 -3.50121687 12.40632775 -4 15 C-3.01 15 -2.02 15 -1 15 C-1 15.66 -1 16.32 -1 17 C-1.91265625 17.12568359 -1.91265625 17.12568359 -2.84375 17.25390625 C-5.65672387 18.22723598 -6.11566542 19.35122627 -7.5 21.9375 C-9.25430247 25.20311034 -10.50954071 26.65017395 -14 28 C-16.5 28.4375 -16.5 28.4375 -19 28 C-21.99540173 25.24746868 -22.94165078 23.77312715 -23.25 19.6875 C-23.1675 18.800625 -23.085 17.91375 -23 17 C-26.96 17.495 -26.96 17.495 -31 18 C-30.95231597 19.87880872 -30.95231597 19.87880872 -30 22 C-27.02236957 24.26325246 -27.02236957 24.26325246 -24 26 C-24.375 28.4375 -24.375 28.4375 -25 31 C-28.21451269 32.60725635 -31.43612536 32.05748185 -35 32 C-35 31.34 -35 30.68 -35 30 C-32.69 30 -30.38 30 -28 30 C-28 28.68 -28 27.36 -28 26 C-28.99 25.360625 -29.98 24.72125 -31 24.0625 C-34 22 -34 22 -34.5625 19.375 C-34 17 -34 17 -31 15 C-22.68206144 13.48164614 -14.35192073 14.12439541 -6 15 C-6 13.68 -6 12.36 -6 11 C-6.680625 11.7425 -6.680625 11.7425 -7.375 12.5 C-9 14 -9 14 -11 14 C-10.38461538 7.47692308 -10.38461538 7.47692308 -8.4375 5.0625 C-7.963125 4.711875 -7.48875 4.36125 -7 4 C-7.33 5.98 -7.66 7.96 -8 10 C-5.24449528 6.72318357 -2.52719217 3.45826297 0 0 Z " fill="#CFCECE" transform="translate(142,7)"/>
<path d="M0 0 C0.99 0.33 1.98 0.66 3 1 C2.33333333 2.33333333 1.66666667 3.66666667 1 5 C1.185625 6.155 1.37125 7.31 1.5625 8.5 C1.706875 9.655 1.85125 10.81 2 12 C1.34 12.66 0.68 13.32 0 14 C-3.29714793 13.67028521 -4.6226839 13.3773161 -7 11 C-7.66 11.66 -8.32 12.32 -9 13 C-11.3125 13.484375 -11.3125 13.484375 -14 13.75 C-15.3303125 13.89695312 -15.3303125 13.89695312 -16.6875 14.046875 C-19 14 -19 14 -21 12 C-20.84466998 8.42740945 -20.36958716 6.48428662 -18.1875 3.625 C-16 2 -16 2 -12 2 C-12.30618405 5.67420866 -12.75771784 6.78135513 -15.5625 9.3125 C-16.366875 9.869375 -17.17125 10.42625 -18 11 C-15.70808151 11.03252936 -15.70808151 11.03252936 -13 10 C-11.45688278 8.363792 -11.45688278 8.363792 -10 6.4375 C-7.33187569 3.05050282 -7.33187569 3.05050282 -4.125 2.5625 C-3.42375 2.706875 -2.7225 2.85125 -2 3 C-2.185625 4.11375 -2.37125 5.2275 -2.5625 6.375 C-3.31680657 9.82568861 -3.31680657 9.82568861 -2 12 C-1.34 12 -0.68 12 0 12 C-0.12568359 10.82630859 -0.12568359 10.82630859 -0.25390625 9.62890625 C-0.35574219 8.61699219 -0.45757812 7.60507813 -0.5625 6.5625 C-0.66691406 5.55316406 -0.77132812 4.54382813 -0.87890625 3.50390625 C-0.91886719 2.67761719 -0.95882812 1.85132813 -1 1 C-0.67 0.67 -0.34 0.34 0 0 Z " fill="#B6B5B5" transform="translate(128,7)"/>
<path d="M0 0 C1.27875 0.165 2.5575 0.33 3.875 0.5 C5.875 3.5 5.875 3.5 5.875 8.5 C1.915 8.5 -2.045 8.5 -6.125 8.5 C-5.465 10.48 -4.805 12.46 -4.125 14.5 C-1.485 14.5 1.155 14.5 3.875 14.5 C3.875 15.16 3.875 15.82 3.875 16.5 C-3.42902245 16.85921422 -3.42902245 16.85921422 -6.0625 15.5 C-7.77396464 12.27841951 -8.33506517 9.0991166 -8.125 5.5 C-6.15590684 1.39058819 -4.4317381 0.19373718 0 0 Z " fill="#E2E2E2" transform="translate(85.125,22.5)"/>
<path d="M0 0 C0.66 0 1.32 0 2 0 C2 2.31 2 4.62 2 7 C3.258125 6.938125 4.51625 6.87625 5.8125 6.8125 C9.70829385 6.84003211 9.70829385 6.84003211 11.9375 8.0625 C13.58916681 11.07436301 13.88214109 13.58209158 14 17 C12.86349056 19.37633793 11.85558971 21.14441029 10 23 C6.7 23 3.4 23 0 23 C0 15.41 0 7.82 0 0 Z M2 9 C1.92755947 11.01964199 1.91622812 13.04167124 1.9375 15.0625 C1.94652344 16.16722656 1.95554687 17.27195312 1.96484375 18.41015625 C1.97644531 19.26480469 1.98804688 20.11945312 2 21 C5.41656024 21.16677282 5.41656024 21.16677282 9 21 C11.42522207 18.57477793 11.29629254 17.8279321 11.3125 14.5 C11.32925781 13.7059375 11.34601562 12.911875 11.36328125 12.09375 C11.24339844 11.4028125 11.12351562 10.711875 11 10 C8.36428024 8.24285349 4.72319072 6.27680928 2 9 Z " fill="#D8D7D7" transform="translate(5,16)"/>
<path d="M0 0 C4.62 0 9.24 0 14 0 C10.25 7.5 10.25 7.5 8 9 C4.9375 9.3125 4.9375 9.3125 2 9 C1.34 8.34 0.68 7.68 0 7 C0 4.69 0 2.38 0 0 Z " fill="#2D2A2A" transform="translate(121,24)"/>
<path d="M0 0 C0.66 0 1.32 0 2 0 C2.33 4.29 2.66 8.58 3 13 C5.64 13.33 8.28 13.66 11 14 C11 9.38 11 4.76 11 0 C11.66 0 12.32 0 13 0 C13 5.28 13 10.56 13 16 C4.6015625 16.1953125 4.6015625 16.1953125 2 16 C0 14 0 14 -0.1953125 10.7421875 C-0.17210938 9.46601562 -0.14890625 8.18984375 -0.125 6.875 C-0.10695313 5.59367187 -0.08890625 4.31234375 -0.0703125 2.9921875 C-0.04710938 2.00476563 -0.02390625 1.01734375 0 0 Z " fill="#D6D6D6" transform="translate(23,23)"/>
<path d="M0 0 C8.3984375 -0.1953125 8.3984375 -0.1953125 11 0 C13 2 13 2 13.1953125 5.2578125 C13.16050781 7.17207031 13.16050781 7.17207031 13.125 9.125 C13.10695313 10.40632813 13.08890625 11.68765625 13.0703125 13.0078125 C13.04710938 13.99523438 13.02390625 14.98265625 13 16 C12.34 16 11.68 16 11 16 C10.67 11.71 10.34 7.42 10 3 C7.36 2.67 4.72 2.34 2 2 C2 6.62 2 11.24 2 16 C1.34 16 0.68 16 0 16 C0 10.72 0 5.44 0 0 Z " fill="#D6D5D5" transform="translate(60,23)"/>
<path d="M0 0 C0.99 0.33 1.98 0.66 3 1 C2.33333333 2.33333333 1.66666667 3.66666667 1 5 C1.185625 6.155 1.37125 7.31 1.5625 8.5 C1.706875 9.655 1.85125 10.81 2 12 C1.34 12.66 0.68 13.32 0 14 C-2.625 13.625 -2.625 13.625 -5 13 C-5.33 12.01 -5.66 11.02 -6 10 C-6.66 9.67 -7.32 9.34 -8 9 C-7.34 8.01 -6.68 7.02 -6 6 C-7.32 6.99 -8.64 7.98 -10 9 C-10.66 8.67 -11.32 8.34 -12 8 C-7.69230769 3.07692308 -7.69230769 3.07692308 -4.1875 2.6875 C-3.465625 2.790625 -2.74375 2.89375 -2 3 C-2.2784375 4.670625 -2.2784375 4.670625 -2.5625 6.375 C-3.31680657 9.82568861 -3.31680657 9.82568861 -2 12 C-1.34 12 -0.68 12 0 12 C-0.08378906 11.21753906 -0.16757813 10.43507813 -0.25390625 9.62890625 C-0.35574219 8.61699219 -0.45757812 7.60507813 -0.5625 6.5625 C-0.66691406 5.55316406 -0.77132812 4.54382813 -0.87890625 3.50390625 C-0.91886719 2.67761719 -0.95882812 1.85132813 -1 1 C-0.67 0.67 -0.34 0.34 0 0 Z " fill="#EAEAEA" transform="translate(128,7)"/>
<path d="M0 0 C2.31 0 4.62 0 7 0 C7 0.33 7 0.66 7 1 C5.35 1.33 3.7 1.66 2 2 C2.12177688 3.91466367 2.12177688 3.91466367 3 6 C4.2375 6.7115625 4.2375 6.7115625 5.5 7.4375 C8 9 8 9 8.9375 11.5625 C8.958125 12.366875 8.97875 13.17125 9 14 C7 16 7 16 4.8359375 16.1953125 C4.02382813 16.17210938 3.21171875 16.14890625 2.375 16.125 C1.55773438 16.10695313 0.74046875 16.08890625 -0.1015625 16.0703125 C-0.72804687 16.04710938 -1.35453125 16.02390625 -2 16 C-2 15.34 -2 14.68 -2 14 C0.64 13.67 3.28 13.34 6 13 C4.66667905 9.00003714 2.5042173 8.16217663 -1 6 C-0.67 4.02 -0.34 2.04 0 0 Z " fill="#E8E8E8" transform="translate(41,23)"/>
<path d="M0 0 C0.66 0.33 1.32 0.66 2 1 C1.71382812 1.56203125 1.42765625 2.1240625 1.1328125 2.703125 C-0.01415931 5.02870923 -1.07839794 7.37770201 -2.125 9.75 C-2.65480469 10.94882812 -2.65480469 10.94882812 -3.1953125 12.171875 C-3.46085938 12.77515625 -3.72640625 13.3784375 -4 14 C-6 13 -6 13 -7 12 C-8.98 12.99 -8.98 12.99 -11 14 C-10.38461538 7.47692308 -10.38461538 7.47692308 -8.4375 5.0625 C-7.7259375 4.5365625 -7.7259375 4.5365625 -7 4 C-7.33 5.98 -7.66 7.96 -8 10 C-5.24449528 6.72318357 -2.52719217 3.45826297 0 0 Z " fill="#ECEBEB" transform="translate(142,7)"/>
<path d="M0 0 C1.134375 0.020625 2.26875 0.04125 3.4375 0.0625 C3.4375 0.3925 3.4375 0.7225 3.4375 1.0625 C1.7875 1.3925 0.1375 1.7225 -1.5625 2.0625 C-1.51481597 3.94130872 -1.51481597 3.94130872 -0.5625 6.0625 C2.41513043 8.32575246 2.41513043 8.32575246 5.4375 10.0625 C5.0625 12.5 5.0625 12.5 4.4375 15.0625 C1.22298731 16.66975635 -1.99862536 16.11998185 -5.5625 16.0625 C-5.5625 15.4025 -5.5625 14.7425 -5.5625 14.0625 C-3.2525 14.0625 -0.9425 14.0625 1.4375 14.0625 C1.4375 12.7425 1.4375 11.4225 1.4375 10.0625 C0.4475 9.423125 -0.5425 8.78375 -1.5625 8.125 C-2.5525 7.444375 -3.5425 6.76375 -4.5625 6.0625 C-5 3.375 -5 3.375 -4.5625 1.0625 C-3.5625 0.0625 -3.5625 0.0625 0 0 Z " fill="#E5E5E5" transform="translate(99.5625,22.9375)"/>
<path d="M0 0 C0.66 0 1.32 0 2 0 C1.855625 0.721875 1.71125 1.44375 1.5625 2.1875 C1.7066078 5.02749218 1.7066078 5.02749218 3.55859375 6.4453125 C5.33838828 7.69868893 7.13320095 8.88087302 9 10 C8.625 12.4375 8.625 12.4375 8 15 C4.78548731 16.60725635 1.56387464 16.05748185 -2 16 C-2 15.34 -2 14.68 -2 14 C0.31 14 2.62 14 5 14 C5 12.68 5 11.36 5 10 C4.01 9.360625 3.02 8.72125 2 8.0625 C1.01 7.381875 0.02 6.70125 -1 6 C-1.4375 3.3125 -1.4375 3.3125 -1 1 C-0.67 0.67 -0.34 0.34 0 0 Z " fill="#E2E1E1" transform="translate(109,23)"/>
<path d="M0 0 C0.66 0 1.32 0 2 0 C2 2.31 2 4.62 2 7 C3.258125 6.938125 4.51625 6.87625 5.8125 6.8125 C9.72231986 6.79173989 9.72231986 6.79173989 12 8.5 C12.33 8.995 12.66 9.49 13 10 C12.34 10.66 11.68 11.32 11 12 C10.608125 11.505 10.21625 11.01 9.8125 10.5 C7.75011995 8.46869357 7.75011995 8.46869357 3 9 C2.67 13.29 2.34 17.58 2 22 C1.67 22 1.34 22 1 22 C0.67 14.74 0.34 7.48 0 0 Z " fill="#F3F2F2" transform="translate(5,16)"/>
<path d="M0 0 C1.32 0.66 2.64 1.32 4 2 C4 3.98 4 5.96 4 8 C2.35 8.33 0.7 8.66 -1 9 C-3 6 -3 6 -2.75 3.9375 C-2 2 -2 2 0 0 Z " fill="#989696" transform="translate(145,33)"/>
<path d="M0 0 C2.46278801 2.46278801 2.99771255 4.70676982 4 8 C6.83151973 8.41809201 6.83151973 8.41809201 10 8 C12.3091666 5.69697131 12.3091666 5.69697131 14 3 C14.66 2.34 15.32 1.68 16 1 C16.33 1.66 16.66 2.32 17 3 C12.83844911 9.8368336 12.83844911 9.8368336 9 11 C6.5 11.4375 6.5 11.4375 4 11 C1.00459827 8.24746868 0.05834922 6.77312715 -0.25 2.6875 C-0.1675 1.800625 -0.085 0.91375 0 0 Z " fill="#D9D8D8" transform="translate(119,24)"/>
<path d="M0 0 C0.33 1.65 0.66 3.3 1 5 C-1.97 5 -4.94 5 -8 5 C-7.625 2.5625 -7.625 2.5625 -7 0 C-4.3333581 -1.33332095 -2.83319697 -0.67102033 0 0 Z " fill="#373535" transform="translate(88,25)"/>
<path d="M0 0 C0.33 1.32 0.66 2.64 1 4 C2.98 2.68 4.96 1.36 7 0 C6.67 1.65 6.34 3.3 6 5 C1.71 5 -2.58 5 -7 5 C-7 4.34 -7 3.68 -7 3 C-6.21625 3.061875 -5.4325 3.12375 -4.625 3.1875 C-3.75875 3.125625 -2.8925 3.06375 -2 3 C-1.34 2.01 -0.68 1.02 0 0 Z " fill="#393636" transform="translate(130,17)"/>
<path d="M0 0 C0.99 0 1.98 0 3 0 C3.33 3.3 3.66 6.6 4 10 C2.68 9.67 1.36 9.34 0 9 C0.185625 7.88625 0.37125 6.7725 0.5625 5.625 C1.31680657 2.17431139 1.31680657 2.17431139 0 0 Z " fill="#474545" transform="translate(124,9)"/>
<path d="M0 0 C1.32 0 2.64 0 4 0 C3.65930765 3.15140423 3.41923159 4.60781561 1.0625 6.8125 C-1 8 -1 8 -3 8 C-3 7.34 -3 6.68 -3 6 C-1.68 5.34 -0.36 4.68 1 4 C-0.32 4.33 -1.64 4.66 -3 5 C-1.125 1.125 -1.125 1.125 0 0 Z " fill="#E7E6E6" transform="translate(112,9)"/>
<path d="M0 0 C0.33 0.66 0.66 1.32 1 2 C1.66 2.33 2.32 2.66 3 3 C-0.32307692 7.8 -0.32307692 7.8 -3.75 8.8125 C-4.4925 8.874375 -5.235 8.93625 -6 9 C-6.33 8.34 -6.66 7.68 -7 7 C-6.030625 6.401875 -5.06125 5.80375 -4.0625 5.1875 C-0.76947958 3.28872491 -0.76947958 3.28872491 0 0 Z " fill="#3B3939" transform="translate(116,10)"/>
<path d="M0 0 C0.625 1.875 0.625 1.875 1 4 C-1 6 -1 6 -3.1640625 6.1953125 C-4.38222656 6.16050781 -4.38222656 6.16050781 -5.625 6.125 C-6.44226562 6.10695313 -7.25953125 6.08890625 -8.1015625 6.0703125 C-8.72804687 6.04710937 -9.35453125 6.02390625 -10 6 C-10 5.34 -10 4.68 -10 4 C-6.7 3.67 -3.4 3.34 0 3 C0 2.01 0 1.02 0 0 Z " fill="#C5C4C4" transform="translate(49,33)"/>
<path d="M0 0 C-0.75 2.9375 -0.75 2.9375 -2 6 C-4.125 6.875 -4.125 6.875 -6 7 C-6 5.68 -6 4.36 -6 3 C-2.78571429 0 -2.78571429 0 0 0 Z " fill="#9C9B9B" transform="translate(122,13)"/>
<path d="M0 0 C0.66 0.33 1.32 0.66 2 1 C1.67 3.64 1.34 6.28 1 9 C0.01 8.67 -0.98 8.34 -2 8 C-1.125 1.125 -1.125 1.125 0 0 Z " fill="#C8C8C8" transform="translate(17,27)"/>
<path d="M0 0 C1.31223496 3.93670488 0.24296256 6.12488144 -1 10 C-1.66 10 -2.32 10 -3 10 C-2.25 3.375 -2.25 3.375 0 0 Z " fill="#E3E2E2" transform="translate(134,11)"/>
<path d="M0 0 C0.99 0.33 1.98 0.66 3 1 C2.33333333 2.33333333 1.66666667 3.66666667 1 5 C1.185625 5.66 1.37125 6.32 1.5625 7 C1.706875 7.66 1.85125 8.32 2 9 C1.34 9.66 0.68 10.32 0 11 C-0.19406478 9.35492782 -0.38007935 7.70890406 -0.5625 6.0625 C-0.66691406 5.14597656 -0.77132812 4.22945312 -0.87890625 3.28515625 C-0.91886719 2.53105469 -0.95882812 1.77695313 -1 1 C-0.67 0.67 -0.34 0.34 0 0 Z " fill="#DBDBDB" transform="translate(128,7)"/>
<path d="M0 0 C1.32 0.33 2.64 0.66 4 1 C4 2.32 4 3.64 4 5 C2.68 5 1.36 5 0 5 C0 3.35 0 1.7 0 0 Z " fill="#252222" transform="translate(144,35)"/>
</svg>
