<svg xmlns="http://www.w3.org/2000/svg" width="23.343" height="23.344" viewBox="0 0 23.343 23.344">
  <defs>
    <style>
      .cls-1, .cls-2 {
        fill: #143a72;
      }

      .cls-1 {
        stroke: #143a72;
        stroke-width: 0.3px;
      }
    </style>
  </defs>
  <g id="discount_1_" data-name="discount (1)" transform="translate(0.15 0.15)">
    <path id="Path_17663" data-name="Path 17663" class="cls-1" d="M21.4,8.989a4.122,4.122,0,0,1-1.04-1.126,4.262,4.262,0,0,1-.077-1.607,3.6,3.6,0,0,0-.609-2.881,3.606,3.606,0,0,0-2.881-.609,4.271,4.271,0,0,1-1.607-.078,4.124,4.124,0,0,1-1.127-1.041A3.648,3.648,0,0,0,11.522,0,3.648,3.648,0,0,0,8.989,1.649a4.134,4.134,0,0,1-1.126,1.04,4.262,4.262,0,0,1-1.607.077,3.6,3.6,0,0,0-2.881.609,3.6,3.6,0,0,0-.609,2.881A4.262,4.262,0,0,1,2.69,7.863,4.122,4.122,0,0,1,1.649,8.989,3.646,3.646,0,0,0,0,11.522a3.646,3.646,0,0,0,1.649,2.533,4.122,4.122,0,0,1,1.04,1.126,4.265,4.265,0,0,1,.077,1.608,3.6,3.6,0,0,0,.609,2.881,3.6,3.6,0,0,0,2.881.609,4.271,4.271,0,0,1,1.607.078A4.124,4.124,0,0,1,8.989,21.4a3.644,3.644,0,0,0,2.533,1.649A3.644,3.644,0,0,0,14.054,21.4a4.134,4.134,0,0,1,1.126-1.04,4.262,4.262,0,0,1,1.607-.077,3.6,3.6,0,0,0,2.881-.609,3.6,3.6,0,0,0,.609-2.881,4.265,4.265,0,0,1,.077-1.608,4.122,4.122,0,0,1,1.04-1.126,3.642,3.642,0,0,0,1.649-2.533A3.64,3.64,0,0,0,21.4,8.989Zm-.948,3.982a4.929,4.929,0,0,0-1.423,1.656,5.13,5.13,0,0,0-.184,2.248c.042.7.091,1.494-.19,1.774s-1.074.231-1.774.19a5.138,5.138,0,0,0-2.248.184,4.937,4.937,0,0,0-1.656,1.423c-.5.57-1.014,1.158-1.45,1.158s-.951-.588-1.449-1.157a4.937,4.937,0,0,0-1.656-1.423,3.535,3.535,0,0,0-1.36-.221c-.3,0-.595.019-.892.037-.7.044-1.493.092-1.774-.189S4.16,17.576,4.2,16.877a5.132,5.132,0,0,0-.184-2.248A4.929,4.929,0,0,0,2.6,12.973c-.567-.5-1.155-1.014-1.155-1.45s.588-.951,1.157-1.449A4.929,4.929,0,0,0,4.02,8.417,5.13,5.13,0,0,0,4.2,6.169c-.042-.7-.091-1.5.189-1.777s1.074-.232,1.774-.19a5.113,5.113,0,0,0,2.248-.184A4.937,4.937,0,0,0,10.071,2.6c.5-.568,1.015-1.156,1.451-1.156s.951.588,1.449,1.157A4.937,4.937,0,0,0,14.627,4.02a5.131,5.131,0,0,0,2.248.184c.7-.043,1.493-.092,1.774.189s.232,1.074.189,1.774a5.132,5.132,0,0,0,.184,2.248,4.929,4.929,0,0,0,1.423,1.656c.57.5,1.158,1.014,1.158,1.45S21.017,12.473,20.448,12.971Z"/>
    <path id="Path_17664" data-name="Path 17664" class="cls-2" d="M13.321,11.16a2.16,2.16,0,1,0-2.16,2.16A2.16,2.16,0,0,0,13.321,11.16Zm-2.881,0a.72.72,0,1,1,.72.72A.72.72,0,0,1,10.44,11.16Z" transform="translate(-2.519 -2.519)"/>
    <path id="Path_17665" data-name="Path 17665" class="cls-2" d="M19.16,17a2.16,2.16,0,1,0,2.16,2.16A2.16,2.16,0,0,0,19.16,17Zm0,2.881a.72.72,0,1,1,.72-.72A.72.72,0,0,1,19.16,19.881Z" transform="translate(-4.758 -4.758)"/>
    <path id="Path_17666" data-name="Path 17666" class="cls-2" d="M18.416,10.227a.679.679,0,0,0-1-.017l-7.2,7.2c-.645.645.36,1.679,1.018,1.018l7.2-7.2a.684.684,0,0,0-.017-1Z" transform="translate(-2.8 -2.798)"/>
  </g>
</svg>
