<svg xmlns="http://www.w3.org/2000/svg" width="226" height="140" viewBox="0 0 226 140">
  <g id="Group_22598" data-name="Group 22598" transform="translate(-981 -284)">
    <g id="Group_22327" data-name="Group 22327" transform="translate(-39 172)">
      <rect id="Rectangle_2889" data-name="Rectangle 2889" width="226" height="140" rx="19" transform="translate(1020 112)" fill="#f7f8f9" opacity="0.517"/>
      <rect id="Rectangle_2890" data-name="Rectangle 2890" width="219" height="133" rx="16" transform="translate(1024 116)" fill="#fff"/>
      <path id="Intersection_1" data-name="Intersection 1" d="M16,88.077a16,16,0,0,1-16-16V34.5C28.206,37.442,147.938,46.89,213.961,3.9q3.393-2.21,6.4-3.9V72.076a16,16,0,0,1-16,16Z" transform="translate(1022.643 160.924)" fill="#e6f2fd"/>
      <g id="Group_15429" data-name="Group 15429" transform="translate(1041 149)">
        <text id="_99.51_" data-name="99.65%" transform="translate(0 17)" fill="#143a72" font-size="39.06" font-family="Helvetica-Bold, Helvetica" font-weight="700"><tspan x="0" y="0">99.65%^</tspan></text>
      </g>
      <g id="Group_22197" data-name="Group 22197" transform="translate(1204.041 136.854)">
        <path id="Path_10962" data-name="Path 10962" d="M270.667,396.882l-1.514-.469a6.944,6.944,0,0,1-4.576-4.576l-.469-1.514a.353.353,0,0,0-.674,0l-.469,1.514a6.944,6.944,0,0,1-4.576,4.576l-1.514.469a.353.353,0,0,0,0,.674l1.514.469a6.944,6.944,0,0,1,4.576,4.576l.469,1.514a.353.353,0,0,0,.674,0l.469-1.514a6.944,6.944,0,0,1,4.576-4.576l1.514-.469a.353.353,0,0,0,0-.674Z" transform="translate(-256.624 -390.073)" fill="#ffe059"/>
        <path id="Path_10963" data-name="Path 10963" d="M310.918,429.386a.354.354,0,0,1-.249.338l-1.513.47a6.94,6.94,0,0,0-4.576,4.576l-.47,1.514a.354.354,0,0,1-.676,0l-.47-1.514a6.882,6.882,0,0,0-1.027-2.04,5.092,5.092,0,0,0,4.042-6.217,6.94,6.94,0,0,0,3.175,2.068l1.513.47A.351.351,0,0,1,310.918,429.386Z" transform="translate(-296.627 -422.241)" fill="#ffc751"/>
      </g>
      <g id="Group_22198" data-name="Group 22198" transform="translate(1092 203.658)">
        <text id="Claims_Paid_Percentage" data-name="Death Claim Paid Ratio" transform="translate(-2 14)" fill="#171a21" font-size="12.8" font-family="Helvetica-Bold, Helvetica" font-weight="700"><tspan x="0" y="0">Death Claim Paid Ratio</tspan></text>
        <text id="_2023-2024" data-name="2023-2024" transform="translate(-2 32)" fill="#171a21" font-size="12.8" font-family="Helvetica-Bold, Helvetica" font-weight="700"><tspan x="0" y="0">2023-2024</tspan></text>
      </g>
      <g id="Group_22201" data-name="Group 22201" transform="translate(1220.39 165)">
        <path id="Path_10964" data-name="Path 10964" d="M256.833,84.68l1.271-.394a5.831,5.831,0,0,0,3.842-3.842l.394-1.271a.3.3,0,0,1,.566,0l.394,1.271a5.831,5.831,0,0,0,3.842,3.842l1.271.394a.3.3,0,0,1,0,.566l-1.271.394a5.83,5.83,0,0,0-3.842,3.842l-.394,1.271a.3.3,0,0,1-.566,0l-.394-1.271A5.831,5.831,0,0,0,258.1,85.64l-1.271-.394a.3.3,0,0,1,0-.566Z" transform="translate(-256.624 -78.963)" fill="#dad2ff"/>
        <path id="Path_10965" data-name="Path 10965" d="M301.939,117.815a.3.3,0,0,0,.209.284l1.27.394a5.827,5.827,0,0,1,3.842,3.842l.394,1.272a.3.3,0,0,0,.567,0l.394-1.272a5.781,5.781,0,0,1,.862-1.713,4.276,4.276,0,0,1-3.394-5.22,5.827,5.827,0,0,1-2.666,1.736l-1.27.394A.3.3,0,0,0,301.939,117.815Z" transform="translate(-301.939 -111.816)" fill="#c3b9f9"/>
      </g>
      <line id="Line_70" data-name="Line 70" x2="81.5" transform="translate(1090 222.658)" fill="none" stroke="#fff" stroke-width="1"/>
    </g>
    <g id="trophy" transform="translate(993.454 358)">
      <path id="Path_16935" data-name="Path 16935" d="M15.008,23.878A16.473,16.473,0,0,1,0,7.484V4.491a4.491,4.491,0,0,1,8.981,0,1.5,1.5,0,0,0,1.5,1.5h3.093a1.5,1.5,0,1,1,0,2.994H10.478A4.5,4.5,0,0,1,5.987,4.491a1.5,1.5,0,1,0-2.994,0V7.484A13.49,13.49,0,0,0,15.289,20.9a1.5,1.5,0,0,1-.281,2.982Z" transform="translate(0 0)" fill="#ffbe40"/>
      <path id="Path_16936" data-name="Path 16936" d="M346.195,22.527a1.5,1.5,0,0,1,1.351-1.631,13.4,13.4,0,0,0,12.2-13.412V4.491a1.5,1.5,0,1,0-2.994,0,4.5,4.5,0,0,1-4.491,4.491h-2.994a1.5,1.5,0,1,1,0-2.994h2.994a1.5,1.5,0,0,0,1.5-1.5,4.491,4.491,0,1,1,8.981,0V7.484a16.387,16.387,0,0,1-14.909,16.394,1.5,1.5,0,0,1-1.631-1.351Z" transform="translate(-311.642)" fill="#ff9f40"/>
      <path id="Path_16937" data-name="Path 16937" d="M146.546,0H122.5A1.5,1.5,0,0,0,121,1.5V16.465a13.44,13.44,0,0,0,8.981,12.657V40.615h8.981V29.123a13.531,13.531,0,0,0,9.081-12.657V1.5A1.5,1.5,0,0,0,146.546,0Z" transform="translate(-108.925 0)" fill="#ffdf40"/>
      <path id="Path_16938" data-name="Path 16938" d="M260.491,29.123a13.531,13.531,0,0,0,9.081-12.657V1.5a1.5,1.5,0,0,0-1.5-1.5H256V40.615h4.491Z" transform="translate(-230.454 0)" fill="#ffbe40"/>
      <path id="Path_16939" data-name="Path 16939" d="M194.022,66.161a1.5,1.5,0,0,0-1.209-1.019l-3.52-.512-1.574-3.19a1.557,1.557,0,0,0-2.684,0l-1.574,3.19-3.52.512a1.5,1.5,0,0,0-.83,2.552l2.548,2.484-.6,3.505a1.5,1.5,0,0,0,2.171,1.577l3.148-1.653,3.149,1.653a1.5,1.5,0,0,0,2.171-1.577l-.6-3.505,2.548-2.484a1.5,1.5,0,0,0,.379-1.533Z" transform="translate(-160.831 -54.619)" fill="#ffbe40"/>
      <path id="Path_16940" data-name="Path 16940" d="M260.725,75.147a1.5,1.5,0,0,0,.595-1.463l-.6-3.505,2.548-2.484a1.5,1.5,0,0,0-.83-2.552l-3.52-.512-1.574-3.19A1.461,1.461,0,0,0,256,60.674V73.608l3.149,1.653A1.492,1.492,0,0,0,260.725,75.147Z" transform="translate(-230.455 -54.619)" fill="#ff9f40"/>
      <path id="Path_16941" data-name="Path 16941" d="M146.446,397.987h-1.5V393.5a1.5,1.5,0,0,0-1.5-1.5H125.491a1.5,1.5,0,0,0-1.5,1.5v4.491h-1.5a1.5,1.5,0,0,0-1.5,1.5v2.994a1.5,1.5,0,0,0,1.5,1.5h23.95a1.5,1.5,0,0,0,1.5-1.5v-2.994A1.5,1.5,0,0,0,146.446,397.987Z" transform="translate(-108.925 -352.882)" fill="#4d6699"/>
      <path id="Path_16942" data-name="Path 16942" d="M269.472,402.478v-2.994a1.5,1.5,0,0,0-1.5-1.5h-1.5V393.5a1.5,1.5,0,0,0-1.5-1.5H256v11.975h11.975A1.5,1.5,0,0,0,269.472,402.478Z" transform="translate(-230.454 -352.882)" fill="#404b80"/>
      <path id="Path_16943" data-name="Path 16943" d="M218.484,437H212.5a1.5,1.5,0,1,0,0,2.994h5.987a1.5,1.5,0,1,0,0-2.994Z" transform="translate(-189.944 -393.392)" fill="#404b80"/>
      <path id="Path_16944" data-name="Path 16944" d="M260.491,438.5a1.5,1.5,0,0,0-1.5-1.5H256v2.994h2.994A1.5,1.5,0,0,0,260.491,438.5Z" transform="translate(-230.454 -393.392)" fill="#336"/>
    </g>
  </g>
</svg>
