<svg id="Group_22154" data-name="Group 22154" xmlns="http://www.w3.org/2000/svg" width="28" height="28" viewBox="0 0 28 28">
  <rect id="Rectangle_2877" data-name="Rectangle 2877" width="28" height="28" fill="#fff" opacity="0"/>
  <g id="contact-us" transform="translate(1.215 -9.683)">
    <path id="Path_66162" data-name="Path 66162" d="M26.523,28.862a.573.573,0,1,0-.851-.768,6.392,6.392,0,0,1-9.468,0,.573.573,0,1,0-.851.768,7.548,7.548,0,0,0,11.171,0Z" transform="translate(-9.052 -8.802)" fill="#171a21"/>
    <path id="Path_66163" data-name="Path 66163" d="M21.23,21.368l-.166-.083h-.021a2.214,2.214,0,0,0-.395-.145,1.816,1.816,0,0,0-.747-.021q-.062-.934-.187-1.869a2.617,2.617,0,0,0-2.429-2.2c-1.7-.166-3.447-.249-5.149-.249-1.869,0-3.779.083-5.648.249a2.639,2.639,0,0,0-2.45,2.2,29.674,29.674,0,0,0-.249,4.3c.042,1.142.125,2.263.27,3.384a2.639,2.639,0,0,0,2.45,2.2c1.786.166,3.592.249,5.4.249h.228c.706,0,1.412-.021,2.118-.042A2.71,2.71,0,0,0,16.5,30.566a2.576,2.576,0,0,0,1.038-.208,9.892,9.892,0,0,0,3.052-2.1,9.694,9.694,0,0,0,2.222-3.53A2.661,2.661,0,0,0,21.23,21.368Zm-7.309,5.855a1.531,1.531,0,0,0-.166,1c-.54.021-1.08.042-1.62.042a54.615,54.615,0,0,1-5.523-.249A1.493,1.493,0,0,1,5.2,26.787a24.579,24.579,0,0,1-.228-3.26A24.824,24.824,0,0,1,5.2,19.416a1.475,1.475,0,0,1,1.412-1.2,54.342,54.342,0,0,1,5.523-.249c1.682,0,3.385.083,5.046.249a1.475,1.475,0,0,1,1.412,1.2,24.368,24.368,0,0,1,.208,2.45v.021a1.678,1.678,0,0,0-.228.561l-.187.81a1.1,1.1,0,0,0,0,.519,1.227,1.227,0,0,0,.353.581l.062.062a7.852,7.852,0,0,1-1.869,2.035,1.109,1.109,0,0,0-.664-.395,1.28,1.28,0,0,0-.561.021l-.768.228A1.984,1.984,0,0,0,13.921,27.223Zm7.807-2.886a8.419,8.419,0,0,1-1.952,3.115,8.807,8.807,0,0,1-2.7,1.848h0a1.518,1.518,0,0,1-1.931-.706l-.125-.228a.768.768,0,0,1-.1-.228.484.484,0,0,1,.042-.415.6.6,0,0,1,.353-.291l.747-.249a1.857,1.857,0,0,0,.457.436c.228.1.727.374,2.263-1.287s1.246-2.159,1.1-2.367a1.852,1.852,0,0,0-.395-.436l.187-.81a.554.554,0,0,1,.145-.291.526.526,0,0,1,.561-.166.7.7,0,0,1,.166.062c.021.021.062.021.083.042l.208.083A1.48,1.48,0,0,1,21.728,24.337Z" fill="#171a21"/>
  </g>
</svg>
