<svg xmlns="http://www.w3.org/2000/svg" width="48" height="36.656" viewBox="0 0 48 36.656">
    <g data-name="Group 21397">
        <ellipse data-name="Ellipse 161" cx="5.018" cy="5.269" rx="5.018" ry="5.269" transform="translate(29.764 8.791)" style="fill:#cef5e1"/>
        <g data-name="Group 15374">
            <g data-name="Group 15114">
                <path data-name="Path 10730" d="M45.093 139.254a7.041 7.041 0 0 0-5.744-6.884 7.031 7.031 0 0 0-13.8-.12h-5.77a7.032 7.032 0 1 0-11.173.089A9.89 9.89 0 0 0 0 142.094v14.156a1.406 1.406 0 0 0 1.406 1.406h45.188A1.406 1.406 0 0 0 48 156.25v-11.344a6.985 6.985 0 0 0-2.907-5.652zm-5.807-4.01a4.238 4.238 0 0 1 2.755 2.631h-3.982a7 7 0 0 0 1.227-2.631zm-6.848-5.807a4.219 4.219 0 1 1-4.219 4.219 4.224 4.224 0 0 1 4.219-4.218zm-18.281-5.625a4.219 4.219 0 1 1-4.219 4.219 4.224 4.224 0 0 1 4.218-4.218zm2.813 21.094v9.937H8.531v-9.937a1.406 1.406 0 0 0-2.812 0v9.937H2.813v-12.75a7.087 7.087 0 0 1 7.125-7.031h15.61a7 7 0 0 0 1.269 2.812H24a7.039 7.039 0 0 0-7.031 7.032zm28.219 9.937h-2.908v-9.937a1.406 1.406 0 0 0-2.812 0v9.937H25.406v-9.937a1.406 1.406 0 1 0-2.812 0v9.937h-2.813v-9.937A4.224 4.224 0 0 1 24 140.688h16.875a4.323 4.323 0 0 1 4.313 4.219z" transform="translate(0 -121)" style="fill:#143a72"/>
            </g>
        </g>
    </g>
</svg>
