<svg xmlns="http://www.w3.org/2000/svg" width="20" height="20" viewBox="0 0 20 20">
  <g id="discount" transform="translate(-10.59 0.005)">
    <path id="Path_66080" data-name="Path 66080" d="M30.51,6.905a1.576,1.576,0,0,0-.856-.925l-2.013-.9L27.373,2.97a1.537,1.537,0,0,0-.653-1.064,1.669,1.669,0,0,0-1.257-.268l-2.179.407L21.771.488h0a1.662,1.662,0,0,0-2.363,0L17.9,2.046l-2.179-.407a1.669,1.669,0,0,0-1.258.267A1.537,1.537,0,0,0,13.8,2.97l-.269,2.112-2.013.9a1.571,1.571,0,0,0-.854.925,1.491,1.491,0,0,0,.124,1.229L11.87,10l-1.077,1.861a1.491,1.491,0,0,0-.124,1.229,1.571,1.571,0,0,0,.854.925l2.013.9.269,2.112a1.537,1.537,0,0,0,.654,1.064,1.669,1.669,0,0,0,1.258.267l2.179-.407L19.408,19.5a1.662,1.662,0,0,0,2.363,0l1.513-1.557,2.179.407a1.669,1.669,0,0,0,1.258-.267,1.537,1.537,0,0,0,.654-1.064l.269-2.112,2.013-.9a1.571,1.571,0,0,0,.854-.925,1.491,1.491,0,0,0-.124-1.229L29.31,10l1.078-1.861a1.5,1.5,0,0,0,.123-1.229Zm-1.05.736L28.238,9.749a.489.489,0,0,0,0,.493l1.222,2.107a.512.512,0,0,1,.043.424.54.54,0,0,1-.294.319L26.93,14.107a.51.51,0,0,0-.3.4l-.3,2.393a.528.528,0,0,1-.225.366.574.574,0,0,1-.432.092L23.2,16.894a.544.544,0,0,0-.489.152L21,18.81a.571.571,0,0,1-.812,0l-1.714-1.764a.544.544,0,0,0-.489-.152l-2.468.461a.574.574,0,0,1-.432-.092.528.528,0,0,1-.225-.366l-.3-2.393a.51.51,0,0,0-.3-.4l-2.279-1.016a.54.54,0,0,1-.294-.319.512.512,0,0,1,.043-.424l1.222-2.107a.489.489,0,0,0,0-.493L11.72,7.641a.512.512,0,0,1-.043-.424.54.54,0,0,1,.294-.319L14.25,5.883a.51.51,0,0,0,.3-.4l.3-2.393a.528.528,0,0,1,.225-.366.574.574,0,0,1,.432-.092l2.468.462a.544.544,0,0,0,.489-.152l1.711-1.764a.571.571,0,0,1,.812,0h0l1.714,1.764A.544.544,0,0,0,23.2,3.1l2.468-.461a.574.574,0,0,1,.433.091.528.528,0,0,1,.225.366l.3,2.393a.51.51,0,0,0,.3.4L29.209,6.9a.54.54,0,0,1,.294.319.512.512,0,0,1-.043.424Z" transform="translate(0 0)" fill="#171a21"/>
    <path id="Path_66081" data-name="Path 66081" d="M158.414,158.167a.424.424,0,0,0-.594.079l-3.792,4.957a.424.424,0,1,0,.673.515l3.792-4.957A.424.424,0,0,0,158.414,158.167Zm-.2,2.9a1.41,1.41,0,0,0-1.409,1.409v.3a1.409,1.409,0,0,0,2.818,0v-.3A1.41,1.41,0,0,0,158.213,161.066Zm.561,1.709a.561.561,0,0,1-1.123,0v-.3a.561.561,0,0,1,1.123,0Zm-3.056-3.286v-.3a1.409,1.409,0,0,0-2.818,0v.3a1.409,1.409,0,0,0,2.818,0Zm-1.97,0v-.3a.561.561,0,1,1,1.123,0v.3a.561.561,0,0,1-1.123,0Z" transform="translate(-135.671 -150.986)" fill="#171a21"/>
  </g>
</svg>
