<svg xmlns="http://www.w3.org/2000/svg" width="66" height="77" viewBox="0 0 66 77">
    <defs>
        <linearGradient id="linear-gradient" x1=".5" x2=".5" y2="1" gradientUnits="objectBoundingBox">
            <stop offset="0" stop-color="#62baf8"/>
            <stop offset="1" stop-color="#497af8"/>
        </linearGradient>
        <style>
            .cls-2{fill:url(#linear-gradient)}
        </style>
    </defs>
    <g id="Group_22425" data-name="Group 22425" transform="translate(-32 -32)">
        <g id="investment_1_" data-name="investment (1)" transform="translate(32 42.656)">
            <path id="Path_17083" data-name="Path 17083" class="cls-2" d="M60.2 10.57H48.984V4.512A4.517 4.517 0 0 0 44.473 0H21.527a4.517 4.517 0 0 0-4.512 4.512v6.058H5.8a5.807 5.807 0 0 0-5.8 5.8v33.517a5.807 5.807 0 0 0 5.8 5.8h54.4a5.807 5.807 0 0 0 5.8-5.8V16.371a5.807 5.807 0 0 0-5.8-5.801zm1.934 5.8v4.284a8.4 8.4 0 0 1-6.218-6.218H60.2a1.936 1.936 0 0 1 1.933 1.935zM20.883 4.512a.645.645 0 0 1 .645-.645h22.945a.645.645 0 0 1 .645.645v6.058H20.883zM5.8 14.438h4.284a8.4 8.4 0 0 1-6.218 6.218v-4.285A1.936 1.936 0 0 1 5.8 14.438zM3.867 49.887V45.6a8.4 8.4 0 0 1 6.218 6.218H5.8a1.936 1.936 0 0 1-1.933-1.931zm10.16 1.934a12.276 12.276 0 0 0-10.16-10.16V24.6a12.276 12.276 0 0 0 10.16-10.16h37.946a12.276 12.276 0 0 0 10.16 10.16v17.061a12.276 12.276 0 0 0-10.16 10.16zm46.172 0h-4.284a8.4 8.4 0 0 1 6.218-6.221v4.284A1.936 1.936 0 0 1 60.2 51.82zm0 0"/>
        </g>
        <g id="rupee" transform="translate(57.305 66.618)">
            <g id="Group_15271" data-name="Group 15271">
                <g id="Group_15270" data-name="Group 15270">
                    <path id="Path_10795" data-name="Path 10795" class="cls-2" d="M181 157.059h-2.1a6.58 6.58 0 0 0-.884-2.052H181a1.579 1.579 0 1 0 .016-3.157h-12.237a1.579 1.579 0 0 0 0 3.157h3.5a3.583 3.583 0 0 1 3.315 2.052h-6.82a1.579 1.579 0 0 0 0 3.157h6.82a4.936 4.936 0 0 1-.71.994 3.708 3.708 0 0 1-2.589 1.058h-3.5a1.6 1.6 0 0 0-1.579 1.626 1.629 1.629 0 0 0 .489 1.136l8.745 8.287a1.574 1.574 0 0 0 2.21-2.242l-.047-.047-5.888-5.572a6.743 6.743 0 0 0 4.373-1.989 6.672 6.672 0 0 0 1.815-3.252H181a1.579 1.579 0 0 0 0-3.157z" transform="translate(-167.2 -151.85)"/>
                </g>
            </g>
        </g>
    </g>
</svg>
