<?xml version="1.0" encoding="UTF-8"?>
<svg version="1.1" xmlns="http://www.w3.org/2000/svg" width="663" height="307">
<path d="M0 0 C13.2 0 26.4 0 40 0 C40 70.29 40 140.58 40 213 C28.12 213 16.24 213 4 213 C3.67 208.38 3.34 203.76 3 199 C1.453125 200.7634375 1.453125 200.7634375 -0.125 202.5625 C-11.11061916 213.47075565 -26.35638666 217.19983596 -41.4375 217.375 C-60.36693055 217.13466004 -76.9903567 211.29189498 -90.3828125 197.78125 C-107.1786083 179.93258342 -112.04173479 160.19934352 -111.375 136.2265625 C-110.45748275 117.17087603 -102.53504324 99.47470872 -89 86 C-71.86447389 71.15424317 -53.044957 67.52720562 -31 69 C-18.7313388 70.56389061 -10.33365565 74.99972373 -1 83 C-0.67 55.61 -0.34 28.22 0 0 Z M-56 111 C-57.3303125 111.86625 -57.3303125 111.86625 -58.6875 112.75 C-66.69569274 120.5417551 -71.04839712 130.92394111 -71.25 142.0625 C-71.09702102 153.42883858 -67.95781697 162.66510601 -60.1484375 170.96875 C-51.9842243 178.64506201 -42.95131269 181.35924581 -31.90234375 181.2109375 C-21.95730223 180.48814848 -13.48996589 175.97868556 -6.6875 168.75 C1.10870211 159.00474736 1.67554168 146.93866382 1 135 C-0.83328715 124.20237172 -6.89178337 115.13904851 -15.734375 108.74609375 C-28.60321689 101.29426437 -44.03021021 103.08488545 -56 111 Z " fill="#000000" transform="translate(123,23)"/>
<path d="M0 0 C15.81359101 12.52050744 25.52703857 28.36869119 29.109375 48.234375 C31.20215335 70.14175685 26.11690158 88.84252588 12.39453125 105.94921875 C-0.30751565 120.85632261 -17.60566029 130.53460241 -37.078125 133.171875 C-38.57639324 133.28204178 -40.07698103 133.36261932 -41.578125 133.421875 C-42.58875 133.4734375 -43.599375 133.525 -44.640625 133.578125 C-67.22449242 134.19404866 -86.63516979 127.21899252 -103.29321289 111.75366211 C-117.06003385 98.45665226 -124.53968254 81.79311519 -124.87084961 62.76660156 C-125.00567683 40.38861177 -119.63002573 22.83348219 -103.578125 6.421875 C-75.55026074 -19.47961107 -30.9529497 -23.12023879 0 0 Z M-78.20703125 36.36328125 C-83.75961884 44.30265276 -85.66275946 54.89789297 -84.578125 64.421875 C-83.26577367 71.67541375 -80.89214502 77.46961954 -76.578125 83.421875 C-75.7428125 84.72125 -75.7428125 84.72125 -74.890625 86.046875 C-68.45164161 92.65988496 -59.82205815 96.58810512 -50.61450195 96.8527832 C-40.66659531 96.88312246 -32.41863746 95.23319139 -24.203125 89.171875 C-15.30256487 79.84747867 -11.15839567 69.59634344 -11.30078125 56.75 C-12.07521907 47.45674618 -15.14204371 39.20141306 -21.578125 32.421875 C-22.45791016 31.48214844 -22.45791016 31.48214844 -23.35546875 30.5234375 C-30.49388817 23.603988 -38.24448079 21.23136025 -48.078125 20.921875 C-61.30625023 21.36415274 -69.73876115 26.27040298 -78.20703125 36.36328125 Z " fill="#000000" transform="translate(622.578125,106.578125)"/>
<path d="M0 0 C12.87 0 25.74 0 39 0 C39 11.88 39 23.76 39 36 C52.53 36 66.06 36 80 36 C80 46.89 80 57.78 80 69 C66.47 69 52.94 69 39 69 C39.08880173 76.27005744 39.17944506 83.53970367 39.28729248 90.80944061 C39.3370145 94.19559308 39.38350185 97.58171588 39.421875 100.96801758 C39.46775701 104.86297047 39.52571394 108.75758937 39.5859375 112.65234375 C39.59748871 113.8526976 39.60903992 115.05305145 39.62094116 116.28977966 C39.75803714 124.15897047 39.96859507 132.99808618 44 140 C46.26601865 141.29042763 46.26601865 141.29042763 49 142 C49.845625 142.350625 50.69125 142.70125 51.5625 143.0625 C62.22582708 145.97068011 73.12537789 144.78928709 84 144 C84 155.22 84 166.44 84 178 C61.04881977 182.74852005 38.67994554 183.50718929 18 171 C8.27472098 164.57436922 3.32746467 154.65953871 0.6335907 143.57987976 C-0.55730731 136.85113249 -0.36511608 130.10446041 -0.29296875 123.296875 C-0.2873592 121.72219247 -0.28309555 120.14750463 -0.28010559 118.57281494 C-0.26876355 114.46943175 -0.23939096 110.36637758 -0.20599365 106.26312256 C-0.17506044 102.05957487 -0.16155106 97.85597295 -0.14648438 93.65234375 C-0.11450854 85.43472953 -0.06183059 77.21744386 0 69 C-7.59 69 -15.18 69 -23 69 C-23 58.11 -23 47.22 -23 36 C-15.41 36 -7.82 36 0 36 C0 24.12 0 12.24 0 0 Z " fill="#000000" transform="translate(397,59)"/>
<path d="M0 0 C12.87 0 25.74 0 39 0 C39 11.88 39 23.76 39 36 C52.53 36 66.06 36 80 36 C80 46.89 80 57.78 80 69 C66.47 69 52.94 69 39 69 C39.08880173 76.27005744 39.17944506 83.53970367 39.28729248 90.80944061 C39.3370145 94.19559308 39.38350185 97.58171588 39.421875 100.96801758 C39.46775701 104.86297047 39.52571394 108.75758937 39.5859375 112.65234375 C39.59748871 113.8526976 39.60903992 115.05305145 39.62094116 116.28977966 C39.75803714 124.15897047 39.96859507 132.99808618 44 140 C46.26601865 141.29042763 46.26601865 141.29042763 49 142 C49.845625 142.350625 50.69125 142.70125 51.5625 143.0625 C62.22582708 145.97068011 73.12537789 144.78928709 84 144 C84 155.22 84 166.44 84 178 C61.04881977 182.74852005 38.67994554 183.50718929 18 171 C8.27472098 164.57436922 3.32746467 154.65953871 0.6335907 143.57987976 C-0.55730731 136.85113249 -0.36511608 130.10446041 -0.29296875 123.296875 C-0.2873592 121.72219247 -0.28309555 120.14750463 -0.28010559 118.57281494 C-0.26876355 114.46943175 -0.23939096 110.36637758 -0.20599365 106.26312256 C-0.17506044 102.05957487 -0.16155106 97.85597295 -0.14648438 93.65234375 C-0.11450854 85.43472953 -0.06183059 77.21744386 0 69 C-7.59 69 -15.18 69 -23 69 C-23 58.11 -23 47.22 -23 36 C-15.41 36 -7.82 36 0 36 C0 24.12 0 12.24 0 0 Z " fill="#000000" transform="translate(286,59)"/>
<path d="M0 0 C13.2 0 26.4 0 40 0 C40 46.53 40 93.06 40 141 C26.8 141 13.6 141 0 141 C0 94.47 0 47.94 0 0 Z " fill="#000000" transform="translate(201,95)"/>
<path d="M0 0 C5.54937228 3.99112463 9.21308845 8.96562266 11.15625 15.55078125 C12.16044829 24.4150007 10.99678637 31.29091623 5.71875 38.51953125 C0.38012164 44.57682112 -6.58230526 47.03646895 -14.46875 47.98828125 C-23.01486732 46.88045123 -29.00757069 43.99434573 -34.84375 37.55078125 C-39.7993955 30.56131592 -40.73341838 23.9463875 -39.84375 15.55078125 C-37.19316923 7.02851033 -32.17901602 2.15194086 -24.71875 -2.32421875 C-16.50932901 -5.3866095 -7.46976799 -4.30481759 0 0 Z " fill="#1EC6FB" transform="translate(234.84375,22.44921875)"/>
</svg>
