<?xml version="1.0" encoding="UTF-8"?>
<svg version="1.1" xmlns="http://www.w3.org/2000/svg" width="360" height="480">
<path d="M0 0 C0 35.97 0 71.94 0 109 C-5.94 109.99 -11.88 110.98 -18 112 C-31.19002965 116.35742051 -41.08728801 122.28856135 -51 132 C-51.62777344 132.59167969 -52.25554687 133.18335938 -52.90234375 133.79296875 C-64.9843041 146.20368992 -68.47207881 163.56851226 -71 180 C-106.97 180 -142.94 180 -180 180 C-180 129.51061122 -160.9542362 85.95496969 -126.125 49.8125 C-99.56391769 23.92921246 -64.94554291 7.46552143 -28.5625 1.1875 C-27.88493652 1.06334717 -27.20737305 0.93919434 -26.50927734 0.8112793 C-17.61720501 -0.56950892 -9.1857736 0 0 0 Z " fill="#00B751" transform="translate(180,0)"/>
<path d="M0 0 C9.9 0 19.8 0 30 0 C31.39943186 44.7818195 14.60947859 88.34470249 -15.625 121.375 C-17.40873366 123.25754845 -19.19998143 125.13301645 -21 127 C-22.1446875 128.23943359 -22.1446875 128.23943359 -23.3125 129.50390625 C-52.50634939 160.22648762 -97.76523205 179.8332937 -140 181 C-143.3 181 -146.6 181 -150 181 C-150 170.77 -150 160.54 -150 150 C-146.65875 149.773125 -143.3175 149.54625 -139.875 149.3125 C-109.85516466 146.85291421 -81.70685269 136.81496246 -58 118 C-57.48872559 117.59555664 -56.97745117 117.19111328 -56.45068359 116.77441406 C-25.06308891 91.72841386 -6.37504026 56.27709519 -1.69555664 16.52563477 C-1.09559367 11.02076907 -0.55373943 5.5097073 0 0 Z " fill="#00B751" transform="translate(330,179)"/>
<path d="M0 0 C7.92 0 15.84 0 24 0 C25.19910588 34.77407054 11.94336632 66.33248539 -11.4375 91.78515625 C-34.31473824 115.97845067 -64.04264467 129.58199435 -97 133 C-100.63 133 -104.26 133 -108 133 C-108 124.75 -108 116.5 -108 108 C-105.07125 107.773125 -102.1425 107.54625 -99.125 107.3125 C-73.78404003 104.93145625 -51.41657692 94.64665314 -33 77 C-32.31164062 76.37480469 -31.62328125 75.74960938 -30.9140625 75.10546875 C-9.55640482 55.05628417 -3.17813824 27.93416246 0 0 Z " fill="#00B751" transform="translate(288,179)"/>
<path d="M0 0 C4.24249004 1.41416335 5.8816629 4.55028536 8.375 8.0625 C8.86524658 8.7440918 9.35549316 9.42568359 9.8605957 10.12792969 C19 22.91547318 19 22.91547318 19 27 C18.42894531 27.32049316 17.85789062 27.64098633 17.26953125 27.97119141 C5.23679572 34.73123579 -6.74235768 41.57245494 -18.65112305 48.54858398 C-26.50958735 53.14583311 -34.40343123 57.67813677 -42.3125 62.1875 C-53.23398449 68.41445757 -64.13090263 74.68200251 -75 81 C-77.09644651 78.93111922 -78.98747059 76.86386297 -80.75 74.5 C-81.19859375 73.9121875 -81.6471875 73.324375 -82.109375 72.71875 C-82.55023438 71.86796875 -82.55023438 71.86796875 -83 71 C-81.76145489 67.28436466 -80.30982822 66.40541409 -77.25 64 C-76.25484375 63.2059375 -75.2596875 62.411875 -74.234375 61.59375 C-73.70521484 61.17222656 -73.17605469 60.75070313 -72.63085938 60.31640625 C-69.87810396 58.09442164 -67.19166338 55.79527593 -64.5 53.5 C-60.55409085 50.14484784 -56.58355733 46.82776388 -52.5625 43.5625 C-48.31607618 40.10725849 -44.14703706 36.57302166 -40 33 C-34.98957474 28.6830967 -29.92101113 24.45283819 -24.78515625 20.28515625 C-22.18712439 18.15353123 -19.62038111 15.99082889 -17.06225586 13.81176758 C-14.38357883 11.53076421 -11.69337354 9.26361691 -9 7 C-7.65421875 5.86691406 -7.65421875 5.86691406 -6.28125 4.7109375 C-5.4871875 4.06382813 -4.693125 3.41671875 -3.875 2.75 C-3.19179688 2.18796875 -2.50859375 1.6259375 -1.8046875 1.046875 C-1.20914063 0.70140625 -0.61359375 0.3559375 0 0 Z " fill="#00B751" transform="translate(317,64)"/>
<path d="M0 0 C6.27 0 12.54 0 19 0 C19.99838702 23.96128857 11.15518005 44.81601783 -4.40625 62.77734375 C-19.50555756 78.68554279 -40.14957229 88.87098397 -62 91 C-64.97 91 -67.94 91 -71 91 C-71 84.4 -71 77.8 -71 71 C-66.6996875 70.4121875 -66.6996875 70.4121875 -62.3125 69.8125 C-43.1573982 66.90822856 -25.96368645 58.09943978 -14.25 42.25 C-5.59841873 29.08898605 -2.15092673 15.38739888 0 0 Z " fill="#00B751" transform="translate(251,179)"/>
<path d="M0 0 C4.12335233 0.63122925 7.27281027 2.88149459 10.6875 5.125 C11.30383301 5.52517334 11.92016602 5.92534668 12.55517578 6.33764648 C17.57588629 9.63564126 22.36006105 13.18248409 27 17 C25.48133302 20.39743025 23.49720998 23.01618284 21.125 25.875 C20.32320313 26.84179688 19.52140625 27.80859375 18.6953125 28.8046875 C15.31048391 32.83280942 11.87810544 36.82017194 8.44384766 40.80615234 C5.41171709 44.33128095 2.4308007 47.88959334 -0.5 51.5 C-4.4337857 56.34596789 -8.48447759 61.08098528 -12.55859375 65.80859375 C-15.58958284 69.33317903 -18.56992581 72.89048832 -21.5 76.5 C-25.49932147 81.42617151 -29.60917117 86.24927593 -33.75195312 91.0546875 C-36.87134809 94.67368947 -39.95057892 98.32177494 -43 102 C-48.445 98.535 -48.445 98.535 -54 95 C-52.60210955 91.50527389 -51.28283805 88.55006512 -49.453125 85.32421875 C-48.94539551 84.42662842 -48.43766602 83.52903809 -47.91455078 82.60424805 C-47.36524902 81.64172119 -46.81594727 80.67919434 -46.25 79.6875 C-45.67362793 78.67276611 -45.09725586 77.65803223 -44.50341797 76.61254883 C-39.85276682 68.44596522 -35.13061972 60.32181956 -30.3828125 52.21142578 C-25.97377414 44.67972501 -21.60439157 37.12591155 -17.25 29.5625 C-11.55580872 19.67498607 -5.81193077 9.81874422 0 0 Z " fill="#00B751" transform="translate(269,24)"/>
<path d="M0 0 C0.78161356 2.35101944 1.55005426 4.70525371 2.3125 7.0625 C2.52583984 7.69994141 2.73917969 8.33738281 2.95898438 8.99414062 C4.52125802 13.86750169 5.60739833 18.7910693 6.58666992 23.81030273 C6.7919141 24.8498473 6.7919141 24.8498473 7.00130463 25.91039276 C7.33593856 27.60658705 7.66820978 29.30324717 8 31 C-13.92603022 35.17143204 -35.88162585 39.1523669 -57.86547852 43.00683594 C-62.06632467 43.74346634 -66.26643478 44.48421147 -70.46638966 45.22590446 C-73.74392178 45.80415872 -77.02186321 46.38006438 -80.29993248 46.95526505 C-81.85222967 47.22798807 -83.40438788 47.50150343 -84.95639992 47.77584457 C-87.09526953 48.15362192 -89.23468051 48.52816613 -91.37426758 48.90185547 C-92.58568924 49.11470184 -93.7971109 49.32754822 -95.04524231 49.54684448 C-98 50 -98 50 -101 50 C-101.99 45.71 -102.98 41.42 -104 37 C-86.9096366 30.53882807 -69.75968191 24.25509794 -52.57293701 18.05523682 C-48.17388035 16.4681245 -43.77547493 14.87921006 -39.37722778 13.28985596 C-36.95257309 12.41379275 -34.52767221 11.53841056 -32.10250854 10.66375732 C-26.75359268 8.7320526 -21.41042345 6.78818867 -16.08447266 4.79394531 C-15.19798538 4.4627066 -14.31149811 4.1314679 -13.39814758 3.79019165 C-11.78319158 3.18472956 -10.16977134 2.57514746 -8.55827332 1.96054077 C-5.5625673 0.83724006 -3.2282303 0 0 0 Z " fill="#00B751" transform="translate(350,118)"/>
<path d="M0 0 C10.64690342 1.88156483 20.747261 4.59140215 31 8 C28.69320817 16.109578 25.92073585 24.02809386 23.0625 31.95703125 C22.57731961 33.308106 22.09229724 34.6592375 21.60742188 36.01042175 C20.59040721 38.8426058 19.57152087 41.67410732 18.55126953 44.50512695 C17.27845791 48.03738639 16.0102078 51.57126183 14.74333191 55.10565376 C8.0336198 73.81681518 1.12067026 92.44124922 -6 111 C-10.56727672 110.39718464 -14.66644435 109.58544719 -19 108 C-18.41485068 101.29386217 -17.52847733 94.70869417 -16.34179688 88.08398438 C-16.17744644 87.14939392 -16.01309601 86.21480347 -15.84376526 85.25189209 C-15.30579238 82.19851131 -14.76244955 79.14611583 -14.21875 76.09375 C-13.84119459 73.96053168 -13.46387901 71.8272709 -13.08679199 69.69396973 C-12.29902203 65.24216645 -11.50863094 60.79083899 -10.71630859 56.33984375 C-9.69941861 50.62628963 -8.68871834 44.91166116 -7.67989349 39.19667816 C-6.90327401 34.80065093 -6.12363014 30.40516439 -5.34303284 26.00984192 C-4.96895087 23.90159331 -4.59576956 21.79318469 -4.22349548 19.68461609 C-3.70477856 16.74947891 -3.18205262 13.81508423 -2.65820312 10.88085938 C-2.50440689 10.00608948 -2.35061066 9.13131958 -2.19215393 8.2300415 C-1.1143114 2.2286228 -1.1143114 2.2286228 0 0 Z " fill="#00B751" transform="translate(211,2)"/>
<path d="M0 0 C3.96 0 7.92 0 12 0 C18.2984985 12.45633575 24.4242943 24.78413493 29 38 C29.47308594 36.84886719 29.94617188 35.69773437 30.43359375 34.51171875 C35.27284657 22.83046509 40.4941752 11.38125359 46 0 C50.29 0 54.58 0 59 0 C59 19.8 59 39.6 59 60 C55.37 60 51.74 60 48 60 C48 46.8 48 33.6 48 20 C45.25764606 26.50336113 45.25764606 26.50336113 42.52661133 33.01147461 C40.02076298 38.90573784 37.20306888 44.45294466 34 50 C30.7 50 27.4 50 24 50 C22.78325283 47.6498868 21.57681528 45.29524308 20.375 42.9375 C20.04371094 42.30005859 19.71242187 41.66261719 19.37109375 41.00585938 C15.71696148 33.80101367 13.04462208 26.6115552 10 19 C10 32.53 10 46.06 10 60 C6.7 60 3.4 60 0 60 C0 40.2 0 20.4 0 0 Z " fill="#000100" transform="translate(117,406)"/>
<path d="M0 0 C13.86 0 27.72 0 42 0 C41.01 1.65 40.02 3.3 39 5 C38.56196045 5.75506836 38.1239209 6.51013672 37.67260742 7.28808594 C36 9 36 9 33.36450195 9.45410156 C31.81702271 9.42268066 31.81702271 9.42268066 30.23828125 9.390625 C29.12001953 9.37773437 28.00175781 9.36484375 26.84960938 9.3515625 C25.68236328 9.31804687 24.51511719 9.28453125 23.3125 9.25 C22.13365234 9.23195313 20.95480469 9.21390625 19.74023438 9.1953125 C16.82647764 9.14812616 13.91313759 9.07638234 11 9 C11 13.95 11 18.9 11 24 C19.58 24 28.16 24 37 24 C37 27.3 37 30.6 37 34 C28.42 34 19.84 34 11 34 C11 39.28 11 44.56 11 50 C20.57 50 30.14 50 40 50 C40 53.3 40 56.6 40 60 C26.8 60 13.6 60 0 60 C0 40.2 0 20.4 0 0 Z " fill="#000000" transform="translate(3,406)"/>
<path d="M0 0 C3.63 0 7.26 0 11 0 C11.23187012 0.72590332 11.46374023 1.45180664 11.70263672 2.19970703 C12.75970484 5.50826159 13.81734707 8.81663235 14.875 12.125 C15.23980469 13.26710938 15.60460937 14.40921875 15.98046875 15.5859375 C16.33496094 16.69453125 16.68945312 17.803125 17.0546875 18.9453125 C17.37937012 19.96125488 17.70405273 20.97719727 18.03857422 22.02392578 C19.00711476 25.02202359 20.00367369 28.01102106 21 31 C23.97 20.77 26.94 10.54 30 0 C33.96 0 37.92 0 42 0 C40.24738173 5.62159129 38.48723092 11.24075102 36.72045898 16.85791016 C36.12209559 18.76385605 35.52569357 20.67041898 34.93139648 22.57763672 C25.90066975 51.54583836 25.90066975 51.54583836 21.4375 56.25 C16.31028055 58.86022081 11.63828201 58.84072878 6 58 C2.75494868 56.79609207 0.73103792 55.17778332 -1.125 52.1875 C-0.9170801 48.54890181 1.06718573 46.04564672 3 43 C3.43570312 43.3609375 3.87140625 43.721875 4.3203125 44.09375 C8.31407151 47.20577001 10.73840541 48.64165788 16 48 C16.66 46.02 17.32 44.04 18 42 C16.86558472 42.00942627 16.86558472 42.00942627 15.70825195 42.01904297 C13 41 13 41 11.23901367 37.44580078 C10.69359394 35.86966003 10.17139344 34.28536468 9.66796875 32.6953125 C9.3864949 31.86039276 9.10502106 31.02547302 8.8150177 30.16525269 C7.91951744 27.49125249 7.05392587 24.80854346 6.1875 22.125 C5.58579702 20.32361227 4.98230261 18.52282186 4.37695312 16.72265625 C3.8057163 15.00573167 3.23600324 13.28829921 2.66796875 11.5703125 C2.26495796 10.35143845 2.26495796 10.35143845 1.85380554 9.10794067 C0.8429985 5.97225599 0 3.31624338 0 0 Z " fill="#000301" transform="translate(315,422)"/>
<path d="M0 0 C5.33443333 3.05439328 7.35174521 6.62936301 9.625 12.3125 C9.625 16.2725 9.625 20.2325 9.625 24.3125 C0.055 24.3125 -9.515 24.3125 -19.375 24.3125 C-16.36854823 31.82977595 -16.36854823 31.82977595 -13.1875 33.9375 C-8.44313949 34.5700814 -3.60868944 33.9684222 0.31640625 31.05859375 C1.84443527 29.57669345 1.84443527 29.57669345 3.625 27.3125 C5.605 29.6225 7.585 31.9325 9.625 34.3125 C5.74903401 39.71845256 2.79996667 42.36081381 -3.71875 43.94140625 C-9.56170856 44.75770193 -14.41330016 44.31185652 -19.6875 41.625 C-25.6904446 36.45967557 -28.84997145 31.95655687 -29.59375 23.9609375 C-29.86627251 16.62553984 -28.58406555 9.9123535 -24.125 3.9375 C-17.429149 -2.45399414 -8.41132202 -3.85323132 0 0 Z M-18.375 12.3125 C-18.705 13.6325 -19.035 14.9525 -19.375 16.3125 C-12.775 16.3125 -6.175 16.3125 0.625 16.3125 C-0.81541222 10.71675736 -0.81541222 10.71675736 -3 8.4375 C-9.55263197 5.3336217 -14.15097819 6.68047092 -18.375 12.3125 Z " fill="#000201" transform="translate(302.375,422.6875)"/>
<path d="M0 0 C5.23099372 3.04426684 7.78530854 7.2782934 9.9375 12.8125 C11.55137403 21.32201762 10.96260434 28.91761591 6.40625 36.453125 C2.7344625 41.30804403 -1.37903603 43.50743298 -7.375 44.4375 C-14.45516631 44.6010682 -19.87532922 42.82090702 -25.0625 37.875 C-29.97906447 31.41504797 -30.99742125 23.92417544 -29.94140625 16.04296875 C-28.32959194 8.62862293 -24.67215353 3.6599533 -18.375 -0.5625 C-12.46189677 -2.53353441 -5.74337675 -2.55990506 0 0 Z M-16.375 9.4375 C-20.1264297 14.66270565 -20.07344794 20.25255967 -19.375 26.4375 C-18.04292442 29.88878672 -16.96503919 31.84746081 -14.375 34.4375 C-11.29174046 35.06747837 -8.4657369 35.00235881 -5.375 34.4375 C-2.29377835 32.29950946 -1.5900476 31.79056404 -0.375 28.4375 C0.40680777 22.53205919 1.11602025 15.84550687 -2.25 10.625 C-4.80605374 7.99376821 -5.59778659 7.48818783 -9.25 7.25 C-12.40291268 7.43917476 -13.88194186 7.54621451 -16.375 9.4375 Z " fill="#000301" transform="translate(212.375,422.5625)"/>
<path d="M0 0 C4.67394213 2.12451915 6.49160414 4.30183175 8.4022522 9.02420044 C9.41067593 12.35745096 9.36832637 15.67740984 9.29296875 19.12109375 C9.28872391 19.86585464 9.28447906 20.61061554 9.28010559 21.37794495 C9.26345724 23.73151473 9.22583375 26.08419379 9.1875 28.4375 C9.17243515 30.04360733 9.15874991 31.64972823 9.14648438 33.25585938 C9.11359952 37.17091047 9.06191626 41.08530479 9 45 C5.37 45 1.74 45 -2 45 C-2.01981934 44.01080566 -2.03963867 43.02161133 -2.06005859 42.00244141 C-2.13603456 38.33827923 -2.22476352 34.67451836 -2.31738281 31.01074219 C-2.35570585 29.42390862 -2.39055288 27.83698719 -2.421875 26.25 C-2.46745431 23.97103434 -2.52545838 21.69267532 -2.5859375 19.4140625 C-2.59748871 18.70255035 -2.60903992 17.99103821 -2.62094116 17.25796509 C-2.63408239 13.17896343 -2.63408239 13.17896343 -5 10 C-9.13997567 9.8028583 -12.07703567 9.69234522 -16 11 C-16.91983592 14.9706796 -17.19088698 18.76162062 -17.31640625 22.83203125 C-17.35830078 24.12431641 -17.40019531 25.41660156 -17.44335938 26.74804688 C-17.48316352 28.10286192 -17.52287591 29.45767967 -17.5625 30.8125 C-17.60573723 32.18686105 -17.64935312 33.56121024 -17.69335938 34.93554688 C-17.7992979 38.29026669 -17.90137189 41.6450586 -18 45 C-21.3 45 -24.6 45 -28 45 C-28 30.48 -28 15.96 -28 1 C-24.7 1 -21.4 1 -18 1 C-17.67 2.32 -17.34 3.64 -17 5 C-16.21625 4.360625 -15.4325 3.72125 -14.625 3.0625 C-9.90609731 -0.64520926 -5.86860855 -0.63103318 0 0 Z " fill="#000100" transform="translate(258,421)"/>
<path d="M0 0 C4.43394725 3.90609639 6.71900432 7.3388942 7.625 13.1875 C7.94852972 18.43499425 6.76870825 22.11466999 3.625 26.3125 C-0.68734485 30.72360084 -3.98592966 32.47992247 -10.125 32.625 C-16.84200265 32.56072246 -19.85800736 30.75957618 -24.625 26.125 C-27.42475392 21.62539548 -28.82886639 17.22480934 -28 11.90625 C-26.10125397 5.43325218 -23.03537069 1.87742393 -17.1875 -1.5625 C-10.98231018 -3.39353962 -5.78502588 -2.89251294 0 0 Z " fill="#00B751" transform="translate(95.375,299.6875)"/>
<path d="M0 0 C4.68680374 2.64069912 8.05715647 5.90756205 9.65625 11.1171875 C10.47791821 17.06719866 10.17175963 22.07829037 6.65625 27.1171875 C2.12855949 31.4480219 -1.43667097 33.78808421 -7.65625 34.4921875 C-13.66919896 33.88070116 -18.30052484 31.6548915 -22.28125 27.0546875 C-25.84069012 21.98518188 -26.1205281 17.14391414 -25.34375 11.1171875 C-23.43606875 6.09562294 -20.29902501 2.11370455 -15.42578125 -0.25390625 C-10.28173715 -1.80773571 -5.05114051 -1.90259626 0 0 Z " fill="#00B751" transform="translate(52.34375,257.8828125)"/>
<path d="M0 0 C4.66743313 2.64959335 6.94520519 6.33561558 8.625 11.375 C9.1885668 17.06485711 8.95296433 21.54408403 5.625 26.375 C1.2258792 30.80532024 -2.2619593 33.49182817 -8.6875 33.625 C-13.82861534 33.53349147 -17.3019603 32.43344083 -21.0390625 28.72265625 C-25.51229847 23.70881594 -26.85421701 19.82038786 -26.78515625 13.08203125 C-25.88664581 7.15186236 -22.31958759 2.83344069 -17.625 -0.6875 C-11.55743141 -2.43776017 -5.84225978 -2.60503748 0 0 Z " fill="#00B751" transform="translate(29.375,206.625)"/>
<path d="M0 0 C4.21918571 3.00211291 6.5879303 5.55007125 7.81640625 10.67578125 C8.63532638 16.35650091 8.23040078 20.24581868 5.25 25.3125 C1.66718909 29.81660515 -2.16986701 32.1469639 -7.75 33.3125 C-13.37152173 33.57617363 -17.41999126 31.85523442 -21.75 28.3125 C-26.58106777 22.82858524 -27.10024743 19.50710601 -27.03125 12.296875 C-26.53899954 7.07355066 -24.04415791 4.53854434 -20.375 1.0625 C-13.70605802 -3.38346132 -7.07530626 -3.62098115 0 0 Z " fill="#00B751" transform="translate(146.75,323.6875)"/>
<path d="M0 0 C15.51 0 31.02 0 47 0 C47 2.97 47 5.94 47 9 C40.73 9 34.46 9 28 9 C28 25.83 28 42.66 28 60 C24.7 60 21.4 60 18 60 C18 43.17 18 26.34 18 9 C12.06 9 6.12 9 0 9 C0 6.03 0 3.06 0 0 Z " fill="#000000" transform="translate(46,406)"/>
<path d="M0 0 C3.0753898 1.55724187 4.92965339 3.25310179 6.90625 6.05859375 C8.41497139 10.67350622 8.93543626 14.69958031 7.2421875 19.26953125 C5.1827142 23.23778468 3.14849161 25.72958025 -1.03125 27.30859375 C-5.69579383 28.01134988 -9.68141039 27.82302287 -13.90625 25.62109375 C-17.16795081 23.20743515 -18.63380731 22.08990927 -20.03125 18.30859375 C-20.70760093 13.26132493 -20.60747855 9.48239264 -18.34375 4.87109375 C-13.18623198 -0.84399378 -7.40685098 -2.52117812 0 0 Z " fill="#00B751" transform="translate(117.03125,264.69140625)"/>
<path d="M0 0 C3.16851437 2.56177757 5.73223597 5.08145662 7 9 C7.4850824 14.23888993 6.85631117 17.56779301 4 22 C0.54234248 25.76274495 -2.6899913 26.81611792 -7.65234375 27.1640625 C-12.7297195 26.80923757 -16.51059959 24.53594417 -20 20.9375 C-21.59662895 16.24740245 -21.85939322 11.88386877 -21 7 C-18.89432182 2.92612778 -16.15502496 0.64168053 -12.1875 -1.5625 C-7.77227245 -2.16851162 -4.14766149 -1.62998505 0 0 Z " fill="#00B751" transform="translate(156,283)"/>
<path d="M0 0 C3.61833743 2.84847841 5.94898619 5.48064064 7 10 C6.81497296 15.82835184 5.97497125 19.50200622 2 24 C-2.50976856 26.68851587 -5.99967313 27.50139254 -11.078125 26.56640625 C-15.88144861 25.15079258 -18.40011932 23.00625146 -20.9375 18.75 C-22.47649485 13.31825347 -22.08254544 9.43572723 -19.75 4.1875 C-14.35936487 -2.55079391 -7.58621356 -2.75000242 0 0 Z " fill="#00B751" transform="translate(89,236)"/>
<path d="M0 0 C4.40608743 2.16298837 7.1987497 4.39680479 9 9 C9.68031111 14.01414487 9.55368338 17.82874671 7.375 22.4375 C3.73335668 26.36664148 0.32997533 28.12217703 -5 28.4375 C-9.26543541 28.25027669 -11.74624072 26.81006484 -15 24 C-18.31241236 20.16457516 -19.67300641 17.17661547 -19.38671875 12.0234375 C-18.5179006 7.47750013 -16.30208421 4.18719443 -12.875 1.0625 C-8.54729994 -0.53686742 -4.55432641 -0.656874 0 0 Z " fill="#00B751" transform="translate(69,197)"/>
<path d="M0 0 C2.75 1.3125 2.75 1.3125 5 3 C5.5775 3.391875 6.155 3.78375 6.75 4.1875 C8.81100117 7.17595169 9.12480465 10.45693473 9 14 C7.5469249 17.26941897 5.7145975 19.68685706 3 22 C-1.16849321 23.2333744 -4.84580345 23.47673336 -8.875 21.8125 C-13.70620017 17.69177044 -13.70620017 17.69177044 -14.35546875 13.953125 C-14.62007752 9.69077828 -14.37582441 6.86935297 -11.625 3.5 C-7.65672528 -0.27930926 -5.45229949 -0.36964742 0 0 Z " fill="#00B751" transform="translate(105,189)"/>
<path d="M0 0 C3.03522895 1.63435405 5.28352297 3.055553 7.375 5.8125 C8.73537221 10.57380273 8.56878187 13.92337717 6.25 18.3125 C3.04099248 22.14548121 1.52401498 22.86145318 -3.4375 23.3125 C-7.31775666 22.97212661 -9.02483472 22.4793044 -12 20 C-14.86704672 15.89056636 -15.48023169 12.72284383 -14.6484375 7.8984375 C-13.56407203 4.72372897 -11.58434209 3.0305545 -9 1 C-5.64870516 -0.11709828 -3.51689744 -0.34479387 0 0 Z " fill="#00B751" transform="translate(137,234)"/>
<path d="M0 0 C3.01784991 1.75607646 5.41468217 3.82936435 7 7 C7.54399285 11.539219 7.62289461 14.9544269 5.25 18.9375 C2.14683856 21.78206465 0.31026074 22.82909642 -3.875 23.375 C-7.96629067 22.88404512 -9.89074515 21.69468753 -13 19 C-15.10144908 15.75230596 -16.20982189 13.55682661 -15.68359375 9.65234375 C-14.63795124 5.97765721 -13.61326327 3.57821966 -10.8125 0.9375 C-7.11754033 -0.29415322 -3.80910058 -0.81836145 0 0 Z " fill="#00B751" transform="translate(163,246)"/>
<path d="M0 0 C2.70567626 1.82339052 4.53728718 3.07457436 6 6 C6.43808718 10.28819956 6.44926618 13.94422448 4.75 17.9375 C2.80470008 20.2301749 1.87852015 21.14422374 -1 22 C-6.36367791 22.42568872 -9.63678931 22.46490261 -14 19 C-16.83160532 14.75259201 -16.64522317 10.98653957 -16 6 C-14.20895728 2.81592406 -12.79514401 1.47278833 -9.6875 -0.375 C-6.08756135 -1.21219504 -3.58158403 -0.89539601 0 0 Z " fill="#00B751" transform="translate(119,215)"/>
</svg>
