<?xml version="1.0" encoding="UTF-8"?>
<svg version="1.1" xmlns="http://www.w3.org/2000/svg" width="50" height="51">
<path d="M0 0 C6.21022081 3.77380156 11.12756342 9.38269026 13.4375 16.3125 C14.06027571 24.34732765 14.41847862 31.64415403 9.4375 38.3125 C4.86657807 43.60514645 -0.43033139 47.93635981 -7.56640625 48.5859375 C-15.66831978 48.81716665 -21.98073541 48.3456141 -28.5625 43.3125 C-34.17529168 37.51261527 -36.84564107 31.73338394 -37 23.625 C-36.8623413 15.89182027 -35.2871796 9.91702864 -29.625 4.4375 C-21.29365546 -2.12658964 -10.0063178 -4.7167185 0 0 Z " fill="#0889A5" transform="translate(36.5625,1.6875)"/>
<path d="M0 0 C0 13.86 0 27.72 0 42 C-4.63534564 40.84116359 -7.39591522 39.29918819 -10.171875 35.3203125 C-14.08374976 28.71548047 -14.88292665 22.58514255 -14 15 C-11.868631 8.49564977 -7.76130009 0 0 0 Z " fill="#0C5FA0" transform="translate(15,4)"/>
<path d="M0 0 C6.21022081 3.77380156 11.12756342 9.38269026 13.4375 16.3125 C14.06027571 24.34732765 14.41847862 31.64415403 9.4375 38.3125 C4.86657807 43.60514645 -0.43033139 47.93635981 -7.56640625 48.5859375 C-15.66831978 48.81716665 -21.98073541 48.3456141 -28.5625 43.3125 C-34.17529168 37.51261527 -36.84564107 31.73338394 -37 23.625 C-36.8623413 15.89182027 -35.2871796 9.91702864 -29.625 4.4375 C-21.29365546 -2.12658964 -10.0063178 -4.7167185 0 0 Z M-30.5625 7.3125 C-35.1791086 14.04860701 -36.6657979 20.2256901 -35.5625 28.3125 C-34.15407251 34.53753448 -31.15039812 39.78887727 -25.82421875 43.53515625 C-19.03599454 47.5906478 -11.90956608 48.61623275 -4.19140625 46.734375 C2.2597814 44.27465007 6.53401306 39.92435898 10.4375 34.3125 C13.59115795 26.82256237 13.10376188 19.81227633 10.34765625 12.3515625 C7.56849135 6.1252789 2.76060083 2.82300038 -3.3125 0.0625 C-13.21614115 -2.22295565 -23.66341059 -0.7915008 -30.5625 7.3125 Z " fill="#EFF7F9" transform="translate(36.5625,1.6875)"/>
<path d="M0 0 C1.670625 0.061875 1.670625 0.061875 3.375 0.125 C3.375 1.445 3.375 2.765 3.375 4.125 C2.385 4.455 1.395 4.785 0.375 5.125 C0.045 6.115 -0.285 7.105 -0.625 8.125 C0.695 8.125 2.015 8.125 3.375 8.125 C3.375 9.775 3.375 11.425 3.375 13.125 C2.055 13.125 0.735 13.125 -0.625 13.125 C-0.625 17.415 -0.625 21.705 -0.625 26.125 C-2.275 26.125 -3.925 26.125 -5.625 26.125 C-5.625 21.835 -5.625 17.545 -5.625 13.125 C-6.615 13.125 -7.605 13.125 -8.625 13.125 C-8.625 11.475 -8.625 9.825 -8.625 8.125 C-7.635 8.125 -6.645 8.125 -5.625 8.125 C-5.686875 6.701875 -5.686875 6.701875 -5.75 5.25 C-5.56379584 0.59489612 -4.59761607 0.15853849 0 0 Z " fill="#FBFDFD" transform="translate(27.625,11.875)"/>
<path d="M0 0 C0.66 0.99 1.32 1.98 2 3 C-1.46240159 10.79523934 -5.6129249 15.5035195 -13 20 C-20.1265627 22.3755209 -28.65256531 22.10583796 -35.5 19 C-40.69968212 15.96756594 -44.91786887 11.84919126 -46.58203125 5.9296875 C-46.875 4 -46.875 4 -47 1 C-46.72542969 1.5671875 -46.45085938 2.134375 -46.16796875 2.71875 C-42.58670032 9.71360205 -39.30247819 14.75445414 -32 18 C-24.87738863 20.13243151 -17.76130903 19.73229248 -11.109375 16.39453125 C-6.13477473 13.10576774 -2.25072652 8.77983109 -0.5625 3 C-0.2840625 1.515 -0.2840625 1.515 0 0 Z " fill="#EDF3F8" transform="translate(48,29)"/>
<path d="M0 0 C0.66 0.99 1.32 1.98 2 3 C-1.40497949 10.66595941 -5.53648722 15.80177406 -13 20 C-15.875 20.25 -15.875 20.25 -18 20 C-15 18 -15 18 -12.25 16.875 C-6.79614731 13.72854653 -2.32940764 9.16537984 -0.5625 3 C-0.376875 2.01 -0.19125 1.02 0 0 Z " fill="#DDF1F3" transform="translate(48,29)"/>
</svg>
