<svg width="25" height="25" viewBox="0 0 25 25" fill="none" xmlns="http://www.w3.org/2000/svg">
<g clip-path="url(#clip0_74_24092)">
<path d="M12.497 8.10279C10.2935 8.10279 8.49529 9.901 8.49529 12.1045C8.49529 14.308 10.2935 16.1062 12.497 16.1062C14.7005 16.1062 16.4987 14.308 16.4987 12.1045C16.4987 9.901 14.7005 8.10279 12.497 8.10279ZM24.4991 12.1045C24.4991 10.4474 24.5141 8.80526 24.4211 7.15115C24.328 5.22985 23.8897 3.5247 22.4847 2.11975C21.0768 0.711795 19.3746 0.276501 17.4533 0.183438C15.7962 0.0903749 14.1541 0.105385 12.5 0.105385C10.8429 0.105385 9.20077 0.0903749 7.54665 0.183438C5.62536 0.276501 3.9202 0.714797 2.51525 2.11975C1.1073 3.5277 0.672008 5.22985 0.578946 7.15115C0.485883 8.80826 0.500893 10.4504 0.500893 12.1045C0.500893 13.7586 0.485883 15.4037 0.578946 17.0578C0.672008 18.9791 1.1103 20.6843 2.51525 22.0892C3.92321 23.4972 5.62536 23.9325 7.54665 24.0255C9.20377 24.1186 10.8459 24.1036 12.5 24.1036C14.1571 24.1036 15.7992 24.1186 17.4533 24.0255C19.3746 23.9325 21.0798 23.4942 22.4847 22.0892C23.8927 20.6813 24.328 18.9791 24.4211 17.0578C24.5171 15.4037 24.4991 13.7616 24.4991 12.1045ZM12.497 18.2617C9.08969 18.2617 6.33984 15.5118 6.33984 12.1045C6.33984 8.69719 9.08969 5.94733 12.497 5.94733C15.9043 5.94733 18.6542 8.69719 18.6542 12.1045C18.6542 15.5118 15.9043 18.2617 12.497 18.2617ZM18.9063 7.13313C18.1108 7.13313 17.4684 6.4907 17.4684 5.69516C17.4684 4.89962 18.1108 4.25719 18.9063 4.25719C19.7019 4.25719 20.3443 4.89962 20.3443 5.69516C20.3445 5.88407 20.3075 6.07116 20.2353 6.24573C20.1631 6.4203 20.0572 6.57891 19.9237 6.71249C19.7901 6.84607 19.6315 6.95198 19.4569 7.02416C19.2823 7.09634 19.0952 7.13337 18.9063 7.13313Z" fill="white"/>
</g>
<defs>
<clipPath id="clip0_74_24092">
<rect width="24" height="24" fill="white" transform="translate(0.5 0.104492)"/>
</clipPath>
</defs>
</svg>
