<svg width="25" height="25" viewBox="0 0 25 25" fill="none" xmlns="http://www.w3.org/2000/svg">
<g clip-path="url(#clip0_74_24086)">
<path d="M12.5 0.104492C5.8725 0.104492 0.5 5.47699 0.5 12.1045C0.5 18.732 5.8725 24.1045 12.5 24.1045C19.1275 24.1045 24.5 18.732 24.5 12.1045C24.5 5.47699 19.1275 0.104492 12.5 0.104492ZM9.5625 17.0782H7.1325V9.25824H9.5625V17.0782ZM8.3325 8.29824C7.565 8.29824 7.06875 7.75449 7.06875 7.08199C7.06875 6.39574 7.58 5.86824 8.36375 5.86824C9.1475 5.86824 9.6275 6.39574 9.6425 7.08199C9.6425 7.75449 9.1475 8.29824 8.3325 8.29824ZM18.4375 17.0782H16.0075V12.7445C16.0075 11.7357 15.655 11.0507 14.7763 11.0507C14.105 11.0507 13.7063 11.5145 13.53 11.9607C13.465 12.1195 13.4488 12.3445 13.4488 12.5682V17.077H11.0175V11.752C11.0175 10.7757 10.9862 9.95949 10.9537 9.25699H13.065L13.1763 10.3432H13.225C13.545 9.83324 14.3288 9.08074 15.64 9.08074C17.2388 9.08074 18.4375 10.152 18.4375 12.4545V17.0782Z" fill="white"/>
</g>
<defs>
<clipPath id="clip0_74_24086">
<rect width="24" height="24" fill="white" transform="translate(0.5 0.104492)"/>
</clipPath>
</defs>
</svg>
