<svg width="25" height="25" viewBox="0 0 25 25" fill="none" xmlns="http://www.w3.org/2000/svg">
<g clip-path="url(#clip0_74_24090)">
<path d="M14.5037 11.8957L11.6963 10.5857C11.4513 10.472 11.25 10.5995 11.25 10.8707V13.3382C11.25 13.6095 11.4513 13.737 11.6963 13.6232L14.5025 12.3132C14.7488 12.1982 14.7487 12.0107 14.5037 11.8957ZM12.5 0.104492C5.8725 0.104492 0.5 5.47699 0.5 12.1045C0.5 18.732 5.8725 24.1045 12.5 24.1045C19.1275 24.1045 24.5 18.732 24.5 12.1045C24.5 5.47699 19.1275 0.104492 12.5 0.104492ZM12.5 16.9795C6.3575 16.9795 6.25 16.4257 6.25 12.1045C6.25 7.78324 6.3575 7.22949 12.5 7.22949C18.6425 7.22949 18.75 7.78324 18.75 12.1045C18.75 16.4257 18.6425 16.9795 12.5 16.9795Z" fill="white"/>
</g>
<defs>
<clipPath id="clip0_74_24090">
<rect width="24" height="24" fill="white" transform="translate(0.5 0.104492)"/>
</clipPath>
</defs>
</svg>
