<svg width="25" height="25" viewBox="0 0 25 25" fill="none" xmlns="http://www.w3.org/2000/svg">
<g clip-path="url(#clip0_74_24088)">
<path d="M12.5 0.104492C5.87321 0.104492 0.5 5.47771 0.5 12.1045C0.5 18.7313 5.87321 24.1045 12.5 24.1045C19.1268 24.1045 24.5 18.7313 24.5 12.1045C24.5 5.47771 19.1268 0.104492 12.5 0.104492ZM18.267 9.15003C18.275 9.27592 18.275 9.40717 18.275 9.53574C18.275 13.4679 15.2804 17.9973 9.80804 17.9973C8.12054 17.9973 6.55625 17.5072 5.23839 16.6634C5.47946 16.6902 5.70982 16.7009 5.95625 16.7009C7.34911 16.7009 8.62946 16.2295 9.65 15.4313C8.34286 15.4045 7.24464 14.5473 6.86964 13.3688C7.32768 13.4357 7.74018 13.4357 8.21161 13.3152C7.53855 13.1785 6.93359 12.8129 6.49951 12.2807C6.06542 11.7485 5.82898 11.0824 5.83036 10.3956V10.3581C6.22411 10.5804 6.6875 10.717 7.17232 10.7357C6.76476 10.4641 6.43051 10.0961 6.19923 9.66439C5.96794 9.23266 5.84676 8.75053 5.84643 8.26074C5.84643 7.70628 5.99107 7.20003 6.25089 6.76074C6.99795 7.68039 7.93017 8.43255 8.98696 8.96833C10.0437 9.50411 11.2014 9.81151 12.3848 9.87056C11.9643 7.84824 13.475 6.21164 15.2911 6.21164C16.1482 6.21164 16.9196 6.57056 17.4634 7.14914C18.1357 7.02324 18.7786 6.77146 19.3518 6.43396C19.1295 7.12235 18.6634 7.7036 18.0446 8.07056C18.6446 8.00628 19.2232 7.84021 19.7589 7.60717C19.3545 8.20181 18.8482 8.72949 18.267 9.15003Z" fill="white"/>
</g>
<defs>
<clipPath id="clip0_74_24088">
<rect width="24" height="24" fill="white" transform="translate(0.5 0.104492)"/>
</clipPath>
</defs>
</svg>
