<svg xmlns="http://www.w3.org/2000/svg" width="246" height="19" viewBox="0 0 246 19">
  <defs>
    <style>
      .cls-1 {
        fill: #f27930;
      }

      .cls-1, .cls-2, .cls-5 {
        fill-rule: evenodd;
      }

      .cls-2, .cls-3 {
        fill: #143a72;
      }

      .cls-4, .cls-5 {
        fill: #97144d;
      }
    </style>
  </defs>
  <g id="Group_22917" data-name="Group 22917" transform="translate(-8771.935 991.364)">
    <g id="Group_11" data-name="Group 11" transform="translate(8771.935 -991.364)">
      <g id="Group_1" data-name="Group 1" transform="translate(0 0)">
        <path id="Path_1" data-name="Path 1" class="cls-1" d="M40.072,24.381l2.241,2.1a3.777,3.777,0,0,1,1.043,2.89c0,2.554-2.437,3.757-3.266,5.9a4.574,4.574,0,0,0-.355,1.936c.02.251.162,1.294.444,1.366,2.107.534,3.832-1.069,3.155-3.617a3.427,3.427,0,0,0-.572-1.41H42.9l2.24,2.134a2.27,2.27,0,0,1,.723,1.671,3.3,3.3,0,0,1-3.111,3.6,2.667,2.667,0,0,1-1.845-.713l-2.57-2.416A3.259,3.259,0,0,1,37.4,35.2c0-2.406,1.806-3.8,2.625-5.866a6.5,6.5,0,0,0,.452-2.567,3.682,3.682,0,0,0-.485-2.272Z" transform="translate(-34.978 -24.381)"/>
        <path id="Path_2" data-name="Path 2" class="cls-2" d="M43.492,55.5c.007.007,2.486,2.124,2.69,2.3l-.134.038a4.222,4.222,0,0,0-2.631-.928,6.977,6.977,0,0,0-2.722.533c-.4.147-.791.3-1.183.457a3.875,3.875,0,0,1-1.857.319,5.185,5.185,0,0,1-2.6-1.49l-2.18-1.881c.011.006.124-.038.134-.033a5.951,5.951,0,0,0,4.034.855c.609-.084,2.857-1.1,3.513-1.181a2.964,2.964,0,0,1,1.239.064,4.468,4.468,0,0,1,1.7.946" transform="translate(-32.87 -39.236)"/>
      </g>
      <g id="Group_3" data-name="Group 3" transform="translate(14.22 4.456)">
        <path id="Path_3" data-name="Path 3" class="cls-3" d="M61.977,40.573l-.332.764a2.579,2.579,0,0,0-.274.912c0,.692.548.75,1.269.794V43.3H59.451v-.258c.981-.073,1.4-1.257,1.747-2.023l3.332-7.475h.144l3.506,7.981c.274.621.62,1.517,1.428,1.517V43.3H64.976v-.258c.4,0,1.126,0,1.126-.464a1.265,1.265,0,0,0-.144-.564l-.636-1.442Zm1.7-3.8-1.457,3.277h2.885Z" transform="translate(-59.451 -33.531)"/>
        <path id="Path_4" data-name="Path 4" class="cls-3" d="M95.605,33.919h3.9v.262c-1.357,0-1.357.375-1.357,1.544v5.948c0,1.168,0,1.544,1.357,1.544v.258H94.494v-.258c1.356,0,1.356-.376,1.356-1.544V34.787l-.028.027L92.2,43.475h-.171l-3.694-8.558-.027-.029v7.144c0,.8.388,1.186,1.355,1.186v.258H86.415v-.258c.968,0,1.357-.391,1.357-1.186V35.725c0-1.17,0-1.544-1.357-1.544v-.262h3.91l2.7,6.31Z" transform="translate(-71.99 -33.704)"/>
        <path id="Path_5" data-name="Path 5" class="cls-3" d="M116.358,40.543a.84.84,0,0,0-.9-.894c-.3,0-.923.113-.923.5,0,.275.462.447.462.91a.862.862,0,0,1-.952.851.979.979,0,0,1-1.025-.908c0-1.329,1.831-1.906,2.914-1.906,1.644,0,2.394.807,2.394,2.223v3.2c0,.346,0,.664.3.664.174,0,.274-.13.377-.259l.2.158a1.844,1.844,0,0,1-1.573,1,1.135,1.135,0,0,1-1.282-1.053,3.439,3.439,0,0,1-2.152,1.053,1.276,1.276,0,0,1-1.312-1.356c0-1.185.794-1.762,3.464-3.018Zm0,1.762c-.622.347-1.559,1.054-1.559,1.833a.734.734,0,0,0,.764.763,1.226,1.226,0,0,0,.8-.389Z" transform="translate(-84.304 -36.113)"/>
        <path id="Path_6" data-name="Path 6" class="cls-3" d="M131.238,44.355c.563,1.068.966,1.444,1.371,1.444v.258h-3.665V45.8c.4,0,.635-.088.635-.332a2.177,2.177,0,0,0-.3-.766l-.491-.909c-.417.608-.908,1.183-.908,1.574,0,.346.3.434.664.434v.258h-2.568V45.8c.894,0,1.312-.564,2.136-1.791l.432-.649L127.5,41.411c-.434-.809-.852-1.676-1.529-1.691v-.244h3.65v.259c-.519,0-.621.046-.621.3a2.122,2.122,0,0,0,.318.75l.432.795a4.051,4.051,0,0,0,.822-1.471c0-.289-.317-.377-.547-.377v-.259h2.322v.259c-.823,0-1.342.765-1.732,1.373l-.59.907Z" transform="translate(-90.386 -36.287)"/>
        <path id="Path_7" data-name="Path 7" class="cls-3" d="M150.382,41.673c0,1.168,0,1.544,1.357,1.544v.258h-5.008v-.258c1.359,0,1.359-.376,1.359-1.544V35.725c0-1.17,0-1.544-1.359-1.544v-.262H154.8v2.83h-.259c-.419-2.138-1.4-2.282-3.29-2.282h-.866v3.9c1.9,0,2.151-.836,2.323-2.05h.261V41.15H152.7c-.172-1.428-.418-2.266-2.323-2.266Z" transform="translate(-100.039 -33.704)"/>
        <path id="Path_8" data-name="Path 8" class="cls-3" d="M166.223,41.773c0,.794,0,1.257.779,1.257v.258h-3.548v-.258c.793,0,.793-.464.793-1.257V38.251c0-.764,0-1.285-.793-1.285v-.259h2.769Zm-1-8.255a1.082,1.082,0,1,1-1.08,1.083A1.089,1.089,0,0,1,165.226,33.518Z" transform="translate(-107.816 -33.518)"/>
        <path id="Path_9" data-name="Path 9" class="cls-3" d="M174.312,40.138a2.649,2.649,0,0,1,1.9-1.041c1.457,0,1.8,1.1,1.8,2.628v2.642c0,.65,0,1.257.722,1.257v.258h-3.349v-.258c.65,0,.65-.608.65-1.257V41.681c0-.966,0-1.633-.634-1.633-.446,0-.864.479-1.1.869v3.449c0,.65,0,1.257.649,1.257v.258h-3.348v-.258c.721,0,.721-.608.721-1.257V40.844c0-.764,0-1.285-.792-1.285V39.3h2.77Z" transform="translate(-111.577 -36.111)"/>
        <path id="Path_10" data-name="Path 10" class="cls-3" d="M190.643,40.543a.84.84,0,0,0-.9-.894c-.3,0-.922.113-.922.5,0,.275.461.447.461.91a.861.861,0,0,1-.952.851.979.979,0,0,1-1.025-.908c0-1.329,1.834-1.906,2.915-1.906,1.644,0,2.4.807,2.4,2.223v3.2c0,.346,0,.664.3.664.173,0,.273-.13.376-.259l.2.158a1.843,1.843,0,0,1-1.573,1,1.138,1.138,0,0,1-1.283-1.053,3.429,3.429,0,0,1-2.15,1.053,1.276,1.276,0,0,1-1.313-1.356c0-1.185.793-1.762,3.463-3.018Zm0,1.762c-.621.347-1.557,1.054-1.557,1.833a.734.734,0,0,0,.764.763,1.222,1.222,0,0,0,.793-.389Z" transform="translate(-118.85 -36.113)"/>
        <path id="Path_11" data-name="Path 11" class="cls-3" d="M203.325,40.138a2.649,2.649,0,0,1,1.9-1.041c1.457,0,1.8,1.1,1.8,2.628v2.642c0,.65,0,1.257.722,1.257v.258h-3.348v-.258c.649,0,.649-.608.649-1.257V41.681c0-.966,0-1.633-.634-1.633-.447,0-.865.479-1.1.869v3.449c0,.65,0,1.257.649,1.257v.258h-3.347v-.258c.721,0,.721-.608.721-1.257V40.844c0-.764,0-1.285-.793-1.285V39.3h2.77Z" transform="translate(-125.069 -36.111)"/>
        <path id="Path_12" data-name="Path 12" class="cls-3" d="M221.476,44.354a2.959,2.959,0,0,1-2.611,1.732c-1.861,0-2.914-1.574-2.914-3.493,0-1.847,1.111-3.492,3.087-3.492.981,0,2.25.52,2.25,1.672a.843.843,0,0,1-.881.866c-.778,0-.964-.59-1.023-1.254-.042-.347-.158-.793-.592-.793-.792,0-.936,1.415-.936,1.976,0,1.256.447,3.394,2.032,3.394a1.9,1.9,0,0,0,1.37-.78Z" transform="translate(-132.229 -36.113)"/>
        <path id="Path_13" data-name="Path 13" class="cls-3" d="M230.5,41.773c0,.794,0,1.257.778,1.257v.258h-3.548v-.258c.793,0,.793-.464.793-1.257V38.251c0-.764,0-1.285-.793-1.285v-.259h2.77Zm-1-8.255a1.082,1.082,0,1,1-1.082,1.083A1.09,1.09,0,0,1,229.508,33.518Z" transform="translate(-137.709 -33.518)"/>
        <path id="Path_14" data-name="Path 14" class="cls-3" d="M239.664,40.543a.84.84,0,0,0-.9-.894c-.3,0-.923.113-.923.5,0,.275.462.447.462.91a.862.862,0,0,1-.952.851.979.979,0,0,1-1.025-.908c0-1.329,1.833-1.906,2.913-1.906,1.646,0,2.394.807,2.394,2.223v3.2c0,.346,0,.664.3.664.173,0,.274-.13.375-.259l.2.158a1.844,1.844,0,0,1-1.573,1,1.136,1.136,0,0,1-1.282-1.053,3.436,3.436,0,0,1-2.15,1.053,1.276,1.276,0,0,1-1.313-1.356c0-1.185.794-1.762,3.463-3.018Zm0,1.762c-.62.347-1.558,1.054-1.558,1.833a.734.734,0,0,0,.765.763,1.223,1.223,0,0,0,.793-.389Z" transform="translate(-141.646 -36.113)"/>
        <path id="Path_15" data-name="Path 15" class="cls-3" d="M252.022,41.96c0,.794,0,1.257.778,1.257v.258h-3.548v-.258c.793,0,.793-.464.793-1.257v-6.5c0-.764,0-1.283-.793-1.283v-.262h2.77Z" transform="translate(-147.715 -33.704)"/>
        <g id="Group_2" data-name="Group 2" transform="translate(110.141 0.217)">
          <path id="Path_16" data-name="Path 16" class="cls-3" d="M268.8,40.543a.84.84,0,0,0-.895-.894c-.3,0-.923.113-.923.5,0,.275.461.447.461.91a.861.861,0,0,1-.952.851.979.979,0,0,1-1.024-.908c0-1.329,1.832-1.906,2.913-1.906,1.645,0,2.4.807,2.4,2.223v3.2c0,.346,0,.664.3.664.174,0,.275-.13.377-.259l.2.158a1.842,1.842,0,0,1-1.572,1,1.137,1.137,0,0,1-1.283-1.053,3.436,3.436,0,0,1-2.151,1.053,1.277,1.277,0,0,1-1.312-1.356c0-1.185.794-1.762,3.463-3.018Zm0,1.762c-.62.347-1.559,1.054-1.559,1.833A.735.735,0,0,0,268,44.9a1.229,1.229,0,0,0,.794-.389Z" transform="translate(-265.335 -36.33)"/>
          <path id="Path_17" data-name="Path 17" class="cls-3" d="M281.48,40.138a2.651,2.651,0,0,1,1.9-1.041c1.457,0,1.8,1.1,1.8,2.628v2.642c0,.65,0,1.257.722,1.257v.258h-3.347v-.258c.649,0,.649-.608.649-1.257V41.681c0-.966,0-1.633-.635-1.633-.447,0-.866.479-1.1.869v3.449c0,.65,0,1.257.65,1.257v.258h-3.347v-.258c.722,0,.722-.608.722-1.257V40.844c0-.764,0-1.285-.792-1.285V39.3h2.768Z" transform="translate(-271.556 -36.328)"/>
          <path id="Path_18" data-name="Path 18" class="cls-3" d="M300.573,41.889c0,.505,0,.983.794.983v.259l-2.511.548H298.6V42.668l-.029.031a2.223,2.223,0,0,1-1.716.981c-1.832,0-2.612-1.776-2.612-3.378,0-2.338,1.282-3.607,2.712-3.607a2.01,2.01,0,0,1,1.645.822V35.466c0-.764,0-1.283-.953-1.283v-.259h2.928ZM298.6,38.4a1.59,1.59,0,0,0-1.314-1.011c-.966,0-.981,1.935-.981,2.614,0,.78.03,2.829,1.141,2.829.517,0,.937-.549,1.154-.968Z" transform="translate(-278.777 -33.924)"/>
        </g>
      </g>
      <g id="Group_10" data-name="Group 10" transform="translate(151.754 0.023)">
        <g id="Group_6" data-name="Group 6" transform="translate(22.675 4.332)">
          <g id="Group_4" data-name="Group 4" transform="translate(60.437 0.278)">
            <path id="Path_19" data-name="Path 19" class="cls-4" d="M470.288,38.317a3.74,3.74,0,0,1-.149,1.1,2.262,2.262,0,0,1-.446.832,1.94,1.94,0,0,1-.739.528,2.665,2.665,0,0,1-1.03.185,4.273,4.273,0,0,1-.527-.033,4.783,4.783,0,0,1-.542-.1q.015-.2.035-.4t.035-.4a.284.284,0,0,1,.087-.177.293.293,0,0,1,.207-.067.95.95,0,0,1,.221.035,1.644,1.644,0,0,0,.849-.047.85.85,0,0,0,.366-.261,1.207,1.207,0,0,0,.221-.466,2.785,2.785,0,0,0,.074-.694V33.675h1.339Z" transform="translate(-466.854 -33.675)"/>
            <path id="Path_20" data-name="Path 20" class="cls-4" d="M481.562,33.675l-2.907,7.2h-1.21l-2.906-7.2h1.075a.451.451,0,0,1,.283.085.518.518,0,0,1,.164.219l1.7,4.392c.056.143.11.3.162.47s.1.35.146.535q.06-.279.13-.535a4.439,4.439,0,0,1,.154-.47l1.687-4.392a.473.473,0,0,1,.157-.209.439.439,0,0,1,.286-.095Z" transform="translate(-470.428 -33.675)"/>
          </g>
          <g id="Group_5" data-name="Group 5">
            <path id="Path_21" data-name="Path 21" class="cls-4" d="M449.31,40.881V33.687h1.358v2.977l3-2.977h1.662l-3.313,3.2,3.706,4h-1.754l-3.3-3.675v3.675Z" transform="translate(-398.259 -33.402)"/>
            <path id="Path_22" data-name="Path 22" class="cls-4" d="M433.487,40.634V33.155l5.308,4.4c.146.124.292.257.44.4s.3.3.468.478V33.44h1.257v7.474l-5.418-4.477c-.144-.12-.285-.248-.419-.382a5.642,5.642,0,0,1-.386-.423v5Z" transform="translate(-390.9 -33.155)"/>
            <path id="Path_23" data-name="Path 23" class="cls-4" d="M423.749,40.634l-.949-1.854h-3.309l-.971,1.854h-1.428l4.047-7.479,4.042,7.479Zm-3.757-2.826h2.329l-.855-1.641c-.049-.106-.1-.226-.154-.362s-.107-.287-.16-.454c-.046.157-.093.305-.146.441s-.1.26-.156.376l-.858,1.641Z" transform="translate(-383.276 -33.155)"/>
            <path id="Path_24" data-name="Path 24" class="cls-4" d="M407.151,40.882V33.688h2.107a7.726,7.726,0,0,1,1.333.084,2.111,2.111,0,0,1,.732.275,1.709,1.709,0,0,1,.6.644,1.832,1.832,0,0,1,.214.879,1.492,1.492,0,0,1-.308.961,1.639,1.639,0,0,1-.9.538,1.8,1.8,0,0,1,1.152.572,1.744,1.744,0,0,1,.419,1.2,1.985,1.985,0,0,1-.177.83,1.83,1.83,0,0,1-.5.669,1.968,1.968,0,0,1-.85.423,8.207,8.207,0,0,1-1.707.123Zm1.331-.978h.468a8.622,8.622,0,0,0,1.068-.049,1.524,1.524,0,0,0,.559-.173,1.008,1.008,0,0,0,.388-.382,1.056,1.056,0,0,0,.136-.532,1.068,1.068,0,0,0-.166-.6,1.084,1.084,0,0,0-.473-.4,1.808,1.808,0,0,0-.442-.124,4.556,4.556,0,0,0-.658-.039h-.879V39.9Zm0-3.179H409a2.977,2.977,0,0,0,1.374-.228.815.815,0,0,0,.4-.77.909.909,0,0,0-.37-.829,2.837,2.837,0,0,0-1.4-.238h-.518v2.064Z" transform="translate(-378.653 -33.403)"/>
            <path id="Path_25" data-name="Path 25" class="cls-4" d="M388,39.3l1.039-.431a1.288,1.288,0,0,0,.542.732,1.831,1.831,0,0,0,1.007.254,1.385,1.385,0,0,0,.923-.29.965.965,0,0,0,.342-.775q0-.633-1.172-1.13c-.11-.049-.193-.085-.253-.107a5.72,5.72,0,0,1-1.764-1.05,1.611,1.611,0,0,1-.441-1.147,1.759,1.759,0,0,1,.665-1.426,2.66,2.66,0,0,1,1.744-.545,3.228,3.228,0,0,1,1.484.307,1.677,1.677,0,0,1,.826.882l-1.019.472a1.587,1.587,0,0,0-.529-.5,1.34,1.34,0,0,0-.66-.157,1.308,1.308,0,0,0-.833.245.8.8,0,0,0-.31.659q0,.649,1.359,1.208c.07.031.124.054.163.069a4.943,4.943,0,0,1,1.633.961,1.642,1.642,0,0,1,.443,1.173,2.008,2.008,0,0,1-.717,1.623,2.921,2.921,0,0,1-1.938.6,3.042,3.042,0,0,1-1.678-.423A1.966,1.966,0,0,1,388,39.3Z" transform="translate(-369.748 -33.261)"/>
            <path id="Path_26" data-name="Path 26" class="cls-4" d="M383.538,40.881V33.687h1.3v7.194Z" transform="translate(-367.672 -33.402)"/>
            <path id="Path_27" data-name="Path 27" class="cls-4" d="M368.934,40.882l2.6-3.764-2.3-3.43H370.6l1.155,1.759c.064.09.178.282.346.57l.082.143c.058-.1.124-.21.195-.325s.151-.24.242-.377l1.221-1.77h1.336l-2.344,3.41,2.525,3.784H373.92l-1.34-2.04-.022-.033c-.145-.247-.28-.476-.406-.693-.061.111-.129.226-.2.346s-.151.241-.235.366l-1.4,2.055Z" transform="translate(-360.881 -33.403)"/>
            <path id="Path_28" data-name="Path 28" class="cls-4" d="M360.264,40.634l-.91-1.854H356.18l-.931,1.854h-1.37l3.882-7.479,3.876,7.479Zm-3.6-2.826h2.234l-.82-1.641c-.047-.106-.1-.226-.148-.362s-.1-.287-.154-.454c-.045.157-.09.305-.14.441s-.1.26-.149.376l-.823,1.641Z" transform="translate(-353.88 -33.155)"/>
          </g>
        </g>
        <g id="Group_9" data-name="Group 9">
          <g id="Group_8" data-name="Group 8">
            <g id="Group_7" data-name="Group 7">
              <path id="Path_29" data-name="Path 29" class="cls-5" d="M311.493,43.335l11.6-18.912,3.577,5.72-7.734,13.1-7.444.092Z" transform="translate(-311.493 -24.424)"/>
              <path id="Path_30" data-name="Path 30" class="cls-5" d="M333.36,47.246l7.154-.1,4.351,7.53h-7.348l-4.157-7.434Z" transform="translate(-321.662 -35.865)"/>
            </g>
          </g>
        </g>
      </g>
    </g>
  </g>
</svg>
