<?xml version="1.0" encoding="UTF-8"?>
<svg version="1.1" xmlns="http://www.w3.org/2000/svg" width="127" height="97">
<path d="M0 0 C41.91 0 83.82 0 127 0 C127 32.01 127 64.02 127 97 C85.09 97 43.18 97 0 97 C0 64.99 0 32.98 0 0 Z " fill="#F9FAFB" transform="translate(0,0)"/>
<path d="M0 0 C10.56 0 21.12 0 32 0 C32 12.54 32 25.08 32 38 C24.636875 38.0928125 24.636875 38.0928125 17.125 38.1875 C15.57699707 38.21481201 14.02899414 38.24212402 12.43408203 38.27026367 C11.22091309 38.27775635 10.00774414 38.28524902 8.7578125 38.29296875 C7.5114502 38.3086792 6.26508789 38.32438965 4.98095703 38.34057617 C3.5053833 38.17199097 3.5053833 38.17199097 2 38 C-0.49336211 34.25995683 -0.25481228 31.37438391 -0.1953125 27.05078125 C-0.1924826 26.27816452 -0.18965271 25.50554779 -0.18673706 24.70951843 C-0.17554878 22.24368757 -0.15044703 19.77822094 -0.125 17.3125 C-0.11496843 15.63997921 -0.10584289 13.96745272 -0.09765625 12.29492188 C-0.077316 8.19636162 -0.03816585 4.09858815 0 0 Z " fill="#0C3453" transform="translate(27,53)"/>
<path d="M0 0 C4.5708961 1.96364646 8.13069941 4.10558078 10.2421875 8.70703125 C10.49226563 9.46371094 10.74234375 10.22039063 11 11 C11.556875 10.443125 12.11375 9.88625 12.6875 9.3125 C13.450625 8.549375 14.21375 7.78625 15 7 C15.825 6.13375 16.65 5.2675 17.5 4.375 C22.20097203 -0.09092342 25.96264335 -0.43878237 32.30078125 -0.3203125 C36.08340952 0.12856669 38.22311603 1.43672249 41 4 C43.58644464 7.4094043 43.36503115 10.8386449 43 15 C41.17216442 19.23288239 39.16887637 21.1041761 35 23 C31.46935616 23.45413457 27.96229727 23.44417506 24.40625 23.43359375 C23.38196899 23.4388356 22.35768799 23.44407745 21.30236816 23.44947815 C19.14055283 23.4558908 16.97870256 23.45457118 14.81689453 23.44604492 C11.51141241 23.4375294 8.20765551 23.46631706 4.90234375 23.49804688 C2.79947968 23.49965889 0.69661256 23.49908136 -1.40625 23.49609375 C-2.39282593 23.50732773 -3.37940186 23.51856171 -4.39587402 23.53013611 C-8.78389171 23.48560869 -11.28939257 23.44243987 -15.08007812 21.08227539 C-18.06473897 17.84522397 -18.88390609 16.04484517 -19.375 11.625 C-18.93060645 7.32919568 -17.70408706 5.32216411 -15 2 C-10.28069793 -1.14620138 -5.51428274 -0.78482984 0 0 Z " fill="#123958" transform="translate(50,6)"/>
<path d="M0 0 C10.23 0 20.46 0 31 0 C31.04586087 5.09055605 31.08570058 10.1803982 31.10986328 15.27099609 C31.11993376 17.00344265 31.13359089 18.73587216 31.15087891 20.46826172 C31.17508162 22.95544639 31.18647239 25.44240675 31.1953125 27.9296875 C31.20563507 28.70682098 31.21595764 29.48395447 31.22659302 30.28463745 C31.22699271 32.19125493 31.1223214 34.09731036 31 36 C29 38 29 38 26.11083984 38.22705078 C24.90637207 38.21657715 23.7019043 38.20610352 22.4609375 38.1953125 C21.28837402 38.19031738 20.11581055 38.18532227 18.90771484 38.18017578 C17.41191895 38.16196777 15.91612305 38.14375977 14.375 38.125 C9.63125 38.08375 4.8875 38.0425 0 38 C0 25.46 0 12.92 0 0 Z " fill="#0A3252" transform="translate(65,53)"/>
<path d="M0 0 C0.70837509 0.00718552 1.41675018 0.01437103 2.14659119 0.02177429 C3.23749306 0.02246162 3.23749306 0.02246162 4.35043335 0.02316284 C5.88788993 0.02618468 7.42534346 0.03406899 8.9627533 0.0464325 C11.32427229 0.06469731 13.68539954 0.06694214 16.04698181 0.06669617 C17.53852168 0.07161101 19.03005888 0.07743918 20.52159119 0.08427429 C21.23199051 0.08538712 21.94238983 0.08649994 22.67431641 0.08764648 C27.65163129 0.13618939 27.65163129 0.13618939 28.76768494 1.25224304 C28.76768494 5.87224304 28.76768494 10.49224304 28.76768494 15.25224304 C17.21768494 15.25224304 5.66768494 15.25224304 -6.23231506 15.25224304 C-7.53321338 12.65044642 -7.40071585 10.65532424 -7.41981506 7.75224304 C-7.43399475 6.77255554 -7.44817444 5.79286804 -7.46278381 4.78349304 C-7.01408131 -0.14462939 -4.3165559 0.02020435 0 0 Z " fill="#0F3655" transform="translate(31.232315063476563,31.747756958007813)"/>
<path d="M0 0 C4.6633307 -0.04586883 9.3258814 -0.08570572 13.98925781 -0.10986328 C15.57619883 -0.11993188 17.16312125 -0.13358767 18.75 -0.15087891 C21.02869247 -0.17509001 23.30714006 -0.18647422 25.5859375 -0.1953125 C26.29744965 -0.20563507 27.00896179 -0.21595764 27.74203491 -0.22659302 C29.49631665 -0.22699422 31.24996709 -0.12202209 33 0 C35 2 35 2 35.265625 4.53125 C35.26046875 5.5109375 35.2553125 6.490625 35.25 7.5 C35.25773437 8.96953125 35.25773437 8.96953125 35.265625 10.46875 C35 13 35 13 33 15 C30.49079154 15.17495606 28.09375059 15.23169569 25.5859375 15.1953125 C24.85629791 15.1924826 24.12665833 15.18965271 23.37490845 15.18673706 C21.04143972 15.17553002 18.70835297 15.1504251 16.375 15.125 C14.79427637 15.11497085 13.21354673 15.10584489 11.6328125 15.09765625 C7.75494231 15.07728928 3.87789938 15.03814327 0 15 C0 10.05 0 5.1 0 0 Z " fill="#0A3252" transform="translate(65,32)"/>
<path d="M0 0 C3.72174885 1.92407393 6.30013027 4.25657451 7.875 8.1796875 C8.4375 10.375 8.4375 10.375 9 14 C6.43685501 14.08132187 3.87631582 14.14064175 1.3125 14.1875 C0.2306543 14.22520508 0.2306543 14.22520508 -0.87304688 14.26367188 C-5.44050567 14.3262398 -8.44416246 13.95867398 -12 11 C-13.0625 7.5625 -13.0625 7.5625 -13 4 C-10.1466456 -1.05821916 -5.22486289 -1.14348851 0 0 Z " fill="#F3F5F6" transform="translate(49,11)"/>
<path d="M0 0 C3.0625 2.125 3.0625 2.125 5 5 C5 8.1875 5 8.1875 4 11 C0.9788566 13.0140956 0.19339983 13.26836596 -3.23046875 13.4140625 C-4.03291016 13.45273437 -4.83535156 13.49140625 -5.66210938 13.53125 C-6.49548828 13.5621875 -7.32886719 13.593125 -8.1875 13.625 C-9.03248047 13.66367187 -9.87746094 13.70234375 -10.74804688 13.7421875 C-12.83167524 13.83636279 -14.91580753 13.91926675 -17 14 C-16.27533411 8.23488027 -14.93412691 6.12146628 -11 2 C-7.31357059 -0.45761961 -4.27882152 -0.80591396 0 0 Z " fill="#F8F9FA" transform="translate(83,11)"/>
</svg>
