<?xml version="1.0" encoding="UTF-8"?>
<svg version="1.1" xmlns="http://www.w3.org/2000/svg" width="153" height="50">
<path d="M0 0 C50.49 0 100.98 0 153 0 C153 16.5 153 33 153 50 C102.51 50 52.02 50 0 50 C0 33.5 0 17 0 0 Z " fill="#232121" transform="translate(0,0)"/>
<path d="M0 0 C5.94 0 11.88 0 18 0 C18.33 1.32 18.66 2.64 19 4 C19.66 4 20.32 4 21 4 C21.33 2.68 21.66 1.36 22 0 C23.62418745 -0.08090971 25.24951745 -0.13914995 26.875 -0.1875 C27.77992187 -0.22230469 28.68484375 -0.25710938 29.6171875 -0.29296875 C30.79667969 -0.14794922 30.79667969 -0.14794922 32 0 C32.66 0.99 33.32 1.98 34 3 C34.66 2.01 35.32 1.02 36 0 C37.9453125 -0.29296875 37.9453125 -0.29296875 40.125 -0.1875 C41.40375 -0.125625 42.6825 -0.06375 44 0 C44.04254356 1.99954746 44.04080783 4.00041636 44 6 C43.67 6.33 43.34 6.66 43 7 C42.92680379 9.69654854 42.90757463 12.36691458 42.9375 15.0625 C42.94201172 15.82111328 42.94652344 16.57972656 42.95117188 17.36132812 C42.9629932 19.24091871 42.98092922 21.12046899 43 23 C41.68 23 40.36 23 39 23 C39 20.03 39 17.06 39 14 C38.34 14 37.68 14 37 14 C37 14.7425 37 15.485 37 16.25 C37 18.5 37 20.75 37 23 C37.2981424 24.34164079 37.62243192 25.67851173 38 27 C36.3125 28.5625 36.3125 28.5625 34 30 C31.25 29.6875 31.25 29.6875 29 29 C28.67 27.35 28.34 25.7 28 24 C29.32 23.34 30.64 22.68 32 22 C30.68 21.34 29.36 20.68 28 20 C27.34 20.99 26.68 21.98 26 23 C22.48156769 23.45892595 20.65139498 23.41140736 17.625 21.5 C17.08875 21.005 16.5525 20.51 16 20 C15.67 20.99 15.34 21.98 15 23 C12 23 9 23 6 23 C5.67 23.33 5.34 23.66 5 24 C0.47017205 24.50331422 -3.60795255 24.79545569 -7.625 22.5 C-9.57321117 18.95779788 -9.93000286 15.9464469 -9 12 C-6.875 9.5 -6.875 9.5 -4 8 C-0.6875 7.75 -0.6875 7.75 2 8 C2 7.34 2 6.68 2 6 C1.34 5.67 0.68 5.34 0 5 C0 3.35 0 1.7 0 0 Z " fill="#292626" transform="translate(56,10)"/>
<path d="M0 0 C6.31352895 1.26270579 10.76916804 4.10622618 16.25 7.375 C17.77753906 8.26058594 17.77753906 8.26058594 19.3359375 9.1640625 C20.30273438 9.73640625 21.26953125 10.30875 22.265625 10.8984375 C23.15024414 11.42099121 24.03486328 11.94354492 24.94628906 12.48193359 C27 14 27 14 28 17 C24.08809567 19.32062878 20.16970538 21.63007618 16.25 23.9375 C15.13882812 24.59685547 14.02765625 25.25621094 12.8828125 25.93554688 C11.81289063 26.56396484 10.74296875 27.19238281 9.640625 27.83984375 C8.16384277 28.71177368 8.16384277 28.71177368 6.65722656 29.60131836 C4 31 4 31 0 32 C0 21.44 0 10.88 0 0 Z " fill="#5BA8B6" transform="translate(12,11)"/>
<path d="M0 0 C49.5 0 99 0 150 0 C150 0.33 150 0.66 150 1 C101.16 1.33 52.32 1.66 2 2 C1.67 16.85 1.34 31.7 1 47 C0.67 47 0.34 47 0 47 C0 31.49 0 15.98 0 0 Z " fill="#313030" transform="translate(0,0)"/>
<path d="M0 0 C2.95529457 0.36040178 3.75137927 1.02476855 5.5625 3.3125 C5.913125 2.796875 6.26375 2.28125 6.625 1.75 C8.5625 0.3125 8.5625 0.3125 12.25 0.625 C13.343125 0.851875 14.43625 1.07875 15.5625 1.3125 C16.1875 4.125 16.1875 4.125 16.5625 7.3125 C15.5725 8.7975 15.5725 8.7975 14.5625 10.3125 C11.04406769 10.77142595 9.21389498 10.72390736 6.1875 8.8125 C5.65125 8.3175 5.115 7.8225 4.5625 7.3125 C4.2325 8.3025 3.9025 9.2925 3.5625 10.3125 C-1.84889241 10.67325949 -1.84889241 10.67325949 -4.375 9.125 C-5.4375 7.3125 -5.4375 7.3125 -5.25 4.75 C-4.18108204 1.54324612 -3.41484064 0.43780008 0 0 Z " fill="#DBDAD9" transform="translate(67.4375,22.6875)"/>
<path d="M0 0 C3.465 1.98 3.465 1.98 7 4 C7 4.66 7 5.32 7 6 C4.84448242 7.51220703 4.84448242 7.51220703 1.85546875 9.2578125 C0.78619141 9.88300781 -0.28308594 10.50820313 -1.38476562 11.15234375 C-2.51591797 11.80332031 -3.64707031 12.45429687 -4.8125 13.125 C-5.93205078 13.78371094 -7.05160156 14.44242188 -8.20507812 15.12109375 C-16.61437306 20 -16.61437306 20 -20 20 C-13.33333333 13.33333333 -6.66666667 6.66666667 0 0 Z " fill="#B5446C" transform="translate(33,22)"/>
<path d="M0 0 C-0.25136719 0.93972656 -0.25136719 0.93972656 -0.5078125 1.8984375 C-0.71148437 2.71570313 -0.91515625 3.53296875 -1.125 4.375 C-1.33382812 5.18710937 -1.54265625 5.99921875 -1.7578125 6.8359375 C-1.83773437 7.55007812 -1.91765625 8.26421875 -2 9 C-1.34 9.66 -0.68 10.32 0 11 C-0.1875 13 -0.1875 13 -1 15 C-4 17 -4 17 -6.6875 16.625 C-7.8321875 16.315625 -7.8321875 16.315625 -9 16 C-9.33 14.35 -9.66 12.7 -10 11 C-8.68 10.34 -7.36 9.68 -6 9 C-6.99 8.34 -7.98 7.68 -9 7 C-9.375 4.5 -9.375 4.5 -9 2 C-5.5647952 -0.29013653 -4.014669 -0.17842973 0 0 Z " fill="#E1E0DF" transform="translate(94,23)"/>
<path d="M0 0 C2.31 0 4.62 0 7 0 C9 2 9 2 9.1875 5.5625 C9 9 9 9 8 10 C6.00041636 10.04080783 3.99954746 10.04254356 2 10 C2 11.65 2 13.3 2 15 C1.34 15 0.68 15 0 15 C0 10.05 0 5.1 0 0 Z " fill="#D6D5D4" transform="translate(114,23)"/>
<path d="M0 0 C5.94 0 11.88 0 18 0 C18.33 1.32 18.66 2.64 19 4 C18 5 18 5 16.23413086 5.11352539 C15.48526611 5.10828857 14.73640137 5.10305176 13.96484375 5.09765625 C13.15595703 5.09443359 12.34707031 5.09121094 11.51367188 5.08789062 C10.66353516 5.07951172 9.81339844 5.07113281 8.9375 5.0625 C8.08349609 5.05798828 7.22949219 5.05347656 6.34960938 5.04882812 C4.23304337 5.03700373 2.11651315 5.01906769 0 5 C0 3.35 0 1.7 0 0 Z " fill="#9D9B9A" transform="translate(56,10)"/>
<path d="M0 0 C1.875 1.5 1.875 1.5 3 3 C-0.66666667 3 -4.33333333 3 -8 3 C-8.44187074 8.04796761 -8.44187074 8.04796761 -6.25 12.4375 C-3.90897434 14.38026387 -3.90897434 14.38026387 0 14 C0.33 13.34 0.66 12.68 1 12 C0.01 12 -0.98 12 -2 12 C-2 11.34 -2 10.68 -2 10 C-0.35 10 1.3 10 3 10 C3 11.65 3 13.3 3 15 C-0.20841035 16.60420518 -3.5193987 16.47462745 -7 16 C-9.5 14.5 -9.5 14.5 -11 12 C-11.60443392 9.19082139 -11.66040854 6.80242927 -11 4 C-7.72595624 0.14818382 -4.97479993 -0.75703477 0 0 Z " fill="#E1E0E0" transform="translate(58,18)"/>
<path d="M0 0 C4.46182436 1.31074365 7.99618757 3.07066011 11.875 5.625 C12.84179688 6.25664062 13.80859375 6.88828125 14.8046875 7.5390625 C15.52914063 8.02117188 16.25359375 8.50328125 17 9 C16.01 10.32 15.02 11.64 14 13 C10.15933963 11.43528652 7.86966685 8.93965873 5 6 C3.6078125 4.9171875 3.6078125 4.9171875 2.1875 3.8125 C1.465625 3.214375 0.74375 2.61625 0 2 C0 1.34 0 0.68 0 0 Z " fill="#B0E0AC" transform="translate(16,13)"/>
<path d="M0 0 C2.375 -0.125 2.375 -0.125 5 0 C7 2 7 2 7.1953125 3.9453125 C7.13020833 5.96354167 7.06510417 7.98177083 7 10 C4.1875 10.625 4.1875 10.625 1 11 C0.01 10.34 -0.98 9.68 -2 9 C-1.67 7.68 -1.34 6.36 -1 5 C0.98 4.67 2.96 4.34 5 4 C5 3.34 5 2.68 5 2 C3.35 2 1.7 2 0 2 C0 1.34 0 0.68 0 0 Z " fill="#AAA7A6" transform="translate(130,23)"/>
<path d="M0 0 C3.465 1.98 3.465 1.98 7 4 C7 4.66 7 5.32 7 6 C4.75 7.75 4.75 7.75 2 9 C-1.05194148 8.10237015 -2.88604516 6.32535032 -5 4 C-3.35 2.68 -1.7 1.36 0 0 Z " fill="#EE9A74" transform="translate(33,22)"/>
<path d="M0 0 C0.99 0.33 1.98 0.66 3 1 C3.33 2.98 3.66 4.96 4 7 C4.66 7 5.32 7 6 7 C6.185625 5.5459375 6.185625 5.5459375 6.375 4.0625 C6.58125 3.051875 6.7875 2.04125 7 1 C7.66 0.67 8.32 0.34 9 0 C8.49514774 5.04852255 7.07734828 9.90663832 4 14 C1.86328125 14.73046875 1.86328125 14.73046875 0 15 C0 14.34 0 13.68 0 13 C0.99 12.67 1.98 12.34 3 12 C2.25749403 7.91621717 1.17076699 3.98060777 0 0 Z " fill="#D8D6D5" transform="translate(137,23)"/>
<path d="M0 0 C0.78375 0.04125 1.5675 0.0825 2.375 0.125 C2.375 1.445 2.375 2.765 2.375 4.125 C1.055 4.455 -0.265 4.785 -1.625 5.125 C-0.87349977 8.40273504 -0.87349977 8.40273504 2.375 10.125 C0 10.25 0 10.25 -2.625 10.125 C-4.625 8.125 -4.625 8.125 -4.875 5.125 C-4.55416156 1.2749387 -3.94115238 0.18767392 0 0 Z " fill="#989594" transform="translate(103.625,22.875)"/>
<path d="M0 0 C1.32 0 2.64 0 4 0 C4.33 4.95 4.66 9.9 5 15 C3.68 15 2.36 15 1 15 C0.67 10.05 0.34 5.1 0 0 Z " fill="#D7D4D2" transform="translate(94,18)"/>
<path d="M0 0 C2.97 0 5.94 0 9 0 C3.375 6.75 3.375 6.75 0 9 C0 6.03 0 3.06 0 0 Z " fill="#7FC3BF" transform="translate(12,34)"/>
<path d="M0 0 C3.3 0 6.6 0 10 0 C10.33 0.99 10.66 1.98 11 3 C10.34 3 9.68 3 9 3 C9 3.66 9 4.32 9 5 C8.34 5 7.68 5 7 5 C7 4.34 7 3.68 7 3 C6.34 3 5.68 3 5 3 C5 3.66 5 4.32 5 5 C3.02 5 1.04 5 -1 5 C-0.67 3.35 -0.34 1.7 0 0 Z " fill="#BBB9B9" transform="translate(78,10)"/>
<path d="M0 0 C-0.66 0.66 -1.32 1.32 -2 2 C-2.66 1.67 -3.32 1.34 -4 1 C-3.67 2.65 -3.34 4.3 -3 6 C-4.875 7.0625 -4.875 7.0625 -7 8 C-7.66 7.67 -8.32 7.34 -9 7 C-9.1875 4.625 -9.1875 4.625 -9 2 C-5.5647952 -0.29013653 -4.014669 -0.17842973 0 0 Z " fill="#D2D0D0" transform="translate(94,23)"/>
<path d="M0 0 C6.52307692 -0.36923077 6.52307692 -0.36923077 8.9375 1.5 C9.288125 1.995 9.63875 2.49 10 3 C6.3558226 5.4294516 4.28758728 5.16179575 0 5 C0 3.35 0 1.7 0 0 Z " fill="#BBB8B8" transform="translate(56,10)"/>
<path d="M0 0 C2.0625 0.4375 2.0625 0.4375 4 1 C4 3.31 4 5.62 4 8 C2.68 8 1.36 8 0 8 C-0.38063221 5.6739143 -0.71269945 3.33944736 -1 1 C-0.67 0.67 -0.34 0.34 0 0 Z " fill="#282524" transform="translate(77,24)"/>
<path d="M0 0 C1.32 0.66 2.64 1.32 4 2 C4 3.98 4 5.96 4 8 C2.35 7.67 0.7 7.34 -1 7 C-1.04254356 5.00045254 -1.04080783 2.99958364 -1 1 C-0.67 0.67 -0.34 0.34 0 0 Z " fill="#252222" transform="translate(66,24)"/>
<path d="M0 0 C1.32 0 2.64 0 4 0 C4 1.98 4 3.96 4 6 C2.0625 6.5625 2.0625 6.5625 0 7 C-1 6 -1 6 -1.125 3.5 C-1 1 -1 1 0 0 Z " fill="#2F2C2C" transform="translate(117,25)"/>
<path d="M0 0 C2.33944736 0.28730055 4.6739143 0.61936779 7 1 C7 1.99 7 2.98 7 4 C5.02 4.99 5.02 4.99 3 6 C1.68 4.35 0.36 2.7 -1 1 C-0.67 0.67 -0.34 0.34 0 0 Z " fill="#CFECA9" transform="translate(25,20)"/>
<path d="M0 0 C2.31 0 4.62 0 7 0 C7 1.65 7 3.3 7 5 C4.36 5 1.72 5 -1 5 C-0.67 3.35 -0.34 1.7 0 0 Z " fill="#BDBBBA" transform="translate(48,10)"/>
<path d="M0 0 C2.475 0.495 2.475 0.495 5 1 C5.144375 1.61875 5.28875 2.2375 5.4375 2.875 C5.93152225 5.03258322 5.93152225 5.03258322 7 7 C4.69 7 2.38 7 0 7 C0 4.69 0 2.38 0 0 Z " fill="#3C90AE" transform="translate(12,11)"/>
<path d="M0 0 C1.9375 0.75 1.9375 0.75 4 2 C4.75 4.125 4.75 4.125 5 6 C4.34 6 3.68 6 3 6 C2.67 6.99 2.34 7.98 2 9 C0.68 8.67 -0.64 8.34 -2 8 C-1.01 8 -0.02 8 1 8 C0.67 5.36 0.34 2.72 0 0 Z " fill="#CDCBCB" transform="translate(69,24)"/>
<path d="M0 0 C3.63 0.33 7.26 0.66 11 1 C9.68 2.32 8.36 3.64 7 5 C3.90837736 3.61410019 2.50816459 2.50816459 0 0 Z " fill="#EFAF75" transform="translate(28,26)"/>
<path d="M0 0 C1.9375 0.8125 1.9375 0.8125 4 2 C4.33 2.99 4.66 3.98 5 5 C2.69 4.67 0.38 4.34 -2 4 C-1.34 2.68 -0.68 1.36 0 0 Z " fill="#D74A51" transform="translate(28,27)"/>
<path d="M0 0 C2.475 0.495 2.475 0.495 5 1 C3.63016497 4.16115776 3.0109362 4.9927092 0 7 C0 4.69 0 2.38 0 0 Z " fill="#8ECFC6" transform="translate(12,36)"/>
<path d="M0 0 C0.66 0 1.32 0 2 0 C2.268125 0.94875 2.53625 1.8975 2.8125 2.875 C3.74986588 6.25267273 3.74986588 6.25267273 7 8 C4.625 8.125 4.625 8.125 2 8 C0 6 0 6 -0.125 2.875 C-0.08375 1.92625 -0.0425 0.9775 0 0 Z " fill="#EEECEB" transform="translate(99,25)"/>
<path d="M0 0 C2.64 0 5.28 0 8 0 C8 0.66 8 1.32 8 2 C5.69 2.66 3.38 3.32 1 4 C0.67 2.68 0.34 1.36 0 0 Z " fill="#282525" transform="translate(127,25)"/>
<path d="M0 0 C1.875 1.5 1.875 1.5 3 3 C-0.33333333 3 -3.66666667 3 -7 3 C-7.33 2.34 -7.66 1.68 -8 1 C-5.20129973 -0.39935013 -3.09501208 -0.25265405 0 0 Z " fill="#BEBCBB" transform="translate(58,18)"/>
<path d="M0 0 C1.65 0.33 3.3 0.66 5 1 C4.67 1.99 4.34 2.98 4 4 C2.35 3.67 0.7 3.34 -1 3 C-0.67 2.01 -0.34 1.02 0 0 Z " fill="#1C1919" transform="translate(87,34)"/>
<path d="M0 0 C0.99 0.33 1.98 0.66 3 1 C3.12375 1.969375 3.2475 2.93875 3.375 3.9375 C3.684375 5.4534375 3.684375 5.4534375 4 7 C4.66 7.33 5.32 7.66 6 8 C5.01 8.33 4.02 8.66 3 9 C2.01 6.03 1.02 3.06 0 0 Z " fill="#CAC6C4" transform="translate(137,23)"/>
<path d="M0 0 C0.99 0.66 1.98 1.32 3 2 C0.69 3.65 -1.62 5.3 -4 7 C-4.66 6.67 -5.32 6.34 -6 6 C-4.02 4.02 -2.04 2.04 0 0 Z " fill="#96457B" transform="translate(19,36)"/>
<path d="M0 0 C1.98 0.66 3.96 1.32 6 2 C5.01 2.99 4.02 3.98 3 5 C2.67 4.34 2.34 3.68 2 3 C1.01 3 0.02 3 -1 3 C-0.67 2.01 -0.34 1.02 0 0 Z " fill="#C0425C" transform="translate(25,30)"/>
<path d="M0 0 C1.32 0.33 2.64 0.66 4 1 C3.67 2.32 3.34 3.64 3 5 C2.01 4.67 1.02 4.34 0 4 C0 2.68 0 1.36 0 0 Z " fill="#2A2727" transform="translate(87,25)"/>
<path d="M0 0 C5.75 1.75 5.75 1.75 8 4 C6.02 4 4.04 4 2 4 C1.34 2.68 0.68 1.36 0 0 Z " fill="#87CBA8" transform="translate(16,13)"/>
<path d="M0 0 C1.32 0 2.64 0 4 0 C4 1.65 4 3.3 4 5 C2.68 5 1.36 5 0 5 C0 3.35 0 1.7 0 0 Z " fill="#B4B2B1" transform="translate(96,10)"/>
<path d="M0 0 C1.32 0.33 2.64 0.66 4 1 C3.67 2.32 3.34 3.64 3 5 C2.01 4.67 1.02 4.34 0 4 C0 2.68 0 1.36 0 0 Z " fill="#BAB8B8" transform="translate(71,10)"/>
</svg>
