<svg xmlns="http://www.w3.org/2000/svg" width="18.711" height="15.549" viewBox="0 0 18.711 15.549">
    <defs>
        <style>
            .cls-1{stroke:#000;stroke-width:.2px}
        </style>
    </defs>
    <g id="group" transform="translate(.1 .1)">
        <g id="Group_22156" data-name="Group 22156" transform="translate(0 6.723)">
            <g id="Group_22155" data-name="Group 22155">
                <path id="Path_16721" data-name="Path 16721" class="cls-1" d="M15.8 231.071h-1.813a2.7 2.7 0 0 0-.713.1 2.714 2.714 0 0 0-2.418-1.487h-3.2a2.714 2.714 0 0 0-2.418 1.487 2.7 2.7 0 0 0-.713-.1H2.712A2.715 2.715 0 0 0 0 233.782v2.9a1.629 1.629 0 0 0 1.627 1.627h15.257a1.629 1.629 0 0 0 1.627-1.627v-2.9a2.715 2.715 0 0 0-2.711-2.711zm-10.858 1.321v4.83H1.627a.543.543 0 0 1-.542-.542v-2.9a1.629 1.629 0 0 1 1.627-1.627h1.811a1.622 1.622 0 0 1 .425.057c-.003.062-.006.121-.006.182zm7.541 4.83H6.027v-4.83a1.629 1.629 0 0 1 1.627-1.627h3.2a1.629 1.629 0 0 1 1.627 1.627zm4.942-.542a.543.543 0 0 1-.542.542h-3.315v-4.83c0-.06 0-.12-.007-.179a1.623 1.623 0 0 1 .425-.057H15.8a1.629 1.629 0 0 1 1.627 1.627z" transform="translate(0 -229.68)"/>
            </g>
        </g>
        <g id="Group_22158" data-name="Group 22158" transform="translate(1.208 2.993)">
            <g id="Group_22157" data-name="Group 22157">
                <path id="Path_16722" data-name="Path 16722" class="cls-1" d="M35.823 126.5a2.41 2.41 0 1 0 2.41 2.41 2.412 2.412 0 0 0-2.41-2.41zm0 3.734a1.325 1.325 0 1 1 1.325-1.325 1.326 1.326 0 0 1-1.325 1.329z" transform="translate(-33.414 -126.504)"/>
            </g>
        </g>
        <g id="Group_22160" data-name="Group 22160" transform="translate(6.036)">
            <g id="Group_22159" data-name="Group 22159">
                <path id="Path_16723" data-name="Path 16723" class="cls-1" d="M170.181 43.729a3.219 3.219 0 1 0 3.219 3.219 3.223 3.223 0 0 0-3.219-3.219zm0 5.354a2.134 2.134 0 1 1 2.134-2.134 2.137 2.137 0 0 1-2.134 2.134z" transform="translate(-166.962 -43.729)"/>
            </g>
        </g>
        <g id="Group_22162" data-name="Group 22162" transform="translate(12.484 2.993)">
            <g id="Group_22161" data-name="Group 22161">
                <path id="Path_16724" data-name="Path 16724" class="cls-1" d="M347.7 126.5a2.41 2.41 0 1 0 2.41 2.41 2.412 2.412 0 0 0-2.41-2.41zm0 3.734a1.325 1.325 0 1 1 1.325-1.325 1.326 1.326 0 0 1-1.325 1.329z" transform="translate(-345.294 -126.504)"/>
            </g>
        </g>
    </g>
</svg>
