<svg id="money" xmlns="http://www.w3.org/2000/svg" width="23.511" height="23.511" viewBox="0 0 23.511 23.511">
  <defs>
    <style>
      .cls-1 {
        fill: #6d7585;
      }
    </style>
  </defs>
  <path id="Path_10851" data-name="Path 10851" class="cls-1" d="M180.373,13.182A3.64,3.64,0,0,0,183.7,8.065a3.633,3.633,0,0,0,0-2.951,3.64,3.64,0,1,0-6.654,0,3.633,3.633,0,0,0,0,2.951,3.64,3.64,0,0,0,3.327,5.117Zm0-11.8a2.262,2.262,0,1,1-2.262,2.262,2.265,2.265,0,0,1,2.262-2.262Zm-2.26,5.113h0a3.628,3.628,0,0,0,4.52,0h0q0,.05,0,.1a2.262,2.262,0,0,1-4.525,0c0-.033,0-.067,0-.1Zm0,2.951h0a3.628,3.628,0,0,0,4.52,0h0q0,.05,0,.1a2.262,2.262,0,0,1-4.525,0Q178.111,9.492,178.113,9.442Z" transform="translate(-168.617 0)"/>
  <path id="Path_10852" data-name="Path 10852" class="cls-1" d="M23.459,286.638a.687.687,0,0,0-.151-.225,3.818,3.818,0,0,0-5.4,0l-2.521,2.521a2.163,2.163,0,0,0-2.157-1.984H8.067a3.628,3.628,0,0,0-2.565,1.06,2.162,2.162,0,0,0-1.862-1.06H2.164A2.164,2.164,0,0,0,0,289.115v4.427a2.164,2.164,0,0,0,2.164,2.164H14.707a.689.689,0,0,0,.487-.2l8.116-8.116a.689.689,0,0,0,.149-.751Zm-19.032,7.69H2.164a.786.786,0,0,1-.787-.787v-4.427a.786.786,0,0,1,.787-.787H3.64a.786.786,0,0,1,.787.787v5.213Zm9.995,0H5.8v-3.738a2.265,2.265,0,0,1,2.262-2.262h5.164a.787.787,0,0,1,0,1.574H9.542a.689.689,0,1,0,0,1.378h5.164a.688.688,0,0,0,.487-.2l3.689-3.689a2.444,2.444,0,0,1,2.9-.418Z" transform="translate(0 -272.195)"/>
</svg>
