<svg xmlns="http://www.w3.org/2000/svg" width="18.2" height="20.203" viewBox="0 0 18.2 20.203">
  <g id="LINE_EXPAND" data-name="LINE EXPAND" transform="translate(-3.9 -0.899)">
    <path id="Path_66084" data-name="Path 66084" d="M13,21a.826.826,0,0,1-.36-.08C7.311,18.341,4,13.376,4,7.981V5a.668.668,0,0,1,.443-.607l8.25-3.334a.836.836,0,0,1,.615,0l8.25,3.334A.668.668,0,0,1,22,5v2.98c0,5.395-3.311,10.36-8.64,12.941A.826.826,0,0,1,13,21ZM5.5,5.428V7.981A13.2,13.2,0,0,0,13,19.569,13.2,13.2,0,0,0,20.5,7.981V5.428L13,2.4Z" transform="translate(0)" fill="#171a21" stroke="#fff" stroke-width="0.2"/>
    <path id="Path_66085" data-name="Path 66085" d="M14.249,17.374a.75.75,0,0,1-.533-.218l-1.5-1.5a.753.753,0,0,1,1.065-1.065l.968.975,2.843-2.85a.753.753,0,0,1,1.065,1.065l-3.375,3.375A.75.75,0,0,1,14.249,17.374Z" transform="translate(-1.999 -4.096)" fill="#171a21" stroke="#fff" stroke-width="0.2"/>
  </g>
</svg>
