<svg xmlns="http://www.w3.org/2000/svg" width="49" height="48.933" viewBox="0 0 49 48.933">
    <defs>
        <style>
            .cls-2{fill:#143a72}
        </style>
    </defs>
    <g id="Group_23191" data-name="Group 23191" transform="translate(-713 -3319.067)">
        <circle id="Ellipse_825" data-name="Ellipse 825" cx="5" cy="5" r="5" transform="translate(752 3319.067)" style="fill:#cef5e1"/>
        <g id="Group_21704" data-name="Group 21704" transform="translate(-2335.289 -9535.113)">
            <g id="house" transform="translate(3048.289 12855.113)">
                <path id="Path_10906" data-name="Path 10906" class="cls-2" d="M386.086 13.024a6.2 6.2 0 1 0-6.18-6.2 6.195 6.195 0 0 0 6.18 6.2zm0-9.576a3.381 3.381 0 1 1-3.373 3.381 3.381 3.381 0 0 1 3.373-3.381z" transform="translate(-344.359 -.634)"/>
                <path id="Path_10907" data-name="Path 10907" class="cls-2" d="M46.6 45.955h-1V33.4a1.4 1.4 0 0 0 1.841-2.123l-4.121-3.661v-7.292a1.4 1.4 0 1 0-2.807 0v4.8l-7.36-6.545v-7.286a10.484 10.484 0 1 0-20.968 0v3.056A45.283 45.283 0 0 0 9.04 9.274a1.4 1.4 0 0 0-2.258 0C6.509 9.645.09 18.439.09 25.863a21.974 21.974 0 0 0 2.03 9.655c1.155 2.3 2.679 3.776 4.387 4.3v6.138H1.4a1.407 1.407 0 0 0 0 2.814h45.2a1.407 1.407 0 0 0 0-2.814zm-22.46 0h-2.811V35.5h2.807zm1.4-13.266h-5.614a1.405 1.405 0 0 0-1.4 1.407v11.859h-2.811V30.9l13.536-12.034L42.787 30.9v15.055H26.943V34.1a1.405 1.405 0 0 0-1.403-1.41zm-10.547-21.4a7.677 7.677 0 1 1 15.353 0v4.786l-.164-.146a1.4 1.4 0 0 0-1.863 0L24 19.773v-7.48a1.4 1.4 0 1 0-2.807 0v4.287l-.935-.947a1.405 1.405 0 1 0-1.995 1.98L21.2 20.58v1.689l-4.45 3.957a9.667 9.667 0 0 1-1.079-1.678 19.431 19.431 0 0 0-.674-3.47zM4.626 34.251A19.134 19.134 0 0 1 2.9 25.863c0-4.74 3.24-10.464 5.014-13.242a37.871 37.871 0 0 1 4.311 8.967 1.39 1.39 0 0 0 .049.164 15.034 15.034 0 0 1 .653 4.111 23.038 23.038 0 0 1-.353 4.075l-1.5 1.336a1.406 1.406 0 0 0 .414 2.359c-.092.211-.186.418-.287.617-.947 1.883-2.144 2.963-3.284 2.963s-2.337-1.08-3.284-2.963zm4.688 5.566a6.922 6.922 0 0 0 3.594-2.936v9.074H9.314z" transform="translate(0 -.769)"/>
                <path id="Path_10908" data-name="Path 10908" class="cls-2" d="M321.5 350.554h6.783a1.405 1.405 0 0 0 1.4-1.407v-6.8a1.405 1.405 0 0 0-1.4-1.407H321.5a1.405 1.405 0 0 0-1.4 1.407v6.8a1.405 1.405 0 0 0 1.4 1.407zm1.4-6.8h3.975v3.985H322.9z" transform="translate(-290.147 -309.02)"/>
            </g>
        </g>
    </g>
</svg>
