<?xml version="1.0" encoding="UTF-8"?>
<svg version="1.1" xmlns="http://www.w3.org/2000/svg" width="83" height="102">
<path d="M0 0 C27.39 0 54.78 0 83 0 C83 33.66 83 67.32 83 102 C55.61 102 28.22 102 0 102 C0 68.34 0 34.68 0 0 Z " fill="#FEFEFE" transform="translate(0,0)"/>
<path d="M0 0 C2.83354157 1.28944587 4.88940725 2.64023465 7.08447266 4.84155273 C7.94523911 5.69770424 7.94523911 5.69770424 8.82339478 6.57115173 C9.7345253 7.49306053 9.7345253 7.49306053 10.6640625 8.43359375 C11.29734467 9.06733414 11.93062683 9.70107452 12.58309937 10.35401917 C13.91845165 11.69238757 15.2513776 13.03318065 16.58203125 14.3762207 C18.6192793 16.43172802 20.66441864 18.47911762 22.7109375 20.52539062 C24.00828542 21.82765403 25.3051761 23.13037316 26.6015625 24.43359375 C27.21303131 25.04617538 27.82450012 25.65875702 28.45449829 26.28990173 C29.02203827 26.86382156 29.58957825 27.43774139 30.17431641 28.02905273 C30.67299225 28.53154037 31.17166809 29.03402802 31.68545532 29.55174255 C35.27386525 33.50515812 35.30706518 36.70983939 35.30078125 41.7734375 C35.30506638 42.53419586 35.3093515 43.29495422 35.31376648 44.07876587 C35.31950647 45.68759161 35.32001246 47.29644331 35.31567383 48.90527344 C35.31252033 51.35917833 35.33595294 53.81186973 35.36132812 56.265625 C35.36360191 57.83072765 35.36430425 59.39583353 35.36328125 60.9609375 C35.372491 61.69130219 35.38170074 62.42166687 35.39118958 63.17416382 C35.3510021 67.63026259 34.76653965 70.47275324 32 74 C29 76 29 76 12 76 C11.67 64.78 11.34 53.56 11 42 C4.4 42 -2.2 42 -9 42 C-9.33 53.22 -9.66 64.44 -10 76 C-27 76 -27 76 -33 71 C-33.65183537 67.98958285 -33.91329121 65.78104954 -33.90234375 62.76953125 C-33.92162682 61.58383797 -33.92162682 61.58383797 -33.94129944 60.37419128 C-33.95848468 58.70421941 -33.96006214 57.03402305 -33.94702148 55.36401367 C-33.93758162 52.83437201 -34.0077125 50.31543577 -34.08398438 47.78710938 C-34.25260815 34.29653942 -34.25260815 34.29653942 -29.2265625 28.61328125 C-27.5113645 27.04547379 -25.76655536 25.50970412 -24 24 C-22.46179599 22.486946 -20.95812228 20.94393715 -19.45381165 19.39723206 C-16.81494218 16.68987537 -14.12139754 14.0375872 -11.4375 11.375 C-10.32202917 10.26456039 -9.20679339 9.15388462 -8.09179688 8.04296875 C-5.39722369 5.35925841 -2.69952327 2.67873064 0 0 Z " fill="#054B82" transform="translate(39,15)"/>
</svg>
