<?xml version="1.0" encoding="UTF-8"?>
<svg version="1.1" xmlns="http://www.w3.org/2000/svg" width="225" height="225">
<path d="M0 0 C74.25 0 148.5 0 225 0 C225 74.25 225 148.5 225 225 C150.75 225 76.5 225 0 225 C0 150.75 0 76.5 0 0 Z " fill="#000000" transform="translate(0,0)"/>
<path d="M0 0 C4.67044918 1.2264835 6.88030916 3.24598077 10.21875 6.6015625 C10.78190918 7.14554688 11.34506836 7.68953125 11.92529297 8.25 C13.53659234 9.81247212 15.12856038 11.39266236 16.71875 12.9765625 C17.47414062 13.70617188 18.22953125 14.43578125 19.0078125 15.1875 C20.6147959 16.75345404 22.17698365 18.3468275 23.71875 19.9765625 C24.358125 20.6365625 24.9975 21.2965625 25.65625 21.9765625 C27.28067132 25.03429674 27.02714752 27.58418975 26.71875 30.9765625 C26.05875 31.9665625 25.39875 32.9565625 24.71875 33.9765625 C21.40757354 34.62697216 19.8926017 34.83598326 16.71875 33.9765625 C14.09179687 32.15942383 14.09179687 32.15942383 11.4375 29.93359375 C10.54998047 29.19729736 9.66246094 28.46100098 8.74804688 27.70239258 C8.07837891 27.13286865 7.40871094 26.56334473 6.71875 25.9765625 C6.72541183 26.94931122 6.73207367 27.92205994 6.73893738 28.92428589 C6.79966721 38.07706884 6.84468342 47.22981109 6.87418652 56.38274956 C6.88986411 61.08874767 6.91114036 65.79458355 6.94506836 70.50048828 C6.97758745 75.0392123 6.99558723 79.57777998 7.00338173 84.11661148 C7.00893868 85.85103951 7.01978963 87.58545867 7.03594017 89.3198204 C7.05761587 91.74318908 7.06072113 94.16590597 7.05932617 96.58935547 C7.070112 97.31152252 7.08089783 98.03368958 7.0920105 98.77774048 C7.07951355 100.77487183 7.07951355 100.77487183 6.71875 103.9765625 C3.20050489 106.32205924 1.86099306 106.55647653 -2.28125 105.9765625 C-4.33338998 104.35645199 -5.65711144 102.98072233 -7.28125 100.9765625 C-7.87808594 100.27144531 -8.47492188 99.56632812 -9.08984375 98.83984375 C-13.57907411 93.40551226 -17.53487917 87.72149089 -21.3828125 81.8203125 C-23.53484302 78.59669476 -25.84217512 75.53539626 -28.25 72.5 C-29.28125 70.9765625 -29.28125 70.9765625 -29.28125 68.9765625 C-29.94125 68.9765625 -30.60125 68.9765625 -31.28125 68.9765625 C-31.27077637 69.92499023 -31.26030273 70.87341797 -31.24951172 71.85058594 C-31.21538292 75.37665241 -31.19032832 78.90254279 -31.17138672 82.42871094 C-31.16134256 83.95347873 -31.14770469 85.47822734 -31.13037109 87.00292969 C-31.10605262 89.19731388 -31.09475111 91.39144292 -31.0859375 93.5859375 C-31.07546387 94.90561523 -31.06499023 96.22529297 -31.05419922 97.58496094 C-31.26622829 100.75217368 -31.47363187 102.4187115 -33.28125 104.9765625 C-36.28125 106.9765625 -36.28125 106.9765625 -38.78125 106.7265625 C-41.28125 105.9765625 -41.28125 105.9765625 -44.28125 103.9765625 C-44.66220093 101.39575195 -44.66220093 101.39575195 -44.66943359 98.08984375 C-44.68361832 96.23782349 -44.68361832 96.23782349 -44.6980896 94.34838867 C-44.69272007 92.9952767 -44.68656716 91.64216764 -44.6796875 90.2890625 C-44.68170762 88.90665534 -44.68461854 87.52424921 -44.68838501 86.1418457 C-44.69281135 83.24322371 -44.68636773 80.34487887 -44.67236328 77.44628906 C-44.65527075 73.72683147 -44.66511034 70.00802323 -44.68308067 66.28858948 C-44.69391042 63.43358448 -44.690476 60.57873397 -44.6826973 57.72372437 C-44.68069302 56.3521619 -44.68316254 54.98058551 -44.69013596 53.60903931 C-44.69773621 51.69378927 -44.68410228 49.77849019 -44.66943359 47.86328125 C-44.66704681 46.77233154 -44.66466003 45.68138184 -44.66220093 44.55737305 C-44.53648712 43.70570557 -44.41077332 42.85403809 -44.28125 41.9765625 C-41.0055583 39.79276804 -40.08054471 39.43380611 -36.28125 39.9765625 C-31.33157764 43.23090818 -28.32094777 47.70656452 -24.96875 52.4765625 C-24.39987061 53.27521729 -23.83099121 54.07387207 -23.24487305 54.89672852 C-18.79446932 61.17248575 -14.48005956 67.52957144 -10.28125 73.9765625 C-9.29125 75.4615625 -9.29125 75.4615625 -8.28125 76.9765625 C-8.28125 60.1465625 -8.28125 43.3165625 -8.28125 25.9765625 C-14.22125 30.4315625 -14.22125 30.4315625 -20.28125 34.9765625 C-25.28125 33.9765625 -25.28125 33.9765625 -27.15625 32.3515625 C-28.80187922 28.87745636 -28.14427019 26.67968131 -27.28125 22.9765625 C-25.28759766 20.28588867 -25.28759766 20.28588867 -22.6953125 17.76953125 C-21.29925781 16.39571289 -21.29925781 16.39571289 -19.875 14.99414062 C-18.88553967 14.05065224 -17.89595506 13.10729417 -16.90625 12.1640625 C-15.92315932 11.20251945 -14.94137437 10.23963949 -13.9609375 9.27539062 C-4.40999661 -0.03149998 -4.40999661 -0.03149998 0 0 Z " fill="#FBFBFB" transform="translate(110.28125,34.0234375)"/>
<path d="M0 0 C9.42342791 4.9591388 15.93709455 11.45642728 19.24902344 21.63671875 C20.95418429 30.65654158 20.61560712 39.99173004 15.66699219 47.84765625 C15.25449219 48.54375 14.84199219 49.23984375 14.41699219 49.95703125 C9.75263172 57.00657604 2.5730015 61.14575113 -5.33300781 63.84765625 C-10.68522196 64.84596334 -15.96758506 65.09225063 -21.39550781 65.16015625 C-22.56049805 65.20366211 -22.56049805 65.20366211 -23.74902344 65.24804688 C-24.51021484 65.25642578 -25.27140625 65.26480469 -26.05566406 65.2734375 C-26.7337915 65.28802002 -27.41191895 65.30260254 -28.1105957 65.31762695 C-31.87907655 64.52071103 -33.55900581 63.60041557 -36.33300781 60.84765625 C-37.21938959 56.700481 -37.07703157 52.60771232 -36.98925781 48.3828125 C-36.98551147 47.15735214 -36.98176514 45.93189178 -36.97790527 44.66929626 C-36.96446005 42.07767864 -36.93662213 39.48610175 -36.89550781 36.89477539 C-36.83330048 32.92881522 -36.8135765 28.96444617 -36.80175781 24.99804688 C-36.78341284 22.48044939 -36.76265972 19.96286806 -36.73925781 17.4453125 C-36.73075806 16.2587355 -36.7222583 15.07215851 -36.71350098 13.84962463 C-36.69428589 12.74175095 -36.6750708 11.63387726 -36.65527344 10.49243164 C-36.64161743 9.52076553 -36.62796143 8.54909943 -36.6138916 7.54798889 C-36.31112383 4.63727023 -35.61903718 2.46961009 -34.33300781 -0.15234375 C-26.46351924 -5.75986045 -8.40857851 -3.71389782 0 0 Z " fill="#F7F7F7" transform="translate(160.3330078125,76.15234375)"/>
<path d="M0 0 C15.43315508 0 15.43315508 0 21.66796875 5.4609375 C25.846848 10.28931998 27.47772176 14.34657304 27.3125 20.625 C26.61038895 25.96104396 24.13397694 30.25651445 20.1875 33.875 C13.29232193 38.47178538 8.54806303 38 0 38 C0 25.46 0 12.92 0 0 Z " fill="#010101" transform="translate(139,88)"/>
<path d="M0 0 C2.74448212 2.10815021 3.86879117 3.30180281 4.5146637 6.73866272 C4.52086227 7.78662521 4.52706085 8.83458771 4.53344727 9.91430664 C4.5492836 11.10556656 4.56511993 12.29682648 4.58143616 13.52418518 C4.57647629 14.80655563 4.57151642 16.08892609 4.56640625 17.41015625 C4.57260483 18.72914413 4.57880341 20.04813202 4.58518982 21.40708923 C4.59558669 24.19548017 4.59104215 26.98336051 4.57641602 29.77172852 C4.55920374 33.34566961 4.58275349 36.91800667 4.61790562 40.49176884 C4.6451339 43.90216053 4.63514735 47.31216071 4.62890625 50.72265625 C4.64216446 52.00705093 4.65542267 53.29144562 4.66908264 54.61476135 C4.65654953 55.80286911 4.64401642 56.99097687 4.63110352 58.21508789 C4.62966087 59.78583824 4.62966087 59.78583824 4.62818909 61.38832092 C4 64 4 64 1.62461853 65.87327576 C-1.50076903 67.21497547 -2.81751742 67.08874404 -6 66 C-6.99 65.34 -7.98 64.68 -9 64 C-9.38095093 61.46388245 -9.38095093 61.46388245 -9.38818359 58.22094727 C-9.39764008 57.00951553 -9.40709656 55.7980838 -9.4168396 54.54994202 C-9.41076691 53.23537521 -9.40469421 51.92080841 -9.3984375 50.56640625 C-9.40045786 49.20881494 -9.40336898 47.85122468 -9.40713501 46.49363708 C-9.41156172 43.64628787 -9.40511757 40.79922075 -9.39111328 37.9519043 C-9.37403696 34.30204286 -9.38384977 30.65284395 -9.40183067 27.00300694 C-9.41267332 24.19857292 -9.40921979 21.39429585 -9.4014473 18.5898571 C-9.39847195 16.58956854 -9.40758503 14.58927388 -9.4168396 12.58900452 C-9.40738312 11.37442062 -9.39792664 10.15983673 -9.38818359 8.90844727 C-9.38579681 7.83748306 -9.38341003 6.76651886 -9.38095093 5.6631012 C-9 3 -9 3 -7.65933228 1.1580658 C-5.02689143 -0.67914291 -3.11553199 -0.445076 0 0 Z " fill="#F8F8F8" transform="translate(50,74)"/>
<path d="M0 0 C3.56237827 0.39795074 5.97511422 0.43886895 9.5625 -0.1875 C12.625 -0.5 12.625 -0.5 15 1.25 C17.71166519 5.00461334 17.76095391 8.05496746 17.75 12.5625 C17.75386719 14.15771484 17.75386719 14.15771484 17.7578125 15.78515625 C17.625 18.5 17.625 18.5 16.625 20.5 C15.305 20.17 13.985 19.84 12.625 19.5 C11.965 14.55 11.305 9.6 10.625 4.5 C9.305 4.83 7.985 5.16 6.625 5.5 C4.99683837 8.75632326 5.33659951 12.36842662 5.19921875 15.96875 C4.625 18.5 4.625 18.5 2.58203125 19.84375 C1.93621094 20.0603125 1.29039063 20.276875 0.625 20.5 C-1.40719488 17.09648662 -1.74391039 14.1767073 -2 10.25 C-2.11214844 8.63351563 -2.11214844 8.63351563 -2.2265625 6.984375 C-2.27554688 6.16453125 -2.32453125 5.3446875 -2.375 4.5 C-4.90612547 5.00231342 -4.90612547 5.00231342 -7.375 6.5 C-8.41917909 9.58765687 -8.41917909 9.58765687 -8.6875 13.125 C-8.82800781 14.31351563 -8.96851563 15.50203125 -9.11328125 16.7265625 C-9.19964844 17.64179688 -9.28601562 18.55703125 -9.375 19.5 C-10.695 19.83 -12.015 20.16 -13.375 20.5 C-15.02997356 17.19005287 -14.47584335 13.50877 -14.4375 9.875 C-14.43298828 9.07320312 -14.42847656 8.27140625 -14.42382812 7.4453125 C-14.41203168 5.46350994 -14.39409605 3.48174567 -14.375 1.5 C-9.33717246 0.23888025 -5.21772449 -0.657822 0 0 Z " fill="#EEEEEE" transform="translate(58.375,151.5)"/>
<path d="M0 0 C3 1.9375 3 1.9375 5 5 C5.69579522 8.47327287 5.72921235 11.53054437 5 15 C2.80977082 17.82424288 1.16982793 19.41508603 -2 21 C-6.96940167 21.22455057 -10.1632292 20.68307821 -14.0625 17.5 C-16.33717229 14.19933916 -16.77331828 11.07912063 -16.56640625 7.12109375 C-15.5509361 3.31833313 -13.24426472 2.07632942 -10 0 C-6.70309995 -1.64845002 -3.43307484 -0.92555173 0 0 Z " fill="#F2F2F2" transform="translate(97,152)"/>
<path d="M0 0 C5.57894737 3.15789474 5.57894737 3.15789474 7 6 C7.04022391 8.3329866 7.04320247 10.66706666 7 13 C2.71 13.66 -1.58 14.32 -6 15 C-4.96593327 16.25949049 -4.96593327 16.25949049 -2.71484375 16.09765625 C-1.79832031 16.08605469 -0.88179687 16.07445312 0.0625 16.0625 C0.98160156 16.05347656 1.90070313 16.04445312 2.84765625 16.03515625 C3.55792969 16.02355469 4.26820313 16.01195312 5 16 C4.6875 17.875 4.6875 17.875 4 20 C0.23124125 22.51250583 -1.53150134 22.53016086 -6 22 C-8.97361628 20.21847933 -11.42653612 18.14692775 -13 15 C-13.68128376 8.18716238 -13.68128376 8.18716238 -11.953125 5.17578125 C-8.19987673 0.6166885 -5.84670346 -0.56218302 0 0 Z " fill="#EFEFEF" transform="translate(144,151)"/>
<path d="M0 0 C1.828125 0.18359375 1.828125 0.18359375 4 1 C5.484375 3.28515625 5.484375 3.28515625 6.75 6.0625 C7.17796875 6.98160156 7.6059375 7.90070313 8.046875 8.84765625 C8.36140625 9.55792969 8.6759375 10.26820313 9 11 C10.58971965 8.61542052 11.86741593 6.3695876 13.125 3.8125 C13.47820312 3.09707031 13.83140625 2.38164062 14.1953125 1.64453125 C14.46085938 1.10183594 14.72640625 0.55914062 15 0 C15.99 0 16.98 0 18 0 C17.78823025 6.03543779 16.42082019 11.0931776 14.1875 16.6875 C13.93919434 17.31664307 13.69088867 17.94578613 13.43505859 18.59399414 C11.71982287 22.74233158 9.76573428 26.45791926 7 30 C3.75 30.375 3.75 30.375 1 30 C0.67 29.01 0.34 28.02 0 27 C1.65 26.01 3.3 25.02 5 24 C4.58013101 17.59699793 3.25147274 12.42800929 0.83984375 6.48046875 C0 4 0 4 0 0 Z " fill="#F3F3F3" transform="translate(155,152)"/>
<path d="M0 0 C1.15113281 -0.03738281 2.30226563 -0.07476562 3.48828125 -0.11328125 C6.6875 0.3125 6.6875 0.3125 9.08984375 1.84765625 C11.27423469 5.21770682 11.12772858 8.19208003 10.9375 12.0625 C10.91945313 12.75988281 10.90140625 13.45726562 10.8828125 14.17578125 C10.83588554 15.88861539 10.76414605 17.60073824 10.6875 19.3125 C9.3675 19.6425 8.0475 19.9725 6.6875 20.3125 C6.55472656 19.39726562 6.42195313 18.48203125 6.28515625 17.5390625 C6.10855469 16.35054687 5.93195313 15.16203125 5.75 13.9375 C5.57597656 12.75414062 5.40195313 11.57078125 5.22265625 10.3515625 C4.85287214 7.40547619 4.85287214 7.40547619 3.6875 5.3125 C0.93108584 5.81006092 0.93108584 5.81006092 -1.3125 7.3125 C-1.70916227 9.49269479 -2.05565237 11.6821463 -2.375 13.875 C-2.55160156 15.07253906 -2.72820312 16.27007812 -2.91015625 17.50390625 C-3.04292969 18.43074219 -3.17570312 19.35757813 -3.3125 20.3125 C-4.6325 19.9825 -5.9525 19.6525 -7.3125 19.3125 C-7.33933987 16.33327407 -7.35926037 13.35428705 -7.375 10.375 C-7.38337891 9.52486328 -7.39175781 8.67472656 -7.40039062 7.79882812 C-7.40361328 6.98994141 -7.40683594 6.18105469 -7.41015625 5.34765625 C-7.41539307 4.5987915 -7.42062988 3.84992676 -7.42602539 3.07836914 C-7.16105501 -1.04320233 -3.3242949 0.07025762 0 0 Z " fill="#F3F3F3" transform="translate(115.3125,151.6875)"/>
<path d="M0 0 C2.46800047 1.15173355 4.04783565 2.04783565 6 4 C6.333728 7.13704316 6.52849028 9.16554166 4.8125 11.875 C2.34492892 13.40659584 0.85480169 13.42822025 -2 13 C-3.8125 11.875 -3.8125 11.875 -5 10 C-5.5 7.0625 -5.5 7.0625 -5 4 C-2.5 1.625 -2.5 1.625 0 0 Z " fill="#070707" transform="translate(91,155)"/>
<path d="M0 0 C1.134375 0.020625 2.26875 0.04125 3.4375 0.0625 C3.4375 1.3825 3.4375 2.7025 3.4375 4.0625 C0.7975 4.0625 -1.8425 4.0625 -4.5625 4.0625 C-4.5625 -0.28271095 -4.43767807 0.077854 0 0 Z " fill="#252525" transform="translate(141.5625,155.9375)"/>
</svg>
