<?xml version="1.0" encoding="UTF-8"?>
<svg version="1.1" xmlns="http://www.w3.org/2000/svg" width="50" height="51">
<path d="M0 0 C6.56467284 2.8961792 10.84348099 8.61333404 14.4296875 14.62890625 C16.48141193 21.87028658 16.62465222 28.74918713 13.4921875 35.69140625 C9.84963669 42.11761094 4.6227191 47.16349542 -2.5078125 49.37890625 C-10.36793216 50.22360237 -17.85967998 50.45386527 -24.640625 45.9375 C-30.42755212 41.10698971 -34.14690316 36.36149881 -34.84375 28.671875 C-35.03249061 20.1548261 -35.01922112 13.13063204 -28.89453125 6.6796875 C-20.56147144 -0.95125197 -11.02453768 -2.73037615 0 0 Z " fill="#59BBC4" transform="translate(34.5078125,0.62109375)"/>
<path d="M0 0 C0 2.97 0 5.94 0 9 C-0.6612085 9.02505615 -1.32241699 9.0501123 -2.00366211 9.07592773 C-4.98182305 9.19153102 -7.9596392 9.31441754 -10.9375 9.4375 C-12.49887695 9.49647461 -12.49887695 9.49647461 -14.09179688 9.55664062 C-15.57583008 9.61948242 -15.57583008 9.61948242 -17.08984375 9.68359375 C-18.00628662 9.72025146 -18.92272949 9.75690918 -19.86694336 9.79467773 C-21.9820728 9.77003864 -21.9820728 9.77003864 -23 11 C-23.0991657 12.62257544 -23.13079777 14.24939831 -23.1328125 15.875 C-23.13410156 16.85984375 -23.13539062 17.8446875 -23.13671875 18.859375 C-23.13285156 19.89578125 -23.12898438 20.9321875 -23.125 22 C-23.12886719 23.03640625 -23.13273437 24.0728125 -23.13671875 25.140625 C-23.13478516 26.61789063 -23.13478516 26.61789063 -23.1328125 28.125 C-23.13168457 29.03507812 -23.13055664 29.94515625 -23.12939453 30.8828125 C-23.23560009 32.9852848 -23.23560009 32.9852848 -22 34 C-20.36743242 34.15714654 -18.72864662 34.25085414 -17.08984375 34.31640625 C-16.10048828 34.35830078 -15.11113281 34.40019531 -14.09179688 34.44335938 C-13.05087891 34.48267578 -12.00996094 34.52199219 -10.9375 34.5625 C-9.37032227 34.62727539 -9.37032227 34.62727539 -7.77148438 34.69335938 C-5.18113116 34.79981225 -2.59067814 34.9018276 0 35 C0 37.97 0 40.94 0 44 C-6.31585938 46.65930921 -12.63005866 46.77767877 -19.25 45.25 C-25.9052563 42.2248835 -31.33455285 38.16944112 -34.1171875 31.203125 C-35.93484057 24.60810057 -36.28783205 16.91152288 -33.4375 10.5625 C-29.89453504 4.66998985 -24.69299312 0.60350163 -18.17578125 -1.53515625 C-11.8997947 -2.87598641 -5.93160414 -2.49751753 0 0 Z " fill="#096FA2" transform="translate(36,3)"/>
<path d="M0 0 C1.02996094 -0.00128906 2.05992188 -0.00257812 3.12109375 -0.00390625 C4.74724609 0.00189453 4.74724609 0.00189453 6.40625 0.0078125 C7.49035156 0.00394531 8.57445312 0.00007812 9.69140625 -0.00390625 C10.72136719 -0.00261719 11.75132813 -0.00132813 12.8125 0 C14.24045898 0.00169189 14.24045898 0.00169189 15.69726562 0.00341797 C17.90625 0.1328125 17.90625 0.1328125 18.90625 1.1328125 C19.0054157 2.75538794 19.03704777 4.38221081 19.0390625 6.0078125 C19.04099609 7.48507813 19.04099609 7.48507813 19.04296875 8.9921875 C19.03910156 10.02859375 19.03523438 11.065 19.03125 12.1328125 C19.03705078 13.68742187 19.03705078 13.68742187 19.04296875 15.2734375 C19.04167969 16.25828125 19.04039063 17.243125 19.0390625 18.2578125 C19.03793457 19.16789062 19.03680664 20.07796875 19.03564453 21.015625 C18.90625 23.1328125 18.90625 23.1328125 17.90625 24.1328125 C16.21066274 24.23213403 14.51099253 24.26361257 12.8125 24.265625 C11.78253906 24.26691406 10.75257812 24.26820312 9.69140625 24.26953125 C8.06525391 24.26373047 8.06525391 24.26373047 6.40625 24.2578125 C5.32214844 24.26167969 4.23804688 24.26554687 3.12109375 24.26953125 C2.09113281 24.26824219 1.06117187 24.26695313 0 24.265625 C-0.95197266 24.26449707 -1.90394531 24.26336914 -2.88476562 24.26220703 C-5.09375 24.1328125 -5.09375 24.1328125 -6.09375 23.1328125 C-6.1929157 21.51023706 -6.22454777 19.88341419 -6.2265625 18.2578125 C-6.22785156 17.27296875 -6.22914062 16.288125 -6.23046875 15.2734375 C-6.22660156 14.23703125 -6.22273437 13.200625 -6.21875 12.1328125 C-6.22455078 10.57820313 -6.22455078 10.57820313 -6.23046875 8.9921875 C-6.22917969 8.00734375 -6.22789063 7.0225 -6.2265625 6.0078125 C-6.22543457 5.09773438 -6.22430664 4.18765625 -6.22314453 3.25 C-5.97156325 -0.86643946 -3.56423097 0.00422302 0 0 Z " fill="#E6F2F5" transform="translate(18.09375,12.8671875)"/>
<path d="M0 0 C0.66 0 1.32 0 2 0 C2.268125 1.11375 2.53625 2.2275 2.8125 3.375 C3.65809019 7.21840951 3.65809019 7.21840951 7 9 C12.04001408 8.76787034 12.04001408 8.76787034 16 6 C16.39764263 4.01178687 16.73775349 2.01055661 17 0 C17.66 0 18.32 0 19 0 C19 3.63 19 7.26 19 11 C12.73 11 6.46 11 0 11 C0 7.37 0 3.74 0 0 Z " fill="#187AA7" transform="translate(15,23)"/>
<path d="M0 0 C2.375 0.75 2.375 0.75 3.375 1.75 C3.5625 4.6875 3.5625 4.6875 3.375 7.75 C2.715 8.41 2.055 9.07 1.375 9.75 C-1.75 9.375 -1.75 9.375 -4.625 8.75 C-5.95341008 3.31559513 -5.95341008 3.31559513 -4.5 0.8125 C-2.625 -0.25 -2.625 -0.25 0 0 Z " fill="#1684A8" transform="translate(25.625,20.25)"/>
<path d="M0 0 C0.66 0 1.32 0 2 0 C2 3.63 2 7.26 2 11 C-0.31 11 -2.62 11 -5 11 C-5 10.34 -5 9.68 -5 9 C-4.0409375 8.38125 -4.0409375 8.38125 -3.0625 7.75 C-0.29641768 5.40302106 -0.31288108 3.51991219 0 0 Z " fill="#0E8EA8" transform="translate(32,23)"/>
</svg>
