<svg xmlns="http://www.w3.org/2000/svg" width="19.602" height="19.602" viewBox="0 0 19.602 19.602" class="jsx-2504583471"><g id="Icon_feather-instagram" data-name="Icon feather-instagram" transform="translate(1 1)" class="jsx-2504583471 cls-instagram"><path id="Path_16718" data-name="Path 16718" d="M7.4,3h8.8a4.4,4.4,0,0,1,4.4,4.4v8.8a4.4,4.4,0,0,1-4.4,4.4H7.4A4.4,4.4,0,0,1,3,16.2V7.4A4.4,4.4,0,0,1,7.4,3Z" transform="translate(-3 -3)" class="jsx-2504583471 cls-instagram"></path><path id="Path_16719" data-name="Path 16719" d="M19.067,14.939A3.52,3.52,0,1,1,16.1,11.973,3.52,3.52,0,0,1,19.067,14.939Z" transform="translate(-6.746 -6.693)" class="jsx-2504583471 cls-instagram"></path><path id="Path_16720" data-name="Path 16720" d="M26.25,9.75h0" transform="translate(-12.609 -5.79)" class="jsx-2504583471 cls-instagram"></path></g></svg>