<?xml version="1.0" encoding="UTF-8"?>
<svg version="1.1" xmlns="http://www.w3.org/2000/svg" width="2560" height="411">
<path d="M0 0 C28.01524848 -0.02254399 56.03048966 -0.0409774 84.0457449 -0.05181217 C97.05271669 -0.0569759 110.05968246 -0.06402004 123.06665039 -0.07543945 C134.39904235 -0.08538396 145.73142995 -0.09185287 157.06382614 -0.09408849 C163.06827176 -0.095396 169.0727049 -0.09848435 175.07714653 -0.10573006 C180.72162969 -0.1124866 186.36609516 -0.11461771 192.01058197 -0.11310768 C194.08874927 -0.11338418 196.16691713 -0.11539145 198.24508095 -0.11920547 C201.06924749 -0.12413702 203.89334612 -0.12300029 206.71751404 -0.12025452 C207.55115508 -0.12316736 208.38479612 -0.1260802 209.24369901 -0.12908131 C214.88587879 -0.11412121 214.88587879 -0.11412121 216 1 C216.1000318 3.61963702 216.13440373 6.2129753 216.12698364 8.83314514 C216.12854363 9.6639223 216.13010362 10.49469946 216.13171089 11.35065168 C216.13572499 14.15704387 216.13252948 16.96338272 216.12939453 19.76977539 C216.13074855 21.77349377 216.13252848 23.77721191 216.13470459 25.78092957 C216.1392833 31.24458649 216.13748642 36.70822464 216.1343255 42.17188191 C216.13179892 47.89261886 216.13414076 53.61335417 216.13571167 59.33409119 C216.1375347 68.9591399 216.13512588 78.58418096 216.13037109 88.20922852 C216.12495136 99.30781678 216.12667385 110.40638662 216.1321975 121.50497442 C216.13675258 131.04147309 216.1373668 140.57796625 216.13475883 150.11446565 C216.13320621 155.80582158 216.13297385 161.49716889 216.13629532 167.18852425 C216.13920804 172.55564917 216.13713652 177.92275069 216.13140106 183.28987312 C216.13009056 185.24886028 216.1304381 187.20784945 216.13266373 189.16683578 C216.16388915 219.47324621 216.16388915 219.47324621 213.3125 232.9375 C213.13734863 233.77466553 212.96219727 234.61183105 212.78173828 235.47436523 C207.35578134 260.17158267 195.3406089 281.67016174 178 300 C177.25234375 300.81210937 176.5046875 301.62421875 175.734375 302.4609375 C162.71942502 316.12232539 146.63988744 324.86629799 130.35403442 333.98643494 C124.48698329 337.27585446 118.67674933 340.65933663 112.875 344.0625 C106.72309916 347.66283602 100.56701548 351.25534934 94.39453125 354.8203125 C93.2864209 355.46073486 92.17831055 356.10115723 91.03662109 356.76098633 C88.82376179 358.03388856 86.60669097 359.29950032 84.38525391 360.55737305 C79.33830626 363.42539004 74.41059591 366.3423075 69.62890625 369.63671875 C58.24767443 377.32689108 58.24767443 377.32689108 52.3203125 376.46484375 C49.16696676 374.95252487 46.54740816 373.34797988 43.75878906 371.27197266 C41.37382014 369.54714088 38.85551544 368.12414482 36.29956055 366.66992188 C34.15550394 365.44606014 32.03619556 364.18597223 29.91796875 362.91796875 C24.16636811 359.49130587 18.36439709 356.15306441 12.5625 352.8125 C10.90734375 351.85851318 10.90734375 351.85851318 9.21875 350.88525391 C3.58877843 347.64087727 -2.04317695 344.39995937 -7.67578125 341.16015625 C-13.08818434 338.04647264 -18.49262926 334.91923559 -23.89550781 331.7890625 C-26.90892398 330.05248546 -29.93357694 328.3371216 -32.9609375 326.625 C-44.53986749 320.01832047 -55.07236169 312.91758528 -65 304 C-65.86753906 303.22140625 -66.73507813 302.4428125 -67.62890625 301.640625 C-89.30223356 280.98500176 -105.98578812 248.77907867 -107.08954048 218.54750252 C-107.12272989 215.61134969 -107.12366829 212.67680413 -107.11352539 209.74047852 C-107.11367142 208.62754929 -107.11381744 207.51462006 -107.1139679 206.3679657 C-107.11327359 202.70492576 -107.10550379 199.04193726 -107.09765625 195.37890625 C-107.09579036 192.83300301 -107.09436726 190.28709941 -107.09336853 187.74119568 C-107.08994603 181.73487051 -107.08207184 175.72856727 -107.07201904 169.72225088 C-107.06081822 162.88062515 -107.05533747 156.03899851 -107.05032361 149.19736588 C-107.03988809 135.13156713 -107.02231345 121.06578457 -107 107 C-99.47030348 106.97473352 -91.9406178 106.95716859 -84.41088867 106.94506836 C-81.84708243 106.9400263 -79.28327909 106.93319286 -76.71948242 106.92456055 C-73.04344979 106.91248936 -69.36745502 106.90677058 -65.69140625 106.90234375 C-64.53725723 106.89718246 -63.38310822 106.89202118 -62.19398499 106.88670349 C-60.6024485 106.88659019 -60.6024485 106.88659019 -58.97875977 106.88647461 C-58.03944107 106.884254 -57.10012238 106.88203339 -56.13233948 106.87974548 C-54 107 -54 107 -53 108 C-52.89053846 111.05070496 -52.84575867 114.0795937 -52.84228516 117.13110352 C-52.83720444 118.09065948 -52.83212372 119.05021545 -52.82688904 120.03884888 C-52.81615426 122.13304786 -52.80754639 124.22725854 -52.80076981 126.32147408 C-52.78899244 129.64869798 -52.76953565 132.97579138 -52.74765015 136.30296326 C-52.68604406 145.76727867 -52.63225809 155.23158567 -52.59863281 164.69604492 C-52.57752546 170.48099068 -52.5420794 176.26570666 -52.49787521 182.05051994 C-52.48382315 184.24501754 -52.47501751 186.43955589 -52.47182083 188.63409615 C-52.42405528 218.32480315 -46.14729578 242.19038002 -25.125 264.1875 C-17.19709167 271.79642279 -7.62627336 277.11038879 1.875 282.5 C4.08088904 283.76013685 6.28661898 285.02055225 8.4921875 286.28125 C9.45495605 286.82845703 10.41772461 287.37566406 11.40966797 287.93945312 C16.62918355 290.92018659 21.81074062 293.96703357 27 297 C26.99000725 295.95122177 26.99000725 295.95122177 26.97981262 294.8812561 C26.91903421 288.20577795 26.87369332 281.53037995 26.84456348 274.85468483 C26.82908282 271.42481047 26.80817898 267.99516967 26.77368164 264.56542969 C26.40117481 226.49545878 33.48627469 192.49709349 59 163 C59.67289063 162.19433594 60.34578125 161.38867188 61.0390625 160.55859375 C77.08777734 141.91290506 98.47327146 131.04750841 119.51855469 118.99511719 C125.35212155 115.653727 131.17576684 112.29512227 137 108.9375 C138.05493652 108.33075439 139.10987305 107.72400879 140.19677734 107.09887695 C145.8626399 103.83464061 151.48246096 100.51619155 157.0390625 97.06860352 C159 96 159 96 161 96 C161 82.14 161 68.28 161 54 C107.87 54 54.74 54 0 54 C0 36.18 0 18.36 0 0 Z M142 169 C141.06607422 169.52948242 140.13214844 170.05896484 139.16992188 170.60449219 C114.43318183 184.7049385 93.46495001 201.33540166 84.84375 229.8203125 C80.57843106 245.53239269 80.87042681 261.08409542 80.9375 277.25 C80.94252467 279.36328019 80.94708587 281.47656154 80.95117188 283.58984375 C80.96210167 288.72659142 80.9793131 293.86328274 81 299 C83.6702859 297.54398821 86.34040989 296.08768134 89.01025391 294.63085938 C90.78547537 293.66250404 92.56105373 292.69480177 94.33740234 291.72851562 C122.32061327 276.48494454 147.30978455 260.38563588 157.28442383 228.23095703 C160.20050576 218.26940313 161.14614211 209.2872473 161.09765625 198.94140625 C161.0962413 197.79711655 161.09482635 196.65282684 161.09336853 195.47386169 C161.08779301 191.83671399 161.07524498 188.19962895 161.0625 184.5625 C161.05748184 182.0891936 161.05291948 179.61588623 161.04882812 177.14257812 C161.0378316 171.09503088 161.02111788 165.04751992 161 159 C155.59962587 159 146.69203043 166.33673006 142 169 Z " fill="#FF2D3C" transform="translate(107,0)"/>
<path d="M0 0 C102.8780837 0 102.8780837 0 118.625 6.125 C119.41148926 6.42575439 120.19797852 6.72650879 121.00830078 7.03637695 C134.8099693 12.52437604 145.63482819 20.4608325 156 31 C156.83402344 31.8353125 157.66804688 32.670625 158.52734375 33.53125 C177.37567777 53.37838462 185.80902917 80.86002839 186.3125 107.8125 C185.45076988 136.84905838 175.68899623 164.34202175 155 185 C154.35675781 185.71414062 153.71351563 186.42828125 153.05078125 187.1640625 C137.6096354 203.97849898 115.01485876 211.85502018 93 215 C62.31 215 31.62 215 0 215 C0 144.05 0 73.1 0 0 Z M46 47 C46 86.93 46 126.86 46 168 C87.25940104 170.444196 87.25940104 170.444196 122.4375 153.3125 C136.02216857 138.54558605 139.7734233 120.72850666 139.13623047 101.28027344 C138.16000412 84.93985388 131.52507024 71.01674892 119.8125 59.8125 C99.12539208 42.2703916 71.55602589 47 46 47 Z " fill="#12112A" transform="translate(1706,0)"/>
<path d="M0 0 C1.63286519 1.37915307 3.2109085 2.8228896 4.7734375 4.28125 C5.1034375 -0.99875 5.4334375 -6.27875 5.7734375 -11.71875 C20.9534375 -11.71875 36.1334375 -11.71875 51.7734375 -11.71875 C51.7734375 41.74125 51.7734375 95.20125 51.7734375 150.28125 C36.5934375 150.28125 21.4134375 150.28125 5.7734375 150.28125 C5.4434375 144.67125 5.1134375 139.06125 4.7734375 133.28125 C3.3503125 134.498125 1.9271875 135.715 0.4609375 136.96875 C-13.9297359 148.40852688 -31.32758556 150.85076337 -49.2265625 149.28125 C-68.5301525 146.53042324 -85.59200753 135.09558893 -97.203125 119.65234375 C-111.16166394 98.53006125 -115.90144066 74.28574522 -111.19433594 49.34204102 C-108.0859546 35.64796643 -101.82851232 22.55764361 -92.2265625 12.28125 C-91.47761719 11.44207031 -90.72867187 10.60289063 -89.95703125 9.73828125 C-67.61525986 -14.11941001 -26.77284513 -20.66675765 0 0 Z M-57.0625 42.64453125 C-64.83252554 52.11162013 -67.05413146 62.30492183 -66.2265625 74.28125 C-64.88315795 83.83297961 -61.4925966 91.73593225 -54.0859375 98.12890625 C-44.129141 105.21354991 -34.14893959 106.29843693 -22.2265625 105.28125 C-12.5662362 103.46993882 -5.30539573 97.87288993 0.4375 90 C5.90658973 80.40510574 6.79690656 68.58844424 4.52734375 57.92578125 C2.11605981 49.46754692 -2.56971491 42.12847379 -10.171875 37.48046875 C-25.79801752 29.43703667 -43.98762883 29.76131129 -57.0625 42.64453125 Z " fill="#12112A" transform="translate(1134.2265625,65.71875)"/>
<path d="M0 0 C0.79719955 0.00222061 1.59439911 0.00444122 2.41575623 0.00672913 C3.32925842 0.00684998 4.24276062 0.00697083 5.1839447 0.00709534 C6.15045959 0.0122113 7.11697449 0.01732727 8.11277771 0.02259827 C9.4381958 0.02410889 9.4381958 0.02410889 10.79039001 0.02565002 C14.10489695 0.03089921 17.41938545 0.04486035 20.73387146 0.05775452 C28.13824646 0.07837952 35.54262146 0.09900452 43.17137146 0.12025452 C43.50137146 22.89025452 43.83137146 45.66025452 44.17137146 69.12025452 C47.14137146 66.48025452 50.11137146 63.84025452 53.17137146 61.12025452 C66.82140893 53.30573493 84.37305357 51.8882099 99.60887146 55.24525452 C113.24953789 59.30923238 124.34284796 67.85270567 131.63621521 80.07728577 C135.86363574 88.45682926 139.30206777 97.57869701 139.29162598 107.04940796 C139.29368797 108.49853828 139.29368797 108.49853828 139.29579163 109.97694397 C139.29219635 111.02495178 139.28860107 112.07295959 139.28489685 113.15272522 C139.28504288 114.2653624 139.2851889 115.37799957 139.28533936 116.52435303 C139.28464326 120.19826717 139.27686496 123.87213049 139.26902771 127.54603577 C139.26716246 130.09479749 139.26573906 132.64355957 139.26473999 135.19232178 C139.26131328 141.21287987 139.2534335 147.23341618 139.2433905 153.25396556 C139.23220264 160.11005493 139.22671218 166.96614519 139.22169507 173.82224143 C139.21125016 187.9215892 139.19366739 202.02092086 139.17137146 216.12025452 C132.92341471 216.14552576 126.67547105 216.16308795 120.42747498 216.17518616 C118.30019132 216.1802275 116.17291115 216.18706043 114.04563904 216.19569397 C110.9950932 216.20776831 107.94459301 216.21348466 104.89402771 216.21791077 C103.4581002 216.22565269 103.4581002 216.22565269 101.99316406 216.23355103 C100.67190773 216.23366432 100.67190773 216.23366432 99.32395935 216.23377991 C98.54452469 216.23600052 97.76509003 216.23822113 96.96203613 216.24050903 C95.17137146 216.12025452 95.17137146 216.12025452 94.17137146 215.12025452 C94.07257487 212.00718178 94.03839883 208.91564188 94.0453949 205.80213928 C94.04352676 204.82319199 94.04165863 203.84424469 94.03973389 202.83563232 C94.03571838 200.70048855 94.033654 198.56534046 94.03327179 196.43019295 C94.02986538 191.88639298 94.00850727 187.34273728 93.98804092 182.79898739 C93.94999921 174.3322465 93.91874958 165.86565496 93.92088318 157.39881897 C93.92167223 151.51654449 93.89821592 145.63479139 93.85900116 139.75265312 C93.84856234 137.51411727 93.84700143 135.27552107 93.8546524 133.03697395 C93.86432346 129.89172166 93.84299485 126.74803209 93.81492615 123.60292053 C93.82512283 122.68666901 93.83531952 121.77041748 93.8458252 120.82640076 C93.72427006 113.18178113 91.40798157 106.35686462 85.91746521 100.86634827 C77.77384218 96.25025061 69.93351102 94.83825734 60.79637146 97.30775452 C54.01782309 99.71935346 49.73263487 102.76085557 46.17137146 109.12025452 C42.76306398 117.0131771 43.02588627 126.13618877 42.96604919 134.60902405 C42.9561496 135.49805923 42.94625 136.38709442 42.93605042 137.30307007 C42.90479615 140.2030432 42.87982278 143.10303263 42.85496521 146.00306702 C42.83436441 148.02902114 42.81336718 150.05497126 42.79199219 152.08091736 C42.73709405 157.38425945 42.68754403 162.68763824 42.6391449 167.99104309 C42.58869265 173.41435467 42.53313106 178.83761371 42.47801208 184.26087952 C42.37082575 194.88062618 42.26929488 205.50041868 42.17137146 216.12025452 C35.92341471 216.14552576 29.67547105 216.16308795 23.42747498 216.17518616 C21.30019132 216.1802275 19.17291115 216.18706043 17.04563904 216.19569397 C13.9950932 216.20776831 10.94459301 216.21348466 7.89402771 216.21791077 C6.4581002 216.22565269 6.4581002 216.22565269 4.99316406 216.23355103 C4.11232651 216.23362656 3.23148895 216.23370209 2.32395935 216.23377991 C1.15480736 216.23711082 1.15480736 216.23711082 -0.03796387 216.24050903 C-1.82862854 216.12025452 -1.82862854 216.12025452 -2.82862854 215.12025452 C-2.92872707 212.36616061 -2.96302384 209.63707223 -2.95561218 206.88246155 C-2.95717217 206.00843248 -2.95873216 205.13440342 -2.96033943 204.23388863 C-2.9643533 201.28193134 -2.96115829 198.33002476 -2.95802307 195.37806702 C-2.95937694 193.27119415 -2.96115679 191.16432152 -2.96333313 189.05744934 C-2.96790917 183.31794917 -2.9661172 177.57846688 -2.96295404 171.83896637 C-2.96043132 165.84695384 -2.96276773 159.85494289 -2.96434021 153.8629303 C-2.96616216 143.7983116 -2.96375492 133.73370023 -2.95899963 123.66908264 C-2.95355697 112.01465582 -2.9553196 100.36024648 -2.96082604 88.70582008 C-2.96535644 78.71945355 -2.96600808 68.73309231 -2.96338737 58.74672508 C-2.96182419 52.77359607 -2.96163194 46.80047529 -2.96492386 40.8273468 C-2.96780151 35.2132154 -2.96582884 29.59910666 -2.9600296 23.98497772 C-2.95870143 21.91809883 -2.95909707 19.85121805 -2.96129227 17.7843399 C-2.96400155 14.97554955 -2.96062538 12.16683306 -2.95561218 9.35804749 C-2.9578429 8.52897951 -2.96007363 7.69991154 -2.96237195 6.84572029 C-2.93914299 0.19328432 -2.93914299 0.19328432 0 0 Z " fill="#12112B" transform="translate(2241.828628540039,-0.1202545166015625)"/>
<path d="M0 0 C14.52 0 29.04 0 44 0 C44.33 38.28 44.66 76.56 45 116 C48.3 111.05 51.6 106.1 55 101 C57.09723046 97.91139579 59.1979277 94.82657109 61.3125 91.75 C62.41406962 90.14323404 63.51563189 88.53646305 64.6171875 86.9296875 C65.17116211 86.12241211 65.72513672 85.31513672 66.29589844 84.48339844 C69.17875669 80.28219011 72.05848987 76.07884593 74.9375 71.875 C75.45675049 71.11799805 75.97600098 70.36099609 76.51098633 69.58105469 C77.26158325 68.48519043 77.26158325 68.48519043 78.02734375 67.3671875 C78.73497864 66.36378075 78.73497864 66.36378075 79.45690918 65.34010315 C81.03436541 63.05105896 81.03436541 63.05105896 82.17460632 60.63566589 C83.56479984 58.01790962 84.85989413 56.06146607 87 54 C91.07202237 52.75822075 94.95480838 52.94716407 99.1796875 53.12109375 C100.3475882 53.13382828 101.51548889 53.14656281 102.71878052 53.15968323 C106.43965546 53.20996364 110.15560623 53.32286115 113.875 53.4375 C116.4009711 53.48265287 118.92701885 53.52371601 121.453125 53.56054688 C127.6370894 53.65963807 133.818193 53.81012249 140 54 C135.7740966 61.48054636 135.7740966 61.48054636 133.58984375 64.62109375 C133.16316406 65.23791016 132.73648438 65.85472656 132.296875 66.49023438 C131.84828125 67.13283203 131.3996875 67.77542969 130.9375 68.4375 C129.95695649 69.8528128 128.97648991 71.26817888 127.99609375 72.68359375 C127.49835449 73.40015137 127.00061523 74.11670898 126.48779297 74.85498047 C124.14750369 78.22908312 121.82424758 81.61483711 119.5 85 C118.58342324 86.33339514 117.66675636 87.66672834 116.75 89 C116.069375 89.99 116.069375 89.99 115.375 91 C111.25 97 111.25 97 109.87329102 99.00244141 C108.96226563 100.32759868 108.05129503 101.65279362 107.14038086 102.97802734 C104.76286451 106.43677493 102.38422592 109.89474345 100.00390625 113.3515625 C99.51148437 114.06699219 99.0190625 114.78242187 98.51171875 115.51953125 C97.5758765 116.87915113 96.63970231 118.23854262 95.703125 119.59765625 C94.86073513 120.82179379 94.02215566 122.04856497 93.18798828 123.27832031 C92.0356194 124.94837895 90.82898338 126.58058401 89.62109375 128.2109375 C87.7689617 130.74653931 87.7689617 130.74653931 88.24702454 132.92622375 C89.06941368 135.19117282 90.09444916 136.96145071 91.42651367 138.96948242 C92.19190712 140.13232002 92.19190712 140.13232002 92.97276306 141.31864929 C93.81188988 142.57437492 93.81188988 142.57437492 94.66796875 143.85546875 C95.25135513 144.73801834 95.83474152 145.62056793 96.43580627 146.52986145 C98.34774636 149.4192855 100.26767799 152.30330836 102.1875 155.1875 C103.50280524 157.17347947 104.81758063 159.15980994 106.13183594 161.14648438 C112.31830563 170.48978654 118.53626607 179.81162483 124.78515625 189.11328125 C125.80901617 190.63971941 126.83286105 192.16616765 127.85668945 193.69262695 C129.75025984 196.51518871 131.65214155 199.33188758 133.55932617 202.14526367 C134.40956359 203.40919371 135.25959298 204.67326373 136.109375 205.9375 C136.84124023 207.01902344 137.57310547 208.10054687 138.32714844 209.21484375 C139.79163148 211.65308405 140.41261378 213.28781505 141 216 C134.02651289 216.25442682 127.05422882 216.42902192 120.07714844 216.54931641 C117.70625085 216.59947872 115.33566069 216.66762917 112.96582031 216.75439453 C93.32556721 217.45524319 93.32556721 217.45524319 87.82104492 214.01074219 C85.73808415 211.43167374 84.37778298 209.00612136 83 206 C82.04578926 204.62534311 81.06408158 203.26919898 80.05078125 201.9375 C79.13508987 200.62704316 78.22238589 199.31449438 77.3125 198 C76.27689663 196.51893306 75.24040794 195.03848486 74.203125 193.55859375 C73.41325195 192.43106689 73.41325195 192.43106689 72.60742188 191.28076172 C69.0164462 186.18554685 65.34779628 181.14599866 61.69140625 176.09765625 C56.12006119 168.40389402 50.56166297 160.70076412 45 153 C44.67 173.79 44.34 194.58 44 216 C36.760625 216.020625 29.52125 216.04125 22.0625 216.0625 C18.63049194 216.07615601 18.63049194 216.07615601 15.12915039 216.09008789 C13.32698628 216.09300695 11.5248215 216.09555553 9.72265625 216.09765625 C8.30527161 216.1053302 8.30527161 216.1053302 6.85925293 216.11315918 C5.51945374 216.11334045 5.51945374 216.11334045 4.15258789 216.11352539 C2.9834359 216.11685631 2.9834359 216.11685631 1.79066467 216.12025452 C0 216 0 216 -1 215 C-1.10009853 212.24590609 -1.1343953 209.51681771 -1.12698364 206.76220703 C-1.12854363 205.88817797 -1.13010362 205.0141489 -1.13171089 204.11363411 C-1.13572476 201.16167682 -1.13252975 198.20977024 -1.12939453 195.2578125 C-1.1307484 193.15093963 -1.13252825 191.044067 -1.13470459 188.93719482 C-1.13928063 183.19769465 -1.13748866 177.45821236 -1.1343255 171.71871185 C-1.13180278 165.72669932 -1.13413919 159.73468837 -1.13571167 153.74267578 C-1.13753362 143.67805708 -1.13512638 133.61344571 -1.13037109 123.54882812 C-1.12492843 111.8944013 -1.12669106 100.23999197 -1.1321975 88.58556557 C-1.1367279 78.59919904 -1.13737954 68.61283779 -1.13475883 58.62647057 C-1.13319565 52.65334155 -1.1330034 46.68022078 -1.13629532 40.70709229 C-1.13917297 35.09296088 -1.1372003 29.47885215 -1.13140106 23.86472321 C-1.13007289 21.79784432 -1.13046853 19.73096354 -1.13266373 17.66408539 C-1.13537301 14.85529504 -1.13199684 12.04657854 -1.12698364 9.23779297 C-1.12921436 8.40872499 -1.13144509 7.57965702 -1.13374341 6.72546577 C-1.11414983 1.11414983 -1.11414983 1.11414983 0 0 Z " fill="#12112B" transform="translate(2081,0)"/>
<path d="M0 0 C1.85613285 1.49292197 3.69181424 3.01185194 5.5 4.5625 C6.22574219 5.17609375 6.95148438 5.7896875 7.69921875 6.421875 C23.04406515 20.53069252 30.74908803 42.03339859 31.625 62.48046875 C31.78018419 70.5985418 30.78168182 77.23156816 29.5 85.5625 C-5.81 85.5625 -41.12 85.5625 -77.5 85.5625 C-72.88049682 94.80150635 -69.0671419 98.84506216 -59.5 102.5625 C-48.39260083 106.0313156 -37.43974798 105.4131262 -26.5703125 101.53515625 C-18.91919686 99.11132954 -14.31418029 99.86651921 -7.06640625 102.74609375 C-6.18846909 103.08044937 -5.31053192 103.41480499 -4.4059906 103.7592926 C-1.61884723 104.82467062 1.15915827 105.91190236 3.9375 107 C5.83212072 107.72867537 7.7272981 108.45590512 9.62304688 109.18164062 C14.2553111 110.95858551 18.87951042 112.75517103 23.5 114.5625 C16.66606052 128.69808012 2.26622355 137.2837781 -11.83203125 142.88671875 C-36.08810901 150.93219953 -63.57638971 149.04890559 -86.5625 138 C-105.39023685 128.44582873 -117.93257253 112.34039266 -124.75 92.4375 C-131.34019308 69.38561124 -129.05720588 45.25535536 -117.640625 24.1953125 C-114.77905471 19.19145955 -111.38788331 14.81079853 -107.5 10.5625 C-106.89800781 9.86898437 -106.29601563 9.17546875 -105.67578125 8.4609375 C-79.54619944 -19.91458321 -30.3676301 -22.1168023 0 0 Z M-75.5 39.5625 C-77.5339423 42.66360164 -79.5 45.74644228 -79.5 49.5625 C-58.38 49.5625 -37.26 49.5625 -15.5 49.5625 C-18.68601501 41.06645998 -22.27854722 34.48707258 -30.5 30.125 C-46.63620515 23.24984645 -63.80785551 25.85059927 -75.5 39.5625 Z " fill="#12112A" transform="translate(1657.5,68.4375)"/>
<path d="M0 0 C11.60503916 10.19994473 20.31986252 22.73075996 25 37.5625 C25.29777344 38.490625 25.59554687 39.41875 25.90234375 40.375 C29.39383402 53.50429061 29.65710435 69.27697825 27 82.5625 C-8.64 82.5625 -44.28 82.5625 -81 82.5625 C-75.21313166 92.97886301 -71.60737245 97.22996008 -60.69921875 100.81640625 C-57.04725938 101.82584799 -53.79279619 102.31780347 -50 102.5625 C-48.97519531 102.63984375 -48.97519531 102.63984375 -47.9296875 102.71875 C-40.41525577 103.04195136 -32.48434749 101.56866476 -25.94360352 97.80273438 C-21.70406656 95.98419068 -18.83596335 97.10276937 -14.65089417 98.6620636 C-13.74645065 99.02752792 -12.84200714 99.39299225 -11.91015625 99.76953125 C-10.96563095 100.12891281 -10.02110565 100.48829437 -9.04795837 100.85856628 C-6.04339261 102.00783139 -3.05340759 103.19070347 -0.0625 104.375 C1.97634464 105.16176064 4.0160509 105.94629229 6.05664062 106.72851562 C11.04803448 108.64745786 16.02790408 110.59413443 21 112.5625 C11.69987124 128.24358622 -3.93569158 137.78690753 -21.26171875 142.74609375 C-45.94003156 148.13561034 -72.72285254 146.00229079 -94.73828125 132.9375 C-97.25742494 131.24501155 -99.63231976 129.46055771 -102 127.5625 C-103.24716797 126.57830078 -103.24716797 126.57830078 -104.51953125 125.57421875 C-120.16170118 112.43095154 -129.22545508 92.79764537 -131 72.5625 C-132.23749223 48.57418912 -126.64081866 27.03720298 -110.8125 8.4375 C-82.48008133 -21.76457066 -32.4642266 -25.5778755 0 0 Z M-76 34.5625 C-80.48729257 40.51846927 -80.48729257 40.51846927 -82 47.5625 C-61.21 47.5625 -40.42 47.5625 -19 47.5625 C-20.31672848 39.6621291 -23.59870517 35.2783404 -29.75 30.25 C-43.66821426 20.57578668 -64.27144714 22.31116281 -76 34.5625 Z " fill="#12112A" transform="translate(2035,70.4375)"/>
<path d="M0 0 C15.84 0 31.68 0 48 0 C48.495 7.92 48.495 7.92 49 16 C50.0725 14.96875 51.145 13.9375 52.25 12.875 C65.56366142 1.31621487 81.82034816 -1.01054509 98.83789062 -0.15966797 C113.26655518 0.90586349 127.41711601 8.26648299 137 19 C152.67782369 39.44265246 152.16021952 62.74823109 152.1328125 87.234375 C152.13348714 89.36574311 152.13445851 91.49711115 152.13571167 93.628479 C152.13717724 98.06612897 152.13506842 102.50375866 152.13037109 106.94140625 C152.12463251 112.64125019 152.12798586 118.34104745 152.13394356 124.04088974 C152.1375445 128.42788042 152.13641347 132.81485989 152.13381577 137.20185089 C152.13314735 139.3055039 152.13397194 141.40915792 152.13629532 143.51280975 C152.13881865 146.43532552 152.13498773 149.35776351 152.12939453 152.28027344 C152.13141876 153.15392548 152.13344299 154.02757751 152.13552856 154.92770386 C152.11427132 160.88572868 152.11427132 160.88572868 151 162 C149.52645652 162.09304018 148.04849409 162.11746265 146.57202148 162.11352539 C145.63112167 162.11344986 144.69022186 162.11337433 143.72080994 162.11329651 C142.69790359 162.10813522 141.67499725 162.10297394 140.62109375 162.09765625 C139.058395 162.09553383 139.058395 162.09553383 137.46412659 162.09336853 C134.12188906 162.0877508 130.77971743 162.0751953 127.4375 162.0625 C125.17773534 162.05748728 122.91796963 162.05292398 120.65820312 162.04882812 C115.10544609 162.03777561 109.55272775 162.02102024 104 162 C103.99413376 160.84678757 103.98826752 159.69357513 103.98222351 158.50541687 C103.92485421 147.60404525 103.85201881 136.70287038 103.76428509 125.80169964 C103.71967751 120.19813683 103.68040033 114.59464513 103.65356445 108.9909668 C103.62743546 103.57674859 103.58696559 98.1628054 103.53681374 92.74875832 C103.52020974 90.68968963 103.5086554 88.63057346 103.50238609 86.57144737 C103.96766887 67.06918997 103.96766887 67.06918997 94.83203125 50.58984375 C88.74615449 45.30849654 81.74067284 44.65457934 73.98828125 44.70703125 C68.987142 45.19733902 64.565032 46.97274106 60 49 C59.27683594 49.29132813 58.55367188 49.58265625 57.80859375 49.8828125 C55.51374481 51.30036498 55.01243823 52.525151 54 55 C53.65839844 55.70898438 53.31679688 56.41796875 52.96484375 57.1484375 C52.62582031 57.88320312 52.28679687 58.61796875 51.9375 59.375 C51.59589844 60.10460937 51.25429688 60.83421875 50.90234375 61.5859375 C48.7731936 67.28210544 48.83582738 73.13006468 48.79467773 79.12646484 C48.78477814 80.02466949 48.77487854 80.92287415 48.76467896 81.84829712 C48.73321687 84.80248422 48.70836725 87.75668738 48.68359375 90.7109375 C48.66301101 92.76502895 48.64201419 94.81911629 48.62062073 96.87319946 C48.56553642 102.26866315 48.51606718 107.66416421 48.46777344 113.05969238 C48.40860583 119.53926156 48.34245317 126.01876276 48.27747345 132.49827576 C48.17963566 142.33214217 48.09066212 152.16605302 48 162 C32.16 162 16.32 162 0 162 C0 108.54 0 55.08 0 0 Z " fill="#12112A" transform="translate(442,54)"/>
<path d="M0 0 C15.84 0 31.68 0 48 0 C48.495 7.92 48.495 7.92 49 16 C50.8871875 14.1746875 50.8871875 14.1746875 52.8125 12.3125 C65.53715759 1.0766869 82.27344062 -1.1382977 98.68701172 -0.20703125 C114.06065551 1.16903482 127.83680824 8.48714079 137.74804688 20.31933594 C147.67178241 33.64129292 151.17352415 49.3398838 151.11352539 65.61694336 C151.11367142 66.6615976 151.11381744 67.70625183 151.1139679 68.78256226 C151.11327401 72.21834424 151.10550616 75.65407129 151.09765625 79.08984375 C151.09579021 81.47880524 151.09436718 83.86776712 151.09336853 86.25672913 C151.089558 92.53175928 151.07974023 98.80676613 151.06866455 105.08178711 C151.05661623 112.61759205 151.05204122 120.15340479 151.04621124 127.68921661 C151.03652769 139.12616059 151.01736086 150.56305349 151 162 C135.16 162 119.32 162 103 162 C102.96132812 151.54505859 102.96132812 151.54505859 102.921875 140.87890625 C102.89669776 136.45373965 102.87035801 132.02864079 102.83984375 127.60351562 C102.79155912 120.58536554 102.74749535 113.56737234 102.72900391 106.54907227 C102.71381963 100.88842716 102.67934194 95.22819348 102.63169098 89.56773186 C102.61689557 87.41211467 102.60896005 85.25643874 102.60811615 83.10077095 C102.60573927 80.07267929 102.57860067 77.04571798 102.54589844 74.01782227 C102.5509288 73.13380737 102.55595917 72.24979248 102.56114197 71.33898926 C102.42795164 63.32660044 99.85365574 55.69105419 94 50 C86.22445305 45.260772 79.05923667 44.186563 70 45 C63.47696637 46.73647654 57.15492966 49.32863835 53.62890625 55.3359375 C50.91177164 60.58547235 48.89698405 65.12572221 48.84178162 71.08758545 C48.82709839 72.29485039 48.82709839 72.29485039 48.81211853 73.52650452 C48.80636307 74.40044357 48.8006076 75.27438263 48.79467773 76.17480469 C48.78477814 77.101978 48.77487854 78.02915131 48.76467896 78.98442078 C48.7331095 82.0468796 48.70832446 85.10935394 48.68359375 88.171875 C48.6630203 90.29608563 48.64202372 92.4202922 48.62062073 94.54449463 C48.56544051 100.13397941 48.51601333 105.7235009 48.46777344 111.31304932 C48.40869411 118.02034009 48.34248839 124.72756383 48.27747345 131.43479919 C48.17951489 141.6231585 48.09062389 151.81156091 48 162 C32.16 162 16.32 162 0 162 C0 108.54 0 55.08 0 0 Z " fill="#12112A" transform="translate(1203,54)"/>
<path d="M0 0 C15.84 0 31.68 0 48 0 C48.02578125 6.80238281 48.0515625 13.60476562 48.078125 20.61328125 C48.1033093 24.93818805 48.12965448 29.26302602 48.16015625 33.58789062 C48.2083963 40.44344287 48.25247677 47.29883566 48.27099609 54.15454102 C48.2862069 59.68552187 48.32073118 65.21608389 48.36830902 70.74687767 C48.38307721 72.85060155 48.39103838 74.95438524 48.39188385 77.05816078 C47.80860826 94.22561913 47.80860826 94.22561913 54.95465088 109.20478821 C60.84733923 114.90527075 66.77018404 116.37769904 74.875 116.3125 C75.58245361 116.30831055 76.28990723 116.30412109 77.01879883 116.29980469 C83.72381635 116.1544971 87.9201291 114.79062262 93.6875 111.4375 C98.90189199 105.94124899 102.08796654 98.4996142 102.15821838 90.91241455 C102.1680072 90.10757126 102.17779602 89.30272797 102.18788147 88.47349548 C102.19363693 87.59955643 102.1993924 86.72561737 102.20532227 85.82519531 C102.21522186 84.898022 102.22512146 83.97084869 102.23532104 83.01557922 C102.2668905 79.9531204 102.29167554 76.89064606 102.31640625 73.828125 C102.3369797 71.70391437 102.35797628 69.5797078 102.37937927 67.45550537 C102.43455949 61.86602059 102.48398667 56.2764991 102.53222656 50.68695068 C102.59130589 43.97965991 102.65751161 37.27243617 102.72252655 30.56520081 C102.82048511 20.3768415 102.90937611 10.18843909 103 0 C118.84 0 134.68 0 151 0 C151 53.46 151 106.92 151 162 C135.49 162 119.98 162 104 162 C102.00383446 160.00383446 102.59016573 156.18298037 102.4375 153.4375 C102.37272461 152.37112305 102.37272461 152.37112305 102.30664062 151.28320312 C102.20028223 149.52238088 102.09961154 147.7612168 102 146 C101.41734375 146.51949219 100.8346875 147.03898438 100.234375 147.57421875 C93.92135305 152.94425786 87.82579928 156.31124773 80 159 C79.32453125 159.23460937 78.6490625 159.46921875 77.953125 159.7109375 C62.3809564 164.3027308 44.3514924 162.33679786 30 155 C14.46797361 145.3921695 6.60846958 132.64922493 1.796875 115.39453125 C0.15489285 108.40000924 -0.14037217 101.71026272 -0.11352539 94.56665039 C-0.11367142 93.5415033 -0.11381744 92.5163562 -0.1139679 91.46014404 C-0.11327413 88.08929286 -0.10550689 84.71849772 -0.09765625 81.34765625 C-0.09579017 79.00353526 -0.09436716 76.65941388 -0.09336853 74.31529236 C-0.08955836 68.15862951 -0.0797409 62.00199041 -0.06866455 55.84533691 C-0.05661526 48.4513676 -0.05204105 41.05739033 -0.04621124 33.663414 C-0.03652833 22.4422595 -0.01736125 11.22115708 0 0 Z " fill="#12112B" transform="translate(748,54)"/>
<path d="M0 0 C15.60288625 13.26674319 26.31848511 32.64209556 28.05957031 53.18017578 C29.28552564 75.69072024 24.95001194 96.83267024 9.875 114.26953125 C9.20082031 115.00429687 8.52664062 115.7390625 7.83203125 116.49609375 C7.16816406 117.25148437 6.50429687 118.006875 5.8203125 118.78515625 C-7.58279386 133.20402483 -27.17582556 142.03637527 -46.83203125 142.83203125 C-70.9165059 143.20058941 -92.26474391 137.31951729 -110.16796875 120.49609375 C-125.54809893 104.84816342 -133.81822013 84.69252094 -134.35546875 62.80859375 C-134.03233148 41.86929864 -126.97621471 23.18959838 -113.16796875 7.49609375 C-112.48992188 6.72265625 -111.811875 5.94921875 -111.11328125 5.15234375 C-82.15517622 -25.82116053 -31.95765422 -25.88085035 0 0 Z M-80.48046875 39.18359375 C-86.8769971 48.62693644 -88.34881681 58.2298393 -87.16796875 69.49609375 C-84.94334414 79.4819087 -79.69581106 87.42647393 -71.28125 93.2421875 C-62.6859771 98.34215534 -52.7962019 98.99251884 -43.10546875 96.8046875 C-33.13135403 93.49383553 -25.93757174 87.94614828 -21.16796875 78.49609375 C-17.08756779 67.96403995 -16.64970581 56.64582 -21.16796875 46.1796875 C-25.90484436 36.97082735 -32.38470287 31.19861663 -42.13671875 27.8125 C-56.05102646 23.80937576 -71.20542302 27.86803796 -80.48046875 39.18359375 Z " fill="#12112A" transform="translate(2532.16796875,72.50390625)"/>
<path d="M0 0 C6.48163753 5.2374959 12.50927822 11.17280406 16.28320312 18.70410156 C16.28320312 19.36410156 16.28320312 20.02410156 16.28320312 20.70410156 C15.59395752 21.06125244 14.90471191 21.41840332 14.19458008 21.78637695 C12.14654091 22.84811412 10.0987955 23.91041801 8.05126953 24.97314453 C5.7455068 26.16984744 3.43919022 27.36548383 1.13232422 28.56005859 C-5.8055153 32.16078447 -12.68198658 35.83122698 -19.45898438 39.72753906 C-21.71679688 40.70410156 -21.71679688 40.70410156 -24.71679688 39.70410156 C-25.84857426 38.45466415 -26.92675952 37.15587818 -27.96679688 35.82910156 C-31.80315186 31.36002833 -35.17422904 29.04334275 -41.20507812 28.46582031 C-45.71803351 28.33878898 -49.71362098 28.37967685 -53.71679688 30.70410156 C-55.07119355 33.41289492 -54.78181138 35.71343424 -54.71679688 38.70410156 C-47.43902968 42.80169474 -40.0818376 45.25048735 -32.05249023 47.47058105 C-14.55848992 52.34236934 2.99446608 57.60251873 13.28320312 73.70410156 C20.25872721 86.33299157 20.51203973 99.48933894 17.33007812 113.29785156 C15.77327251 118.36327878 13.37387202 122.43263866 10.28320312 126.70410156 C9.54070312 127.75597656 8.79820312 128.80785156 8.03320312 129.89160156 C-5.61995673 143.8550605 -25.31307397 148.4837258 -44.27929688 148.89160156 C-65.90178489 148.61720451 -84.26174089 143.19739924 -100.41601562 128.17675781 C-105.09077847 123.15277669 -109.17932167 117.45523469 -110.71679688 110.70410156 C-110.03278809 110.32189453 -109.3487793 109.9396875 -108.64404297 109.54589844 C-105.45957857 107.76598257 -102.27566606 105.98508191 -99.09179688 104.20410156 C-97.95218506 103.56714355 -96.81257324 102.93018555 -95.63842773 102.27392578 C-90.74835677 99.53732204 -85.85952372 96.80074732 -81.00976562 93.99316406 C-80.36281738 93.61869141 -79.71586914 93.24421875 -79.04931641 92.85839844 C-77.395808 91.89685479 -75.74562529 90.92959847 -74.09570312 89.96191406 C-71.71679688 88.70410156 -71.71679688 88.70410156 -69.71679688 88.70410156 C-69.06845033 89.97365456 -68.42321872 91.24479863 -67.77929688 92.51660156 C-67.41964844 93.22429687 -67.06 93.93199219 -66.68945312 94.66113281 C-65.71679688 96.70410156 -65.71679688 96.70410156 -64.71679688 99.70410156 C-62.96812204 100.7884125 -62.96812204 100.7884125 -60.71679688 101.70410156 C-59.26273438 102.47753906 -59.26273438 102.47753906 -57.77929688 103.26660156 C-51.01618776 106.44112217 -43.03987728 106.69602425 -35.77929688 104.95410156 C-32.47408839 103.60503687 -31.16487238 102.96227145 -29.71679688 99.70410156 C-29.06879004 96.66186026 -29.06879004 96.66186026 -30.71679688 93.70410156 C-38.10784741 89.22446637 -46.64353521 87.14298683 -54.90429688 84.89160156 C-65.54474011 81.86141201 -75.21077691 78.37435909 -84.71679688 72.70410156 C-85.53921875 72.21425781 -86.36164062 71.72441406 -87.20898438 71.21972656 C-95.71161981 65.50852239 -100.41461022 56.83545219 -103.06054688 47.12988281 C-105.58384624 33.95765933 -103.59181669 21.12242454 -96.24023438 9.87988281 C-86.99136751 -3.32939627 -73.27572257 -9.79499924 -57.67382812 -12.78808594 C-37.24242212 -15.41008276 -16.76778834 -12.65691418 0 0 Z " fill="#12112A" transform="translate(716.716796875,67.2958984375)"/>
<path d="M0 0 C7.69677006 6.32617768 16.23049832 14.15975667 19.43994141 23.78808594 C18.7914624 24.16505615 18.1429834 24.54202637 17.47485352 24.93041992 C15.53802554 26.05684958 13.60153144 27.18385342 11.6652832 28.3112793 C9.46816319 29.5905262 7.27040574 30.86867889 5.07202148 32.14575195 C0.22206662 34.969427 -4.61859889 37.79895395 -9.38818359 40.75683594 C-10.41673462 41.39214233 -10.41673462 41.39214233 -11.46606445 42.0402832 C-12.70934969 42.81325667 -13.94745884 43.59463756 -15.17944336 44.38549805 C-16.82958984 45.40917969 -16.82958984 45.40917969 -19.56005859 46.78808594 C-22.56005859 45.78808594 -22.56005859 45.78808594 -24.24755859 43.10058594 C-28.33268325 36.687711 -34.6127718 33.12342977 -41.85693359 31.25683594 C-52.07048376 29.48570007 -62.12138147 30.4889879 -70.81005859 36.41308594 C-77.4051058 41.80903365 -81.99504441 49.40221827 -83.56005859 57.78808594 C-84.56887034 68.92704897 -82.94109683 78.57637183 -76.34521484 87.74902344 C-70.10332252 94.87871226 -61.65620908 97.97966373 -52.39990234 99.03417969 C-43.03090613 99.35082568 -34.92798068 96.52284763 -27.56005859 90.78808594 C-25.28535035 88.27369671 -23.35451418 85.66213268 -21.56005859 82.78808594 C-17.02754228 84.14617838 -13.18740409 85.9764741 -9.09521484 88.34277344 C-8.49881699 88.68559357 -7.90241913 89.0284137 -7.28794861 89.38162231 C-5.3965077 90.47037557 -3.50949199 91.56654301 -1.62255859 92.66308594 C-0.36047826 93.39145232 0.90188927 94.11932128 2.16455078 94.84667969 C4.50156839 96.19371134 6.83649705 97.54412605 9.17016602 98.89697266 C12.58659485 100.87290469 16.01177004 102.832616 19.43994141 104.78808594 C15.7772715 117.81727108 3.0762685 128.38968044 -8.24755859 135.03808594 C-28.1776679 146.17750112 -51.42101232 148.67806281 -73.39990234 142.75292969 C-85.69786336 138.999848 -95.88808664 133.2631918 -105.56005859 124.78808594 C-106.24841797 124.19511719 -106.93677734 123.60214844 -107.64599609 122.99121094 C-123.22888199 108.57858129 -130.55125033 87.52343977 -131.55615234 66.74121094 C-131.57866186 43.96158128 -123.85307475 22.86717573 -108.03369141 6.25 C-79.90886595 -21.6511688 -31.24242211 -24.27032603 0 0 Z " fill="#12112A" transform="translate(1497.56005859375,70.2119140625)"/>
<path d="M0 0 C16.5 0 33 0 50 0 C50 71.28 50 142.56 50 216 C33.5 216 17 216 0 216 C0 144.72 0 73.44 0 0 Z " fill="#12112A" transform="translate(375,0)"/>
<path d="M0 0 C15.51 0 31.02 0 47 0 C47.495 12.375 47.495 12.375 48 25 C49.65 22.36 51.3 19.72 53 17 C59.69664649 7.68235685 70.45895706 3.2756412 81.2578125 0.3984375 C85.13343062 -0.1646865 89.08368484 0 93 0 C93 17.49 93 34.98 93 53 C88.71 53 84.42 53 80 53 C67.69081589 55.4374622 59.4623969 58.54576656 52 69 C48.54262448 75.67631135 47.85300387 82.51268365 47.79467773 89.91137695 C47.78477814 90.69239273 47.77487854 91.47340851 47.76467896 92.27809143 C47.73320433 94.84812434 47.7083623 97.4181757 47.68359375 99.98828125 C47.66301209 101.77475961 47.6420153 103.56123322 47.62062073 105.34770203 C47.56552525 110.04119013 47.51606091 114.73472127 47.46777344 119.42828369 C47.41746678 124.22110813 47.36182862 129.01387035 47.30664062 133.80664062 C47.19921231 143.20437389 47.09773351 152.60216126 47 162 C40.46721214 162.02527002 33.93443679 162.04283292 27.40161133 162.05493164 C25.17732268 162.05997317 22.95303737 162.06680623 20.72875977 162.07543945 C17.53921691 162.08751298 14.34971771 162.09322996 11.16015625 162.09765625 C9.65860741 162.10539818 9.65860741 162.10539818 8.12672424 162.11329651 C7.20584518 162.11337204 6.28496613 162.11344757 5.33618164 162.11352539 C4.52121719 162.115746 3.70625275 162.11796661 2.86659241 162.12025452 C1 162 1 162 0 161 C-0.09683581 158.92439194 -0.12186902 156.84542796 -0.12025452 154.76756287 C-0.12110894 154.10925651 -0.12196337 153.45095016 -0.12284368 152.77269512 C-0.1245003 150.55082894 -0.11897418 148.32903705 -0.11352539 146.10717773 C-0.11324353 144.52084352 -0.11340123 142.93450918 -0.1139679 141.34817505 C-0.11425592 137.02811278 -0.10835837 132.70807803 -0.10139394 128.38802218 C-0.09516125 123.87831685 -0.09455667 119.36861095 -0.09336853 114.85890198 C-0.09025496 106.31305626 -0.08204124 97.76722326 -0.07201904 89.22138315 C-0.06085869 79.49482367 -0.05534765 69.76826358 -0.05032361 60.04169929 C-0.03985864 40.02779084 -0.02151285 20.01389984 0 0 Z " fill="#12112B" transform="translate(916,54)"/>
<path d="M0 0 C17.82 0 35.64 0 54 0 C54 18.15 54 36.3 54 55 C36.18 55 18.36 55 0 55 C0 36.85 0 18.7 0 0 Z " fill="#FF2D3C" transform="translate(0,0)"/>
</svg>
