<?xml version="1.0" encoding="UTF-8"?>
<svg version="1.1" xmlns="http://www.w3.org/2000/svg" width="50" height="51">
<path d="M0 0 C5.56637586 3.75703763 9.85958202 8.4717473 11.875 14.9375 C12.61725196 23.12816403 13.42008504 32.25412771 7.875 38.9375 C3.14947404 43.9147489 -1.94570827 47.54214766 -8.89453125 48.40625 C-10.2417937 48.44045203 -11.58986301 48.45016516 -12.9375 48.4375 C-13.99590088 48.42891968 -13.99590088 48.42891968 -15.07568359 48.42016602 C-22.28860111 48.17387532 -26.78042933 46.12245992 -31.92578125 41.22265625 C-37.02195547 35.66429917 -38.51762071 30.66402152 -38.5 23.125 C-38.49838867 22.41303467 -38.49677734 21.70106934 -38.49511719 20.9675293 C-38.3637383 15.34464188 -37.4198095 11.44920778 -34.125 6.9375 C-33.568125 6.03 -33.01125 5.1225 -32.4375 4.1875 C-24.42663704 -3.60685315 -9.92384516 -5.07966312 0 0 Z " fill="#0C7FA4" transform="translate(38.125,3.0625)"/>
<path d="M0 0 C5.56637586 3.75703763 9.85958202 8.4717473 11.875 14.9375 C12.61725196 23.12816403 13.42008504 32.25412771 7.875 38.9375 C3.14947404 43.9147489 -1.94570827 47.54214766 -8.89453125 48.40625 C-10.2417937 48.44045203 -11.58986301 48.45016516 -12.9375 48.4375 C-13.99590088 48.42891968 -13.99590088 48.42891968 -15.07568359 48.42016602 C-22.28860111 48.17387532 -26.78042933 46.12245992 -31.92578125 41.22265625 C-37.02195547 35.66429917 -38.51762071 30.66402152 -38.5 23.125 C-38.49838867 22.41303467 -38.49677734 21.70106934 -38.49511719 20.9675293 C-38.3637383 15.34464188 -37.4198095 11.44920778 -34.125 6.9375 C-33.568125 6.03 -33.01125 5.1225 -32.4375 4.1875 C-24.42663704 -3.60685315 -9.92384516 -5.07966312 0 0 Z M-32.8984375 10.19140625 C-37.2066008 16.32436484 -36.91141688 22.63037645 -36.125 29.9375 C-33.773981 36.61271465 -28.18032436 41.36647737 -22.33203125 45.07421875 C-16.75560206 47.25544149 -9.24596908 47.03670924 -3.640625 45.0625 C2.59898939 41.38644811 7.64223302 35.85806735 9.875 28.9375 C10.73716586 21.84958906 10.81045885 15.5285072 6.4375 9.65234375 C1.98557657 4.76635778 -2.52839634 0.35828491 -9.296875 -0.43359375 C-20.43190069 -0.64024816 -25.87486521 1.69641518 -32.8984375 10.19140625 Z " fill="#EEF5F8" transform="translate(38.125,3.0625)"/>
<path d="M0 0 C1.9069289 2.56618147 1.66610451 4.37052861 1.5546875 7.52734375 C1.52761719 8.52121094 1.50054687 9.51507813 1.47265625 10.5390625 C1.43785156 11.29832031 1.40304688 12.05757812 1.3671875 12.83984375 C-0.2828125 12.83984375 -1.9328125 12.83984375 -3.6328125 12.83984375 C-3.6328125 9.53984375 -3.6328125 6.23984375 -3.6328125 2.83984375 C-4.9528125 3.16984375 -6.2728125 3.49984375 -7.6328125 3.83984375 C-7.9628125 6.80984375 -8.2928125 9.77984375 -8.6328125 12.83984375 C-9.9528125 12.83984375 -11.2728125 12.83984375 -12.6328125 12.83984375 C-12.6328125 8.54984375 -12.6328125 4.25984375 -12.6328125 -0.16015625 C-2.5828125 -1.83515625 -2.5828125 -1.83515625 0 0 Z " fill="#E4F2F5" transform="translate(34.6328125,23.16015625)"/>
<path d="M0 0 C4.41618578 4.53991512 6.88196271 8.50794901 7 15 C6.7397104 17.34260643 6.42579972 19.6817571 6 22 C5.67 22 5.34 22 5 22 C4.98582031 21.3709375 4.97164062 20.741875 4.95703125 20.09375 C4.54782415 12.75014159 2.69781936 7.72626413 -2.5234375 2.46484375 C-7.12189472 -1.53838169 -10.70801038 -3.19342931 -16.75 -3.625 C-18.22726563 -3.73714844 -18.22726563 -3.73714844 -19.734375 -3.8515625 C-20.48203125 -3.90054687 -21.2296875 -3.94953125 -22 -4 C-22 -4.33 -22 -4.66 -22 -5 C-12.98469874 -6.27667665 -7.32628015 -5.79520207 0 0 Z " fill="#E6F4F6" transform="translate(43,7)"/>
<path d="M0 0 C1.98 0 3.96 0 6 0 C6.66 0.99 7.32 1.98 8 3 C7.01 3.33 6.02 3.66 5 4 C4.67 6.97 4.34 9.94 4 13 C2.68 13 1.36 13 0 13 C0 8.71 0 4.42 0 0 Z " fill="#F8FBFC" transform="translate(22,23)"/>
<path d="M0 0 C1.32 0 2.64 0 4 0 C4 4.29 4 8.58 4 13 C2.68 13 1.36 13 0 13 C0 8.71 0 4.42 0 0 Z " fill="#FDFEFE" transform="translate(15,23)"/>
<path d="M0 0 C3.0390625 -0.29296875 3.0390625 -0.29296875 6.625 -0.1875 C7.81351563 -0.16042969 9.00203125 -0.13335937 10.2265625 -0.10546875 C11.14179688 -0.07066406 12.05703125 -0.03585938 13 0 C13 0.33 13 0.66 13 1 C8.05 1.66 3.1 2.32 -2 3 C-1.34 2.01 -0.68 1.02 0 0 Z " fill="#FBFDFD" transform="translate(17,1)"/>
<path d="M0 0 C1.32 0 2.64 0 4 0 C4 1.32 4 2.64 4 4 C2.35 3.67 0.7 3.34 -1 3 C-0.67 2.01 -0.34 1.02 0 0 Z " fill="#E9F2F6" transform="translate(15,16)"/>
</svg>
