<svg xmlns="http://www.w3.org/2000/svg" width="16.784" height="16.783" viewBox="0 0 16.784 16.783" class="jsx-1666170656"><path data-name="Icon awesome-linkedin-in" d="M3.757 16.784H.277V5.579h3.48zM2.015 4.05A2.025 2.025 0 1 1 4.03 2.016 2.032 2.032 0 0 1 2.015 4.05zM16.78 16.784h-3.472v-5.455c0-1.3-.026-2.967-1.809-2.967-1.809 0-2.086 1.412-2.086 2.873v5.548H5.936V5.579h3.338v1.528h.049A3.656 3.656 0 0 1 12.615 5.3c3.522 0 4.169 2.319 4.169 5.331v6.155z" transform="translate(0 -.001)" class="jsx-1666170656 cls-linkedin"></path></svg>