<svg xmlns="http://www.w3.org/2000/svg" xmlns:xlink="http://www.w3.org/1999/xlink" width="43.4" height="48.2" viewBox="0 0 43.4 48.2">
  <defs>
    <linearGradient id="linear-gradient" x1="0.5" x2="0.5" y2="1" gradientUnits="objectBoundingBox">
      <stop offset="0" stop-color="#62baf8"/>
      <stop offset="1" stop-color="#497af8"/>
    </linearGradient>
  </defs>
  <g id="Group_24122" data-name="Group 24122" transform="translate(-43.8 -393)">
    <path id="profit" d="M15.879,38.278v10.9a.838.838,0,0,1-.849.821H7.519a.838.838,0,0,1-.849-.821v-10.9a.838.838,0,0,1,.849-.821h7.512a.838.838,0,0,1,.849.821ZM26.294,30.2H18.782a.86.86,0,0,0-.6.24.805.805,0,0,0-.248.582V49.179a.838.838,0,0,0,.849.821h7.512a.838.838,0,0,0,.849-.821V31.017a.805.805,0,0,0-.248-.582A.86.86,0,0,0,26.294,30.2Zm11.264-7.27H30.046a.838.838,0,0,0-.849.821V49.179a.838.838,0,0,0,.849.821h7.512a.838.838,0,0,0,.849-.821V23.747a.838.838,0,0,0-.849-.821Zm11.264-7.27H41.309a.838.838,0,0,0-.849.821v32.7a.838.838,0,0,0,.849.821h7.512a.838.838,0,0,0,.849-.821v-32.7a.838.838,0,0,0-.849-.821ZM8.1,31.645c3.556-2.459,5.866.446,9.659-2.416,3.89-2.739,1.637-5.69,5.062-8.32,3.557-2.461,5.869.447,9.661-2.417,3.889-2.736,1.638-5.69,5.06-8.318C41.1,7.711,43.3,10.16,47.091,7.293c.089-.065.265.067.349,0V9.031a.835.835,0,0,0,.834.836.853.853,0,0,0,.864-.807l.067-3.7a.837.837,0,0,0-.836-.836l-3.816-.064a.837.837,0,0,0-.864.807c-.008.454,1.713.7,2.182.709-1.434,2.97-5.491-.054-9.348,2.883-3.889,2.737-1.636,5.69-5.06,8.318-3.556,2.462-5.868-.447-9.661,2.417-3.889,2.738-1.639,5.692-5.062,8.32a5.772,5.772,0,0,1-4.279,1.044,7.461,7.461,0,0,0-5.38,1.372.811.811,0,0,0-.283.913C6.912,31.578,7.954,31.753,8.1,31.645Z" transform="translate(37.33 391)" stroke="#f7dece" stroke-width="0.4" fill="url(#linear-gradient)"/>
    <g id="Group_24116" data-name="Group 24116" transform="translate(7 2)">
      <g id="Path_66077" data-name="Path 66077" transform="translate(37 391)" fill="#fff">
        <path d="M 8.5 16 C 4.364490032196045 16 1 12.63551044464111 1 8.5 C 1 4.364490032196045 4.364490032196045 1 8.5 1 C 12.63551044464111 1 16 4.364490032196045 16 8.5 C 16 12.63551044464111 12.63551044464111 16 8.5 16 Z" stroke="none"/>
        <path d="M 8.5 2 C 4.915889739990234 2 2 4.915889739990234 2 8.5 C 2 12.08411026000977 4.915889739990234 15 8.5 15 C 12.08411026000977 15 15 12.08411026000977 15 8.5 C 15 4.915889739990234 12.08411026000977 2 8.5 2 M 8.5 0 C 13.19441986083984 0 17 3.805580139160156 17 8.5 C 17 13.19441986083984 13.19441986083984 17 8.5 17 C 3.805580139160156 17 0 13.19441986083984 0 8.5 C 0 3.805580139160156 3.805580139160156 0 8.5 0 Z" stroke="none" fill="#f7dece"/>
      </g>
      <path id="rupee_1_" data-name="rupee (1)" d="M10.927,4.642h-.909a2.252,2.252,0,0,0-.441-.821h1.35a.411.411,0,0,0,0-.821H6.411a.411.411,0,1,0,0,.821H7.848a1.435,1.435,0,0,1,1.293.821H6.411a.411.411,0,0,0,0,.821H9.264A1.435,1.435,0,0,1,7.848,6.7H6.411a.417.417,0,0,0-.312.678l2.467,2.874a.411.411,0,0,0,.623-.535L7.3,7.516h.544A2.261,2.261,0,0,0,10.1,5.463h.832a.411.411,0,0,0,0-.821Z" transform="translate(36.831 392.805)" fill="#3597ec"/>
    </g>
  </g>
</svg>
