<svg xmlns="http://www.w3.org/2000/svg" width="17.86" height="17.86" viewBox="0 0 17.86 17.86">
    <defs>
        <style>
            .cls-1{stroke:#000;stroke-width:.2px}
        </style>
    </defs>
    <g id="insurance_3_" data-name="insurance (3)" transform="translate(.1 .1)">
        <path id="Path_16842" data-name="Path 16842" class="cls-1" d="M16.415 20.3a.552.552 0 0 1-.216-.044c-.171-.073-4.2-1.827-4.2-5.435v-2.955a.552.552 0 0 1 .375-.522l3.863-1.314a.552.552 0 0 1 .355 0l3.863 1.314a.552.552 0 0 1 .375.522v2.957c0 3.608-4.028 5.362-4.2 5.436a.565.565 0 0 1-.216.043zM13.1 12.261v2.561c0 2.453 2.543 3.927 3.311 4.316.768-.389 3.311-1.863 3.311-4.316v-2.561l-3.311-1.127z" transform="translate(-3.17 -2.642)"/>
        <path id="Path_16843" data-name="Path 16843" class="cls-1" d="M17.024 18.047a.548.548 0 0 1-.39-.162l-1.472-1.472a.552.552 0 0 1 .781-.781l1.022 1.022 1.825-2.434a.552.552 0 1 1 .882.663l-2.208 2.943a.551.551 0 0 1-.4.219z" transform="translate(-3.962 -3.698)"/>
        <path id="Path_16844" data-name="Path 16844" class="cls-1" d="M7.793 15.453H2.024A2.025 2.025 0 0 1 0 13.429V2.024A2.025 2.025 0 0 1 2.024 0h8.462a2.025 2.025 0 0 1 2.024 2.024v4a.552.552 0 0 1-1.1 0v-4a.921.921 0 0 0-.92-.92H2.024a.921.921 0 0 0-.92.92v11.405a.921.921 0 0 0 .92.92h5.769a.552.552 0 1 1 0 1.1z"/>
        <path id="Path_16845" data-name="Path 16845" class="cls-1" d="M10.542 9.1h-6.99a.552.552 0 0 1 0-1.1h6.99a.552.552 0 0 1 0 1.1z" transform="translate(-.792 -2.113)"/>
        <path id="Path_16846" data-name="Path 16846" class="cls-1" d="M7.6 13.1H3.552a.552.552 0 0 1 0-1.1H7.6a.552.552 0 0 1 0 1.1z" transform="translate(-.792 -3.17)"/>
        <path id="Path_16847" data-name="Path 16847" class="cls-1" d="M6.863 5.1H3.552a.552.552 0 0 1 0-1.1h3.311a.552.552 0 0 1 0 1.1z" transform="translate(-.792 -1.057)"/>
    </g>
</svg>
