<svg xmlns="http://www.w3.org/2000/svg" width="18.258" height="18.258" viewBox="0 0 18.258 18.258">
    <defs>
        <style>
            .cls-1{stroke:#000;stroke-width:.2px}
        </style>
    </defs>
    <g id="idea" transform="translate(.1 .1)">
        <g id="Group_22164" data-name="Group 22164" transform="translate(4.268 4.268)">
            <g id="Group_22163" data-name="Group 22163">
                <path id="Path_16725" data-name="Path 16725" class="cls-1" d="M124.646 121.144a4.708 4.708 0 0 0-3.474 3.422 4.778 4.778 0 0 0 1.279 4.606 2.568 2.568 0 0 1 .688 1.812v.114a1.583 1.583 0 0 0 .529 1.182v.934a1.589 1.589 0 0 0 1.587 1.587h1.058a1.589 1.589 0 0 0 1.587-1.587v-.934a1.583 1.583 0 0 0 .529-1.182v-.116a2.654 2.654 0 0 1 .725-1.847 4.765 4.765 0 0 0-4.509-7.992zm2.2 12.07a.53.53 0 0 1-.529.529h-1.058a.53.53 0 0 1-.529-.529v-.529h2.116zm1.563-4.826a3.682 3.682 0 0 0-1.034 2.594v.116a.53.53 0 0 1-.529.529h-2.116a.53.53 0 0 1-.529-.529v-.114a3.592 3.592 0 0 0-1.006-2.568 3.73 3.73 0 0 1-.993-3.6 3.64 3.64 0 0 1 2.687-2.646 3.707 3.707 0 0 1 3.52 6.214z" transform="translate(-121.025 -121.012)"/>
            </g>
        </g>
        <g id="Group_22166" data-name="Group 22166" transform="translate(2.514 2.514)">
            <g id="Group_22165" data-name="Group 22165">
                <path id="Path_16726" data-name="Path 16726" class="cls-1" d="m73.693 72.946-1.5-1.5a.529.529 0 0 0-.748.748l1.5 1.5a.529.529 0 0 0 .748-.748z" transform="translate(-71.294 -71.295)"/>
            </g>
        </g>
        <g id="Group_22168" data-name="Group 22168" transform="translate(0 8.5)">
            <g id="Group_22167" data-name="Group 22167">
                <path id="Path_16727" data-name="Path 16727" class="cls-1" d="M2.68 241H.529a.529.529 0 1 0 0 1.058H2.68a.529.529 0 1 0 0-1.058z" transform="translate(0 -241)"/>
            </g>
        </g>
        <g id="Group_22170" data-name="Group 22170" transform="translate(14.848 8.5)">
            <g id="Group_22169" data-name="Group 22169">
                <path id="Path_16728" data-name="Path 16728" class="cls-1" d="M423.68 241h-2.151a.529.529 0 0 0 0 1.058h2.151a.529.529 0 0 0 0-1.058z" transform="translate(-421 -241)"/>
            </g>
        </g>
        <g id="Group_22172" data-name="Group 22172" transform="translate(12.989 2.514)">
            <g id="Group_22171" data-name="Group 22171">
                <path id="Path_16729" data-name="Path 16729" class="cls-1" d="M370.679 71.449a.529.529 0 0 0-.748 0l-1.5 1.5a.529.529 0 0 0 .748.748l1.5-1.5a.529.529 0 0 0 0-.748z" transform="translate(-368.279 -71.295)"/>
            </g>
        </g>
        <g id="Group_22174" data-name="Group 22174" transform="translate(8.5)">
            <g id="Group_22173" data-name="Group 22173">
                <path id="Path_16730" data-name="Path 16730" class="cls-1" d="M241.529 0a.529.529 0 0 0-.529.529V2.68a.529.529 0 1 0 1.058 0V.529a.529.529 0 0 0-.529-.529z" transform="translate(-241)"/>
            </g>
        </g>
        <g id="Group_22176" data-name="Group 22176" transform="translate(6.455 6.384)">
            <g id="Group_22175" data-name="Group 22175">
                <path id="Path_16731" data-name="Path 16731" class="cls-1" d="M185.592 181a2.891 2.891 0 0 0-.658.077 2.61 2.61 0 0 0-1.9 1.869.529.529 0 1 0 1.027.255 1.549 1.549 0 0 1 1.114-1.093 1.833 1.833 0 0 1 .417-.05.529.529 0 0 0 0-1.058z" transform="translate(-183.018 -181)"/>
            </g>
        </g>
    </g>
</svg>
