<?xml version="1.0" encoding="UTF-8"?>
<svg xmlns="http://www.w3.org/2000/svg" xmlns:xlink="http://www.w3.org/1999/xlink" width="30px" height="30px" viewBox="0 0 30 30" version="1.1">
<g id="surface1">
<path style=" stroke:none;fill-rule:nonzero;fill:rgb(0%,0%,0%);fill-opacity:1;" d="M 15 6.152344 C 10.113281 6.152344 6.152344 10.113281 6.152344 15 C 6.152344 19.886719 10.113281 23.847656 15 23.847656 C 19.886719 23.847656 23.847656 19.886719 23.847656 15 C 23.84375 10.117188 19.882812 6.15625 15 6.152344 Z M 15 22.582031 C 14.664062 22.582031 14.121094 21.972656 13.664062 20.609375 C 13.4375 19.90625 13.265625 19.183594 13.15625 18.453125 C 13.75 18.40625 14.371094 18.378906 15 18.378906 C 15.628906 18.378906 16.246094 18.402344 16.84375 18.453125 C 16.730469 19.183594 16.558594 19.90625 16.328125 20.609375 C 15.878906 21.972656 15.335938 22.582031 15 22.582031 Z M 15 17.113281 C 14.3125 17.113281 13.644531 17.140625 12.996094 17.191406 C 12.929688 16.488281 12.902344 15.753906 12.902344 15 C 12.902344 14.246094 12.9375 13.511719 13 12.808594 C 13.644531 12.863281 14.320312 12.890625 15.003906 12.890625 C 15.691406 12.890625 16.363281 12.863281 17.007812 12.808594 C 17.074219 13.511719 17.109375 14.246094 17.109375 15 C 17.109375 15.753906 17.074219 16.488281 17.007812 17.191406 C 16.359375 17.136719 15.6875 17.109375 15 17.109375 Z M 7.417969 15 C 7.417969 13.863281 7.675781 12.742188 8.167969 11.71875 C 9.308594 12.203125 10.511719 12.523438 11.742188 12.671875 C 11.667969 13.433594 11.632812 14.214844 11.632812 15 C 11.632812 15.785156 11.671875 16.570312 11.742188 17.332031 C 10.511719 17.480469 9.308594 17.800781 8.167969 18.28125 C 7.675781 17.257812 7.417969 16.136719 7.417969 15 Z M 15 7.417969 C 15.335938 7.417969 15.878906 8.027344 16.335938 9.390625 C 16.5625 10.097656 16.734375 10.816406 16.84375 11.550781 C 16.25 11.597656 15.628906 11.621094 15 11.621094 C 14.371094 11.621094 13.75 11.597656 13.15625 11.550781 C 13.269531 10.816406 13.4375 10.097656 13.667969 9.390625 C 14.121094 8.027344 14.664062 7.417969 15 7.417969 Z M 18.261719 12.667969 C 19.492188 12.523438 20.691406 12.203125 21.832031 11.722656 C 22.832031 13.796875 22.832031 16.210938 21.832031 18.285156 C 20.695312 17.804688 19.492188 17.484375 18.261719 17.332031 C 18.335938 16.570312 18.371094 15.789062 18.371094 15.003906 C 18.371094 14.21875 18.335938 13.4375 18.257812 12.671875 Z M 21.183594 10.621094 C 20.195312 11.015625 19.160156 11.28125 18.105469 11.410156 C 17.9375 10.113281 17.558594 8.855469 16.980469 7.683594 C 18.679688 8.144531 20.164062 9.183594 21.183594 10.621094 Z M 13.019531 7.683594 C 12.441406 8.855469 12.0625 10.113281 11.894531 11.410156 C 10.839844 11.28125 9.804688 11.015625 8.816406 10.621094 C 9.835938 9.183594 11.320312 8.144531 13.019531 7.683594 Z M 8.816406 19.378906 C 9.804688 18.984375 10.839844 18.71875 11.894531 18.589844 C 12.0625 19.886719 12.441406 21.144531 13.019531 22.316406 C 11.320312 21.855469 9.835938 20.816406 8.816406 19.378906 Z M 16.984375 22.316406 C 17.558594 21.144531 17.941406 19.886719 18.105469 18.589844 C 19.164062 18.71875 20.195312 18.984375 21.183594 19.378906 C 20.167969 20.816406 18.679688 21.855469 16.980469 22.316406 Z M 16.984375 22.316406 "/>
</g>
</svg>
