<?xml version="1.0" encoding="UTF-8"?>
<svg version="1.1" xmlns="http://www.w3.org/2000/svg" width="250" height="95">
<path d="M0 0 C82.5 0 165 0 250 0 C250 31.35 250 62.7 250 95 C167.5 95 85 95 0 95 C0 63.65 0 32.3 0 0 Z " fill="#FAAD18" transform="translate(0,0)"/>
<path d="M0 0 C82.5 0 165 0 250 0 C250 8.25 250 16.5 250 25 C167.5 25 85 25 0 25 C0 16.75 0 8.5 0 0 Z " fill="#383836" transform="translate(0,70)"/>
<path d="M0 0 C3.53684081 2.99862591 5.78275426 5.08823745 6.3125 9.75 C5.92220973 13.80901885 4.50412622 15.83301684 2 19 C1.34 19.33 0.68 19.66 0 20 C0 20.66 0 21.32 0 22 C13.365 22.495 13.365 22.495 27 23 C26.18270373 18.91351863 25.16436352 15.66259736 23.62109375 11.8671875 C23 10 23 10 23 7 C22.34 7 21.68 7 21 7 C21 6.34 21 5.68 21 5 C22.98 5 24.96 5 27 5 C27.2165625 6.7015625 27.2165625 6.7015625 27.4375 8.4375 C27.61171478 11.80777201 27.61171478 11.80777201 29 13 C29.66 11.02 30.32 9.04 31 7 C30.34 7 29.68 7 29 7 C29 6.34 29 5.68 29 5 C30.98 5 32.96 5 35 5 C35.33 7.64 35.66 10.28 36 13 C38.1519437 9.77208445 38.20086443 8.71599191 38 5 C39.65 5 41.3 5 43 5 C43.33 6.32 43.66 7.64 44 9 C43.34 9.33 42.68 9.66 42 10 C41.34227572 13.02934491 41.34227572 13.02934491 41 16 C41.99 16 42.98 16 44 16 C44.33 13.36 44.66 10.72 45 8 C45.66 8 46.32 8 47 8 C47.33 6.35 47.66 4.7 48 3 C49.32 3 50.64 3 52 3 C53.49821059 6.37097383 54 8.20442119 54 12 C54.66 12 55.32 12 56 12 C56 13.98 56 15.96 56 18 C56.99 18 57.98 18 59 18 C59 13.71 59 9.42 59 5 C61.31 5 63.62 5 66 5 C66 5.66 66 6.32 66 7 C65.34 7 64.68 7 64 7 C64 10.96 64 14.92 64 19 C65.65 19 67.3 19 69 19 C69.33 18.01 69.66 17.02 70 16 C70.66 16.33 71.32 16.66 72 17 C72.59355614 19.64860427 72.74209269 22.29197322 73 25 C69.76467621 26.61766189 66.22586345 26.11166275 62.67318726 26.08229065 C61.80168175 26.07906152 60.93017625 26.07583239 60.03226149 26.07250541 C57.09486913 26.06038519 54.15756822 26.04102179 51.22021484 26.02172852 C49.12142641 26.0115905 47.02263578 26.00189632 44.92384338 25.99261475 C39.21130412 25.96608589 33.49881538 25.93331622 27.78631544 25.89946485 C21.82188653 25.86516909 15.85743049 25.83655902 9.89297485 25.80735779 C-1.40821739 25.75115849 -12.70937566 25.68981156 -24.01053083 25.62663645 C-36.87367409 25.55497864 -49.73684459 25.48902712 -62.60002065 25.42356598 C-89.06671579 25.28874767 -115.53336839 25.14672733 -142 25 C-142 23.02 -142 21.04 -142 19 C-141.34 19 -140.68 19 -140 19 C-139.77885585 16.20880221 -139.57256699 13.4178788 -139.375 10.625 C-139.31054688 9.8309375 -139.24609375 9.036875 -139.1796875 8.21875 C-139.03941413 6.14971776 -139.01241763 4.07374464 -139 2 C-139.66 1.34 -140.32 0.68 -141 0 C-139.02 0 -137.04 0 -135 0 C-134.37237545 1.22782862 -133.74803935 2.45733836 -133.125 3.6875 C-132.60292969 4.71423828 -132.60292969 4.71423828 -132.0703125 5.76171875 C-130.93967982 8.12614403 -129.97335801 10.56660498 -129 13 C-127.02 8.71 -125.04 4.42 -123 0 C-121.02 0 -119.04 0 -117 0 C-117.99 0.495 -117.99 0.495 -119 1 C-118.67 6.94 -118.34 12.88 -118 19 C-117.34 19.33 -116.68 19.66 -116 20 C-118.64 20 -121.28 20 -124 20 C-123.67 19.34 -123.34 18.68 -123 18 C-122.81295596 15.30986661 -122.91418609 12.70313823 -123 10 C-123.33 9.67 -123.66 9.34 -124 9 C-125.65 12.63 -127.3 16.26 -129 20 C-129.66 20 -130.32 20 -131 20 C-132.65 15.71 -134.3 11.42 -136 7 C-136 10.63 -136 14.26 -136 18 C-135.34 18.33 -134.68 18.66 -134 19 C-134 19.66 -134 20.32 -134 21 C-134.66 21 -135.32 21 -136 21 C-136 21.66 -136 22.32 -136 23 C-114.88 22.67 -93.76 22.34 -72 22 C-74.31 21.67 -76.62 21.34 -79 21 C-79 20.34 -79 19.68 -79 19 C-78.34 19 -77.68 19 -77 19 C-77 15.04 -77 11.08 -77 7 C-77.66 7 -78.32 7 -79 7 C-79 6.34 -79 5.68 -79 5 C-76.69 5 -74.38 5 -72 5 C-72 5.66 -72 6.32 -72 7 C-72.66 7 -73.32 7 -74 7 C-74 10.96 -74 14.92 -74 19 C-71.69 19 -69.38 19 -67 19 C-67 15.04 -67 11.08 -67 7 C-67.66 7 -68.32 7 -69 7 C-69 6.34 -69 5.68 -69 5 C-66.69 5 -64.38 5 -62 5 C-62 5.66 -62 6.32 -62 7 C-62.66 7 -63.32 7 -64 7 C-64 10.96 -64 14.92 -64 19 C-62.35 18.67 -60.7 18.34 -59 18 C-58.67 17.34 -58.34 16.68 -58 16 C-57.01 16 -56.02 16 -55 16 C-55 15.34 -55 14.68 -55 14 C-54.01 14 -53.02 14 -52 14 C-51.67 12.35 -51.34 10.7 -51 9 C-50.34 9 -49.68 9 -49 9 C-48.67 7.68 -48.34 6.36 -48 5 C-47.01 5.33 -46.02 5.66 -45 6 C-44.15625 7.9609375 -44.15625 7.9609375 -43.5 10.375 C-42.57505312 13.75546061 -41.77372338 15.78374063 -39 18 C-37.515 18.495 -37.515 18.495 -36 19 C-36 15.04 -36 11.08 -36 7 C-36.66 7 -37.32 7 -38 7 C-38 6.34 -38 5.68 -38 5 C-35.69 5 -33.38 5 -31 5 C-31 5.66 -31 6.32 -31 7 C-31.66 7 -32.32 7 -33 7 C-33 10.96 -33 14.92 -33 19 C-30.69 18.34 -28.38 17.68 -26 17 C-26 18.32 -26 19.64 -26 21 C-28.97 21 -31.94 21 -35 21 C-35 21.66 -35 22.32 -35 23 C-27.74 23 -20.48 23 -13 23 C-14.32917961 17.52174919 -14.32917961 17.52174919 -16 16 C-16.43016966 9.54745507 -15.79048662 6.25556773 -11.5 1.25 C-7.83739117 -1.80217403 -4.34958509 -1.04989985 0 0 Z " fill="#CC8F18" transform="translate(167,24)"/>
<path d="M0 0 C4.97989683 2.59578515 8.16936025 5.94074164 10.74609375 10.91015625 C11.82310671 15.47463974 12.56869679 19.37224621 10.30859375 23.59765625 C9.79296875 24.36078125 9.27734375 25.12390625 8.74609375 25.91015625 C8.49509508 29.61909533 8.49509508 29.61909533 8.74609375 32.91015625 C8.08609375 32.91015625 7.42609375 32.91015625 6.74609375 32.91015625 C6.41609375 33.57015625 6.08609375 34.23015625 5.74609375 34.91015625 C4.26109375 34.41515625 4.26109375 34.41515625 2.74609375 33.91015625 C1.53986855 30.29148066 1.63792457 26.98509374 1.68359375 23.22265625 C1.68810547 22.52076172 1.69261719 21.81886719 1.69726562 21.09570312 C1.70902448 19.36715087 1.72695921 17.6386426 1.74609375 15.91015625 C0.42609375 15.58015625 -0.89390625 15.25015625 -2.25390625 14.91015625 C-2.44726562 15.50183594 -2.640625 16.09351562 -2.83984375 16.703125 C-4.19805344 20.82482075 -5.5744121 24.90520865 -7.25390625 28.91015625 C-10.04554337 26.50246922 -11.15108182 24.14869009 -12.44140625 20.72265625 C-12.78558594 19.82160156 -13.12976562 18.92054687 -13.484375 17.9921875 C-13.73832031 17.30511719 -13.99226563 16.61804688 -14.25390625 15.91015625 C-15.57390625 15.91015625 -16.89390625 15.91015625 -18.25390625 15.91015625 C-17.92390625 16.24015625 -17.59390625 16.57015625 -17.25390625 16.91015625 C-17.34422199 19.26710579 -17.50078753 21.62169207 -17.69140625 23.97265625 C-17.79324219 25.26300781 -17.89507813 26.55335937 -18 27.8828125 C-18.12568359 29.38134766 -18.12568359 29.38134766 -18.25390625 30.91015625 C-18.58390625 30.91015625 -18.91390625 30.91015625 -19.25390625 30.91015625 C-19.58390625 26.62015625 -19.91390625 22.33015625 -20.25390625 17.91015625 C-20.91390625 17.91015625 -21.57390625 17.91015625 -22.25390625 17.91015625 C-22.33532845 15.68160051 -22.39328704 13.4521797 -22.44140625 11.22265625 C-22.47621094 9.98128906 -22.51101562 8.73992188 -22.546875 7.4609375 C-22.2349781 3.68074709 -21.59876447 1.85626017 -19.25390625 -1.08984375 C-12.84588914 -3.22584945 -6.16564981 -2.66723282 0 0 Z " fill="#F8F4A8" transform="translate(46.25390625,9.08984375)"/>
<path d="M0 0 C3.99048941 -0.31297956 6.2774197 -0.47051741 9.6875 1.75 C14.3125 6.25 14.3125 6.25 16 8 C16 6.68 16 5.36 16 4 C16.99 4 17.98 4 19 4 C19 7.96 19 11.92 19 16 C18.34 16 17.68 16 17 16 C17.495 17.485 17.495 17.485 18 19 C15.69179492 20.15410254 14.39215724 20.1210297 11.82568359 20.11352539 C10.53457169 20.11341209 10.53457169 20.11341209 9.21737671 20.11329651 C8.28712677 20.10813522 7.35687683 20.10297394 6.3984375 20.09765625 C5.44683746 20.0962413 4.49523743 20.09482635 3.51480103 20.09336853 C0.46816903 20.08776012 -2.57839013 20.07520619 -5.625 20.0625 C-7.68749894 20.05748608 -9.74999903 20.05292299 -11.8125 20.04882812 C-16.87502817 20.03778796 -21.93750173 20.02051767 -27 20 C-27 19.34 -27 18.68 -27 18 C-26.34 18 -25.68 18 -25 18 C-25 17.34 -25 16.68 -25 16 C-25.99 15.67 -26.98 15.34 -28 15 C-28 11.04 -28 7.08 -28 3 C-25.2079853 4.39600735 -24.99837067 6.00416384 -23.875 8.875 C-23.52179687 9.75929688 -23.16859375 10.64359375 -22.8046875 11.5546875 C-22 14 -22 14 -22 17 C-18.94616796 15.47308398 -18.61913497 13.04783744 -17.375 9.9375 C-16.92898437 8.83277344 -16.48296875 7.72804688 -16.0234375 6.58984375 C-15.51683594 5.30787109 -15.51683594 5.30787109 -15 4 C-12.30538014 8.04192978 -12.76799111 10.2051496 -13 15 C-13.33 15.33 -13.66 15.66 -14 16 C-12.1128125 16.0309375 -12.1128125 16.0309375 -10.1875 16.0625 C-9.47980469 16.07410156 -8.77210937 16.08570312 -8.04296875 16.09765625 C-5.79694539 16.08263217 -5.79694539 16.08263217 -3 15 C-3.2475 14.01 -3.495 13.02 -3.75 12 C-4.47690967 7.26054895 -2.39758531 3.9616753 0 0 Z " fill="#F6AE21" transform="translate(58,27)"/>
<path d="M0 0 C1.32 0 2.64 0 4 0 C5.49821059 3.37097383 6 5.20442119 6 9 C6.66 9 7.32 9 8 9 C8 10.98 8 12.96 8 15 C8.99 15 9.98 15 11 15 C11 10.71 11 6.42 11 2 C13.31 2 15.62 2 18 2 C18 2.66 18 3.32 18 4 C17.34 4 16.68 4 16 4 C16 7.96 16 11.92 16 16 C17.65 16 19.3 16 21 16 C21.33 15.01 21.66 14.02 22 13 C22.99 13.495 22.99 13.495 24 14 C24.59355614 16.64860427 24.74209269 19.29197322 25 22 C21.76467621 23.61766189 18.22586345 23.11166275 14.67318726 23.08229065 C13.80168175 23.07906152 12.93017625 23.07583239 12.03226149 23.07250541 C9.09486913 23.06038519 6.15756822 23.04102179 3.22021484 23.02172852 C1.12142641 23.0115905 -0.97736422 23.00189632 -3.07615662 22.99261475 C-8.78869588 22.96608589 -14.50118462 22.93331622 -20.21368456 22.89946485 C-26.17811347 22.86516909 -32.14256951 22.83655902 -38.10702515 22.80735779 C-49.40821739 22.75115849 -60.70937566 22.68981156 -72.01053083 22.62663645 C-84.87367409 22.55497864 -97.73684459 22.48902712 -110.60002065 22.42356598 C-137.06671579 22.28874767 -163.53336839 22.14672733 -190 22 C-190 21.67 -190 21.34 -190 21 C-189.02870997 20.99576806 -188.05741995 20.99153612 -187.05669689 20.98717594 C-163.44704194 20.884083 -139.83741814 20.77534759 -116.22781658 20.66066074 C-104.81049824 20.60533085 -93.39317677 20.55184922 -81.97583008 20.50268555 C-72.02703189 20.45984087 -62.07825669 20.41356214 -52.12949401 20.36312145 C-46.85940988 20.33652282 -41.58933029 20.31166977 -36.31921959 20.29092598 C-31.36251742 20.27136162 -26.40585899 20.24721839 -21.44919586 20.21950912 C-19.62666174 20.21013764 -17.80411801 20.20246271 -15.98156929 20.19658089 C-13.49964279 20.1883214 -11.01782251 20.17404512 -8.53593445 20.15821838 C-7.80928374 20.15724028 -7.08263304 20.15626217 -6.33396262 20.15525442 C-3.28014422 20.13008947 -0.92161233 19.97387078 2 19 C2 17.02 2 15.04 2 13 C1.34 13 0.68 13 0 13 C0 14.65 0 16.3 0 18 C-1.98 18 -3.96 18 -6 18 C-6 17.34 -6 16.68 -6 16 C-5.34 15.67 -4.68 15.34 -4 15 C-1.90097173 10.2294812 -0.6613804 5.15876713 0 0 Z " fill="#8C5910" transform="translate(215,27)"/>
<path d="M0 0 C0.99 0 1.98 0 3 0 C3 0.66 3 1.32 3 2 C2.34 2 1.68 2 1 2 C1.185625 2.61875 1.37125 3.2375 1.5625 3.875 C2 6 2 6 1 8 C71.29 8 141.58 8 214 8 C213.67 8.66 213.34 9.32 213 10 C185.28007987 10.07000686 157.56017295 10.12294731 129.8401823 10.15543652 C116.97000363 10.17092116 104.0998798 10.19204117 91.22973633 10.22631836 C80.01525217 10.25617183 68.80080772 10.27556337 57.58628494 10.28226548 C51.64544721 10.28618462 45.70472312 10.29542823 39.76392174 10.31719017 C34.17684882 10.33749132 28.5899368 10.34384673 23.00283051 10.33932304 C20.94807118 10.34015111 18.8933067 10.34615451 16.83857918 10.35761642 C14.04120829 10.37246085 11.24445126 10.36898317 8.44706726 10.36076355 C7.6270338 10.36950207 6.80700034 10.3782406 5.96211737 10.38724393 C0.45722954 10.34328097 0.45722954 10.34328097 -2.0279417 8.47745228 C-2.34872094 7.98989303 -2.66950018 7.50233377 -3 7 C-2.01 7 -1.02 7 0 7 C-0.185625 6.030625 -0.37125 5.06125 -0.5625 4.0625 C-0.706875 3.051875 -0.85125 2.04125 -1 1 C-0.67 0.67 -0.34 0.34 0 0 Z " fill="#DCA536" transform="translate(24,41)"/>
<path d="M0 0 C32.01 0 64.02 0 97 0 C95 5 95 5 93 8 C90.37197264 8.13285194 88.01892745 8.05969428 85.41015625 7.84375 C84.58790054 7.7878772 83.76564484 7.73200439 82.91847229 7.67443848 C79.94419471 7.46651264 76.972402 7.23317793 74 7 C71.53374158 6.81703079 69.06742969 6.63478135 66.60107422 6.453125 C58.93571908 5.88111947 51.27288869 5.27948281 43.61029053 4.67181396 C40.69718993 4.44145979 37.78388578 4.21374171 34.870574 3.98607635 C32.02984124 3.76390112 29.18920045 3.54056842 26.34858894 3.31684875 C24.36689855 3.16084005 22.38516349 3.00539921 20.40342712 2.84997559 C13.59345602 2.3093066 6.79366051 1.71830284 0 1 C0 0.67 0 0.34 0 0 Z " fill="#DF2C15" transform="translate(140,55)"/>
<path d="M0 0 C5.28 0.33 10.56 0.66 16 1 C16 1.33 16 1.66 16 2 C14.02 2 12.04 2 10 2 C10 2.66 10 3.32 10 4 C10.66 4 11.32 4 12 4 C12.67057887 5.7902061 13.3363469 7.58221489 14 9.375 C14.556875 10.87160156 14.556875 10.87160156 15.125 12.3984375 C16 15 16 15 16 17 C16.66 17.33 17.32 17.66 18 18 C17.34 18 16.68 18 16 18 C16 18.66 16 19.32 16 20 C7.09 20 -1.82 20 -11 20 C-11 16 -11 16 -9.0625 13.875 C-8.381875 13.25625 -7.70125 12.6375 -7 12 C-5.18103027 8.36206054 -5.74745798 4.75762607 -7 1 C-6.34 1 -5.68 1 -5 1 C-4.34 1.99 -3.68 2.98 -3 4 C-2.34 3.67 -1.68 3.34 -1 3 C-0.67 2.01 -0.34 1.02 0 0 Z " fill="#EFAA23" transform="translate(178,27)"/>
<path d="M0 0 C1.98 0 3.96 0 6 0 C6.144375 1.134375 6.28875 2.26875 6.4375 3.4375 C6.61171478 6.80777201 6.61171478 6.80777201 8 8 C8.66 6.02 9.32 4.04 10 2 C9.34 2 8.68 2 8 2 C8 1.34 8 0.68 8 0 C9.98 0 11.96 0 14 0 C14.495 3.96 14.495 3.96 15 8 C17.1519437 4.77208445 17.20086443 3.71599191 17 0 C18.65 0 20.3 0 22 0 C22.495 1.98 22.495 1.98 23 4 C22.34 4.33 21.68 4.66 21 5 C20.34227572 8.02934491 20.34227572 8.02934491 20 11 C20.99 11 21.98 11 23 11 C23.33 8.36 23.66 5.72 24 3 C24.66 3 25.32 3 26 3 C26.33 2.01 26.66 1.02 27 0 C26.36843005 5.05255964 24.86540627 9.29593201 23 14 C22.34 14 21.68 14 21 14 C21 14.66 21 15.32 21 16 C22.98 16 24.96 16 27 16 C27 14.35 27 12.7 27 11 C27.66 11 28.32 11 29 11 C29 12.98 29 14.96 29 17 C35.93 17.33 42.86 17.66 50 18 C50 18.33 50 18.66 50 19 C23.6 19 -2.8 19 -30 19 C-30 18.67 -30 18.34 -30 18 C-27.69 18 -25.38 18 -23 18 C-22.67 17.01 -22.34 16.02 -22 15 C-21.67 15.66 -21.34 16.32 -21 17 C-7.635 17.495 -7.635 17.495 6 18 C5.18270373 13.91351863 4.16436352 10.66259736 2.62109375 6.8671875 C2 5 2 5 2 2 C1.34 2 0.68 2 0 2 C0 1.34 0 0.68 0 0 Z " fill="#D99A1D" transform="translate(188,29)"/>
<path d="M0 0 C0.99 0.33 1.98 0.66 3 1 C3.84375 2.9609375 3.84375 2.9609375 4.5 5.375 C5.42494688 8.75546061 6.22627662 10.78374063 9 13 C9.99 13.33 10.98 13.66 12 14 C12 10.04 12 6.08 12 2 C11.34 2 10.68 2 10 2 C10 1.34 10 0.68 10 0 C12.31 0 14.62 0 17 0 C17 0.66 17 1.32 17 2 C16.34 2 15.68 2 15 2 C15 5.96 15 9.92 15 14 C17.31 13.34 19.62 12.68 22 12 C22 13.32 22 14.64 22 16 C19.03 16 16.06 16 13 16 C13 16.66 13 17.32 13 18 C2.11 18 -8.78 18 -20 18 C-19.67 17.34 -19.34 16.68 -19 16 C-15.7 16 -12.4 16 -9 16 C-9.33 14.35 -9.66 12.7 -10 11 C-9.01 11 -8.02 11 -7 11 C-7 10.34 -7 9.68 -7 9 C-6.01 9 -5.02 9 -4 9 C-3.67 7.35 -3.34 5.7 -3 4 C-2.34 4 -1.68 4 -1 4 C-0.67 2.68 -0.34 1.36 0 0 Z " fill="#D59A25" transform="translate(119,29)"/>
<path d="M0 0 C1.98 0 3.96 0 6 0 C6.62762455 1.22782862 7.25196065 2.45733836 7.875 3.6875 C8.39707031 4.71423828 8.39707031 4.71423828 8.9296875 5.76171875 C10.06032018 8.12614403 11.02664199 10.56660498 12 13 C13.98 8.71 15.96 4.42 18 0 C19.98 0 21.96 0 24 0 C23.01 0.495 23.01 0.495 22 1 C22.33 6.94 22.66 12.88 23 19 C23.66 19.33 24.32 19.66 25 20 C22.36 20 19.72 20 17 20 C17.33 19.34 17.66 18.68 18 18 C18.18704404 15.30986661 18.08581391 12.70313823 18 10 C17.67 9.67 17.34 9.34 17 9 C15.35 12.63 13.7 16.26 12 20 C11.34 20 10.68 20 10 20 C8.35 15.71 6.7 11.42 5 7 C4.95875 8.77375 4.9175 10.5475 4.875 12.375 C4.85179687 13.37273438 4.82859375 14.37046875 4.8046875 15.3984375 C4.72783152 18.16262173 4.72783152 18.16262173 7 20 C4.36 20 1.72 20 -1 20 C-0.34 19.67 0.32 19.34 1 19 C1.22114415 16.20880221 1.42743301 13.4178788 1.625 10.625 C1.68945312 9.8309375 1.75390625 9.036875 1.8203125 8.21875 C1.96058587 6.14971776 1.98758237 4.07374464 2 2 C1.34 1.34 0.68 0.68 0 0 Z " fill="#3A320F" transform="translate(26,24)"/>
<path d="M0 0 C3.37048101 1.24561255 4.37133631 1.80456201 5.875 5.0625 C6.3930512 9.72496084 6.482419 11.94111107 4.25 16.0625 C1.875 18.0625 1.875 18.0625 -1.1875 18.5625 C-4.125 18.0625 -4.125 18.0625 -5.9375 16.75 C-8.54155321 13.04950333 -8.57765366 9.43815208 -8.125 5.0625 C-5.59951332 1.49710704 -4.44248757 0.08884975 0 0 Z " fill="#EBA823" transform="translate(163.125,24.9375)"/>
<path d="M0 0 C7.92 0 15.84 0 24 0 C24.66 1.32 25.32 2.64 26 4 C26.66 4 27.32 4 28 4 C28 7.96 28 11.92 28 16 C23 17 23 17 21 16 C21 12.04 21 8.08 21 4 C21.66 4 22.32 4 23 4 C23 3.34 23 2.68 23 2 C20.69 2 18.38 2 16 2 C16 2.66 16 3.32 16 4 C16.66 4 17.32 4 18 4 C18 7.96 18 11.92 18 16 C17.34 16 16.68 16 16 16 C16 16.66 16 17.32 16 18 C18.64 18 21.28 18 24 18 C23.67 18.66 23.34 19.32 23 20 C16.07 20 9.14 20 2 20 C4 18 4 18 6.6015625 17.8046875 C7.59929687 17.82789062 8.59703125 17.85109375 9.625 17.875 C11.12933594 17.90207031 11.12933594 17.90207031 12.6640625 17.9296875 C13.43492188 17.95289062 14.20578125 17.97609375 15 18 C15 17.01 15 16.02 15 15 C15.66 15 16.32 15 17 15 C17 12.03 17 9.06 17 6 C16.34 6 15.68 6 15 6 C15 6.66 15 7.32 15 8 C14.01 8 13.02 8 12 8 C12 7.34 12 6.68 12 6 C12.66 6 13.32 6 14 6 C14 4.68 14 3.36 14 2 C9.38 2 4.76 2 0 2 C0 1.34 0 0.68 0 0 Z " fill="#ECAD30" transform="translate(72,27)"/>
<path d="M0 0 C0.33 0.66 0.66 1.32 1 2 C0.154375 1.690625 -0.69125 1.38125 -1.5625 1.0625 C-5.0497854 -0.01538821 -8.38177535 -0.56581304 -12 -1 C-12 0.65 -12 2.3 -12 4 C-13.98 4.99 -13.98 4.99 -16 6 C-16 8.64 -16 11.28 -16 14 C-17.32 14.33 -18.64 14.66 -20 15 C-19.67 15.33 -19.34 15.66 -19 16 C-19.09031574 18.35694954 -19.24688128 20.71153582 -19.4375 23.0625 C-19.53933594 24.35285156 -19.64117188 25.64320312 -19.74609375 26.97265625 C-19.87177734 28.47119141 -19.87177734 28.47119141 -20 30 C-20.33 30 -20.66 30 -21 30 C-21.33 25.71 -21.66 21.42 -22 17 C-22.66 17 -23.32 17 -24 17 C-24.0814222 14.77144426 -24.13938079 12.54202345 -24.1875 10.3125 C-24.22230469 9.07113281 -24.25710937 7.82976563 -24.29296875 6.55078125 C-23.98107185 2.77059084 -23.34485822 0.94610392 -21 -2 C-13.71258588 -4.42913804 -6.80831479 -3.21847608 0 0 Z " fill="#F7EE70" transform="translate(48,10)"/>
<path d="M0 0 C0.99 0 1.98 0 3 0 C3.33 1.98 3.66 3.96 4 6 C4.66 4.02 5.32 2.04 6 0 C7.32 0 8.64 0 10 0 C10.33 1.65 10.66 3.3 11 5 C11.66 3.35 12.32 1.7 13 0 C13.99 0 14.98 0 16 0 C16 0.99 16 1.98 16 3 C16.99 3 17.98 3 19 3 C19 2.01 19 1.02 19 0 C21.64 0 24.28 0 27 0 C27 0.66 27 1.32 27 2 C25.35 2 23.7 2 22 2 C22 2.99 22 3.98 22 5 C23.32 5 24.64 5 26 5 C26 5.66 26 6.32 26 7 C24.68 7 23.36 7 22 7 C22 7.66 22 8.32 22 9 C23.65 9 25.3 9 27 9 C27 9.99 27 10.98 27 12 C19.49230769 12.36923077 19.49230769 12.36923077 17 10.5 C16.67 10.005 16.34 9.51 16 9 C15.566875 9.495 15.13375 9.99 14.6875 10.5 C13 12 13 12 10 12 C9.67 9.69 9.34 7.38 9 5 C8.34 5 7.68 5 7 5 C6.67 6.98 6.34 8.96 6 11 C4.125 10.875 4.125 10.875 2 10 C0.40155515 6.40349908 0 3.96602757 0 0 Z " fill="#DFDFDF" transform="translate(14,77)"/>
<path d="M0 0 C2.9375 2.625 2.9375 2.625 5 6 C5.16102387 10.02559668 4.49856017 11.44446153 1.8125 14.4375 C-1 16 -1 16 -4.0625 16.0625 C-7.81578187 14.70492996 -9.09483297 13.50550734 -11 10 C-11 6.1862249 -10.84985071 3.97575452 -8.3125 1.0625 C-5.17816119 -0.37760162 -3.41375407 -0.62701605 0 0 Z " fill="#4E3504" transform="translate(65,29)"/>
<path d="M0 0 C4.62 0 9.24 0 14 0 C14 1.32 14 2.64 14 4 C13.34 4 12.68 4 12 4 C12 4.66 12 5.32 12 6 C12.99 6 13.98 6 15 6 C15 5.34 15 4.68 15 4 C15.66 4 16.32 4 17 4 C17 6.97 17 9.94 17 13 C16.34 13 15.68 13 15 13 C15 13.99 15 14.98 15 16 C10.91556885 17.53166168 7.20544343 16.63081652 3 16 C3 15.34 3 14.68 3 14 C3.66 14 4.32 14 5 14 C5 10.04 5 6.08 5 2 C4.01 2 3.02 2 2 2 C2 2.66 2 3.32 2 4 C1.34 4 0.68 4 0 4 C0 2.68 0 1.36 0 0 Z " fill="#F4A919" transform="translate(72,29)"/>
<path d="M0 0 C16.5 0 33 0 50 0 C50 0.99 50 1.98 50 3 C49.34 3 48.68 3 48 3 C48 3.66 48 4.32 48 5 C37.11845873 5.47617766 26.38714612 4.63790375 15.5625 3.625 C14.49925003 3.53017838 14.49925003 3.53017838 13.41452026 3.43344116 C11.38064973 3.24997051 9.34855892 3.05308163 7.31640625 2.8515625 C6.12474854 2.73635254 4.93309082 2.62114258 3.70532227 2.50244141 C2.81256592 2.33663574 1.91980957 2.17083008 1 2 C0.67 1.34 0.34 0.68 0 0 Z " fill="#E81F26" transform="translate(184,56)"/>
<path d="M0 0 C3.53684081 2.99862591 5.78275426 5.08823745 6.3125 9.75 C5.91753151 13.85767229 4.5942368 15.82926614 2 19 C-0.3201862 20.70146988 -1.9710636 20.99485575 -4.8125 21.5 C-8.73156516 20.88524468 -10.75888771 19.66918506 -13.6328125 16.98046875 C-15.80792651 13.82966074 -15.83143762 11.08802291 -15.56640625 7.34375 C-14.69948011 3.75646942 -12.93862097 2.1185407 -10 0 C-6.1544104 -1.2818632 -3.93271581 -0.94927623 0 0 Z M-9.75 3.0625 C-12.27109842 5.85729698 -12.27109842 5.85729698 -12.5 9.5 C-11.93757646 13.43696481 -10.83564495 16.16435505 -8 19 C-5.12693772 19.50095023 -5.12693772 19.50095023 -2 19 C0.494992 16.8989541 1.7235205 15.28162462 2.41796875 12.0625 C2.7048464 7.96867843 2.28004023 6.37338697 -0.25 3 C-4.09397643 0.20438078 -5.94713306 0.2103498 -9.75 3.0625 Z " fill="#3D2905" transform="translate(167,24)"/>
<path d="M0 0 C0.66 0 1.32 0 2 0 C2.66 0.99 3.32 1.98 4 3 C4.53625 2.67 5.0725 2.34 5.625 2 C8.5391061 0.77300796 10.86867708 0.85766714 14 1 C14 2.32 14 3.64 14 5 C13.34 5 12.68 5 12 5 C12 4.34 12 3.68 12 3 C10.68 3 9.36 3 8 3 C8.68856935 6.19713358 8.68856935 6.19713358 11.5 7.375 C14 9 14 9 15 11.5 C15 14 15 14 13.9375 15.8125 C11.20834442 17.48520826 9.14077704 17.26730017 6 17 C5.34 16.67 4.68 16.34 4 16 C3.375 13.9375 3.375 13.9375 3 12 C2.01 12.33 1.02 12.66 0 13 C0.12568359 11.96939453 0.12568359 11.96939453 0.25390625 10.91796875 C0.35574219 10.01691406 0.45757812 9.11585937 0.5625 8.1875 C0.66691406 7.29417969 0.77132812 6.40085937 0.87890625 5.48046875 C1.15658709 2.86624428 1.15658709 2.86624428 0 0 Z " fill="#E9A82D" transform="translate(171,28)"/>
<path d="M0 0 C2.7920147 1.39600735 3.00162933 3.00416384 4.125 5.875 C4.47820313 6.75929688 4.83140625 7.64359375 5.1953125 8.5546875 C6 11 6 11 6 14 C9.05383204 12.47308398 9.38086503 10.04783744 10.625 6.9375 C11.07101563 5.83277344 11.51703125 4.72804688 11.9765625 3.58984375 C12.48316406 2.30787109 12.48316406 2.30787109 13 1 C15.67927341 5.01891012 15.15601248 7.24161923 15 12 C14.01 12.33 13.02 12.66 12 13 C12 13.66 12 14.32 12 15 C14.97 15 17.94 15 21 15 C21 15.66 21 16.32 21 17 C14.4 17 7.8 17 1 17 C1 16.34 1 15.68 1 15 C1.66 15 2.32 15 3 15 C3 14.34 3 13.68 3 13 C2.01 12.67 1.02 12.34 0 12 C0 8.04 0 4.08 0 0 Z " fill="#F1C424" transform="translate(30,30)"/>
<path d="M0 0 C1.98 0 3.96 0 6 0 C6.144375 1.134375 6.28875 2.26875 6.4375 3.4375 C6.61171478 6.80777201 6.61171478 6.80777201 8 8 C8.66 6.02 9.32 4.04 10 2 C9.34 2 8.68 2 8 2 C8 1.34 8 0.68 8 0 C9.98 0 11.96 0 14 0 C14.33 2.64 14.66 5.28 15 8 C17.1519437 4.77208445 17.20086443 3.71599191 17 0 C18.65 0 20.3 0 22 0 C21.57074219 0.79664062 21.57074219 0.79664062 21.1328125 1.609375 C19.79673712 4.42895477 18.84213837 7.28410899 17.875 10.25 C17.34519531 11.86648437 17.34519531 11.86648437 16.8046875 13.515625 C16.53914063 14.33546875 16.27359375 15.1553125 16 16 C15.34 16 14.68 16 14 16 C13.34 13.03 12.68 10.06 12 7 C11.34 7 10.68 7 10 7 C9.855625 7.94875 9.71125 8.8975 9.5625 9.875 C9 13 9 13 8 15 C7.34 15 6.68 15 6 15 C5.32694982 13.39850114 4.66177773 11.79368971 4 10.1875 C3.62875 9.29417969 3.2575 8.40085937 2.875 7.48046875 C2 5 2 5 2 2 C1.34 2 0.68 2 0 2 C0 1.34 0 0.68 0 0 Z " fill="#503305" transform="translate(188,29)"/>
<path d="M0 0 C4.87774938 4.71515773 6.46724628 7.89882804 7.046875 14.57421875 C6.98543521 17.75372812 5.75600948 19.40110597 4 22 C3.74900133 25.70893908 3.74900133 25.70893908 4 29 C3.34 29 2.68 29 2 29 C1.67 29.66 1.34 30.32 1 31 C0.01 30.67 -0.98 30.34 -2 30 C-2.19573608 28.56359829 -2.38127816 27.12580496 -2.5625 25.6875 C-2.71912109 24.48673828 -2.71912109 24.48673828 -2.87890625 23.26171875 C-3 21 -3 21 -2 18 C-1.13375 17.278125 -0.2675 16.55625 0.625 15.8125 C3.15217114 13.36473793 3.15217114 13.36473793 3.17578125 11.07421875 C2.72370243 7.13890966 1.68612945 3.59707615 0 0 Z " fill="#F5EF6A" transform="translate(51,13)"/>
<path d="M0 0 C0 2.31 0 4.62 0 7 C-1.65 7.33 -3.3 7.66 -5 8 C-5.33 9.65 -5.66 11.3 -6 13 C-10.875 11.125 -10.875 11.125 -12 10 C-12.07179964 8.48071962 -12.08392007 6.95832518 -12.0625 5.4375 C-12.05347656 4.61121094 -12.04445312 3.78492188 -12.03515625 2.93359375 C-12.02355469 2.29550781 -12.01195312 1.65742188 -12 1 C-7.61991557 -1.58464442 -4.88874887 -0.81479148 0 0 Z " fill="#FEFADF" transform="translate(49,15)"/>
<path d="M0 0 C2.97 0 5.94 0 9 0 C8.855625 0.66 8.71125 1.32 8.5625 2 C7.87700084 5.65599551 7.43824485 9.30622195 7 13 C8.32 13 9.64 13 11 13 C11 12.34 11 11.68 11 11 C11.99 11 12.98 11 14 11 C13.67 11.99 13.34 12.98 13 14 C10.69 14.33 8.38 14.66 6 15 C6 11.04 6 7.08 6 3 C6.66 3 7.32 3 8 3 C8 2.34 8 1.68 8 1 C5.69 1 3.38 1 1 1 C1 1.66 1 2.32 1 3 C1.66 3 2.32 3 3 3 C3 6.96 3 10.92 3 15 C1.68 14.67 0.36 14.34 -1 14 C-1 13.34 -1 12.68 -1 12 C-1.99 11.67 -2.98 11.34 -4 11 C-4.73046875 8.93359375 -4.73046875 8.93359375 -5.1875 6.4375 C-5.34605469 5.61121094 -5.50460938 4.78492188 -5.66796875 3.93359375 C-5.77753906 3.29550781 -5.88710937 2.65742188 -6 2 C-5.34 2 -4.68 2 -4 2 C-3.34 3.32 -2.68 4.64 -2 6 C-1.34 6 -0.68 6 0 6 C0 4.02 0 2.04 0 0 Z " fill="#EAAB30" transform="translate(128,28)"/>
<path d="M0 0 C1.32 0 2.64 0 4 0 C4.66 2.31 5.32 4.62 6 7 C6.66 7 7.32 7 8 7 C8.66 4.69 9.32 2.38 10 0 C10.99 0 11.98 0 13 0 C13 3.63 13 7.26 13 11 C12.34 11 11.68 11 11 11 C10.67 10.01 10.34 9.02 10 8 C9.34 9.32 8.68 10.64 8 12 C7.01 12 6.02 12 5 12 C4.67 10.68 4.34 9.36 4 8 C3.67 9.32 3.34 10.64 3 12 C2.01 12 1.02 12 0 12 C0 8.04 0 4.08 0 0 Z " fill="#B8B9B8" transform="translate(104,77)"/>
<path d="M0 0 C-0.20496094 0.56847656 -0.40992188 1.13695312 -0.62109375 1.72265625 C-2.29092669 6.5084454 -3.46376936 10.95943201 -4 16 C-4.66 16 -5.32 16 -6 16 C-6 16.66 -6 17.32 -6 18 C-5.01 18.33 -4.02 18.66 -3 19 C-3.33 23.62 -3.66 28.24 -4 33 C-4.33 33 -4.66 33 -5 33 C-5.33 28.71 -5.66 24.42 -6 20 C-6.66 20 -7.32 20 -8 20 C-8.0814222 17.77144426 -8.13938079 15.54202345 -8.1875 13.3125 C-8.22230469 12.07113281 -8.25710937 10.82976563 -8.29296875 9.55078125 C-7.98107185 5.77059084 -7.34485822 3.94610392 -5 1 C-2 0 -2 0 0 0 Z " fill="#F6E92A" transform="translate(32,7)"/>
<path d="M0 0 C1.32 0.33 2.64 0.66 4 1 C5.25 3.5625 5.25 3.5625 6 6 C7.50559539 4.03617993 8.89131683 2.21736634 10 0 C10.99 0 11.98 0 13 0 C13 3.63 13 7.26 13 11 C12.34 11 11.68 11 11 11 C10.67 9.68 10.34 8.36 10 7 C9.34 8.32 8.68 9.64 8 11 C7.01 11 6.02 11 5 11 C4.67 10.34 4.34 9.68 4 9 C3.67 9.99 3.34 10.98 3 12 C2.01 12 1.02 12 0 12 C0 8.04 0 4.08 0 0 Z " fill="#DEDEDF" transform="translate(188,77)"/>
<path d="M0 0 C1.98 0 3.96 0 6 0 C5.01 0.495 5.01 0.495 4 1 C4.33 6.94 4.66 12.88 5 19 C5.66 19.33 6.32 19.66 7 20 C4.36 20 1.72 20 -1 20 C-0.67 19.34 -0.34 18.68 0 18 C0.18704404 15.30986661 0.08581391 12.70313823 0 10 C-0.33 9.67 -0.66 9.34 -1 9 C-1.33 9.66 -1.66 10.32 -2 11 C-2.66 11 -3.32 11 -4 11 C-3.52269162 9.5410574 -3.04308958 8.08286504 -2.5625 6.625 C-2.29566406 5.81289063 -2.02882812 5.00078125 -1.75390625 4.1640625 C-1 2 -1 2 0 0 Z " fill="#403D2C" transform="translate(44,24)"/>
<path d="M0 0 C2.64 0 5.28 0 8 0 C8 0.66 8 1.32 8 2 C6.35 2 4.7 2 3 2 C3 2.99 3 3.98 3 5 C4.32 5 5.64 5 7 5 C7 5.66 7 6.32 7 7 C5.68 7 4.36 7 3 7 C3 7.66 3 8.32 3 9 C4.65 9 6.3 9 8 9 C8 9.99 8 10.98 8 12 C0.46332046 12.37065637 0.46332046 12.37065637 -1.875 10.5 C-2.24625 10.005 -2.6175 9.51 -3 9 C-3.66 9 -4.32 9 -5 9 C-4.67 6.69 -4.34 4.38 -4 2 C-2.02 2.495 -2.02 2.495 0 3 C0 2.01 0 1.02 0 0 Z " fill="#646565" transform="translate(33,77)"/>
<path d="M0 0 C2.5 -0.3125 2.5 -0.3125 5 0 C7 2 7 2 7.265625 3.875 C7.26046875 4.57625 7.2553125 5.2775 7.25 6 C7.25515625 6.70125 7.2603125 7.4025 7.265625 8.125 C7 10 7 10 5 12 C2.5 12.3125 2.5 12.3125 0 12 C-2.31332486 8.53001271 -2.33957563 7.07490752 -2 3 C-1.34 2.01 -0.68 1.02 0 0 Z " fill="#E8A927" transform="translate(59,31)"/>
<path d="M0 0 C4.29425875 1.07356469 4.74740471 1.5084773 7 5 C7.33 3.35 7.66 1.7 8 0 C8.99 0 9.98 0 11 0 C11 3.96 11 7.92 11 12 C7 11 7 11 5.25 8.4375 C4.8375 7.633125 4.425 6.82875 4 6 C3.67 7.98 3.34 9.96 3 12 C2.01 12 1.02 12 0 12 C0 8.04 0 4.08 0 0 Z " fill="#D1D2D2" transform="translate(215,77)"/>
<path d="M0 0 C0.495 1.98 0.495 1.98 1 4 C0.34 4 -0.32 4 -1 4 C-1.185625 4.928125 -1.185625 4.928125 -1.375 5.875 C-2 8 -2 8 -4 10 C-10.76862481 10.76813499 -17.81565296 9.73641214 -24.5625 9.0625 C-37.02497356 7.88958565 -49.49165042 7.38925414 -62 7 C-62 6.34 -62 5.68 -62 5 C-47.90722516 5.42195991 -33.87364706 6.03503106 -19.83203125 7.33935547 C-17.2224856 7.57901687 -14.61256027 7.7961889 -12 8 C-10.94969604 8.09837158 -10.94969604 8.09837158 -9.87817383 8.19873047 C-7.8153796 8.3700136 -7.8153796 8.3700136 -5 8 C-3.11253031 6.32347002 -3.11253031 6.32347002 -2.0625 4 C-1.66160156 3.2575 -1.26070312 2.515 -0.84765625 1.75 C-0.56792969 1.1725 -0.28820312 0.595 0 0 Z " fill="#FB8E29" transform="translate(238,54)"/>
<path d="M0 0 C0.99 0.33 1.98 0.66 3 1 C4.1328125 3.65234375 4.1328125 3.65234375 5.125 6.9375 C6.33975101 11.05802775 6.33975101 11.05802775 8 15 C6.35 15 4.7 15 3 15 C3 13.35 3 11.7 3 10 C1.35 10 -0.3 10 -2 10 C-2 11.65 -2 13.3 -2 15 C-3.32 14.67 -4.64 14.34 -6 14 C-5.37720331 12.41579871 -4.75166599 10.83267469 -4.125 9.25 C-3.60292969 7.92742188 -3.60292969 7.92742188 -3.0703125 6.578125 C-2.1353291 4.3259752 -1.12219206 2.16350541 0 0 Z " fill="#4E3108" transform="translate(119,29)"/>
<path d="M0 0 C1.890625 0.2578125 1.890625 0.2578125 4 1 C5.046875 2.7421875 5.046875 2.7421875 5.75 4.875 C6.11351562 5.92300781 6.11351562 5.92300781 6.484375 6.9921875 C7 9 7 9 7 12 C6.01 12 5.02 12 4 12 C4 11.34 4 10.68 4 10 C2.35 10 0.7 10 -1 10 C-1 10.66 -1 11.32 -1 12 C-1.99 12 -2.98 12 -4 12 C-3.45660208 7.43545749 -2.20536179 4.0271824 0 0 Z " fill="#D1D1D1" transform="translate(153,77)"/>
<path d="M0 0 C1.65 0.33 3.3 0.66 5 1 C5.99 4.63 6.98 8.26 8 12 C7.01 12 6.02 12 5 12 C5 11.34 5 10.68 5 10 C2.36 10.66 -0.28 11.32 -3 12 C-2.68950274 10.56206608 -2.3765224 9.1246682 -2.0625 7.6875 C-1.88847656 6.88699219 -1.71445312 6.08648437 -1.53515625 5.26171875 C-1 3 -1 3 0 0 Z " fill="#E2E3E2" transform="translate(47,77)"/>
<path d="M0 0 C0.33 0.99 0.66 1.98 1 3 C-1.31 3 -3.62 3 -6 3 C-6 4.65 -6 6.3 -6 8 C-4.35 8.33 -2.7 8.66 -1 9 C-1 8.34 -1 7.68 -1 7 C-1.99 7 -2.98 7 -4 7 C-4 6.34 -4 5.68 -4 5 C-2.02 5 -0.04 5 2 5 C1.6875 7.375 1.6875 7.375 1 10 C-2 12 -2 12 -5.0625 11.8125 C-8 11 -8 11 -10 8 C-10.34940459 5.20476326 -10.37233787 3.6351646 -8.9375 1.1875 C-6.00731249 -0.60842137 -3.3527047 -0.18977574 0 0 Z " fill="#DEDEDE" transform="translate(172,77)"/>
<path d="M0 0 C1.953125 0.1953125 1.953125 0.1953125 4 1 C5.046875 2.7421875 5.046875 2.7421875 5.75 4.875 C6.11351562 5.92300781 6.11351562 5.92300781 6.484375 6.9921875 C7 9 7 9 7 12 C6.01 12 5.02 12 4 12 C4 11.34 4 10.68 4 10 C1.36 10.66 -1.28 11.32 -4 12 C-3.52494322 10.18641846 -3.04483958 8.37415821 -2.5625 6.5625 C-2.29566406 5.55316406 -2.02882813 4.54382813 -1.75390625 3.50390625 C-1 1 -1 1 0 0 Z " fill="#C1C1C1" transform="translate(125,77)"/>
<path d="M0 0 C4 1 4 1 5.75 3.5625 C6.1625 4.366875 6.575 5.17125 7 6 C7.33 4.02 7.66 2.04 8 0 C8.66 0 9.32 0 10 0 C10 3.63 10 7.26 10 11 C6 10 6 10 4 7 C3.67 8.65 3.34 10.3 3 12 C2.01 12 1.02 12 0 12 C0 8.04 0 4.08 0 0 Z " fill="#DEDEDE" transform="translate(135,77)"/>
<path d="M0 0 C0.99 0 1.98 0 3 0 C3.67031719 1.9570868 4.33614683 3.91571113 5 5.875 C5.556875 7.51082031 5.556875 7.51082031 6.125 9.1796875 C7 12 7 12 7 14 C7.66 14.33 8.32 14.66 9 15 C7.02 15 5.04 15 3 15 C3 13.35 3 11.7 3 10 C1.68 9.67 0.36 9.34 -1 9 C-1 10.98 -1 12.96 -1 15 C-2.32 14.67 -3.64 14.34 -5 14 C-4.72285156 13.32453125 -4.44570312 12.6490625 -4.16015625 11.953125 C-3.79792969 11.06109375 -3.43570313 10.1690625 -3.0625 9.25 C-2.52302734 7.92742188 -2.52302734 7.92742188 -1.97265625 6.578125 C-1.14643424 4.38813896 -0.50630057 2.28101729 0 0 Z " fill="#583810" transform="translate(215,29)"/>
<path d="M0 0 C4.62 0 9.24 0 14 0 C14 1.32 14 2.64 14 4 C13.34 4 12.68 4 12 4 C12 3.34 12 2.68 12 2 C10.68 2 9.36 2 8 2 C8 5.96 8 9.92 8 14 C8.66 14.33 9.32 14.66 10 15 C8.02 15 6.04 15 4 15 C4.33 10.71 4.66 6.42 5 2 C4.01 2 3.02 2 2 2 C2 2.66 2 3.32 2 4 C1.34 4 0.68 4 0 4 C0 2.68 0 1.36 0 0 Z " fill="#432704" transform="translate(72,29)"/>
<path d="M0 0 C0.94875 0.04125 1.8975 0.0825 2.875 0.125 C2.875 1.445 2.875 2.765 2.875 4.125 C2.215 4.125 1.555 4.125 0.875 4.125 C0.875 3.465 0.875 2.805 0.875 2.125 C-0.445 2.125 -1.765 2.125 -3.125 2.125 C-2.43643065 5.32213358 -2.43643065 5.32213358 0.375 6.5 C2.875 8.125 2.875 8.125 3.875 10.625 C3.875 13.125 3.875 13.125 2.8125 14.9375 C0.11948045 16.58806037 -2.03070428 16.33128638 -5.125 16.125 C-5.125 14.475 -5.125 12.825 -5.125 11.125 C-4.465 11.785 -3.805 12.445 -3.125 13.125 C-1.05625966 13.7675235 -1.05625966 13.7675235 0.875 14.125 C0.875 12.805 0.875 11.485 0.875 10.125 C0.070625 9.815625 -0.73375 9.50625 -1.5625 9.1875 C-4.125 8.125 -4.125 8.125 -5.125 7.125 C-5.3125 4.6875 -5.3125 4.6875 -5.125 2.125 C-3.125 0.125 -3.125 0.125 0 0 Z " fill="#563102" transform="translate(182.125,28.875)"/>
<path d="M0 0 C1.051875 0.7734375 1.051875 0.7734375 2.125 1.5625 C5.66247791 3.33123895 7.24753778 3.06047845 11 2 C11.99 1.34 12.98 0.68 14 0 C14.33 1.32 14.66 2.64 15 4 C13.35 4 11.7 4 10 4 C10 4.66 10 5.32 10 6 C5.38 6 0.76 6 -4 6 C-4 5.34 -4 4.68 -4 4 C-6.97 4 -9.94 4 -13 4 C-12.67 3.34 -12.34 2.68 -12 2 C-11.07767578 2.03480469 -11.07767578 2.03480469 -10.13671875 2.0703125 C-8.92435547 2.09738281 -8.92435547 2.09738281 -7.6875 2.125 C-6.48673828 2.15980469 -6.48673828 2.15980469 -5.26171875 2.1953125 C-2.71611424 2.15817322 -2.71611424 2.15817322 0 0 Z " fill="#E1A825" transform="translate(55,41)"/>
<path d="M0 0 C0.66 0 1.32 0 2 0 C2 1.65 2 3.3 2 5 C3.65 5 5.3 5 7 5 C7 3.35 7 1.7 7 0 C7.99 0 8.98 0 10 0 C10 3.96 10 7.92 10 12 C9.01 12 8.02 12 7 12 C7 10.35 7 8.7 7 7 C5.35 7 3.7 7 2 7 C2 8.32 2 9.64 2 11 C1.34 11 0.68 11 0 11 C0 7.37 0 3.74 0 0 Z " fill="#D2D2D2" transform="translate(79,77)"/>
<path d="M0 0 C2.31 0 4.62 0 7 0 C7 0.66 7 1.32 7 2 C6.34 2 5.68 2 5 2 C5 5.96 5 9.92 5 14 C6.65 14 8.3 14 10 14 C10.33 13.01 10.66 12.02 11 11 C11.33 12.32 11.66 13.64 12 15 C8.04 15 4.08 15 0 15 C0.66 14.67 1.32 14.34 2 14 C2 10.04 2 6.08 2 2 C1.34 2 0.68 2 0 2 C0 1.34 0 0.68 0 0 Z " fill="#422803" transform="translate(226,29)"/>
<path d="M0 0 C5.28 0.33 10.56 0.66 16 1 C16 1.33 16 1.66 16 2 C14.02 2 12.04 2 10 2 C10 2.66 10 3.32 10 4 C10.66 4 11.32 4 12 4 C12.33 5.65 12.66 7.3 13 9 C12.34 9 11.68 9 11 9 C11 8.01 11 7.02 11 6 C10.34 6 9.68 6 9 6 C9 6.66 9 7.32 9 8 C7.68 7.67 6.36 7.34 5 7 C4.67 7.66 4.34 8.32 4 9 C3.01 8.34 2.02 7.68 1 7 C1 6.01 1 5.02 1 4 C2.32 4 3.64 4 5 4 C5 4.66 5 5.32 5 6 C5.66 6 6.32 6 7 6 C7 4.68 7 3.36 7 2 C4.69 2.33 2.38 2.66 0 3 C0 2.01 0 1.02 0 0 Z " fill="#EBAA30" transform="translate(178,27)"/>
<path d="M0 0 C2.31 0 4.62 0 7 0 C7 0.66 7 1.32 7 2 C6.34 2 5.68 2 5 2 C5 5.96 5 9.92 5 14 C7.31 13.34 9.62 12.68 12 12 C12 12.99 12 13.98 12 15 C8.04 15 4.08 15 0 15 C0.66 14.67 1.32 14.34 2 14 C2 10.04 2 6.08 2 2 C1.34 2 0.68 2 0 2 C0 1.34 0 0.68 0 0 Z " fill="#402503" transform="translate(129,29)"/>
<path d="M0 0 C2.31 0 4.62 0 7 0 C7 0.66 7 1.32 7 2 C6.34 2 5.68 2 5 2 C5 5.96 5 9.92 5 14 C7.31 13.34 9.62 12.68 12 12 C12 12.99 12 13.98 12 15 C8.37 15 4.74 15 1 15 C1.33 10.71 1.66 6.42 2 2 C1.34 2 0.68 2 0 2 C0 1.34 0 0.68 0 0 Z " fill="#4A2A03" transform="translate(98,29)"/>
<path d="M0 0 C0.99 0 1.98 0 3 0 C3 1.65 3 3.3 3 5 C3.66 5.33 4.32 5.66 5 6 C2.05868109 6.98043964 0.17498335 7.11621202 -2.88671875 7.09765625 C-3.82451172 7.09443359 -4.76230469 7.09121094 -5.72851562 7.08789062 C-6.70498047 7.07951172 -7.68144531 7.07113281 -8.6875 7.0625 C-10.16959961 7.05573242 -10.16959961 7.05573242 -11.68164062 7.04882812 C-14.12115474 7.03704303 -16.56054689 7.02059011 -19 7 C-18.67 6.34 -18.34 5.68 -18 5 C-12.05359768 3.93649103 -5.89626078 3.52593481 0 5 C0 3.35 0 1.7 0 0 Z " fill="#F3B025" transform="translate(118,40)"/>
<path d="M0 0 C9.24 0 18.48 0 28 0 C28 0.66 28 1.32 28 2 C30.64 2 33.28 2 36 2 C36 2.33 36 2.66 36 3 C23.92818166 3.41706858 12.00214154 2.15668466 0 1 C0 0.67 0 0.34 0 0 Z " fill="#DA370D" transform="translate(140,55)"/>
<path d="M0 0 C1 6.625 1 6.625 1 10 C0.34 10 -0.32 10 -1 10 C-1.33 10.66 -1.66 11.32 -2 12 C-2.99 11.67 -3.98 11.34 -5 11 C-5.75 8.3125 -5.75 8.3125 -6 5 C-2.84782609 0 -2.84782609 0 0 0 Z " fill="#E3D43B" transform="translate(54,32)"/>
<path d="M0 0 C2.31 0 4.62 0 7 0 C7 0.66 7 1.32 7 2 C6.34 2 5.68 2 5 2 C5 5.96 5 9.92 5 14 C5.66 14.33 6.32 14.66 7 15 C5.02 15 3.04 15 1 15 C1.33 10.71 1.66 6.42 2 2 C1.34 2 0.68 2 0 2 C0 1.34 0 0.68 0 0 Z " fill="#5B3B04" transform="translate(88,29)"/>
<path d="M0 0 C0.33 0.66 0.66 1.32 1 2 C0.0390625 3.69921875 0.0390625 3.69921875 -1.375 5.6875 C-3.93790668 9.57090707 -4.71173797 12.38780755 -5 17 C-5.33 17 -5.66 17 -6 17 C-6 14.03 -6 11.06 -6 8 C-6.99 8.33 -7.98 8.66 -9 9 C-7.27592413 4.61144323 -4.17026127 2.08513063 0 0 Z " fill="#F8D51E" transform="translate(26,8)"/>
<path d="M0 0 C2.31 0 4.62 0 7 0 C7 0.66 7 1.32 7 2 C5.35 2 3.7 2 2 2 C2 2.99 2 3.98 2 5 C3.32 5.33 4.64 5.66 6 6 C4.68 6 3.36 6 2 6 C2 7.32 2 8.64 2 10 C3.65 10 5.3 10 7 10 C7 10.66 7 11.32 7 12 C4.69 12 2.38 12 0 12 C0 8.04 0 4.08 0 0 Z " fill="#EAEAEA" transform="translate(205,77)"/>
<path d="M0 0 C2.97 0 5.94 0 9 0 C9 0.66 9 1.32 9 2 C8.01 2 7.02 2 6 2 C6 5.3 6 8.6 6 12 C5.01 12 4.02 12 3 12 C3 8.7 3 5.4 3 2 C2.01 2 1.02 2 0 2 C0 1.34 0 0.68 0 0 Z " fill="#D9D9D9" transform="translate(229,77)"/>
<path d="M0 0 C2.67927341 4.01891012 2.15601248 6.24161923 2 11 C0.35 11.66 -1.3 12.32 -3 13 C-3.93045933 10.44855176 -4.08564091 9.25993522 -3.22265625 6.640625 C-2.83980469 5.85171875 -2.45695312 5.0628125 -2.0625 4.25 C-1.68222656 3.45078125 -1.30195312 2.6515625 -0.91015625 1.828125 C-0.60980469 1.22484375 -0.30945312 0.6215625 0 0 Z " fill="#DECD4E" transform="translate(43,31)"/>
<path d="M0 0 C4.75 0.875 4.75 0.875 7 2 C8.33059914 5.99179743 7.81502739 8.26317891 6 12 C3.32098068 9.68118495 2.33795597 7.68185532 1.3125 4.3125 C1.06113281 3.50425781 0.80976562 2.69601563 0.55078125 1.86328125 C0.36902344 1.24839844 0.18726563 0.63351563 0 0 Z " fill="#ECE885" transform="translate(33,26)"/>
<path d="M0 0 C0.33 0 0.66 0 1 0 C1.12117188 1.07121094 1.24234375 2.14242188 1.3671875 3.24609375 C1.53597601 4.64328752 1.70527313 6.04041991 1.875 7.4375 C1.95363281 8.14455078 2.03226563 8.85160156 2.11328125 9.58007812 C2.33927676 11.39673432 2.66300727 13.20062522 3 15 C3.66 15.33 4.32 15.66 5 16 C2.36 16 -0.28 16 -3 16 C-2.67 15.34 -2.34 14.68 -2 14 C-1.61076473 11.63049479 -1.2619422 9.2542428 -0.9375 6.875 C-0.76089844 5.59367187 -0.58429687 4.31234375 -0.40234375 2.9921875 C-0.26957031 2.00476563 -0.13679688 1.01734375 0 0 Z " fill="#2E260B" transform="translate(46,28)"/>
<path d="M0 0 C2.80561393 1.40280696 3.00680507 3.0509005 4.125 5.9375 C4.47820313 6.83339844 4.83140625 7.72929688 5.1953125 8.65234375 C6 11 6 11 6 13 C4.33388095 13.042721 2.66617115 13.04063832 1 13 C0 12 0 12 -0.09765625 9.27734375 C-0.08605469 8.17519531 -0.07445313 7.07304688 -0.0625 5.9375 C-0.05347656 4.83277344 -0.04445313 3.72804687 -0.03515625 2.58984375 C-0.02355469 1.73519531 -0.01195313 0.88054688 0 0 Z " fill="#DDC73B" transform="translate(30,30)"/>
<path d="M0 0 C1.37095624 3.69037278 0.60010967 5.70883835 -0.9375 9.25 C-1.31777344 10.14203125 -1.69804687 11.0340625 -2.08984375 11.953125 C-2.54037109 12.96632813 -2.54037109 12.96632813 -3 14 C-5.97 13.505 -5.97 13.505 -9 13 C-8.77139942 11.53815942 -8.51629608 10.08044581 -8.25 8.625 C-8.11078125 7.81289063 -7.9715625 7.00078125 -7.828125 6.1640625 C-7 4 -7 4 -4.921875 2.7109375 C-4.28765625 2.47632813 -3.6534375 2.24171875 -3 2 C-3 2.66 -3 3.32 -3 4 C-3.99 4.495 -3.99 4.495 -5 5 C-5.65772428 8.02934491 -5.65772428 8.02934491 -6 11 C-5.01 11 -4.02 11 -3 11 C-2.67 8.36 -2.34 5.72 -2 3 C-1.34 3 -0.68 3 0 3 C0 2.01 0 1.02 0 0 Z " fill="#E3A52F" transform="translate(214,29)"/>
<path d="M0 0 C1 2 1 2 0.875 5.3125 C1.04089686 10.20645734 2.60223376 12.60223376 6 16 C3.02247554 15.66916395 1.18625279 15.12584648 -1.3125 13.4375 C-3.78719807 9.86293612 -3.28590207 7.28853105 -3 3 C-2.34 3 -1.68 3 -1 3 C-0.67 2.01 -0.34 1.02 0 0 Z " fill="#402603" transform="translate(155,28)"/>
<path d="M0 0 C2.4375 1.5625 2.4375 1.5625 4 3 C3 5 3 5 1 6 C0.46375 5.319375 -0.0725 4.63875 -0.625 3.9375 C-2.89346479 1.65008671 -2.89346479 1.65008671 -6.125 2.125 C-9.09681373 2.78308824 -9.09681373 2.78308824 -11 5 C-12.31747324 5.69748583 -13.64914193 6.36959957 -15 7 C-13.70989008 4.12206249 -12.42638194 2.03816083 -10 0 C-6.2195649 -1.26014503 -3.87795389 -0.81641135 0 0 Z " fill="#533304" transform="translate(167,24)"/>
<path d="M0 0 C0.99 0 1.98 0 3 0 C3 0.66 3 1.32 3 2 C2.34 2 1.68 2 1 2 C1.185625 2.598125 1.37125 3.19625 1.5625 3.8125 C2 6 2 6 1 9 C8.59 9 16.18 9 24 9 C24 9.33 24 9.66 24 10 C20.06263877 10.08696177 16.12552372 10.14037835 12.1875 10.1875 C10.50817383 10.22520508 10.50817383 10.22520508 8.79492188 10.26367188 C7.72177734 10.27333984 6.64863281 10.28300781 5.54296875 10.29296875 C4.0583313 10.31653442 4.0583313 10.31653442 2.54370117 10.34057617 C-0.3699213 9.95047123 -1.22497802 9.27991712 -3 7 C-2.01 7 -1.02 7 0 7 C-0.185625 6.030625 -0.37125 5.06125 -0.5625 4.0625 C-0.706875 3.051875 -0.85125 2.04125 -1 1 C-0.67 0.67 -0.34 0.34 0 0 Z " fill="#F1BE2E" transform="translate(24,41)"/>
<path d="M0 0 C0.33 0 0.66 0 1 0 C1.04125 1.051875 1.0825 2.10375 1.125 3.1875 C2.24383266 8.06241375 3.84127404 9.33213807 8 12 C11.22433127 12.873938 11.22433127 12.873938 14 13 C14 13.66 14 14.32 14 15 C10.37 15 6.74 15 3 15 C2.690625 14.030625 2.38125 13.06125 2.0625 12.0625 C1.30476658 9.15934208 1.30476658 9.15934208 0 8 C-0.14115161 5.32941149 -0.04247107 2.67567762 0 0 Z " fill="#DFA52D" transform="translate(151,32)"/>
<path d="M0 0 C2.31 0 4.62 0 7 0 C7 0.66 7 1.32 7 2 C5.35 2 3.7 2 2 2 C2 2.99 2 3.98 2 5 C3.32 5 4.64 5 6 5 C6 5.66 6 6.32 6 7 C4.68 7 3.36 7 2 7 C2 7.99 2 8.98 2 10 C3.32 10.33 4.64 10.66 6 11 C4.02 11 2.04 11 0 11 C0 7.37 0 3.74 0 0 Z " fill="#EDEEEE" transform="translate(178,77)"/>
<path d="M0 0 C0.99 0 1.98 0 3 0 C3 3.3 3 6.6 3 10 C4.32 10 5.64 10 7 10 C7 10.66 7 11.32 7 12 C4.69 12 2.38 12 0 12 C0 8.04 0 4.08 0 0 Z " fill="#DADADA" transform="translate(58,77)"/>
<path d="M0 0 C2.31 0 4.62 0 7 0 C7 0.66 7 1.32 7 2 C5.35 2 3.7 2 2 2 C2 2.99 2 3.98 2 5 C3.32 5 4.64 5 6 5 C6 5.66 6 6.32 6 7 C4.68 7 3.36 7 2 7 C2 7.99 2 8.98 2 10 C3.32 10.33 4.64 10.66 6 11 C4.02 11 2.04 11 0 11 C0 7.37 0 3.74 0 0 Z " fill="#ECEDED" transform="translate(34,77)"/>
<path d="M0 0 C2.64 0 5.28 0 8 0 C7.01 0.495 7.01 0.495 6 1 C6 1.66 6 2.32 6 3 C12.6 3 19.2 3 26 3 C26 3.33 26 3.66 26 4 C17.42 4 8.84 4 0 4 C0 2.68 0 1.36 0 0 Z " fill="#CA9C17" transform="translate(25,44)"/>
<path d="M0 0 C2 3 2 3 1.8125 6.5 C0.73536896 11.13994911 0.73536896 11.13994911 -2 13 C-2.66 13 -3.32 13 -4 13 C-4.33 13.99 -4.66 14.98 -5 16 C-5 13.03 -5 10.06 -5 7 C-4.01 7.33 -3.02 7.66 -2 8 C-1.34 5.36 -0.68 2.72 0 0 Z " fill="#F6EF91" transform="translate(53,18)"/>
<path d="M0 0 C0.99 0 1.98 0 3 0 C3 3.63 3 7.26 3 11 C2.34 11 1.68 11 1 11 C0.67 10.01 0.34 9.02 0 8 C-0.99 9.485 -0.99 9.485 -2 11 C-2.66 11 -3.32 11 -4 11 C-4 10.01 -4 9.02 -4 8 C-3.34 8 -2.68 8 -2 8 C-1.855625 7.236875 -1.71125 6.47375 -1.5625 5.6875 C-1 3 -1 3 0 0 Z " fill="#FBFCFB" transform="translate(114,77)"/>
<path d="M0 0 C2.64 0 5.28 0 8 0 C8.33 1.32 8.66 2.64 9 4 C8.34 4 7.68 4 7 4 C7 6.97 7 9.94 7 13 C8.32 13.33 9.64 13.66 11 14 C10.67 14.33 10.34 14.66 10 15 C8.35 15 6.7 15 5 15 C5 11.04 5 7.08 5 3 C5.66 3 6.32 3 7 3 C7 2.34 7 1.68 7 1 C4.69 1 2.38 1 0 1 C0 0.67 0 0.34 0 0 Z " fill="#E3A93E" transform="translate(98,28)"/>
<path d="M0 0 C0.99 0 1.98 0 3 0 C3 2.31 3 4.62 3 7 C3.66 7 4.32 7 5 7 C5 7.66 5 8.32 5 9 C5.66 9.33 6.32 9.66 7 10 C6.67 10.66 6.34 11.32 6 12 C1.125 10.125 1.125 10.125 0 9 C-0.07179964 7.48071962 -0.08392007 5.95832518 -0.0625 4.4375 C-0.05347656 3.61121094 -0.04445312 2.78492188 -0.03515625 1.93359375 C-0.02355469 1.29550781 -0.01195312 0.65742188 0 0 Z " fill="#FAF9C6" transform="translate(37,16)"/>
<path d="M0 0 C0.66 0 1.32 0 2 0 C2 1.98 2 3.96 2 6 C-0.75078884 6.91692961 -2.35948913 7.10886083 -5.1875 7.0625 C-7.0746875 7.0315625 -7.0746875 7.0315625 -9 7 C-9.33 5.35 -9.66 3.7 -10 2 C-8.35 2 -6.7 2 -5 2 C-5.33 2.99 -5.66 3.98 -6 5 C-4.02 5 -2.04 5 0 5 C0 3.35 0 1.7 0 0 Z " fill="#F7AF20" transform="translate(215,40)"/>
<path d="M0 0 C0.99 0 1.98 0 3 0 C3.33 1.98 3.66 3.96 4 6 C4.99 5.01 5.98 4.02 7 3 C6.67 5.64 6.34 8.28 6 11 C4.125 10.875 4.125 10.875 2 10 C0.40155515 6.40349908 0 3.96602757 0 0 Z " fill="#EAEAE9" transform="translate(14,77)"/>
<path d="M0 0 C2.05078125 0.03255208 4.1015625 0.06510417 6.15234375 0.09765625 C6.15234375 1.08765625 6.15234375 2.07765625 6.15234375 3.09765625 C4.17234375 3.09765625 2.19234375 3.09765625 0.15234375 3.09765625 C0.15234375 3.75765625 0.15234375 4.41765625 0.15234375 5.09765625 C1.14234375 5.09765625 2.13234375 5.09765625 3.15234375 5.09765625 C3.15234375 5.75765625 3.15234375 6.41765625 3.15234375 7.09765625 C1.4862247 7.14037725 -0.1814851 7.13829457 -1.84765625 7.09765625 C-2.84765625 6.09765625 -2.84765625 6.09765625 -2.97265625 3.59765625 C-2.80017347 0.14800071 -2.80017347 0.14800071 0 0 Z " fill="#494949" transform="translate(167.84765625,78.90234375)"/>
<path d="M0 0 C1.485 0.99 1.485 0.99 3 2 C3.29296875 4.1640625 3.29296875 4.1640625 3.1875 6.625 C3.16042969 7.44226562 3.13335937 8.25953125 3.10546875 9.1015625 C3.07066406 9.72804688 3.03585938 10.35453125 3 11 C1.68 11 0.36 11 -1 11 C-1.02688151 9.35425434 -1.04634123 7.70838587 -1.0625 6.0625 C-1.07410156 5.14597656 -1.08570312 4.22945312 -1.09765625 3.28515625 C-1 1 -1 1 0 0 Z " fill="#FCAC17" transform="translate(96,31)"/>
<path d="M0 0 C-0.20496094 0.56847656 -0.40992188 1.13695312 -0.62109375 1.72265625 C-2.29092669 6.5084454 -3.46376936 10.95943201 -4 16 C-4.66 16 -5.32 16 -6 16 C-6.19286332 10.50339543 -5.90303246 6.18047725 -4 1 C-2 0 -2 0 0 0 Z " fill="#F8EC40" transform="translate(32,7)"/>
<path d="M0 0 C4.13998349 -0.32470459 6.33999001 -0.4304413 9.875 1.875 C12.94714588 4.94714588 12.94714588 4.94714588 13.09765625 7.9453125 C13.04882812 10.97265625 13.04882812 10.97265625 13 14 C12.34 14 11.68 14 11 14 C11.0825 13.113125 11.165 12.22625 11.25 11.3125 C10.93764029 7.17373382 10.1190035 5.71913126 7 3 C3.33200185 2.58228196 3.33200185 2.58228196 0 3 C0 2.01 0 1.02 0 0 Z " fill="#E6AA30" transform="translate(58,27)"/>
<path d="M0 0 C6.36 -0.36 6.36 -0.36 9 1.125 C10.52732345 3.98873147 9.84278671 5.95300191 9 9 C8.34 9.66 7.68 10.32 7 11 C5.16308743 7.21812119 4.84162374 5.05431692 6 1 C4.02 1 2.04 1 0 1 C0 0.67 0 0.34 0 0 Z " fill="#E5AB32" transform="translate(196,28)"/>
<path d="M0 0 C1.65 0 3.3 0 5 0 C4.71382812 0.53109375 4.42765625 1.0621875 4.1328125 1.609375 C2.79673712 4.42895477 1.84213837 7.28410899 0.875 10.25 C0.52179688 11.32765625 0.16859375 12.4053125 -0.1953125 13.515625 C-0.46085938 14.33546875 -0.72640625 15.1553125 -1 16 C-1.66 16 -2.32 16 -3 16 C-3.33 14.68 -3.66 13.36 -4 12 C-3.01 12 -2.02 12 -1 12 C-0.67 8.04 -0.34 4.08 0 0 Z " fill="#613E03" transform="translate(205,29)"/>
<path d="M0 0 C0.99 0 1.98 0 3 0 C3 3.63 3 7.26 3 11 C2.34 11 1.68 11 1 11 C0.67 9.68 0.34 8.36 0 7 C-0.99 7.495 -0.99 7.495 -2 8 C-1.125 2.25 -1.125 2.25 0 0 Z " fill="#F6F7F7" transform="translate(198,77)"/>
<path d="M0 0 C1.32 0.33 2.64 0.66 4 1 C4.33 2.65 4.66 4.3 5 6 C3.68 5.67 2.36 5.34 1 5 C0.67 5.66 0.34 6.32 0 7 C0.99 7.33 1.98 7.66 3 8 C1.02 8.33 -0.96 8.66 -3 9 C-2.01 6.03 -1.02 3.06 0 0 Z " fill="#E7E7E7" transform="translate(125,77)"/>
<path d="M0 0 C2.64 0 5.28 0 8 0 C8 0.66 8 1.32 8 2 C7.01 2 6.02 2 5 2 C5 4.97 5 7.94 5 11 C4.34 11 3.68 11 3 11 C3 8.03 3 5.06 3 2 C2.01 2 1.02 2 0 2 C0 1.34 0 0.68 0 0 Z " fill="#F0F1F1" transform="translate(67,77)"/>
<path d="M0 0 C3.96 0 7.92 0 12 0 C12 0.33 12 0.66 12 1 C10.02 1 8.04 1 6 1 C6 4.96 6 8.92 6 13 C5.67 13 5.34 13 5 13 C5 9.37 5 5.74 5 2 C4.01 2 3.02 2 2 2 C2 2.66 2 3.32 2 4 C1.34 4 0.68 4 0 4 C0 2.68 0 1.36 0 0 Z " fill="#83550C" transform="translate(72,29)"/>
<path d="M0 0 C2.31 0 4.62 0 7 0 C7 0.66 7 1.32 7 2 C6.34 2 5.68 2 5 2 C5 5.63 5 9.26 5 13 C4.67 13 4.34 13 4 13 C3.67 11.35 3.34 9.7 3 8 C2.67 8 2.34 8 2 8 C2 6.02 2 4.04 2 2 C1.34 2 0.68 2 0 2 C0 1.34 0 0.68 0 0 Z " fill="#664305" transform="translate(226,29)"/>
<path d="M0 0 C0.66 0 1.32 0 2 0 C2 3.96 2 7.92 2 12 C0.68 11.67 -0.64 11.34 -2 11 C-2 10.01 -2 9.02 -2 8 C-1.34 8 -0.68 8 0 8 C0 5.36 0 2.72 0 0 Z " fill="#D8D8D8" transform="translate(224,77)"/>
<path d="M0 0 C0.66 1.32 1.32 2.64 2 4 C2.66 3.01 3.32 2.02 4 1 C3.73635952 4.86672705 3.39833655 6.58013175 0.6875 9.4375 C-2 11 -2 11 -4.3125 10.75 C-4.869375 10.5025 -5.42625 10.255 -6 10 C-5.195625 9.649375 -4.39125 9.29875 -3.5625 8.9375 C-0.6132233 7.14332716 -0.6132233 7.14332716 -0.1875 3.3125 C-0.125625 2.219375 -0.06375 1.12625 0 0 Z " fill="#64420B" transform="translate(66,34)"/>
<path d="M0 0 C1.32 0 2.64 0 4 0 C4 0.66 4 1.32 4 2 C3.34 2 2.68 2 2 2 C2.33 2.99 2.66 3.98 3 5 C3.03954234 7.33299825 3.04401732 9.66708189 3 12 C2.01 12 1.02 12 0 12 C0 8.04 0 4.08 0 0 Z " fill="#D09A30" transform="translate(80,31)"/>
<path d="M0 0 C2.64 0.33 5.28 0.66 8 1 C8 3.31 8 5.62 8 8 C7.01 8 6.02 8 5 8 C4.67 6.35 4.34 4.7 4 3 C2.35 2.67 0.7 2.34 -1 2 C-0.67 1.34 -0.34 0.68 0 0 Z " fill="#FBF9C7" transform="translate(41,14)"/>
<path d="M0 0 C0.66 0 1.32 0 2 0 C2.66 2.97 3.32 5.94 4 9 C4.66 9 5.32 9 6 9 C6.33 8.01 6.66 7.02 7 6 C7.33 7.65 7.66 9.3 8 11 C6.35 11 4.7 11 3 11 C2.67 8.69 2.34 6.38 2 4 C1.01 4.33 0.02 4.66 -1 5 C-0.67 3.35 -0.34 1.7 0 0 Z " fill="#DBA331" transform="translate(198,36)"/>
<path d="M0 0 C0.66 0 1.32 0 2 0 C2 3.63 2 7.26 2 11 C0.68 10.67 -0.64 10.34 -2 10 C-2 9.01 -2 8.02 -2 7 C-1.34 7 -0.68 7 0 7 C0 4.69 0 2.38 0 0 Z " fill="#F7F7F7" transform="translate(143,77)"/>
<path d="M0 0 C1.35220114 2.51901986 2.03998525 4.24990779 2.5 7.125 C2.73686321 10.12052548 2.73686321 10.12052548 5 12 C2.36 12 -0.28 12 -3 12 C-2.34 11.67 -1.68 11.34 -1 11 C-0.5316735 8.41394668 -0.5316735 8.41394668 -0.375 5.4375 C-0.30023437 4.42558594 -0.22546875 3.41367187 -0.1484375 2.37109375 C-0.09945313 1.58863281 -0.05046875 0.80617187 0 0 Z " fill="#513B0A" transform="translate(28,32)"/>
<path d="M0 0 C0.33 1.32 0.66 2.64 1 4 C0.34 4 -0.32 4 -1 4 C-1.12375 4.61875 -1.2475 5.2375 -1.375 5.875 C-2 8 -2 8 -4 10 C-6.3828125 10.1953125 -6.3828125 10.1953125 -9.125 10.125 C-10.49011719 10.09792969 -10.49011719 10.09792969 -11.8828125 10.0703125 C-12.58148438 10.04710938 -13.28015625 10.02390625 -14 10 C-14 9.67 -14 9.34 -14 9 C-13.40832031 9.020625 -12.81664062 9.04125 -12.20703125 9.0625 C-9.59757972 8.99439034 -7.49112689 8.80399246 -5 8 C-2.76579467 5.58726228 -1.3525079 2.98367321 0 0 Z " fill="#FE9A2E" transform="translate(238,54)"/>
<path d="M0 0 C2.31 0 4.62 0 7 0 C7.33 0.66 7.66 1.32 8 2 C2.25 5 2.25 5 0 5 C0 3.35 0 1.7 0 0 Z " fill="#F9F391" transform="translate(36,9)"/>
<path d="M0 0 C0.66 0 1.32 0 2 0 C2 1.65 2 3.3 2 5 C3.65 5 5.3 5 7 5 C7 5.33 7 5.66 7 6 C5.35 6 3.7 6 2 6 C2 7.65 2 9.3 2 11 C1.34 11 0.68 11 0 11 C0 7.37 0 3.74 0 0 Z " fill="#FDFDFD" transform="translate(79,77)"/>
<path d="M0 0 C1.98 0.495 1.98 0.495 4 1 C3.25 6.75 3.25 6.75 1 9 C-1.09230769 4.56923077 -1.09230769 4.56923077 -0.625 1.6875 C-0.41875 1.130625 -0.2125 0.57375 0 0 Z " fill="#E0A83B" transform="translate(194,30)"/>
<path d="M0 0 C3.82391165 3.69644793 6.15583286 6.29207787 6.625 11.6875 C6.69976562 12.49574219 6.77453125 13.30398437 6.8515625 14.13671875 C6.92503906 15.05904297 6.92503906 15.05904297 7 16 C3.02751863 11.46002129 1.36721126 5.77840229 0 0 Z " fill="#FDE565" transform="translate(51,13)"/>
<path d="M0 0 C1.98 0 3.96 0 6 0 C5.125 4.875 5.125 4.875 4 6 C2.33382885 6.04063832 0.66611905 6.042721 -1 6 C0.32 4.68 1.64 3.36 3 2 C2.01 2 1.02 2 0 2 C0 1.34 0 0.68 0 0 Z " fill="#EDEDED" transform="translate(168,82)"/>
<path d="M0 0 C1.65 0.33 3.3 0.66 5 1 C4.67 2.32 4.34 3.64 4 5 C3.01 4.01 2.02 3.02 1 2 C1 3.65 1 5.3 1 7 C-0.98 7 -2.96 7 -5 7 C-4.67 6.34 -4.34 5.68 -4 5 C-3.01 5 -2.02 5 -1 5 C-0.67 3.35 -0.34 1.7 0 0 Z " fill="#C5932A" transform="translate(214,38)"/>
<path d="M0 0 C0.33 0.66 0.66 1.32 1 2 C1.66 2.33 2.32 2.66 3 3 C-1.18586481 6.18923033 -3.70558305 7.50423019 -9 7 C-7 5 -7 5 -4.5 4.0625 C-1.69808253 3.1416526 -1.69808253 3.1416526 0 0 Z " fill="#553101" transform="translate(168,38)"/>
<path d="M0 0 C0.66 0 1.32 0 2 0 C2.45572917 2.01822917 2.91145833 4.03645833 3.3671875 6.0546875 C3.90474428 8.20719964 3.90474428 8.20719964 6 10 C3.32388302 9.63088042 2.1568531 9.15144437 0.1875 7.25 C-1.31690887 4.3995411 -0.92250763 3.01911587 0 0 Z " fill="#3C2A01" transform="translate(55,34)"/>
<path d="M0 0 C0.99 0.33 1.98 0.66 3 1 C2.67 5.62 2.34 10.24 2 15 C1.67 15 1.34 15 1 15 C0.83105557 13.25021843 0.66493691 11.50016388 0.5 9.75 C0.4071875 8.77546875 0.314375 7.8009375 0.21875 6.796875 C0.04199832 4.53697847 0 2.26679807 0 0 Z " fill="#E5D747" transform="translate(26,25)"/>
<path d="M0 0 C0 0.33 0 0.66 0 1 C-0.97582031 1.13277344 -1.95164062 1.26554688 -2.95703125 1.40234375 C-4.86548828 1.66724609 -4.86548828 1.66724609 -6.8125 1.9375 C-8.70935547 2.19853516 -8.70935547 2.19853516 -10.64453125 2.46484375 C-13.98321703 2.90392455 -13.98321703 2.90392455 -17 4 C-17 3.34 -17 2.68 -17 2 C-11.31145078 -1.84361434 -6.45574131 -0.95342799 0 0 Z " fill="#F0BC1E" transform="translate(40,6)"/>
<path d="M0 0 C0.99 0 1.98 0 3 0 C3 0.99 3 1.98 3 3 C2.34 3 1.68 3 1 3 C0.67 4.65 0.34 6.3 0 8 C-0.99 8.33 -1.98 8.66 -3 9 C-2.44271087 5.65626525 -1.64826111 2.96687001 0 0 Z " fill="#EEEEEE" transform="translate(153,77)"/>
<path d="M0 0 C2.475 0.99 2.475 0.99 5 2 C5 3.32 5 4.64 5 6 C3.35 5.67 1.7 5.34 0 5 C0 3.35 0 1.7 0 0 Z " fill="#DEA536" transform="translate(178,37)"/>
<path d="M0 0 C0.66 0.33 1.32 0.66 2 1 C1.25 3.4375 1.25 3.4375 0 6 C-2.125 6.8125 -2.125 6.8125 -4 7 C-3.6875 4.625 -3.6875 4.625 -3 2 C-2.01 1.34 -1.02 0.68 0 0 Z " fill="#FAAE1C" transform="translate(174,39)"/>
<path d="M0 0 C1.39195915 4.17587745 -0.17676781 6.13474776 -2 10 C-2.99 9.67 -3.98 9.34 -5 9 C-4.67 7.68 -4.34 6.36 -4 5 C-3.01 5 -2.02 5 -1 5 C-0.67 3.35 -0.34 1.7 0 0 Z " fill="#EBA638" transform="translate(116,33)"/>
<path d="M0 0 C0.99 0 1.98 0 3 0 C3.66 2.64 4.32 5.28 5 8 C4.01 8 3.02 8 2 8 C2 6.68 2 5.36 2 4 C1.34 4 0.68 4 0 4 C0 2.68 0 1.36 0 0 Z " fill="#452E05" transform="translate(215,29)"/>
<path d="M0 0 C0.99 0 1.98 0 3 0 C3.33 1.65 3.66 3.3 4 5 C3.01 5 2.02 5 1 5 C1 6.98 1 8.96 1 11 C0.67 11 0.34 11 0 11 C0 7.37 0 3.74 0 0 Z " fill="#F6F6F6" transform="translate(105,77)"/>
<path d="M0 0 C0.33 0 0.66 0 1 0 C1.04898438 0.85464844 1.09796875 1.70929687 1.1484375 2.58984375 C1.22320312 3.69457031 1.29796875 4.79929687 1.375 5.9375 C1.44460937 7.03964844 1.51421875 8.14179687 1.5859375 9.27734375 C1.72257812 10.17582031 1.85921875 11.07429688 2 12 C2.66 12.33 3.32 12.66 4 13 C2.02 13 0.04 13 -2 13 C-1.67 12.34 -1.34 11.68 -1 11 C-0.7724985 9.12943209 -0.59037189 7.25314042 -0.4375 5.375 C-0.35371094 4.37210938 -0.26992187 3.36921875 -0.18359375 2.3359375 C-0.12300781 1.56507812 -0.06242187 0.79421875 0 0 Z " fill="#372305" transform="translate(91,31)"/>
<path d="M0 0 C1.98 0 3.96 0 6 0 C5.34 3.96 4.68 7.92 4 12 C3.67 12 3.34 12 3 12 C2.92652344 10.95199219 2.92652344 10.95199219 2.8515625 9.8828125 C2.73941406 8.51769531 2.73941406 8.51769531 2.625 7.125 C2.55539063 6.22007813 2.48578125 5.31515625 2.4140625 4.3828125 C2.20431868 1.82058097 2.20431868 1.82058097 0 0 Z " fill="#302A06" transform="translate(26,24)"/>
<path d="M0 0 C0.66 0 1.32 0 2 0 C2.1875 2.875 2.1875 2.875 2 6 C1.01 6.66 0.02 7.32 -1 8 C-1.625 5.125 -1.625 5.125 -2 2 C-1.34 1.34 -0.68 0.68 0 0 Z " fill="#F7EB35" transform="translate(51,33)"/>
<path d="M0 0 C0.99 0.33 1.98 0.66 3 1 C2.67 1.66 2.34 2.32 2 3 C2 3.99 2 4.98 2 6 C2 6.66 2 7.32 2 8 C1.01 8 0.02 8 -1 8 C-1.93065133 5.39417629 -2.14917407 4.35801776 -1.0625 1.75 C-0.711875 1.1725 -0.36125 0.595 0 0 Z " fill="#765520" transform="translate(119,29)"/>
<path d="M0 0 C0.66 0 1.32 0 2 0 C2.125 2.375 2.125 2.375 2 5 C0 7 0 7 -2.625 7.125 C-3.40875 7.08375 -4.1925 7.0425 -5 7 C-4.67 6.34 -4.34 5.68 -4 5 C-3.01 5.33 -2.02 5.66 -1 6 C-0.67 4.02 -0.34 2.04 0 0 Z " fill="#626262" transform="translate(21,82)"/>
<path d="M0 0 C3 2 3 2 3.6875 4.625 C3.790625 5.40875 3.89375 6.1925 4 7 C3.01 7 2.02 7 1 7 C1 6.01 1 5.02 1 4 C-0.32 3.67 -1.64 3.34 -3 3 C-2.01 3 -1.02 3 0 3 C0 2.01 0 1.02 0 0 Z " fill="#E8E8E8" transform="translate(51,82)"/>
<path d="M0 0 C0.66 0.99 1.32 1.98 2 3 C1.34 4.32 0.68 5.64 0 7 C-0.99 7 -1.98 7 -3 7 C-2.67 5.35 -2.34 3.7 -2 2 C-1.34 2 -0.68 2 0 2 C0 1.34 0 0.68 0 0 Z " fill="#A3A3A3" transform="translate(156,78)"/>
<path d="M0 0 C0.66 0.99 1.32 1.98 2 3 C1.34 4.32 0.68 5.64 0 7 C-0.99 7 -1.98 7 -3 7 C-2.67 5.35 -2.34 3.7 -2 2 C-1.34 2 -0.68 2 0 2 C0 1.34 0 0.68 0 0 Z " fill="#A2A2A2" transform="translate(51,78)"/>
<path d="M0 0 C2.31 0 4.62 0 7 0 C7 0.66 7 1.32 7 2 C5.68 2 4.36 2 3 2 C3 3.65 3 5.3 3 7 C2.67 7 2.34 7 2 7 C2 5.35 2 3.7 2 2 C1.34 2 0.68 2 0 2 C0 1.34 0 0.68 0 0 Z " fill="#653D01" transform="translate(129,29)"/>
<path d="M0 0 C0.99 0.33 1.98 0.66 3 1 C3 2.65 3 4.3 3 6 C2.34 5.67 1.68 5.34 1 5 C0.67 5.66 0.34 6.32 0 7 C-0.66 7 -1.32 7 -2 7 C-1.34 4.69 -0.68 2.38 0 0 Z " fill="#4F4E2C" transform="translate(42,28)"/>
<path d="M0 0 C0.66 0 1.32 0 2 0 C2 0.66 2 1.32 2 2 C3.32 2.33 4.64 2.66 6 3 C3.36 3.66 0.72 4.32 -2 5 C-1 1 -1 1 0 0 Z " fill="#CBCBCB" transform="translate(46,84)"/>
<path d="M0 0 C0.99 0.33 1.98 0.66 3 1 C3 1.99 3 2.98 3 4 C2.34 4 1.68 4 1 4 C1 6.31 1 8.62 1 11 C0.67 11 0.34 11 0 11 C0 7.37 0 3.74 0 0 Z " fill="#FCFDFC" transform="translate(216,77)"/>
<path d="M0 0 C2.64 0 5.28 0 8 0 C7.01 0.495 7.01 0.495 6 1 C6 1.66 6 2.32 6 3 C4.35 3 2.7 3 1 3 C0.67 2.01 0.34 1.02 0 0 Z " fill="#D6A223" transform="translate(25,44)"/>
<path d="M0 0 C1.60031344 3.20062687 0.03173691 5.72271806 -1 9 C-1.66 8.34 -2.32 7.68 -3 7 C-3 5.68 -3 4.36 -3 3 C-2.34 3 -1.68 3 -1 3 C-0.67 2.01 -0.34 1.02 0 0 Z " fill="#301D09" transform="translate(155,28)"/>
<path d="M0 0 C1.32 0 2.64 0 4 0 C4 0.66 4 1.32 4 2 C4.66 2.33 5.32 2.66 6 3 C5.34 3 4.68 3 4 3 C3.67 3.66 3.34 4.32 3 5 C2.01 4.34 1.02 3.68 0 3 C0 2.01 0 1.02 0 0 Z " fill="#D5A337" transform="translate(179,31)"/>
<path d="M0 0 C0.66 0.66 1.32 1.32 2 2 C1.01 3.98 0.02 5.96 -1 8 C-1.66 8 -2.32 8 -3 8 C-3 7.01 -3 6.02 -3 5 C-2.34 5 -1.68 5 -1 5 C-0.67 3.35 -0.34 1.7 0 0 Z " fill="#EFEEEF" transform="translate(113,80)"/>
<path d="M0 0 C2.31 0.33 4.62 0.66 7 1 C6.67 1.99 6.34 2.98 6 4 C1.125 2.25 1.125 2.25 0 0 Z " fill="#F3F3BC" transform="translate(37,24)"/>
</svg>
