<svg xmlns="http://www.w3.org/2000/svg" width="60" height="63" viewBox="0 0 60 63" fill="none">
<path d="M12.2305 42.0399C11.6005 41.7999 11.3105 41.2199 11.5805 40.3099C11.8205 39.4799 11.3105 39.0399 10.6105 38.7099C9.31046 38.0999 9.30046 37.9899 10.0205 36.7499C10.6105 35.7399 11.1705 34.6999 11.8005 33.7099C12.4605 32.6599 13.0305 31.6599 12.4805 30.3299C12.3105 29.9299 12.5105 29.3099 12.6805 28.8399C13.4805 26.7099 14.2505 24.5699 15.1805 22.4999C15.8305 21.0299 17.1605 20.1599 18.5805 19.4899C22.1405 17.8099 25.9005 17.4599 29.7605 17.9799C30.2005 18.0399 30.9205 18.4199 30.9405 18.6899C30.9705 19.1099 30.6105 19.6899 30.2405 19.9899C26.6405 22.8499 25.1005 26.5799 25.9205 31.0699C26.7405 35.5299 29.5305 38.3999 33.8305 39.8399C34.2405 39.9799 34.8605 40.3399 34.8605 40.6099C34.8605 41.0699 34.5705 41.6799 34.2005 41.9699C30.1605 45.1399 26.0805 48.2599 22.0005 51.3799C21.1705 52.0099 20.6905 51.8299 20.3405 50.8799C19.6405 48.9699 19.5205 48.8799 17.5005 48.8599C16.4005 48.8399 15.3005 48.8599 14.2005 48.8199C12.7805 48.7799 12.1505 48.1599 12.2705 46.7499C12.3705 45.6299 12.4105 44.5999 11.7305 43.5899C11.5605 43.3399 12.0005 42.6799 12.2205 42.0499L12.2305 42.0399Z" fill="#004880"/>
<path d="M33.6207 58.5908C31.6107 58.5908 29.5907 58.6208 27.5807 58.5708C27.1607 58.5608 26.5407 58.3808 26.3907 58.0808C26.2507 57.8108 26.5107 57.1708 26.7907 56.8808C29.7207 53.9108 32.6807 50.9708 35.6607 48.0408C36.4107 47.3008 36.8807 47.3608 37.3807 48.2808C38.7907 50.8508 40.1807 53.4208 41.5307 56.0208C42.2507 57.4108 41.5607 58.5408 40.0007 58.5708C37.8807 58.6108 35.7507 58.5708 33.6307 58.5808L33.6207 58.5908Z" fill="#004880"/>
<path d="M22.0904 58.7607C21.5304 58.5707 20.6804 58.5407 20.4604 58.1607C19.9704 57.2907 19.7604 56.2607 19.5304 55.2707C19.4904 55.0707 19.8504 54.7207 20.1004 54.5307C24.7904 50.8907 29.4904 47.2607 34.2004 43.6407C35.1304 42.9307 35.6204 43.1607 35.8904 44.2907C36.1804 45.5207 35.9804 46.4607 34.9804 47.4107C31.5104 50.7207 28.1204 54.1407 24.7504 57.5607C24.0004 58.3307 23.2404 58.8207 22.0904 58.7607Z" fill="#004880"/>
<path d="M16.9414 58.2298C17.4414 57.5698 17.9414 56.9098 18.4514 56.2598C18.5814 56.2798 18.7014 56.2998 18.8314 56.3198C18.9414 56.9898 19.0614 57.6598 19.1714 58.3298C18.5114 58.4398 17.8414 58.5598 17.1814 58.6698C17.1014 58.5298 17.0214 58.3798 16.9514 58.2398L16.9414 58.2298Z" fill="#004880"/>
<path d="M43.5993 4.03906C44.0193 4.46906 44.0493 4.76906 43.7193 5.28906C43.4193 5.75906 43.0793 6.19906 42.8093 6.68906C42.2193 7.75906 41.9293 8.90906 41.7493 10.0891C41.7293 10.2391 41.6993 10.3291 41.4993 10.3291C40.0793 10.3291 38.6693 10.3291 37.2493 10.3291C37.2193 10.3291 37.1993 10.3191 37.1493 10.3091C37.0393 9.87906 36.9593 9.43906 36.8293 9.00906C36.5193 7.97906 36.0893 6.99906 35.3293 6.16906C35.1493 5.96906 35.0193 5.72906 34.9093 5.48906C34.8193 5.29906 34.8693 5.10906 35.0393 4.95906C35.1993 4.80906 35.4093 4.75906 35.6093 4.84906C35.8593 4.95906 36.1093 5.08906 36.3493 5.23906C37.0993 5.69906 37.6493 5.62906 38.2293 4.98906C38.3493 4.85906 38.4793 4.71906 38.6193 4.60906C38.8793 4.39906 39.1493 4.39906 39.4093 4.60906C39.5593 4.72906 39.6693 4.87906 39.7993 5.02906C40.1093 5.39906 40.4593 5.49906 40.9193 5.31906C41.1393 5.22906 41.3493 5.09906 41.5393 4.95906C41.9393 4.66906 42.3193 4.34906 42.6993 4.04906C42.9993 4.04906 43.2993 4.04906 43.6093 4.04906L43.5993 4.03906Z" fill="#004880"/>
<path d="M39.41 11.3691C40.32 11.3691 41.24 11.3691 42.15 11.3691C42.54 11.3691 42.8 11.5791 42.8 11.8791C42.8 12.1991 42.55 12.4191 42.14 12.4191C40.31 12.4191 38.48 12.4191 36.65 12.4191C36.26 12.4191 36.01 12.2091 36 11.8991C36 11.5791 36.25 11.3691 36.66 11.3691C37.57 11.3691 38.49 11.3691 39.4 11.3691H39.41Z" fill="#004880"/>
<path d="M49.8395 25.8683C49.2195 24.0083 48.1995 22.3383 47.0095 20.7483C45.2495 18.3783 43.3395 16.1083 41.7395 13.6183C41.6895 13.5483 41.5395 13.4883 41.4395 13.4883C40.0995 13.4883 38.7795 13.4883 37.4495 13.4883C37.2195 13.4883 37.0895 13.5483 36.9695 13.7283C35.7495 15.6383 34.3395 17.4483 32.9295 19.2383C31.9495 20.4783 31.0095 21.7383 30.2195 23.1083C28.9795 25.2483 28.2495 27.4883 28.3395 29.9483C28.4395 32.2783 29.4295 34.1783 31.3995 35.6183C33.0595 36.8383 34.9695 37.4483 37.0395 37.6883C37.4595 37.7383 37.8795 37.7683 38.3095 37.7983H40.6295C40.7595 37.7783 40.9095 37.7483 41.0495 37.7383C43.1895 37.6083 45.1795 37.0583 46.9595 35.9083C48.6695 34.7983 49.8195 33.3083 50.2395 31.3883C50.6495 29.5083 50.4195 27.6683 49.8195 25.8683H49.8395ZM43.7695 20.1483C43.3195 20.9483 43.0595 21.3783 42.9895 21.4383H40.9395C41.2195 21.8183 41.4195 22.2683 41.5195 22.8083H43.7195C43.7195 22.8083 43.7495 22.8383 43.7495 22.8483C43.2595 23.6783 43.0095 24.0983 42.9895 24.1083H41.5695C41.5395 24.5383 41.3595 25.0483 41.0295 25.6583C40.5895 26.2683 40.1595 26.6683 39.7595 26.8483C39.0195 27.2583 38.2995 27.4583 37.6195 27.4583V27.4783C37.6195 27.5383 37.7895 27.7883 38.1195 28.2283L41.9295 33.4483V33.6983C41.9295 33.6983 41.9295 33.7283 41.8995 33.7283H40.2195C37.1995 29.7483 35.6895 27.7383 35.6895 27.7283V26.5083L35.7095 26.4683C35.9795 26.5083 36.2895 26.5283 36.6495 26.5283C38.3395 26.5283 39.3895 25.9083 39.8095 24.6683C39.8695 24.4883 39.8995 24.2983 39.8995 24.1083H35.3195C35.3195 24.1083 35.2795 24.0883 35.2795 24.0583C35.7895 23.2283 36.0495 22.8083 36.0595 22.8083H39.7095V22.7883C39.4995 22.3083 39.0895 21.9383 38.4995 21.6683C38.0695 21.5083 37.6795 21.4383 37.3395 21.4383H35.2995V21.3883C35.7895 20.5583 36.0495 20.1383 36.0595 20.1383H43.7795V20.1583L43.7695 20.1483Z" fill="#004880"/>
</svg>