<?xml version="1.0" encoding="UTF-8"?>
<svg version="1.1" xmlns="http://www.w3.org/2000/svg" width="96" height="97">
<path d="M0 0 C9.17957196 8.97558147 14.81155275 20.3985159 15.10498047 33.24853516 C15.20994451 46.36392048 12.8839391 56.15756024 4.8125 66.75 C4.07 67.78125 3.3275 68.8125 2.5625 69.875 C-5.41846464 78.21873576 -15.44934322 83.65178361 -27.08984375 84.31640625 C-29.10137361 84.34400421 -31.11349962 84.34216862 -33.125 84.3125 C-34.17969482 84.30154297 -35.23438965 84.29058594 -36.32104492 84.27929688 C-44.16902937 84.06070698 -50.46041818 83.0129112 -57.1875 78.75 C-58.60869141 77.89535156 -58.60869141 77.89535156 -60.05859375 77.0234375 C-71.27674543 69.62585037 -78.28168074 58.81565832 -81.1875 45.75 C-82.52281938 30.60287368 -80.56507066 18.05652318 -71.1875 5.75 C-70.445 4.71875 -69.7025 3.6875 -68.9375 2.625 C-49.26064946 -17.94625283 -21.75827074 -15.35877934 0 0 Z " fill="#EEEEEE" transform="translate(81.1875,13.25)"/>
<path d="M0 0 C2.5625 0.1875 2.5625 0.1875 4.5625 2.1875 C4.00694444 6.74305556 4.00694444 6.74305556 2.5625 8.1875 C0.125 8.375 0.125 8.375 -2.4375 8.1875 C-3.0975 7.5275 -3.7575 6.8675 -4.4375 6.1875 C-3.71780303 0.28598485 -3.71780303 0.28598485 0 0 Z " fill="#1C2331" transform="translate(63.4375,44.8125)"/>
<path d="M0 0 C2.5625 0.1875 2.5625 0.1875 4.5625 2.1875 C4.00694444 6.74305556 4.00694444 6.74305556 2.5625 8.1875 C0.125 8.375 0.125 8.375 -2.4375 8.1875 C-3.0975 7.5275 -3.7575 6.8675 -4.4375 6.1875 C-3.71780303 0.28598485 -3.71780303 0.28598485 0 0 Z " fill="#1C2331" transform="translate(32.4375,44.8125)"/>
<path d="M0 0 C4.55555556 0.55555556 4.55555556 0.55555556 6 2 C6.125 4.5 6.125 4.5 6 7 C5 8 5 8 2 8.125 C-1 8 -1 8 -2 7 C-2.1875 4.5625 -2.1875 4.5625 -2 2 C-1.34 1.34 -0.68 0.68 0 0 Z " fill="#171E2D" transform="translate(46,45)"/>
</svg>
