<svg xmlns="http://www.w3.org/2000/svg" width="152" height="152" viewBox="0 0 152 152" version="1.1"><path d="M 49.355 36.620 C 44.089 39.179, 41.762 42.426, 41.231 47.951 C 40.592 54.594, 42.673 58, 47.368 58 C 53.579 58, 56.150 51.857, 51.597 47.898 C 49.573 46.137, 49.330 45.336, 50.055 42.807 C 50.529 41.157, 51.427 39.190, 52.053 38.437 C 54.085 35.988, 52.646 35.019, 49.355 36.620 M 67.413 37.026 C 60.425 40.483, 57.433 49.433, 61.295 55.327 C 62.617 57.345, 63.868 58, 66.401 58 C 72.275 58, 74.321 52.100, 70.031 47.533 C 67.662 45.011, 67.824 42.692, 70.684 38.163 C 72.709 34.958, 72.053 34.730, 67.413 37.026 M 79 36.500 C 79 37.771, 81.444 38, 95 38 C 108.556 38, 111 37.771, 111 36.500 C 111 35.229, 108.556 35, 95 35 C 81.444 35, 79 35.229, 79 36.500 M 79 45.500 C 79 46.771, 81.444 47, 95 47 C 108.556 47, 111 46.771, 111 45.500 C 111 44.229, 108.556 44, 95 44 C 81.444 44, 79 44.229, 79 45.500 M 79 53.500 C 79 54.771, 81.444 55, 95 55 C 108.556 55, 111 54.771, 111 53.500 C 111 52.229, 108.556 52, 95 52 C 81.444 52, 79 52.229, 79 53.500 M 79 62.500 C 79 63.771, 81.444 64, 95 64 C 108.556 64, 111 63.771, 111 62.500 C 111 61.229, 108.556 61, 95 61 C 81.444 61, 79 61.229, 79 62.500 M 44 71.500 C 44 72.803, 48.389 73, 77.500 73 C 106.611 73, 111 72.803, 111 71.500 C 111 70.197, 106.611 70, 77.500 70 C 48.389 70, 44 70.197, 44 71.500 M 44 80.500 C 44 81.803, 48.389 82, 77.500 82 C 106.611 82, 111 81.803, 111 80.500 C 111 79.197, 106.611 79, 77.500 79 C 48.389 79, 44 79.197, 44 80.500 M 44 89.500 C 44 90.803, 48.389 91, 77.500 91 C 106.611 91, 111 90.803, 111 89.500 C 111 88.197, 106.611 88, 77.500 88 C 48.389 88, 44 88.197, 44 89.500 M 44 98.500 C 44 99.803, 48.389 100, 77.500 100 C 106.611 100, 111 99.803, 111 98.500 C 111 97.197, 106.611 97, 77.500 97 C 48.389 97, 44 97.197, 44 98.500 M 44 107.500 C 44 108.803, 48.389 109, 77.500 109 C 106.611 109, 111 108.803, 111 107.500 C 111 106.197, 106.611 106, 77.500 106 C 48.389 106, 44 106.197, 44 107.500 M 44 116.500 C 44 117.803, 48.389 118, 77.500 118 C 106.611 118, 111 117.803, 111 116.500 C 111 115.197, 106.611 115, 77.500 115 C 48.389 115, 44 115.197, 44 116.500" stroke="none" fill="#faf9f9" fill-rule="evenodd"/><path d="M 2.923 2.923 L 0 5.846 0 76 L 0 146.154 2.923 149.077 L 5.846 152 76.319 152 L 146.793 152 149.896 148.465 L 153 144.930 153 75.451 L 153 5.972 149.750 3.015 L 146.500 0.059 76.173 0.029 L 5.846 0 2.923 2.923 M 0.474 76 C 0.474 114.775, 0.598 130.638, 0.750 111.250 C 0.901 91.863, 0.901 60.138, 0.750 40.750 C 0.598 21.363, 0.474 37.225, 0.474 76 M 49.355 36.620 C 44.089 39.179, 41.762 42.426, 41.231 47.951 C 40.592 54.594, 42.673 58, 47.368 58 C 53.579 58, 56.150 51.857, 51.597 47.898 C 49.573 46.137, 49.330 45.336, 50.055 42.807 C 50.529 41.157, 51.427 39.190, 52.053 38.437 C 54.085 35.988, 52.646 35.019, 49.355 36.620 M 67.413 37.026 C 60.425 40.483, 57.433 49.433, 61.295 55.327 C 62.617 57.345, 63.868 58, 66.401 58 C 72.275 58, 74.321 52.100, 70.031 47.533 C 67.662 45.011, 67.824 42.692, 70.684 38.163 C 72.709 34.958, 72.053 34.730, 67.413 37.026 M 79 36.500 C 79 37.771, 81.444 38, 95 38 C 108.556 38, 111 37.771, 111 36.500 C 111 35.229, 108.556 35, 95 35 C 81.444 35, 79 35.229, 79 36.500 M 79 45.500 C 79 46.771, 81.444 47, 95 47 C 108.556 47, 111 46.771, 111 45.500 C 111 44.229, 108.556 44, 95 44 C 81.444 44, 79 44.229, 79 45.500 M 79 53.500 C 79 54.771, 81.444 55, 95 55 C 108.556 55, 111 54.771, 111 53.500 C 111 52.229, 108.556 52, 95 52 C 81.444 52, 79 52.229, 79 53.500 M 79 62.500 C 79 63.771, 81.444 64, 95 64 C 108.556 64, 111 63.771, 111 62.500 C 111 61.229, 108.556 61, 95 61 C 81.444 61, 79 61.229, 79 62.500 M 44 71.500 C 44 72.803, 48.389 73, 77.500 73 C 106.611 73, 111 72.803, 111 71.500 C 111 70.197, 106.611 70, 77.500 70 C 48.389 70, 44 70.197, 44 71.500 M 44 80.500 C 44 81.803, 48.389 82, 77.500 82 C 106.611 82, 111 81.803, 111 80.500 C 111 79.197, 106.611 79, 77.500 79 C 48.389 79, 44 79.197, 44 80.500 M 44 89.500 C 44 90.803, 48.389 91, 77.500 91 C 106.611 91, 111 90.803, 111 89.500 C 111 88.197, 106.611 88, 77.500 88 C 48.389 88, 44 88.197, 44 89.500 M 44 98.500 C 44 99.803, 48.389 100, 77.500 100 C 106.611 100, 111 99.803, 111 98.500 C 111 97.197, 106.611 97, 77.500 97 C 48.389 97, 44 97.197, 44 98.500 M 44 107.500 C 44 108.803, 48.389 109, 77.500 109 C 106.611 109, 111 108.803, 111 107.500 C 111 106.197, 106.611 106, 77.500 106 C 48.389 106, 44 106.197, 44 107.500 M 44 116.500 C 44 117.803, 48.389 118, 77.500 118 C 106.611 118, 111 117.803, 111 116.500 C 111 115.197, 106.611 115, 77.500 115 C 48.389 115, 44 115.197, 44 116.500" stroke="none" fill="#e3242c" fill-rule="evenodd"/></svg>