<svg xmlns="http://www.w3.org/2000/svg" width="152" height="152" viewBox="0 0 152 152" version="1.1"><path d="M 32.659 35.445 C 32.297 36.390, 32 52.562, 32 71.382 C 32 96.663, 32.313 105.913, 33.200 106.800 C 33.860 107.460, 36.898 108.008, 39.950 108.017 C 48.655 108.045, 58.813 110.591, 67.250 114.862 L 75 118.785 75 81.474 L 75 44.163 71.750 42.157 C 65.345 38.203, 52.959 34.809, 42.911 34.255 C 34.468 33.790, 33.240 33.933, 32.659 35.445 M 97.468 35.858 C 93.600 36.820, 87.413 39.022, 83.718 40.751 L 77 43.895 77 81.531 C 77 102.231, 77.338 119.013, 77.750 118.826 C 78.162 118.639, 81.224 117.065, 84.552 115.328 C 92.752 111.051, 100.437 108.953, 110.806 108.163 L 119.500 107.500 119.500 71 L 119.500 34.500 112 34.304 C 107.548 34.188, 101.642 34.820, 97.468 35.858 M 34 71 L 34 106 39.042 106 C 46.556 106, 58.672 108.738, 65.862 112.060 C 69.362 113.677, 72.399 115, 72.612 115 C 72.826 115, 73 99.258, 73 80.017 L 73 45.034 67.904 42.451 C 60.747 38.825, 48.897 36, 40.840 36 L 34 36 34 71 M 98.462 37.473 C 95.141 38.196, 89.403 40.157, 85.712 41.831 L 79 44.875 79 80.423 L 79 115.971 82.250 113.970 C 87.668 110.633, 101.013 106.905, 109.750 106.287 L 118 105.703 118 70.851 L 118 36 111.250 36.079 C 107.537 36.123, 101.783 36.751, 98.462 37.473 M 22.250 45.662 C 21.282 46.053, 21 54.382, 21 82.564 L 21 118.962 23.250 119.513 C 24.488 119.816, 35.850 119.937, 48.500 119.782 L 71.500 119.500 66.154 116.685 C 59.105 112.972, 47.207 110, 39.397 110 C 29.665 110, 30 111.237, 30 75.277 L 30 45 26.750 45.079 C 24.962 45.122, 22.938 45.385, 22.250 45.662 M 122.667 45.667 C 122.300 46.033, 122 59.951, 122 76.595 C 122 111.500, 122.399 109.989, 113.179 110.017 C 110.055 110.027, 104.455 110.680, 100.734 111.468 C 93.501 113.001, 82 117.709, 82 119.137 C 82 120.392, 127.704 120.229, 130.066 118.965 C 131.922 117.971, 132 116.507, 132 82.665 C 132 56.570, 131.688 47.088, 130.800 46.200 C 129.524 44.924, 123.785 44.548, 122.667 45.667 M 23 82.500 L 23 118 43.500 118 C 54.775 118, 64 117.812, 64 117.582 C 64 116.259, 49.837 112.802, 41.555 112.103 C 34.647 111.520, 31.373 110.802, 30.178 109.608 C 28.694 108.125, 28.466 104.404, 28.209 77.466 L 27.917 47 25.459 47 L 23 47 23 82.500 M 124 77.427 L 124 107.855 121.365 109.927 C 119.419 111.458, 117.263 112.005, 113.115 112.017 C 106.359 112.038, 95.196 114.286, 91.314 116.406 C 88.716 117.826, 90.071 117.927, 109 117.722 L 129.500 117.500 129.763 82.250 L 130.026 47 127.013 47 L 124 47 124 77.427 M 105.250 50.491 C 101.768 52.004, 100.897 54, 103.719 54 C 106.185 54, 95.159 64.899, 88.985 68.564 C 84.280 71.357, 82.490 74, 85.304 74 C 87.627 74, 96.219 67.956, 102.584 61.844 C 106.229 58.344, 108.964 56.392, 109.206 57.118 C 110.051 59.654, 112 56.741, 112 52.941 C 112 48.487, 110.834 48.064, 105.250 50.491 M 44.014 59.703 C 37.990 62.808, 36.412 68.983, 39.903 75.790 C 44.518 84.790, 55.558 89.883, 63.374 86.617 C 73.055 82.572, 70.931 68.146, 59.685 61.556 C 53.805 58.110, 48.356 57.466, 44.014 59.703 M 46 60.706 C 43.664 61.560, 40 65.205, 40 66.674 C 40 68.696, 41.895 68.266, 45.182 65.500 C 46.816 64.125, 49.019 63, 50.077 63 C 51.135 63, 52 62.325, 52 61.500 C 52 59.996, 49.020 59.602, 46 60.706 M 56 62.812 C 56 63.259, 57.391 64.653, 59.092 65.910 C 60.792 67.167, 62.824 69.727, 63.605 71.598 C 64.387 73.469, 65.471 75, 66.013 75 C 68.771 75, 65.185 68.006, 60.657 64.552 C 57.159 61.884, 56 61.451, 56 62.812 M 46.571 66.571 C 45.707 67.436, 45.052 69.348, 45.116 70.821 C 45.185 72.422, 45.412 72.816, 45.680 71.799 C 46.037 70.441, 46.619 70.285, 48.564 71.024 C 50.182 71.639, 51 71.600, 51 70.906 C 51 70.331, 52.013 70.005, 53.250 70.180 C 55.057 70.437, 55.561 71.238, 55.810 74.250 C 56.149 78.342, 55.263 78.811, 50.565 77.025 C 46.964 75.655, 47.264 77.568, 50.950 79.474 C 52.573 80.313, 55.386 80.986, 57.200 80.968 C 60.158 80.940, 60.319 80.799, 58.750 79.608 C 57.516 78.671, 57 76.881, 57 73.533 C 57 69.446, 57.243 68.871, 58.750 69.398 C 59.793 69.762, 59.367 68.998, 57.694 67.504 C 54.443 64.603, 48.997 64.146, 46.571 66.571 M 103.745 68.953 C 102.993 70.027, 101.168 71.366, 99.689 71.928 C 98.210 72.490, 97 73.637, 97 74.475 C 97 75.426, 96.079 76, 94.557 76 C 93.213 76, 91.525 76.794, 90.807 77.765 C 90.088 78.736, 88.313 80.054, 86.862 80.693 C 84.732 81.631, 84.136 82.688, 83.768 86.178 C 83.517 88.555, 83.458 90.781, 83.638 91.125 C 84.004 91.828, 110.685 85.649, 111.710 84.624 C 112.071 84.262, 111.834 83.434, 111.183 82.783 C 110.488 82.088, 110 78.587, 110 74.300 C 110 67.225, 109.925 67, 107.557 67 C 106.213 67, 104.498 67.879, 103.745 68.953 M 105.667 69.667 C 103.836 71.497, 105.643 84, 107.738 84 C 108.673 84, 108.992 83.420, 108.607 82.418 C 108.273 81.548, 108 78.173, 108 74.918 C 108 69.447, 107.350 67.984, 105.667 69.667 M 40 71.550 C 40 71.852, 40.652 73.360, 41.449 74.901 C 44.599 80.993, 53.734 86.602, 59.233 85.822 C 62.352 85.379, 61.685 83.561, 58.281 83.226 C 56.751 83.075, 54.496 82.731, 53.268 82.461 C 50.084 81.762, 44.323 76.423, 43.587 73.489 C 43.243 72.120, 42.295 71, 41.481 71 C 40.666 71, 40 71.247, 40 71.550 M 53.158 74 C 53.158 75.375, 53.385 75.938, 53.662 75.250 C 53.940 74.563, 53.940 73.438, 53.662 72.750 C 53.385 72.063, 53.158 72.625, 53.158 74 M 59.195 74.500 C 59.215 76.150, 59.439 76.704, 59.693 75.731 C 59.947 74.758, 59.930 73.408, 59.656 72.731 C 59.382 72.054, 59.175 72.850, 59.195 74.500 M 99.667 73.667 C 99.300 74.033, 99 76.958, 99 80.167 C 99 84.685, 99.338 86, 100.500 86 C 101.679 86, 102 84.611, 102 79.500 C 102 73.505, 101.379 71.954, 99.667 73.667 M 62.079 76.583 C 62.127 77.748, 62.364 77.985, 62.683 77.188 C 62.972 76.466, 62.936 75.603, 62.604 75.271 C 62.272 74.939, 62.036 75.529, 62.079 76.583 M 63.574 79.667 C 62.821 81.630, 64.351 83.519, 65.913 82.554 C 67.489 81.580, 67.248 78, 65.607 78 C 64.841 78, 63.926 78.750, 63.574 79.667 M 92.567 82.750 C 93.374 88.310, 93.270 88.083, 94.602 87.196 C 96.208 86.126, 95.087 78, 93.334 78 C 92.166 78, 92.014 78.942, 92.567 82.750 M 86.667 82.667 C 85.315 84.018, 85.971 89, 87.500 89 C 88.548 89, 89 87.944, 89 85.500 C 89 82.191, 88.161 81.172, 86.667 82.667" stroke="none" fill="#fbebeb" fill-rule="evenodd"/><path d="M 2.635 2.073 L 0 4.145 0 76.501 C 0 140.946, 0.172 149.029, 1.571 150.429 C 2.971 151.829, 11.146 152, 76.515 152 L 149.887 152 151.443 149.777 C 152.817 147.816, 153 139.096, 153 75.493 L 153 3.431 150.096 1.716 C 147.425 0.138, 141.475 -0, 76.231 -0 C 5.956 -0, 5.244 0.020, 2.635 2.073 M 0.474 76.500 C 0.475 116.650, 0.598 132.929, 0.750 112.676 C 0.901 92.423, 0.901 59.573, 0.750 39.676 C 0.598 19.779, 0.474 36.350, 0.474 76.500 M 32.659 35.445 C 32.297 36.390, 32 52.562, 32 71.382 C 32 96.663, 32.313 105.913, 33.200 106.800 C 33.860 107.460, 36.898 108.008, 39.950 108.017 C 48.655 108.045, 58.813 110.591, 67.250 114.862 L 75 118.785 75 81.474 L 75 44.163 71.750 42.157 C 65.345 38.203, 52.959 34.809, 42.911 34.255 C 34.468 33.790, 33.240 33.933, 32.659 35.445 M 97.468 35.858 C 93.600 36.820, 87.413 39.022, 83.718 40.751 L 77 43.895 77 81.531 C 77 102.231, 77.338 119.013, 77.750 118.826 C 78.162 118.639, 81.224 117.065, 84.552 115.328 C 92.752 111.051, 100.437 108.953, 110.806 108.163 L 119.500 107.500 119.500 71 L 119.500 34.500 112 34.304 C 107.548 34.188, 101.642 34.820, 97.468 35.858 M 34 71 L 34 106 39.042 106 C 46.556 106, 58.672 108.738, 65.862 112.060 C 69.362 113.677, 72.399 115, 72.612 115 C 72.826 115, 73 99.258, 73 80.017 L 73 45.034 67.904 42.451 C 60.747 38.825, 48.897 36, 40.840 36 L 34 36 34 71 M 98.462 37.473 C 95.141 38.196, 89.403 40.157, 85.712 41.831 L 79 44.875 79 80.423 L 79 115.971 82.250 113.970 C 87.668 110.633, 101.013 106.905, 109.750 106.287 L 118 105.703 118 70.851 L 118 36 111.250 36.079 C 107.537 36.123, 101.783 36.751, 98.462 37.473 M 22.250 45.662 C 21.282 46.053, 21 54.382, 21 82.564 L 21 118.962 23.250 119.513 C 24.488 119.816, 35.850 119.937, 48.500 119.782 L 71.500 119.500 66.154 116.685 C 59.105 112.972, 47.207 110, 39.397 110 C 29.665 110, 30 111.237, 30 75.277 L 30 45 26.750 45.079 C 24.962 45.122, 22.938 45.385, 22.250 45.662 M 122.667 45.667 C 122.300 46.033, 122 59.951, 122 76.595 C 122 111.500, 122.399 109.989, 113.179 110.017 C 110.055 110.027, 104.455 110.680, 100.734 111.468 C 93.501 113.001, 82 117.709, 82 119.137 C 82 120.392, 127.704 120.229, 130.066 118.965 C 131.922 117.971, 132 116.507, 132 82.665 C 132 56.570, 131.688 47.088, 130.800 46.200 C 129.524 44.924, 123.785 44.548, 122.667 45.667 M 23 82.500 L 23 118 43.500 118 C 54.775 118, 64 117.812, 64 117.582 C 64 116.259, 49.837 112.802, 41.555 112.103 C 34.647 111.520, 31.373 110.802, 30.178 109.608 C 28.694 108.125, 28.466 104.404, 28.209 77.466 L 27.917 47 25.459 47 L 23 47 23 82.500 M 124 77.427 L 124 107.855 121.365 109.927 C 119.419 111.458, 117.263 112.005, 113.115 112.017 C 106.359 112.038, 95.196 114.286, 91.314 116.406 C 88.716 117.826, 90.071 117.927, 109 117.722 L 129.500 117.500 129.763 82.250 L 130.026 47 127.013 47 L 124 47 124 77.427 M 105.250 50.491 C 101.768 52.004, 100.897 54, 103.719 54 C 106.185 54, 95.159 64.899, 88.985 68.564 C 84.280 71.357, 82.490 74, 85.304 74 C 87.627 74, 96.219 67.956, 102.584 61.844 C 106.229 58.344, 108.964 56.392, 109.206 57.118 C 110.051 59.654, 112 56.741, 112 52.941 C 112 48.487, 110.834 48.064, 105.250 50.491 M 44.014 59.703 C 37.990 62.808, 36.412 68.983, 39.903 75.790 C 44.518 84.790, 55.558 89.883, 63.374 86.617 C 73.055 82.572, 70.931 68.146, 59.685 61.556 C 53.805 58.110, 48.356 57.466, 44.014 59.703 M 46 60.706 C 43.664 61.560, 40 65.205, 40 66.674 C 40 68.696, 41.895 68.266, 45.182 65.500 C 46.816 64.125, 49.019 63, 50.077 63 C 51.135 63, 52 62.325, 52 61.500 C 52 59.996, 49.020 59.602, 46 60.706 M 56 62.812 C 56 63.259, 57.391 64.653, 59.092 65.910 C 60.792 67.167, 62.824 69.727, 63.605 71.598 C 64.387 73.469, 65.471 75, 66.013 75 C 68.771 75, 65.185 68.006, 60.657 64.552 C 57.159 61.884, 56 61.451, 56 62.812 M 46.571 66.571 C 45.707 67.436, 45.052 69.348, 45.116 70.821 C 45.185 72.422, 45.412 72.816, 45.680 71.799 C 46.037 70.441, 46.619 70.285, 48.564 71.024 C 50.182 71.639, 51 71.600, 51 70.906 C 51 70.331, 52.013 70.005, 53.250 70.180 C 55.057 70.437, 55.561 71.238, 55.810 74.250 C 56.149 78.342, 55.263 78.811, 50.565 77.025 C 46.964 75.655, 47.264 77.568, 50.950 79.474 C 52.573 80.313, 55.386 80.986, 57.200 80.968 C 60.158 80.940, 60.319 80.799, 58.750 79.608 C 57.516 78.671, 57 76.881, 57 73.533 C 57 69.446, 57.243 68.871, 58.750 69.398 C 59.793 69.762, 59.367 68.998, 57.694 67.504 C 54.443 64.603, 48.997 64.146, 46.571 66.571 M 103.745 68.953 C 102.993 70.027, 101.168 71.366, 99.689 71.928 C 98.210 72.490, 97 73.637, 97 74.475 C 97 75.426, 96.079 76, 94.557 76 C 93.213 76, 91.525 76.794, 90.807 77.765 C 90.088 78.736, 88.313 80.054, 86.862 80.693 C 84.732 81.631, 84.136 82.688, 83.768 86.178 C 83.517 88.555, 83.458 90.781, 83.638 91.125 C 84.004 91.828, 110.685 85.649, 111.710 84.624 C 112.071 84.262, 111.834 83.434, 111.183 82.783 C 110.488 82.088, 110 78.587, 110 74.300 C 110 67.225, 109.925 67, 107.557 67 C 106.213 67, 104.498 67.879, 103.745 68.953 M 105.667 69.667 C 103.836 71.497, 105.643 84, 107.738 84 C 108.673 84, 108.992 83.420, 108.607 82.418 C 108.273 81.548, 108 78.173, 108 74.918 C 108 69.447, 107.350 67.984, 105.667 69.667 M 40 71.550 C 40 71.852, 40.652 73.360, 41.449 74.901 C 44.599 80.993, 53.734 86.602, 59.233 85.822 C 62.352 85.379, 61.685 83.561, 58.281 83.226 C 56.751 83.075, 54.496 82.731, 53.268 82.461 C 50.084 81.762, 44.323 76.423, 43.587 73.489 C 43.243 72.120, 42.295 71, 41.481 71 C 40.666 71, 40 71.247, 40 71.550 M 53.158 74 C 53.158 75.375, 53.385 75.938, 53.662 75.250 C 53.940 74.563, 53.940 73.438, 53.662 72.750 C 53.385 72.063, 53.158 72.625, 53.158 74 M 59.195 74.500 C 59.215 76.150, 59.439 76.704, 59.693 75.731 C 59.947 74.758, 59.930 73.408, 59.656 72.731 C 59.382 72.054, 59.175 72.850, 59.195 74.500 M 99.667 73.667 C 99.300 74.033, 99 76.958, 99 80.167 C 99 84.685, 99.338 86, 100.500 86 C 101.679 86, 102 84.611, 102 79.500 C 102 73.505, 101.379 71.954, 99.667 73.667 M 62.079 76.583 C 62.127 77.748, 62.364 77.985, 62.683 77.188 C 62.972 76.466, 62.936 75.603, 62.604 75.271 C 62.272 74.939, 62.036 75.529, 62.079 76.583 M 63.574 79.667 C 62.821 81.630, 64.351 83.519, 65.913 82.554 C 67.489 81.580, 67.248 78, 65.607 78 C 64.841 78, 63.926 78.750, 63.574 79.667 M 92.567 82.750 C 93.374 88.310, 93.270 88.083, 94.602 87.196 C 96.208 86.126, 95.087 78, 93.334 78 C 92.166 78, 92.014 78.942, 92.567 82.750 M 86.667 82.667 C 85.315 84.018, 85.971 89, 87.500 89 C 88.548 89, 89 87.944, 89 85.500 C 89 82.191, 88.161 81.172, 86.667 82.667" stroke="none" fill="#e42e2e" fill-rule="evenodd"/></svg>