<svg xmlns="http://www.w3.org/2000/svg" width="152" height="152" viewBox="0 0 152 152" version="1.1"><path d="M 43.204 43.160 L 35 51.320 35 84.660 L 35 118 71.500 118 L 108 118 108 105.500 L 108 93 112 93 C 114.200 93, 116 92.550, 116 92 C 116 91.450, 114.200 91, 112 91 L 108 91 108 86.500 L 108 82 112 82 C 114.200 82, 116 81.550, 116 81 C 116 80.450, 114.200 80, 112 80 L 108 80 108 75.500 L 108 71 112 71 C 114.200 71, 116 70.550, 116 70 C 116 69.450, 114.200 69, 112 69 L 108 69 108 52 L 108 35 79.704 35 L 51.408 35 43.204 43.160 M 53 45 L 53 53 45 53 L 37 53 37 84.500 L 37 116 71.500 116 L 106 116 106 104.500 L 106 93 78.500 93 C 60.833 93, 51 92.642, 51 92 C 51 91.358, 60.833 91, 78.500 91 L 106 91 106 86.500 L 106 82 78.500 82 C 60.833 82, 51 81.642, 51 81 C 51 80.358, 60.833 80, 78.500 80 L 106 80 106 75.500 L 106 71 78.500 71 C 60.833 71, 51 70.642, 51 70 C 51 69.358, 60.833 69, 78.500 69 L 106 69 106 53 L 106 37 79.500 37 L 53 37 53 45 M 44.712 44.784 C 42.121 47.416, 40 49.891, 40 50.284 C 40 50.678, 42.475 51, 45.500 51 L 51 51 51 45.500 C 51 42.475, 50.646 40, 50.212 40 C 49.779 40, 47.304 42.153, 44.712 44.784" stroke="none" fill="#fcf9fa" fill-rule="evenodd"/><path d="M 2.923 2.923 L 0 5.846 0 76 L 0 146.154 2.923 149.077 L 5.846 152 76.055 152 L 146.264 152 149.632 148.429 L 153 144.858 153 74.762 C 153 36.210, 152.755 4.912, 152.455 5.212 C 152.155 5.511, 150.615 4.461, 149.032 2.878 L 146.154 0 76 0 L 5.846 0 2.923 2.923 M 0.474 76 C 0.474 114.775, 0.598 130.638, 0.750 111.250 C 0.901 91.863, 0.901 60.138, 0.750 40.750 C 0.598 21.363, 0.474 37.225, 0.474 76 M 43.204 43.160 L 35 51.320 35 84.660 L 35 118 71.500 118 L 108 118 108 105.500 L 108 93 112 93 C 114.200 93, 116 92.550, 116 92 C 116 91.450, 114.200 91, 112 91 L 108 91 108 86.500 L 108 82 112 82 C 114.200 82, 116 81.550, 116 81 C 116 80.450, 114.200 80, 112 80 L 108 80 108 75.500 L 108 71 112 71 C 114.200 71, 116 70.550, 116 70 C 116 69.450, 114.200 69, 112 69 L 108 69 108 52 L 108 35 79.704 35 L 51.408 35 43.204 43.160 M 53 45 L 53 53 45 53 L 37 53 37 84.500 L 37 116 71.500 116 L 106 116 106 104.500 L 106 93 78.500 93 C 60.833 93, 51 92.642, 51 92 C 51 91.358, 60.833 91, 78.500 91 L 106 91 106 86.500 L 106 82 78.500 82 C 60.833 82, 51 81.642, 51 81 C 51 80.358, 60.833 80, 78.500 80 L 106 80 106 75.500 L 106 71 78.500 71 C 60.833 71, 51 70.642, 51 70 C 51 69.358, 60.833 69, 78.500 69 L 106 69 106 53 L 106 37 79.500 37 L 53 37 53 45 M 44.712 44.784 C 42.121 47.416, 40 49.891, 40 50.284 C 40 50.678, 42.475 51, 45.500 51 L 51 51 51 45.500 C 51 42.475, 50.646 40, 50.212 40 C 49.779 40, 47.304 42.153, 44.712 44.784" stroke="none" fill="#e3252d" fill-rule="evenodd"/></svg>