<svg xmlns="http://www.w3.org/2000/svg" width="152" height="152" viewBox="0 0 152 152" version="1.1"><path d="M 71.132 35.093 C 60.975 37.053, 53.923 42.675, 49.378 52.435 C 45.962 59.770, 46.218 66.500, 50.294 76.500 C 55.720 89.815, 73.419 118, 76.354 118 C 78.080 118, 92.773 95.583, 98.391 84.378 C 106.829 67.547, 107.541 61.978, 102.595 51.493 C 96.982 39.595, 83.694 32.669, 71.132 35.093 M 70.500 37.928 C 61.705 40.329, 55.815 45.056, 52.351 52.493 C 48.045 61.740, 49.950 72.451, 58.535 87.265 C 63.700 96.177, 75.391 113.961, 76.097 113.982 C 77.258 114.017, 90.439 93.369, 95.559 83.497 C 102.465 70.180, 103.793 64.238, 101.570 56.594 C 99.589 49.780, 93.527 42.592, 87.500 39.911 C 82.652 37.754, 74.585 36.814, 70.500 37.928 M 70.500 52.842 C 66.629 55.209, 65.123 57.084, 64.028 60.903 C 61.253 70.579, 71.859 79.688, 80.795 75.304 C 85.076 73.204, 89 67.839, 89 64.087 C 89 57.831, 82.215 50.995, 76.016 51.004 C 74.632 51.006, 72.150 51.833, 70.500 52.842 M 70.186 56.497 C 66.407 59.676, 65.572 63.040, 67.447 67.528 C 70.241 74.215, 78.781 75.425, 83.511 69.805 C 87.502 65.062, 86.236 58.208, 80.855 55.425 C 76.829 53.343, 73.542 53.673, 70.186 56.497" stroke="none" fill="#e7d4d6" fill-rule="evenodd"/><path d="M 2.687 2.805 L 0 5.609 0 76.168 L 0 146.727 2.636 149.364 L 5.273 152 75.686 152 L 146.099 152 149.550 148.649 L 153 145.298 152.921 74.399 C 152.878 35.405, 152.633 4.008, 152.378 4.630 C 152.102 5.300, 150.743 4.589, 149.034 2.880 L 146.154 0 75.764 0 L 5.374 0 2.687 2.805 M 0.474 76 C 0.474 115.325, 0.598 131.412, 0.750 111.750 C 0.901 92.088, 0.901 59.913, 0.750 40.250 C 0.598 20.587, 0.474 36.675, 0.474 76 M 71.132 35.093 C 60.975 37.053, 53.923 42.675, 49.378 52.435 C 45.962 59.770, 46.218 66.500, 50.294 76.500 C 55.720 89.815, 73.419 118, 76.354 118 C 78.080 118, 92.773 95.583, 98.391 84.378 C 106.829 67.547, 107.541 61.978, 102.595 51.493 C 96.982 39.595, 83.694 32.669, 71.132 35.093 M 70.500 37.928 C 61.705 40.329, 55.815 45.056, 52.351 52.493 C 48.045 61.740, 49.950 72.451, 58.535 87.265 C 63.700 96.177, 75.391 113.961, 76.097 113.982 C 77.258 114.017, 90.439 93.369, 95.559 83.497 C 102.465 70.180, 103.793 64.238, 101.570 56.594 C 99.589 49.780, 93.527 42.592, 87.500 39.911 C 82.652 37.754, 74.585 36.814, 70.500 37.928 M 70.500 52.842 C 66.629 55.209, 65.123 57.084, 64.028 60.903 C 61.253 70.579, 71.859 79.688, 80.795 75.304 C 85.076 73.204, 89 67.839, 89 64.087 C 89 57.831, 82.215 50.995, 76.016 51.004 C 74.632 51.006, 72.150 51.833, 70.500 52.842 M 70.186 56.497 C 66.407 59.676, 65.572 63.040, 67.447 67.528 C 70.241 74.215, 78.781 75.425, 83.511 69.805 C 87.502 65.062, 86.236 58.208, 80.855 55.425 C 76.829 53.343, 73.542 53.673, 70.186 56.497" stroke="none" fill="#e3242c" fill-rule="evenodd"/></svg>