<svg xmlns="http://www.w3.org/2000/svg" width="152" height="152" viewBox="0 0 152 152" version="1.1"><path d="M 32.677 37.656 C 32.305 38.029, 32 50.810, 32 66.060 C 32 90.420, 32.192 93.860, 33.582 94.393 C 34.452 94.727, 38.952 95, 43.582 95 L 52 95 52 106.500 C 52 112.825, 52.380 118, 52.843 118 C 53.307 118, 58.720 112.825, 64.871 106.500 L 76.056 95 96.406 95 C 112.431 95, 116.997 94.708, 117.894 93.628 C 118.699 92.657, 118.955 84.241, 118.766 64.878 L 118.500 37.500 75.927 37.239 C 52.512 37.096, 33.050 37.284, 32.677 37.656 M 34.455 40.257 C 34.185 40.960, 34.085 52.778, 34.232 66.518 L 34.500 91.500 44.750 91.785 L 55 92.070 55 102.267 L 55 112.464 65.250 102.252 L 75.500 92.040 96 91.770 L 116.500 91.500 116.500 65.500 L 116.500 39.500 75.723 39.239 C 43.336 39.031, 34.845 39.241, 34.455 40.257 M 48 66 C 48 74.222, 48.267 76, 49.500 76 C 50.692 76, 51 74.546, 51 68.917 C 51 60.202, 51.892 60.220, 57.842 69.053 C 64.220 78.522, 65 78.197, 65 66.073 C 65 57.786, 64.734 56, 63.500 56 C 62.333 56, 62 57.333, 62 62 C 62 65.300, 61.652 68, 61.226 68 C 60.800 68, 58.485 65.300, 56.082 62 C 53.454 58.390, 50.973 56, 49.856 56 C 48.172 56, 48 56.924, 48 66 M 71.714 65.416 C 67.457 76.208, 67.500 76, 69.525 76 C 70.363 76, 71.477 74.875, 72 73.500 C 72.822 71.339, 73.567 71, 77.500 71 C 81.433 71, 82.178 71.339, 83 73.500 C 83.523 74.875, 84.637 76, 85.475 76 C 87.500 76, 87.543 76.208, 83.286 65.416 C 80.263 57.752, 79.187 56, 77.500 56 C 75.813 56, 74.737 57.752, 71.714 65.416 M 89.633 64.750 C 91.556 69.563, 93.383 74.085, 93.691 74.799 C 95.070 77.994, 97.670 75.037, 101.310 66.135 C 103.410 60.998, 104.894 56.561, 104.608 56.274 C 103.169 54.836, 101.262 57.438, 99.036 63.875 C 97.681 67.794, 96.251 71, 95.858 71 C 95.219 71, 92.411 64.243, 90.560 58.250 C 90.165 56.969, 89.062 56, 88 56 C 86.305 56, 86.453 56.795, 89.633 64.750 M 75.449 63.468 C 73.523 68.077, 73.489 68, 77.500 68 C 79.425 68, 81 67.830, 81 67.622 C 81 66.617, 77.905 60, 77.436 60 C 77.140 60, 76.246 61.561, 75.449 63.468" stroke="none" fill="#eae3e3" fill-rule="evenodd"/><path d="M 2.923 2.923 L 0 5.846 0 76 L 0 146.154 2.923 149.077 L 5.846 152 76.319 152 L 146.793 152 149.896 148.465 L 153 144.930 153 75.451 L 153 5.972 149.750 3.015 L 146.500 0.059 76.173 0.029 L 5.846 0 2.923 2.923 M 0.474 76 C 0.474 114.775, 0.598 130.638, 0.750 111.250 C 0.901 91.863, 0.901 60.138, 0.750 40.750 C 0.598 21.363, 0.474 37.225, 0.474 76 M 32.677 37.656 C 32.305 38.029, 32 50.810, 32 66.060 C 32 90.420, 32.192 93.860, 33.582 94.393 C 34.452 94.727, 38.952 95, 43.582 95 L 52 95 52 106.500 C 52 112.825, 52.380 118, 52.843 118 C 53.307 118, 58.720 112.825, 64.871 106.500 L 76.056 95 96.406 95 C 112.431 95, 116.997 94.708, 117.894 93.628 C 118.699 92.657, 118.955 84.241, 118.766 64.878 L 118.500 37.500 75.927 37.239 C 52.512 37.096, 33.050 37.284, 32.677 37.656 M 34.455 40.257 C 34.185 40.960, 34.085 52.778, 34.232 66.518 L 34.500 91.500 44.750 91.785 L 55 92.070 55 102.267 L 55 112.464 65.250 102.252 L 75.500 92.040 96 91.770 L 116.500 91.500 116.500 65.500 L 116.500 39.500 75.723 39.239 C 43.336 39.031, 34.845 39.241, 34.455 40.257 M 48 66 C 48 74.222, 48.267 76, 49.500 76 C 50.692 76, 51 74.546, 51 68.917 C 51 60.202, 51.892 60.220, 57.842 69.053 C 64.220 78.522, 65 78.197, 65 66.073 C 65 57.786, 64.734 56, 63.500 56 C 62.333 56, 62 57.333, 62 62 C 62 65.300, 61.652 68, 61.226 68 C 60.800 68, 58.485 65.300, 56.082 62 C 53.454 58.390, 50.973 56, 49.856 56 C 48.172 56, 48 56.924, 48 66 M 71.714 65.416 C 67.457 76.208, 67.500 76, 69.525 76 C 70.363 76, 71.477 74.875, 72 73.500 C 72.822 71.339, 73.567 71, 77.500 71 C 81.433 71, 82.178 71.339, 83 73.500 C 83.523 74.875, 84.637 76, 85.475 76 C 87.500 76, 87.543 76.208, 83.286 65.416 C 80.263 57.752, 79.187 56, 77.500 56 C 75.813 56, 74.737 57.752, 71.714 65.416 M 89.633 64.750 C 91.556 69.563, 93.383 74.085, 93.691 74.799 C 95.070 77.994, 97.670 75.037, 101.310 66.135 C 103.410 60.998, 104.894 56.561, 104.608 56.274 C 103.169 54.836, 101.262 57.438, 99.036 63.875 C 97.681 67.794, 96.251 71, 95.858 71 C 95.219 71, 92.411 64.243, 90.560 58.250 C 90.165 56.969, 89.062 56, 88 56 C 86.305 56, 86.453 56.795, 89.633 64.750 M 75.449 63.468 C 73.523 68.077, 73.489 68, 77.500 68 C 79.425 68, 81 67.830, 81 67.622 C 81 66.617, 77.905 60, 77.436 60 C 77.140 60, 76.246 61.561, 75.449 63.468" stroke="none" fill="#e3242c" fill-rule="evenodd"/></svg>