<svg xmlns="http://www.w3.org/2000/svg" width="26.691" height="23.045" viewBox="0 0 26.691 23.045">
  <defs>
    <style>
      .cls-1 {
        fill: #143a72;
      }
    </style>
  </defs>
  <g id="healthy-life" transform="translate(0 -34.968)">
    <g id="Group_22303" data-name="Group 22303" transform="translate(0 34.968)">
      <path id="Path_16859" data-name="Path 16859" class="cls-1" d="M24.695,36.968a6.836,6.836,0,0,0-9.656,0l-1.693,1.693-1.693-1.693a6.828,6.828,0,0,0-9.658,9.654l11.31,11.392,11.39-11.39A6.836,6.836,0,0,0,24.695,36.968ZM12.345,54.826l0-4.807h2v4.741L13.309,55.8Zm11.244-9.308L15.911,53.2V49.785l.8-.284a4.978,4.978,0,0,0,3.3-4.113l.19-1.553-1.553-.19-.19,1.553a3.423,3.423,0,0,1-2.27,2.828l-1.215.429h-3.3l-1.206-.406a3.434,3.434,0,0,1-2.336-3.022L8.04,43.684l-1.56.109.094,1.342a4.994,4.994,0,0,0,3.4,4.4l.812.274v3.447L3.1,45.518a5.264,5.264,0,0,1,7.444-7.444l2.8,2.8,2.8-2.8a5.264,5.264,0,0,1,7.444,7.444Z" transform="translate(0 -34.968)"/>
    </g>
    <g id="Group_22304" data-name="Group 22304" transform="translate(10.789 42.109)">
      <path id="Path_16860" data-name="Path 16860" class="cls-1" d="M209.511,171.952a2.557,2.557,0,1,0,2.557,2.557A2.557,2.557,0,0,0,209.511,171.952Zm0,3.558a1,1,0,1,1,1-1A1,1,0,0,1,209.511,175.51Z" transform="translate(-206.954 -171.952)"/>
    </g>
  </g>
</svg>
