<?xml version="1.0" encoding="UTF-8"?>
<svg version="1.1" xmlns="http://www.w3.org/2000/svg" width="439" height="66">
<path d="M0 0 C1.98 0 3.96 0 6 0 C8.57877584 4.02933725 8 5.51534435 8 11 C18.56 11 29.12 11 40 11 C40 12.32 40 13.64 40 15 C35.38 15 30.76 15 26 15 C26.495 15.99 26.495 15.99 27 17 C27.61488281 16.97679688 28.22976562 16.95359375 28.86328125 16.9296875 C29.67152344 16.91164063 30.47976562 16.89359375 31.3125 16.875 C32.51326172 16.84019531 32.51326172 16.84019531 33.73828125 16.8046875 C36 17 36 17 39 19 C40.66677164 24.75793839 40.08657016 31.05551574 40 37 C39.05125 36.835 38.1025 36.67 37.125 36.5 C33.96318483 36.01703434 31.00460798 36.05035758 27.8125 36.1875 C24.39113551 36.21879297 23.28696995 36.18019043 20.3125 34.3125 C19 32 19 32 19.0625 29.4375 C20.02923961 26.923977 20.94384695 25.69856122 23 24 C22.67 23.67 22.34 23.34 22 23 C21.85884839 20.32941149 21.95752893 17.67567762 22 15 C17.38 15 12.76 15 8 15 C8 22.26 8 29.52 8 37 C6.02 36.34 4.04 35.68 2 35 C1.01 35.495 1.01 35.495 0 36 C-4.07909806 36.38482057 -6.29089873 36.44121857 -9.8125 34.25 C-13.21387283 30.75144509 -13.21387283 30.75144509 -14 28 C-13.92484951 23.79157236 -13.65198603 21.72649872 -10.8125 18.5625 C-7.49359602 16.71866446 -5.74094169 16.44283847 -2 17 C0.375 18.5 0.375 18.5 2 20 C2.33 18.35 2.66 16.7 3 15 C-13.5 15 -30 15 -47 15 C-47 13.68 -47 12.36 -47 11 C-30.5 11 -14 11 3 11 C1.64003661 5.45922124 1.64003661 5.45922124 0 0 Z M-6.75 22.625 C-9.2089573 25.22056604 -10 26.43806096 -10 30 C-8.66621425 31.8354799 -8.66621425 31.8354799 -7 33 C-2.61750634 31.66090471 -0.42050749 29.91005056 2 26 C1.87436418 23.73575649 1.87436418 23.73575649 1 22 C-2.44112083 20.82018714 -3.54884861 20.73341054 -6.75 22.625 Z M25 23 C28.3 23 31.6 23 35 23 C33.18017538 20.75932778 33.18017538 20.75932778 30.5625 20.75 C27.75895635 20.82032184 27.75895635 20.82032184 25 23 Z M23.5625 29.5 C23.046875 30.325 22.53125 31.15 22 32 C22.33 32.33 22.66 32.66 23 33 C28.74970861 32.80797389 28.74970861 32.80797389 33.5 29.9375 C33.995 29.298125 34.49 28.65875 35 28 C30.62271949 25.81135974 26.95756442 26.01788265 23.5625 29.5 Z " fill="#EA2128" transform="translate(209,0)"/>
<path d="M0 0 C2.64251344 1.27117154 4.29217945 2.90910066 6.34399414 5.00488281 C7.14321289 5.81376953 7.94243164 6.62265625 8.76586914 7.45605469 C9.59086914 8.30619141 10.41586914 9.15632813 11.26586914 10.03222656 C12.52657227 11.31323242 12.52657227 11.31323242 13.81274414 12.62011719 C15.88734512 14.73008068 17.95462746 16.84672364 20.01586914 18.96972656 C18.5584149 22.3330825 16.7046906 24.51506661 14.10180664 27.07910156 C13.34125977 27.83320312 12.58071289 28.58730469 11.79711914 29.36425781 C11.00305664 30.1415625 10.20899414 30.91886719 9.39086914 31.71972656 C8.58907227 32.5125 7.78727539 33.30527344 6.96118164 34.12207031 C4.98384068 36.0758715 3.00198005 38.02484759 1.01586914 39.96972656 C-4.22621731 37.66882478 -7.78680152 33.57480449 -11.79663086 29.59472656 C-12.5977832 28.82644531 -13.39893555 28.05816406 -14.22436523 27.26660156 C-14.9765332 26.52152344 -15.72870117 25.77644531 -16.50366211 25.00878906 C-17.19564697 24.33025879 -17.88763184 23.65172852 -18.60058594 22.95263672 C-19.98413086 20.96972656 -19.98413086 20.96972656 -19.93139648 18.97631836 C-17.88404943 14.6394252 -14.02789749 11.50246191 -10.67163086 8.15722656 C-9.89883789 7.35607422 -9.12604492 6.55492187 -8.32983398 5.72949219 C-7.58024414 4.97732422 -6.8306543 4.22515625 -6.05834961 3.45019531 C-5.37345459 2.75821045 -4.68855957 2.06622559 -3.98291016 1.35327148 C-1.98413086 -0.03027344 -1.98413086 -0.03027344 0 0 Z " fill="#EB2F31" transform="translate(19.984130859375,11.0302734375)"/>
<path d="M0 0 C5.63709879 0.00671083 5.63709879 0.00671083 8.15625 1.77734375 C9.5 3.4375 9.5 3.4375 11.25 6.4375 C11.70375 5.633125 12.1575 4.82875 12.625 4 C14.25 1.4375 14.25 1.4375 16.25 0.4375 C20.50392777 -0.06344516 24.05486114 -0.30946179 27.75 2 C29.77355576 5.28827811 30.18449352 7.5726174 30.25 11.4375 C28.33858859 17.57413664 28.33858859 17.57413664 25.4375 19.875 C22.49537045 20.6315476 20.28149645 20.80870365 17.25 20.4375 C14.55009338 18.63756226 12.7081135 17.353727 11.25 14.4375 C10.63125 15.241875 10.0125 16.04625 9.375 16.875 C7.25 19.4375 7.25 19.4375 5.25 20.4375 C3.25039988 20.477492 1.24952758 20.48096799 -0.75 20.4375 C-1.08 22.4175 -1.41 24.3975 -1.75 26.4375 C-3.4 26.4375 -5.05 26.4375 -6.75 26.4375 C-6.77886751 22.29168113 -6.79675327 18.14588784 -6.8125 14 C-6.82087891 12.81599609 -6.82925781 11.63199219 -6.83789062 10.41210938 C-6.84111328 9.28740234 -6.84433594 8.16269531 -6.84765625 7.00390625 C-6.85289307 5.96177979 -6.85812988 4.91965332 -6.86352539 3.84594727 C-6.64993724 -0.68533677 -3.99266545 0.16068044 0 0 Z M-0.75 4.4375 C-1.98267348 5.44586062 -1.98267348 5.44586062 -1.84765625 7.50390625 C-1.83605469 8.32761719 -1.82445313 9.15132812 -1.8125 10 C-1.80347656 10.82628906 -1.79445313 11.65257812 -1.78515625 12.50390625 C-1.77355469 13.14199219 -1.76195313 13.78007812 -1.75 14.4375 C0.64719432 15.11708603 0.64719432 15.11708603 3.25 15.4375 C5.6221969 13.49291686 5.6221969 13.49291686 5.5625 9.9375 C5.459375 8.7825 5.35625 7.6275 5.25 6.4375 C2.43490007 4.1601499 2.43490007 4.1601499 -0.75 4.4375 Z M17.5625 6.0625 C15.81986841 9.21583336 16.3960476 11.02169039 17.25 14.4375 C19.64719432 15.11708603 19.64719432 15.11708603 22.25 15.4375 C24.54827312 13.55811828 24.54827312 13.55811828 24.5625 10.5 C24.51407041 7.46571936 24.51407041 7.46571936 22.875 5.5625 C20.43079544 3.87035838 19.70386692 4.00044297 17.5625 6.0625 Z " fill="#231F20" transform="translate(108.75,16.5625)"/>
<path d="M0 0 C1.98 0 3.96 0 6 0 C7.98 4.29 9.96 8.58 12 13 C14.31 8.71 16.62 4.42 19 0 C20.65 0 22.3 0 24 0 C24.86111516 3.02769315 25.18230893 5.84266637 25.31640625 8.984375 C25.35830078 9.91894531 25.40019531 10.85351562 25.44335938 11.81640625 C25.48267578 12.78449219 25.52199219 13.75257812 25.5625 14.75 C25.60568359 15.73355469 25.64886719 16.71710937 25.69335938 17.73046875 C25.79922052 20.15351275 25.90130171 22.5766554 26 25 C24.35 25 22.7 25 21 25 C19.17320894 21.34641788 19.36076174 17.01991656 19 13 C17.68 15.97 16.36 18.94 15 22 C13.35 22 11.7 22 10 22 C8.35 18.7 6.7 15.4 5 12 C4.67 16.29 4.34 20.58 4 25 C2.02 25 0.04 25 -2 25 C-1.34 16.75 -0.68 8.5 0 0 Z " fill="#211E1F" transform="translate(258,11)"/>
<path d="M0 0 C60.39 0 120.78 0 183 0 C183 0.66 183 1.32 183 2 C122.61 2 62.22 2 0 2 C0 1.34 0 0.68 0 0 Z " fill="#211E1F" transform="translate(256,44)"/>
<path d="M0 0 C5 0 5 0 6.9140625 1.609375 C7.47867188 2.31578125 8.04328125 3.0221875 8.625 3.75 C9.19476563 4.44609375 9.76453125 5.1421875 10.3515625 5.859375 C11.91789597 7.89338149 13.45967216 9.94622954 15 12 C15.33 8.04 15.66 4.08 16 0 C17.65 0 19.3 0 21 0 C21 8.25 21 16.5 21 25 C19.35 25 17.7 25 16 25 C13.796875 22.41015625 13.796875 22.41015625 11.75 19.0625 C11.06421875 17.96035156 10.3784375 16.85820312 9.671875 15.72265625 C9.12015625 14.82417969 8.5684375 13.92570312 8 13 C7.67 12.67 7.34 12.34 7 12 C6.67 16.29 6.34 20.58 6 25 C4.02 25 2.04 25 0 25 C0 16.75 0 8.5 0 0 Z " fill="#231F20" transform="translate(52,11)"/>
<path d="M0 0 C1.05832031 -0.03738281 2.11664063 -0.07476563 3.20703125 -0.11328125 C6.85388167 0.40769738 7.9290633 1.47497696 10.1875 4.3125 C11.7945124 7.52652479 11.65496516 10.82654554 11.1875 14.3125 C9.625 17.25 9.625 17.25 7.1875 19.3125 C3.4375 20.125 3.4375 20.125 0.1875 20.3125 C-0.1425 22.2925 -0.4725 24.2725 -0.8125 26.3125 C-2.7925 26.3125 -4.7725 26.3125 -6.8125 26.3125 C-6.84136751 22.16668113 -6.85925327 18.02088784 -6.875 13.875 C-6.88337891 12.69099609 -6.89175781 11.50699219 -6.90039062 10.28710938 C-6.90361328 9.16240234 -6.90683594 8.03769531 -6.91015625 6.87890625 C-6.91539307 5.83677979 -6.92062988 4.79465332 -6.92602539 3.72094727 C-6.71014376 -0.85899313 -4.00719657 0.09206377 0 0 Z M-0.8125 4.3125 C-0.8125 7.9425 -0.8125 11.5725 -0.8125 15.3125 C0.8375 15.3125 2.4875 15.3125 4.1875 15.3125 C5.91785844 11.26254208 5.91785844 11.26254208 5.625 7 C3.9986962 4.738025 3.9986962 4.738025 -0.8125 4.3125 Z " fill="#231F20" transform="translate(89.8125,16.6875)"/>
<path d="M0 0 C0 9.24 0 18.48 0 28 C-3.71014101 29.23671367 -7.14438758 29.56368603 -11 29 C-13.8100346 27.20636089 -15.50940468 25.98119065 -17 23 C-17.53551128 18.5315534 -17.49681884 15.01433847 -15.5 10.9375 C-11.87496462 8.12809758 -9.50563575 8.62453035 -5 9 C-5 6.36 -5 3.72 -5 1 C-3 0 -3 0 0 0 Z M-9 13 C-10.66846734 14.69495956 -10.66846734 14.69495956 -12 17 C-11.75925978 20.37036311 -11.41201979 21.58798021 -9 24 C-7.68 24 -6.36 24 -5 24 C-5 20.7 -5 17.4 -5 14 C-6.32 13.67 -7.64 13.34 -9 13 Z " fill="#211E1F" transform="translate(439,8)"/>
<path d="M0 0 C2.70182292 1.07421875 5.40364583 2.1484375 8.10546875 3.22265625 C11.27157252 4.07293243 12.90584525 3.99324968 16 3 C16.99 2.34 17.98 1.68 19 1 C19 6.94 19 12.88 19 19 C16.52604167 18.25130208 14.05208333 17.50260417 11.578125 16.75390625 C10.72734375 16.50511719 9.8765625 16.25632812 9 16 C8.00226562 15.58041016 8.00226562 15.58041016 6.984375 15.15234375 C4.19495977 14.71109781 4.19495977 14.71109781 0 19 C0 12.73 0 6.46 0 0 Z " fill="#FEFBFA" transform="translate(10,21)"/>
<path d="M0 0 C1.77007714 -0.08114106 3.54122098 -0.13925505 5.3125 -0.1875 C6.29863281 -0.22230469 7.28476562 -0.25710937 8.30078125 -0.29296875 C11 0 11 0 12.84375 1 C14.70292773 4.21587499 14.31017485 7.58589215 14.1875 11.1875 C14.16719727 12.31188477 14.16719727 12.31188477 14.14648438 13.45898438 C14.11118539 15.30629767 14.05737917 17.15324066 14 19 C9.52172215 20.49275928 5.12731132 20.490918 0.5625 19.4375 C-1 18 -1 18 -1.875 14.5625 C-2 11 -2 11 0 8 C2.62356462 7.01484622 5.24524123 6.57761071 8 6 C5.23735711 5.40267181 2.83967231 5 0 5 C0 3.35 0 1.7 0 0 Z M5 11 C4.67 12.32 4.34 13.64 4 15 C5.65 15 7.3 15 9 15 C9 13.68 9 12.36 9 11 C7.68 11 6.36 11 5 11 Z " fill="#211E1F" transform="translate(336,17)"/>
<path d="M0 0 C3.57840133 2.51249455 4.75915486 4.18714765 6 8.375 C6 12.87695472 5.19053669 15.08832734 3 19 C2.01 19.33 1.02 19.66 0 20 C-1.32 18.68 -2.64 17.36 -4 16 C-3.34 15.319375 -2.68 14.63875 -2 13.9375 C0.43885872 10.35542625 0.33292585 8.24480464 0 4 C-2.83073436 3.49830585 -2.83073436 3.49830585 -6 4 C-10.55010621 8.67308205 -10.75467211 13.79320439 -11 20 C-13.475 19.01 -13.475 19.01 -16 18 C-16 12.39 -16 6.78 -16 1 C-14.02 1 -12.04 1 -10 1 C-6.77121481 -0.6143926 -3.49096318 -0.5818272 0 0 Z " fill="#EA2128" transform="translate(188,17)"/>
<path d="M0 0 C5.28 0 10.56 0 16 0 C16 1.65 16 3.3 16 5 C12.37 5 8.74 5 5 5 C5 6.65 5 8.3 5 10 C8.3 10 11.6 10 15 10 C15 11.65 15 13.3 15 15 C11.7 15 8.4 15 5 15 C5 18.3 5 21.6 5 25 C3.35 25 1.7 25 0 25 C0 16.75 0 8.5 0 0 Z " fill="#211E1F" transform="translate(370,11)"/>
<path d="M0 0 C1.60488281 -0.02126953 1.60488281 -0.02126953 3.2421875 -0.04296875 C6.125 0.1875 6.125 0.1875 9.125 2.1875 C10.31181726 5.74795177 10.22189832 8.62558337 10.1875 12.375 C10.17847656 13.64730469 10.16945313 14.91960938 10.16015625 16.23046875 C10.14855469 17.20628906 10.13695312 18.18210937 10.125 19.1875 C8.475 19.1875 6.825 19.1875 5.125 19.1875 C4.795 14.5675 4.465 9.9475 4.125 5.1875 C2.475 4.8575 0.825 4.5275 -0.875 4.1875 C-0.875 9.1375 -0.875 14.0875 -0.875 19.1875 C-2.855 19.1875 -4.835 19.1875 -6.875 19.1875 C-6.90183987 16.20827407 -6.92176037 13.22928705 -6.9375 10.25 C-6.94587891 9.39986328 -6.95425781 8.54972656 -6.96289062 7.67382812 C-6.96611328 6.86494141 -6.96933594 6.05605469 -6.97265625 5.22265625 C-6.97789307 4.4737915 -6.98312988 3.72492676 -6.98852539 2.95336914 C-6.72988831 -1.06968893 -3.27297903 0.01962218 0 0 Z " fill="#211E1F" transform="translate(410.875,16.8125)"/>
<path d="M0 0 C1.65 0 3.3 0 5 0 C5.33 4.29 5.66 8.58 6 13 C8.475 13.99 8.475 13.99 11 15 C11 10.05 11 5.1 11 0 C12.65 0 14.3 0 16 0 C16 6.27 16 12.54 16 19 C12.35001694 20.21666102 8.78201543 20.75501773 5 20 C2.26171875 18.49609375 2.26171875 18.49609375 0 16 C-0.37233017 13.03327323 -0.4808246 10.68143759 -0.3125 7.75 C-0.28994141 7.00492188 -0.26738281 6.25984375 -0.24414062 5.4921875 C-0.18543561 3.660591 -0.09575757 1.83003347 0 0 Z " fill="#211E1F" transform="translate(386,17)"/>
<path d="M0 0 C1.65 0 3.3 0 5 0 C5.33 4.29 5.66 8.58 6 13 C8.475 13.99 8.475 13.99 11 15 C11 10.05 11 5.1 11 0 C12.65 0 14.3 0 16 0 C16 6.27 16 12.54 16 19 C12.35001694 20.21666102 8.78201543 20.75501773 5 20 C2.26171875 18.49609375 2.26171875 18.49609375 0 16 C-0.37233017 13.03327323 -0.4808246 10.68143759 -0.3125 7.75 C-0.28994141 7.00492188 -0.26738281 6.25984375 -0.24414062 5.4921875 C-0.18543561 3.660591 -0.09575757 1.83003347 0 0 Z " fill="#211E1F" transform="translate(317,17)"/>
<path d="M0 0 C1.65 0 3.3 0 5 0 C5.33 4.95 5.66 9.9 6 15 C7.65 15 9.3 15 11 15 C11 10.05 11 5.1 11 0 C12.65 0 14.3 0 16 0 C16 6.27 16 12.54 16 19 C11.36866085 20.15783479 7.1926597 20.80782199 2.625 19.125 C1 18 1 18 0 16 C-0.07181821 13.28239892 -0.09299506 10.59140612 -0.0625 7.875 C-0.05798828 7.12089844 -0.05347656 6.36679687 -0.04882812 5.58984375 C-0.03703499 3.72652873 -0.01909942 1.86325445 0 0 Z " fill="#211E1F" transform="translate(286,17)"/>
<path d="M0 0 C12.38917774 -0.4906605 12.38917774 -0.4906605 14.90625 1.53125 C16.41534707 4.93749768 16.32194028 8.10287655 16.1875 11.75 C16.16719727 12.79607422 16.16719727 12.79607422 16.14648438 13.86328125 C16.1112945 15.57585541 16.05749155 17.28802941 16 19 C14.35 19 12.7 19 11 19 C10.67 14.71 10.34 10.42 10 6 C8.68 5.67 7.36 5.34 6 5 C5.67 9.62 5.34 14.24 5 19 C3.35 19 1.7 19 0 19 C0 12.73 0 6.46 0 0 Z " fill="#231F20" transform="translate(140,17)"/>
<path d="M0 0 C0 1.98 0 3.96 0 6 C2.31 6 4.62 6 7 6 C7 7.65 7 9.3 7 11 C4.69 11 2.38 11 0 11 C0.33 14.3 0.66 17.6 1 21 C2.98 20.67 4.96 20.34 7 20 C7.33 21.65 7.66 23.3 8 25 C4.98131566 26.50934217 2.32702771 26.17510672 -1 26 C-4 24 -4 24 -5 21 C-5.08106686 19.44578271 -5.10756898 17.88832973 -5.09765625 16.33203125 C-5.09443359 15.43935547 -5.09121094 14.54667969 -5.08789062 13.62695312 C-5.07951172 12.69818359 -5.07113281 11.76941406 -5.0625 10.8125 C-5.05798828 9.87212891 -5.05347656 8.93175781 -5.04882812 7.96289062 C-5.03704626 5.64186288 -5.02059558 3.32096356 -5 1 C-1.125 0 -1.125 0 0 0 Z " fill="#211E1F" transform="translate(309,11)"/>
<path d="M0 0 C0.33 7.92 0.66 15.84 1 24 C1.66 24 2.32 24 3 24 C3 25.65 3 27.3 3 29 C0.125 28.6875 0.125 28.6875 -3 28 C-5.26598448 24.60102327 -5.23742654 23.43680827 -5.1953125 19.45703125 C-5.18886719 18.38388672 -5.18242187 17.31074219 -5.17578125 16.20507812 C-5.15064453 14.52575195 -5.15064453 14.52575195 -5.125 12.8125 C-5.11597656 11.68134766 -5.10695313 10.55019531 -5.09765625 9.38476562 C-5.07406862 6.58963172 -5.041153 3.79492155 -5 1 C-3 0 -3 0 0 0 Z " fill="#211E1F" transform="translate(357,8)"/>
<path d="M0 0 C7 6 7 6 10 9 C8.59698853 12.18673962 6.92234929 14.32221406 4.4375 16.75 C3.50744141 17.67039062 3.50744141 17.67039062 2.55859375 18.609375 C1 20 1 20 0 20 C0 13.4 0 6.8 0 0 Z " fill="#EA2128" transform="translate(30,21)"/>
<path d="M0 0 C0 6.27 0 12.54 0 19 C-7 13 -7 13 -9 11 C-8.70317318 7.40839547 -7.03298203 5.67917129 -4.5 3.25 C-3.8709375 2.63640625 -3.241875 2.0228125 -2.59375 1.390625 C-1 0 -1 0 0 0 Z " fill="#EA2128" transform="translate(9,21)"/>
<path d="M0 0 C1.65 0 3.3 0 5 0 C5 6.6 5 13.2 5 20 C2.525 19.01 2.525 19.01 0 18 C0 12.06 0 6.12 0 0 Z " fill="#EA2128" transform="translate(221,17)"/>
<path d="M0 0 C1.65 0 3.3 0 5 0 C5 6.27 5 12.54 5 19 C3.35 19 1.7 19 0 19 C0 12.73 0 6.46 0 0 Z " fill="#231F20" transform="translate(76,17)"/>
<path d="M0 0 C0.66 0 1.32 0 2 0 C2.33 2.31 2.66 4.62 3 7 C3.66 7 4.32 7 5 7 C5.33 5.02 5.66 3.04 6 1 C6.99 1.33 7.98 1.66 9 2 C9.33 3.65 9.66 5.3 10 7 C10.66 7 11.32 7 12 7 C12.33 4.69 12.66 2.38 13 0 C13.66 0 14.32 0 15 0 C14.34 3.96 13.68 7.92 13 12 C9 11 9 11 7 8 C6.34 9.32 5.68 10.64 5 12 C4.01 12 3.02 12 2 12 C0.86235649 7.73383684 0 4.43513689 0 0 Z " fill="#231F20" transform="translate(285,51)"/>
<path d="M0 0 C0.66 0 1.32 0 2 0 C2 0.99 2 1.98 2 3 C2.99 3 3.98 3 5 3 C5 3.66 5 4.32 5 5 C4.01 5 3.02 5 2 5 C2.33 6.65 2.66 8.3 3 10 C4.98 10 6.96 10 9 10 C8.484375 9.5875 7.96875 9.175 7.4375 8.75 C6.963125 8.1725 6.48875 7.595 6 7 C6.3125 4.8125 6.3125 4.8125 7 3 C8.65 3 10.3 3 12 3 C12 3.66 12 4.32 12 5 C11.01 5.495 11.01 5.495 10 6 C10.99 6.99 11.98 7.98 13 9 C12.67 9.99 12.34 10.98 12 12 C7.41466617 12.80917656 4.66958927 12.93391785 0 12 C0 8.04 0 4.08 0 0 Z " fill="#231F20" transform="translate(360,51)"/>
<path d="M0 0 C1.32 0 2.64 0 4 0 C4 6.6 4 13.2 4 20 C2.68 19.34 1.36 18.68 0 18 C0 12.06 0 6.12 0 0 Z " fill="#EA2128" transform="translate(165,17)"/>
<path d="M0 0 C1.4540625 0.0309375 1.4540625 0.0309375 2.9375 0.0625 C4.33181504 2.85113007 4.19410094 4.98328868 3.9375 8.0625 C0.9375 10.0625 0.9375 10.0625 -1.125 9.875 C-3.0625 9.0625 -3.0625 9.0625 -5.0625 6.0625 C-4.35134559 0.08880297 -4.35134559 0.08880297 0 0 Z M-2.0625 2.0625 C-2.0625 3.7125 -2.0625 5.3625 -2.0625 7.0625 C-1.0725 7.0625 -0.0825 7.0625 0.9375 7.0625 C1.2675 5.7425 1.5975 4.4225 1.9375 3.0625 C0.6175 2.7325 -0.7025 2.4025 -2.0625 2.0625 Z " fill="#231F20" transform="translate(390.0625,53.9375)"/>
<path d="M0 0 C1.98 0 3.96 0 6 0 C6.33 1.65 6.66 3.3 7 5 C5.35 5.33 3.7 5.66 2 6 C3.32 6.33 4.64 6.66 6 7 C5.67 7.99 5.34 8.98 5 10 C0.125 9.125 0.125 9.125 -1 8 C-1.23529412 2.47058824 -1.23529412 2.47058824 0 0 Z M2 2 C1.67 2.66 1.34 3.32 1 4 C2.32 3.67 3.64 3.34 5 3 C4.01 2.67 3.02 2.34 2 2 Z " fill="#231F20" transform="translate(432,54)"/>
<path d="M0 0 C2.5625 0.1875 2.5625 0.1875 4.5625 2.1875 C4.5625 3.1775 4.5625 4.1675 4.5625 5.1875 C2.5825 5.1875 0.6025 5.1875 -1.4375 5.1875 C-1.4375 5.8475 -1.4375 6.5075 -1.4375 7.1875 C0.2125 7.1875 1.8625 7.1875 3.5625 7.1875 C3.2325 8.1775 2.9025 9.1675 2.5625 10.1875 C-2.3125 9.3125 -2.3125 9.3125 -3.4375 8.1875 C-3.5625 4.6875 -3.5625 4.6875 -3.4375 1.1875 C-2.4375 0.1875 -2.4375 0.1875 0 0 Z M-0.4375 2.1875 C-0.7675 2.8475 -1.0975 3.5075 -1.4375 4.1875 C-0.4475 4.1875 0.5425 4.1875 1.5625 4.1875 C1.5625 3.5275 1.5625 2.8675 1.5625 2.1875 C0.9025 2.1875 0.2425 2.1875 -0.4375 2.1875 Z " fill="#231F20" transform="translate(425.4375,53.8125)"/>
<path d="M0 0 C1.2065625 0.0309375 1.2065625 0.0309375 2.4375 0.0625 C2.7675 1.7125 3.0975 3.3625 3.4375 5.0625 C1.7875 5.0625 0.1375 5.0625 -1.5625 5.0625 C-1.2325 5.7225 -0.9025 6.3825 -0.5625 7.0625 C0.7575 7.0625 2.0775 7.0625 3.4375 7.0625 C3.4375 7.7225 3.4375 8.3825 3.4375 9.0625 C1.125 9.75 1.125 9.75 -1.5625 10.0625 C-3.4375 9 -3.4375 9 -4.5625 7.0625 C-4.00531525 0.09769062 -4.00531525 0.09769062 0 0 Z M-1.5625 2.0625 C-1.5625 2.7225 -1.5625 3.3825 -1.5625 4.0625 C-0.5725 4.0625 0.4175 4.0625 1.4375 4.0625 C1.4375 3.4025 1.4375 2.7425 1.4375 2.0625 C0.4475 2.0625 -0.5425 2.0625 -1.5625 2.0625 Z " fill="#231F20" transform="translate(354.5625,53.9375)"/>
<path d="M0 0 C1.66611905 -0.042721 3.33382885 -0.04063832 5 0 C6 1 6 1 6.09765625 2.84765625 C6.06510417 4.8984375 6.03255208 6.94921875 6 9 C1.25 10.125 1.25 10.125 -1 9 C-1 7.35 -1 5.7 -1 4 C-0.34 3.67 0.32 3.34 1 3 C0.67 2.01 0.34 1.02 0 0 Z M2 5 C2 5.99 2 6.98 2 8 C2.66 8 3.32 8 4 8 C4 7.01 4 6.02 4 5 C3.34 5 2.68 5 2 5 Z " fill="#231F20" transform="translate(311,54)"/>
<path d="M0 0 C0.66 0 1.32 0 2 0 C2.33 1.65 2.66 3.3 3 5 C3.66 5 4.32 5 5 5 C5.33 3.35 5.66 1.7 6 0 C6.66 0 7.32 0 8 0 C7.71640113 1.4391134 7.42278601 2.87625518 7.125 4.3125 C6.96257812 5.11300781 6.80015625 5.91351563 6.6328125 6.73828125 C6 9 6 9 4 12 C2.68 12 1.36 12 0 12 C0.66666667 10.66666667 1.33333333 9.33333333 2 8 C1.35561283 6.32459336 0.68753301 4.65816784 0 3 C0 2.01 0 1.02 0 0 Z " fill="#231F20" transform="translate(377,54)"/>
<path d="M0 0 C1.65 0 3.3 0 5 0 C5.66 1.65 6.32 3.3 7 5 C5.02 5 3.04 5 1 5 C1 5.66 1 6.32 1 7 C2.65 7 4.3 7 6 7 C5.67 7.99 5.34 8.98 5 10 C2.625 9.8125 2.625 9.8125 0 9 C-1.4375 6.6875 -1.4375 6.6875 -2 4 C-1.125 1.6875 -1.125 1.6875 0 0 Z M1 2 C1 2.66 1 3.32 1 4 C1.99 4 2.98 4 4 4 C4 3.34 4 2.68 4 2 C3.01 2 2.02 2 1 2 Z " fill="#231F20" transform="translate(302,54)"/>
<path d="M0 0 C0.66 0 1.32 0 2 0 C2 1.32 2 2.64 2 4 C3.65 4.33 5.3 4.66 7 5 C7 7.64 7 10.28 7 13 C6.34 13 5.68 13 5 13 C5 10.69 5 8.38 5 6 C4.01 6 3.02 6 2 6 C2 8.31 2 10.62 2 13 C1.34 13 0.68 13 0 13 C0 8.71 0 4.42 0 0 Z " fill="#231F20" transform="translate(330,50)"/>
<path d="M0 0 C2.31 0.33 4.62 0.66 7 1 C8.49821059 4.37097383 9 6.20442119 9 10 C5.75161077 8.91720359 4.95717417 8.10963155 2.8125 5.5625 C2.01779297 4.63630859 2.01779297 4.63630859 1.20703125 3.69140625 C0 2 0 2 0 0 Z " fill="#EA2128" transform="translate(218,0)"/>
<path d="M0 0 C2.31 0.33 4.62 0.66 7 1 C8.49821059 4.37097383 9 6.20442119 9 10 C7 10 7 10 4.5 7.8125 C2.1604997 5.18056216 1.04197142 3.3153636 0 0 Z " fill="#EA2128" transform="translate(161,0)"/>
<path d="M0 0 C0.66 0 1.32 0 2 0 C2.185625 1.7015625 2.185625 1.7015625 2.375 3.4375 C2.684375 5.2009375 2.684375 5.2009375 3 7 C3.66 7.33 4.32 7.66 5 8 C5 5.36 5 2.72 5 0 C5.66 0 6.32 0 7 0 C7 2.97 7 5.94 7 9 C2.25 10.125 2.25 10.125 0 9 C0 6.03 0 3.06 0 0 Z " fill="#231F20" transform="translate(396,54)"/>
<path d="M0 0 C1.65 0 3.3 0 5 0 C5 0.66 5 1.32 5 2 C4.01 2.33 3.02 2.66 2 3 C2.99 3.33 3.98 3.66 5 4 C5 5.65 5 7.3 5 9 C3.35 9.33 1.7 9.66 0 10 C-0.33 9.01 -0.66 8.02 -1 7 C-0.01 7 0.98 7 2 7 C1.01 6.34 0.02 5.68 -1 5 C-0.67 3.35 -0.34 1.7 0 0 Z " fill="#231F20" transform="translate(344,54)"/>
<path d="M0 0 C0.66 0 1.32 0 2 0 C2 0.99 2 1.98 2 3 C3.32 3 4.64 3 6 3 C6 3.66 6 4.32 6 5 C4.68 5 3.36 5 2 5 C2.33 6.65 2.66 8.3 3 10 C3.99 10 4.98 10 6 10 C5.67 10.99 5.34 11.98 5 13 C1.125 12.125 1.125 12.125 0 11 C-0.07226502 9.14712498 -0.0838122 7.29166122 -0.0625 5.4375 C-0.05347656 4.42558594 -0.04445313 3.41367187 -0.03515625 2.37109375 C-0.02355469 1.58863281 -0.01195312 0.80617187 0 0 Z " fill="#231F20" transform="translate(323,51)"/>
<path d="M0 0 C1.65 0 3.3 0 5 0 C5 0.66 5 1.32 5 2 C4.01 2.33 3.02 2.66 2 3 C2.99 3.33 3.98 3.66 5 4 C5 4.66 5 5.32 5 6 C3.68 6 2.36 6 1 6 C1 8.31 1 10.62 1 13 C0.34 13 -0.32 13 -1 13 C-1.02696365 11.20841511 -1.04637917 9.41671527 -1.0625 7.625 C-1.07410156 6.62726562 -1.08570313 5.62953125 -1.09765625 4.6015625 C-1 2 -1 2 0 0 Z " fill="#231F20" transform="translate(410,50)"/>
<path d="M0 0 C1.65 0 3.3 0 5 0 C6.125 3.75 6.125 3.75 5 6 C3.35 6 1.7 6 0 6 C-1.125 2.25 -1.125 2.25 0 0 Z " fill="#231F20" transform="translate(76,9)"/>
<path d="M0 0 C0.66 0 1.32 0 2 0 C2.33 4.62 2.66 9.24 3 14 C2.01 13.67 1.02 13.34 0 13 C0 8.71 0 4.42 0 0 Z " fill="#231F20" transform="translate(319,50)"/>
<path d="M0 0 C1.65 0 3.3 0 5 0 C5 0.66 5 1.32 5 2 C4.01 2 3.02 2 2 2 C2 4.31 2 6.62 2 9 C1.34 9 0.68 9 0 9 C0 6.03 0 3.06 0 0 Z " fill="#231F20" transform="translate(416,54)"/>
</svg>
