<svg width="32" height="30" viewBox="0 0 32 30" fill="none" xmlns="http://www.w3.org/2000/svg">
<path d="M26.7579 13.7422H7.93651L5.72659 10.0077C5.53868 9.68993 5.27148 9.42644 4.95114 9.24299C4.6308 9.05954 4.26831 8.96243 3.89917 8.96117H1.65741C1.57663 8.96215 1.49712 8.98135 1.42479 9.01732C1.35246 9.05329 1.28917 9.10512 1.23965 9.16894C1.19012 9.23276 1.15564 9.30693 1.13875 9.38593C1.12187 9.46493 1.12302 9.54672 1.14213 9.62521L2.51799 15.1075C2.83394 16.388 3.57059 17.5253 4.6099 18.3373C5.64921 19.1493 6.93101 19.5889 8.24991 19.5857H12.3722L8.9299 28.4253C8.89973 28.5057 8.88936 28.5921 8.89967 28.6774C8.90998 28.7626 8.94066 28.8441 8.98913 28.9149C9.03759 28.9858 9.1024 29.044 9.17809 29.0845C9.25378 29.125 9.33811 29.1467 9.42396 29.1477L11.0548 29.1478C11.5384 29.1495 12.0159 29.0402 12.4506 28.8284C12.8853 28.6165 13.2656 28.3078 13.5622 27.9259L20.1069 19.5857H29.1484C29.6061 19.585 30.0448 19.4029 30.3685 19.0793C30.6921 18.7557 30.8742 18.3169 30.8749 17.8592C30.873 16.7679 30.4387 15.7218 29.667 14.9501C28.8953 14.1784 27.8492 13.744 26.7579 13.7422ZM19.2676 18.9322L12.7282 27.2725C12.1257 28.0958 11.1363 28.1274 10.2048 28.0853L13.6312 19.2616L13.9712 18.3904H19.6926C19.607 18.5041 19.3583 18.8135 19.2676 18.9322ZM29.6105 18.332C29.5499 18.3928 29.4779 18.441 29.3985 18.4738C29.3192 18.5066 29.2342 18.5234 29.1483 18.5232H20.9409L21.2012 18.1885C21.2609 18.1094 21.2976 18.0153 21.3071 17.9167C21.3166 17.818 21.2987 17.7187 21.2552 17.6296C21.2118 17.5405 21.1445 17.4652 21.0609 17.4119C20.9773 17.3587 20.8806 17.3296 20.7815 17.328H13.61C13.5031 17.3289 13.399 17.3618 13.311 17.4224C13.223 17.483 13.155 17.5685 13.116 17.6679L12.7813 18.5232H8.24991C7.16854 18.5257 6.11761 18.1653 5.26528 17.4998C4.41294 16.8343 3.80847 15.9021 3.54858 14.8525L2.33739 10.0236H3.89917C4.08331 10.0249 4.26405 10.0734 4.42405 10.1646C4.58405 10.2557 4.71795 10.3864 4.81292 10.5442L7.17688 14.5444C7.22349 14.624 7.29025 14.69 7.37045 14.7357C7.45064 14.7814 7.54145 14.8052 7.63375 14.8047H26.7579C27.5677 14.8057 28.344 15.1278 28.9166 15.7005C29.4892 16.2731 29.8114 17.0494 29.8124 17.8592C29.8131 17.9477 29.7955 18.0353 29.7608 18.1167C29.7261 18.198 29.6749 18.2713 29.6105 18.332Z" fill="#6F7584" stroke="#6F7584" stroke-width="0.8"/>
<path d="M16.0005 12.1591C17.7298 11.5252 19.1872 10.3135 20.1261 8.72898C21.065 7.14442 21.4279 5.28423 21.1534 3.46296C21.1162 3.20796 21.0737 2.82019 20.7656 2.71926L16.1971 0.891842C16.1349 0.865537 16.068 0.851982 16.0005 0.851982C15.933 0.851982 15.8661 0.865537 15.8039 0.891842L11.2354 2.71926C10.9379 2.83614 10.8848 3.18676 10.8476 3.46296C10.5731 5.28424 10.936 7.14443 11.8749 8.72898C12.8138 10.3135 14.2712 11.5252 16.0005 12.1591ZM11.8994 3.59577L16.0005 1.95429L20.1016 3.59577C20.3323 5.11542 20.0556 6.66876 19.3142 8.01521C18.5728 9.36165 17.4081 10.4261 16.0005 11.0436C14.5929 10.4261 13.4282 9.36166 12.6868 8.01521C11.9454 6.66877 11.6687 5.11542 11.8994 3.59577Z" fill="#6F7584" stroke="#6F7584" stroke-width="0.8"/>
</svg>
