<svg xmlns="http://www.w3.org/2000/svg" width="32" height="29" viewBox="0 0 32 29" fill="none">
<path d="M2.58469 16.1025C2.77986 16.231 3.00592 16.3052 3.23946 16.3173C3.47299 16.3293 3.70551 16.2789 3.91294 16.1711C4.69512 15.7657 5.83243 15.5357 7.03148 15.5357C8.85806 15.5357 10.2041 16.0542 10.7279 16.5682C11.0057 16.8447 11.3819 17 11.7742 17C12.1665 17 12.5428 16.8447 12.8205 16.5682C13.3443 16.0542 14.6904 15.5357 16.5169 15.5357C18.3435 15.5357 19.6896 16.0542 20.2134 16.5682C20.4911 16.8447 20.8674 17 21.2597 17C21.652 17 22.0282 16.8447 22.306 16.5682C22.8298 16.0542 24.1758 15.5357 26.0024 15.5357C27.2027 15.5357 28.3394 15.7683 29.1209 16.1711C29.3275 16.2784 29.5591 16.3288 29.7917 16.317C30.0244 16.3052 30.2496 16.2316 30.4442 16.1038C30.6388 15.9761 30.7957 15.7988 30.8988 15.5902C31.0018 15.3817 31.0472 15.1495 31.0303 14.9176C30.766 11.4045 29.2321 8.10698 26.714 5.63872C24.1959 3.17046 20.8652 1.69964 17.3418 1.50002V0.82593C17.3418 0.60688 17.2546 0.396801 17.0994 0.241909C16.9443 0.0870174 16.7338 0 16.5144 0C16.295 0 16.0845 0.0870174 15.9294 0.241909C15.7742 0.396801 15.687 0.60688 15.687 0.82593V1.50002C12.1644 1.70085 8.83485 3.17229 6.31778 5.64056C3.80072 8.10884 2.26759 11.4059 2.00363 14.9182C1.98634 15.1493 2.03107 15.3809 2.1332 15.589C2.23533 15.7972 2.39117 15.9744 2.58469 16.1025ZM16.5144 13.8788C14.9717 13.8788 13.5352 14.206 12.5157 14.7645C12.4355 11.6952 13.1056 8.83364 14.5134 6.24149C15.0665 5.21605 15.7381 4.25886 16.5144 3.38949C17.2909 4.25984 17.9625 5.21811 18.5154 6.24467C19.9232 8.83618 20.5933 11.6977 20.5131 14.7676C19.4936 14.2085 18.0571 13.8813 16.5144 13.8813V13.8788ZM29.3208 14.4506C28.3776 14.0802 27.2205 13.8788 25.9992 13.8788C24.5354 13.8788 23.1741 14.1723 22.1672 14.6774C22.2423 10.5503 21.0331 7.3889 19.9314 5.38633C19.5316 4.6557 19.0792 3.955 18.5777 3.28974C21.3382 3.73705 23.8783 5.06739 25.8159 7.08051C27.7534 9.09362 28.9834 11.6806 29.3208 14.4519V14.4506ZM7.7182 6.58647C9.58443 4.84464 11.9286 3.69793 14.4511 3.29292C13.9496 3.95817 13.4972 4.65887 13.0974 5.38951C11.9957 7.3889 10.7865 10.5503 10.8616 14.68C9.85535 14.1717 8.49019 13.8813 7.02957 13.8813C5.80634 13.8813 4.6512 14.0815 3.708 14.4531C4.07058 11.44 5.49147 8.65266 7.7182 6.58647Z" fill="#143a72"/>
<path d="M1.755 28V22.852L0.54 23.599V22.249L1.755 21.52H3.006V28H1.755ZM9.61967 28.135C8.97167 28.135 8.41217 27.994 7.94117 27.712C7.47317 27.43 7.11167 27.0355 6.85667 26.5285C6.60467 26.0215 6.47867 25.432 6.47867 24.76C6.47867 24.088 6.60467 23.4985 6.85667 22.9915C7.11167 22.4845 7.47317 22.09 7.94117 21.808C8.41217 21.526 8.97167 21.385 9.61967 21.385C10.3637 21.385 10.9877 21.5695 11.4917 21.9385C11.9987 22.3075 12.3557 22.807 12.5627 23.437L11.3297 23.779C11.2097 23.386 11.0072 23.0815 10.7222 22.8655C10.4372 22.6465 10.0697 22.537 9.61967 22.537C9.20867 22.537 8.86517 22.6285 8.58917 22.8115C8.31617 22.9945 8.11067 23.2525 7.97267 23.5855C7.83467 23.9185 7.76567 24.31 7.76567 24.76C7.76567 25.21 7.83467 25.6015 7.97267 25.9345C8.11067 26.2675 8.31617 26.5255 8.58917 26.7085C8.86517 26.8915 9.20867 26.983 9.61967 26.983C10.0697 26.983 10.4372 26.8735 10.7222 26.6545C11.0072 26.4355 11.2097 26.131 11.3297 25.741L12.5627 26.083C12.3557 26.713 11.9987 27.2125 11.4917 27.5815C10.9877 27.9505 10.3637 28.135 9.61967 28.135ZM13.7135 28V23.14H14.7935V24.328L14.6765 24.175C14.7395 24.007 14.8235 23.854 14.9285 23.716C15.0335 23.578 15.1625 23.464 15.3155 23.374C15.4325 23.302 15.56 23.2465 15.698 23.2075C15.836 23.1655 15.9785 23.14 16.1255 23.131C16.2725 23.119 16.4195 23.122 16.5665 23.14V24.283C16.4315 24.241 16.274 24.2275 16.094 24.2425C15.917 24.2545 15.7565 24.295 15.6125 24.364C15.4685 24.43 15.347 24.5185 15.248 24.6295C15.149 24.7375 15.074 24.8665 15.023 25.0165C14.972 25.1635 14.9465 25.33 14.9465 25.516V28H13.7135ZM19.6816 28.135C19.1926 28.135 18.7636 28.0255 18.3946 27.8065C18.0256 27.5875 17.7376 27.286 17.5306 26.902C17.3266 26.515 17.2246 26.071 17.2246 25.57C17.2246 25.063 17.3296 24.6175 17.5396 24.2335C17.7496 23.8465 18.0391 23.545 18.4081 23.329C18.7771 23.113 19.2016 23.005 19.6816 23.005C20.1706 23.005 20.5996 23.1145 20.9686 23.3335C21.3406 23.5525 21.6301 23.8555 21.8371 24.2425C22.0441 24.6265 22.1476 25.069 22.1476 25.57C22.1476 26.074 22.0426 26.5195 21.8326 26.9065C21.6256 27.2905 21.3361 27.592 20.9641 27.811C20.5951 28.027 20.1676 28.135 19.6816 28.135ZM19.6816 26.992C20.0746 26.992 20.3671 26.86 20.5591 26.596C20.7541 26.329 20.8516 25.987 20.8516 25.57C20.8516 25.138 20.7526 24.793 20.5546 24.535C20.3596 24.277 20.0686 24.148 19.6816 24.148C19.4146 24.148 19.1956 24.208 19.0246 24.328C18.8536 24.448 18.7261 24.6145 18.6421 24.8275C18.5611 25.0405 18.5206 25.288 18.5206 25.57C18.5206 26.005 18.6181 26.3515 18.8131 26.6095C19.0111 26.8645 19.3006 26.992 19.6816 26.992ZM23.2972 28V23.14H24.3772V24.328L24.2602 24.175C24.3232 24.007 24.4072 23.854 24.5122 23.716C24.6172 23.578 24.7462 23.464 24.8992 23.374C25.0162 23.302 25.1437 23.2465 25.2817 23.2075C25.4197 23.1655 25.5622 23.14 25.7092 23.131C25.8562 23.119 26.0032 23.122 26.1502 23.14V24.283C26.0152 24.241 25.8577 24.2275 25.6777 24.2425C25.5007 24.2545 25.3402 24.295 25.1962 24.364C25.0522 24.43 24.9307 24.5185 24.8317 24.6295C24.7327 24.7375 24.6577 24.8665 24.6067 25.0165C24.5557 25.1635 24.5302 25.33 24.5302 25.516V28H23.2972ZM29.3373 28.135C28.8393 28.135 28.3998 28.0285 28.0188 27.8155C27.6408 27.5995 27.3438 27.304 27.1278 26.929C26.9148 26.551 26.8083 26.119 26.8083 25.633C26.8083 25.102 26.9133 24.64 27.1233 24.247C27.3333 23.854 27.6228 23.5495 27.9918 23.3335C28.3608 23.1145 28.7853 23.005 29.2653 23.005C29.7753 23.005 30.2088 23.125 30.5658 23.365C30.9228 23.605 31.1868 23.9425 31.3578 24.3775C31.5288 24.8125 31.5888 25.324 31.5378 25.912H30.3273V25.462C30.3273 24.967 30.2478 24.6115 30.0888 24.3955C29.9328 24.1765 29.6763 24.067 29.3193 24.067C28.9023 24.067 28.5948 24.1945 28.3968 24.4495C28.2018 24.7015 28.1043 25.075 28.1043 25.57C28.1043 26.023 28.2018 26.374 28.3968 26.623C28.5948 26.869 28.8843 26.992 29.2653 26.992C29.5053 26.992 29.7108 26.9395 29.8818 26.8345C30.0528 26.7295 30.1833 26.578 30.2733 26.38L31.4973 26.731C31.3143 27.175 31.0248 27.52 30.6288 27.766C30.2358 28.012 29.8053 28.135 29.3373 28.135ZM27.7263 25.912V25.003H30.9483V25.912H27.7263Z" fill="#143a72"/>
</svg>