<?xml version="1.0" encoding="UTF-8"?>
<svg version="1.1" xmlns="http://www.w3.org/2000/svg" width="700" height="400">
<path d="M0 0 C1.17175781 0.5259375 1.17175781 0.5259375 2.3671875 1.0625 C16.30202147 8.00580828 25.58159364 20.52747003 30.68359375 34.9296875 C32.17929129 40.2316774 32.20329827 45.59228222 32.25 51.0625 C32.2593457 51.81845459 32.26869141 52.57440918 32.27832031 53.35327148 C32.20268583 66.72457551 26.47563286 78.86019967 17.5625 88.6875 C16.716875 89.450625 15.87125 90.21375 15 91 C14.28457031 91.70382813 14.28457031 91.70382813 13.5546875 92.421875 C3.79632292 101.56739543 -9.26276784 105.93530078 -22.52734375 106.0234375 C-25.72227999 105.82212296 -28.83544117 105.47806838 -32 105 C-32.79921875 104.88527344 -33.5984375 104.77054687 -34.421875 104.65234375 C-40.7137336 103.50329865 -46.28627971 100.79812096 -52 98 C-52 97.34 -52 96.68 -52 96 C-52.53625 95.938125 -53.0725 95.87625 -53.625 95.8125 C-62.38107374 92.81700109 -68.736034 82.53328417 -72.65234375 74.69140625 C-78.18402913 61.59173393 -79.95595641 45.26928732 -74.875 31.6875 C-73.97072903 29.76529272 -73.01496014 27.86613041 -72 26 C-71.55398438 25.11441406 -71.10796875 24.22882813 -70.6484375 23.31640625 C-63.27766238 9.7895927 -51.29939955 1.89189985 -37 -3 C-25.47525004 -6.31143066 -10.70251779 -5.0996323 0 0 Z " fill="#0165FE" transform="translate(653,150)"/>
<path d="M0 0 C6.27 0 12.54 0 19 0 C19.33 9.24 19.66 18.48 20 28 C22.97 26.02 25.94 24.04 29 22 C34.82480214 20.79486852 40.17975436 21.13777838 45.5625 23.6875 C52.1578205 29.94459893 55.04000692 35.67622083 55.40673828 44.76855469 C55.55364735 54.82832782 53.68046837 63.11495353 46.625 70.59375 C42.10173824 74.50811114 37.15101666 75.54031695 31.34765625 75.37109375 C27.87333485 74.82190817 24.96694503 73.45940065 21.84765625 71.875 C20.03946982 70.85733193 20.03946982 70.85733193 18 71 C17.67 71.99 17.34 72.98 17 74 C14.36 74 11.72 74 9 74 C8.9845388 72.81062836 8.9845388 72.81062836 8.96876526 71.597229 C8.87076356 64.12260033 8.76824531 56.64805368 8.66066074 49.17355728 C8.60551043 45.33090281 8.5521032 41.48824062 8.50268555 37.64550781 C8.4549254 33.93665809 8.40257864 30.22789881 8.34705925 26.51915741 C8.32668841 25.1046143 8.30796675 23.69004644 8.29092598 22.27545929 C8.26676528 20.29328191 8.23618277 18.31118596 8.20532227 16.32910156 C8.18977798 15.20103088 8.1742337 14.07296021 8.15821838 12.91070557 C8.02374524 10.43683547 7.71640172 8.35938887 7 6 C4.69 5.34 2.38 4.68 0 4 C0 2.68 0 1.36 0 0 Z M19 35 C18.53276364 39.09681336 18.54329688 43.19993214 18.51953125 47.32128906 C18.50012658 49.3616897 18.43811652 51.3980473 18.375 53.4375 C18.3646875 54.72398437 18.354375 56.01046875 18.34375 57.3359375 C18.32505859 58.51720215 18.30636719 59.6984668 18.28710938 60.91552734 C18.73443271 64.26502965 18.73443271 64.26502965 21.85131836 66.38110352 C26.87276983 68.96288569 31.49075315 68.8885882 37 68 C41.40274504 65.00613338 42.62549652 62.0181226 44 57 C44.23677949 54.34311388 44.38131432 51.8404609 44.375 49.1875 C44.37338867 48.48407471 44.37177734 47.78064941 44.37011719 47.0559082 C44.20853774 40.1832374 42.6811934 35.15997793 38.25 29.9375 C30.80244712 26.83435297 24.43272355 29.56727645 19 35 Z " fill="#233759" transform="translate(271,154)"/>
<path d="M0 0 C4.94910006 3.22807842 7.2466553 7.26802982 8.95703125 12.84765625 C11.11604203 23.95501989 10.01766168 34.40957658 4.828125 44.41796875 C1.58836631 48.19768723 -3.24622785 51.6410715 -8.3046875 52.28125 C-9.04460938 52.30574219 -9.78453125 52.33023438 -10.546875 52.35546875 C-11.27132812 52.39285156 -11.99578125 52.43023437 -12.7421875 52.46875 C-16.70326201 51.83936644 -19.92942633 49.95447135 -23.421875 48.04296875 C-23.44693115 48.64359131 -23.4719873 49.24421387 -23.49780273 49.86303711 C-23.6134278 52.56908312 -23.73630436 55.27475158 -23.859375 57.98046875 C-23.89869141 58.92599609 -23.93800781 59.87152344 -23.97851562 60.84570312 C-24.02041016 61.74482422 -24.06230469 62.64394531 -24.10546875 63.5703125 C-24.14212646 64.40296631 -24.17878418 65.23562012 -24.21655273 66.09350586 C-24.421875 68.04296875 -24.421875 68.04296875 -25.421875 69.04296875 C-26.94115538 69.11476839 -28.46354982 69.12688882 -29.984375 69.10546875 C-31.22380859 69.09193359 -31.22380859 69.09193359 -32.48828125 69.078125 C-33.44541016 69.06072266 -33.44541016 69.06072266 -34.421875 69.04296875 C-34.42996185 68.30016663 -34.43804871 67.5573645 -34.44638062 66.79205322 C-34.52435518 59.78826438 -34.61165442 52.78466815 -34.70940208 45.78113174 C-34.75932576 42.18062434 -34.80565595 38.58014572 -34.84375 34.97949219 C-34.88065274 31.50397709 -34.92702586 28.02870507 -34.97993851 24.55339813 C-35.00746148 22.5837142 -35.02520208 20.61390147 -35.04281616 18.644104 C-35.06268585 17.44316101 -35.08255554 16.24221802 -35.10302734 15.00488281 C-35.11635101 13.9478717 -35.12967468 12.8908606 -35.1434021 11.80181885 C-35.42529134 9.00912283 -35.81261758 7.33524658 -37.421875 5.04296875 C-40.48095913 4.22712307 -40.48095913 4.22712307 -43.421875 4.04296875 C-43.421875 2.72296875 -43.421875 1.40296875 -43.421875 0.04296875 C-37.151875 0.04296875 -30.881875 0.04296875 -24.421875 0.04296875 C-24.091875 1.69296875 -23.761875 3.34296875 -23.421875 5.04296875 C-22.679375 4.42421875 -21.936875 3.80546875 -21.171875 3.16796875 C-14.89560717 -1.68187457 -7.58868153 -2.99875318 0 0 Z M-22.60693359 9.74023438 C-25.96010536 13.9946218 -25.08749377 19.29704292 -25.05322266 24.51513672 C-25.04688956 26.5383159 -25.09385911 28.55566716 -25.14453125 30.578125 C-25.14582031 31.85558594 -25.14710937 33.13304687 -25.1484375 34.44921875 C-25.15439941 35.61775391 -25.16036133 36.78628906 -25.16650391 37.99023438 C-24.67996869 41.3199646 -24.67996869 41.3199646 -21.51147461 43.41040039 C-17.39272202 45.58678116 -15.07478167 45.96911309 -10.421875 46.04296875 C-6.61994174 44.43770804 -4.67438544 42.43699532 -2.421875 39.04296875 C0.59744382 30.40093885 0.17856397 20.44399301 -3.421875 12.04296875 C-5.23259434 8.42153008 -6.52677641 6.38190889 -10.421875 5.04296875 C-15.12515672 5.04296875 -18.91383259 6.87158206 -22.60693359 9.74023438 Z " fill="#0162F9" transform="translate(56.421875,176.95703125)"/>
<path d="M0 0 C1.00933594 -0.01450195 1.00933594 -0.01450195 2.0390625 -0.02929688 C6.64887808 0.04814074 9.90311294 0.896998 13.75 3.4375 C16.89911017 7.55470124 17.14970509 10.82195093 17.2265625 15.93359375 C17.24214203 16.64475845 17.25772156 17.35592316 17.27377319 18.08863831 C17.32107138 20.35074778 17.34895885 22.61255481 17.375 24.875 C17.41167511 27.13365599 17.45249156 29.39214787 17.49765015 31.65065002 C17.53702515 33.70243019 17.56496725 35.75442037 17.59228516 37.80639648 C17.73560798 41.10614926 18.12508795 44.19855011 18.75 47.4375 C20.73 47.4375 22.71 47.4375 24.75 47.4375 C24.75 49.0875 24.75 50.7375 24.75 52.4375 C21.11217368 53.65010877 18.57264001 53.83294552 14.75 53.4375 C11.9375 50.9375 11.9375 50.9375 9.75 48.4375 C7.02343272 48.4375 5.55817001 49.60191126 3.1875 50.9375 C-1.80064706 53.471162 -5.71429411 54.39376397 -11.25 53.4375 C-16.44418123 51.67343845 -18.69792054 49.25809454 -21.25 44.4375 C-22.74558334 39.52344046 -22.39963771 35.07960556 -20.25 30.4375 C-15.95661536 24.88355766 -10.00624755 22.60512328 -3.25 21.4375 C0.10333188 21.23163379 3.39693482 21.24487711 6.75 21.4375 C6.44075786 19.33285207 6.1274944 17.2287947 5.8125 15.125 C5.63847656 13.95324219 5.46445312 12.78148437 5.28515625 11.57421875 C4.82906969 8.42108597 4.82906969 8.42108597 3.75 5.4375 C2.14482903 5.52483576 0.54078338 5.63302224 -1.0625 5.75 C-1.95582031 5.80800781 -2.84914063 5.86601562 -3.76953125 5.92578125 C-6.59927505 6.50955517 -7.53522227 7.1511297 -9.25 9.4375 C-9.97197162 12.04361077 -9.97197162 12.04361077 -10.25 14.4375 C-12.89 14.4375 -15.53 14.4375 -18.25 14.4375 C-18.25 11.1375 -18.25 7.8375 -18.25 4.4375 C-12.01770951 1.32135476 -6.88814836 0.0317719 0 0 Z M-8.75 30 C-11.18571163 33.95803141 -11.09523044 37.93459093 -10.25 42.4375 C-8.11989696 45.23326024 -6.74610498 46.18568035 -3.27734375 46.76953125 C-0.29229189 46.92017873 2.22649626 46.66120388 4.98046875 45.484375 C7.86626021 42.1462851 7.17082842 38.49771437 7 34.25 C6.98195313 33.40501953 6.96390625 32.56003906 6.9453125 31.68945312 C6.89820586 29.60498427 6.82646233 27.52109856 6.75 25.4375 C0.79047991 25.23021234 -3.72472965 26.85920603 -8.75 30 Z " fill="#23375A" transform="translate(500.25,175.5625)"/>
<path d="M0 0 C1.00933594 -0.02707031 1.00933594 -0.02707031 2.0390625 -0.0546875 C7.05535411 0.00479422 9.94622525 1.28987796 13.75 4.5 C16.82196175 8.56620853 17.20301801 12.11933058 17.2265625 17.06640625 C17.24214203 17.7823143 17.25772156 18.49822235 17.27377319 19.23582458 C17.32107672 21.51137243 17.34897615 23.78661804 17.375 26.0625 C17.41159492 28.34173726 17.45230321 30.62080728 17.49765015 32.89988708 C17.52468792 34.31438888 17.54611994 35.72901208 17.56118774 37.14369202 C17.55302492 41.93129657 17.55302492 41.93129657 18.75 46.5 C21.74615946 47.8045656 21.74615946 47.8045656 24.75 48.5 C24.375 50.4375 24.375 50.4375 23.75 52.5 C20.64951072 54.05024464 18.17105782 53.78992015 14.75 53.5 C11.8125 51.625 11.8125 51.625 9.75 49.5 C9.75 48.84 9.75 48.18 9.75 47.5 C8.98816406 47.933125 8.22632813 48.36625 7.44140625 48.8125 C-4.37679655 55.18636218 -4.37679655 55.18636218 -11.25 53.5 C-16.01153422 51.59538631 -18.65813694 49.51726463 -21.25 45.0625 C-22.97627165 38.91265724 -22.60393674 34.89855386 -19.57421875 29.328125 C-16.23814385 24.72257027 -10.82146518 23.00790183 -5.44921875 21.8046875 C-1.39118898 21.24247378 2.66443963 21.3493031 6.75 21.5 C6.66245449 19.74908981 6.55426627 17.99920449 6.4375 16.25 C6.37949219 15.27546875 6.32148438 14.3009375 6.26171875 13.296875 C5.6856976 10.14854565 5.08241637 8.6885669 2.75 6.5 C0.31418604 5.9427373 0.31418604 5.9427373 -2.3125 6.125 C-3.19035156 6.13789063 -4.06820313 6.15078125 -4.97265625 6.1640625 C-7.44506596 6.2975019 -7.44506596 6.2975019 -9.25 8.5 C-9.64764263 10.48821313 -9.98775349 12.48944339 -10.25 14.5 C-12.89 14.5 -15.53 14.5 -18.25 14.5 C-18.25 11.2 -18.25 7.9 -18.25 4.5 C-12.04062371 1.39531186 -6.86661427 0.07601418 0 0 Z M-9.25 30.25 C-10.6579693 33.41793092 -11.12832252 36.03219184 -11.25 39.5 C-9.88571607 42.42346557 -8.52249091 44.22750909 -6.25 46.5 C-2.08375979 46.8414951 0.54660675 46.91484497 4.4921875 45.5546875 C6.89119808 43.77700419 6.89119808 43.77700419 7.14624023 41.56616211 C7.24387465 39.12996327 7.18490755 36.74746856 7.0625 34.3125 C7.03994141 33.46751953 7.01738281 32.62253906 6.99414062 31.75195312 C6.93524963 29.66721202 6.84556798 27.58338196 6.75 25.5 C0.9824911 25.2962011 -4.80790061 26.36316304 -9.25 30.25 Z " fill="#233759" transform="translate(349.25,175.5)"/>
<path d="M0 0 C1.00933594 -0.02707031 1.00933594 -0.02707031 2.0390625 -0.0546875 C7.86986295 0.01445243 11.36148813 2.0805378 15.38916016 6.16040039 C17.28429495 9.41857705 17.20969151 12.48353019 17.2265625 16.15234375 C17.24214203 16.88949112 17.25772156 17.62663849 17.27377319 18.38612366 C17.32118413 20.73657156 17.34900066 23.08672621 17.375 25.4375 C17.4116153 27.78449238 17.45238045 30.13132341 17.49765015 32.47816467 C17.5246441 33.93610694 17.54609437 35.39416563 17.56118774 36.85227966 C17.61756078 40.51860134 17.88739022 43.93232556 18.75 47.5 C20.4 47.5 22.05 47.5 23.75 47.5 C24.245 49.975 24.245 49.975 24.75 52.5 C21.11217368 53.71260877 18.57264001 53.89544552 14.75 53.5 C11.9375 51 11.9375 51 9.75 48.5 C7.02343272 48.5 5.55817001 49.66441126 3.1875 51 C-1.7777076 53.51122171 -5.73748733 54.60454799 -11.25 53.5 C-16.12226188 51.7213879 -18.98138158 49.16401258 -21.25 44.5 C-21.6484375 41.5625 -21.6484375 41.5625 -21.625 38.5 C-21.63273437 37.489375 -21.64046875 36.47875 -21.6484375 35.4375 C-21.18490546 32.02008733 -20.35942311 30.22004559 -18.25 27.5 C-15.9453125 25.953125 -15.9453125 25.953125 -13.375 24.75 C-12.53195312 24.34265625 -11.68890625 23.9353125 -10.8203125 23.515625 C-6.48456294 21.80241089 -2.57654795 21.37564603 2.0625 21.4375 C2.94550781 21.44652344 3.82851563 21.45554688 4.73828125 21.46484375 C5.73408203 21.48224609 5.73408203 21.48224609 6.75 21.5 C6.46848084 19.37363187 6.17446737 17.24891472 5.875 15.125 C5.71257812 13.94164062 5.55015625 12.75828125 5.3828125 11.5390625 C5.0197415 8.40433341 5.0197415 8.40433341 2.75 6.5 C0.64410923 6.18136311 0.64410923 6.18136311 -1.6875 6.25 C-2.46996094 6.24484375 -3.25242187 6.2396875 -4.05859375 6.234375 C-6.54044107 6.36823169 -6.54044107 6.36823169 -9.25 8.5 C-9.98343428 11.56556598 -9.98343428 11.56556598 -10.25 14.5 C-12.89 14.5 -15.53 14.5 -18.25 14.5 C-18.25 11.2 -18.25 7.9 -18.25 4.5 C-12.04062371 1.39531186 -6.86661427 0.07601418 0 0 Z M-8.75 30.0625 C-11.1862412 34.02139195 -10.96161648 37.99059876 -10.25 42.5 C-9.01922685 45.31426975 -9.01922685 45.31426975 -6.25 46.5 C-2.19692687 47.13213067 1.20464134 47.1501164 5.015625 45.546875 C7.85288947 42.19839171 7.17005187 38.54090521 7 34.3125 C6.98195313 33.46751953 6.96390625 32.62253906 6.9453125 31.75195312 C6.89820586 29.66748427 6.82646233 27.58359856 6.75 25.5 C0.79047991 25.29271234 -3.72472965 26.92170603 -8.75 30.0625 Z " fill="#233759" transform="translate(449.25,175.5)"/>
<path d="M0 0 C2.46978654 1.43338963 4.69464663 2.79878861 6.80859375 4.71875 C6.80859375 5.37875 6.80859375 6.03875 6.80859375 6.71875 C7.46859375 6.71875 8.12859375 6.71875 8.80859375 6.71875 C9.45854672 8.13353135 10.10338097 9.55066487 10.74609375 10.96875 C11.28556641 12.15210938 11.28556641 12.15210938 11.8359375 13.359375 C14.63626101 20.15212762 15.02913165 28.06272191 12.55859375 35.03125 C9.36539686 42.30876849 5.06468086 48.03237586 -2.50390625 51.03125 C-11.38448773 52.68695163 -17.75630627 51.51178749 -25.72265625 47.41796875 C-28.52336229 45.4902676 -29.74935836 43.77366451 -31.44140625 40.84375 C-31.9415625 40.00070313 -32.44171875 39.15765625 -32.95703125 38.2890625 C-36.18501391 31.56750368 -36.41105944 22.88220249 -34.33203125 15.78515625 C-33.08894371 12.68194133 -31.68529133 9.70652017 -30.19140625 6.71875 C-29.53140625 6.71875 -28.87140625 6.71875 -28.19140625 6.71875 C-27.92714844 6.10515625 -27.66289063 5.4915625 -27.390625 4.859375 C-22.53708754 -3.80426841 -7.92768382 -3.18271762 0 0 Z M-19.19140625 5.71875 C-25.13715178 13.82658482 -24.74684752 23.04397297 -24.19140625 32.71875 C-23.14473189 38.6361688 -21.2207349 43.14233852 -16.19140625 46.71875 C-11.91067704 48.21346743 -9.09837003 48.11990706 -4.94140625 46.28125 C0.19263094 41.4972608 2.56690814 35.4927638 3.01171875 28.546875 C3.14227996 18.58070294 2.10808614 11.78997463 -4.19140625 3.71875 C-9.77031357 1.85911423 -14.58606194 1.86021828 -19.19140625 5.71875 Z " fill="#0063FA" transform="translate(104.19140625,177.28125)"/>
<path d="M0 0 C13.86 0 27.72 0 42 0 C42 5.62361809 42 5.62361809 39.5078125 8.93359375 C38.9722876 9.65820801 38.4367627 10.38282227 37.88500977 11.12939453 C37.01380493 12.27190674 37.01380493 12.27190674 36.125 13.4375 C34.9279541 15.04785656 33.73134429 16.65853737 32.53515625 18.26953125 C31.93719238 19.06697754 31.33922852 19.86442383 30.72314453 20.68603516 C28.28356465 23.96208193 25.92027353 27.28985088 23.5625 30.625 C20.11476082 35.48181519 16.57739767 40.23013643 13 45 C23.23 45.33 33.46 45.66 44 46 C44 47.65 44 49.3 44 51 C29.15 51 14.3 51 -1 51 C-1 45.37925898 -1 45.37925898 1.23828125 42.57421875 C1.72337158 41.95047363 2.20846191 41.32672852 2.70825195 40.68408203 C3.23765381 40.02520996 3.76705566 39.36633789 4.3125 38.6875 C5.41942674 37.26386051 6.52352215 35.83801575 7.625 34.41015625 C8.18832031 33.68199707 8.75164062 32.95383789 9.33203125 32.20361328 C11.94155121 28.75608296 14.38345759 25.20101897 16.8125 21.625 C17.26383301 20.96201904 17.71516602 20.29903809 18.18017578 19.6159668 C19.04818865 18.33980591 19.91556576 17.0632123 20.78222656 15.78613281 C23.48033067 11.82876921 26.24518379 7.91796083 29 4 C21.74 4 14.48 4 7 4 C7 6.31 7 8.62 7 11 C6 12 6 12 3.5 12.125 C1 12 1 12 0 11 C0 7.37 0 3.74 0 0 Z " fill="#233759" transform="translate(381,177)"/>
<path d="M0 0 C5.61 0 11.22 0 17 0 C17.38800781 1.71703125 17.77601563 3.4340625 18.17578125 5.203125 C19.8800631 12.0202524 22.40191431 18.31255519 25.1875 24.75 C25.88262695 26.38582031 25.88262695 26.38582031 26.59179688 28.0546875 C27.72002224 30.70659866 28.85612568 33.35481069 30 36 C36.18651441 24.34309503 41.12527888 12.25254247 46 0 C47.65 0 49.3 0 51 0 C50.37621328 3.88344731 49.19752117 7.06054338 47.5234375 10.61328125 C47.02094482 11.68860107 46.51845215 12.7639209 46.00073242 13.87182617 C45.46424072 15.00724854 44.92774902 16.1426709 44.375 17.3125 C43.27351289 19.66869776 42.17324801 22.02546729 41.07421875 24.3828125 C40.27636963 26.09259277 40.27636963 26.09259277 39.46240234 27.83691406 C37.64708206 31.7633397 35.89951845 35.71516961 34.1875 39.6875 C31.93945398 44.88482989 29.63245424 50.05050951 27.25 55.1875 C26.69828125 56.37730469 26.1465625 57.56710938 25.578125 58.79296875 C21.85671725 66.35553252 21.85671725 66.35553252 19.265625 68.3046875 C16.04739377 69.29235157 13.10681886 69.18716331 9.75 69.125 C8.48671875 69.10695313 7.2234375 69.08890625 5.921875 69.0703125 C4.95765625 69.04710937 3.9934375 69.02390625 3 69 C2.67 68.01 2.34 67.02 2 66 C2.72445312 65.96261719 3.44890625 65.92523438 4.1953125 65.88671875 C12.12735327 65.51418671 12.12735327 65.51418671 19 62 C22.23531552 56.41710797 23.39290495 52.33947328 22 46 C21.03749636 43.43581656 20.03808834 40.94762902 18.9453125 38.44140625 C18.49199051 37.38033913 18.49199051 37.38033913 18.0295105 36.2978363 C17.06749674 34.05002347 16.0964335 31.80625561 15.125 29.5625 C14.47986377 28.05950432 13.83532681 26.55625127 13.19140625 25.05273438 C11.73328439 21.65141078 10.27367796 18.25079448 8.79425049 14.8586731 C8.25168301 13.58897847 7.72798474 12.31109713 7.22088623 11.02682495 C5.47820638 6.67683924 4.10678068 5.21988145 0 3 C0 2.01 0 1.02 0 0 Z " fill="#0062FA" transform="translate(213,177)"/>
<path d="M0 0 C0 4.95 0 9.9 0 15 C-2.31 15 -4.62 15 -7 15 C-7.33 13.02 -7.66 11.04 -8 9 C-11.29164667 9.29924061 -13.47827258 9.62045558 -16.17871094 11.58496094 C-18.70861611 14.93962876 -18.45679997 17.22160189 -18.390625 21.390625 C-18.38496521 22.09523865 -18.37930542 22.79985229 -18.37347412 23.52581787 C-18.35115078 25.76791428 -18.30096754 28.00838988 -18.25 30.25 C-18.22992952 31.77341435 -18.2116797 33.29685386 -18.1953125 34.8203125 C-18.15130118 38.5473983 -18.08230372 42.27354087 -18 46 C-15.36 46.66 -12.72 47.32 -10 48 C-10 49.32 -10 50.64 -10 52 C-19.24 52 -28.48 52 -38 52 C-38 50.68 -38 49.36 -38 48 C-35.69 47.34 -33.38 46.68 -31 46 C-31 33.13 -31 20.26 -31 7 C-33.31 6.34 -35.62 5.68 -38 5 C-38 3.68 -38 2.36 -38 1 C-31.73 1 -25.46 1 -19 1 C-18.67 2.65 -18.34 4.3 -18 6 C-17.53851562 5.566875 -17.07703125 5.13375 -16.6015625 4.6875 C-10.93888825 -0.14703612 -7.37210916 -0.61434243 0 0 Z " fill="#23375A" transform="translate(565,176)"/>
<path d="M0 0 C2.97922593 -0.02683987 5.95821295 -0.04676037 8.9375 -0.0625 C9.78763672 -0.07087891 10.63777344 -0.07925781 11.51367188 -0.08789062 C12.32255859 -0.09111328 13.13144531 -0.09433594 13.96484375 -0.09765625 C14.7137085 -0.10289307 15.46257324 -0.10812988 16.23413086 -0.11352539 C18 0 18 0 19 1 C19.09436529 3.23929886 19.11742327 5.4816175 19.11352539 7.72290039 C19.11367142 8.4253035 19.11381744 9.1277066 19.1139679 9.85139465 C19.11326872 12.18351278 19.10547617 14.515552 19.09765625 16.84765625 C19.09579208 18.46048438 19.09436818 20.07331307 19.09336853 21.68614197 C19.08954323 25.93915357 19.07971285 30.19213124 19.06866455 34.44512939 C19.05845069 38.7817743 19.05387096 43.11842467 19.04882812 47.45507812 C19.03809059 55.97006769 19.02101403 64.48502963 19 73 C17 74 17 74 8 74 C7.67 51.56 7.34 29.12 7 6 C4.69 5.34 2.38 4.68 0 4 C0 2.68 0 1.36 0 0 Z " fill="#0160F3" transform="translate(116,154)"/>
<path d="M0 0 C0 4.29 0 8.58 0 13 C-2.31 13 -4.62 13 -7 13 C-7.19335938 12.36191406 -7.38671875 11.72382813 -7.5859375 11.06640625 C-7.97652344 9.82697266 -7.97652344 9.82697266 -8.375 8.5625 C-8.63023437 7.73878906 -8.88546875 6.91507813 -9.1484375 6.06640625 C-9.80882227 3.82201984 -9.80882227 3.82201984 -12 3 C-15.58370253 2.72953188 -18.30290045 2.74061412 -21.6875 4 C-26.31533382 8.00245087 -28.50108255 13.94322857 -29.23828125 19.9375 C-29.48313819 26.74194542 -27.8538081 32.83209217 -25 39 C-21.81837742 42.33682368 -19.14442386 43.88713559 -14.4765625 44.1328125 C-13.53554687 44.13023437 -12.59453125 44.12765625 -11.625 44.125 C-10.68914062 44.12757813 -9.75328125 44.13015625 -8.7890625 44.1328125 C-6.09270253 44.00441441 -3.62728491 43.60188709 -1 43 C-0.505 45.475 -0.505 45.475 0 48 C-8.21087776 51.40599374 -16.3779101 52.79974221 -24.8125 49.3125 C-33.73853053 44.72197002 -36.93523476 39.19429572 -40 30 C-40.83672951 20.09641464 -39.65026515 12.72786133 -33.75 4.6875 C-24.54116929 -4.3120391 -11.68372067 -3.89457356 0 0 Z " fill="#0063FA" transform="translate(210,178)"/>
<path d="M0 0 C5.94 0 11.88 0 18 0 C18 16.5 18 33 18 50 C14.7 50 11.4 50 8 50 C7.98018066 48.70787598 7.96036133 47.41575195 7.93994141 46.08447266 C7.86401632 41.30220655 7.77527922 36.52024995 7.68261719 31.73828125 C7.64427315 29.66640319 7.60942995 27.59445731 7.578125 25.52246094 C7.53259191 22.54858113 7.47457882 19.57517038 7.4140625 16.6015625 C7.40251129 15.67131256 7.39096008 14.74106262 7.37905884 13.78262329 C7.35918915 12.92188202 7.33931946 12.06114075 7.31884766 11.17431641 C7.30552399 10.41486725 7.29220032 9.65541809 7.2784729 8.87295532 C7.15382948 6.7568774 7.15382948 6.7568774 5 5 C2.42938689 4.35232207 2.42938689 4.35232207 0 4 C0 2.68 0 1.36 0 0 Z " fill="#0064FE" transform="translate(146,177)"/>
<path d="M0 0 C3.72446104 2.77353482 5.79657598 5.51451046 7 10 C7.48342613 14.64089088 6.87833987 17.29927731 4 21 C0.99014128 23.34100123 -2.28060327 23.42128203 -6.03515625 23.31640625 C-9.24330151 22.79978644 -10.84118317 21.34930067 -13 19 C-15.34911097 14.97295262 -15.77398508 10.5609835 -15 6 C-11.08686184 -0.13058312 -6.98233802 -1.07513509 0 0 Z " fill="#EFF6FF" transform="translate(629,194)"/>
<path d="M0 0 C3.9355517 0.83735142 4.65935336 2.36666846 6.9375 5.625 C8.421875 8.6328125 8.421875 8.6328125 9.6875 11.75 C10.11546875 12.78382813 10.5434375 13.81765625 10.984375 14.8828125 C11.9375 17.625 11.9375 17.625 11.9375 20.625 C10.6175 20.625 9.2975 20.625 7.9375 20.625 C6.9330866 18.3351766 5.93382388 16.0433401 4.9375 13.75 C4.65132812 13.09902344 4.36515625 12.44804687 4.0703125 11.77734375 C1.9375 6.8515625 1.9375 6.8515625 1.9375 4.625 C-0.3725 4.955 -2.6825 5.285 -5.0625 5.625 C-5.34437286 10.28621457 -4.6347665 13.12007027 -2.5 17.25 C0.01359568 22.11370546 0.01359568 22.11370546 -0.41015625 24.9609375 C-0.62542969 25.51007813 -0.84070313 26.05921875 -1.0625 26.625 C-2.0525 26.625 -3.0425 26.625 -4.0625 26.625 C-4.48402344 25.55378906 -4.90554688 24.48257813 -5.33984375 23.37890625 C-5.89309319 21.98171698 -6.44648602 20.58458449 -7 19.1875 C-7.41668945 18.12692383 -7.41668945 18.12692383 -7.84179688 17.04492188 C-9.02472034 13.57826119 -9.02472034 13.57826119 -11.0625 10.625 C-13.5625 10.45833333 -13.5625 10.45833333 -16.0625 10.625 C-16.3925 10.955 -16.7225 11.285 -17.0625 11.625 C-16.72783578 18.65294868 -14.93236817 24.23120068 -12.0625 30.625 C-13.3825 30.955 -14.7025 31.285 -16.0625 31.625 C-17.022438 29.56324636 -17.98038424 27.50056531 -18.9375 25.4375 C-19.73800781 23.71466797 -19.73800781 23.71466797 -20.5546875 21.95703125 C-24.4454675 13.35901224 -24.4454675 13.35901224 -23.0625 9.625 C-22.485 9.521875 -21.9075 9.41875 -21.3125 9.3125 C-18.9780633 8.76447991 -18.9780633 8.76447991 -17.25 7.0625 C-15.0625 5.625 -15.0625 5.625 -11.625 5.75 C-6.04667117 5.55426916 -5.25486546 1.07242152 0 0 Z " fill="#EAF3FF" transform="translate(659.0625,178.375)"/>
<path d="M0 0 C2.375 1.375 2.375 1.375 4 3 C4 3.66 4 4.32 4 5 C2.125 5.625 2.125 5.625 0 6 C-0.66 5.34 -1.32 4.68 -2 4 C-5.30683466 4.28983269 -5.30683466 4.28983269 -8 6 C-8.28362108 10.8215583 -7.75417412 14.50492881 -6 19 C-2.58343976 19.16677282 -2.58343976 19.16677282 1 19 C3.35953094 16.64046906 3.49141413 15.22104383 4 12 C5.32 11.67 6.64 11.34 8 11 C8.49033816 17.37439614 8.49033816 17.37439614 6.1875 20.3125 C2.17438682 23.40833017 0.10898291 24.61307795 -5 24 C-8.78423788 21.62385063 -11.25889963 19.12365878 -13 15 C-13.51563482 11.88919212 -13.61779662 9.10021577 -13 6 C-9.0557179 1.01774892 -6.29807208 -0.50384577 0 0 Z " fill="#E4EFFF" transform="translate(607,202)"/>
<path d="M0 0 C2.74791918 3.02975704 3.85428802 5.08930012 4.5 9.125 C4 12 4 12 2.3125 14.375 C0 16 0 16 -2.5 16.5625 C-6.03737028 15.76659169 -7.03439818 13.94840273 -9 11 C-10.52491998 7.95016004 -10.23562548 5.3576631 -10 2 C-7.71112297 -2.30847442 -4.16656433 -1.24265954 0 0 Z " fill="#096AFF" transform="translate(628,198)"/>
<path d="M0 0 C2.375 1.5625 2.375 1.5625 4 4 C4.70476018 8.93332128 4.77041398 10.84437903 2 15 C-2.15562097 17.77041398 -4.06667872 17.70476018 -9 17 C-11.5 15.5625 -11.5 15.5625 -13 13 C-13.5468686 9.89538139 -13.57589456 7.10184791 -13 4 C-9.40819555 -0.95421303 -5.74837114 -1.52507806 0 0 Z M-7 2 C-7 2.33 -7 2.66 -7 3 C-5.35 3 -3.7 3 -2 3 C-2 2.67 -2 2.34 -2 2 C-3.65 2 -5.3 2 -7 2 Z M-9 3 C-11.3721969 4.94458314 -11.3721969 4.94458314 -11.3125 8.5 C-11.209375 9.655 -11.10625 10.81 -11 12 C-9.515 12.99 -9.515 12.99 -8 14 C-8 10.37 -8 6.74 -8 3 C-8.33 3 -8.66 3 -9 3 Z M-2 3 C-2.24428343 8.7974423 -2.24428343 8.7974423 0 14 C2.56687367 10.1496895 1.83288724 8.41430237 1 4 C0.01 3.67 -0.98 3.34 -2 3 Z M-5 5 C-4 7 -4 7 -4 7 Z M-5 10 C-5.33 11.65 -5.66 13.3 -6 15 C-5.01 15 -4.02 15 -3 15 C-3.33 13.35 -3.66 11.7 -4 10 C-4.33 10 -4.66 10 -5 10 Z " fill="#12223D" transform="translate(689,143)"/>
<path d="M0 0 C3.3 0 6.6 0 10 0 C10 3.3 10 6.6 10 10 C6.7 10 3.4 10 0 10 C0 6.7 0 3.4 0 0 Z " fill="#0063FC" transform="translate(154,159)"/>
<path d="M0 0 C1.98 0 3.96 0 6 0 C5.979375 0.94875 5.95875 1.8975 5.9375 2.875 C5.77448174 5.90666283 5.77448174 5.90666283 7 8 C8.96822886 6.03177114 8.66248381 2.65191291 9 0 C9.66 0 10.32 0 11 0 C11.60737527 7.1670282 11.60737527 7.1670282 8.8125 11 C5.80512535 13.13857753 4.58848221 13.51264032 1 13 C1.99 12.67 2.98 12.34 4 12 C3.34 11.01 2.68 10.02 2 9 C1.34 9 0.68 9 0 9 C0 6.03 0 3.06 0 0 Z M2 1 C3 3 3 3 3 3 Z " fill="#0E1C36" transform="translate(682,147)"/>
<path d="M0 0 C2.31 0.33 4.62 0.66 7 1 C7 1.33 7 1.66 7 2 C5.35 2 3.7 2 2 2 C2.33 5.63 2.66 9.26 3 13 C3.99 13.33 4.98 13.66 6 14 C3.25 14.75 3.25 14.75 0 15 C-2.4375 13.5 -2.4375 13.5 -4 11 C-3.75 7.25 -3.75 7.25 -3 4 C-2.67 4 -2.34 4 -2 4 C-1.34 6.31 -0.68 8.62 0 11 C0 7.37 0 3.74 0 0 Z " fill="#182B4B" transform="translate(680,145)"/>
<path d="M0 0 C0.66 0 1.32 0 2 0 C2.60737527 7.1670282 2.60737527 7.1670282 -0.1875 11 C-3.19487465 13.13857753 -4.41151779 13.51264032 -8 13 C-7.01 12.34 -6.02 11.68 -5 11 C-1.80759551 8.46485526 -1.06828621 7.34143104 -0.25 3.25 C-0.1675 2.1775 -0.085 1.105 0 0 Z " fill="#0B1424" transform="translate(691,147)"/>
<path d="M0 0 C0.66 0 1.32 0 2 0 C1.21302675 3.41021743 0.12880057 6.68885166 -1 10 C-1.33 10 -1.66 10 -2 10 C-2.25 3.375 -2.25 3.375 0 0 Z " fill="#0C1628" transform="translate(678,144)"/>
</svg>
