<?xml version="1.0" encoding="UTF-8"?>
<svg version="1.1" xmlns="http://www.w3.org/2000/svg" width="93" height="65">
<path d="M0 0 C30.69 0 61.38 0 93 0 C93 21.45 93 42.9 93 65 C62.31 65 31.62 65 0 65 C0 43.55 0 22.1 0 0 Z " fill="#F9FBFC" transform="translate(0,0)"/>
<path d="M0 0 C12.58820065 -0.17270397 12.58820065 -0.17270397 17.6875 0.5625 C20.87138281 1.29784116 20.87138281 1.29784116 23 0 C25.18576146 -0.09663965 27.37460848 -0.12980327 29.5625 -0.125 C31.32787109 -0.12886719 31.32787109 -0.12886719 33.12890625 -0.1328125 C36 0 36 0 37 1 C38.6748809 8.31079398 40.28713432 16.52674053 39 24 C33.61313436 29.23295519 24.71563085 28.21443704 17.6875 28.25 C16.17639648 28.2809375 16.17639648 28.2809375 14.63476562 28.3125 C8.35841434 28.34521063 3.70912189 27.6504247 -2 25 C-3.65926764 23.34073236 -3.17135814 21.40423091 -3.1875 19.125 C-3.13833768 12.85680419 -2.84944724 5.69889448 0 0 Z " fill="#034A81" transform="translate(27,33)"/>
<path d="M0 0 C2.57637471 1.88515223 3.59667428 3.19334857 5 6 C5.72298124 12.86832181 4.10275005 17.42950556 0 23 C-3.24153166 25.1610211 -4.23692901 25.64247553 -8 25 C-12.43015426 20.7001444 -14.74350114 15.47948895 -15.375 9.375 C-14.97263566 5.75372097 -14.19809733 3.87443497 -12 1 C-8.31123973 -0.84438013 -4.02669687 -0.48788734 0 0 Z " fill="#084D84" transform="translate(50,7)"/>
<path d="M0 0 C1.74965358 -0.05429959 3.49979787 -0.09292823 5.25 -0.125 C6.22453125 -0.14820312 7.1990625 -0.17140625 8.203125 -0.1953125 C11 0 11 0 15 2 C14.01 9.26 13.02 16.52 12 24 C2 23 2 23 -2 21 C-2.2494783 13.70968976 -1.72330907 7.09326321 0 0 Z " fill="#064C83" transform="translate(9,31)"/>
<path d="M0 0 C0.90105469 0.01804687 1.80210938 0.03609375 2.73046875 0.0546875 C3.41753906 0.07789062 4.10460937 0.10109375 4.8125 0.125 C8.13520836 7.18575526 8.13056054 13.3973068 7.8125 21.125 C2.7680141 23.59576861 -0.45761256 24.29008679 -6.1875 24.125 C-6.52551152 21.58387768 -6.85803379 19.04223254 -7.1875 16.5 C-7.28289062 15.78714844 -7.37828125 15.07429688 -7.4765625 14.33984375 C-8.55467791 5.94594517 -8.55467791 5.94594517 -8.1875 2.125 C-4.87379 -0.08414 -3.8428979 -0.09981553 0 0 Z " fill="#054B82" transform="translate(75.1875,30.875)"/>
<path d="M0 0 C0.7734375 0.00386719 1.546875 0.00773438 2.34375 0.01171875 C4.5 0.3125 4.5 0.3125 7.5 2.3125 C8.96201499 8.36941923 8.56481114 12.8360342 5.5 18.3125 C3.5625 20.375 3.5625 20.375 1.5 21.3125 C-0.5 21.3125 -0.5 21.3125 -2.5 20.3125 C-6.18033713 16.31670541 -7.64202531 13.21123438 -7.75 7.8125 C-7.77578125 7.0390625 -7.8015625 6.265625 -7.828125 5.46875 C-7.5 3.3125 -7.5 3.3125 -6.265625 1.55078125 C-4.03056046 -0.01673083 -2.71014375 -0.05871978 0 0 Z " fill="#074D83" transform="translate(65.5,8.6875)"/>
<path d="M0 0 C0.7734375 -0.00773438 1.546875 -0.01546875 2.34375 -0.0234375 C5.05534146 0.47761744 5.92232718 1.12471432 7.5 3.375 C8.45465714 8.37189911 8.02022045 12.40392183 5.625 16.875 C3.5 19.375 3.5 19.375 1.5 21.375 C-0.875 21.4375 -0.875 21.4375 -3.5 20.375 C-7.32163952 15.52048493 -7.94306428 11.70839355 -7.93359375 5.609375 C-7.0340554 0.97391613 -4.44516894 -0.04445169 0 0 Z " fill="#034A81" transform="translate(24.5,8.625)"/>
</svg>
