<svg xmlns="http://www.w3.org/2000/svg" width="49" height="49" viewBox="0 0 49 49">
    <defs>
        <style>
            .cls-1,.cls-3{fill:#143c70;stroke:#143c70}.cls-3{fill:#143a72;stroke-width:.8px}
        </style>
    </defs>
    <g id="Group_21708" data-name="Group 21708" transform="translate(-567.646 -2411.508)">
        <g id="Group_15391" data-name="Group 15391" transform="translate(568.146 2412.008)">
            <g id="coin">
                <g id="Group_15362" data-name="Group 15362">
                    <g id="Group_15360" data-name="Group 15360">
                        <path id="Path_10912" data-name="Path 10912" class="cls-1" d="M246.938 43.162a.937.937 0 0 0-.938.938v1.776a.938.938 0 1 0 1.875 0V44.1a.937.937 0 0 0-.937-.938z" transform="translate(-222.938 -39.116)"/>
                        <path id="Path_10913" data-name="Path 10913" class="cls-1" d="M246.938 434.311a.938.938 0 0 0-.938.938v1.776a.938.938 0 0 0 1.875 0v-1.776a.938.938 0 0 0-.937-.938z" transform="translate(-222.938 -393.594)"/>
                        <path id="Path_10914" data-name="Path 10914" class="cls-1" d="M434.816 248.208h-1.776a.938.938 0 0 0 0 1.875h1.776a.937.937 0 1 0 0-1.875z" transform="translate(-391.593 -224.938)"/>
                        <path id="Path_10915" data-name="Path 10915" class="cls-1" d="M43.667 248.208h-1.775a.938.938 0 0 0 0 1.875h1.776a.937.937 0 1 0 0-1.875z" transform="translate(-37.115 -224.938)"/>
                        <path id="Path_10916" data-name="Path 10916" class="cls-1" d="m379.125 103.493-1.256 1.256a.938.938 0 1 0 1.326 1.326l1.256-1.256a.938.938 0 1 0-1.326-1.326z" transform="translate(-342.195 -93.542)"/>
                        <path id="Path_10917" data-name="Path 10917" class="cls-1" d="m102.541 380.077-1.256 1.256a.938.938 0 1 0 1.326 1.326l1.256-1.256a.938.938 0 1 0-1.326-1.326z" transform="translate(-91.541 -344.196)"/>
                        <path id="Path_10918" data-name="Path 10918" class="cls-1" d="M379.195 380.077a.938.938 0 1 0-1.326 1.326l1.256 1.256a.938.938 0 1 0 1.326-1.326z" transform="translate(-342.195 -344.196)"/>
                        <path id="Path_10919" data-name="Path 10919" class="cls-1" d="M102.611 103.493a.938.938 0 1 0-1.326 1.326l1.256 1.256a.938.938 0 1 0 1.326-1.326z" transform="translate(-91.541 -93.542)"/>
                        <path id="Path_10920" data-name="Path 10920" class="cls-1" d="M40.971 7.029A24 24 0 1 0 7.029 40.971 24 24 0 1 0 40.971 7.029zM24 46.125A22.125 22.125 0 1 1 46.125 24 22.15 22.15 0 0 1 24 46.125z"/>
                    </g>
                    <g id="Group_15361" data-name="Group 15361" transform="translate(10.191 10.191)">
                        <circle id="Ellipse_146" data-name="Ellipse 146" cx="13.809" cy="13.809" r="13.809" style="fill:#cef5e1"/>
                    </g>
                </g>
            </g>
        </g>
        <g id="discount" transform="translate(584.565 2427.62)">
            <g id="Group_15368" data-name="Group 15368" transform="translate(.066 1.385)">
                <g id="Group_15367" data-name="Group 15367">
                    <path id="Path_10928" data-name="Path 10928" class="cls-3" d="M158.533 144.081a.989.989 0 0 0-1.4 0l-13.053 13.053a.989.989 0 1 0 1.4 1.4l13.053-13.053a.989.989 0 0 0 0-1.4z" transform="translate(-143.791 -143.791)"/>
                </g>
            </g>
            <g id="Group_15370" data-name="Group 15370">
                <g id="Group_15369" data-name="Group 15369">
                    <path id="Path_10929" data-name="Path 10929" class="cls-3" d="M146.428 123.116a3.626 3.626 0 1 0 3.626 3.626 3.63 3.63 0 0 0-3.626-3.626zm0 5.274a1.648 1.648 0 1 1 1.648-1.648 1.65 1.65 0 0 1-1.648 1.648z" transform="translate(-142.802 -123.116)"/>
                </g>
            </g>
            <g id="Group_15372" data-name="Group 15372" transform="translate(7.912 10.549)">
                <g id="Group_15371" data-name="Group 15371">
                    <path id="Path_10930" data-name="Path 10930" class="cls-3" d="M264.548 280.61a3.626 3.626 0 1 0 3.626 3.626 3.63 3.63 0 0 0-3.626-3.626zm0 5.274a1.648 1.648 0 1 1 1.648-1.648 1.65 1.65 0 0 1-1.648 1.648z" transform="translate(-260.922 -280.61)"/>
                </g>
            </g>
        </g>
    </g>
</svg>
