<?xml version="1.0" encoding="UTF-8"?>
<svg version="1.1" xmlns="http://www.w3.org/2000/svg" width="3000" height="2000">
<path d="M0 0 C0.61665527 0.41991211 1.23331055 0.83982422 1.86865234 1.27246094 C10.72013225 7.32140506 18.92818483 13.95213979 27 21 C28.10794922 21.95712891 28.10794922 21.95712891 29.23828125 22.93359375 C31.17022176 24.61000706 33.08758964 26.30135207 35 28 C36.20076172 29.06154297 36.20076172 29.06154297 37.42578125 30.14453125 C45.4865932 37.32464751 53.01376905 44.76984387 60 53 C61.07314453 54.23943359 61.07314453 54.23943359 62.16796875 55.50390625 C80.17101018 76.62003478 95.19400581 99.88144624 107 125 C107.56589844 126.13050781 108.13179687 127.26101563 108.71484375 128.42578125 C128.52020204 168.7999697 137.48541895 214.30396853 137.3125 259.0625 C137.30976578 260.53959946 137.30976578 260.53959946 137.30697632 262.04653931 C137.25877143 277.56050602 136.59759006 292.67548576 134 308 C133.74259033 309.58337158 133.74259033 309.58337158 133.47998047 311.19873047 C123.60196761 370.81108153 96.87463581 424.86787674 57 470 C56.52336914 470.54124512 56.04673828 471.08249023 55.55566406 471.64013672 C43.79624137 484.91286879 30.92905012 497.06022834 16.734375 507.69824219 C14.98998711 509.00751531 13.26062224 510.33504381 11.53125 511.6640625 C-26.82015161 540.80838721 -71.8762822 559.71444814 -119 569 C-119.76731445 569.15307617 -120.53462891 569.30615234 -121.32519531 569.46386719 C-187.35396537 582.24455561 -257.06614875 570.36147907 -317 541 C-317.82516113 540.60232422 -318.65032227 540.20464844 -319.50048828 539.79492188 C-338.61084111 530.5202608 -356.58204767 518.46137702 -373 505 C-373.78044678 504.36167236 -373.78044678 504.36167236 -374.57666016 503.71044922 C-410.94453146 473.83411769 -439.87253429 437.54609655 -460.07763672 394.93945312 C-460.68822846 393.65556196 -461.30695282 392.37550426 -461.93408203 391.09960938 C-476.71518866 360.94156857 -485.24345388 327.24715631 -489 294 C-489.0942627 293.25435791 -489.18852539 292.50871582 -489.28564453 291.74047852 C-492.19514134 265.56801931 -491.58757337 236.91381291 -487 211 C-486.80132324 209.85934082 -486.60264648 208.71868164 -486.39794922 207.54345703 C-475.96783312 149.40825561 -450.63076852 93.92885145 -410.26953125 50.453125 C-408.27530546 48.29757629 -406.34716597 46.10513865 -404.4375 43.875 C-398.16346772 36.67311788 -391.26492199 30.18398204 -384 24 C-383.08992188 23.20078125 -382.17984375 22.4015625 -381.2421875 21.578125 C-303.05190117 -46.5964657 -191.97216982 -70.50784964 0 0 Z " fill="#5F259F" transform="translate(836,740)"/>
<path d="M0 0 C8.56567365 7.158088 15.62246455 16.09690325 22.6015625 24.75 C25.57065358 28.31192124 28.70702333 31.69444731 31.86523438 35.08789062 C34.83623065 38.29921853 37.64875707 41.59259414 40.38671875 45.00390625 C44.23031932 49.78262253 48.31882039 54.25798312 52.50756836 58.73022461 C56.40918545 62.91970151 60.02246672 67.28813561 63.60546875 71.75390625 C66.28130153 74.96490559 69.09281582 78.01668261 71.94921875 81.06640625 C76.40148379 85.82037772 80.57389991 90.7181043 84.65625 95.796875 C88.88333739 100.90250526 93.39585889 105.75088324 97.94921875 110.56640625 C98.63508057 111.43974609 99.32094238 112.31308594 100.02758789 113.21289062 C104.12906258 116.51682779 107.16805823 116.15791824 112.2734375 115.94921875 C113.17487991 115.93502899 114.07632233 115.92083923 115.00508118 115.90621948 C117.88336907 115.85849132 120.75934727 115.77767197 123.63671875 115.69140625 C126.49606118 115.61551803 129.35486955 115.54739114 132.21479797 115.49801636 C133.99054011 115.46646226 135.76610582 115.41974215 137.54093933 115.35476685 C145.13545603 115.20393189 153.45247109 116.41099948 159.32421875 121.62890625 C165.70783174 128.01077484 167.44147267 135.54270248 167.44726562 144.37695312 C167.42728516 145.36759766 167.40730469 146.35824219 167.38671875 147.37890625 C167.39380859 148.38888672 167.40089844 149.39886719 167.40820312 150.43945312 C167.37410364 154.41335495 167.17764974 157.83857149 165.984375 161.640625 C160.99576219 166.36113577 152.487871 165.84982382 145.9765625 165.76171875 C145.16804337 165.75888885 144.35952423 165.75605896 143.52650452 165.75314331 C140.97974957 165.74207402 138.43336485 165.71699583 135.88671875 165.69140625 C134.14518742 165.68135927 132.4036505 165.67223645 130.66210938 165.6640625 C126.42433958 165.64217838 122.18684162 165.60774271 117.94921875 165.56640625 C117.95290592 166.85961603 117.95659309 168.15282581 117.960392 169.48522377 C118.04701443 200.18011134 118.11297628 230.87496594 118.15348007 261.56994639 C118.15848292 265.34757515 118.16366021 269.12520365 118.16894531 272.90283203 C118.16999455 273.65489309 118.1710438 274.40695415 118.17212483 275.18180494 C118.18953234 287.36072748 118.22107191 299.53957454 118.25782993 311.71845229 C118.29522978 324.21415368 118.31745257 336.70981552 118.32557273 349.20557058 C118.33106251 356.91679291 118.34840432 364.62780189 118.38088462 372.33895855 C118.40451847 378.25085816 118.407041 384.16264814 118.40164948 390.07459641 C118.4027516 392.50060084 118.41073049 394.92661321 118.42604065 397.35256958 C118.44590124 400.66134027 118.4411715 403.9691933 118.43023682 407.27798462 C118.44188818 408.24102654 118.45353955 409.20406846 118.46554399 410.19629347 C118.41525833 415.81422123 117.78313682 419.15576233 113.94921875 423.56640625 C110.30207108 425.99783803 107.53753249 425.88932921 103.31640625 425.90234375 C102.56513458 425.90900055 101.81386292 425.91565735 101.03982544 425.92251587 C99.44779911 425.93264014 97.85573036 425.93733296 96.26367188 425.93701172 C93.85343096 425.94135363 91.44506933 425.97758414 89.03515625 426.015625 C78.10202488 426.09633381 69.76467978 424.85999949 61.453125 417.28125 C56.73255831 411.89857785 54.82142121 405.57059102 54.83569336 398.53442383 C54.83576889 397.2933638 54.83584442 396.05230377 54.83592224 394.77363586 C54.84102884 393.41940267 54.84624484 392.06516988 54.8515625 390.7109375 C54.85342792 389.3251704 54.85485124 387.93940264 54.85585022 386.55363464 C54.85966565 382.90892715 54.86948762 379.2642596 54.8805542 375.61956787 C54.89078925 371.89937887 54.89535233 368.1791834 54.90039062 364.45898438 C54.91111077 357.16144014 54.9281755 349.86392879 54.94921875 342.56640625 C53.89718262 342.90631592 52.84514648 343.24622559 51.76123047 343.59643555 C36.87998612 348.35930646 36.87998612 348.35930646 30.07421875 349.37890625 C29.30650146 349.49435791 28.53878418 349.60980957 27.74780273 349.72875977 C1.75038951 353.18331915 -25.77708497 351.03966018 -47.86328125 335.81640625 C-64.6168449 322.71039024 -74.0596606 306.83374846 -79.73828125 286.56640625 C-79.94090576 285.87466309 -80.14353027 285.18291992 -80.35229492 284.47021484 C-84.58163151 268.45272735 -84.33894706 251.36233139 -84.24609375 234.92578125 C-84.24235007 232.93654525 -84.23950954 230.94730737 -84.23751831 228.95806885 C-84.22998827 223.79616947 -84.21043514 218.63438793 -84.18811035 213.47253418 C-84.16741886 208.17571607 -84.15846748 202.87887838 -84.1484375 197.58203125 C-84.12717592 187.24343864 -84.09317353 176.90493235 -84.05078125 166.56640625 C-84.91767578 166.58735352 -85.78457031 166.60830078 -86.67773438 166.62988281 C-89.92801915 166.69850187 -93.17793182 166.74842076 -96.42871094 166.78613281 C-97.82922598 166.80611255 -99.22965907 166.83330645 -100.62988281 166.86816406 C-109.7727988 167.08988956 -116.69808423 166.98317 -124.0390625 160.92578125 C-124.69455078 160.12914062 -124.69455078 160.12914062 -125.36328125 159.31640625 C-125.81316406 158.795625 -126.26304687 158.27484375 -126.7265625 157.73828125 C-131.18484946 150.42616458 -131.5445888 143.75849396 -131.48828125 135.37890625 C-131.50826172 134.31220703 -131.52824219 133.24550781 -131.54882812 132.14648438 C-131.54399464 124.41774912 -131.54399464 124.41774912 -129.2109375 120.390625 C-125.52115984 117.27466448 -122.31450879 117.43389726 -117.65376282 117.40818787 C-116.67599067 117.4007809 -116.67599067 117.4007809 -115.67846555 117.3932243 C-113.49048026 117.37784513 -111.30252433 117.36948757 -109.11450195 117.36108398 C-107.54757427 117.35150579 -105.98064918 117.34149574 -104.41372681 117.33108521 C-100.15579232 117.30402375 -95.89784674 117.2830209 -91.63987374 117.26308322 C-87.19155108 117.24123133 -82.74326268 117.21383874 -78.29496765 117.18702698 C-69.86962767 117.13708931 -61.44426869 117.09215446 -53.01889151 117.04900461 C-43.427688 116.99964142 -33.83651885 116.94471989 -24.24534857 116.88932502 C-4.51385815 116.77548849 15.21766509 116.66865307 34.94921875 116.56640625 C32.28687675 113.8745935 29.61855208 111.18878478 26.94921875 108.50390625 C26.20542969 107.75173828 25.46164062 106.99957031 24.6953125 106.22460938 C20.49358196 102.00461045 16.21800081 97.94920462 11.68798828 94.08251953 C8.96999196 91.71257329 6.46497808 89.14711046 3.94921875 86.56640625 C0.70706648 83.27967438 -2.53029108 80.05882289 -6.05078125 77.06640625 C-10.14031745 73.59030048 -13.86038665 69.78390969 -17.62890625 65.96875 C-20.35386126 63.22315139 -23.10101598 60.57370673 -26.05078125 58.06640625 C-30.14031745 54.59030048 -33.86038665 50.78390969 -37.62890625 46.96875 C-40.93532461 43.63728302 -44.34417819 40.51648442 -47.921875 37.4765625 C-51.31465819 34.43239557 -54.48178872 31.16498345 -57.67504883 27.91381836 C-60.41344687 25.14208406 -63.18795394 22.5515942 -66.23828125 20.12890625 C-69.05078125 17.56640625 -69.05078125 17.56640625 -70.17578125 15.06640625 C-69.99881237 11.52702865 -68.96269212 9.55280333 -67.05078125 6.56640625 C-64.57258918 5.27959441 -62.55263161 4.43968979 -59.92578125 3.64453125 C-58.8725769 3.29814606 -58.8725769 3.29814606 -57.7980957 2.94476318 C-56.31199769 2.46057569 -54.82234788 1.98717332 -53.32958984 1.52392578 C-51.07890448 0.82513789 -48.84020879 0.09571332 -46.6015625 -0.640625 C-31.00369972 -5.7001361 -14.642903 -10.23608648 0 0 Z " fill="#FEFDFE" transform="translate(635.05078125,779.43359375)"/>
<path d="M0 0 C17.61163886 16.34580232 27.81029835 39.09882032 29.05032349 63.07781982 C29.2972829 71.31379185 29.30493715 79.54784826 29.26611328 87.78662109 C29.24902179 91.4510166 29.25917425 95.11475872 29.27642918 98.77913189 C29.39394179 128.10518848 29.39394179 128.10518848 25.875 140.6875 C25.65070313 141.50718262 25.42640625 142.32686523 25.1953125 143.17138672 C18.62459389 164.80000214 3.7433381 183.85737938 -15.98046875 194.90625 C-43.15320991 209.39638502 -73.59728988 212.3051687 -103.125 203.6875 C-104.46931438 203.04326319 -105.80564147 202.38141303 -107.125 201.6875 C-107.11833817 202.64914566 -107.11167633 203.61079132 -107.10481262 204.60157776 C-107.04390783 213.67922171 -106.99898244 222.75682402 -106.96956348 231.8346262 C-106.95393027 236.50124716 -106.93273492 241.16770273 -106.89868164 245.83422852 C-106.86600445 250.3405564 -106.84812936 254.84672551 -106.84036827 259.35316277 C-106.83483975 261.06950313 -106.82404388 262.78583513 -106.80780983 264.50210762 C-106.7859241 266.91248242 -106.78303767 269.3222073 -106.78442383 271.73266602 C-106.773638 272.43685669 -106.76285217 273.14104736 -106.7517395 273.86657715 C-106.78305458 278.92321652 -107.83906188 282.27098791 -110.125 286.6875 C-117.73397492 294.101373 -132.39828409 291.89469713 -142.3125 291.9375 C-144.12137695 291.9684375 -144.12137695 291.9684375 -145.96679688 292 C-152.72845036 292.029543 -159.00607364 291.84599033 -165.125 288.6875 C-169.08207702 284.73042298 -170.24905226 281.46582824 -170.25363445 275.96504593 C-170.2568589 274.98803891 -170.26008335 274.0110319 -170.2634055 273.00441861 C-170.2618569 271.92846645 -170.2603083 270.85251429 -170.25871277 269.74395752 C-170.26097833 268.60293854 -170.26324388 267.46191957 -170.26557809 266.28632426 C-170.27082437 263.11416511 -170.27156108 259.94204147 -170.27038372 256.76987934 C-170.27018001 253.35053918 -170.27569567 249.93120755 -170.28044128 246.51187134 C-170.28875546 239.81026165 -170.29149649 233.10866076 -170.29205366 226.40704635 C-170.29252855 220.95952163 -170.29458191 215.51199981 -170.29775429 210.06447601 C-170.30656366 194.62315067 -170.31117333 179.18183229 -170.31042381 163.74050441 C-170.31038386 162.90768093 -170.3103439 162.07485744 -170.31030273 161.21679688 C-170.31026185 160.38295742 -170.31022097 159.54911796 -170.31017885 158.69001064 C-170.3097725 145.17987804 -170.31933849 131.66977333 -170.3334411 118.15964881 C-170.34780392 104.29087585 -170.35471131 90.42211649 -170.35384732 76.55333591 C-170.35351528 68.76580297 -170.35626559 60.97829925 -170.36702538 53.19077301 C-170.37612923 46.5591452 -170.37830665 39.92755986 -170.37151595 33.29592851 C-170.36824988 29.91279703 -170.36928301 26.52981353 -170.3768692 23.14667892 C-170.38456474 19.47737184 -170.37996023 15.80827938 -170.37223816 12.13897705 C-170.37738172 11.07194778 -170.38252529 10.0049185 -170.38782471 8.90555501 C-170.356748 2.23286692 -170.26664057 -3.52187744 -166.0625 -9 C-159.13901158 -14.45040577 -150.51756797 -16.57524242 -142.125 -18.8125 C-140.43769775 -19.26423584 -140.43769775 -19.26423584 -138.71630859 -19.72509766 C-91.74318523 -31.88877454 -38.61643046 -33.35055358 0 0 Z M-89.375 26.5 C-91.23898437 26.72623047 -91.23898437 26.72623047 -93.140625 26.95703125 C-98.03973377 27.75912848 -98.03973377 27.75912848 -106.125 30.6875 C-106.125 68.9675 -106.125 107.2475 -106.125 146.6875 C-89.60257224 153.5718449 -74.96425812 156.13656424 -57.75 150 C-46.40559078 144.8931314 -39.27168954 136.53476087 -34.88671875 125.08203125 C-33.54619733 120.86798188 -33.00029198 116.94716961 -33.01147461 112.5300293 C-33.01155014 111.52936935 -33.01162567 110.52870941 -33.01170349 109.49772644 C-33.01686478 108.4298439 -33.02202606 107.36196136 -33.02734375 106.26171875 C-33.0287587 105.15899124 -33.03017365 104.05626373 -33.03163147 102.92012024 C-33.03721996 99.40505233 -33.04977041 95.89004859 -33.0625 92.375 C-33.06751648 89.98893321 -33.07207913 87.60286543 -33.07617188 85.21679688 C-33.08718563 79.3736761 -33.10391236 73.53059263 -33.125 67.6875 C-33.785 67.6875 -34.445 67.6875 -35.125 67.6875 C-35.0425 66.45 -34.96 65.2125 -34.875 63.9375 C-34.90522748 54.34027612 -38.64842636 45.66589048 -45.125 38.6875 C-45.62644531 38.14480469 -46.12789062 37.60210938 -46.64453125 37.04296875 C-55.34387836 28.68228236 -67.84034012 26.04632744 -79.55078125 25.59375 C-82.85769836 25.71418401 -86.09197795 26.08455585 -89.375 26.5 Z " fill="#5E249F" transform="translate(1286.125,915.3125)"/>
<path d="M0 0 C17.48204042 16.03586463 26.80257948 39.89906788 28.13265991 63.31004333 C28.21534333 66.91118384 28.24093791 70.5072914 28.23828125 74.109375 C28.24256638 75.42681702 28.2468515 76.74425903 28.25126648 78.10162354 C28.25865994 80.87150131 28.25848883 83.64125148 28.25317383 86.41113281 C28.24854564 89.21337954 28.25545694 92.01519202 28.27368164 94.81738281 C28.48698053 127.9087676 24.32829756 156.0591506 0.375 180.875 C-18.92347813 200.16738356 -45.69905792 207.41927357 -72.38574219 207.91845703 C-84.88536236 207.87129912 -97.48270085 205.63693758 -109.0625 200.875 C-109.05361755 201.89119919 -109.04473511 202.90739838 -109.0355835 203.95439148 C-108.95448265 213.53298114 -108.8945274 223.1115011 -108.85525131 232.69035625 C-108.83438015 237.61492413 -108.80607104 242.53921474 -108.76074219 247.46362305 C-108.71726773 252.21633948 -108.69335934 256.96878929 -108.68299103 261.72168922 C-108.67560254 263.53459686 -108.66117446 265.34748997 -108.63957977 267.16028404 C-108.61052413 269.70051941 -108.60654484 272.23965438 -108.60839844 274.7800293 C-108.58682678 275.90320557 -108.58682678 275.90320557 -108.56481934 277.04907227 C-108.59354616 280.68956606 -108.95548381 282.70833058 -110.94146729 285.80134583 C-118.73963222 293.42531935 -134.71143286 291.01048512 -144.875 291.125 C-145.9362207 291.14643066 -146.99744141 291.16786133 -148.09082031 291.18994141 C-154.47283751 291.21694148 -160.27777507 290.78517014 -166.0625 287.875 C-169.78242168 284.06208027 -171.18575136 281.4729377 -171.19672108 276.23153496 C-171.20117892 275.2466855 -171.20563676 274.26183605 -171.21022969 273.24714267 C-171.21004533 272.15728695 -171.20986097 271.06743122 -171.20967102 269.94454956 C-171.21334771 268.79283992 -171.2170244 267.64113028 -171.2208125 266.45452034 C-171.22995068 263.24783215 -171.23455153 260.04117403 -171.23720181 256.83447504 C-171.24110086 253.3796474 -171.25067959 249.92483464 -171.25941467 246.47001648 C-171.27919234 238.12072386 -171.28924779 229.77143 -171.29814246 221.4221198 C-171.30252399 217.49116098 -171.30789122 213.56020351 -171.31313133 209.62924576 C-171.33014634 196.56262682 -171.34464007 183.49600873 -171.35188007 170.42938042 C-171.35379001 167.03723016 -171.35571033 163.64507992 -171.35766602 160.25292969 C-171.35814976 159.40981519 -171.3586335 158.5667007 -171.3591319 157.69803728 C-171.3674305 144.04298984 -171.39276331 130.38803006 -171.42524669 116.73302089 C-171.45831895 102.71624336 -171.47632906 88.69951036 -171.47952431 74.6826936 C-171.48168946 66.81179251 -171.49043854 58.94101917 -171.51598549 51.0701561 C-171.53769495 44.36603944 -171.54574182 37.66208153 -171.53601871 30.95793371 C-171.53147439 27.53815461 -171.5333672 24.11870305 -171.55278015 20.69896889 C-171.5704307 16.98815286 -171.56342528 13.27816843 -171.55024719 9.56735229 C-171.56121644 8.4908809 -171.57218568 7.4144095 -171.58348733 6.30531776 C-171.52949433 0.00996115 -170.76840795 -4.90611628 -167.0625 -10.125 C-162.23148156 -14.41353685 -156.35109223 -15.84587473 -150.25 -17.5625 C-149.20046143 -17.8618042 -148.15092285 -18.1611084 -147.06958008 -18.46948242 C-97.59875547 -32.20994978 -40.94802846 -36.17439431 0 0 Z M-90.1875 25.6875 C-91.44820312 25.83832031 -92.70890625 25.98914063 -94.0078125 26.14453125 C-98.96716566 26.93819482 -98.96716566 26.93819482 -107.0625 29.875 C-107.0625 68.155 -107.0625 106.435 -107.0625 145.875 C-89.64785636 153.13110152 -74.49885777 155.26461832 -56.59375 148.12890625 C-46.23434277 142.99716285 -39.94222058 134.96626395 -35.82421875 124.3671875 C-33.81954522 117.80830692 -33.93116757 111.36159899 -33.96484375 104.5703125 C-33.9662587 103.49119598 -33.96767365 102.41207947 -33.96913147 101.30026245 C-33.97471156 97.86681298 -33.98726045 94.43342964 -34 91 C-34.00501757 88.66666761 -34.00958003 86.3333342 -34.01367188 84 C-34.02467447 78.29164425 -34.04139279 72.58332685 -34.0625 66.875 C-34.7225 66.875 -35.3825 66.875 -36.0625 66.875 C-35.98 65.823125 -35.8975 64.77125 -35.8125 63.6875 C-35.84673136 54.05137174 -39.46819163 44.83654588 -46.0625 37.875 C-46.56394531 37.33359375 -47.06539062 36.7921875 -47.58203125 36.234375 C-58.62634012 25.59314309 -75.67266088 23.8841412 -90.1875 25.6875 Z " fill="#5E249F" transform="translate(2418.0625,916.125)"/>
<path d="M0 0 C1.27746094 -0.02900391 2.55492187 -0.05800781 3.87109375 -0.08789062 C14.07674494 -0.15578902 23.79803416 1.19652025 31.5 8.47265625 C37.23930286 15.51226991 39.13055516 23.03214965 39.11352539 31.9387207 C39.11367142 32.58318649 39.11381744 33.22765228 39.1139679 33.89164734 C39.11327506 36.00722704 39.10551231 38.12271706 39.09765625 40.23828125 C39.09578983 41.71087089 39.09436699 43.18346115 39.09336853 44.65605164 C39.08956096 48.52102388 39.07974579 52.3859582 39.06866455 56.25091553 C39.0584125 60.19917284 39.05386279 64.14743632 39.04882812 68.09570312 C39.03812187 75.83465265 39.02106669 83.573571 39 91.3125 C39.60409698 91.10654205 40.20819397 90.90058411 40.83059692 90.68838501 C41.63045013 90.4181955 42.43030334 90.14800598 43.25439453 89.86962891 C44.04411652 89.60179596 44.8338385 89.33396301 45.64749146 89.05801392 C49.01697755 87.9902181 52.3953032 87.28573839 55.875 86.6875 C56.59405518 86.56342773 57.31311035 86.43935547 58.05395508 86.31152344 C83.07304456 82.27575247 110.54807665 83.39478319 132 98.3125 C136.36364681 101.63355054 140.21448871 105.3536492 144 109.3125 C144.73863281 110.08078125 145.47726562 110.8490625 146.23828125 111.640625 C162.04925679 129.69276794 166.13347002 154.78311272 166.17700195 177.91088867 C166.18327657 179.38177141 166.18992424 180.85265259 166.19691467 182.3235321 C166.21781759 187.12583337 166.22829577 191.9281345 166.23828125 196.73046875 C166.24233227 198.38835478 166.2464493 200.04624065 166.25063133 201.70412636 C166.26964313 209.48622301 166.2838893 217.26831034 166.2922433 225.05042571 C166.30203757 234.02411663 166.3284306 242.99756234 166.36874419 251.97116679 C166.39888176 258.9182723 166.41370943 265.86530731 166.41702431 272.81247693 C166.41937504 276.95809025 166.42834029 281.10344033 166.45348549 285.24898338 C166.47673387 289.14381495 166.48101279 293.03820919 166.47072411 296.93309212 C166.47022805 298.36135182 166.47656926 299.78963287 166.49028015 301.21782684 C166.50796034 303.16863141 166.49852022 305.11962541 166.48774719 307.07048035 C166.49013555 308.16163241 166.4925239 309.25278448 166.49498463 310.37700176 C165.88012253 314.02343139 164.54446029 315.67810205 162 318.3125 C156.13094709 321.55344533 149.26007985 320.64113003 142.75 320.625 C140.82220703 320.64916992 140.82220703 320.64916992 138.85546875 320.67382812 C128.56381749 320.67910589 119.79304208 319.48209871 112 312.3125 C104.42853424 304.08264591 103.55701304 294.58364576 103.61523438 283.82299805 C103.6098616 282.60225586 103.60448883 281.38151367 103.59895325 280.1237793 C103.58920354 277.48490416 103.58471849 274.84665726 103.58930969 272.20783043 C103.59616998 268.02409248 103.58016434 263.84062466 103.56091309 259.65693665 C103.52318442 250.77130551 103.51028382 241.88569892 103.5 233 C103.48889644 223.41416726 103.47333716 213.82846106 103.42928743 204.24271423 C103.41107245 200.09544934 103.40698765 195.9484982 103.41422272 191.80120313 C103.41612 188.59748971 103.3988053 185.39386268 103.38476562 182.19018555 C103.39091385 181.05992447 103.39706207 179.92966339 103.40339661 178.76515198 C103.30870616 166.38912861 101.06912179 155.51955638 92.25 146.5 C78.93612179 137.53873582 61.38512349 139.89276113 46.42683411 142.81523132 C45.54452621 142.99310684 44.66221832 143.17098236 43.75317383 143.35424805 C42.86068436 143.53384567 41.96819489 143.7134433 41.04866028 143.89848328 C40.37260239 144.0351088 39.69654449 144.17173431 39 144.3125 C39.00414807 145.58748321 39.00414807 145.58748321 39.00837994 146.88822365 C39.07463113 167.56971529 39.12427639 188.25118864 39.15543652 208.93276405 C39.17090581 218.93421871 39.19199657 228.93560253 39.22631836 238.93701172 C39.25621875 247.65417445 39.27557455 256.37128588 39.28226548 265.08849847 C39.28617665 269.7042624 39.2953698 274.31987957 39.31719017 278.93559647 C39.33756539 283.28085703 39.3438317 287.62591049 39.33932304 291.97121429 C39.34014778 293.56513723 39.34610731 295.15906716 39.35761642 296.75294876 C39.37257714 298.93187611 39.3689411 301.11002499 39.36076355 303.28897095 C39.36352893 304.50758127 39.36629431 305.7261916 39.36914349 306.98172951 C38.81867413 311.94859782 37.17315664 315.19950524 33.5625 318.625 C24.81085472 322.77051618 13.33212513 321.5214007 3.8125 321.5625 C2.00362305 321.5934375 2.00362305 321.5934375 0.15820312 321.625 C-7.75749562 321.65958525 -15.55910665 321.66737101 -21.5 315.875 C-23.79716311 311.95067968 -24.12518541 308.69270814 -24.13142776 304.18588543 C-24.13526891 303.14418625 -24.13911005 302.10248706 -24.1430676 301.02922124 C-24.14220112 299.88614485 -24.14133463 298.74306846 -24.14044189 297.56535339 C-24.14341302 296.34997605 -24.14638414 295.13459871 -24.1494453 293.88239175 C-24.15662597 290.50725883 -24.15930464 287.13217681 -24.16004276 283.7570399 C-24.161894 280.11753639 -24.16944165 276.47804389 -24.17617798 272.83854675 C-24.18975857 264.87989127 -24.19578548 256.92124082 -24.20018864 248.96257567 C-24.20295129 243.99349025 -24.20718867 239.02440676 -24.21169281 234.05532265 C-24.22388469 220.29806102 -24.23418444 206.54080096 -24.2375679 192.78353405 C-24.23778747 191.90308732 -24.23800703 191.02264058 -24.23823325 190.11551364 C-24.23845153 189.23295976 -24.23866981 188.35040587 -24.2388947 187.44110793 C-24.23933817 185.65271453 -24.23978473 183.86432113 -24.24023438 182.07592773 C-24.2404558 181.18882271 -24.24067723 180.30171769 -24.24090537 179.3877307 C-24.24485401 165.0111357 -24.26231037 150.63459137 -24.2855939 136.25801595 C-24.30930434 121.49876153 -24.3217696 106.73953254 -24.32293582 91.98025876 C-24.32385271 83.69305589 -24.32960856 75.40591905 -24.34775543 67.11873436 C-24.36315221 60.06258498 -24.36827937 53.00652205 -24.36001733 45.95035907 C-24.35610942 42.35050024 -24.35704716 38.75081552 -24.37107468 35.15097809 C-24.38614649 31.24744265 -24.37795128 27.34415252 -24.36749268 23.44059753 C-24.37957728 21.7360212 -24.37957728 21.7360212 -24.39190602 19.99700898 C-24.35420219 13.99215945 -23.95708856 9.59008132 -21 4.3125 C-15.14487952 -1.17667545 -7.52069435 0.05557163 0 0 Z " fill="#5E249F" transform="translate(1371,885.6875)"/>
<path d="M0 0 C13.33850244 12.60862543 21.07782927 28.44336116 23.87353516 46.44335938 C24.00127634 47.26564278 24.12901752 48.08792618 24.26062965 48.93512726 C25.51934451 57.64453582 25.66698905 66.25842397 25.62890625 75.04296875 C25.63093776 76.74149703 25.63385801 78.44002444 25.63760376 80.1385498 C25.64197668 83.66455551 25.63576155 87.19033019 25.62158203 90.71630859 C25.60449323 95.17678995 25.61436194 99.63672925 25.63229942 104.09719086 C25.64327538 107.59450167 25.63962866 111.09168946 25.63191605 114.58900452 C25.6299519 116.23120696 25.63223548 117.87342156 25.63935471 119.51560974 C25.72858541 145.86335967 20.86425926 170.73159056 2.23046875 190.57421875 C-20.18467113 211.91702941 -49.62690226 217.10618773 -79.578125 216.7890625 C-103.37731274 216.19839359 -126.62037848 209.32080032 -144.76953125 193.57421875 C-145.60484375 192.93097656 -146.44015625 192.28773438 -147.30078125 191.625 C-156.74416163 183.78041978 -162.89748765 172.56954662 -167.01953125 161.19921875 C-167.26590332 160.52818115 -167.51227539 159.85714355 -167.76611328 159.16577148 C-172.12371078 146.50705615 -172.08145737 133.7122073 -172.0703125 120.49609375 C-172.0742096 118.55617177 -172.07854632 116.61625064 -172.08329773 114.67633057 C-172.0907231 110.62517523 -172.09049601 106.57410709 -172.08520508 102.52294922 C-172.07942217 97.37484322 -172.09633116 92.22709838 -172.11954975 87.07905197 C-172.13440502 83.07574435 -172.13514278 79.07252129 -172.13204002 75.06919098 C-172.13254755 73.17330461 -172.13767626 71.27741278 -172.14785194 69.38155365 C-172.27058527 43.31697633 -166.94530206 20.7315526 -148.56640625 1.2109375 C-110.79761421 -34.39511645 -38.59757615 -33.80690379 0 0 Z M-98.76953125 38.57421875 C-107.66858129 49.71501422 -106.93068998 63.5420026 -106.9375 77.0625 C-106.94072001 78.57171153 -106.94408462 80.08092276 -106.94758606 81.59013367 C-106.95355068 84.74458539 -106.95542872 87.89900983 -106.95483398 91.0534668 C-106.95473252 95.06765846 -106.96838068 99.08167264 -106.98560619 103.09582233 C-106.9968012 106.21106244 -106.9987509 109.32626064 -106.99822426 112.44151878 C-106.99939326 113.92008259 -107.00375325 115.39864787 -107.01155663 116.87719154 C-107.0750213 130.14337015 -106.93538346 143.00590759 -97.64453125 153.32421875 C-89.8062714 160.70735383 -79.3247629 161.89566384 -69.00390625 161.79296875 C-58.83238153 161.10503954 -51.11019936 158.27524345 -44.08203125 150.82421875 C-37.55084398 143.05311513 -36.65545177 134.36544428 -36.62426758 124.4206543 C-36.62090897 123.74319153 -36.61755035 123.06572876 -36.61408997 122.36773682 C-36.60466373 120.14878457 -36.60264105 117.92990847 -36.6015625 115.7109375 C-36.59834402 114.15306061 -36.59497951 112.59518402 -36.59147644 111.03730774 C-36.58550589 107.77852682 -36.58363439 104.51977233 -36.58422852 101.26098633 C-36.58432999 97.10878645 -36.57068347 92.95675811 -36.55345631 88.80459881 C-36.54227485 85.5881728 -36.54031119 82.37178746 -36.54083824 79.15534401 C-36.53966715 77.62571433 -36.535295 76.0960833 -36.52750587 74.56647301 C-36.46775538 61.62089309 -36.75841599 48.9078853 -45.48828125 38.53125 C-53.75360928 30.58772777 -63.14593276 29.00877148 -74.20214844 29.17163086 C-83.84848146 29.53097611 -91.74187571 31.62482218 -98.76953125 38.57421875 Z " fill="#5E249F" transform="translate(1741.76953125,994.42578125)"/>
<path d="M0 0 C17.64052197 16.55366517 23.81047607 40.09661605 24.88015747 63.54006958 C25.07566182 69.86665213 25.12155269 76.19120633 25.12060547 82.52050781 C25.12503978 85.842296 25.16167323 89.1628151 25.19921875 92.484375 C25.20507795 94.61718303 25.20905333 96.74999726 25.2109375 98.8828125 C25.22530853 99.86516876 25.23967957 100.84752502 25.25448608 101.85964966 C25.21364489 108.00327463 24.40648858 111.69115358 20.75 116.6875 C14.10195495 121.11953003 4.05917532 119.83439896 -3.73852539 119.81689453 C-4.72202972 119.81864685 -5.70553406 119.82039917 -6.71884155 119.82220459 C-9.92846506 119.82656117 -13.13803231 119.82370923 -16.34765625 119.8203125 C-18.59158844 119.82098683 -20.83552057 119.82195794 -23.07945251 119.82321167 C-27.76025088 119.82467981 -32.44103005 119.82256075 -37.12182617 119.81787109 C-43.13102506 119.81214454 -49.14017957 119.81547678 -55.14937687 119.82144356 C-59.77231688 119.82504776 -64.39524625 119.82391175 -69.01818657 119.82131577 C-71.23544762 119.82064764 -73.45270963 119.82147094 -75.66996956 119.82379532 C-78.7553478 119.82632271 -81.84065265 119.82248136 -84.92602539 119.81689453 C-85.84597794 119.81891876 -86.76593048 119.82094299 -87.71376038 119.82302856 C-88.5504425 119.82020874 -89.38712463 119.81738892 -90.24916077 119.81448364 C-90.97783891 119.81410662 -91.70651705 119.81372959 -92.45727634 119.81334114 C-94.25 119.6875 -94.25 119.6875 -96.25 118.6875 C-96.50869267 122.31100958 -96.72639461 125.93593159 -96.9375 129.5625 C-97.01033203 130.57570313 -97.08316406 131.58890625 -97.15820312 132.6328125 C-97.66663546 141.96404131 -96.31214294 150.27821418 -90.25 157.6875 C-82.01873129 166.04192984 -72.82984748 168.27084194 -61.25 168.6875 C-44.8521229 168.41729016 -29.42367835 163.03497255 -14.66845703 156.27880859 C-10.37753119 154.35954758 -7.05454287 153.07354653 -2.25 153.6875 C5.74266637 158.37884765 11.36402187 168.98639567 13.75 177.6875 C14.7564365 185.29459148 12.95931479 191.93865069 8.5625 198.1875 C-4.95658488 212.69820479 -31.57765325 216.53602198 -50.25 218.6875 C-50.91918457 218.76871094 -51.58836914 218.84992188 -52.27783203 218.93359375 C-79.23874459 222.0202561 -110.40129045 216.63797378 -132.25 199.6875 C-149.69553185 184.58607062 -160.01219554 164.78756195 -162.25 141.6875 C-162.38163368 138.92335543 -162.39699616 136.16515351 -162.39526367 133.39819336 C-162.39862228 132.61157318 -162.4019809 131.824953 -162.40544128 131.01449585 C-162.41487373 128.43542869 -162.41689086 125.85642705 -162.41796875 123.27734375 C-162.42118796 121.46383132 -162.42455251 119.65031915 -162.42805481 117.83680725 C-162.43402779 114.04004312 -162.43589673 110.24330169 -162.43530273 106.4465332 C-162.43520151 101.62114162 -162.44882046 96.7958985 -162.46607494 91.97054195 C-162.47728927 88.22377375 -162.47921903 84.47704029 -162.47869301 80.73025703 C-162.47986025 78.95356297 -162.48420992 77.17686762 -162.49202538 75.40019035 C-162.59415031 49.77537114 -158.88430171 25.5092628 -141.25 5.6875 C-140.65703125 5.00042969 -140.0640625 4.31335938 -139.453125 3.60546875 C-106.41267719 -32.18834971 -35.44752196 -30.27698116 0 0 Z M-91.109375 39.6953125 C-100.36820981 52.48350514 -98.25 66.3565537 -98.25 81.6875 C-76.47 81.6875 -54.69 81.6875 -32.25 81.6875 C-31.19958346 58.32120316 -31.19958346 58.32120316 -41.25 38.6875 C-48.82599916 32.06938579 -57.80881582 29.08234461 -67.81640625 29.47265625 C-76.77536963 30.26357597 -84.82741675 32.91185338 -91.109375 39.6953125 Z " fill="#5E249F" transform="translate(2185.25,990.3125)"/>
<path d="M0 0 C0.71412048 0.00304138 1.42824097 0.00608276 2.16400146 0.00921631 C28.0464266 0.17144562 50.95800299 6.09951641 70.125 24.3125 C90.37097576 45.54288301 91.98009386 72.19560099 92.10009766 99.91894531 C92.1134854 102.68522851 92.14145103 105.45078251 92.18212891 108.21679688 C92.2409638 112.22017717 92.25875064 116.22277273 92.2734375 120.2265625 C92.29610687 121.46105133 92.31877625 122.69554016 92.34213257 123.96743774 C92.31854941 133.52428296 92.31854941 133.52428296 89.84228516 137.13818359 C83.08695698 142.16121224 74.10268145 141.72632935 65.97607422 141.66455078 C64.43769646 141.66498886 64.43769646 141.66498886 62.86824036 141.66543579 C59.5136335 141.6640541 56.15925505 141.64854793 52.8046875 141.6328125 C50.46485516 141.62907824 48.12502124 141.62623322 45.78518677 141.62423706 C39.65319433 141.61663314 33.52129797 141.59701266 27.38934326 141.5748291 C21.12155456 141.55430063 14.8537502 141.54522041 8.5859375 141.53515625 C-3.69275034 141.51376357 -15.97136715 141.47966701 -28.25 141.4375 C-28.41265997 143.0226885 -28.57413059 144.60799907 -28.73510742 146.19335938 C-28.82515549 147.07616577 -28.91520355 147.95897217 -29.00798035 148.86853027 C-30.11966873 160.66878598 -29.48616712 169.55372844 -23.25 179.6875 C-16.55692165 186.82678357 -6.62543451 189.38744429 2.76953125 190.31640625 C20.35585108 190.85141696 36.95502458 185.73851 52.59936523 178.02880859 C57.15303963 175.85153239 60.58515038 174.86434337 65.75 175.4375 C67.95187879 177.08890909 69.12552837 178.29242619 70.75 180.4375 C71.31847656 181.16582031 71.88695313 181.89414063 72.47265625 182.64453125 C78.46990416 190.72999287 82.97770856 198.36842283 81.47265625 208.69921875 C79.64467563 215.62578316 76.3357175 220.82753091 70.25 224.6875 C68.43703477 225.64381896 66.6015961 226.55830675 64.75 227.4375 C63.73035156 227.93894531 62.71070312 228.44039062 61.66015625 228.95703125 C47.83837244 235.32763172 32.86496354 238.92083319 17.75 240.4375 C16.54730469 240.5715625 15.34460937 240.705625 14.10546875 240.84375 C-13.55084025 243.30956073 -43.64297556 237.80276272 -65.83203125 220.4140625 C-81.71308 206.89931441 -91.40372906 188.00239639 -94.25 167.4375 C-94.39744627 164.47978477 -94.4070643 161.52593886 -94.41113281 158.56494141 C-94.41609772 157.69243744 -94.42106262 156.81993347 -94.42617798 155.92098999 C-94.44074052 153.04367266 -94.44759446 150.16641059 -94.453125 147.2890625 C-94.45595238 146.2995396 -94.45877975 145.31001671 -94.46169281 144.29050827 C-94.47666756 139.04604579 -94.48590575 133.80161065 -94.49023438 128.55712891 C-94.49569278 123.18019393 -94.51966988 117.80351555 -94.54820633 112.42666054 C-94.56698376 108.25864982 -94.57204644 104.09069879 -94.57357025 99.92264938 C-94.57656724 97.94302352 -94.58449373 95.96339795 -94.59775543 93.98381424 C-94.759805 67.91778276 -89.66466661 44.07981105 -71.25 24.4375 C-51.93414574 6.1348293 -25.95347366 -0.23668095 0 0 Z M-22.59765625 60.375 C-33.00262605 73.36276372 -30.25 86.50742064 -30.25 103.4375 C-8.8 103.4375 12.65 103.4375 34.75 103.4375 C36.04837262 80.76550395 36.04837262 80.76550395 27.35546875 61 C20.39927231 54.22997913 12.02058389 51.49986804 2.5625 51.0625 C-6.72871464 51.2818759 -15.85185703 53.75755636 -22.59765625 60.375 Z " fill="#5E249F" transform="translate(2562.25,968.5625)"/>
<path d="M0 0 C19.66260953 18.48696771 25.55160878 42.94980086 27 69 C27.13271031 73.56299901 27.15681692 78.1225032 27.16113281 82.68725586 C27.16609772 83.97528107 27.17106262 85.26330627 27.17617798 86.59036255 C27.18911273 90.07542915 27.19570656 93.5604767 27.20018864 97.04556346 C27.20314419 99.22901769 27.20725282 101.41246697 27.21169281 103.59591866 C27.22530401 110.44681739 27.23500739 117.29770448 27.2388947 124.14861578 C27.2433909 132.02474094 27.26103744 139.90069391 27.2898953 147.77676672 C27.31152565 153.89430877 27.32159934 160.01180232 27.32293582 166.12938219 C27.32398082 169.77190462 27.32982623 173.41426373 27.34775543 177.05674553 C27.36733214 181.11077252 27.36294186 185.1644368 27.35644531 189.21850586 C27.3656601 190.41499252 27.37487488 191.61147919 27.3843689 192.84422302 C27.35348653 198.99098595 27.10882448 203.62853996 24 209 C19.78746193 212.66940507 16.72433194 213.50490011 11.203125 213.49609375 C9.9140625 213.49673828 8.625 213.49738281 7.296875 213.49804688 C6.63107422 213.48765381 5.96527344 213.47726074 5.27929688 213.46655273 C3.26867837 213.43776741 1.26073345 213.44592446 -0.75 213.45898438 C-10.57612299 213.39536904 -20.27370573 212.67270868 -28 206 C-36.03575224 196.57344449 -36.29859115 186.27384368 -36.25537109 174.32104492 C-36.25899155 173.09200943 -36.262612 171.86297394 -36.26634216 170.59669495 C-36.27320579 167.94269567 -36.27663775 165.28895137 -36.27439499 162.63496971 C-36.27153629 158.42571145 -36.28600875 154.21661756 -36.30337524 150.00740051 C-36.35015881 138.04459072 -36.37432785 126.08179385 -36.38085938 114.11889648 C-36.3846273 107.49672985 -36.40279095 100.87475135 -36.43595374 94.25266534 C-36.45599841 90.08136576 -36.45862281 85.910557 -36.44767356 81.73922956 C-36.44442036 78.51512552 -36.46722871 75.29117921 -36.48583984 72.06713867 C-36.47766739 70.93269318 -36.46949493 69.79824768 -36.46107483 68.62942505 C-36.56636468 58.30885526 -38.32592526 49.06841739 -45 41 C-45 40.34 -45 39.68 -45 39 C-47.80524845 37.57824908 -50.63240199 36.22890116 -53.5 34.9375 C-54.2528125 34.59589844 -55.005625 34.25429687 -55.78125 33.90234375 C-61.39202001 31.62049891 -66.76811244 31.81638939 -72.75 31.8125 C-73.69488281 31.80025391 -74.63976563 31.78800781 -75.61328125 31.77539062 C-81.62427221 31.76338465 -87.45377151 32.23020244 -93.40332031 33.0144043 C-94.13733063 33.10875511 -94.87134094 33.20310593 -95.62759399 33.30031586 C-97.41873454 33.53092953 -99.20941707 33.76509597 -101 34 C-100.99723462 34.86121806 -100.99446924 35.72243612 -100.99162006 36.6097517 C-100.92538834 57.55793929 -100.8757331 78.50610885 -100.84456348 99.45437908 C-100.82908973 109.58477728 -100.80799048 119.71510562 -100.77368164 129.84545898 C-100.74379487 138.67431348 -100.72442869 147.50311738 -100.71773452 156.33202106 C-100.71382104 161.00755596 -100.70461323 165.68294613 -100.68280983 170.35843468 C-100.6624561 174.75868343 -100.65616395 179.15872773 -100.66067696 183.55901909 C-100.65985126 185.17432516 -100.65387893 186.78963803 -100.64238358 188.40490341 C-100.62745655 190.61045283 -100.63104668 192.81523044 -100.63923645 195.02079773 C-100.63647107 196.25507854 -100.63370569 197.48935934 -100.63085651 198.76104259 C-101.15501135 203.36010841 -103.00978802 205.89431658 -106.04125977 209.27929688 C-110.41438961 211.8225611 -114.36457329 211.5731446 -119.33984375 211.53125 C-120.33955704 211.5350769 -121.33927032 211.53890381 -122.36927795 211.54284668 C-124.47983814 211.54556405 -126.59043211 211.53821519 -128.70092773 211.52148438 C-131.92313164 211.50009538 -135.14310016 211.52128102 -138.36523438 211.546875 C-140.41927574 211.54423125 -142.47331571 211.53910531 -144.52734375 211.53125 C-145.48688461 211.53934692 -146.44642548 211.54744385 -147.43504333 211.55578613 C-153.1112666 211.47664814 -156.54956657 210.88087998 -161 207 C-163.50154183 203.24768726 -163.28474294 200.31756217 -163.26742554 195.97294617 C-163.27195665 195.14565516 -163.27648776 194.31836415 -163.28115618 193.46600372 C-163.29385279 190.68390396 -163.29217643 187.90199864 -163.29052734 185.11987305 C-163.29650936 183.12918851 -163.30331414 181.13850629 -163.31088257 179.14782715 C-163.32858418 173.73247303 -163.33323973 168.31718207 -163.33451414 162.90180182 C-163.33641103 158.38388327 -163.34376624 153.8659795 -163.35085833 149.34806663 C-163.3671561 138.68947498 -163.37202606 128.03091713 -163.37060547 117.37231445 C-163.36940402 106.37224829 -163.39050336 95.37237834 -163.4220928 84.37236184 C-163.4482341 74.93363511 -163.45897365 65.49497253 -163.45769465 56.05620986 C-163.45718434 50.41655546 -163.46290566 44.7770753 -163.48405075 39.13745689 C-163.50339664 33.83261454 -163.5035825 28.52811327 -163.48901749 23.22325897 C-163.48692368 21.27618983 -163.4916642 19.32909955 -163.5037384 17.38206673 C-163.51915625 14.72364378 -163.50990588 12.06640196 -163.49447632 9.40800476 C-163.50476344 8.63766566 -163.51505057 7.86732657 -163.52564943 7.07364386 C-163.45932173 1.90142947 -162.25557999 -1.0119449 -159 -5 C-154.017926 -9.17437413 -148.39551108 -10.70220895 -142.25 -12.4375 C-141.20013916 -12.7368042 -140.15027832 -13.0361084 -139.06860352 -13.34448242 C-94.93721731 -25.56201486 -37.54645499 -32.42383788 0 0 Z " fill="#5E249F" transform="translate(1966,993)"/>
<path d="M0 0 C25.41 0 50.82 0 77 0 C77 40.59 77 81.18 77 123 C58.01351139 130.59459544 38.59920223 132.92490897 19 126 C15.88675017 124.34332296 13.47425102 122.49949848 11 120 C10.113125 119.13375 9.22625 118.2675 8.3125 117.375 C1.2698828 108.35090067 -0.15877196 97.53206148 -0.11352539 86.50634766 C-0.11367142 85.56912872 -0.11381744 84.63190979 -0.1139679 83.66629028 C-0.1132737 80.58219045 -0.10550444 77.49815173 -0.09765625 74.4140625 C-0.09579032 72.27029453 -0.09436724 70.12652612 -0.09336853 67.98275757 C-0.08955716 62.35051285 -0.07973866 56.71829407 -0.06866455 51.08605957 C-0.05661851 44.32286617 -0.05204162 37.55966408 -0.04621124 30.79646301 C-0.03652617 20.53095732 -0.01735994 10.2655085 0 0 Z " fill="#60269F" transform="translate(613,946)"/>
</svg>
