<svg xmlns="http://www.w3.org/2000/svg" xmlns:xlink="http://www.w3.org/1999/xlink" width="239.229" height="92.976" viewBox="0 0 239.229 92.976">
  <defs>
    <linearGradient id="linear-gradient" x1="0.5" x2="0.5" y2="1" gradientUnits="objectBoundingBox">
      <stop offset="0" stop-color="#fff" stop-opacity="0.569"/>
      <stop offset="1" stop-color="gray" stop-opacity="0"/>
    </linearGradient>
    <linearGradient id="linear-gradient-2" x1="0.5" x2="0.5" y2="1" gradientUnits="objectBoundingBox">
      <stop offset="0" stop-color="#ebedf0"/>
      <stop offset="1" stop-color="#c2c7d1"/>
    </linearGradient>
  </defs>
  <g id="Group_22696" data-name="Group 22696" transform="translate(-86.462 -2078.5)">
    <g id="Group_21522" data-name="Group 21522" transform="translate(86.52 2160.476)">
      <text id="_2019" data-name="2019" transform="translate(0 9)" fill="#f7f8f9" font-size="8" font-family="Helvetica-Bold, Helvetica" font-weight="700"><tspan x="0" y="0">2019</tspan></text>
      <text id="_2020" data-name="2020" transform="translate(43.047 9)" fill="#f7f8f9" font-size="8" font-family="Helvetica-Bold, Helvetica" font-weight="700"><tspan x="0" y="0">2020</tspan></text>
      <text id="_2021" data-name="2021" transform="translate(86.093 9)" fill="#f7f8f9" font-size="8" font-family="Helvetica-Bold, Helvetica" font-weight="700"><tspan x="0" y="0">2021</tspan></text>
      <text id="_2022" data-name="2022" transform="translate(129.14 9)" fill="#f7f8f9" font-size="8" font-family="Helvetica-Bold, Helvetica" font-weight="700"><tspan x="0" y="0">2022</tspan></text>
      <text id="_2023" data-name="2023" transform="translate(172.187 9)" fill="#f7f8f9" font-size="8" font-family="Helvetica-Bold, Helvetica" font-weight="700"><tspan x="0" y="0">2023</tspan></text>
      <text id="_2024" data-name="2024" transform="translate(215.234 9)" fill="#f7f8f9" font-size="8" font-family="Helvetica-Bold, Helvetica" font-weight="700"><tspan x="0" y="0">2024</tspan></text>
    </g>
    <path id="Path_17217" data-name="Path 17217" d="M451.813,2083.384C351.554,2107.694,217,2110.519,217,2110.519v55.623H451.813Z" transform="translate(-130.48 0.668)" fill="url(#linear-gradient)"/>
    <g id="Group_22493" data-name="Group 22493" transform="translate(83.333 2078.5)">
      <g id="Ellipse_213" data-name="Ellipse 213" transform="translate(229.224)" fill="#67a2fa" stroke="#f7f7f7" stroke-width="0.8">
        <circle cx="6.567" cy="6.567" r="6.567" stroke="none"/>
        <circle cx="6.567" cy="6.567" r="6.167" fill="none"/>
      </g>
      <circle id="Ellipse_212" data-name="Ellipse 212" cx="3.94" cy="3.94" r="3.94" transform="translate(231.851 2.627)" fill="#cff5e2"/>
    </g>
    <path id="Rectangle_3073" data-name="Rectangle 3073" d="M2.5,0h0A2.5,2.5,0,0,1,5,2.5V49a0,0,0,0,1,0,0H0a0,0,0,0,1,0,0V2.5A2.5,2.5,0,0,1,2.5,0Z" transform="translate(87 2111)" opacity="0.215" fill="url(#linear-gradient-2)"/>
    <path id="Rectangle_3074" data-name="Rectangle 3074" d="M3,0H3A3,3,0,0,1,6,3V51a0,0,0,0,1,0,0H0a0,0,0,0,1,0,0V3A3,3,0,0,1,3,0Z" transform="translate(138 2109)" opacity="0.215" fill="url(#linear-gradient-2)"/>
    <path id="Rectangle_3075" data-name="Rectangle 3075" d="M3,0H3A3,3,0,0,1,6,3V54a0,0,0,0,1,0,0H0a0,0,0,0,1,0,0V3A3,3,0,0,1,3,0Z" transform="translate(181 2106)" opacity="0.215" fill="url(#linear-gradient-2)"/>
    <path id="Rectangle_3076" data-name="Rectangle 3076" d="M3,0H3A3,3,0,0,1,6,3V59a0,0,0,0,1,0,0H0a0,0,0,0,1,0,0V3A3,3,0,0,1,3,0Z" transform="translate(224 2101)" opacity="0.215" fill="url(#linear-gradient-2)"/>
    <path id="Rectangle_3077" data-name="Rectangle 3077" d="M3,0H3A3,3,0,0,1,6,3V65a0,0,0,0,1,0,0H0a0,0,0,0,1,0,0V3A3,3,0,0,1,3,0Z" transform="translate(267 2095)" opacity="0.215" fill="url(#linear-gradient-2)"/>
    <path id="Rectangle_3078" data-name="Rectangle 3078" d="M2.5,0h0A2.5,2.5,0,0,1,5,2.5V74a0,0,0,0,1,0,0H0a0,0,0,0,1,0,0V2.5A2.5,2.5,0,0,1,2.5,0Z" transform="translate(316 2086)" opacity="0.215" fill="url(#linear-gradient-2)"/>
  </g>
</svg>
