<svg xmlns="http://www.w3.org/2000/svg" width="28" height="24" viewBox="0 0 20 32" class="jsx-3983662056"><g data-name="Group 22177" class="jsx-3983662056"><path d="M3.75 0.61L16.87 8.16L14.06 10.97L3.75 0.61ZM1.03 0L13.08 12L1.03 24C0.42 23.73 0 23.13 0 22.42C0 22.4 0 22.37 0 22.35V1.64C0 1.62 0 1.6 0 1.57C0 0.87 0.42 0.27 1.02 0H1.03ZM20.95 10.59C21.36 10.9 21.63 11.39 21.63 11.93C21.63 11.95 21.63 11.97 21.63 11.99C21.63 11.99 21.63 12.08 21.63 12.13C21.63 12.65 21.38 13.1 20.99 13.39L18.18 14.99L15.13 11.99L18.18 8.94L20.95 10.58V10.59ZM3.75 23.39L14.06 13.03L16.87 15.84L3.75 23.39Z" transform="translate(7.723 5.284)" class="jsx-3983662056 cls-google-play"></path></g></svg>