<?xml version="1.0" encoding="UTF-8"?>
<svg version="1.1" xmlns="http://www.w3.org/2000/svg" width="196" height="60">
<path d="M0 0 C0.66 0 1.32 0 2 0 C1.54300722 5.02692063 -0.99241748 8.14896261 -4 12 C-3.34 12.37125 -2.68 12.7425 -2 13.125 C0 15 0 15 0.3125 18.0625 C0 21 0 21 -1 23 C-1.66 23 -2.32 23 -3 23 C-3 21.35 -3 19.7 -3 18 C-4.32 17.67 -5.64 17.34 -7 17 C-7.66 21.29 -8.32 25.58 -9 30 C-6.8653125 28.63875 -6.8653125 28.63875 -4.6875 27.25 C-3.88699219 26.73953125 -3.08648438 26.2290625 -2.26171875 25.703125 C0.05776606 23.95650086 1.53611266 22.50401781 3 20 C2.77131906 16.31184707 2.77131906 16.31184707 2 13 C3.9375 13.5625 3.9375 13.5625 6 15 C7.24681431 19.05214652 7.37171258 21.17209471 5.625 25.0625 C2.21897881 28.87399991 -1.64432828 31.37542858 -6 34 C-5.34 36.97 -4.68 39.94 -4 43 C-5.32 42.67 -6.64 42.34 -8 42 C-9.25 38.9375 -9.25 38.9375 -10 36 C-13.03984332 36.24815048 -14.44278337 36.42404092 -17 38 C-19.11815552 41.04167133 -20.82543109 44.15015201 -22.51953125 47.4453125 C-23.00808594 48.28835937 -23.49664062 49.13140625 -24 50 C-24.66 50 -25.32 50 -26 50 C-25.49202991 45.6822542 -24.80317221 41.96697886 -23 38 C-24.3303125 38.1546875 -24.3303125 38.1546875 -25.6875 38.3125 C-29 38 -29 38 -31.875 35.8125 C-34 33 -34 33 -34.3125 30.1875 C-34.209375 29.465625 -34.10625 28.74375 -34 28 C-33.34 28 -32.68 28 -32 28 C-31.77570312 28.63421875 -31.55140625 29.2684375 -31.3203125 29.921875 C-30.16214243 32.22016157 -30.16214243 32.22016157 -27.6171875 32.828125 C-26.71226563 32.96734375 -25.80734375 33.1065625 -24.875 33.25 C-23.96492188 33.39953125 -23.05484375 33.5490625 -22.1171875 33.703125 C-21.41851562 33.80109375 -20.71984375 33.8990625 -20 34 C-19.93941406 33.41992188 -19.87882812 32.83984375 -19.81640625 32.2421875 C-19.33983439 27.79907137 -18.78991334 23.40094577 -18 19 C-21.74667202 20.6327851 -21.74667202 20.6327851 -25 23 C-25.04080783 24.99958364 -25.04254356 27.00045254 -25 29 C-26.32 28.67 -27.64 28.34 -29 28 C-29.3125 25.3125 -29.3125 25.3125 -29 22 C-26.53856432 19.0728873 -24.17875822 17.11917214 -21 15 C-22.2375 14.1028125 -22.2375 14.1028125 -23.5 13.1875 C-24.325 12.465625 -25.15 11.74375 -26 11 C-26 10.01 -26 9.02 -26 8 C-23.4800269 8.4499952 -22.11819916 8.9015007 -20.125 10.5625 C-17.1106875 12.60159375 -15.5835428 12.63238991 -12 12 C-8.10617875 9.49313721 -5.08403685 6.20307493 -2.1875 2.625 C-1.465625 1.75875 -0.74375 0.8925 0 0 Z " fill="#273B79" transform="translate(35,4)"/>
<path d="M0 0 C5.27415144 -0.52741514 5.27415144 -0.52741514 8 0 C10.375 2.9375 10.375 2.9375 12 6 C12.66 6.33 13.32 6.66 14 7 C14.28875 6.401875 14.5775 5.80375 14.875 5.1875 C16 3 16 3 18 0 C19.9453125 -0.29296875 19.9453125 -0.29296875 22.125 -0.1875 C23.40375 -0.125625 24.6825 -0.06375 26 0 C23.6163187 4.34170523 21.21880117 8.2064129 18 12 C19.89100505 16.18313239 22.65812836 19.43712913 25.5390625 22.9765625 C27 25 27 25 27 27 C19.93373995 27.71860272 19.93373995 27.71860272 17.35546875 25.734375 C14 21.75036023 14 21.75036023 14 19 C11.35247996 21.57784846 9.05567935 23.91648098 7 27 C5.0546875 27.29296875 5.0546875 27.29296875 2.875 27.1875 C1.59625 27.125625 0.3175 27.06375 -1 27 C0.38602973 23.96425683 2.05572296 21.61961972 4.1875 19.0625 C6.47214756 16.08663557 6.47214756 16.08663557 7.25 12.5 C5.63445318 9.26890635 3.55182796 6.56848476 1.27734375 3.76953125 C0 2 0 2 0 0 Z " fill="#26387B" transform="translate(141,13)"/>
<path d="M0 0 C1.9375 0.5625 1.9375 0.5625 4 2 C5.24681431 6.05214652 5.37171258 8.17209471 3.625 12.0625 C0.21897881 15.87399991 -3.64432828 18.37542858 -8 21 C-7.34 23.97 -6.68 26.94 -6 30 C-7.32 29.67 -8.64 29.34 -10 29 C-11.25 25.9375 -11.25 25.9375 -12 23 C-15.03984332 23.24815048 -16.44278337 23.42404092 -19 25 C-21.11815552 28.04167133 -22.82543109 31.15015201 -24.51953125 34.4453125 C-25.00808594 35.28835937 -25.49664062 36.13140625 -26 37 C-26.66 37 -27.32 37 -28 37 C-27.49202991 32.6822542 -26.80317221 28.96697886 -25 25 C-25.886875 25.103125 -26.77375 25.20625 -27.6875 25.3125 C-31 25 -31 25 -33.875 22.8125 C-36 20 -36 20 -36.3125 17.1875 C-36.209375 16.465625 -36.10625 15.74375 -36 15 C-35.34 15 -34.68 15 -34 15 C-33.76539063 15.63164063 -33.53078125 16.26328125 -33.2890625 16.9140625 C-32.17553314 19.16339154 -32.17553314 19.16339154 -29.8984375 19.8984375 C-19.75887446 21.8133395 -14.03177507 19.36305701 -5.515625 13.94921875 C-2.80257265 11.84702446 -0.89165063 9.86424458 1 7 C0.86013727 3.26276567 0.86013727 3.26276567 0 0 Z " fill="#11876D" transform="translate(37,17)"/>
<path d="M0 0 C12 0 12 0 15.25 1.5625 C17 4 17 4 17.625 7.4375 C16.83515672 11.9396067 15.72536415 13.38431879 12 16 C8.1875 16.3125 8.1875 16.3125 5 16 C5 18.97 5 21.94 5 25 C3.35 25 1.7 25 0 25 C0 16.75 0 8.5 0 0 Z M5 4 C5 6.64 5 9.28 5 12 C6.98 11.67 8.96 11.34 11 11 C12.01111093 7.95086772 12.01111093 7.95086772 11 5 C7.97065509 4.34227572 7.97065509 4.34227572 5 4 Z " fill="#26387A" transform="translate(52,14)"/>
<path d="M0 0 C1.65 0 3.3 0 5 0 C6.32 2.97 7.64 5.94 9 9 C11.6465335 6.3534665 12.59941997 3.43778736 14 0 C15.65 0 17.3 0 19 0 C17.41050989 5.72474894 15.59099422 11.35288012 13.5625 16.9375 C13.17191406 18.01902344 12.78132812 19.10054687 12.37890625 20.21484375 C10.91604077 23.16958337 9.84827901 24.39611473 7 26 C4.25 26.1875 4.25 26.1875 2 26 C2 24.68 2 23.36 2 22 C3.32 21.34 4.64 20.68 6 20 C5.72736328 19.09121094 5.72736328 19.09121094 5.44921875 18.1640625 C3.6328125 12.109375 1.81640625 6.0546875 0 0 Z " fill="#26397B" transform="translate(125,20)"/>
<path d="M0 0 C2.55040714 0.85013571 3.65294576 1.53147678 5.25 3.6875 C6.67476621 8.08052914 6.61873982 11.70627129 4.625 15.875 C3 18 3 18 1 19 C-6.14403292 19.46090535 -6.14403292 19.46090535 -9.4375 17.6875 C-11.7827717 15.15460657 -11.99800385 13.02155837 -12.3125 9.625 C-11.94884973 5.40665686 -10.95115008 3.95115008 -8 1 C-5.2201184 -0.3899408 -3.0813674 -0.18488204 0 0 Z M-5.8125 5 C-7.6500262 8.09478096 -6.7064591 10.59615163 -6 14 C-4.35 14.33 -2.7 14.66 -1 15 C1.56687367 11.1496895 0.83288724 9.41430237 0 5 C-2.44601376 4.07220168 -3.46906908 3.7070726 -5.8125 5 Z " fill="#26387B" transform="translate(81,20)"/>
<path d="M0 0 C0.66 0 1.32 0 2 0 C1.54300722 5.02692063 -0.99241748 8.14896261 -4 12 C-3.34 12.37125 -2.68 12.7425 -2 13.125 C0 15 0 15 0.3125 18.0625 C0 21 0 21 -1 23 C-1.66 23 -2.32 23 -3 23 C-3 21.35 -3 19.7 -3 18 C-4.32 17.67 -5.64 17.34 -7 17 C-7.66 21.62 -8.32 26.24 -9 31 C-9.99 31 -10.98 31 -12 31 C-14.2608053 28.7391947 -13.32636267 23.26062543 -13.42578125 20.19921875 C-14.08869955 16.5058168 -15.12953444 15.32043623 -18 13 C-16.88625 12.896875 -15.7725 12.79375 -14.625 12.6875 C-8.83405991 11.33283366 -5.72725543 6.70248409 -2.1015625 2.3359375 C-1.40804687 1.56507812 -0.71453125 0.79421875 0 0 Z " fill="#3F58A1" transform="translate(35,4)"/>
<path d="M0 0 C0.66 0.33 1.32 0.66 2 1 C1.67 2.65 1.34 4.3 1 6 C-1.64 5.67 -4.28 5.34 -7 5 C-7.020625 6.299375 -7.04125 7.59875 -7.0625 8.9375 C-7.07410156 9.66839844 -7.08570312 10.39929688 -7.09765625 11.15234375 C-7.20561184 13.01732141 -7.20561184 13.01732141 -6 14 C-4.33391013 14.04384447 -2.66619446 14.0396713 -1 14 C-0.01 14 0.98 14 2 14 C2.33 15.32 2.66 16.64 3 18 C-0.71145147 19.85572573 -4.94868977 19.43780288 -9 19 C-11.625 17.625 -11.625 17.625 -13 15 C-13.53562683 11.56970905 -13.58150906 8.42634257 -13 5 C-9.30724733 -0.04676198 -6.02795929 -0.21528426 0 0 Z " fill="#26387B" transform="translate(122,20)"/>
<path d="M0 0 C1.32 0 2.64 0 4 0 C4.02505615 0.61520508 4.0501123 1.23041016 4.07592773 1.86425781 C4.19218487 4.65970156 4.31477642 7.45483298 4.4375 10.25 C4.47681641 11.21808594 4.51613281 12.18617187 4.55664062 13.18359375 C4.61948242 14.58544922 4.61948242 14.58544922 4.68359375 16.015625 C4.72025146 16.87446289 4.75690918 17.73330078 4.79467773 18.61816406 C4.98703514 20.84960143 5.38846244 22.84982524 6 25 C4.02 25 2.04 25 0 25 C0 16.75 0 8.5 0 0 Z " fill="#26387B" transform="translate(91,14)"/>
<path d="M0 0 C2.31 0 4.62 0 7 0 C7 6.27 7 12.54 7 19 C5.35 19 3.7 19 2 19 C2 14.38 2 9.76 2 5 C1.34 5 0.68 5 0 5 C0 3.35 0 1.7 0 0 Z " fill="#26387A" transform="translate(99,20)"/>
<path d="M0 0 C0.66 0 1.32 0 2 0 C2.33 1.65 2.66 3.3 3 5 C3.66 4.01 4.32 3.02 5 2 C7.625 1.8125 7.625 1.8125 10 2 C10 3.65 10 5.3 10 7 C6.84653829 7.86992047 4.28494506 8.37304857 1.0625 7.4375 C-1.29664922 6.93707441 -2.7285156 7.26988002 -5 8 C-5.5534764 5.92446352 -6 4.15634036 -6 2 C-4.02 2 -2.04 2 0 2 C0 1.34 0 0.68 0 0 Z " fill="#263A7A" transform="translate(76,47)"/>
<path d="M0 0 C0.66 0 1.32 0 2 0 C1.54724954 4.98025501 -0.7764437 8.33399479 -4 12 C-6.5625 14 -6.5625 14 -9 15 C-11.3125 14.6875 -11.3125 14.6875 -13 14 C-12.34 13.360625 -11.68 12.72125 -11 12.0625 C-7.72415751 8.81481661 -4.76193482 5.30031749 -1.76953125 1.79296875 C-1.18558594 1.20128906 -0.60164063 0.60960937 0 0 Z " fill="#26408B" transform="translate(35,4)"/>
<path d="M0 0 C1.37478516 0.01740234 1.37478516 0.01740234 2.77734375 0.03515625 C3.69644531 0.04417969 4.61554688 0.05320313 5.5625 0.0625 C6.27277344 0.07410156 6.98304688 0.08570313 7.71484375 0.09765625 C8.09703142 1.75380282 8.42879477 3.42222649 8.71484375 5.09765625 C7.71484375 6.09765625 7.71484375 6.09765625 5.4296875 6.1953125 C4.05490234 6.17791016 4.05490234 6.17791016 2.65234375 6.16015625 C1.73324219 6.15113281 0.81414062 6.14210938 -0.1328125 6.1328125 C-0.84308594 6.12121094 -1.55335938 6.10960937 -2.28515625 6.09765625 C-2.66734392 4.44150968 -2.99910727 2.77308601 -3.28515625 1.09765625 C-2.28515625 0.09765625 -2.28515625 0.09765625 0 0 Z M-1.28515625 2.09765625 C-1.28515625 2.75765625 -1.28515625 3.41765625 -1.28515625 4.09765625 C0.03484375 4.09765625 1.35484375 4.09765625 2.71484375 4.09765625 C2.71484375 3.43765625 2.71484375 2.77765625 2.71484375 2.09765625 C1.39484375 2.09765625 0.07484375 2.09765625 -1.28515625 2.09765625 Z M4.71484375 2.09765625 C4.71484375 2.75765625 4.71484375 3.41765625 4.71484375 4.09765625 C5.37484375 4.09765625 6.03484375 4.09765625 6.71484375 4.09765625 C6.71484375 3.43765625 6.71484375 2.77765625 6.71484375 2.09765625 C6.05484375 2.09765625 5.39484375 2.09765625 4.71484375 2.09765625 Z " fill="#26387B" transform="translate(176.28515625,32.90234375)"/>
<path d="M0 0 C1.65 0.33 3.3 0.66 5 1 C5.36275695 5.47400242 5.36275695 5.47400242 3.75 7.8125 C2 9 2 9 -2 9 C-2.6875 6.75 -2.6875 6.75 -3 4 C-1.5625 1.6875 -1.5625 1.6875 0 0 Z " fill="#263C82" transform="translate(21,7)"/>
<path d="M0 0 C0.804375 0.185625 1.60875 0.37125 2.4375 0.5625 C3.283125 0.706875 4.12875 0.85125 5 1 C5.33 0.67 5.66 0.34 6 0 C7.66617115 -0.04063832 9.33388095 -0.042721 11 0 C11 1.65 11 3.3 11 5 C7.01080675 6.1004671 3.98919325 6.1004671 0 5 C0 3.35 0 1.7 0 0 Z " fill="#263A7A" transform="translate(178,49)"/>
<path d="M0 0 C-1.66294534 1.7460926 -3.10583218 3.06349931 -5.1875 4.3125 C-7.35773994 5.95163704 -7.35773994 5.95163704 -7.25 9.1875 C-7.1675 10.115625 -7.085 11.04375 -7 12 C-8.32 11.67 -9.64 11.34 -11 11 C-11.3125 8.3125 -11.3125 8.3125 -11 5 C-5.40780142 -1.62234043 -5.40780142 -1.62234043 0 0 Z " fill="#D57A2B" transform="translate(17,21)"/>
<path d="M0 0 C5.62902131 0.97896023 9.6658923 4.4959113 13 9 C14.00514482 13.37773736 14 17.53023049 14 22 C14.33 22.66 14.66 23.32 15 24 C14.01 23.67 13.02 23.34 12 23 C11.98582031 22.10796875 11.97164062 21.2159375 11.95703125 20.296875 C11.90933594 19.12640625 11.86164062 17.9559375 11.8125 16.75 C11.77769531 15.58984375 11.74289063 14.4296875 11.70703125 13.234375 C11.27559523 9.85145113 11.27559523 9.85145113 8.65625 7.6875 C5.85193269 5.90593371 3.01160018 4.40074427 0 3 C0 2.01 0 1.02 0 0 Z " fill="#28418A" transform="translate(9,12)"/>
<path d="M0 0 C1 3 1 3 -0.14453125 5.48046875 C-0.97017578 6.82044922 -0.97017578 6.82044922 -1.8125 8.1875 C-2.35519531 9.08855469 -2.89789063 9.98960938 -3.45703125 10.91796875 C-3.96621094 11.60503906 -4.47539062 12.29210938 -5 13 C-5.66 13 -6.32 13 -7 13 C-6.01176471 4.6 -6.01176471 4.6 -4 1 C-1.875 0.1875 -1.875 0.1875 0 0 Z " fill="#25418B" transform="translate(16,41)"/>
<path d="M0 0 C3.3 0 6.6 0 10 0 C10 1.98 10 3.96 10 6 C8.35 5.67 6.7 5.34 5 5 C4.67 4.01 4.34 3.02 4 2 C3.34 2 2.68 2 2 2 C2 3.32 2 4.64 2 6 C1.34 6 0.68 6 0 6 C0 4.02 0 2.04 0 0 Z " fill="#25397A" transform="translate(120,49)"/>
<path d="M0 0 C0.66 0 1.32 0 2 0 C2 2.97 2 5.94 2 9 C1.34 9 0.68 9 0 9 C0 7.68 0 6.36 0 5 C-0.66 5 -1.32 5 -2 5 C-2.33 6.32 -2.66 7.64 -3 9 C-3.66 9 -4.32 9 -5 9 C-5.66 7.02 -6.32 5.04 -7 3 C-4.69 3 -2.38 3 0 3 C0 2.01 0 1.02 0 0 Z " fill="#263A7B" transform="translate(175,46)"/>
<path d="M0 0 C2.97 0 5.94 0 9 0 C9 1.98 9 3.96 9 6 C8.34 6 7.68 6 7 6 C7 4.68 7 3.36 7 2 C6.34 2 5.68 2 5 2 C5 3.32 5 4.64 5 6 C3.35 6 1.7 6 0 6 C0 4.02 0 2.04 0 0 Z " fill="#26387B" transform="translate(186,33)"/>
<path d="M0 0 C0.66 0 1.32 0 2 0 C2 2.97 2 5.94 2 9 C-0.97 8.505 -0.97 8.505 -4 8 C-3.67 6.35 -3.34 4.7 -3 3 C-2.01 3 -1.02 3 0 3 C0 2.01 0 1.02 0 0 Z M-2 5 C-1.34 5.66 -0.68 6.32 0 7 C0 6.34 0 5.68 0 5 C-0.66 5 -1.32 5 -2 5 Z " fill="#26397B" transform="translate(91,46)"/>
<path d="M0 0 C0.66 0 1.32 0 2 0 C2 2.97 2 5.94 2 9 C0.35 8.67 -1.3 8.34 -3 8 C-3.33 6.68 -3.66 5.36 -4 4 C-2.68 3.67 -1.36 3.34 0 3 C0 2.01 0 1.02 0 0 Z M-2 5 C-1.34 5.66 -0.68 6.32 0 7 C0 6.34 0 5.68 0 5 C-0.66 5 -1.32 5 -2 5 Z " fill="#25397A" transform="translate(165,46)"/>
<path d="M0 0 C4.875 0.875 4.875 0.875 6 2 C6.23529412 7.52941176 6.23529412 7.52941176 5 10 C4.34 10 3.68 10 3 10 C3 8.35 3 6.7 3 5 C1.68 4.34 0.36 3.68 -1 3 C-0.67 2.01 -0.34 1.02 0 0 Z " fill="#E37F25" transform="translate(29,17)"/>
<path d="M0 0 C0.99 0.33 1.98 0.66 3 1 C4.1875 4.5625 4.1875 4.5625 5 8 C2.525 7.01 2.525 7.01 0 6 C0 6.66 0 7.32 0 8 C-0.66 8 -1.32 8 -2 8 C-1.125 2.25 -1.125 2.25 0 0 Z " fill="#263A7A" transform="translate(156,47)"/>
<path d="M0 0 C0.99 0 1.98 0 3 0 C3.99 2.97 4.98 5.94 6 9 C4.68 8.67 3.36 8.34 2 8 C0.25 4.4375 0.25 4.4375 -1 1 C-0.67 0.67 -0.34 0.34 0 0 Z " fill="#2E4689" transform="translate(25,38)"/>
<path d="M0 0 C1.65 0.33 3.3 0.66 5 1 C4.67 2.65 4.34 4.3 4 6 C2.35 5.67 0.7 5.34 -1 5 C-0.67 3.35 -0.34 1.7 0 0 Z " fill="#26397A" transform="translate(145,49)"/>
<path d="M0 0 C2.125 0.375 2.125 0.375 4 1 C3.67 2.65 3.34 4.3 3 6 C1.68 6 0.36 6 -1 6 C-1.625 4.125 -1.625 4.125 -2 2 C-1.34 1.34 -0.68 0.68 0 0 Z " fill="#26397B" transform="translate(102,13)"/>
<path d="M0 0 C1.65 0 3.3 0 5 0 C5 1.98 5 3.96 5 6 C3.35 6 1.7 6 0 6 C0 4.02 0 2.04 0 0 Z " fill="#26397A" transform="translate(132,49)"/>
<path d="M0 0 C1.65 0 3.3 0 5 0 C5 1.98 5 3.96 5 6 C3.35 5.67 1.7 5.34 0 5 C0 3.35 0 1.7 0 0 Z " fill="#26397A" transform="translate(114,49)"/>
<path d="M0 0 C1.65 0 3.3 0 5 0 C5 1.98 5 3.96 5 6 C3.35 6 1.7 6 0 6 C0 4.02 0 2.04 0 0 Z " fill="#26397A" transform="translate(102,49)"/>
<path d="M0 0 C2.31 0 4.62 0 7 0 C7 0.66 7 1.32 7 2 C6.34 2 5.68 2 5 2 C5 3.98 5 5.96 5 8 C4.34 8 3.68 8 3 8 C3 6.02 3 4.04 3 2 C2.01 2 1.02 2 0 2 C0 1.34 0 0.68 0 0 Z " fill="#26397A" transform="translate(52,47)"/>
<path d="M0 0 C1.65 0 3.3 0 5 0 C5 1.98 5 3.96 5 6 C3.35 5.67 1.7 5.34 0 5 C0 3.35 0 1.7 0 0 Z " fill="#26387A" transform="translate(64,49)"/>
<path d="M0 0 C1.32 0 2.64 0 4 0 C4 1.65 4 3.3 4 5 C3.01 5.33 2.02 5.66 1 6 C0.34 5.67 -0.32 5.34 -1 5 C-0.67 3.35 -0.34 1.7 0 0 Z " fill="#26397A" transform="translate(139,49)"/>
<path d="M0 0 C1.32 0 2.64 0 4 0 C4 1.65 4 3.3 4 5 C2.68 5 1.36 5 0 5 C0 3.35 0 1.7 0 0 Z " fill="#26397A" transform="translate(108,49)"/>
<path d="M0 0 C0.33 0.99 0.66 1.98 1 3 C-1.475 4.485 -1.475 4.485 -4 6 C-4.33 5.34 -4.66 4.68 -5 4 C-4.67 3.01 -4.34 2.02 -4 1 C-1.9375 0.3125 -1.9375 0.3125 0 0 Z " fill="#2E4892" transform="translate(16,41)"/>
<path d="M0 0 C1.32 0.33 2.64 0.66 4 1 C4 2.65 4 4.3 4 6 C3.01 6 2.02 6 1 6 C0.67 4.02 0.34 2.04 0 0 Z " fill="#3E57A1" transform="translate(22,7)"/>
<path d="M0 0 C1.65 0 3.3 0 5 0 C4.67 0.66 4.34 1.32 4 2 C3.34 2 2.68 2 2 2 C2 3.32 2 4.64 2 6 C1.34 6 0.68 6 0 6 C0 4.02 0 2.04 0 0 Z " fill="#26387A" transform="translate(190,49)"/>
<path d="M0 0 C1.32 0 2.64 0 4 0 C4 0.66 4 1.32 4 2 C3.34 2 2.68 2 2 2 C2 3.32 2 4.64 2 6 C1.34 6 0.68 6 0 6 C0 4.02 0 2.04 0 0 Z " fill="#25397B" transform="translate(59,49)"/>
<path d="M0 0 C0.66 0 1.32 0 2 0 C2 2.64 2 5.28 2 8 C1.34 8 0.68 8 0 8 C0 5.36 0 2.72 0 0 Z " fill="#25397A" transform="translate(98,47)"/>
<path d="M0 0 C0.99 0 1.98 0 3 0 C3 0.66 3 1.32 3 2 C2.01 2 1.02 2 0 2 C0 1.34 0 0.68 0 0 Z " fill="#263C7B" transform="translate(169,37)"/>
</svg>
