<svg xmlns="http://www.w3.org/2000/svg" width="66" height="77" viewBox="0 0 66 77">
    <defs>
        <linearGradient id="a" x1=".5" x2=".5" y2="1" gradientUnits="objectBoundingBox">
            <stop offset="0" stop-color="#b3e796"/>
            <stop offset="1" stop-color="#21a2d0"/>
        </linearGradient>
        <linearGradient id="b" x1=".5" x2=".5" y2="1" gradientUnits="objectBoundingBox">
            <stop offset="0" stop-color="#62baf8"/>
            <stop offset="1" stop-color="#497af8"/>
        </linearGradient>
    </defs>
    <g data-name="Group 22425">
        <g data-name="old-man (1)">
            <path data-name="Path 17088" d="M62.848 36.04a5.657 5.657 0 0 0-.214-7.765L48.762 14.4a7.664 7.664 0 1 0-9.363-1.67 14.484 14.484 0 0 0-8.475 10.67l-10.213-2.787-3.355-5.872a7.665 7.665 0 1 0-8.643-2A14.461 14.461 0 0 0 0 25.992v17.579a1.884 1.884 0 0 0 1.883 1.883h1.452L.2 57.175a5.65 5.65 0 0 0 4 6.92 5.677 5.677 0 0 0 1.472.2 5.657 5.657 0 0 0 5.439-4.195L12 56.788l.888 3.314A5.65 5.65 0 1 0 23.8 57.176l-3.709-13.85V32.158l9.583 2.614a5.66 5.66 0 0 0 1.017.178v8.622a1.884 1.884 0 0 0 1.883 1.883h1.883v16.951a1.884 1.884 0 0 0 1.883 1.883h8.79A1.884 1.884 0 0 0 47 62.655L49.5 43.9l2.323-10.456 2.6 2.6a5.627 5.627 0 0 0-1.434 3.756v1.26a1.883 1.883 0 0 0 3.767 0V39.8a1.883 1.883 0 1 1 3.767 0v22.6a1.883 1.883 0 1 0 3.767 0V39.8a5.627 5.627 0 0 0-1.441-3.765zM41.239 7.66a3.893 3.893 0 1 1 3.893 3.893 3.9 3.9 0 0 1-3.893-3.893zm-30.692 0a3.893 3.893 0 1 1 3.893 3.893 3.9 3.9 0 0 1-3.892-3.893zM7.472 59.124a1.883 1.883 0 0 1-3.639-.975l3.4-12.694h1.729l1.087 4.055zm12.5.456a1.884 1.884 0 0 1-3.45-.454l-3.661-13.671h3.9l3.4 12.7a1.872 1.872 0 0 1-.186 1.426zM15.8 27.084a3.147 3.147 0 0 1-1.957-1.584l-1.5-2.888A1.884 1.884 0 0 0 9 24.348l1.5 2.888a6.925 6.925 0 0 0 4.313 3.483l1.511.412v10.557H3.767v-15.7a10.689 10.689 0 0 1 9.61-10.621l4.45 7.788a1.877 1.877 0 0 0 1.14.882L31.656 27.5a1.884 1.884 0 0 1-.991 3.634zm27.683 33.439h-5.258V45.455h7.266zm2.649-18.835H34.458V33.9a5.65 5.65 0 0 0 .071-9.122 10.725 10.725 0 0 1 9.849-9.436l15.593 15.597a1.883 1.883 0 1 1-2.663 2.661L43.952 20.247a1.883 1.883 0 1 0-2.664 2.664l7.377 7.377z" transform="translate(.855 6.355)" style="fill:url(#b)"/>
        </g>
    </g>
</svg>
