<svg xmlns="http://www.w3.org/2000/svg" width="14.1" height="14.1" viewBox="0 0 14.1 14.1">
    <defs>
        <style>
            .cls-1{fill:#6d7585;stroke:#6f7584;stroke-width:.1px}
        </style>
    </defs>
    <g id="save-money" transform="translate(.05 .05)">
        <path id="Path_10854" data-name="Path 10854" class="cls-1" d="M1.23 148.947a2.091 2.091 0 0 1 1.572.842 4.148 4.148 0 0 1 2.967-1.252h3.309a3.656 3.656 0 0 1 .476.032 2.174 2.174 0 0 1 2.523-.831.41.41 0 0 1 .162.679 2.36 2.36 0 0 0-.546 1.073 4.1 4.1 0 0 1 1.129 1.51h.768a.41.41 0 0 1 .41.41v2.459a.434.434 0 0 1-.41.437h-.768a4.108 4.108 0 0 1-2.218 2.147l.109.655a.41.41 0 0 1-.4.477H8.668a.41.41 0 0 1-.4-.343l-.08-.477H6.664l-.08.477a.41.41 0 0 1-.4.343H4.539a.41.41 0 0 1-.4-.477l.109-.654a4.123 4.123 0 0 1-2.6-3.815 4.061 4.061 0 0 1 .641-2.179 1.451 1.451 0 0 0-1.051-.691c-.235 0-.41.108-.41.2a.343.343 0 0 0 .159.257.41.41 0 1 1-.4.716 1.16 1.16 0 0 1-.587-.971 1.129 1.129 0 0 1 1.23-1.024zm3.593 6.839a.41.41 0 0 1 .286.46l-.086.517h.809l.08-.477a.41.41 0 0 1 .4-.343h2.219a.41.41 0 0 1 .4.343l.08.477h.809l-.086-.517a.41.41 0 0 1 .286-.46 3.321 3.321 0 0 0 2.133-2.057.41.41 0 0 1 .387-.273h.636v-1.64h-.636a.41.41 0 0 1-.387-.273 3.3 3.3 0 0 0-1.165-1.562.41.41 0 0 1-.16-.412 4.164 4.164 0 0 1 .384-1.123 1.209 1.209 0 0 0-1.069.745.407.407 0 0 1-.45.23 3.232 3.232 0 0 0-.619-.066H5.77a3.28 3.28 0 0 0-.946 6.429z" transform="translate(0 -143.582)"/>
        <ellipse id="Ellipse_131" data-name="Ellipse 131" class="cls-1" cx=".488" cy=".325" rx=".488" ry=".325" transform="translate(9.774 7.499)"/>
        <path id="Path_10855" data-name="Path 10855" class="cls-1" d="M182.054 4.135A2.056 2.056 0 0 1 180 2.081 2.08 2.08 0 0 1 182.054 0a2.1 2.1 0 0 1 2.081 2.081 2.08 2.08 0 0 1-2.081 2.054zm0-3.314a1.257 1.257 0 0 0-1.232 1.26 1.234 1.234 0 0 0 1.232 1.232 1.257 1.257 0 0 0 1.26-1.232 1.281 1.281 0 0 0-1.26-1.259z" transform="translate(-175.054)"/>
        <path id="Path_10856" data-name="Path 10856" class="cls-1" d="M180.411 241h3.314a.411.411 0 0 1 0 .822h-3.314a.411.411 0 0 1 0-.822z" transform="translate(-175.054 -234.411)"/>
    </g>
</svg>
