<svg id="save-money" xmlns="http://www.w3.org/2000/svg" width="29.43" height="29.43" viewBox="0 0 29.43 29.43">
  <defs>
    <style>
      .cls-1 {
        fill: #143a72;
      }
    </style>
  </defs>
  <path id="Path_10854" data-name="Path 10854" class="cls-1" d="M2.587,150.405a4.394,4.394,0,0,1,3.3,1.77,8.717,8.717,0,0,1,6.237-2.632h6.955a7.679,7.679,0,0,1,1,.067,4.569,4.569,0,0,1,5.3-1.749.862.862,0,0,1,.34,1.429,4.965,4.965,0,0,0-1.148,2.257,8.629,8.629,0,0,1,2.374,3.169h1.614a.862.862,0,0,1,.862.862v5.173a.913.913,0,0,1-.862.92H26.953a8.638,8.638,0,0,1-4.662,4.516l.23,1.378a.862.862,0,0,1-.85,1H18.221a.862.862,0,0,1-.85-.721l-.168-1H14.009l-.168,1a.862.862,0,0,1-.85.721H9.542a.862.862,0,0,1-.85-1l.229-1.377a8.672,8.672,0,0,1-5.471-8.024A8.545,8.545,0,0,1,4.8,153.582a3.049,3.049,0,0,0-2.209-1.453c-.493,0-.862.227-.862.431a.722.722,0,0,0,.335.541.862.862,0,0,1-.842,1.505A2.439,2.439,0,0,1,0,152.561,2.374,2.374,0,0,1,2.587,150.405ZM10.14,164.79a.862.862,0,0,1,.6.967l-.181,1.088h1.7l.168-1a.862.862,0,0,1,.85-.721h4.656a.862.862,0,0,1,.85.721l.168,1h1.7l-.181-1.088a.862.862,0,0,1,.6-.967,6.982,6.982,0,0,0,4.485-4.327.863.863,0,0,1,.812-.573h1.337v-3.449H26.368a.863.863,0,0,1-.813-.573,6.93,6.93,0,0,0-2.449-3.285.863.863,0,0,1-.336-.866,8.763,8.763,0,0,1,.807-2.363,2.541,2.541,0,0,0-2.248,1.568.855.855,0,0,1-.946.484,6.787,6.787,0,0,0-1.3-.138H12.128A6.9,6.9,0,0,0,10.14,164.79Z" transform="translate(0 -139.139)"/>
  <ellipse id="Ellipse_131" data-name="Ellipse 131" class="cls-1" cx="1.025" cy="0.683" rx="1.025" ry="0.683" transform="translate(20.548 15.766)"/>
  <path id="Path_10855" data-name="Path 10855" class="cls-1" d="M184.311,8.68A4.316,4.316,0,0,1,180,4.369,4.366,4.366,0,0,1,184.311,0a4.415,4.415,0,0,1,4.369,4.369A4.366,4.366,0,0,1,184.311,8.68Zm0-6.955a2.639,2.639,0,0,0-2.587,2.644,2.59,2.59,0,0,0,2.587,2.587,2.639,2.639,0,0,0,2.644-2.587A2.689,2.689,0,0,0,184.311,1.724Z" transform="translate(-169.596)"/>
  <path id="Path_10856" data-name="Path 10856" class="cls-1" d="M180.862,241h6.955a.862.862,0,1,1,0,1.724h-6.955a.862.862,0,1,1,0-1.724Z" transform="translate(-169.596 -227.147)"/>
</svg>
