<svg id="Group_15387" data-name="Group 15387" xmlns="http://www.w3.org/2000/svg" width="41.5" height="41.498" viewBox="0 0 41.5 41.498">
    <defs>
        <style>
            .cls-1{fill:#cef5e1}.cls-2{fill:#143a72}
        </style>
    </defs>
    <circle id="Ellipse_158" data-name="Ellipse 158" class="cls-1" cx="8.431" cy="8.431" r="8.431" transform="translate(17.451 9.435)"/>
    <path id="Path_10931" data-name="Path 10931" class="cls-1" d="m13082.641 4549.436 3.588-3.266 2.271 2.068-3.725 3.391z" transform="translate(-13071.049 -4519.874)"/>
    <g id="transparency_1_" data-name="transparency (1)">
        <path id="Path_10909" data-name="Path 10909" class="cls-2" d="M25.694 0a15.8 15.8 0 0 0-13.77 23.557L1.247 34.236a4.255 4.255 0 0 0 6.018 6.018l10.677-10.679A15.8 15.8 0 1 0 25.694 0zM5.545 38.534a1.824 1.824 0 1 1-2.579-2.579l6.694-6.694 2.579 2.579zm8.413-8.413-2.579-2.579 1.929-1.929a15.95 15.95 0 0 0 2.579 2.579zm11.736-.941a13.374 13.374 0 1 1 13.374-13.374A13.389 13.389 0 0 1 25.694 29.18zm0 0"/>
        <path id="Path_10910" data-name="Path 10910" class="cls-2" d="M192.942 60a10.942 10.942 0 1 0 10.942 10.942A10.955 10.955 0 0 0 192.942 60zm0 19.453a8.511 8.511 0 1 1 8.511-8.511 8.52 8.52 0 0 1-8.511 8.511zm0 0" transform="translate(-167.248 -55.137)"/>
    </g>
</svg>
