<svg xmlns="http://www.w3.org/2000/svg" width="18" height="22" viewBox="0 0 18 22">
  <g id="tax_1_" data-name="tax (1)" transform="translate(-5 -1)">
    <path id="Path_66082" data-name="Path 66082" d="M20.943,22.848a1.409,1.409,0,0,0,1.383-.063A1.438,1.438,0,0,0,23,21.565V2.435a1.438,1.438,0,0,0-.674-1.22,1.409,1.409,0,0,0-1.383-.063l-1.259.636-1.259-.636a1.408,1.408,0,0,0-1.271,0l-1.259.636-1.259-.636a1.408,1.408,0,0,0-1.271,0l-1.259.636-1.259-.636a1.408,1.408,0,0,0-1.271,0l-1.259.636L7.057,1.151a1.409,1.409,0,0,0-1.383.063A1.438,1.438,0,0,0,5,2.435v19.13a1.438,1.438,0,0,0,.674,1.22,1.409,1.409,0,0,0,1.383.063l1.259-.636,1.259.636a1.408,1.408,0,0,0,1.271,0l1.259-.636,1.259.636a1.408,1.408,0,0,0,1.271,0l1.259-.636,1.259.636a1.408,1.408,0,0,0,1.271,0l1.259-.636Zm.424-.856L19.9,21.25a.469.469,0,0,0-.423,0L18,21.992a.469.469,0,0,1-.423,0l-1.471-.742a.469.469,0,0,0-.423,0l-1.471.742a.469.469,0,0,1-.423,0l-1.471-.742a.469.469,0,0,0-.423,0l-1.471.742a.469.469,0,0,1-.423,0L8.528,21.25a.469.469,0,0,0-.423,0l-1.471.742a.47.47,0,0,1-.461-.021.479.479,0,0,1-.225-.407V2.435a.479.479,0,0,1,.225-.407.47.47,0,0,1,.461-.021L8.1,2.749a.469.469,0,0,0,.423,0L10,2.007a.469.469,0,0,1,.423,0l1.471.742a.469.469,0,0,0,.423,0l1.471-.742a.469.469,0,0,1,.423,0l1.471.742a.469.469,0,0,0,.423,0l1.471-.742a.469.469,0,0,1,.423,0l1.471.742a.469.469,0,0,0,.423,0l1.471-.742a.47.47,0,0,1,.461.021.479.479,0,0,1,.225.407v19.13a.479.479,0,0,1-.225.407.47.47,0,0,1-.461.021Z" transform="translate(0 0)" fill="#171a21" fill-rule="evenodd"/>
    <path id="Path_66083" data-name="Path 66083" d="M11.469,19.456h1.876a.475.475,0,0,0,0-.951H11.469a.475.475,0,0,0,0,.951Zm3.752,0h7.5a.475.475,0,0,0,0-.951h-7.5a.475.475,0,0,0,0,.951Zm-3.752,1.9H22.725a.475.475,0,0,0,0-.951H11.469a.475.475,0,0,0,0,.951Zm0,1.9h7.5a.475.475,0,0,0,0-.951h-7.5a.475.475,0,0,0,0,.951Zm9.38,0h1.876a.475.475,0,0,0,0-.951H20.849a.475.475,0,0,0,0,.951ZM15.221,9a1.427,1.427,0,1,0,1.371,1.426A1.418,1.418,0,0,0,15.221,9Zm0,.951a.475.475,0,1,1-.469.475A.472.472,0,0,1,15.221,9.951ZM18.973,12.8a1.427,1.427,0,1,0,1.371,1.426A1.418,1.418,0,0,0,18.973,12.8Zm0,.951a.475.475,0,1,1-.469.475A.472.472,0,0,1,18.973,13.753Zm-4.358,1.762,5.628-5.7a.48.48,0,0,0,0-.672.465.465,0,0,0-.663,0l-5.628,5.7a.48.48,0,0,0,0,.672.465.465,0,0,0,.663,0Z" transform="translate(-3.097 -4.13)" fill="#171a21" fill-rule="evenodd"/>
  </g>
</svg>
