<svg xmlns="http://www.w3.org/2000/svg" width="17" height="21" viewBox="0 0 17 21">
  <defs>
    <style>
      .cls-1 {
        fill: #6d7585;
      }
    </style>
  </defs>
  <path id="Union_4" data-name="Union 4" class="cls-1" d="M2.329,21A2.4,2.4,0,0,1,0,18.539V2.461A2.4,2.4,0,0,1,2.329,0H14.671A2.4,2.4,0,0,1,17,2.461V18.539A2.4,2.4,0,0,1,14.671,21Zm-.776-2.461a.8.8,0,0,0,.776.82H14.671a.8.8,0,0,0,.776-.82V7.055H1.553Zm0-16.078V5.414h13.9V2.461a.8.8,0,0,0-.776-.82H2.329A.8.8,0,0,0,1.553,2.461Zm10.6,14.684V12.39H13.7v4.755Zm-2.95,0V15.5h1.553v1.641Zm-2.911,0V15.5H7.84v1.641Zm-2.95,0V15.5H4.89v1.641ZM9.2,14.027V12.387h1.553v1.641Zm-2.911,0V12.387H7.84v1.641Zm-2.95,0V12.387H4.89v1.641Zm8.811-3.117V9.27H13.7V10.91Zm-2.95,0V9.27h1.553V10.91Zm-2.911,0V9.27H7.84V10.91Zm-2.95,0V9.27H4.89V10.91Z"/>
</svg>
