<svg xmlns="http://www.w3.org/2000/svg" width="18" height="18" viewBox="0 0 18 18">
  <defs>
    <style>
      .cls-1 {
        fill: #143a72;
      }
    </style>
  </defs>
  <path id="Union_9" data-name="Union 9" class="cls-1" d="M1.588,18A1.587,1.587,0,0,1,0,16.418V6.223A1.587,1.587,0,0,1,1.588,4.641H4.941V.527A.528.528,0,0,1,5.471,0h8.471A4.056,4.056,0,0,1,18,4.043v13.43a.528.528,0,0,1-.529.527ZM9.53,16.418a1.569,1.569,0,0,1-.091.527h7.5V4.57h-3a.528.528,0,0,1-.529-.527V1.055H6V4.641H7.941A1.59,1.59,0,0,1,9.438,5.7h1.679a.527.527,0,1,1,0,1.055H9.53V7.8h1.588a.527.527,0,1,1,0,1.055H9.53V9.914h1.588a.527.527,0,1,1,0,1.055H9.53v1.055h1.588a.527.527,0,1,1,0,1.055H9.53v1.055h5.824a.527.527,0,1,1,0,1.055H9.53ZM1.059,6.223v10.2a.529.529,0,0,0,.529.527H7.941a.529.529,0,0,0,.529-.527V6.223A.529.529,0,0,0,7.941,5.7H1.588A.529.529,0,0,0,1.059,6.223ZM14.471,3.516h2.423A3,3,0,0,0,14.471,1.1ZM6.353,15.363V13.254a.529.529,0,0,1,1.059,0v2.109a.529.529,0,0,1-1.059,0Zm-2.118,0a.529.529,0,1,1,.529.527A.528.528,0,0,1,4.235,15.363Zm-2.118,0a.529.529,0,1,1,.529.527A.528.528,0,0,1,2.118,15.363Zm2.118-2.109a.529.529,0,1,1,.529.527A.528.528,0,0,1,4.235,13.254Zm-2.118,0a.529.529,0,1,1,.529.527A.528.528,0,0,1,2.118,13.254ZM6.353,11.32a.529.529,0,1,1,.529.527A.528.528,0,0,1,6.353,11.32Zm-2.118,0a.529.529,0,1,1,.529.527A.528.528,0,0,1,4.235,11.32Zm-2.118,0a.529.529,0,1,1,.529.527A.528.528,0,0,1,2.118,11.32Zm12.692.161L12.471,9.275a.433.433,0,0,1-.131-.3.428.428,0,0,1,.422-.433H13.7a.994.994,0,0,0,.692-.282,1.316,1.316,0,0,0,.19-.265H12.758a.42.42,0,1,1,0-.841h1.823a.958.958,0,0,0-.886-.547h-.937a.42.42,0,1,1,0-.841h3.271a.42.42,0,1,1,0,.841h-.8a1.749,1.749,0,0,1,.236.547h.561a.42.42,0,1,1,0,.841h-.557a1.775,1.775,0,0,1-.485.866,1.806,1.806,0,0,1-1.169.53l1.574,1.484.013.013a.42.42,0,0,1-.591.6ZM2.647,9.914a.528.528,0,0,1-.529-.527V7.277a.528.528,0,0,1,.529-.527H6.882a.528.528,0,0,1,.529.527V9.387a.528.528,0,0,1-.529.527Zm.529-1.055H6.353V7.8H3.177Zm4.412-5.7a.527.527,0,1,1,0-1.055h4.235a.527.527,0,1,1,0,1.055Z"/>
</svg>
