<svg xmlns="http://www.w3.org/2000/svg" width="14.316" height="16.735" viewBox="0 0 14.316 16.735">
  <defs>
    <style>
      .cls-1 {
        fill: #143a72;
      }
    </style>
  </defs>
  <path id="calculator_2_" data-name="calculator (2)" class="cls-1" d="M50.663,11.505a.654.654,0,0,0,.654-.654V2.615A2.618,2.618,0,0,0,48.7,0H39.615A2.618,2.618,0,0,0,37,2.615V14.12a2.618,2.618,0,0,0,2.615,2.615H48.7a2.618,2.618,0,0,0,2.615-2.615.654.654,0,1,0-1.307,0A1.309,1.309,0,0,1,48.7,15.428H39.615a1.309,1.309,0,0,1-1.307-1.307V6.537h11.7v4.315A.654.654,0,0,0,50.663,11.505ZM38.307,5.23V2.615a1.309,1.309,0,0,1,1.307-1.307H48.7a1.309,1.309,0,0,1,1.307,1.307V5.23Zm9.74,2.615A.654.654,0,0,1,48.7,8.5v4.968a.654.654,0,1,1-1.307,0V8.5A.654.654,0,0,1,48.048,7.845Zm-7.09.654a.685.685,0,0,1-.689.654.654.654,0,0,1,0-1.307A.685.685,0,0,1,40.958,8.5Zm2.58,0a.654.654,0,1,1-.654-.654A.654.654,0,0,1,43.537,8.5Zm2.582,0a.654.654,0,1,1-.654-.654A.654.654,0,0,1,46.119,8.5Zm-5.164,2.484a.682.682,0,0,1-.686.654.654.654,0,0,1,0-1.307A.682.682,0,0,1,40.955,10.982Zm2.582,0a.654.654,0,1,1-.654-.654A.654.654,0,0,1,43.537,10.982Zm-2.582,2.484a.682.682,0,0,1-.686.654.654.654,0,0,1,0-1.307A.682.682,0,0,1,40.955,13.467Zm2.582,0a.654.654,0,1,1-.654-.654A.654.654,0,0,1,43.537,13.467Zm2.582-2.484a.654.654,0,1,1-.654-.654A.654.654,0,0,1,46.119,10.982Zm0,2.484a.654.654,0,1,1-.654-.654A.654.654,0,0,1,46.119,13.467ZM43.21,3.269a.654.654,0,0,1-.654.654H40.269a.654.654,0,0,1,0-1.307h2.288A.654.654,0,0,1,43.21,3.269Z" transform="translate(-37)"/>
</svg>
