<svg xmlns="http://www.w3.org/2000/svg" width="19.81" height="20.722" viewBox="0 0 19.81 20.722">
  <defs>
    <style>
      .cls-1 {
        fill: #143a72;
      }
    </style>
  </defs>
  <g id="tax" transform="translate(-11.262)">
    <path id="Path_16863" data-name="Path 16863" class="cls-1" d="M358.027,207.515l.583-1.39a.607.607,0,0,0-1.12-.47l-.594,1.414a.563.563,0,0,0-.037.087l-.583,1.389a.607.607,0,1,0,1.12.47l.594-1.415A.559.559,0,0,0,358.027,207.515Z" transform="translate(-331.007 -196.975)"/>
    <path id="Path_16864" data-name="Path 16864" class="cls-1" d="M31.073,10.361a4.642,4.642,0,0,0-4.028-4.6V.607A.607.607,0,0,0,26.438,0H15.553a.607.607,0,0,0-.429.178L11.44,3.863a.607.607,0,0,0-.178.429V20.115a.607.607,0,0,0,.607.607H26.438a.607.607,0,0,0,.607-.607V14.956A4.642,4.642,0,0,0,31.073,10.361ZM14.946,2.073V3.684H13.335Zm-2.47,17.435V4.9h3.077a.607.607,0,0,0,.607-.607V1.214h9.67V5.766a4.635,4.635,0,0,0,0,9.19v4.552Zm13.962-5.726a3.421,3.421,0,1,1,3.421-3.421A3.424,3.424,0,0,1,26.438,13.782Z"/>
    <path id="Path_16865" data-name="Path 16865" class="cls-1" d="M330.359,220.5a.607.607,0,1,0,.607.607A.614.614,0,0,0,330.359,220.5Z" transform="translate(-305.599 -211.575)"/>
    <path id="Path_16866" data-name="Path 16866" class="cls-1" d="M413.277,261.5a.607.607,0,1,0,.607.607A.614.614,0,0,0,413.277,261.5Z" transform="translate(-385.161 -250.917)"/>
    <g id="Group_22305" data-name="Group 22305" transform="translate(14.094 6.113)">
      <path id="Path_16867" data-name="Path 16867" class="cls-1" d="M81.84,152.242h6.769a.607.607,0,1,0,0-1.214H81.84a.607.607,0,1,0,0,1.214Z" transform="translate(-81.233 -151.028)"/>
      <path id="Path_16868" data-name="Path 16868" class="cls-1" d="M81.84,212.246h5.433a.607.607,0,0,0,0-1.214H81.84a.607.607,0,1,0,0,1.214Z" transform="translate(-81.233 -208.603)"/>
      <path id="Path_16869" data-name="Path 16869" class="cls-1" d="M81.84,272.25h5.433a.607.607,0,0,0,0-1.214H81.84a.607.607,0,0,0,0,1.214Z" transform="translate(-81.233 -266.179)"/>
      <path id="Path_16870" data-name="Path 16870" class="cls-1" d="M89.216,331.646a.607.607,0,0,0-.607-.607H81.84a.607.607,0,0,0,0,1.214h6.769A.607.607,0,0,0,89.216,331.646Z" transform="translate(-81.233 -323.753)"/>
      <path id="Path_16871" data-name="Path 16871" class="cls-1" d="M245,421.045h-2.8a.607.607,0,1,0,0,1.214H245a.607.607,0,1,0,0-1.214Z" transform="translate(-235.101 -410.117)"/>
    </g>
  </g>
</svg>
