<svg xmlns="http://www.w3.org/2000/svg" width="19.811" height="20.722" viewBox="0 0 19.811 20.722">
    <defs>
        <style>
            .cls-1{fill:#6d7585}
        </style>
    </defs>
    <g id="tax" transform="translate(-11.262)">
        <path id="Path_16863" data-name="Path 16863" class="cls-1" d="m358.027 207.515.583-1.39a.607.607 0 0 0-1.12-.47l-.594 1.414a.563.563 0 0 0-.037.087l-.583 1.389a.607.607 0 1 0 1.12.47l.594-1.415a.559.559 0 0 0 .037-.085z" transform="translate(-331.007 -196.975)"/>
        <path id="Path_16864" data-name="Path 16864" class="cls-1" d="M31.073 10.361a4.642 4.642 0 0 0-4.028-4.6V.607A.607.607 0 0 0 26.438 0H15.553a.607.607 0 0 0-.429.178L11.44 3.863a.607.607 0 0 0-.178.429v15.823a.607.607 0 0 0 .607.607h14.569a.607.607 0 0 0 .607-.607v-5.159a4.642 4.642 0 0 0 4.028-4.595zM14.946 2.073v1.611h-1.611zm-2.47 17.435V4.9h3.077a.607.607 0 0 0 .607-.607V1.214h9.67v4.552a4.635 4.635 0 0 0 0 9.19v4.552zm13.962-5.726a3.421 3.421 0 1 1 3.421-3.421 3.424 3.424 0 0 1-3.421 3.421z"/>
        <path id="Path_16865" data-name="Path 16865" class="cls-1" d="M330.359 220.5a.607.607 0 1 0 .607.607.614.614 0 0 0-.607-.607z" transform="translate(-305.599 -211.575)"/>
        <path id="Path_16866" data-name="Path 16866" class="cls-1" d="M413.277 261.5a.607.607 0 1 0 .607.607.614.614 0 0 0-.607-.607z" transform="translate(-385.161 -250.917)"/>
        <g id="Group_22305" data-name="Group 22305" transform="translate(14.094 6.113)">
            <path id="Path_16867" data-name="Path 16867" class="cls-1" d="M81.84 152.242h6.769a.607.607 0 1 0 0-1.214H81.84a.607.607 0 1 0 0 1.214z" transform="translate(-81.233 -151.028)"/>
            <path id="Path_16868" data-name="Path 16868" class="cls-1" d="M81.84 212.246h5.433a.607.607 0 0 0 0-1.214H81.84a.607.607 0 1 0 0 1.214z" transform="translate(-81.233 -208.603)"/>
            <path id="Path_16869" data-name="Path 16869" class="cls-1" d="M81.84 272.25h5.433a.607.607 0 0 0 0-1.214H81.84a.607.607 0 0 0 0 1.214z" transform="translate(-81.233 -266.179)"/>
            <path id="Path_16870" data-name="Path 16870" class="cls-1" d="M89.216 331.646a.607.607 0 0 0-.607-.607H81.84a.607.607 0 0 0 0 1.214h6.769a.607.607 0 0 0 .607-.607z" transform="translate(-81.233 -323.753)"/>
            <path id="Path_16871" data-name="Path 16871" class="cls-1" d="M245 421.045h-2.8a.607.607 0 1 0 0 1.214h2.8a.607.607 0 1 0 0-1.214z" transform="translate(-235.101 -410.117)"/>
        </g>
    </g>
</svg>
