<svg xmlns="http://www.w3.org/2000/svg" width="66.001" height="77" viewBox="0 0 66.001 77">
    <defs>
        <linearGradient id="a" x1=".5" x2=".5" y2="1" gradientUnits="objectBoundingBox">
            <stop offset="0" stop-color="#62baf8"/>
            <stop offset="1" stop-color="#497af8"/>
        </linearGradient>
    </defs>
    <g data-name="Group 22425">
        <path data-name="Union 1" d="M8451.106 282.984a1.845 1.845 0 0 1-1.845-1.845v-48.1a1.847 1.847 0 0 1 .54-1.3l11.2-11.2a1.845 1.845 0 0 1 1.3-.54h33.085a1.847 1.847 0 0 1 1.848 1.845v15.682a14.089 14.089 0 0 1 0 27.936v15.682a1.847 1.847 0 0 1-1.848 1.845zm1.848-3.69h40.594v-13.837a14.089 14.089 0 0 1 0-27.936v-13.834h-29.4v9.352a1.845 1.845 0 0 1-1.846 1.845h-9.352zm32.04-27.8a10.4 10.4 0 1 0 10.4-10.4 10.409 10.409 0 0 0-10.4 10.396zm-29.431-20.3h4.9v-4.9zm23.881 44.292a1.845 1.845 0 1 1 0-3.69h8.517a1.845 1.845 0 0 1 0 3.69zm-19.729-11.073a1.845 1.845 0 1 1 0-3.69h20.574a1.845 1.845 0 0 1 0 3.69zm33.118-6.828a1.844 1.844 0 0 1-.986-2.415l1.771-4.224a1.941 1.941 0 0 1 .111-.265l1.8-4.3a1.846 1.846 0 0 1 3.4 1.429l-1.772 4.224a2.027 2.027 0 0 1-.11.263l-1.8 4.3a1.841 1.841 0 0 1-2.416.987zm-33.118-.555a1.845 1.845 0 1 1 0-3.69h16.515a1.845 1.845 0 0 1 0 3.69zm38.932-3.018a1.845 1.845 0 1 1 1.845 1.845 1.865 1.865 0 0 1-1.845-1.845zm-10.2-5.044a1.845 1.845 0 1 1 1.846 1.845 1.865 1.865 0 0 1-1.848-1.845zm-28.729.679a1.845 1.845 0 1 1 0-3.69h16.515a1.845 1.845 0 0 1 0 3.69zm0-7.381a1.845 1.845 0 1 1 0-3.69h20.574a1.845 1.845 0 0 1 0 3.69z" transform="translate(-8449.261 -212.99)" style="fill:url(#a)"/>
    </g>
</svg>
