<svg xmlns="http://www.w3.org/2000/svg" width="24.112" height="21.474" viewBox="0 0 24.112 21.474">
  <defs>
    <style>
      .cls-1, .cls-2 {
        fill: #143a72;
      }

      .cls-1 {
        stroke: #143a72;
        stroke-width: 0.2px;
      }
    </style>
  </defs>
  <g id="Group_22302" data-name="Group 22302" transform="translate(-503.444 -257.763)">
    <g id="Group_22301" data-name="Group 22301" transform="translate(503.544 257.863)">
      <path id="Path_16851" data-name="Path 16851" class="cls-1" d="M20.965,217.765a.7.7,0,0,0-.946.3,8.94,8.94,0,0,1-16.862-4.124l.562.562a.7.7,0,0,0,.991-.991l-1.757-1.757a.7.7,0,0,0-.991,0L.2,213.508a.7.7,0,0,0,.991.991l.561-.561a10.341,10.341,0,0,0,19.5,4.773A.7.7,0,0,0,20.965,217.765Z" transform="translate(0 -202.985)"/>
      <path id="Path_16852" data-name="Path 16852" class="cls-1" d="M76.165,37.995a.7.7,0,0,0-.991,0l-.561.561a10.341,10.341,0,0,0-19.5-4.773.7.7,0,1,0,1.241.65,8.94,8.94,0,0,1,16.862,4.124l-.562-.562a.7.7,0,0,0-.991.991l1.757,1.757a.7.7,0,0,0,.991,0l1.757-1.757a.7.7,0,0,0,0-.991Z" transform="translate(-52.459 -28.235)"/>
    </g>
    <g id="rupee" transform="translate(512.378 264.053)">
      <g id="Group_15271" data-name="Group 15271" transform="translate(0 0)">
        <g id="Group_15270" data-name="Group 15270" transform="translate(0 0)">
          <path id="Path_10795" data-name="Path 10795" class="cls-2" d="M172.8,153.964h-.852a2.671,2.671,0,0,0-.359-.833H172.8a.641.641,0,1,0,.006-1.281h-4.964a.64.64,0,0,0,0,1.281h1.422a1.454,1.454,0,0,1,1.345.833h-2.767a.64.64,0,0,0,0,1.281h2.767a2,2,0,0,1-.288.4,1.5,1.5,0,0,1-1.05.429h-1.422a.651.651,0,0,0-.641.66.661.661,0,0,0,.2.461l3.548,3.363a.639.639,0,1,0,.9-.909l-.019-.019-2.389-2.261a2.736,2.736,0,0,0,1.774-.807,2.707,2.707,0,0,0,.737-1.319h.846a.64.64,0,0,0,0-1.281Z" transform="translate(-167.2 -151.85)"/>
        </g>
      </g>
    </g>
  </g>
</svg>
