<svg xmlns="http://www.w3.org/2000/svg" width="16.314" height="13.25" viewBox="0 0 16.314 13.25" class="jsx-2764693386"><path data-name="Icon awesome-twitter" d="M14.637 6.683c.01.145.01.29.01.435a9.448 9.448 0 0 1-9.513 9.513A9.448 9.448 0 0 1 0 15.13a6.917 6.917 0 0 0 .807.041 6.7 6.7 0 0 0 4.151-1.428 3.349 3.349 0 0 1-3.126-2.319 4.216 4.216 0 0 0 .631.052 3.536 3.536 0 0 0 .88-.114A3.344 3.344 0 0 1 .662 8.08v-.041a3.367 3.367 0 0 0 1.511.424 3.348 3.348 0 0 1-1.034-4.472 9.5 9.5 0 0 0 6.894 3.5 3.774 3.774 0 0 1-.083-.766 3.347 3.347 0 0 1 5.786-2.288 6.583 6.583 0 0 0 2.122-.807 3.334 3.334 0 0 1-1.47 1.843 6.7 6.7 0 0 0 1.925-.518 7.187 7.187 0 0 1-1.677 1.729z" transform="translate(0 -3.381)" class="jsx-2764693386 cls-twitter"></path></svg>