<?xml version="1.0" encoding="UTF-8"?>
<svg version="1.1" xmlns="http://www.w3.org/2000/svg" width="50" height="51">
<path d="M0 0 C5.61322195 3.73861764 9.91320461 8.44326727 11.9375 14.9375 C12.67975196 23.12816403 13.48258504 32.25412771 7.9375 38.9375 C3.2884944 43.83415239 -1.80029268 47.54305009 -8.6484375 48.37109375 C-17.38015433 48.38009552 -23.49418546 48.20929108 -29.98828125 42.13671875 C-36.26607466 35.44300528 -38.74467353 29.19745091 -38.46875 20 C-37.397604 11.92520705 -33.23566474 6.43757365 -27.125 1.3125 C-19.61284824 -3.69560117 -8.03944608 -4.16352914 0 0 Z " fill="#2F9EB4" transform="translate(38.0625,2.0625)"/>
<path d="M0 0 C0 4.95 0 9.9 0 15 C-0.66 14.67 -1.32 14.34 -2 14 C-3.26332183 18.21107278 -3.00441956 20.5456709 -1.0625 24.375 C-0.39025121 25.59188424 0.29234251 26.8033603 1 28 C-0.98 28.99 -0.98 28.99 -3 30 C-2.33484375 30.37769531 -1.6696875 30.75539063 -0.984375 31.14453125 C1 33 1 33 1.171875 35.69921875 C1.03265625 36.68535156 0.8934375 37.67148437 0.75 38.6875 C0.62109375 39.68136719 0.4921875 40.67523438 0.359375 41.69921875 C0.24078125 42.45847656 0.1221875 43.21773437 0 44 C-4.3321179 43.89433859 -6.62551085 42.78714713 -9.6875 39.875 C-16.04472115 32.87080502 -16.62197287 26.93991276 -16.41015625 17.6015625 C-15.54896325 10.03946779 -11.30079683 5.85473351 -5.74609375 1.03125 C-4 0 -4 0 0 0 Z " fill="#0A5B9F" transform="translate(18,3)"/>
<path d="M0 0 C0.9075 0.639375 1.815 1.27875 2.75 1.9375 C5.39221381 3.61428953 6.9898499 4.53689998 10 5 C10.33 3.35 10.66 1.7 11 0 C14.3 0 17.6 0 21 0 C22.33216504 3.99649512 21.2729553 5.21598787 19.4375 8.9375 C16.94818699 13.670056 15.14484934 16.94206026 10 19 C7.08230993 19.46127291 5.01048007 19.34546493 2 19 C-0 17.5 -0 17.5 -1 16 C0.32 15.34 1.64 14.68 3 14 C2.69964844 13.49210937 2.39929688 12.98421875 2.08984375 12.4609375 C0.07282673 8.80979483 -1.05415659 6.75819226 -0.75 2.5 C-0.5025 1.675 -0.255 0.85 0 0 Z " fill="#F3F8FA" transform="translate(15,16)"/>
<path d="M0 0 C0 4.95 0 9.9 0 15 C-0.66 14.67 -1.32 14.34 -2 14 C-3.26332183 18.21107278 -3.00441956 20.5456709 -1.0625 24.375 C-0.39025121 25.59188424 0.29234251 26.8033603 1 28 C-0.98 28.99 -0.98 28.99 -3 30 C-2.33484375 30.37769531 -1.6696875 30.75539063 -0.984375 31.14453125 C1 33 1 33 1.171875 35.69921875 C1.03265625 36.68535156 0.8934375 37.67148437 0.75 38.6875 C0.62109375 39.68136719 0.4921875 40.67523438 0.359375 41.69921875 C0.24078125 42.45847656 0.1221875 43.21773437 0 44 C-2.9375 43.625 -2.9375 43.625 -6 43 C-7.65651651 39.68696697 -7.18461509 35.98695735 -7.203125 32.34375 C-7.20882507 31.48567749 -7.21452515 30.62760498 -7.22039795 29.74353027 C-7.22985 27.92782832 -7.23638275 26.11210919 -7.24023438 24.29638672 C-7.24996126 21.51109194 -7.28099075 18.72652841 -7.3125 15.94140625 C-7.31902783 14.1796919 -7.32427917 12.41797225 -7.328125 10.65625 C-7.3404718 9.81976929 -7.3528186 8.98328857 -7.36553955 8.12145996 C-7.35644531 5.77539062 -7.35644531 5.77539062 -7 2 C-4 0 -4 0 0 0 Z " fill="#0E6CA2" transform="translate(18,3)"/>
</svg>
