<svg xmlns="http://www.w3.org/2000/svg" width="27" height="24.612" viewBox="0 0 27 24.612">
  <g id="Group_24542" data-name="Group 24542" transform="translate(-510 -365.407)">
    <g id="Group_24540" data-name="Group 24540" transform="translate(0 -6.981)">
      <g id="Group_24539" data-name="Group 24539" transform="translate(140.744 350)">
        <text id="_2_crore" data-name="2 crore" transform="translate(369.256 45)" fill="#143a72" font-size="8" font-family="Manrope-Bold, Manrope" font-weight="700"><tspan x="0" y="0">2 crore</tspan></text>
      </g>
    </g>
    <path id="Intersection_2" data-name="Intersection 2" d="M-5697.092,6414v-.811A12.117,12.117,0,0,1-5685,6400.907a12.117,12.117,0,0,1,12.092,12.283V6414Zm16.946-9.25a18.737,18.737,0,0,1,1.741,7.493h3.568a10.236,10.236,0,0,0-5.9-8.528A11.28,11.28,0,0,1-5680.146,6404.751Zm-3.909,7.493h3.759a16.76,16.76,0,0,0-1.542-6.65,5.52,5.52,0,0,0-2.217-2.562Zm-4.109-6.65a16.786,16.786,0,0,0-1.54,6.65h3.758v-9.212A5.53,5.53,0,0,0-5688.164,6405.594Zm-7,6.65h3.57a18.7,18.7,0,0,1,1.742-7.493,10.732,10.732,0,0,1,.585-1.035A10.239,10.239,0,0,0-5695.164,6412.244Z" transform="translate(6208.093 -6035)" fill="#143a72" stroke="rgba(0,0,0,0)" stroke-miterlimit="10" stroke-width="1"/>
  </g>
</svg>
