<svg xmlns="http://www.w3.org/2000/svg" width="14.091" height="25.849" viewBox="0 0 14.091 25.849">
  <defs>
    <style>
      .cls-1, .cls-2 {
        fill: #143a72;
      }

      .cls-1 {
        stroke: #143a72;
        stroke-width: 0.2px;
      }
    </style>
  </defs>
  <g id="Group_22957" data-name="Group 22957" transform="translate(-508.455 -255.575)">
    <g id="Growth" transform="translate(508.555 255.675)">
      <path id="Path_16862" data-name="Path 16862" class="cls-1" d="M24.356,22.434H21.685v-1.6a.534.534,0,0,0-.534-.534H18.48v-1.6h1.6a4.814,4.814,0,0,0,4.808-4.808.534.534,0,0,0-.534-.534H22.219a4.8,4.8,0,0,0-3.739,1.792V12.791a6.411,6.411,0,1,0-1.069,0v2.354a4.8,4.8,0,0,0-3.74-1.793H11.534a.534.534,0,0,0-.534.534,4.814,4.814,0,0,0,4.808,4.808h1.6v1.6H14.74a.534.534,0,0,0-.534.534v1.6H11.534a.534.534,0,0,0-.534.534v2.137a.534.534,0,0,0,.534.534H24.356a.534.534,0,0,0,.534-.534V22.969A.534.534,0,0,0,24.356,22.434Zm-2.137-8.014h1.565a3.745,3.745,0,0,1-3.7,3.206H18.518a3.745,3.745,0,0,1,3.7-3.206ZM12.6,6.407a5.343,5.343,0,1,1,5.343,5.343A5.343,5.343,0,0,1,12.6,6.407Zm3.206,11.219a3.745,3.745,0,0,1-3.7-3.206h1.565a3.745,3.745,0,0,1,3.7,3.206Zm-.534,3.74h5.343v1.069H15.274ZM12.069,23.5h5.343v1.069H12.069Zm11.754,1.069H18.48V23.5h5.343Z" transform="translate(-11 0.009)"/>
    </g>
    <g id="rupee" transform="translate(513.25 258.884)">
      <g id="Group_15271" data-name="Group 15271" transform="translate(0 0)">
        <g id="Group_15270" data-name="Group 15270" transform="translate(0 0)">
          <path id="Path_10795" data-name="Path 10795" class="cls-2" d="M171.233,153.373h-.614a1.923,1.923,0,0,0-.258-.6h.872a.461.461,0,1,0,0-.923h-3.576a.461.461,0,0,0,0,.923h1.025a1.047,1.047,0,0,1,.969.6h-1.994a.461.461,0,0,0,0,.923h1.994a1.444,1.444,0,0,1-.208.291,1.084,1.084,0,0,1-.757.309h-1.025a.469.469,0,0,0-.461.475.476.476,0,0,0,.143.332l2.557,2.423a.46.46,0,1,0,.646-.655l-.014-.014-1.721-1.629a1.971,1.971,0,0,0,1.278-.581,1.95,1.95,0,0,0,.531-.951h.609a.461.461,0,0,0,0-.923Z" transform="translate(-167.2 -151.85)"/>
        </g>
      </g>
    </g>
  </g>
</svg>
