<svg xmlns="http://www.w3.org/2000/svg" width="60" height="63" viewBox="0 0 60 63" fill="none">
<path d="M44.2209 33.7595C46.8409 32.1095 49.0909 30.6795 51.3309 29.2595C52.0109 28.8295 52.6809 28.3895 53.3709 27.9695C55.2309 26.8495 56.1909 27.3095 56.2509 29.4795C56.3309 32.5295 56.2709 35.5895 56.2809 38.6395C56.2809 42.4495 56.3209 46.2495 56.2509 50.0495C56.2409 50.7695 55.9609 51.7495 55.4509 52.1195C55.0909 52.3795 54.0509 51.9395 53.4509 51.5795C50.4909 49.7695 47.5809 47.8795 44.2109 45.7395C44.2109 47.0495 44.2209 47.9595 44.2109 48.8795C44.1509 52.8495 41.8509 55.1595 37.8709 55.1695C28.6509 55.1895 19.4309 55.1895 10.2209 55.1695C5.94094 55.1695 3.71094 52.8795 3.71094 48.5895C3.71094 42.6395 3.71094 36.6895 3.71094 30.7395C3.71094 26.8095 6.08094 24.4695 10.0409 24.4595C19.3109 24.4495 28.5809 24.4595 37.8509 24.4595C41.7809 24.4595 44.1509 26.7995 44.2209 30.7295C44.2309 31.5795 44.2209 32.4295 44.2209 33.7395V33.7595ZM33.1209 39.7495C28.3109 36.7795 23.8309 33.9795 19.3009 31.2595C18.1909 30.5895 17.5609 31.0395 17.5509 32.5295C17.4909 37.3995 17.4909 42.2795 17.5309 47.1495C17.5409 48.6695 18.1609 48.9895 19.4509 48.2295C21.2509 47.1695 23.0109 46.0395 24.7809 44.9395C27.4509 43.2795 30.1309 41.6195 33.1309 39.7595L33.1209 39.7495Z" fill="#004880"/>
<path d="M41.1906 15.6701C41.2706 20.1301 37.7606 23.7301 33.2306 23.8101C28.8006 23.8901 25.1106 20.3101 25.0306 15.8601C24.9506 11.3901 28.6106 7.65012 33.1206 7.60012C37.5006 7.55012 41.1106 11.1501 41.1906 15.6701Z" fill="#004880"/>
<path d="M19.4701 18.3897C19.4701 21.3897 17.0501 23.8197 14.0801 23.8097C11.1001 23.8097 8.62011 21.3797 8.59011 18.4297C8.56011 15.4197 11.0501 12.9397 14.1201 12.9297C17.0701 12.9197 19.4701 15.3697 19.4701 18.3897Z" fill="#004880"/>
</svg>