<svg xmlns="http://www.w3.org/2000/svg" width="20.204" height="20.204" viewBox="0 0 20.204 20.204" class="jsx-2376288837"><path data-name="Icon awesome-whatsapp" d="M17.178 5.186A10.015 10.015 0 0 0 1.421 17.267L0 22.454l5.308-1.394a9.981 9.981 0 0 0 4.785 1.218A10.108 10.108 0 0 0 20.2 12.266a10.051 10.051 0 0 0-3.026-7.08zM10.1 20.591a8.307 8.307 0 0 1-4.239-1.159l-.3-.18-3.148.825.839-3.071-.2-.316a8.337 8.337 0 1 1 15.464-4.424 8.414 8.414 0 0 1-8.416 8.325zm4.564-6.232c-.248-.126-1.479-.731-1.709-.812s-.4-.126-.564.126-.645.812-.794.983-.293.189-.541.063a6.809 6.809 0 0 1-3.4-2.976c-.257-.442.257-.41.735-1.366a.464.464 0 0 0-.023-.437C8.3 9.813 7.8 8.582 7.59 8.081s-.41-.419-.564-.428-.311-.009-.478-.009a.927.927 0 0 0-.667.311 2.811 2.811 0 0 0-.875 2.088 4.9 4.9 0 0 0 1.019 2.589 11.179 11.179 0 0 0 4.275 3.779 4.9 4.9 0 0 0 3 .627 2.562 2.562 0 0 0 1.687-1.191 2.092 2.092 0 0 0 .144-1.191c-.055-.112-.222-.176-.47-.297z" transform="translate(0 -2.25)" class="jsx-2376288837 cls-whatsapp-number"></path></svg>