<?xml version="1.0" encoding="UTF-8"?>
<svg version="1.1" xmlns="http://www.w3.org/2000/svg" width="2941" height="1213">
<path d="M0 0 C0.66 0.33 1.32 0.66 2 1 C-5.76495972 15.56202266 -13.54082262 30.11308077 -21.60693359 44.51123047 C-24.51745321 49.71099159 -27.41546682 54.91771613 -30.3125 60.125 C-30.95429199 61.27846924 -31.59608398 62.43193848 -32.25732422 63.62036133 C-36.43121695 71.13641182 -40.54748993 78.68129662 -44.625 86.25 C-49.34841815 95.01681393 -54.20035708 103.70158873 -59.12548828 112.35644531 C-63.56990974 120.18728348 -67.86064902 128.0951236 -72.12719727 136.02392578 C-75.81362929 142.85679918 -79.59462336 149.62903011 -83.4375 156.375 C-88.69603551 165.60919158 -93.75779613 174.93792432 -98.76928711 184.30810547 C-103.09784018 192.37983433 -107.56980757 200.35968676 -112.10546875 208.31640625 C-116.17921272 215.48737929 -120.1105339 222.72764286 -124 230 C-128.90991622 239.18035109 -133.94984317 248.2721093 -139.10546875 257.31640625 C-143.17921272 264.48737929 -147.1105339 271.72764286 -151 279 C-155.40012126 287.22715829 -159.88545572 295.39094646 -164.5 303.5 C-171.50977736 315.90191379 -178.24604167 328.45693453 -185 341 C521.86 341.495 521.86 341.495 1243 342 C1243 560.13 1243 778.26 1243 1003 C650.98 1003 58.96 1003 -551 1003 C-551.66 1004.65 -552.32 1006.3 -553 1008 C-553.90872545 1009.80182129 -554.84448347 1011.59015726 -555.80078125 1013.3671875 C-556.63802734 1014.92469727 -556.63802734 1014.92469727 -557.4921875 1016.51367188 C-558.09289063 1017.62291016 -558.69359375 1018.73214844 -559.3125 1019.875 C-559.93769531 1021.03322266 -560.56289062 1022.19144531 -561.20703125 1023.38476562 C-565.73510915 1031.75335146 -570.39108316 1040.04554393 -575.1027832 1048.31201172 C-579.17773734 1055.48427577 -583.10972422 1062.72612895 -587 1070 C-591.39972313 1078.22641389 -595.88003054 1086.39519734 -600.5 1094.5 C-605.8075416 1103.81271348 -610.92228191 1113.2189342 -615.98486328 1122.66674805 C-620.01287817 1130.18043719 -624.10919012 1137.65058036 -628.265625 1145.09375 C-631.39740496 1150.70347385 -634.49911104 1156.32977508 -637.60128784 1161.9559021 C-638.62272302 1163.80837049 -639.64445925 1165.66067256 -640.66625977 1167.51293945 C-643.89977257 1173.37503523 -647.13155003 1179.23808198 -650.36047363 1185.10270691 C-651.82493089 1187.76229298 -653.29008101 1190.42149702 -654.75531006 1193.08065796 C-655.45394516 1194.34903905 -656.15223436 1195.61761073 -656.85015869 1196.88638306 C-657.82243741 1198.65388738 -658.79595953 1200.42070755 -659.76953125 1202.1875 C-660.32229736 1203.19167969 -660.87506348 1204.19585938 -661.44458008 1205.23046875 C-662.91627833 1207.85092785 -664.43962201 1210.43155386 -666 1213 C-668.83571131 1211.70951266 -670.89279314 1210.35682416 -673.09138489 1208.15585327 C-673.67575821 1207.57567444 -674.26013153 1206.99549561 -674.86221313 1206.3977356 C-675.80597305 1205.44554642 -675.80597305 1205.44554642 -676.76879883 1204.47412109 C-677.44088882 1203.80392944 -678.11297882 1203.13373779 -678.80543518 1202.4432373 C-681.02755057 1200.22482808 -683.2423782 1197.99929456 -685.45703125 1195.7734375 C-687.00359719 1194.22567889 -688.5505336 1192.67829038 -690.0978241 1191.1312561 C-693.34314434 1187.88437093 -696.58507617 1184.63415248 -699.82446289 1181.38134766 C-703.96177209 1177.2271126 -708.10556864 1173.07942585 -712.25172901 1168.93402672 C-715.44947692 1165.73600571 -718.64460253 1162.53537553 -721.83887291 1159.33388138 C-723.36479217 1157.80479498 -724.89130457 1156.27630025 -726.41843605 1154.74842453 C-728.5624813 1152.60219122 -730.70319022 1150.45268375 -732.84301758 1148.30224609 C-733.46611816 1147.67959869 -734.08921875 1147.05695129 -734.73120117 1146.41543579 C-737.75744994 1143.36741545 -740.67142136 1140.26743267 -743.48002625 1137.01699829 C-746.97764806 1132.97473808 -750.68311957 1129.18933941 -754.4765625 1125.42578125 C-755.18810486 1124.71569916 -755.89964722 1124.00561707 -756.63275146 1123.27401733 C-758.16426522 1121.7462827 -759.69693215 1120.21970338 -761.23065186 1118.69418335 C-763.66350535 1116.27419832 -766.09312949 1113.85101157 -768.52197266 1111.42700195 C-773.67850604 1106.28184645 -778.83895787 1101.14063231 -784 1096 C-789.98483003 1090.03883753 -795.96800595 1084.07603428 -801.94696045 1078.10897827 C-804.3305867 1075.73179328 -806.7172248 1073.35766133 -809.10400391 1070.98364258 C-810.57729769 1069.51398425 -812.05044962 1068.04418368 -813.5234375 1066.57421875 C-814.17922791 1065.92359467 -814.83501831 1065.27297058 -815.51068115 1064.60263062 C-821.41309486 1058.70088571 -826.88130518 1052.59718947 -831.82556301 1045.86347336 C-846.65811683 1025.82021142 -864.27288928 1004.14986068 -890.15998452 999.99789546 C-908.9849669 997.39116564 -928.19680478 997.91893861 -947.14595777 998.39135189 C-957.13638274 998.63011456 -967.1213423 998.58570437 -977.11379348 998.53629004 C-995.54092806 998.45271308 -1013.96032885 998.58474228 -1032.38555717 998.84549141 C-1050.59258407 999.10242692 -1068.79614938 999.25994312 -1087.00502205 999.28858757 C-1088.14275469 999.29043199 -1089.28048732 999.2922764 -1090.45269671 999.29417671 C-1096.23213132 999.3030396 -1102.01156669 999.31016392 -1107.79100443 999.31661975 C-1148.58576241 999.36530349 -1189.37644753 999.63101523 -1230.16918945 1000.02709961 C-1269.76545179 1000.41106305 -1309.3603896 1000.6942175 -1348.95825195 1000.84545898 C-1351.45401874 1000.85513117 -1353.94978552 1000.8648063 -1356.44555229 1000.87448436 C-1376.72907363 1000.95260594 -1397.01261913 1001.02383665 -1417.2961714 1001.09339922 C-1510.86784932 1001.41925719 -1604.42880116 1002.24798796 -1698 1003 C-1698 784.87 -1698 566.74 -1698 342 C-1594.1634375 342.17144531 -1490.326875 342.34289062 -1383.34375 342.51953125 C-1321.66085412 342.57751265 -1259.97802191 342.63417909 -1198.29511619 342.66415298 C-1196.35641908 342.66510326 -1194.41772197 342.6660545 -1192.47902486 342.6670066 C-1191.02090296 342.6677224 -1191.02090296 342.6677224 -1189.53332406 342.66845266 C-1155.18992947 342.68537035 -1120.84653584 342.70365959 -1086.5031433 342.72435079 C-1083.22524638 342.72631359 -1079.94734943 342.72824038 -1076.66945247 342.73015838 C-1026.4767392 342.75966223 -976.28412097 342.80671691 -926.0914917 342.90551758 C-925.01212509 342.90764189 -923.93275848 342.90976621 -922.82068379 342.91195489 C-905.41811192 342.94631336 -888.01554313 342.98216708 -870.6129747 343.01821926 C-820.48780265 343.12203869 -770.36272044 343.21480032 -720.23743439 343.23439312 C-719.20663056 343.23480142 -718.17582673 343.23520973 -717.11378641 343.2356304 C-694.48503526 343.2443951 -671.85628703 343.24747354 -649.22753441 343.24516812 C-640.12245885 343.24434069 -631.01738332 343.24433179 -621.91230774 343.24460411 C-620.91579749 343.24461417 -619.91928723 343.24462423 -618.8925797 343.24463459 C-586.78571483 343.24536586 -554.67941395 343.31272612 -522.57272486 343.4150438 C-490.2296958 343.5178096 -457.88730417 343.55521019 -425.54413499 343.50180545 C-421.07415852 343.49444105 -416.60418123 343.48782587 -412.13420296 343.48166275 C-411.257964 343.48042751 -410.38172503 343.47919228 -409.47893338 343.47791961 C-395.60653845 343.46030454 -381.7353477 343.51330288 -367.86322475 343.59580952 C-354.22038601 343.67549979 -340.57922242 343.68031246 -326.93633688 343.60564854 C-318.93776549 343.56412854 -310.94430348 343.5799065 -302.94623526 343.68104056 C-297.00449462 343.74973942 -291.06677558 343.70859338 -285.12511442 343.62507889 C-282.73938116 343.6084473 -280.3530748 343.62693357 -277.96799221 343.6850784 C-265.47913363 344.14392005 -265.47913363 344.14392005 -254.53270998 338.97681146 C-249.86890576 334.02752988 -246.22138063 328.53476997 -242.71003866 322.73266295 C-239.92189549 318.27717564 -236.70212011 314.16214591 -233.5 310 C-232.25960448 308.34663615 -231.02107698 306.69186775 -229.78515625 305.03515625 C-225.867715 299.81156111 -221.90380844 294.62402764 -217.9375 289.4375 C-212.84642216 282.77903867 -207.82453423 276.07679386 -202.875 269.3125 C-197.78824707 262.36163516 -192.56003152 255.53968404 -187.24511719 248.76220703 C-183.10976857 243.471495 -179.09071607 238.10630287 -175.125 232.6875 C-166.89705255 221.44656646 -158.42672774 210.39472092 -149.95898438 199.33398438 C-142.23973693 189.24641557 -134.58420529 179.12168565 -127.07324219 168.87792969 C-121.72850292 161.60069799 -116.24924039 154.43157717 -110.74658203 147.2734375 C-101.74446107 135.55583192 -92.81137668 123.7954417 -84.07397461 111.87890625 C-78.72896344 104.60136867 -73.24948896 97.43190052 -67.74658203 90.2734375 C-58.74446107 78.55583192 -49.81137668 66.7954417 -41.07397461 54.87890625 C-35.73885989 47.61484324 -30.26997989 40.4582617 -24.77734375 33.31298828 C-21.38701342 28.90090181 -18.0043052 24.48303455 -14.625 20.0625 C-13.97096191 19.21059082 -13.31692383 18.35868164 -12.64306641 17.48095703 C-8.27121393 11.75912106 -4.08488715 5.92995504 0 0 Z " fill="#0062A8" transform="translate(1698,0)"/>
<path d="M0 0 C0.93363078 0.00250888 1.86726156 0.00501775 2.82918419 0.00760266 C3.81654907 0.00632457 4.80391395 0.00504649 5.82119899 0.00372967 C9.18068777 0.00062967 12.54013089 0.00475249 15.89961822 0.00875333 C18.3224916 0.00801467 20.74536487 0.00683714 23.16823785 0.00525683 C28.47904324 0.00281492 33.7898348 0.00352527 39.10063871 0.00691797 C47.05110882 0.01197717 55.00157122 0.01129463 62.95204236 0.0094514 C76.49876139 0.00647898 90.04547613 0.00826616 103.59219463 0.01259568 C117.32915077 0.01696672 131.06610469 0.01916909 144.80306156 0.01869347 C146.10227858 0.01865044 146.10227858 0.01865044 147.42774242 0.01860653 C151.84385594 0.01845016 156.25996945 0.01825821 160.67608297 0.01805369 C192.67867105 0.01664446 224.68125716 0.02008303 256.68384464 0.0260711 C288.38697355 0.03198899 320.09010162 0.03584527 351.79323108 0.03692391 C353.26885814 0.03697553 353.26885814 0.03697553 354.77429585 0.03702819 C363.75904942 0.03734138 372.74380299 0.03762907 381.72855657 0.03788616 C404.06591605 0.03852565 426.40327552 0.03948502 448.74063499 0.04066136 C449.75794762 0.04071468 450.77526025 0.040768 451.82340054 0.04082293 C501.33719958 0.04344589 550.85099807 0.04975403 600.36479671 0.0563617 C617.55207291 0.05865331 634.73934911 0.06092866 651.92662532 0.0631366 C653.52551075 0.06334203 653.52551075 0.06334203 655.1566969 0.0635516 C704.687753 0.06989302 754.2188092 0.07362041 803.7498656 0.0766714 C806.96456105 0.07686946 810.1792565 0.07706866 813.39395195 0.07726808 C834.69750021 0.07858783 856.00104849 0.07986249 877.30459676 0.08110694 C919.69514454 0.08358359 962.08569231 0.08632527 1004.47624007 0.08924898 C1006.49509211 0.08938822 1008.51394416 0.08952728 1010.5327962 0.08966615 C1072.72989404 0.09394549 1134.92699169 0.09942126 1197.12408931 0.10615113 C1199.63342274 0.10642196 1202.14275618 0.10669279 1204.65208961 0.10696352 C1274.3013612 0.11451502 1343.95063265 0.12332094 1413.59990413 0.13180115 C1413.59990413 204.07180115 1413.59990413 408.01180115 1413.59990413 618.13180115 C832.79990413 618.13180115 251.99990413 618.13180115 -346.40009587 618.13180115 C-344.87875387 614.32844615 -343.30195504 610.91883821 -341.38056462 607.32711365 C-340.7772028 606.1983783 -340.17384099 605.06964295 -339.55219548 603.9067035 C-338.89756375 602.68994302 -338.2426912 601.47331209 -337.58759587 600.25680115 C-337.25373875 599.63476807 -336.91988164 599.01273499 -336.57590764 598.37185242 C-331.59074337 589.08653321 -326.47527756 579.88367397 -321.25312321 570.72921326 C-316.50392772 562.37996186 -311.95153766 553.93077735 -307.41498845 545.46456483 C-303.38702823 537.95105318 -299.290817 530.48106188 -295.13447087 523.03805115 C-291.65820328 516.81127229 -288.21835648 510.56436651 -284.77509587 504.31930115 C-284.08516489 503.06823746 -283.39522342 501.81717956 -282.70527165 500.56612733 C-281.30233458 498.02215854 -279.89952165 495.47812134 -278.49677556 492.93404725 C-275.46359847 487.43318578 -272.42878823 481.93322545 -269.39405339 476.43322327 C-267.72932945 473.41612198 -266.06471855 470.39895832 -264.40009587 467.38180115 C-263.73342974 466.17346752 -263.06676307 464.96513419 -262.40009587 463.75680115 C-262.07009587 463.15867615 -261.74009587 462.56055115 -261.40009587 461.94430115 C-249.7334292 440.79846782 -238.06676254 419.65263449 -226.40009587 398.50680115 C-226.07011098 397.90870133 -225.74012608 397.31060151 -225.40014165 396.69437745 C-224.73332992 395.48578565 -224.06651066 394.277198 -223.39968388 393.06861451 C-221.73517489 390.05176972 -220.07079593 387.03485333 -218.40668767 384.01778748 C-215.38109805 378.53263016 -212.35449392 373.04804382 -209.3231458 367.56606629 C-207.61899622 364.4841609 -205.9156187 361.40182929 -204.21259587 358.31930115 C-203.71184041 357.41301972 -203.71184041 357.41301972 -203.20096867 356.48842957 C-198.66077075 348.26813377 -194.16817408 340.02332937 -189.71259587 331.75680115 C-185.00914044 323.03212596 -180.17638931 314.38930016 -175.27436345 305.77486756 C-170.82996344 297.94422621 -166.53936038 290.03651688 -162.2728986 282.10787537 C-158.58646658 275.27500197 -154.80547251 268.50277105 -150.96259587 261.75680115 C-145.70406036 252.52260958 -140.64229974 243.19387684 -135.63080876 233.82369569 C-131.30225569 225.75196682 -126.8302883 217.77211439 -122.29462712 209.8153949 C-118.22088315 202.64442187 -114.28956197 195.40415829 -110.40009587 188.13180115 C-105.49017965 178.95145007 -100.4502527 169.85969185 -95.29462712 160.8153949 C-91.22088315 153.64442187 -87.28956197 146.40415829 -83.40009587 139.13180115 C-79.00037274 130.90538726 -74.52006533 122.73660381 -69.90009587 114.63180115 C-64.59255427 105.31908768 -59.47781396 95.91286695 -54.41523259 86.46505311 C-50.3872177 78.95136396 -46.29090574 71.48122079 -42.13447087 64.03805115 C-39.00249131 58.42796976 -35.90061848 52.80129402 -32.79825871 47.17480042 C-31.77855816 45.32558 -30.75844123 43.47658983 -29.73823063 41.62765076 C-26.48410093 35.72931468 -23.23281847 29.82943535 -19.98804753 23.92594483 C-18.50454796 21.22728681 -17.01979853 18.52931749 -15.53492253 15.83141663 C-14.82233359 14.53584647 -14.11037456 13.23992962 -13.39905827 11.94366029 C-12.41265329 10.14615237 -11.4241827 8.34979546 -10.43525212 6.55367615 C-9.87201237 5.5285492 -9.30877263 4.50342225 -8.72846501 3.44723084 C-6.36536652 -0.67179619 -4.65122254 0.0130571 0 0 Z " fill="#0062A8" transform="translate(1506.4000958690885,362.8681988453027)"/>
<path d="M0 0 C0.66 0.33 1.32 0.66 2 1 C-5.76495972 15.56202266 -13.54082262 30.11308077 -21.60693359 44.51123047 C-24.51745321 49.71099159 -27.41546682 54.91771613 -30.3125 60.125 C-30.95429199 61.27846924 -31.59608398 62.43193848 -32.25732422 63.62036133 C-36.43121695 71.13641182 -40.54748993 78.68129662 -44.625 86.25 C-49.34841815 95.01681393 -54.20035708 103.70158873 -59.12548828 112.35644531 C-63.56990974 120.18728348 -67.86064902 128.0951236 -72.12719727 136.02392578 C-75.81362929 142.85679918 -79.59462336 149.62903011 -83.4375 156.375 C-88.69603551 165.60919158 -93.75779613 174.93792432 -98.76928711 184.30810547 C-103.09784018 192.37983433 -107.56980757 200.35968676 -112.10546875 208.31640625 C-116.17921272 215.48737929 -120.1105339 222.72764286 -124 230 C-128.90991622 239.18035109 -133.94984317 248.2721093 -139.10546875 257.31640625 C-143.17921272 264.48737929 -147.1105339 271.72764286 -151 279 C-155.40012126 287.22715829 -159.88545572 295.39094646 -164.5 303.5 C-171.50977736 315.90191379 -178.24604167 328.45693453 -185 341 C521.86 341.495 521.86 341.495 1243 342 C1243 560.13 1243 778.26 1243 1003 C650.98 1003 58.96 1003 -551 1003 C-551.66 1004.65 -552.32 1006.3 -553 1008 C-553.90872545 1009.80182129 -554.84448347 1011.59015726 -555.80078125 1013.3671875 C-556.63802734 1014.92469727 -556.63802734 1014.92469727 -557.4921875 1016.51367188 C-558.09289063 1017.62291016 -558.69359375 1018.73214844 -559.3125 1019.875 C-559.93769531 1021.03322266 -560.56289062 1022.19144531 -561.20703125 1023.38476562 C-565.73510915 1031.75335146 -570.39108316 1040.04554393 -575.1027832 1048.31201172 C-579.17773734 1055.48427577 -583.10972422 1062.72612895 -587 1070 C-591.39972313 1078.22641389 -595.88003054 1086.39519734 -600.5 1094.5 C-605.8075416 1103.81271348 -610.92228191 1113.2189342 -615.98486328 1122.66674805 C-620.01287817 1130.18043719 -624.10919012 1137.65058036 -628.265625 1145.09375 C-631.39740496 1150.70347385 -634.49911104 1156.32977508 -637.60128784 1161.9559021 C-638.62272302 1163.80837049 -639.64445925 1165.66067256 -640.66625977 1167.51293945 C-643.89977257 1173.37503523 -647.13155003 1179.23808198 -650.36047363 1185.10270691 C-651.82493089 1187.76229298 -653.29008101 1190.42149702 -654.75531006 1193.08065796 C-655.45394516 1194.34903905 -656.15223436 1195.61761073 -656.85015869 1196.88638306 C-657.82243741 1198.65388738 -658.79595953 1200.42070755 -659.76953125 1202.1875 C-660.32229736 1203.19167969 -660.87506348 1204.19585938 -661.44458008 1205.23046875 C-662.91627833 1207.85092785 -664.43962201 1210.43155386 -666 1213 C-668.83571131 1211.70951266 -670.89279314 1210.35682416 -673.09138489 1208.15585327 C-673.67575821 1207.57567444 -674.26013153 1206.99549561 -674.86221313 1206.3977356 C-675.80597305 1205.44554642 -675.80597305 1205.44554642 -676.76879883 1204.47412109 C-677.44088882 1203.80392944 -678.11297882 1203.13373779 -678.80543518 1202.4432373 C-681.02755057 1200.22482808 -683.2423782 1197.99929456 -685.45703125 1195.7734375 C-687.00359719 1194.22567889 -688.5505336 1192.67829038 -690.0978241 1191.1312561 C-693.34314434 1187.88437093 -696.58507617 1184.63415248 -699.82446289 1181.38134766 C-703.96177209 1177.2271126 -708.10556864 1173.07942585 -712.25172901 1168.93402672 C-715.44947692 1165.73600571 -718.64460253 1162.53537553 -721.83887291 1159.33388138 C-723.36479217 1157.80479498 -724.89130457 1156.27630025 -726.41843605 1154.74842453 C-728.5624813 1152.60219122 -730.70319022 1150.45268375 -732.84301758 1148.30224609 C-733.46611816 1147.67959869 -734.08921875 1147.05695129 -734.73120117 1146.41543579 C-737.75744994 1143.36741545 -740.67142136 1140.26743267 -743.48002625 1137.01699829 C-746.97764806 1132.97473808 -750.68311957 1129.18933941 -754.4765625 1125.42578125 C-755.18810486 1124.71569916 -755.89964722 1124.00561707 -756.63275146 1123.27401733 C-758.16426522 1121.7462827 -759.69693215 1120.21970338 -761.23065186 1118.69418335 C-763.66350535 1116.27419832 -766.09312949 1113.85101157 -768.52197266 1111.42700195 C-773.67850604 1106.28184645 -778.83895787 1101.14063231 -784 1096 C-789.98483003 1090.03883753 -795.96800595 1084.07603428 -801.94696045 1078.10897827 C-804.3305867 1075.73179328 -806.7172248 1073.35766133 -809.10400391 1070.98364258 C-810.57729769 1069.51398425 -812.05044962 1068.04418368 -813.5234375 1066.57421875 C-814.17922791 1065.92359467 -814.83501831 1065.27297058 -815.51068115 1064.60263062 C-821.41309486 1058.70088571 -826.88130518 1052.59718947 -831.82556301 1045.86347336 C-846.65811683 1025.82021142 -864.27288928 1004.14986068 -890.15998452 999.99789546 C-908.9849669 997.39116564 -928.19680478 997.91893861 -947.14595777 998.39135189 C-957.13638274 998.63011456 -967.1213423 998.58570437 -977.11379348 998.53629004 C-995.54092806 998.45271308 -1013.96032885 998.58474228 -1032.38555717 998.84549141 C-1050.59258407 999.10242692 -1068.79614938 999.25994312 -1087.00502205 999.28858757 C-1088.14275469 999.29043199 -1089.28048732 999.2922764 -1090.45269671 999.29417671 C-1096.23213132 999.3030396 -1102.01156669 999.31016392 -1107.79100443 999.31661975 C-1148.58576241 999.36530349 -1189.37644753 999.63101523 -1230.16918945 1000.02709961 C-1269.76545179 1000.41106305 -1309.3603896 1000.6942175 -1348.95825195 1000.84545898 C-1351.45401874 1000.85513117 -1353.94978552 1000.8648063 -1356.44555229 1000.87448436 C-1376.72907363 1000.95260594 -1397.01261913 1001.02383665 -1417.2961714 1001.09339922 C-1510.86784932 1001.41925719 -1604.42880116 1002.24798796 -1698 1003 C-1698 784.87 -1698 566.74 -1698 342 C-1594.1634375 342.17144531 -1490.326875 342.34289062 -1383.34375 342.51953125 C-1321.66085412 342.57751265 -1259.97802191 342.63417909 -1198.29511619 342.66415298 C-1196.35641908 342.66510326 -1194.41772197 342.6660545 -1192.47902486 342.6670066 C-1191.02090296 342.6677224 -1191.02090296 342.6677224 -1189.53332406 342.66845266 C-1155.18992947 342.68537035 -1120.84653584 342.70365959 -1086.5031433 342.72435079 C-1083.22524638 342.72631359 -1079.94734943 342.72824038 -1076.66945247 342.73015838 C-1026.4767392 342.75966223 -976.28412097 342.80671691 -926.0914917 342.90551758 C-925.01212509 342.90764189 -923.93275848 342.90976621 -922.82068379 342.91195489 C-905.41811192 342.94631336 -888.01554313 342.98216708 -870.6129747 343.01821926 C-820.48780265 343.12203869 -770.36272044 343.21480032 -720.23743439 343.23439312 C-719.20663056 343.23480142 -718.17582673 343.23520973 -717.11378641 343.2356304 C-694.48503526 343.2443951 -671.85628703 343.24747354 -649.22753441 343.24516812 C-640.12245885 343.24434069 -631.01738332 343.24433179 -621.91230774 343.24460411 C-620.91579749 343.24461417 -619.91928723 343.24462423 -618.8925797 343.24463459 C-586.78571483 343.24536586 -554.67941395 343.31272612 -522.57272486 343.4150438 C-490.2296958 343.5178096 -457.88730417 343.55521019 -425.54413499 343.50180545 C-421.07415852 343.49444105 -416.60418123 343.48782587 -412.13420296 343.48166275 C-411.257964 343.48042751 -410.38172503 343.47919228 -409.47893338 343.47791961 C-395.60653845 343.46030454 -381.7353477 343.51330288 -367.86322475 343.59580952 C-354.22038601 343.67549979 -340.57922242 343.68031246 -326.93633688 343.60564854 C-318.93776549 343.56412854 -310.94430348 343.5799065 -302.94623526 343.68104056 C-297.00449462 343.74973942 -291.06677558 343.70859338 -285.12511442 343.62507889 C-282.73938116 343.6084473 -280.3530748 343.62693357 -277.96799221 343.6850784 C-265.47913363 344.14392005 -265.47913363 344.14392005 -254.53270998 338.97681146 C-249.86890576 334.02752988 -246.22138063 328.53476997 -242.71003866 322.73266295 C-239.92189549 318.27717564 -236.70212011 314.16214591 -233.5 310 C-232.25960448 308.34663615 -231.02107698 306.69186775 -229.78515625 305.03515625 C-225.867715 299.81156111 -221.90380844 294.62402764 -217.9375 289.4375 C-212.84642216 282.77903867 -207.82453423 276.07679386 -202.875 269.3125 C-197.78824707 262.36163516 -192.56003152 255.53968404 -187.24511719 248.76220703 C-183.10976857 243.471495 -179.09071607 238.10630287 -175.125 232.6875 C-166.89705255 221.44656646 -158.42672774 210.39472092 -149.95898438 199.33398438 C-142.23973693 189.24641557 -134.58420529 179.12168565 -127.07324219 168.87792969 C-121.72850292 161.60069799 -116.24924039 154.43157717 -110.74658203 147.2734375 C-101.74446107 135.55583192 -92.81137668 123.7954417 -84.07397461 111.87890625 C-78.72896344 104.60136867 -73.24948896 97.43190052 -67.74658203 90.2734375 C-58.74446107 78.55583192 -49.81137668 66.7954417 -41.07397461 54.87890625 C-35.73885989 47.61484324 -30.26997989 40.4582617 -24.77734375 33.31298828 C-21.38701342 28.90090181 -18.0043052 24.48303455 -14.625 20.0625 C-13.97096191 19.21059082 -13.31692383 18.35868164 -12.64306641 17.48095703 C-8.27121393 11.75912106 -4.08488715 5.92995504 0 0 Z M-1677 363 C-1677 566.94 -1677 770.88 -1677 981 C-1545.37772416 981.02879302 -1545.37772416 981.02879302 -1413.75544775 981.04816496 C-1394.49731247 981.05020496 -1375.2391772 981.05229222 -1355.98104195 981.05452599 C-1353.65334433 981.05479586 -1351.32564671 981.05506423 -1348.99794909 981.05533109 C-1312.28256732 981.05955258 -1275.56718715 981.06702091 -1238.85180635 981.07629722 C-1200.92731271 981.08586098 -1163.00281994 981.09191506 -1125.07832512 981.09391499 C-1119.6480324 981.09420289 -1114.21773969 981.09452852 -1108.78744698 981.09487724 C-1107.71930986 981.09494467 -1106.65117274 981.09501209 -1105.55066783 981.09508156 C-1090.81400487 981.0960952 -1076.07734411 981.09940349 -1061.34068207 981.10465802 C-1055.22796961 981.10678786 -1049.11525705 981.10861839 -1043.00254448 981.11043925 C-1037.97568523 981.11195629 -1032.94882616 981.11365543 -1027.92196711 981.11575166 C-1007.51010018 981.12404827 -987.09841554 981.12202709 -966.68660659 981.06830835 C-959.1955719 981.04870115 -951.70453178 981.03122427 -944.21349148 981.01391156 C-942.35957267 981.00954728 -940.50565421 981.00502876 -938.65173616 981.00035451 C-915.0825781 980.94121487 -891.52062134 981.01755438 -867.95303519 981.30652564 C-852.91770217 981.49065582 -837.88276285 981.612511 -822.8464946 981.68850024 C-813.21043526 981.74073095 -803.57953341 981.85660382 -793.94545849 982.05984882 C-787.48198395 982.19081742 -781.02068077 982.2456962 -774.55589139 982.2409451 C-770.85848907 982.24073877 -767.16989859 982.27401842 -763.4745421 982.40253787 C-748.6127255 983.29997478 -748.6127255 983.29997478 -735.28665046 977.95852108 C-730.45949388 973.05133522 -726.87569457 967.54958972 -723.50369119 961.57733155 C-721.30563465 957.80985554 -718.68301724 954.42931672 -716 951 C-715.03639565 949.71684213 -714.07515931 948.43189968 -713.1171875 947.14453125 C-709.48498916 942.30120627 -705.80195609 937.49686941 -702.125 932.6875 C-696.95510039 925.92199783 -691.84639466 919.11728763 -686.8125 912.25 C-680.89335385 904.17684996 -674.84745871 896.20977018 -668.74658203 888.2734375 C-659.74446107 876.55583192 -650.81137668 864.7954417 -642.07397461 852.87890625 C-636.72896344 845.60136867 -631.24948896 838.43190052 -625.74658203 831.2734375 C-616.74446107 819.55583192 -607.81137668 807.7954417 -599.07397461 795.87890625 C-593.72896344 788.60136867 -588.24948896 781.43190052 -582.74658203 774.2734375 C-573.74446107 762.55583192 -564.81137668 750.7954417 -556.07397461 738.87890625 C-550.72896344 731.60136867 -545.24948896 724.43190052 -539.74658203 717.2734375 C-530.74446107 705.55583192 -521.81137668 693.7954417 -513.07397461 681.87890625 C-507.72896344 674.60136867 -502.24948896 667.43190052 -496.74658203 660.2734375 C-487.74446107 648.55583192 -478.81137668 636.7954417 -470.07397461 624.87890625 C-464.72896344 617.60136867 -459.24948896 610.43190052 -453.74658203 603.2734375 C-444.74446107 591.55583192 -435.81137668 579.7954417 -427.07397461 567.87890625 C-421.72896344 560.60136867 -416.24948896 553.43190052 -410.74658203 546.2734375 C-401.74446107 534.55583192 -392.81137668 522.7954417 -384.07397461 510.87890625 C-378.72896344 503.60136867 -373.24948896 496.43190052 -367.74658203 489.2734375 C-358.74446107 477.55583192 -349.81137668 465.7954417 -341.07397461 453.87890625 C-335.72896344 446.60136867 -330.24948896 439.43190052 -324.74658203 432.2734375 C-315.75118214 420.56458039 -306.82317925 408.81400051 -298.09375 396.90527344 C-290.28848139 386.27596556 -282.27598884 375.79543389 -274.07421875 365.46875 C-272.90161009 364.16875128 -272.90161009 364.16875128 -273 363 C-736.32 363 -1199.64 363 -1677 363 Z M-198 363 C-206.14931543 377.48649436 -206.14931543 377.48649436 -214.25 392 C-214.8898584 393.15081055 -215.5297168 394.30162109 -216.18896484 395.48730469 C-220.38626462 403.04703916 -224.52360675 410.6377741 -228.625 418.25 C-233.34846178 427.01679117 -238.20035644 435.70158762 -243.12548828 444.35644531 C-247.56990974 452.18728348 -251.86064902 460.0951236 -256.12719727 468.02392578 C-259.81362929 474.85679918 -263.59462336 481.62903011 -267.4375 488.375 C-272.69603551 497.60919158 -277.75779613 506.93792432 -282.76928711 516.30810547 C-287.09784018 524.37983433 -291.56980757 532.35968676 -296.10546875 540.31640625 C-300.17921272 547.48737929 -304.1105339 554.72764286 -308 562 C-312.90991622 571.18035109 -317.94984317 580.2721093 -323.10546875 589.31640625 C-327.17921272 596.48737929 -331.1105339 603.72764286 -335 611 C-339.39972313 619.22641389 -343.88003054 627.39519734 -348.5 635.5 C-353.8075416 644.81271348 -358.92228191 654.2189342 -363.98486328 663.66674805 C-368.01287817 671.18043719 -372.10919012 678.65058036 -376.265625 686.09375 C-379.74189259 692.32052886 -383.18173939 698.56743465 -386.625 704.8125 C-387.31493098 706.06356369 -388.00487245 707.3146216 -388.69482422 708.56567383 C-390.09776129 711.10964261 -391.50057421 713.65367981 -392.90332031 716.19775391 C-395.9364974 721.69861537 -398.97130763 727.19857571 -402.00604248 732.69857788 C-403.67076642 735.71567918 -405.33537732 738.73284284 -407 741.75 C-407.66666613 742.95833363 -408.3333328 744.16666696 -409 745.375 C-409.33 745.973125 -409.66 746.57125 -410 747.1875 C-421.66666667 768.33333333 -433.33333333 789.47916667 -445 810.625 C-445.32998489 811.22309982 -445.65996979 811.82119965 -445.99995422 812.43742371 C-446.66676595 813.64601551 -447.33358521 814.85460315 -448.00041199 816.06318665 C-449.66492098 819.08003144 -451.32929994 822.09694782 -452.9934082 825.11401367 C-456.01899781 830.599171 -459.04560195 836.08375734 -462.07695007 841.56573486 C-463.78109964 844.64764025 -465.48447717 847.72997186 -467.1875 850.8125 C-467.68825546 851.71878143 -467.68825546 851.71878143 -468.1991272 852.64337158 C-472.73932511 860.86366738 -477.23192179 869.10847179 -481.6875 877.375 C-486.39095543 886.0996752 -491.22370656 894.742501 -496.12573242 903.35693359 C-500.00501293 910.19188417 -503.77560012 917.07957918 -507.5 924 C-511.78860891 931.96732827 -516.15688219 939.88189582 -520.625 947.75 C-524.88389049 955.25449658 -529.12859515 962.76586888 -533.3125 970.3125 C-533.78703613 971.16102539 -534.26157227 972.00955078 -534.75048828 972.88378906 C-535.17958496 973.66077148 -535.60868164 974.43775391 -536.05078125 975.23828125 C-536.42887939 975.91930908 -536.80697754 976.60033691 -537.1965332 977.30200195 C-538.14257253 978.98822107 -538.14257253 978.98822107 -538 981 C42.8 981 623.6 981 1222 981 C1222 777.06 1222 573.12 1222 363 C753.4 363 284.8 363 -198 363 Z " fill="#FFFFFF" transform="translate(1698,0)"/>
<path d="M0 0 C0.33 0.66 0.66 1.32 1 2 C0.1105957 4.09692383 0.1105957 4.09692383 -1.32421875 6.70703125 C-2.11590454 8.15903931 -2.11590454 8.15903931 -2.92358398 9.64038086 C-3.50567627 10.68718018 -4.08776855 11.73397949 -4.6875 12.8125 C-5.28183838 13.89474854 -5.87617676 14.97699707 -6.48852539 16.09204102 C-11.20469651 24.64874643 -16.03816512 33.13682283 -20.91015625 41.60546875 C-24.2749939 47.4628588 -27.57847501 53.35395827 -30.875 59.25 C-31.45942871 60.29518799 -32.04385742 61.34037598 -32.64599609 62.41723633 C-33.8353922 64.54526011 -35.02451853 66.67343469 -36.21337891 68.80175781 C-44.14424614 82.99885548 -52.09430638 97.18460567 -60.10571289 111.33642578 C-64.09058246 118.37975964 -68.04998867 125.43706584 -72 132.5 C-77.01059503 141.4593421 -82.04829051 150.40281974 -87.10546875 159.3359375 C-91.09036769 166.37946347 -95.04989994 173.43690717 -99 180.5 C-104.01059503 189.4593421 -109.04829051 198.40281974 -114.10546875 207.3359375 C-118.09036769 214.37946347 -122.04989994 221.43690717 -126 228.5 C-131.01059503 237.4593421 -136.04829051 246.40281974 -141.10546875 255.3359375 C-145.09036769 262.37946347 -149.04989994 269.43690717 -153 276.5 C-158.01059503 285.4593421 -163.04829051 294.40281974 -168.10546875 303.3359375 C-172.09036769 310.37946347 -176.04989994 317.43690717 -180 324.5 C-185.01059503 333.4593421 -190.04829051 342.40281974 -195.10546875 351.3359375 C-199.09036769 358.37946347 -203.04989994 365.43690717 -207 372.5 C-212.01059503 381.4593421 -217.04829051 390.40281974 -222.10546875 399.3359375 C-226.09036769 406.37946347 -230.04989994 413.43690717 -234 420.5 C-239.01059503 429.4593421 -244.04829051 438.40281974 -249.10546875 447.3359375 C-253.09036769 454.37946347 -257.04989994 461.43690717 -261 468.5 C-266.01059503 477.4593421 -271.04829051 486.40281974 -276.10546875 495.3359375 C-280.09036769 502.37946347 -284.04989994 509.43690717 -288 516.5 C-293.01059503 525.4593421 -298.04829051 534.40281974 -303.10546875 543.3359375 C-307.09036769 550.37946347 -311.04989994 557.43690717 -315 564.5 C-320.01059503 573.4593421 -325.04829051 582.40281974 -330.10546875 591.3359375 C-334.09036769 598.37946347 -338.04989994 605.43690717 -342 612.5 C-347.01059503 621.4593421 -352.04829051 630.40281974 -357.10546875 639.3359375 C-361.09036769 646.37946347 -365.04989994 653.43690717 -369 660.5 C-374.01059503 669.4593421 -379.04829051 678.40281974 -384.10546875 687.3359375 C-388.09036769 694.37946347 -392.04989994 701.43690717 -396 708.5 C-401.01059503 717.4593421 -406.04829051 726.40281974 -411.10546875 735.3359375 C-415.09036769 742.37946347 -419.04989994 749.43690717 -423 756.5 C-427.48034925 764.51122051 -431.97806092 772.5121806 -436.5 780.5 C-443.37372397 792.64410093 -450.18901937 804.82062923 -457 817 C-464.34130716 830.12769874 -471.69588105 843.2472626 -479.10571289 856.33642578 C-483.09058246 863.37975964 -487.04998867 870.43706584 -491 877.5 C-496.01059503 886.4593421 -501.04829051 895.40281974 -506.10546875 904.3359375 C-510.09036769 911.37946347 -514.04989994 918.43690717 -518 925.5 C-523.01059503 934.4593421 -528.04829051 943.40281974 -533.10546875 952.3359375 C-537.09036769 959.37946347 -541.04989994 966.43690717 -545 973.5 C-550.00739848 982.45362642 -555.03993699 991.39251263 -560.09667969 1000.31835938 C-562.95038158 1005.35961026 -565.78968454 1010.40838574 -568.609375 1015.46875 C-574.89957264 1026.75598282 -581.23317497 1037.99048309 -588 1049 C-595.00285604 1043.26912737 -601.30303553 1036.84219667 -607.6875 1030.4453125 C-608.91611409 1029.21737335 -610.14487648 1027.98958257 -611.3737793 1026.76193237 C-613.94059247 1024.19658775 -616.50560333 1021.6294583 -619.06933594 1019.06103516 C-622.33721881 1015.78746159 -625.6095633 1012.51839074 -628.88328552 1009.25065804 C-631.41944216 1006.71813496 -633.95318752 1004.18321016 -636.48623657 1001.64757919 C-637.69103847 1000.44211543 -638.89656914 999.23737955 -640.10287476 998.03342056 C-641.79629125 996.34257615 -643.48641475 994.64850297 -645.17578125 992.95361328 C-645.90699692 992.22543396 -645.90699692 992.22543396 -646.65298462 991.48254395 C-649.34265025 988.77676529 -651.8967805 985.99459745 -654.39099121 983.10702515 C-657.9495191 979.00484297 -661.71468045 975.15773079 -665.56835938 971.33398438 C-666.65030327 970.25423088 -666.65030327 970.25423088 -667.75410461 969.15266418 C-669.30689954 967.60364893 -670.8608477 966.055789 -672.41584778 964.50898743 C-674.88230491 962.05539621 -677.3455351 959.59860532 -679.8079834 957.14099121 C-685.03584707 951.92450667 -690.26762878 946.71196275 -695.5 941.5 C-701.56743504 935.45623053 -707.63321739 929.4108215 -713.69477844 923.36116028 C-716.11164385 920.95073725 -718.53152087 918.54336643 -720.95153809 916.1361084 C-722.44505482 914.64622705 -723.93842973 913.15620351 -725.43164062 911.66601562 C-726.09678177 911.0060408 -726.76192291 910.34606598 -727.44721985 909.66609192 C-731.28049886 905.83324146 -734.92144719 901.88856621 -738.4510355 897.77381802 C-740.7587549 895.13110139 -743.21797177 892.68827664 -745.71484375 890.22265625 C-746.21544815 889.72583847 -746.71605255 889.22902069 -747.23182678 888.71714783 C-748.79791251 887.1630779 -750.36727146 885.61238314 -751.9375 884.0625 C-754.03278903 881.99372962 -756.12477613 879.92170002 -758.21484375 877.84765625 C-759.59337524 876.4865271 -759.59337524 876.4865271 -760.99975586 875.09790039 C-763 873 -763 873 -763 872 C-762.4038429 872.01143854 -761.80768579 872.02287708 -761.19346333 872.03466225 C-746.63526263 872.30771794 -732.07823829 872.47968269 -717.5176897 872.54146767 C-710.4754774 872.57374553 -703.43660232 872.63923883 -696.39575195 872.78515625 C-689.59308415 872.92604145 -682.79497428 872.97140094 -675.99088097 872.95997238 C-673.40279344 872.97095686 -670.81463293 873.01331581 -668.22760963 873.08833694 C-654.77883957 873.92244245 -654.77883957 873.92244245 -642.65645027 869.23265076 C-638.63441744 865.01426064 -635.78533968 860.29496795 -633.13949585 855.12948513 C-631.56797465 852.19263282 -629.66380799 849.73658085 -627.58203125 847.140625 C-626.6389209 845.91412231 -626.6389209 845.91412231 -625.67675781 844.6628418 C-625.06155273 843.866604 -624.44634766 843.07036621 -623.8125 842.25 C-618.95262548 835.9167515 -614.17674852 829.54710987 -609.57641602 823.02319336 C-606.54196466 818.72887174 -603.41475067 814.51158382 -600.25 810.3125 C-595.84092685 804.46219061 -591.46695272 798.58782385 -587.125 792.6875 C-586.54153809 791.89472656 -585.95807617 791.10195313 -585.35693359 790.28515625 C-583.57075199 787.85716523 -581.78524822 785.42867738 -580 783 C-572.88455013 773.32003957 -565.75595805 763.65224136 -558.53417969 754.05126953 C-552.29465252 745.74631473 -546.15228357 737.36965513 -540 729 C-532.88455013 719.32003957 -525.75595805 709.65224136 -518.53417969 700.05126953 C-512.29465252 691.74631473 -506.15228357 683.36965513 -500 675 C-492.88455013 665.32003957 -485.75595805 655.65224136 -478.53417969 646.05126953 C-472.89690914 638.5479322 -467.34128721 630.98469459 -461.78222656 623.42333984 C-458.27464562 618.65399074 -454.7610183 613.88909438 -451.24829102 609.12353516 C-448.34134427 605.17929 -445.43622871 601.23372455 -442.53515625 597.28515625 C-435.94076398 588.31440641 -429.29782277 579.38265197 -422.60791016 570.48291016 C-416.0114892 561.69964154 -409.50341477 552.85222443 -403 544 C-395.88523543 534.31954307 -388.75595165 524.65223285 -381.53417969 515.05126953 C-375.29465252 506.74631473 -369.15228357 498.36965513 -363 490 C-355.88455013 480.32003957 -348.75595805 470.65224136 -341.53417969 461.05126953 C-335.29465252 452.74631473 -329.15228357 444.36965513 -323 436 C-315.88455013 426.32003957 -308.75595805 416.65224136 -301.53417969 407.05126953 C-295.29465252 398.74631473 -289.15228357 390.36965513 -283 382 C-275.88455013 372.32003957 -268.75595805 362.65224136 -261.53417969 353.05126953 C-255.29465252 344.74631473 -249.15228357 336.36965513 -243 328 C-235.88455013 318.32003957 -228.75595805 308.65224136 -221.53417969 299.05126953 C-215.29465252 290.74631473 -209.15228357 282.36965513 -203 274 C-195.88455013 264.32003957 -188.75595805 254.65224136 -181.53417969 245.05126953 C-175.89690914 237.5479322 -170.34128721 229.98469459 -164.78222656 222.42333984 C-161.27464562 217.65399074 -157.7610183 212.88909438 -154.24829102 208.12353516 C-151.34134427 204.17929 -148.43622871 200.23372455 -145.53515625 196.28515625 C-138.94076398 187.31440641 -132.29782277 178.38265197 -125.60791016 169.48291016 C-119.0114892 160.69964154 -112.50341477 151.85222443 -106 143 C-98.88523543 133.31954307 -91.75595165 123.65223285 -84.53417969 114.05126953 C-78.29465252 105.74631473 -72.15228357 97.36965513 -66 89 C-58.88455013 79.32003957 -51.75595805 69.65224136 -44.53417969 60.05126953 C-38.29465252 51.74631473 -32.15228357 43.36965513 -26 35 C-17.3915511 23.2889422 -8.74384522 11.61041718 0 0 Z " fill="#D71921" transform="translate(1615,130)"/>
<path d="M0 0 C148.04294479 0 148.04294479 0 175 26 C190.30017108 43.39087768 193.96542746 63.76704807 193.17480469 86.30371094 C192.06862454 103.36607627 184.75785196 118.52979312 172 130 C164.66995222 135.78517702 157.14880684 140.75292463 148 143 C148 143.66 148 144.32 148 145 C148.84949219 145.10054687 149.69898438 145.20109375 150.57421875 145.3046875 C160.35637113 147.29011866 169.63335365 153.44530866 177 160 C177.61230469 160.53109375 178.22460938 161.0621875 178.85546875 161.609375 C192.68102016 174.42776703 199.18479868 193.74126254 200.10986328 212.19116211 C200.74214236 236.71987095 196.79798676 261.36398661 179.31860352 279.82421875 C159.13695856 300.19307748 131.52451497 306.2475485 104 309 C69.68 309 35.36 309 0 309 C0 207.03 0 105.06 0 0 Z " fill="#FFFFFF" transform="translate(1558,518)"/>
<path d="M0 0 C62.04 0 124.08 0 188 0 C188 21.45 188 42.9 188 65 C149.39 65 110.78 65 71 65 C71 82.82 71 100.64 71 119 C104.33 119 137.66 119 172 119 C172 140.12 172 161.24 172 183 C138.67 183 105.34 183 71 183 C71 202.8 71 222.6 71 243 C110.27 243 149.54 243 190 243 C190 264.78 190 286.56 190 309 C127.3 309 64.6 309 0 309 C0 207.03 0 105.06 0 0 Z " fill="#FFFFFF" transform="translate(503,518)"/>
<path d="M0 0 C7 0 7 0 10.0625 2.34375 C11.0606266 3.37786314 12.03923431 4.43108654 13 5.5 C13.78515991 6.32866577 13.78515991 6.32866577 14.58618164 7.17407227 C17.83560807 10.62913946 20.95643618 14.1944298 24.02734375 17.80859375 C26.73900725 20.82095657 29.61854821 23.65088774 32.5 26.5 C35.92845105 29.89005854 39.32260742 33.25194008 42.4375 36.9375 C45.74572637 40.84269956 49.36513493 44.40281168 53 48 C57.21010629 52.16646694 61.2724121 56.35285402 65.09765625 60.87890625 C67.78152487 63.87139221 70.64234089 66.67433259 73.5 69.5 C76.92844551 72.89006381 80.32260699 76.25193957 83.4375 79.9375 C86.74572637 83.84269956 90.36513493 87.40281168 94 91 C98.21010629 95.16646694 102.2724121 99.35285402 106.09765625 103.87890625 C109.32501185 107.47737461 112.80624973 110.8252353 116.24243164 114.22290039 C119.68388165 117.64055815 122.92608651 121.14278209 126.0625 124.84375 C128.76030603 127.84614704 131.63044038 130.66260582 134.5 133.5 C137.92844828 136.89006118 141.3226072 140.25193982 144.4375 143.9375 C147.74572637 147.84269956 151.36513493 151.40281168 155 155 C159.21010629 159.16646694 163.2724121 163.35285402 167.09765625 167.87890625 C170.32432211 171.47660556 173.80476232 174.82378855 177.24023438 178.22070312 C180.1250868 181.08559117 182.92786515 183.96178724 185.5625 187.0625 C190.42660004 192.63410549 195.77016936 197.77016936 201 203 C201.33 139.31 201.66 75.62 202 10 C219.49 10 236.98 10 255 10 C255 115.27 255 220.54 255 329 C248 329 248 329 245.6640625 327.47460938 C244.99117187 326.77142578 244.31828125 326.06824219 243.625 325.34375 C242.48804687 324.17972656 242.48804687 324.17972656 241.328125 322.9921875 C240.55984375 322.16976563 239.7915625 321.34734375 239 320.5 C238.23171875 319.70851563 237.4634375 318.91703125 236.671875 318.1015625 C233.14722263 314.44503538 229.72633006 310.71792731 226.40625 306.875 C222.95525781 302.88727515 219.26376705 299.19056262 215.5 295.5 C211.13252485 291.17908303 206.8936608 286.85299477 202.93359375 282.15234375 C200.0804977 278.9764732 197.03376938 276.00240448 194 273 C186.64283527 265.71889798 186.64283527 265.71889798 183.5625 262.0625 C180.10961404 257.97378849 176.29922802 254.26265302 172.5 250.5 C168.1346888 246.17671345 163.89386039 241.85323169 159.93359375 237.15234375 C157.0804977 233.9764732 154.03376938 231.00240448 151 228 C143.64283527 220.71889798 143.64283527 220.71889798 140.5625 217.0625 C137.10961404 212.97378849 133.29922802 209.26265302 129.5 205.5 C125.1346888 201.17671345 120.89386039 196.85323169 116.93359375 192.15234375 C114.0804977 188.9764732 111.03376938 186.00240448 108 183 C100.64283527 175.71889798 100.64283527 175.71889798 97.5625 172.0625 C94.10961404 167.97378849 90.29922802 164.26265302 86.5 160.5 C82.13873252 156.18071825 77.89914459 151.86311948 73.9453125 147.1640625 C70.45708243 143.28358166 66.69846059 139.66042609 62.97241211 136.00952148 C62.38983643 135.43532471 61.80726074 134.86112793 61.20703125 134.26953125 C60.6860083 133.76010986 60.16498535 133.25068848 59.62817383 132.72583008 C57.62209875 130.59943261 55.8261946 128.28274325 54 126 C53.67 189.69 53.34 253.38 53 319 C35.51 319 18.02 319 0 319 C0 213.73 0 108.46 0 0 Z " fill="#FFFFFF" transform="translate(2143,508)"/>
<path d="M0 0 C1.2065625 0.0309375 1.2065625 0.0309375 2.4375 0.0625 C8.01026503 11.04129175 13.31935384 22.11512065 18.4375 33.3125 C18.80055237 34.10418579 19.16360474 34.89587158 19.53765869 35.71154785 C25.22164013 48.10652487 30.78297881 60.55293659 36.2902832 73.02722168 C42.08859168 86.15065469 48.09434552 99.17123788 54.1552124 112.1751709 C60.04225063 124.81251012 65.7833958 137.50460014 71.40673828 150.26123047 C76.7748708 162.42917725 82.31908685 174.50824526 87.9375 186.5625 C93.89456288 199.34332469 99.74923018 212.15976054 105.4375 225.0625 C111.15314723 238.02417625 117.02500473 250.90581793 123 263.75 C124.59123142 267.17183521 126.18242904 270.59368612 127.7734375 274.015625 C128.16180283 274.85089218 128.55016815 275.68615936 128.95030212 276.54673767 C132.70258065 284.62251812 136.42843253 292.71020599 140.12545776 300.81143188 C140.7870921 302.26012686 141.45009762 303.70819646 142.11453247 305.15560913 C143.02146136 307.13202336 143.9235583 309.11056677 144.82421875 311.08984375 C145.33170654 312.20093506 145.83919434 313.31202637 146.36206055 314.45678711 C147.4375 317.0625 147.4375 317.0625 147.4375 319.0625 C128.2975 319.0625 109.1575 319.0625 89.4375 319.0625 C80.25 298.75 80.25 298.75 77.38208008 292.40893555 C76.99396652 291.55104935 76.60585297 290.69316315 76.20597839 289.8092804 C75.42020731 288.07193039 74.63493943 286.33435274 73.85005188 284.59660339 C72.14901368 280.83261257 70.44674432 277.06973143 68.70849609 273.32275391 C68.02327881 271.84234619 68.02327881 271.84234619 67.32421875 270.33203125 C66.94869873 269.52999268 66.57317871 268.7279541 66.1862793 267.90161133 C65.4375 266.0625 65.4375 266.0625 65.4375 264.0625 C19.8975 264.0625 -25.6425 264.0625 -72.5625 264.0625 C-73.5525 267.0325 -74.5425 270.0025 -75.5625 273.0625 C-76.17746601 274.57346665 -76.81810751 276.07487546 -77.5078125 277.55322266 C-78.0335083 278.68952621 -78.0335083 278.68952621 -78.56982422 279.8487854 C-78.93865723 280.63345184 -79.30749023 281.41811829 -79.6875 282.2265625 C-80.07566895 283.06287201 -80.46383789 283.89918152 -80.86376953 284.76083374 C-82.09215004 287.40519198 -83.32704177 290.04644219 -84.5625 292.6875 C-85.79661348 295.33630537 -87.02935186 297.98574417 -88.26123047 300.6355896 C-89.02428877 302.27583631 -89.78884745 303.91538618 -90.55517578 305.55410767 C-91.08087158 306.68095474 -91.08087158 306.68095474 -91.6171875 307.83056641 C-91.92124512 308.48070709 -92.22530273 309.13084778 -92.53857422 309.8006897 C-93.926772 312.86716199 -95.23654485 315.96860466 -96.5625 319.0625 C-115.0425 319.0625 -133.5225 319.0625 -152.5625 319.0625 C-150.04031039 312.75702598 -147.51164762 306.62905212 -144.578125 300.53125 C-144.20567154 299.75024933 -143.83321808 298.96924866 -143.44947815 298.1645813 C-142.65309776 296.49541115 -141.85534196 294.82689662 -141.05630493 293.15899658 C-139.35135552 289.59984096 -137.65341031 286.03735921 -135.95515442 282.4750061 C-135.08518354 280.6501265 -134.21489234 278.82539957 -133.34428406 277.00082397 C-129.32583089 268.5764918 -125.34398788 260.13522663 -121.375 251.6875 C-120.72104063 250.29621833 -120.06706926 248.90494229 -119.41308594 247.51367188 C-118.11315002 244.74785939 -116.81356631 241.98188171 -115.51416016 239.21582031 C-112.53442557 232.87358149 -109.54973694 226.53367366 -106.56552124 220.19354248 C-104.89765405 216.64995269 -103.23009215 213.10621923 -101.5625 209.5625 C-100.8958348 208.14583264 -100.22916814 206.72916598 -99.5625 205.3125 C-99.2325 204.61125 -98.9025 203.91 -98.5625 203.1875 C-81.5625 167.0625 -64.5625 130.9375 -47.5625 94.8125 C-47.23251007 94.11127014 -46.90252014 93.41004028 -46.56253052 92.68756104 C-45.89576604 91.27068907 -45.22899765 89.85381896 -44.56222534 88.43695068 C-42.89702299 84.89844013 -41.23188844 81.3598977 -39.56689453 77.82128906 C-36.54957207 71.4087523 -33.53174738 64.9964543 -30.51139832 58.58534241 C-29.15540054 55.70698108 -27.79971308 52.82847368 -26.44412231 49.94992065 C-25.77712111 48.53363757 -25.11002833 47.11739761 -24.44284058 45.70120239 C-20.77115742 37.90657346 -17.11230992 30.10625061 -13.48046875 22.29296875 C-13.15298645 21.58892914 -12.82550415 20.88488953 -12.48809814 20.15951538 C-10.92716185 16.80331159 -9.36850543 13.44608508 -7.81396484 10.08691406 C-7.26820801 8.91225586 -6.72245117 7.73759766 -6.16015625 6.52734375 C-5.68070557 5.492146 -5.20125488 4.45694824 -4.70727539 3.39038086 C-3.07690274 0.07504641 -3.07690274 0.07504641 0 0 Z " fill="#FFFFFF" transform="translate(1944.5625,507.9375)"/>
<path d="M0 0 C0 24.42 0 48.84 0 74 C-10.85778023 68.57110988 -10.85778023 68.57110988 -15.65112305 65.7668457 C-37.96593779 52.73980279 -64.44328603 40.96555542 -90.58203125 46.9609375 C-96.92141888 48.88811134 -102.01890419 51.87255089 -105.5 57.625 C-108.50717644 64.391147 -108.950211 69.98960558 -106.3125 77.0625 C-99.05877224 95.48040135 -71.1980225 104.73988562 -54.78320312 113.76953125 C-38.16228507 122.93896607 -22.37146907 132.51505121 -8 145 C-7.00226563 145.85207031 -6.00453125 146.70414063 -4.9765625 147.58203125 C10.75649615 161.27942577 19.75284757 177.40006498 23 198 C23.13019531 198.78503906 23.26039063 199.57007813 23.39453125 200.37890625 C26.97274147 226.28514823 20.23565134 253.4990585 4.8125 274.5 C-15.36530527 299.24130003 -41.6418247 310.55563777 -73 314 C-105.48733842 316.01377826 -138.25088888 310.55267446 -169 300 C-170.72510301 285.94725977 -171.84729872 271.86808152 -172.85986328 257.74780273 C-173.126307 254.0443332 -173.40073689 250.34151151 -173.67578125 246.63867188 C-173.84943593 244.25003467 -174.02262935 241.86136388 -174.1953125 239.47265625 C-174.31714401 237.83793114 -174.31714401 237.83793114 -174.44143677 236.17018127 C-174.91730859 229.43413129 -175.09707511 222.75227049 -175 216 C-173.93720322 216.58273682 -173.93720322 216.58273682 -172.85293579 217.17724609 C-123.90606377 244.31389686 -123.90606377 244.31389686 -69.19140625 244.2890625 C-61.73691481 241.75383764 -55.22083426 236.67120993 -50.7421875 230.17578125 C-47.23889756 222.88009492 -47.50473804 215.23609404 -49.88671875 207.69140625 C-57.75076608 188.67972691 -84.62818059 178.37723302 -101.35713196 168.9894104 C-132.74507725 151.37390149 -163.86802882 132.11531349 -175.03515625 95.71875 C-180.95493027 72.90245498 -179.01704078 48.17492621 -167.04296875 27.64453125 C-165.11869942 24.68270178 -163.11542639 21.82772007 -161 19 C-160.51917969 18.34644531 -160.03835938 17.69289063 -159.54296875 17.01953125 C-144.62956602 -1.76190101 -120.31706451 -10.81563675 -97.421875 -14.58984375 C-63.57812786 -18.43009324 -31.90576219 -10.63525406 0 0 Z " fill="#FFFFFF" transform="translate(935,523)"/>
<path d="M0 0 C17.82 0 35.64 0 54 0 C54.33 44.55 54.66 89.1 55 135 C60.00243583 129.99756417 64.64294107 125.33323542 69.1875 120.03125 C71.92899323 116.95888689 74.88210156 114.10954846 77.8125 111.21875 C79.79720342 109.20569368 81.66096916 107.14553597 83.5 105 C86.04691608 102.02859791 88.71378859 99.2485599 91.5 96.5 C94.26560408 93.77170593 96.91287031 91.01483166 99.4375 88.0625 C102.9446944 83.96941697 106.75725158 80.22775296 110.58984375 76.44140625 C113.26854532 73.72797273 115.74608118 70.89222977 118.22265625 67.99609375 C120.94977223 64.93333273 123.89404637 62.09776507 126.8125 59.21875 C128.79720342 57.20569368 130.66096916 55.14553597 132.5 53 C135.04691608 50.02859791 137.71378859 47.2485599 140.5 44.5 C143.26560408 41.77170593 145.91287031 39.01483166 148.4375 36.0625 C151.9446944 31.96941697 155.75725158 28.22775296 159.58984375 24.44140625 C162.2647195 21.73184816 164.73936167 18.901079 167.2109375 16.0078125 C169.96141862 12.92102801 172.92241367 10.0558432 175.88671875 7.17578125 C178.08237961 5.04655923 178.08237961 5.04655923 179.73651123 2.39949036 C182 0 182 0 184.91070557 -0.60127258 C186.03877625 -0.59016953 187.16684692 -0.57906647 188.32910156 -0.56762695 C189.61012756 -0.5672493 190.89115356 -0.56687164 192.21099854 -0.56648254 C193.60421728 -0.54095112 194.99742606 -0.51487117 196.390625 -0.48828125 C197.81979129 -0.47895167 199.24897361 -0.47183624 200.67816162 -0.46684265 C204.43343528 -0.44778355 208.18773657 -0.39869432 211.94262695 -0.34332275 C215.77672166 -0.29210548 219.61097405 -0.26932346 223.4453125 -0.24414062 C230.96398419 -0.19057265 238.48185567 -0.10527541 246 0 C245.0691211 1.26573312 244.13475536 2.52890222 243.19897461 3.79101562 C242.67903427 4.4947229 242.15909393 5.19843018 241.62339783 5.92346191 C239.18322557 9.04476129 236.41307648 11.75783944 233.5625 14.5 C229.38899129 18.58875547 225.38951731 22.71901295 221.60546875 27.17578125 C219.19097312 29.91925926 216.56789201 32.44082802 213.96484375 35.00390625 C212.07769256 36.92107177 210.31314625 38.89575322 208.5625 40.9375 C205.28869347 44.74824063 201.76636029 48.25078165 198.19140625 51.77734375 C195.57898932 54.4270144 193.16697379 57.21172803 190.74609375 60.03515625 C188.27396582 62.81699148 185.61569453 65.39375951 182.96484375 68.00390625 C181.07769256 69.92107177 179.31314625 71.89575322 177.5625 73.9375 C174.28869347 77.74824063 170.76636029 81.25078165 167.19140625 84.77734375 C164.57898932 87.4270144 162.16697379 90.21172803 159.74609375 93.03515625 C157.27396582 95.81699148 154.61569453 98.39375951 151.96484375 101.00390625 C150.07769256 102.92107177 148.31314625 104.89575322 146.5625 106.9375 C143.99334729 109.92801716 141.30682744 112.73116684 138.5 115.5 C135.71378859 118.2485599 133.04691608 121.02859791 130.5 124 C127.95308392 126.97140209 125.28621141 129.7514401 122.5 132.5 C117.25656491 137.6808002 112.37630805 143.06446843 108 149 C108.85722656 149.845625 109.71445313 150.69125 110.59765625 151.5625 C111.75274179 152.7081946 112.90768185 153.85403588 114.0625 155 C114.62388672 155.55300781 115.18527344 156.10601563 115.76367188 156.67578125 C118.77527604 159.67017624 121.6615952 162.719116 124.43359375 165.9375 C128.08974811 170.16895726 132.00944977 174.08589709 136 178 C139.95867373 181.88283707 143.85058338 185.76340662 147.46875 189.96875 C151.26142048 194.37203182 155.35573206 198.42986924 159.5 202.5 C164.26857774 207.18327224 168.84975966 211.91966352 173.20898438 216.98632812 C176.47191 220.65489554 179.99848712 224.06112599 183.5 227.5 C188.27880802 232.1933195 192.87155094 236.93991978 197.24023438 242.01757812 C200.33394006 245.50271827 203.67436478 248.73807426 207 252 C210.95867373 255.88283707 214.85058338 259.76340662 218.46875 263.96875 C222.26142048 268.37203182 226.35573206 272.42986924 230.5 276.5 C235.29024847 281.20455529 239.89405712 285.96264512 244.27197266 291.05371094 C247.76116704 294.98361453 251.58845801 298.58778008 255.36523438 302.23828125 C255.96529297 302.82738281 256.56535156 303.41648437 257.18359375 304.0234375 C257.72556396 304.54856934 258.26753418 305.07370117 258.82592773 305.61474609 C260 307 260 307 260 309 C251.15060999 309.37366727 242.30400076 309.65642278 233.44839478 309.82899475 C229.33414829 309.91190627 225.22536056 310.02392149 221.11425781 310.20703125 C190.89601371 311.51771309 190.89601371 311.51771309 182.16259766 303.59545898 C179.70327916 300.90844833 177.52751148 298.14563782 175.48474121 295.13098145 C171.21447981 289.00206972 165.82719172 283.70509685 160.5 278.5 C156.4646327 274.51478981 152.60576993 270.48480851 148.9375 266.15625 C146.23969397 263.15385296 143.36955962 260.33739418 140.5 257.5 C137.07155172 254.10993882 133.6773928 250.74806018 130.5625 247.0625 C127.25427363 243.15730044 123.63486507 239.59718832 120 236 C115.78989371 231.83353306 111.7275879 227.64714598 107.90234375 223.12109375 C105.21847513 220.12860779 102.35765911 217.32566741 99.5 214.5 C96.07155449 211.10993619 92.67739301 207.74806043 89.5625 204.0625 C85.68800177 199.4888442 81.37922528 195.35447713 77.12231445 191.1418457 C74.05522745 188.09444844 71.05924561 185.04083057 68.25 181.75 C64.08133297 176.93999958 59.50077154 172.50077154 55 168 C54.67 214.53 54.34 261.06 54 309 C36.18 309 18.36 309 0 309 C0 207.03 0 105.06 0 0 Z " fill="#FFFFFF" transform="translate(2494,518)"/>
<path d="M0 0 C11.27223039 -0.67664175 22.53953917 -1.18935699 33.82804585 -1.50255299 C39.07330962 -1.65304054 44.30456275 -1.85618415 49.54174805 -2.18774414 C84.33974629 -4.33342308 84.33974629 -4.33342308 92.69732666 2.7244873 C98.98309947 9.10429607 102.73614948 17.10777375 106.24920654 25.23173523 C108.98875569 31.40432571 112.94073025 36.82500063 116.75 42.375 C118.15421921 44.49953172 119.541828 46.63422121 120.9296875 48.76953125 C121.60483398 49.80287598 122.27998047 50.8362207 122.97558594 51.90087891 C126.27644037 56.95406826 129.57640862 62.00783309 132.875 67.0625 C133.48722412 67.99964844 134.09944824 68.93679688 134.73022461 69.90234375 C137.60962936 74.31434118 140.47534017 78.73398178 143.30859375 83.17578125 C143.8185791 83.97298584 144.32856445 84.77019043 144.85400391 85.59155273 C145.79926743 87.07147402 146.74060291 88.55391454 147.67724609 90.03930664 C149.78105674 93.59064069 149.78105674 93.59064069 153 96 C153.28125732 95.4117041 153.56251465 94.8234082 153.85229492 94.21728516 C154.90555485 92.18246136 156.03870006 90.38874385 157.36328125 88.5234375 C157.83113037 87.862229 158.29897949 87.20102051 158.78100586 86.51977539 C159.28639893 85.81199951 159.79179199 85.10422363 160.3125 84.375 C160.84302979 83.62790771 161.37355957 82.88081543 161.92016602 82.11108398 C167.35853767 74.46643756 172.85438418 66.8632096 178.35888672 59.26611328 C181.07648163 55.51355215 183.78801939 51.75661955 186.5 48 C189.75869057 43.48608105 193.0186666 38.97312335 196.28515625 34.46484375 C202.28840372 26.17447495 208.2487886 17.85696906 214.13110352 9.48022461 C214.82804321 8.48841187 214.82804321 8.48841187 215.5390625 7.4765625 C215.94334473 6.89986816 216.34762695 6.32317383 216.76416016 5.72900391 C217.1719873 5.15843262 217.57981445 4.58786133 218 4 C218.36578659 3.31370514 218.73157318 2.62741028 219.10844421 1.9203186 C221.45032054 -0.45716807 223.06390993 -0.47054379 226.32324219 -0.49768066 C227.04181396 -0.48329956 227.76038574 -0.46891846 228.50073242 -0.45410156 C229.26194901 -0.45468567 230.02316559 -0.45526978 230.80744934 -0.45587158 C233.32391948 -0.45308448 235.83920553 -0.42196453 238.35546875 -0.390625 C240.09995374 -0.3831648 241.84444711 -0.37747082 243.58894348 -0.37347412 C248.18080781 -0.35820031 252.77216617 -0.31890368 257.36383057 -0.2746582 C262.0491247 -0.23374303 266.73450059 -0.21547115 271.41992188 -0.1953125 C280.61350357 -0.15241093 289.80670972 -0.08413863 299 0 C297.70183848 3.35261438 296.39513658 6.09721541 294.234375 8.9765625 C293.68144775 9.71962646 293.12852051 10.46269043 292.55883789 11.22827148 C291.96192139 12.01919189 291.36500488 12.8101123 290.75 13.625 C289.47248153 15.33710922 288.19514268 17.04935249 286.91796875 18.76171875 C285.93836182 20.06955322 285.93836182 20.06955322 284.93896484 21.40380859 C282.53333663 24.6248424 280.15289421 27.86387774 277.77441406 31.10498047 C271.77239282 39.2828628 265.70310656 47.40851244 259.60791016 55.51708984 C253.5975069 63.52006398 247.65982078 71.57549076 241.73388672 79.64111328 C238.82628372 83.59679621 235.91283606 87.54816989 233 91.5 C231.83330558 93.08331288 230.6666389 94.66664621 229.5 96.25 C227.16666667 99.41666667 224.83333333 102.58333333 222.5 105.75 C221.92258057 106.53366943 221.34516113 107.31733887 220.75024414 108.12475586 C219.58287469 109.70898481 218.41539412 111.29313188 217.24780273 112.87719727 C214.34097443 116.8211657 211.4360552 120.76651162 208.53515625 124.71484375 C207.99367415 125.44883266 207.45219206 126.18282158 206.89430141 126.93905258 C205.73750182 128.51684531 204.58948092 130.10114659 203.4539423 131.69430923 C200.53841125 135.74618256 197.58663139 139.52096607 194.08824158 143.08660889 C180.53222253 157.56497744 180.90523997 172.66092476 181.27716184 191.31724262 C181.34369001 195.46780528 181.32358895 199.6180262 181.3134613 203.76898193 C181.30712655 211.59635812 181.37644252 219.42107858 181.4743318 227.24777007 C181.60239699 237.84679421 181.61079396 248.44591116 181.62661266 259.04558563 C181.65456007 275.69877166 181.83994663 292.34634534 182 309 C157.91 309 133.82 309 109 309 C109.18304688 298.84347656 109.36609375 288.68695312 109.5546875 278.22265625 C109.62163503 271.71919255 109.68283487 265.21647804 109.71875 258.71289062 C109.77657798 248.42904205 109.85602978 238.14904184 110.08691406 227.86743164 C112.88043928 177.48514991 112.88043928 177.48514991 90.28426361 134.55941391 C89.54821774 133.7979122 89.54821774 133.7979122 88.79730225 133.02102661 C84.42733963 128.44506201 81.17946125 123.10863383 77.7890625 117.79296875 C76.58119087 115.99162775 75.36780554 114.1939694 74.1484375 112.40039062 C73.56803711 111.5416333 72.98763672 110.68287598 72.38964844 109.7980957 C71.51614746 108.50585083 71.51614746 108.50585083 70.625 107.1875 C68.20002845 103.59798864 65.77561876 100.00809828 63.3515625 96.41796875 C62.78057831 95.57242935 62.20959412 94.72688995 61.62130737 93.85572815 C58.75052322 89.60223269 55.88851087 85.3433666 53.046875 81.0703125 C46.32178241 70.95778562 39.50093821 60.90902243 32.70507812 50.84399414 C26.18646003 41.18866639 19.67090496 31.53186188 13.21881104 21.83190918 C11.10442709 18.6535438 8.97988398 15.48271774 6.8359375 12.32421875 C6.20751953 11.39512695 6.20751953 11.39512695 5.56640625 10.44726562 C4.73628072 9.22112939 3.90267672 7.99734404 3.06640625 6.77539062 C0 2.22445437 0 2.22445437 0 0 Z " fill="#FFFFFF" transform="translate(173,518)"/>
<path d="M0 0 C7.610625 -0.061875 15.22125 -0.12375 23.0625 -0.1875 C25.43187744 -0.21481201 27.80125488 -0.24212402 30.24243164 -0.27026367 C49.65328051 -0.40271063 68.55390701 0.95703365 83.390625 15.19140625 C93.17408229 26.18592257 94.79021423 39.80436577 94 54 C91.91179203 67.23555345 86.34864175 77.50969379 75.6484375 85.828125 C64.05815428 93.30329138 51.18213517 95.16482065 37.6953125 95.09765625 C36.73810303 95.09664917 35.78089355 95.09564209 34.79467773 95.09460449 C31.23810621 95.08939453 27.68155183 95.07543333 24.125 95.0625 C16.16375 95.041875 8.2025 95.02125 0 95 C0 63.65 0 32.3 0 0 Z " fill="#0062A8" transform="translate(1610,688)"/>
<path d="M0 0 C62.15335052 0 62.15335052 0 77.25 12.203125 C85.18431548 20.34996679 87.86849744 30.90995119 88 42 C86.97143073 54.78364663 82.24811494 65.25226052 72.9375 74.125 C52.73852593 90.34605795 23.56580529 86 0 86 C0 57.62 0 29.24 0 0 Z " fill="#0062A8" transform="translate(1610,560)"/>
<path d="M0 0 C0.66 0 1.32 0 2 0 C13.1666825 25.66942391 24.32190068 51.34415777 35.37832642 77.06130981 C36.28751506 79.17487454 37.19796201 81.28789847 38.10971069 83.40036011 C39.38404102 86.35391167 40.65358508 89.30947552 41.921875 92.265625 C42.29276749 93.12283646 42.66365997 93.98004791 43.04579163 94.86323547 C43.39258469 95.67439316 43.73937775 96.48555084 44.09667969 97.32128906 C44.39370789 98.01192444 44.69073608 98.70255981 44.99676514 99.41412354 C46.47466909 103.22347784 47.70789396 107.12368187 49 111 C16.99 111 -15.02 111 -48 111 C-45.75011286 104.25033857 -45.75011286 104.25033857 -44.34277344 101.06298828 C-43.86940552 99.9854554 -43.86940552 99.9854554 -43.38647461 98.88615417 C-43.04753174 98.12192642 -42.70858887 97.35769867 -42.359375 96.5703125 C-42.00077393 95.75585159 -41.64217285 94.94139069 -41.27270508 94.10224915 C-40.10087869 91.44209693 -38.92540782 88.78357141 -37.75 86.125 C-36.93101188 84.2671421 -36.11233013 82.40914912 -35.29394531 80.55102539 C-33.64219185 76.80102772 -31.98940466 73.05148843 -30.3359375 69.30224609 C-27.12606696 62.02035916 -23.93671993 54.72953997 -20.75 47.4375 C-20.19355793 46.16486065 -19.63708019 44.8922369 -19.08056641 43.61962891 C-17.96927725 41.07834186 -16.85812465 38.53699518 -15.74707031 35.99560547 C-12.85907794 29.39015239 -9.96899151 22.78561519 -7.07922363 16.18093872 C-5.57618765 12.74565452 -4.07325215 9.31032635 -2.5703125 5.875 C-1.71354167 3.91666667 -0.85677083 1.95833333 0 0 Z " fill="#0062A8" transform="translate(1941,616)"/>
</svg>
