<?xml version="1.0" encoding="UTF-8"?>
<svg version="1.1" xmlns="http://www.w3.org/2000/svg" width="50" height="51">
<path d="M0 0 C6.29671422 3.64546613 10.25669741 9.1292571 12.5 16 C13.52913515 24.87222827 13.0486814 32.74403202 7.5 40 C0.37776399 46.89248646 -6.28172411 48.46962514 -16.046875 48.31640625 C-23.24116872 47.6572006 -27.83649371 44.44075734 -32.5 39 C-37.93988825 31.44459965 -38.23138648 25.16264735 -37.5 16 C-35.24082539 8.06833261 -29.36475813 3.17854842 -22.5 -1 C-15.3734373 -3.3755209 -6.84743469 -3.10583796 0 0 Z " fill="#3FA9BA" transform="translate(37.5,2)"/>
<path d="M0 0 C0 3.3 0 6.6 0 10 C-1.32 9.67 -2.64 9.34 -4 9 C-4.33 9.99 -4.66 10.98 -5 12 C-5 11.01 -5 10.02 -5 9 C-5.99 9.495 -5.99 9.495 -7 10 C-6.67 10.99 -6.34 11.98 -6 13 C-5.96045766 15.33299825 -5.95598268 17.66708189 -6 20 C-4.35 19.67 -2.7 19.34 -1 19 C-0.67 19.99 -0.34 20.98 0 22 C-0.63808594 22.13277344 -1.27617187 22.26554687 -1.93359375 22.40234375 C-3.17302734 22.66724609 -3.17302734 22.66724609 -4.4375 22.9375 C-5.26121094 23.11152344 -6.08492187 23.28554688 -6.93359375 23.46484375 C-8.97661204 23.80752994 -8.97661204 23.80752994 -10 25 C-10.09886353 26.62252492 -10.12971167 28.24947273 -10.125 29.875 C-10.12757812 30.75929688 -10.13015625 31.64359375 -10.1328125 32.5546875 C-10.10048585 35.13906291 -10.10048585 35.13906291 -9 38 C-6.03 38.33 -3.06 38.66 0 39 C0 41.97 0 44.94 0 48 C-7.08842826 47.74223897 -11.58173246 45.574001 -17 41 C-22.05548021 34.90749821 -23.4936012 28.26513916 -23.31640625 20.4921875 C-22.48694153 13.95887277 -18.91835215 9.21573042 -14 5 C-8.97367959 1.3810493 -6.30725706 0 0 0 Z " fill="#0D66A1" transform="translate(24,1)"/>
<path d="M0 0 C0.8146875 0.00410889 1.629375 0.00821777 2.46875 0.01245117 C3.7990625 0.01535156 3.7990625 0.01535156 5.15625 0.01831055 C6.5484375 0.03667969 6.5484375 0.03667969 7.96875 0.05541992 C8.896875 0.05606445 9.825 0.05670898 10.78125 0.05737305 C17.68800626 0.10254805 17.68800626 0.10254805 19.96875 1.24291992 C20.04953641 3.36730332 20.10784141 5.49255222 20.15625 7.61791992 C20.20845703 9.39295898 20.20845703 9.39295898 20.26171875 11.20385742 C20.16503906 12.20674805 20.06835938 13.20963867 19.96875 14.24291992 C16.81560215 16.34501849 16.10771919 16.48639602 12.51953125 16.43823242 C11.24819336 16.42856445 11.24819336 16.42856445 9.95117188 16.41870117 C9.07009766 16.40194336 8.18902344 16.38518555 7.28125 16.36791992 C6.38857422 16.35889648 5.49589844 16.34987305 4.57617188 16.34057617 C2.37342686 16.3170174 0.17122412 16.28412321 -2.03125 16.24291992 C-3.75919088 13.00410322 -4.30331534 10.81386367 -4.28125 7.11791992 C-4.28898438 5.81467773 -4.28898438 5.81467773 -4.296875 4.48510742 C-3.93984932 1.47139069 -3.0618957 0.36617623 0 0 Z " fill="#D2E7EE" transform="translate(17.03125,23.757080078125)"/>
<path d="M0 0 C4.48138134 5.97517512 4.59162246 10.74276446 4 18 C3.23172097 20.85871268 2.22679088 23.2908368 1 26 C0.67 26 0.34 26 0 26 C0 17.42 0 8.84 0 0 Z " fill="#0AA8AA" transform="translate(45,12)"/>
<path d="M0 0 C1.32 0 2.64 0 4 0 C4 2.31 4 4.62 4 7 C2.0625 7.5625 2.0625 7.5625 0 8 C-1 7 -1 7 -1.125 4 C-1 1 -1 1 0 0 Z " fill="#C9E2EB" transform="translate(23,13)"/>
<path d="M0 0 C1.65 0 3.3 0 5 0 C5 2.64 5 5.28 5 8 C3.35 8 1.7 8 0 8 C0 5.36 0 2.72 0 0 Z " fill="#E9F4F7" transform="translate(28,13)"/>
<path d="M0 0 C1.98 0 3.96 0 6 0 C5.34 3.63 4.68 7.26 4 11 C3.34 11 2.68 11 2 11 C1.34 7.37 0.68 3.74 0 0 Z " fill="#E0EDF3" transform="translate(16,10)"/>
<path d="M0 0 C0.66 0 1.32 0 2 0 C4.29013653 3.4352048 4.17842973 4.985331 4 9 C2.68 9 1.36 9 0 9 C0 6.03 0 3.06 0 0 Z " fill="#5DADC3" transform="translate(26,27)"/>
</svg>
