<svg xmlns="http://www.w3.org/2000/svg" width="18.163" height="12.771" viewBox="0 0 18.163 12.771" class="jsx-1042541019"><path data-name="Icon awesome-youtube" d="M18.833 6.5a2.282 2.282 0 0 0-1.606-1.616 53.932 53.932 0 0 0-7.1-.382 53.932 53.932 0 0 0-7.1.382A2.282 2.282 0 0 0 1.43 6.5a23.94 23.94 0 0 0-.38 4.4 23.94 23.94 0 0 0 .38 4.4 2.248 2.248 0 0 0 1.606 1.59 53.932 53.932 0 0 0 7.1.382 53.932 53.932 0 0 0 7.1-.382 2.248 2.248 0 0 0 1.606-1.59 23.94 23.94 0 0 0 .38-4.4 23.94 23.94 0 0 0-.38-4.4zM8.274 13.6V8.2l4.747 2.7-4.747 2.7z" transform="translate(-1.05 -4.5)" class="jsx-1042541019 cls-youtube"></path></svg>